%TF.GenerationSoftware,KiCad,Pcbnew,(6.0.7)*%
%TF.CreationDate,2022-09-11T16:21:36-04:00*%
%TF.ProjectId,augertapowermanagement,61756765-7274-4617-906f-7765726d616e,rev?*%
%TF.SameCoordinates,Original*%
%TF.FileFunction,Soldermask,Top*%
%TF.FilePolarity,Negative*%
%FSLAX46Y46*%
G04 Gerber Fmt 4.6, Leading zero omitted, Abs format (unit mm)*
G04 Created by KiCad (PCBNEW (6.0.7)) date 2022-09-11 16:21:36*
%MOMM*%
%LPD*%
G01*
G04 APERTURE LIST*
G04 Aperture macros list*
%AMRoundRect*
0 Rectangle with rounded corners*
0 $1 Rounding radius*
0 $2 $3 $4 $5 $6 $7 $8 $9 X,Y pos of 4 corners*
0 Add a 4 corners polygon primitive as box body*
4,1,4,$2,$3,$4,$5,$6,$7,$8,$9,$2,$3,0*
0 Add four circle primitives for the rounded corners*
1,1,$1+$1,$2,$3*
1,1,$1+$1,$4,$5*
1,1,$1+$1,$6,$7*
1,1,$1+$1,$8,$9*
0 Add four rect primitives between the rounded corners*
20,1,$1+$1,$2,$3,$4,$5,0*
20,1,$1+$1,$4,$5,$6,$7,0*
20,1,$1+$1,$6,$7,$8,$9,0*
20,1,$1+$1,$8,$9,$2,$3,0*%
G04 Aperture macros list end*
%ADD10C,8.400000*%
%ADD11R,2.200000X2.200000*%
%ADD12O,2.200000X2.200000*%
%ADD13RoundRect,0.150000X-0.825000X-0.150000X0.825000X-0.150000X0.825000X0.150000X-0.825000X0.150000X0*%
%ADD14R,2.600000X2.600000*%
%ADD15C,2.600000*%
%ADD16C,3.000000*%
%ADD17R,3.000000X2.475000*%
%ADD18C,3.700000*%
%ADD19RoundRect,0.250002X-1.599998X-1.599998X1.599998X-1.599998X1.599998X1.599998X-1.599998X1.599998X0*%
%ADD20R,4.572000X4.572000*%
%ADD21RoundRect,0.250000X1.975000X-1.350000X1.975000X1.350000X-1.975000X1.350000X-1.975000X-1.350000X0*%
%ADD22RoundRect,0.250000X-1.350000X-1.975000X1.350000X-1.975000X1.350000X1.975000X-1.350000X1.975000X0*%
%ADD23RoundRect,0.500000X-0.500000X-0.500000X0.500000X-0.500000X0.500000X0.500000X-0.500000X0.500000X0*%
%ADD24C,2.000000*%
%ADD25RoundRect,0.250000X-1.100000X0.412500X-1.100000X-0.412500X1.100000X-0.412500X1.100000X0.412500X0*%
%ADD26RoundRect,0.250000X0.400000X0.625000X-0.400000X0.625000X-0.400000X-0.625000X0.400000X-0.625000X0*%
%ADD27RoundRect,0.250000X0.625000X-0.400000X0.625000X0.400000X-0.625000X0.400000X-0.625000X-0.400000X0*%
%ADD28RoundRect,0.500000X0.500000X-0.500000X0.500000X0.500000X-0.500000X0.500000X-0.500000X-0.500000X0*%
%ADD29RoundRect,0.250000X1.350000X1.975000X-1.350000X1.975000X-1.350000X-1.975000X1.350000X-1.975000X0*%
%ADD30R,1.500000X1.500000*%
%ADD31C,1.500000*%
%ADD32R,1.350000X1.350000*%
%ADD33O,1.350000X1.350000*%
%ADD34RoundRect,0.150000X0.825000X0.150000X-0.825000X0.150000X-0.825000X-0.150000X0.825000X-0.150000X0*%
%ADD35RoundRect,0.250000X-0.400000X-0.625000X0.400000X-0.625000X0.400000X0.625000X-0.400000X0.625000X0*%
%ADD36R,1.800000X1.100000*%
%ADD37RoundRect,0.275000X0.625000X-0.275000X0.625000X0.275000X-0.625000X0.275000X-0.625000X-0.275000X0*%
%ADD38O,1.500000X2.500000*%
%ADD39R,1.500000X2.500000*%
%ADD40O,2.200000X3.500000*%
%ADD41R,1.700000X1.700000*%
%ADD42O,1.700000X1.700000*%
%ADD43R,1.560000X1.560000*%
%ADD44C,1.560000*%
%ADD45R,2.475000X3.000000*%
G04 APERTURE END LIST*
D10*
%TO.C,H9*%
X60756800Y-116332000D03*
%TD*%
%TO.C,H8*%
X151384000Y-163372800D03*
%TD*%
%TO.C,H5*%
X299923200Y-51460400D03*
%TD*%
%TO.C,H4*%
X324256400Y-194665600D03*
%TD*%
%TO.C,H3*%
X276199600Y-139344400D03*
%TD*%
D11*
%TO.C,D2*%
X90170000Y-110744000D03*
D12*
X100330000Y-110744000D03*
%TD*%
D13*
%TO.C,U14*%
X352754026Y-106125000D03*
X352754026Y-107395000D03*
X352754026Y-108665000D03*
X352754026Y-109935000D03*
X357704026Y-109935000D03*
X357704026Y-108665000D03*
X357704026Y-107395000D03*
X357704026Y-106125000D03*
%TD*%
D14*
%TO.C,J10*%
X98907600Y-212089800D03*
D15*
X93827600Y-212089800D03*
X88747600Y-212089800D03*
X83667600Y-212089800D03*
X78587600Y-212089800D03*
X73507600Y-212089800D03*
X68427600Y-212089800D03*
X63347600Y-212089800D03*
X58267600Y-212089800D03*
X53187600Y-212089800D03*
%TD*%
D16*
%TO.C,TP6*%
X272999200Y-169773600D03*
%TD*%
D17*
%TO.C,JP5*%
X128778000Y-65232100D03*
X128778000Y-70607100D03*
%TD*%
D11*
%TO.C,D1*%
X75946000Y-65405000D03*
D12*
X75946000Y-55245000D03*
%TD*%
D18*
%TO.C,J2*%
X59436000Y-63369000D03*
D19*
X59436000Y-57869000D03*
D16*
X59436000Y-50569000D03*
%TD*%
D20*
%TO.C,U8*%
X289697026Y-72126000D03*
X289697026Y-87874000D03*
X335417026Y-72126000D03*
X335417026Y-87874000D03*
%TD*%
D14*
%TO.C,J9*%
X166196026Y-212261000D03*
D15*
X171276026Y-212261000D03*
X176356026Y-212261000D03*
X181436026Y-212261000D03*
X186516026Y-212261000D03*
%TD*%
D21*
%TO.C,R15*%
X350520000Y-191982400D03*
X350520000Y-186782400D03*
%TD*%
D16*
%TO.C,TP9*%
X353009200Y-128981200D03*
%TD*%
D22*
%TO.C,R3*%
X273904400Y-188772800D03*
X279104400Y-188772800D03*
%TD*%
D13*
%TO.C,U3*%
X264936200Y-179806600D03*
X264936200Y-181076600D03*
X264936200Y-182346600D03*
X264936200Y-183616600D03*
X269886200Y-183616600D03*
X269886200Y-182346600D03*
X269886200Y-181076600D03*
X269886200Y-179806600D03*
%TD*%
D16*
%TO.C,K1*%
X120057000Y-127129000D03*
X109917000Y-109329000D03*
X117517000Y-109329000D03*
D23*
X132717000Y-123329000D03*
D24*
X132717000Y-113129000D03*
%TD*%
D20*
%TO.C,U9*%
X217401692Y-50140000D03*
X201653692Y-50140000D03*
X217401692Y-95860000D03*
X201653692Y-95860000D03*
%TD*%
D16*
%TO.C,TP12*%
X209346800Y-101752400D03*
%TD*%
D20*
%TO.C,U12*%
X289697026Y-99394000D03*
X289697026Y-115142000D03*
X335417026Y-99394000D03*
X335417026Y-115142000D03*
%TD*%
D22*
%TO.C,R7*%
X207398000Y-107340400D03*
X212598000Y-107340400D03*
%TD*%
D25*
%TO.C,C1*%
X150215600Y-123151500D03*
X150215600Y-126276500D03*
%TD*%
D26*
%TO.C,R1*%
X99390800Y-126746000D03*
X96290800Y-126746000D03*
%TD*%
D20*
%TO.C,U4*%
X289697026Y-126826000D03*
X289697026Y-142574000D03*
X335417026Y-126826000D03*
X335417026Y-142574000D03*
%TD*%
D16*
%TO.C,TP3*%
X116332000Y-81534000D03*
%TD*%
D22*
%TO.C,R5*%
X178298800Y-110794800D03*
X183498800Y-110794800D03*
%TD*%
D16*
%TO.C,TP5*%
X140208000Y-184658000D03*
%TD*%
D27*
%TO.C,R2*%
X92354400Y-124536800D03*
X92354400Y-121436800D03*
%TD*%
D20*
%TO.C,U5*%
X189631026Y-50140000D03*
X173883026Y-50140000D03*
X189631026Y-95860000D03*
X173883026Y-95860000D03*
%TD*%
D16*
%TO.C,TP16*%
X260908800Y-102108000D03*
%TD*%
D22*
%TO.C,R6*%
X354347026Y-71708000D03*
X359547026Y-71708000D03*
%TD*%
D20*
%TO.C,U20*%
X214931026Y-136772000D03*
X199183026Y-136772000D03*
X214931026Y-182492000D03*
X199183026Y-182492000D03*
%TD*%
D13*
%TO.C,U10*%
X355040026Y-80725000D03*
X355040026Y-81995000D03*
X355040026Y-83265000D03*
X355040026Y-84535000D03*
X359990026Y-84535000D03*
X359990026Y-83265000D03*
X359990026Y-81995000D03*
X359990026Y-80725000D03*
%TD*%
D16*
%TO.C,TP15*%
X195427600Y-193243200D03*
%TD*%
%TO.C,TP1*%
X69342000Y-72390000D03*
%TD*%
D20*
%TO.C,U13*%
X245231026Y-50240000D03*
X229483026Y-50240000D03*
X245231026Y-95960000D03*
X229483026Y-95960000D03*
%TD*%
D13*
%TO.C,U15*%
X235421400Y-114579400D03*
X235421400Y-115849400D03*
X235421400Y-117119400D03*
X235421400Y-118389400D03*
X240371400Y-118389400D03*
X240371400Y-117119400D03*
X240371400Y-115849400D03*
X240371400Y-114579400D03*
%TD*%
D16*
%TO.C,K2*%
X104523000Y-62442000D03*
X86723000Y-72582000D03*
X86723000Y-64982000D03*
D28*
X100723000Y-49782000D03*
D24*
X90523000Y-49782000D03*
%TD*%
D14*
%TO.C,J8*%
X55981800Y-175514000D03*
D15*
X55981800Y-170434000D03*
X55981800Y-165354000D03*
X55981800Y-160274000D03*
X55981800Y-155194000D03*
X55981800Y-150114000D03*
X55981800Y-145034000D03*
X55981800Y-139954000D03*
X55981800Y-134874000D03*
X55981800Y-129794000D03*
%TD*%
D13*
%TO.C,U7*%
X178737800Y-117779800D03*
X178737800Y-119049800D03*
X178737800Y-120319800D03*
X178737800Y-121589800D03*
X183687800Y-121589800D03*
X183687800Y-120319800D03*
X183687800Y-119049800D03*
X183687800Y-117779800D03*
%TD*%
D14*
%TO.C,J1*%
X75912026Y-46736200D03*
D15*
X80992026Y-46736200D03*
%TD*%
D16*
%TO.C,TP17*%
X226974400Y-150571200D03*
%TD*%
D22*
%TO.C,R4*%
X354347026Y-135970000D03*
X359547026Y-135970000D03*
%TD*%
D16*
%TO.C,TP13*%
X346465026Y-94706000D03*
%TD*%
D29*
%TO.C,R10*%
X231403200Y-195072000D03*
X226203200Y-195072000D03*
%TD*%
D25*
%TO.C,C2*%
X125750000Y-185377500D03*
X125750000Y-188502500D03*
%TD*%
D30*
%TO.C,J6*%
X354934400Y-55952800D03*
D31*
X352434400Y-55952800D03*
X350434400Y-55952800D03*
X347934400Y-55952800D03*
X354934400Y-53332800D03*
X352434400Y-53332800D03*
X350434400Y-53332800D03*
X347934400Y-53332800D03*
D16*
X358004400Y-56302800D03*
X344864400Y-56302800D03*
X344864400Y-50622800D03*
X358004400Y-50622800D03*
%TD*%
D32*
%TO.C,JP3*%
X208940400Y-130556000D03*
D33*
X210940400Y-130556000D03*
%TD*%
D20*
%TO.C,U17*%
X272943026Y-50140000D03*
X257195026Y-50140000D03*
X272943026Y-95860000D03*
X257195026Y-95860000D03*
%TD*%
D34*
%TO.C,U18*%
X232091000Y-184073800D03*
X232091000Y-182803800D03*
X232091000Y-181533800D03*
X232091000Y-180263800D03*
X227141000Y-180263800D03*
X227141000Y-181533800D03*
X227141000Y-182803800D03*
X227141000Y-184073800D03*
%TD*%
D35*
%TO.C,R13*%
X145262000Y-138277600D03*
X148362000Y-138277600D03*
%TD*%
D30*
%TO.C,J3*%
X336653026Y-205584000D03*
D31*
X339153026Y-205584000D03*
X341153026Y-205584000D03*
X343653026Y-205584000D03*
X336653026Y-208204000D03*
X339153026Y-208204000D03*
X341153026Y-208204000D03*
X343653026Y-208204000D03*
D16*
X333583026Y-210914000D03*
X346723026Y-210914000D03*
X333583026Y-205234000D03*
X346723026Y-205234000D03*
%TD*%
D22*
%TO.C,R8*%
X351613026Y-100156000D03*
X356813026Y-100156000D03*
%TD*%
D13*
%TO.C,U19*%
X263666200Y-114173000D03*
X263666200Y-115443000D03*
X263666200Y-116713000D03*
X263666200Y-117983000D03*
X268616200Y-117983000D03*
X268616200Y-116713000D03*
X268616200Y-115443000D03*
X268616200Y-114173000D03*
%TD*%
D29*
%TO.C,R14*%
X240902800Y-150164800D03*
X235702800Y-150164800D03*
%TD*%
D13*
%TO.C,U6*%
X354532026Y-144733000D03*
X354532026Y-146003000D03*
X354532026Y-147273000D03*
X354532026Y-148543000D03*
X359482026Y-148543000D03*
X359482026Y-147273000D03*
X359482026Y-146003000D03*
X359482026Y-144733000D03*
%TD*%
D30*
%TO.C,J5*%
X331160000Y-56003600D03*
D31*
X328660000Y-56003600D03*
X326660000Y-56003600D03*
X324160000Y-56003600D03*
X331160000Y-53383600D03*
X328660000Y-53383600D03*
X326660000Y-53383600D03*
X324160000Y-53383600D03*
D16*
X334230000Y-50673600D03*
X321090000Y-50673600D03*
X321090000Y-56353600D03*
X334230000Y-56353600D03*
%TD*%
D36*
%TO.C,Q1*%
X99256800Y-122682000D03*
D37*
X97186800Y-121412000D03*
X99256800Y-120142000D03*
%TD*%
D38*
%TO.C,SW1*%
X114157026Y-43300000D03*
X116157026Y-43300000D03*
D39*
X118157026Y-43300000D03*
D40*
X112057026Y-43300000D03*
X120257026Y-43300000D03*
%TD*%
D16*
%TO.C,TP18*%
X347624400Y-172008800D03*
%TD*%
D32*
%TO.C,JP4*%
X280314400Y-153720800D03*
D33*
X278314400Y-153720800D03*
%TD*%
D35*
%TO.C,R12*%
X145008000Y-134239000D03*
X148108000Y-134239000D03*
%TD*%
D13*
%TO.C,U11*%
X207583000Y-114579400D03*
X207583000Y-115849400D03*
X207583000Y-117119400D03*
X207583000Y-118389400D03*
X212533000Y-118389400D03*
X212533000Y-117119400D03*
X212533000Y-115849400D03*
X212533000Y-114579400D03*
%TD*%
D41*
%TO.C,U24*%
X143557026Y-43300000D03*
D42*
X146097026Y-43300000D03*
X148637026Y-43300000D03*
X151177026Y-43300000D03*
X153717026Y-43300000D03*
X156257026Y-43300000D03*
X158797026Y-43300000D03*
X161337026Y-43300000D03*
%TD*%
D14*
%TO.C,J12*%
X198851526Y-212261000D03*
D15*
X203931526Y-212261000D03*
X209011526Y-212261000D03*
X214091526Y-212261000D03*
X219171526Y-212261000D03*
%TD*%
D43*
%TO.C,U2*%
X77823026Y-178936000D03*
D44*
X80363026Y-178936000D03*
X82903026Y-178936000D03*
X85443026Y-178936000D03*
X87983026Y-178936000D03*
X90523026Y-178936000D03*
X93063026Y-178936000D03*
X95603026Y-178936000D03*
X98143026Y-178936000D03*
X100683026Y-178936000D03*
X103223026Y-178936000D03*
X105763026Y-178936000D03*
X108303026Y-178936000D03*
X110843026Y-178936000D03*
X113383026Y-178936000D03*
X115923026Y-178936000D03*
X118463026Y-178936000D03*
X121003026Y-178936000D03*
X123543026Y-178936000D03*
X77823026Y-153536000D03*
X80363026Y-153536000D03*
X82903026Y-153536000D03*
X85443026Y-153536000D03*
X87983026Y-153536000D03*
X90523026Y-153536000D03*
X93063026Y-153536000D03*
X95603026Y-153536000D03*
X98143026Y-153536000D03*
X100683026Y-153536000D03*
X103223026Y-153536000D03*
X105763026Y-153536000D03*
X108303026Y-153536000D03*
X110843026Y-153536000D03*
X113383026Y-153536000D03*
X115923026Y-153536000D03*
X118463026Y-153536000D03*
X121003026Y-153536000D03*
X123543026Y-153536000D03*
%TD*%
D22*
%TO.C,R9*%
X235499600Y-107645200D03*
X240699600Y-107645200D03*
%TD*%
D34*
%TO.C,U21*%
X241539800Y-141503400D03*
X241539800Y-140233400D03*
X241539800Y-138963400D03*
X241539800Y-137693400D03*
X236589800Y-137693400D03*
X236589800Y-138963400D03*
X236589800Y-140233400D03*
X236589800Y-141503400D03*
%TD*%
D20*
%TO.C,U22*%
X289697026Y-154258000D03*
X289697026Y-170006000D03*
X335417026Y-154258000D03*
X335417026Y-170006000D03*
%TD*%
D16*
%TO.C,TP10*%
X178206400Y-103682800D03*
%TD*%
D30*
%TO.C,J4*%
X285853026Y-205584000D03*
D31*
X288353026Y-205584000D03*
X290353026Y-205584000D03*
X292853026Y-205584000D03*
X285853026Y-208204000D03*
X288353026Y-208204000D03*
X290353026Y-208204000D03*
X292853026Y-208204000D03*
D16*
X282783026Y-210914000D03*
X295923026Y-210914000D03*
X282783026Y-205234000D03*
X295923026Y-205234000D03*
%TD*%
D22*
%TO.C,R11*%
X264100000Y-107950000D03*
X269300000Y-107950000D03*
%TD*%
D14*
%TO.C,J11*%
X153860526Y-211651000D03*
D15*
X148780526Y-211651000D03*
X143700526Y-211651000D03*
X138620526Y-211651000D03*
X133540526Y-211651000D03*
X128460526Y-211651000D03*
X123380526Y-211651000D03*
X118300526Y-211651000D03*
X113220526Y-211651000D03*
X108140526Y-211651000D03*
%TD*%
D20*
%TO.C,U16*%
X183943026Y-136772000D03*
X168195026Y-136772000D03*
X183943026Y-182492000D03*
X168195026Y-182492000D03*
%TD*%
D45*
%TO.C,JP1*%
X125328500Y-104546400D03*
X130703500Y-104546400D03*
%TD*%
D20*
%TO.C,U1*%
X59483026Y-80130000D03*
X59483026Y-95878000D03*
X105203026Y-80130000D03*
X105203026Y-95878000D03*
%TD*%
D16*
%TO.C,TP14*%
X236982000Y-101803200D03*
%TD*%
%TO.C,TP4*%
X80873600Y-118465600D03*
%TD*%
%TO.C,TP11*%
X359968800Y-77165200D03*
%TD*%
D14*
%TO.C,J7*%
X231467026Y-211456000D03*
D15*
X236467026Y-211456000D03*
X241467026Y-211456000D03*
X246467026Y-211456000D03*
X251467026Y-211456000D03*
X256467026Y-211456000D03*
X261467026Y-211456000D03*
X266467026Y-211456000D03*
%TD*%
D13*
%TO.C,U23*%
X338982026Y-189595000D03*
X338982026Y-190865000D03*
X338982026Y-192135000D03*
X338982026Y-193405000D03*
X343932026Y-193405000D03*
X343932026Y-192135000D03*
X343932026Y-190865000D03*
X343932026Y-189595000D03*
%TD*%
M02*
