%TF.GenerationSoftware,KiCad,Pcbnew,6.0.2+dfsg-1*%
%TF.CreationDate,2022-08-26T13:51:31-04:00*%
%TF.ProjectId,augertapowermanagement,61756765-7274-4617-906f-7765726d616e,rev?*%
%TF.SameCoordinates,Original*%
%TF.FileFunction,Paste,Top*%
%TF.FilePolarity,Positive*%
%FSLAX46Y46*%
G04 Gerber Fmt 4.6, Leading zero omitted, Abs format (unit mm)*
G04 Created by KiCad (PCBNEW 6.0.2+dfsg-1) date 2022-08-26 13:51:31*
%MOMM*%
%LPD*%
G01*
G04 APERTURE LIST*
G04 Aperture macros list*
%AMRoundRect*
0 Rectangle with rounded corners*
0 $1 Rounding radius*
0 $2 $3 $4 $5 $6 $7 $8 $9 X,Y pos of 4 corners*
0 Add a 4 corners polygon primitive as box body*
4,1,4,$2,$3,$4,$5,$6,$7,$8,$9,$2,$3,0*
0 Add four circle primitives for the rounded corners*
1,1,$1+$1,$2,$3*
1,1,$1+$1,$4,$5*
1,1,$1+$1,$6,$7*
1,1,$1+$1,$8,$9*
0 Add four rect primitives between the rounded corners*
20,1,$1+$1,$2,$3,$4,$5,0*
20,1,$1+$1,$4,$5,$6,$7,0*
20,1,$1+$1,$6,$7,$8,$9,0*
20,1,$1+$1,$8,$9,$2,$3,0*%
G04 Aperture macros list end*
%ADD10RoundRect,0.150000X-0.825000X-0.150000X0.825000X-0.150000X0.825000X0.150000X-0.825000X0.150000X0*%
%ADD11RoundRect,0.250000X-1.350000X-1.975000X1.350000X-1.975000X1.350000X1.975000X-1.350000X1.975000X0*%
%ADD12RoundRect,0.250000X-0.412500X-1.100000X0.412500X-1.100000X0.412500X1.100000X-0.412500X1.100000X0*%
%ADD13RoundRect,0.250000X1.075000X-0.400000X1.075000X0.400000X-1.075000X0.400000X-1.075000X-0.400000X0*%
%ADD14RoundRect,0.250000X-0.400000X-1.075000X0.400000X-1.075000X0.400000X1.075000X-0.400000X1.075000X0*%
%ADD15RoundRect,0.250000X1.350000X1.975000X-1.350000X1.975000X-1.350000X-1.975000X1.350000X-1.975000X0*%
%ADD16RoundRect,0.250000X-1.100000X0.412500X-1.100000X-0.412500X1.100000X-0.412500X1.100000X0.412500X0*%
%ADD17RoundRect,0.249999X-0.450001X-1.425001X0.450001X-1.425001X0.450001X1.425001X-0.450001X1.425001X0*%
%ADD18RoundRect,0.250000X0.400000X1.075000X-0.400000X1.075000X-0.400000X-1.075000X0.400000X-1.075000X0*%
%ADD19RoundRect,0.150000X0.825000X0.150000X-0.825000X0.150000X-0.825000X-0.150000X0.825000X-0.150000X0*%
G04 APERTURE END LIST*
D10*
%TO.C,U14*%
X352754026Y-106125000D03*
X352754026Y-107395000D03*
X352754026Y-108665000D03*
X352754026Y-109935000D03*
X357704026Y-109935000D03*
X357704026Y-108665000D03*
X357704026Y-107395000D03*
X357704026Y-106125000D03*
%TD*%
D11*
%TO.C,R15*%
X351965026Y-187456000D03*
X357165026Y-187456000D03*
%TD*%
%TO.C,R3*%
X268157026Y-165000000D03*
X273357026Y-165000000D03*
%TD*%
D10*
%TO.C,U3*%
X268596026Y-174017000D03*
X268596026Y-175287000D03*
X268596026Y-176557000D03*
X268596026Y-177827000D03*
X273546026Y-177827000D03*
X273546026Y-176557000D03*
X273546026Y-175287000D03*
X273546026Y-174017000D03*
%TD*%
D11*
%TO.C,R7*%
X215557026Y-109000000D03*
X220757026Y-109000000D03*
%TD*%
D12*
%TO.C,C1*%
X152916526Y-104006000D03*
X156041526Y-104006000D03*
%TD*%
D13*
%TO.C,R1*%
X140631026Y-125550000D03*
X140631026Y-122450000D03*
%TD*%
D11*
%TO.C,R5*%
X190157026Y-112000000D03*
X195357026Y-112000000D03*
%TD*%
D14*
%TO.C,R2*%
X103900000Y-47000000D03*
X107000000Y-47000000D03*
%TD*%
D11*
%TO.C,R6*%
X354347026Y-71708000D03*
X359547026Y-71708000D03*
%TD*%
D10*
%TO.C,U10*%
X355040026Y-80725000D03*
X355040026Y-81995000D03*
X355040026Y-83265000D03*
X355040026Y-84535000D03*
X359990026Y-84535000D03*
X359990026Y-83265000D03*
X359990026Y-81995000D03*
X359990026Y-80725000D03*
%TD*%
%TO.C,U15*%
X240282026Y-122509000D03*
X240282026Y-123779000D03*
X240282026Y-125049000D03*
X240282026Y-126319000D03*
X245232026Y-126319000D03*
X245232026Y-125049000D03*
X245232026Y-123779000D03*
X245232026Y-122509000D03*
%TD*%
%TO.C,U7*%
X190596026Y-118985000D03*
X190596026Y-120255000D03*
X190596026Y-121525000D03*
X190596026Y-122795000D03*
X195546026Y-122795000D03*
X195546026Y-121525000D03*
X195546026Y-120255000D03*
X195546026Y-118985000D03*
%TD*%
D11*
%TO.C,R4*%
X354347026Y-135970000D03*
X359547026Y-135970000D03*
%TD*%
D15*
%TO.C,R10*%
X190607026Y-190250000D03*
X185407026Y-190250000D03*
%TD*%
D16*
%TO.C,C2*%
X125757026Y-186000000D03*
X125757026Y-189125000D03*
%TD*%
D10*
%TO.C,U18*%
X182032026Y-195595000D03*
X182032026Y-196865000D03*
X182032026Y-198135000D03*
X182032026Y-199405000D03*
X186982026Y-199405000D03*
X186982026Y-198135000D03*
X186982026Y-196865000D03*
X186982026Y-195595000D03*
%TD*%
D17*
%TO.C,R13*%
X143553026Y-129406000D03*
X149653026Y-129406000D03*
%TD*%
D11*
%TO.C,R8*%
X351613026Y-100156000D03*
X356813026Y-100156000D03*
%TD*%
D10*
%TO.C,U19*%
X261774026Y-120763000D03*
X261774026Y-122033000D03*
X261774026Y-123303000D03*
X261774026Y-124573000D03*
X266724026Y-124573000D03*
X266724026Y-123303000D03*
X266724026Y-122033000D03*
X266724026Y-120763000D03*
%TD*%
D15*
%TO.C,R14*%
X246357026Y-169500000D03*
X241157026Y-169500000D03*
%TD*%
D10*
%TO.C,U6*%
X354532026Y-144733000D03*
X354532026Y-146003000D03*
X354532026Y-147273000D03*
X354532026Y-148543000D03*
X359482026Y-148543000D03*
X359482026Y-147273000D03*
X359482026Y-146003000D03*
X359482026Y-144733000D03*
%TD*%
D17*
%TO.C,R12*%
X143809026Y-138804000D03*
X149909026Y-138804000D03*
%TD*%
D10*
%TO.C,U11*%
X215742026Y-116239000D03*
X215742026Y-117509000D03*
X215742026Y-118779000D03*
X215742026Y-120049000D03*
X220692026Y-120049000D03*
X220692026Y-118779000D03*
X220692026Y-117509000D03*
X220692026Y-116239000D03*
%TD*%
D18*
%TO.C,R16*%
X112550000Y-71000000D03*
X109450000Y-71000000D03*
%TD*%
D14*
%TO.C,F1*%
X140483026Y-71240000D03*
X143583026Y-71240000D03*
%TD*%
D11*
%TO.C,R9*%
X240157026Y-114000000D03*
X245357026Y-114000000D03*
%TD*%
D14*
%TO.C,F2*%
X141499026Y-64128000D03*
X144599026Y-64128000D03*
%TD*%
D19*
%TO.C,U21*%
X247950026Y-163023000D03*
X247950026Y-161753000D03*
X247950026Y-160483000D03*
X247950026Y-159213000D03*
X243000026Y-159213000D03*
X243000026Y-160483000D03*
X243000026Y-161753000D03*
X243000026Y-163023000D03*
%TD*%
D11*
%TO.C,R11*%
X262157026Y-112000000D03*
X267357026Y-112000000D03*
%TD*%
D10*
%TO.C,U23*%
X338982026Y-189595000D03*
X338982026Y-190865000D03*
X338982026Y-192135000D03*
X338982026Y-193405000D03*
X343932026Y-193405000D03*
X343932026Y-192135000D03*
X343932026Y-190865000D03*
X343932026Y-189595000D03*
%TD*%
M02*
