%TF.GenerationSoftware,KiCad,Pcbnew,(6.0.7)*%
%TF.CreationDate,2022-09-11T16:21:36-04:00*%
%TF.ProjectId,augertapowermanagement,61756765-7274-4617-906f-7765726d616e,rev?*%
%TF.SameCoordinates,Original*%
%TF.FileFunction,Copper,L1,Top*%
%TF.FilePolarity,Positive*%
%FSLAX46Y46*%
G04 Gerber Fmt 4.6, Leading zero omitted, Abs format (unit mm)*
G04 Created by KiCad (PCBNEW (6.0.7)) date 2022-09-11 16:21:36*
%MOMM*%
%LPD*%
G01*
G04 APERTURE LIST*
G04 Aperture macros list*
%AMRoundRect*
0 Rectangle with rounded corners*
0 $1 Rounding radius*
0 $2 $3 $4 $5 $6 $7 $8 $9 X,Y pos of 4 corners*
0 Add a 4 corners polygon primitive as box body*
4,1,4,$2,$3,$4,$5,$6,$7,$8,$9,$2,$3,0*
0 Add four circle primitives for the rounded corners*
1,1,$1+$1,$2,$3*
1,1,$1+$1,$4,$5*
1,1,$1+$1,$6,$7*
1,1,$1+$1,$8,$9*
0 Add four rect primitives between the rounded corners*
20,1,$1+$1,$2,$3,$4,$5,0*
20,1,$1+$1,$4,$5,$6,$7,0*
20,1,$1+$1,$6,$7,$8,$9,0*
20,1,$1+$1,$8,$9,$2,$3,0*%
G04 Aperture macros list end*
%TA.AperFunction,ComponentPad*%
%ADD10R,2.200000X2.200000*%
%TD*%
%TA.AperFunction,ComponentPad*%
%ADD11O,2.200000X2.200000*%
%TD*%
%TA.AperFunction,SMDPad,CuDef*%
%ADD12RoundRect,0.150000X-0.825000X-0.150000X0.825000X-0.150000X0.825000X0.150000X-0.825000X0.150000X0*%
%TD*%
%TA.AperFunction,ComponentPad*%
%ADD13R,2.600000X2.600000*%
%TD*%
%TA.AperFunction,ComponentPad*%
%ADD14C,2.600000*%
%TD*%
%TA.AperFunction,ComponentPad*%
%ADD15C,3.000000*%
%TD*%
%TA.AperFunction,SMDPad,CuDef*%
%ADD16R,3.000000X2.475000*%
%TD*%
%TA.AperFunction,ComponentPad*%
%ADD17C,3.700000*%
%TD*%
%TA.AperFunction,ComponentPad*%
%ADD18RoundRect,0.250002X-1.599998X-1.599998X1.599998X-1.599998X1.599998X1.599998X-1.599998X1.599998X0*%
%TD*%
%TA.AperFunction,ComponentPad*%
%ADD19R,4.572000X4.572000*%
%TD*%
%TA.AperFunction,SMDPad,CuDef*%
%ADD20RoundRect,0.250000X1.975000X-1.350000X1.975000X1.350000X-1.975000X1.350000X-1.975000X-1.350000X0*%
%TD*%
%TA.AperFunction,SMDPad,CuDef*%
%ADD21RoundRect,0.250000X-1.350000X-1.975000X1.350000X-1.975000X1.350000X1.975000X-1.350000X1.975000X0*%
%TD*%
%TA.AperFunction,ComponentPad*%
%ADD22RoundRect,0.500000X-0.500000X-0.500000X0.500000X-0.500000X0.500000X0.500000X-0.500000X0.500000X0*%
%TD*%
%TA.AperFunction,ComponentPad*%
%ADD23C,2.000000*%
%TD*%
%TA.AperFunction,SMDPad,CuDef*%
%ADD24RoundRect,0.250000X-1.100000X0.412500X-1.100000X-0.412500X1.100000X-0.412500X1.100000X0.412500X0*%
%TD*%
%TA.AperFunction,SMDPad,CuDef*%
%ADD25RoundRect,0.250000X0.400000X0.625000X-0.400000X0.625000X-0.400000X-0.625000X0.400000X-0.625000X0*%
%TD*%
%TA.AperFunction,SMDPad,CuDef*%
%ADD26RoundRect,0.250000X0.625000X-0.400000X0.625000X0.400000X-0.625000X0.400000X-0.625000X-0.400000X0*%
%TD*%
%TA.AperFunction,ComponentPad*%
%ADD27RoundRect,0.500000X0.500000X-0.500000X0.500000X0.500000X-0.500000X0.500000X-0.500000X-0.500000X0*%
%TD*%
%TA.AperFunction,SMDPad,CuDef*%
%ADD28RoundRect,0.250000X1.350000X1.975000X-1.350000X1.975000X-1.350000X-1.975000X1.350000X-1.975000X0*%
%TD*%
%TA.AperFunction,ComponentPad*%
%ADD29R,1.500000X1.500000*%
%TD*%
%TA.AperFunction,ComponentPad*%
%ADD30C,1.500000*%
%TD*%
%TA.AperFunction,ComponentPad*%
%ADD31R,1.350000X1.350000*%
%TD*%
%TA.AperFunction,ComponentPad*%
%ADD32O,1.350000X1.350000*%
%TD*%
%TA.AperFunction,SMDPad,CuDef*%
%ADD33RoundRect,0.150000X0.825000X0.150000X-0.825000X0.150000X-0.825000X-0.150000X0.825000X-0.150000X0*%
%TD*%
%TA.AperFunction,SMDPad,CuDef*%
%ADD34RoundRect,0.250000X-0.400000X-0.625000X0.400000X-0.625000X0.400000X0.625000X-0.400000X0.625000X0*%
%TD*%
%TA.AperFunction,ComponentPad*%
%ADD35R,1.800000X1.100000*%
%TD*%
%TA.AperFunction,ComponentPad*%
%ADD36RoundRect,0.275000X0.625000X-0.275000X0.625000X0.275000X-0.625000X0.275000X-0.625000X-0.275000X0*%
%TD*%
%TA.AperFunction,ComponentPad*%
%ADD37O,1.500000X2.500000*%
%TD*%
%TA.AperFunction,ComponentPad*%
%ADD38R,1.500000X2.500000*%
%TD*%
%TA.AperFunction,ComponentPad*%
%ADD39O,2.200000X3.500000*%
%TD*%
%TA.AperFunction,ComponentPad*%
%ADD40R,1.700000X1.700000*%
%TD*%
%TA.AperFunction,ComponentPad*%
%ADD41O,1.700000X1.700000*%
%TD*%
%TA.AperFunction,ComponentPad*%
%ADD42R,1.560000X1.560000*%
%TD*%
%TA.AperFunction,ComponentPad*%
%ADD43C,1.560000*%
%TD*%
%TA.AperFunction,SMDPad,CuDef*%
%ADD44R,2.475000X3.000000*%
%TD*%
%TA.AperFunction,ViaPad*%
%ADD45C,1.000000*%
%TD*%
%TA.AperFunction,ViaPad*%
%ADD46C,1.500000*%
%TD*%
%TA.AperFunction,ViaPad*%
%ADD47C,3.000000*%
%TD*%
%TA.AperFunction,ViaPad*%
%ADD48C,4.000000*%
%TD*%
%TA.AperFunction,Conductor*%
%ADD49C,0.500000*%
%TD*%
%TA.AperFunction,Conductor*%
%ADD50C,2.500000*%
%TD*%
%TA.AperFunction,Conductor*%
%ADD51C,2.000000*%
%TD*%
%TA.AperFunction,Conductor*%
%ADD52C,1.000000*%
%TD*%
%TA.AperFunction,Conductor*%
%ADD53C,3.000000*%
%TD*%
%TA.AperFunction,Conductor*%
%ADD54C,0.800000*%
%TD*%
%TA.AperFunction,Conductor*%
%ADD55C,4.000000*%
%TD*%
G04 APERTURE END LIST*
D10*
%TO.P,D2,1,K*%
%TO.N,+BATT*%
X90170000Y-110744000D03*
D11*
%TO.P,D2,2,A*%
%TO.N,Net-(D2-Pad2)*%
X100330000Y-110744000D03*
%TD*%
D12*
%TO.P,U14,1,A1*%
%TO.N,/power_conversion/SDA*%
X352754026Y-106125000D03*
%TO.P,U14,2,A0*%
%TO.N,-BATT*%
X352754026Y-107395000D03*
%TO.P,U14,3,SDA*%
%TO.N,/power_conversion/SDA*%
X352754026Y-108665000D03*
%TO.P,U14,4,SCL*%
%TO.N,/power_conversion/SCL*%
X352754026Y-109935000D03*
%TO.P,U14,5,VS*%
%TO.N,/power_conversion/3v3*%
X357704026Y-109935000D03*
%TO.P,U14,6,GND*%
%TO.N,-BATT*%
X357704026Y-108665000D03*
%TO.P,U14,7,IN-*%
%TO.N,/power_conversion/pi3*%
X357704026Y-107395000D03*
%TO.P,U14,8,IN+*%
%TO.N,Net-(R8-Pad2)*%
X357704026Y-106125000D03*
%TD*%
D13*
%TO.P,J10,1,Pin_1*%
%TO.N,Net-(J10-Pad1)*%
X98907600Y-212089800D03*
D14*
%TO.P,J10,2,Pin_2*%
%TO.N,Net-(J10-Pad2)*%
X93827600Y-212089800D03*
%TO.P,J10,3,Pin_3*%
%TO.N,Net-(J10-Pad3)*%
X88747600Y-212089800D03*
%TO.P,J10,4,Pin_4*%
%TO.N,Net-(J10-Pad4)*%
X83667600Y-212089800D03*
%TO.P,J10,5,Pin_5*%
%TO.N,Net-(J10-Pad5)*%
X78587600Y-212089800D03*
%TO.P,J10,6,Pin_6*%
%TO.N,Net-(J10-Pad6)*%
X73507600Y-212089800D03*
%TO.P,J10,7,Pin_7*%
%TO.N,Net-(J10-Pad7)*%
X68427600Y-212089800D03*
%TO.P,J10,8,Pin_8*%
%TO.N,Net-(J10-Pad8)*%
X63347600Y-212089800D03*
%TO.P,J10,9,Pin_9*%
%TO.N,Net-(J10-Pad9)*%
X58267600Y-212089800D03*
%TO.P,J10,10,Pin_10*%
%TO.N,/power_conversion/3v3*%
X53187600Y-212089800D03*
%TD*%
D15*
%TO.P,TP6,1,1*%
%TO.N,/power_conversion/Buck in*%
X272999200Y-169773600D03*
%TD*%
D16*
%TO.P,JP5,1,A*%
%TO.N,+BATT*%
X128778000Y-65232100D03*
%TO.P,JP5,2,B*%
%TO.N,Net-(JP1-Pad1)*%
X128778000Y-70607100D03*
%TD*%
D10*
%TO.P,D1,1,K*%
%TO.N,Net-(D1-Pad1)*%
X75946000Y-65405000D03*
D11*
%TO.P,D1,2,A*%
%TO.N,-BATT*%
X75946000Y-55245000D03*
%TD*%
D17*
%TO.P,J2,2,2*%
%TO.N,+BATT*%
X59436000Y-63369000D03*
D18*
%TO.P,J2,1,1*%
%TO.N,-BATT*%
X59436000Y-57869000D03*
%TD*%
D19*
%TO.P,U8,1,Vin*%
%TO.N,/power_conversion/Buck in*%
X289697026Y-72126000D03*
%TO.P,U8,2,GND*%
%TO.N,-BATT*%
X289697026Y-87874000D03*
%TO.P,U8,3,GND*%
X335417026Y-72126000D03*
%TO.P,U8,4,Vout*%
%TO.N,Net-(R6-Pad2)*%
X335417026Y-87874000D03*
%TD*%
D13*
%TO.P,J9,1,Pin_1*%
%TO.N,Net-(C2-Pad1)*%
X166196026Y-212261000D03*
D14*
%TO.P,J9,2,Pin_2*%
X171276026Y-212261000D03*
%TO.P,J9,3,Pin_3*%
X176356026Y-212261000D03*
%TO.P,J9,4,Pin_4*%
X181436026Y-212261000D03*
%TO.P,J9,5,Pin_5*%
X186516026Y-212261000D03*
%TD*%
D20*
%TO.P,R15,1*%
%TO.N,/power_conversion/spare2*%
X350520000Y-191982400D03*
%TO.P,R15,2*%
%TO.N,Net-(R15-Pad2)*%
X350520000Y-186782400D03*
%TD*%
D15*
%TO.P,TP9,1,1*%
%TO.N,Net-(R4-Pad2)*%
X353009200Y-128981200D03*
%TD*%
D21*
%TO.P,R3,1*%
%TO.N,/power_conversion/routerp*%
X273904400Y-188772800D03*
%TO.P,R3,2*%
%TO.N,/power_conversion/Buck in*%
X279104400Y-188772800D03*
%TD*%
D12*
%TO.P,U3,1,A1*%
%TO.N,/power_conversion/SDA*%
X264936200Y-179806600D03*
%TO.P,U3,2,A0*%
%TO.N,/power_conversion/3v3*%
X264936200Y-181076600D03*
%TO.P,U3,3,SDA*%
%TO.N,/power_conversion/SDA*%
X264936200Y-182346600D03*
%TO.P,U3,4,SCL*%
%TO.N,/power_conversion/SCL*%
X264936200Y-183616600D03*
%TO.P,U3,5,VS*%
%TO.N,/power_conversion/3v3*%
X269886200Y-183616600D03*
%TO.P,U3,6,GND*%
%TO.N,-BATT*%
X269886200Y-182346600D03*
%TO.P,U3,7,IN-*%
%TO.N,/power_conversion/routerp*%
X269886200Y-181076600D03*
%TO.P,U3,8,IN+*%
%TO.N,/power_conversion/Buck in*%
X269886200Y-179806600D03*
%TD*%
D15*
%TO.P,K1,11*%
%TO.N,Net-(JP1-Pad1)*%
X120057000Y-127129000D03*
%TO.P,K1,12*%
%TO.N,/power_conversion/Buck in*%
X109917000Y-109329000D03*
%TO.P,K1,14*%
%TO.N,unconnected-(K1-Pad14)*%
X117517000Y-109329000D03*
D22*
%TO.P,K1,A1*%
%TO.N,Net-(D2-Pad2)*%
X132717000Y-123329000D03*
D23*
%TO.P,K1,A2*%
%TO.N,+BATT*%
X132717000Y-113129000D03*
%TD*%
D19*
%TO.P,U9,1,Vin*%
%TO.N,/power_conversion/Buck in*%
X217401692Y-50140000D03*
%TO.P,U9,2,GND*%
%TO.N,-BATT*%
X201653692Y-50140000D03*
%TO.P,U9,3,GND*%
X217401692Y-95860000D03*
%TO.P,U9,4,Vout*%
%TO.N,Net-(R7-Pad2)*%
X201653692Y-95860000D03*
%TD*%
D15*
%TO.P,TP12,1,1*%
%TO.N,Net-(R7-Pad2)*%
X209346800Y-101752400D03*
%TD*%
D19*
%TO.P,U12,1,Vin*%
%TO.N,unconnected-(U12-Pad1)*%
X289697026Y-99394000D03*
%TO.P,U12,2,GND*%
%TO.N,-BATT*%
X289697026Y-115142000D03*
%TO.P,U12,3,GND*%
X335417026Y-99394000D03*
%TO.P,U12,4,Vout*%
%TO.N,Net-(R8-Pad2)*%
X335417026Y-115142000D03*
%TD*%
D21*
%TO.P,R7,1*%
%TO.N,/power_conversion/N2*%
X207398000Y-107340400D03*
%TO.P,R7,2*%
%TO.N,Net-(R7-Pad2)*%
X212598000Y-107340400D03*
%TD*%
D24*
%TO.P,C1,1*%
%TO.N,/power_conversion/3v3*%
X150215600Y-123151500D03*
%TO.P,C1,2*%
%TO.N,-BATT*%
X150215600Y-126276500D03*
%TD*%
D25*
%TO.P,R1,1*%
%TO.N,-BATT*%
X99390800Y-126746000D03*
%TO.P,R1,2*%
%TO.N,Net-(R1-Pad2)*%
X96290800Y-126746000D03*
%TD*%
D19*
%TO.P,U4,1,Vin*%
%TO.N,/power_conversion/Buck in*%
X289697026Y-126826000D03*
%TO.P,U4,2,GND*%
%TO.N,-BATT*%
X289697026Y-142574000D03*
%TO.P,U4,3,GND*%
X335417026Y-126826000D03*
%TO.P,U4,4,Vout*%
%TO.N,Net-(R4-Pad2)*%
X335417026Y-142574000D03*
%TD*%
D15*
%TO.P,TP3,1,1*%
%TO.N,Net-(C2-Pad1)*%
X116332000Y-81534000D03*
%TD*%
D21*
%TO.P,R5,1*%
%TO.N,/power_conversion/N1*%
X178298800Y-110794800D03*
%TO.P,R5,2*%
%TO.N,Net-(R5-Pad2)*%
X183498800Y-110794800D03*
%TD*%
D15*
%TO.P,TP5,1,1*%
%TO.N,Net-(C2-Pad1)*%
X140208000Y-184658000D03*
%TD*%
D26*
%TO.P,R2,1*%
%TO.N,Net-(R1-Pad2)*%
X92354400Y-124536800D03*
%TO.P,R2,2*%
%TO.N,Net-(Q1-Pad2)*%
X92354400Y-121436800D03*
%TD*%
D19*
%TO.P,U5,1,Vin*%
%TO.N,/power_conversion/Buck in*%
X189631026Y-50140000D03*
%TO.P,U5,2,GND*%
%TO.N,-BATT*%
X173883026Y-50140000D03*
%TO.P,U5,3,GND*%
X189631026Y-95860000D03*
%TO.P,U5,4,Vout*%
%TO.N,Net-(R5-Pad2)*%
X173883026Y-95860000D03*
%TD*%
D15*
%TO.P,TP16,1,1*%
%TO.N,Net-(R11-Pad2)*%
X260908800Y-102108000D03*
%TD*%
D21*
%TO.P,R6,1*%
%TO.N,/power_conversion/pi2*%
X354347026Y-71708000D03*
%TO.P,R6,2*%
%TO.N,Net-(R6-Pad2)*%
X359547026Y-71708000D03*
%TD*%
D19*
%TO.P,U20,1,Vin*%
%TO.N,Net-(JP3-Pad1)*%
X214931026Y-136772000D03*
%TO.P,U20,2,GND*%
%TO.N,-BATT*%
X199183026Y-136772000D03*
%TO.P,U20,3,GND*%
X214931026Y-182492000D03*
%TO.P,U20,4,Vout*%
%TO.N,Net-(R14-Pad2)*%
X199183026Y-182492000D03*
%TD*%
D12*
%TO.P,U10,1,A1*%
%TO.N,/power_conversion/3v3*%
X355040026Y-80725000D03*
%TO.P,U10,2,A0*%
%TO.N,-BATT*%
X355040026Y-81995000D03*
%TO.P,U10,3,SDA*%
%TO.N,/power_conversion/SDA*%
X355040026Y-83265000D03*
%TO.P,U10,4,SCL*%
%TO.N,/power_conversion/SCL*%
X355040026Y-84535000D03*
%TO.P,U10,5,VS*%
%TO.N,/power_conversion/3v3*%
X359990026Y-84535000D03*
%TO.P,U10,6,GND*%
%TO.N,-BATT*%
X359990026Y-83265000D03*
%TO.P,U10,7,IN-*%
%TO.N,/power_conversion/pi2*%
X359990026Y-81995000D03*
%TO.P,U10,8,IN+*%
%TO.N,Net-(R6-Pad2)*%
X359990026Y-80725000D03*
%TD*%
D15*
%TO.P,TP15,1,1*%
%TO.N,Net-(R10-Pad2)*%
X195427600Y-193243200D03*
%TD*%
%TO.P,TP1,1,1*%
%TO.N,+BATT*%
X69342000Y-72390000D03*
%TD*%
D19*
%TO.P,U13,1,Vin*%
%TO.N,/power_conversion/Buck in*%
X245231026Y-50240000D03*
%TO.P,U13,2,GND*%
%TO.N,-BATT*%
X229483026Y-50240000D03*
%TO.P,U13,3,GND*%
X245231026Y-95960000D03*
%TO.P,U13,4,Vout*%
%TO.N,Net-(R9-Pad2)*%
X229483026Y-95960000D03*
%TD*%
D12*
%TO.P,U15,1,A1*%
%TO.N,/power_conversion/3v3*%
X235421400Y-114579400D03*
%TO.P,U15,2,A0*%
%TO.N,/power_conversion/SDA*%
X235421400Y-115849400D03*
%TO.P,U15,3,SDA*%
X235421400Y-117119400D03*
%TO.P,U15,4,SCL*%
%TO.N,/power_conversion/SCL*%
X235421400Y-118389400D03*
%TO.P,U15,5,VS*%
%TO.N,/power_conversion/3v3*%
X240371400Y-118389400D03*
%TO.P,U15,6,GND*%
%TO.N,-BATT*%
X240371400Y-117119400D03*
%TO.P,U15,7,IN-*%
%TO.N,/power_conversion/N3*%
X240371400Y-115849400D03*
%TO.P,U15,8,IN+*%
%TO.N,Net-(R9-Pad2)*%
X240371400Y-114579400D03*
%TD*%
D15*
%TO.P,K2,11*%
%TO.N,+BATT*%
X104523000Y-62442000D03*
%TO.P,K2,12*%
%TO.N,unconnected-(K2-Pad12)*%
X86723000Y-72582000D03*
%TO.P,K2,14*%
%TO.N,Net-(JP1-Pad1)*%
X86723000Y-64982000D03*
D27*
%TO.P,K2,A1*%
%TO.N,-BATT*%
X100723000Y-49782000D03*
D23*
%TO.P,K2,A2*%
%TO.N,Net-(D1-Pad1)*%
X90523000Y-49782000D03*
%TD*%
D13*
%TO.P,J8,1,Pin_1*%
%TO.N,Net-(J8-Pad1)*%
X55981800Y-175514000D03*
D14*
%TO.P,J8,2,Pin_2*%
%TO.N,Net-(J8-Pad2)*%
X55981800Y-170434000D03*
%TO.P,J8,3,Pin_3*%
%TO.N,Net-(J8-Pad3)*%
X55981800Y-165354000D03*
%TO.P,J8,4,Pin_4*%
%TO.N,Net-(J8-Pad4)*%
X55981800Y-160274000D03*
%TO.P,J8,5,Pin_5*%
%TO.N,Net-(J8-Pad5)*%
X55981800Y-155194000D03*
%TO.P,J8,6,Pin_6*%
%TO.N,Net-(J8-Pad6)*%
X55981800Y-150114000D03*
%TO.P,J8,7,Pin_7*%
%TO.N,Net-(J8-Pad7)*%
X55981800Y-145034000D03*
%TO.P,J8,8,Pin_8*%
%TO.N,Net-(J8-Pad8)*%
X55981800Y-139954000D03*
%TO.P,J8,9,Pin_9*%
%TO.N,Net-(J8-Pad9)*%
X55981800Y-134874000D03*
%TO.P,J8,10,Pin_10*%
%TO.N,Net-(J8-Pad10)*%
X55981800Y-129794000D03*
%TD*%
D12*
%TO.P,U7,1,A1*%
%TO.N,/power_conversion/SCL*%
X178737800Y-117779800D03*
%TO.P,U7,2,A0*%
%TO.N,/power_conversion/3v3*%
X178737800Y-119049800D03*
%TO.P,U7,3,SDA*%
%TO.N,/power_conversion/SDA*%
X178737800Y-120319800D03*
%TO.P,U7,4,SCL*%
%TO.N,/power_conversion/SCL*%
X178737800Y-121589800D03*
%TO.P,U7,5,VS*%
%TO.N,/power_conversion/3v3*%
X183687800Y-121589800D03*
%TO.P,U7,6,GND*%
%TO.N,-BATT*%
X183687800Y-120319800D03*
%TO.P,U7,7,IN-*%
%TO.N,/power_conversion/N1*%
X183687800Y-119049800D03*
%TO.P,U7,8,IN+*%
%TO.N,Net-(R5-Pad2)*%
X183687800Y-117779800D03*
%TD*%
D13*
%TO.P,J1,1,Pin_1*%
%TO.N,-BATT*%
X75912026Y-46736200D03*
D14*
%TO.P,J1,2,Pin_2*%
%TO.N,+BATT*%
X80992026Y-46736200D03*
%TD*%
D15*
%TO.P,TP17,1,1*%
%TO.N,Net-(R14-Pad2)*%
X226974400Y-150571200D03*
%TD*%
D21*
%TO.P,R4,1*%
%TO.N,/power_conversion/pi1*%
X354347026Y-135970000D03*
%TO.P,R4,2*%
%TO.N,Net-(R4-Pad2)*%
X359547026Y-135970000D03*
%TD*%
D15*
%TO.P,TP13,1,1*%
%TO.N,Net-(R8-Pad2)*%
X346465026Y-94706000D03*
%TD*%
D28*
%TO.P,R10,1*%
%TO.N,/power_conversion/netpw*%
X231403200Y-195072000D03*
%TO.P,R10,2*%
%TO.N,Net-(R10-Pad2)*%
X226203200Y-195072000D03*
%TD*%
D24*
%TO.P,C2,1*%
%TO.N,Net-(C2-Pad1)*%
X125750000Y-185377500D03*
%TO.P,C2,2*%
%TO.N,-BATT*%
X125750000Y-188502500D03*
%TD*%
D29*
%TO.P,J6,1,VBUS1*%
%TO.N,/power_conversion/pi2*%
X354934400Y-55952800D03*
D30*
%TO.P,J6,2,D1-*%
%TO.N,unconnected-(J6-Pad2)*%
X352434400Y-55952800D03*
%TO.P,J6,3,D1+*%
%TO.N,unconnected-(J6-Pad3)*%
X350434400Y-55952800D03*
%TO.P,J6,4,GND1*%
%TO.N,-BATT*%
X347934400Y-55952800D03*
%TO.P,J6,5,VBUS2*%
%TO.N,/power_conversion/pi1*%
X354934400Y-53332800D03*
%TO.P,J6,6,D2-*%
%TO.N,unconnected-(J6-Pad6)*%
X352434400Y-53332800D03*
%TO.P,J6,7,D2+*%
%TO.N,unconnected-(J6-Pad7)*%
X350434400Y-53332800D03*
%TO.P,J6,8,GND2*%
%TO.N,-BATT*%
X347934400Y-53332800D03*
D15*
%TO.P,J6,9,Shield*%
X358004400Y-56302800D03*
X344864400Y-56302800D03*
X344864400Y-50622800D03*
X358004400Y-50622800D03*
%TD*%
D31*
%TO.P,JP3,1,A*%
%TO.N,Net-(JP3-Pad1)*%
X208940400Y-130556000D03*
D32*
%TO.P,JP3,2,B*%
%TO.N,/power_conversion/Buck in*%
X210940400Y-130556000D03*
%TD*%
D19*
%TO.P,U17,1,Vin*%
%TO.N,/power_conversion/Buck in*%
X272943026Y-50140000D03*
%TO.P,U17,2,GND*%
%TO.N,-BATT*%
X257195026Y-50140000D03*
%TO.P,U17,3,GND*%
X272943026Y-95860000D03*
%TO.P,U17,4,Vout*%
%TO.N,Net-(R11-Pad2)*%
X257195026Y-95860000D03*
%TD*%
D33*
%TO.P,U18,1,A1*%
%TO.N,/power_conversion/SCL*%
X232091000Y-184073800D03*
%TO.P,U18,2,A0*%
%TO.N,-BATT*%
X232091000Y-182803800D03*
%TO.P,U18,3,SDA*%
%TO.N,/power_conversion/SDA*%
X232091000Y-181533800D03*
%TO.P,U18,4,SCL*%
%TO.N,/power_conversion/SCL*%
X232091000Y-180263800D03*
%TO.P,U18,5,VS*%
%TO.N,/power_conversion/3v3*%
X227141000Y-180263800D03*
%TO.P,U18,6,GND*%
%TO.N,-BATT*%
X227141000Y-181533800D03*
%TO.P,U18,7,IN-*%
%TO.N,/power_conversion/netpw*%
X227141000Y-182803800D03*
%TO.P,U18,8,IN+*%
%TO.N,Net-(R10-Pad2)*%
X227141000Y-184073800D03*
%TD*%
D34*
%TO.P,R13,1*%
%TO.N,/power_conversion/3v3*%
X145262000Y-138277600D03*
%TO.P,R13,2*%
%TO.N,/power_conversion/SDA*%
X148362000Y-138277600D03*
%TD*%
D29*
%TO.P,J3,1,VBUS1*%
%TO.N,/power_conversion/N4*%
X336653026Y-205584000D03*
D30*
%TO.P,J3,2,D1-*%
%TO.N,unconnected-(J3-Pad2)*%
X339153026Y-205584000D03*
%TO.P,J3,3,D1+*%
%TO.N,unconnected-(J3-Pad3)*%
X341153026Y-205584000D03*
%TO.P,J3,4,GND1*%
%TO.N,-BATT*%
X343653026Y-205584000D03*
%TO.P,J3,5,VBUS2*%
%TO.N,/power_conversion/N3*%
X336653026Y-208204000D03*
%TO.P,J3,6,D2-*%
%TO.N,unconnected-(J3-Pad6)*%
X339153026Y-208204000D03*
%TO.P,J3,7,D2+*%
%TO.N,unconnected-(J3-Pad7)*%
X341153026Y-208204000D03*
%TO.P,J3,8,GND2*%
%TO.N,-BATT*%
X343653026Y-208204000D03*
D15*
%TO.P,J3,9,Shield*%
X333583026Y-210914000D03*
X346723026Y-210914000D03*
X333583026Y-205234000D03*
X346723026Y-205234000D03*
%TD*%
D21*
%TO.P,R8,1*%
%TO.N,/power_conversion/pi3*%
X351613026Y-100156000D03*
%TO.P,R8,2*%
%TO.N,Net-(R8-Pad2)*%
X356813026Y-100156000D03*
%TD*%
D12*
%TO.P,U19,1,A1*%
%TO.N,/power_conversion/SDA*%
X263666200Y-114173000D03*
%TO.P,U19,2,A0*%
X263666200Y-115443000D03*
%TO.P,U19,3,SDA*%
X263666200Y-116713000D03*
%TO.P,U19,4,SCL*%
%TO.N,/power_conversion/SCL*%
X263666200Y-117983000D03*
%TO.P,U19,5,VS*%
%TO.N,/power_conversion/3v3*%
X268616200Y-117983000D03*
%TO.P,U19,6,GND*%
%TO.N,-BATT*%
X268616200Y-116713000D03*
%TO.P,U19,7,IN-*%
%TO.N,/power_conversion/N4*%
X268616200Y-115443000D03*
%TO.P,U19,8,IN+*%
%TO.N,Net-(R11-Pad2)*%
X268616200Y-114173000D03*
%TD*%
D28*
%TO.P,R14,1*%
%TO.N,/power_conversion/spare1*%
X240902800Y-150164800D03*
%TO.P,R14,2*%
%TO.N,Net-(R14-Pad2)*%
X235702800Y-150164800D03*
%TD*%
D12*
%TO.P,U6,1,A1*%
%TO.N,-BATT*%
X354532026Y-144733000D03*
%TO.P,U6,2,A0*%
X354532026Y-146003000D03*
%TO.P,U6,3,SDA*%
%TO.N,/power_conversion/SDA*%
X354532026Y-147273000D03*
%TO.P,U6,4,SCL*%
%TO.N,/power_conversion/SCL*%
X354532026Y-148543000D03*
%TO.P,U6,5,VS*%
%TO.N,/power_conversion/3v3*%
X359482026Y-148543000D03*
%TO.P,U6,6,GND*%
%TO.N,-BATT*%
X359482026Y-147273000D03*
%TO.P,U6,7,IN-*%
%TO.N,/power_conversion/pi1*%
X359482026Y-146003000D03*
%TO.P,U6,8,IN+*%
%TO.N,Net-(R4-Pad2)*%
X359482026Y-144733000D03*
%TD*%
D29*
%TO.P,J5,1,VBUS1*%
%TO.N,/power_conversion/spare2*%
X331160000Y-56003600D03*
D30*
%TO.P,J5,2,D1-*%
%TO.N,unconnected-(J5-Pad2)*%
X328660000Y-56003600D03*
%TO.P,J5,3,D1+*%
%TO.N,unconnected-(J5-Pad3)*%
X326660000Y-56003600D03*
%TO.P,J5,4,GND1*%
%TO.N,-BATT*%
X324160000Y-56003600D03*
%TO.P,J5,5,VBUS2*%
%TO.N,/power_conversion/pi3*%
X331160000Y-53383600D03*
%TO.P,J5,6,D2-*%
%TO.N,unconnected-(J5-Pad6)*%
X328660000Y-53383600D03*
%TO.P,J5,7,D2+*%
%TO.N,unconnected-(J5-Pad7)*%
X326660000Y-53383600D03*
%TO.P,J5,8,GND2*%
%TO.N,-BATT*%
X324160000Y-53383600D03*
D15*
%TO.P,J5,9,Shield*%
X334230000Y-50673600D03*
X321090000Y-50673600D03*
X321090000Y-56353600D03*
X334230000Y-56353600D03*
%TD*%
D35*
%TO.P,Q1,1,E*%
%TO.N,-BATT*%
X99256800Y-122682000D03*
D36*
%TO.P,Q1,2,B*%
%TO.N,Net-(Q1-Pad2)*%
X97186800Y-121412000D03*
%TO.P,Q1,3,C*%
%TO.N,Net-(D2-Pad2)*%
X99256800Y-120142000D03*
%TD*%
D37*
%TO.P,SW1,3,C*%
%TO.N,unconnected-(SW1-Pad3)*%
X114157026Y-43300000D03*
%TO.P,SW1,2,B*%
%TO.N,+BATT*%
X116157026Y-43300000D03*
D38*
%TO.P,SW1,1,A*%
%TO.N,Net-(D1-Pad1)*%
X118157026Y-43300000D03*
D39*
%TO.P,SW1,*%
%TO.N,*%
X112057026Y-43300000D03*
X120257026Y-43300000D03*
%TD*%
D15*
%TO.P,TP18,1,1*%
%TO.N,Net-(R15-Pad2)*%
X347624400Y-172008800D03*
%TD*%
D31*
%TO.P,JP4,1,A*%
%TO.N,Net-(JP4-Pad1)*%
X280314400Y-153720800D03*
D32*
%TO.P,JP4,2,B*%
%TO.N,/power_conversion/Buck in*%
X278314400Y-153720800D03*
%TD*%
D34*
%TO.P,R12,1*%
%TO.N,/power_conversion/3v3*%
X145008000Y-134239000D03*
%TO.P,R12,2*%
%TO.N,/power_conversion/SCL*%
X148108000Y-134239000D03*
%TD*%
D12*
%TO.P,U11,1,A1*%
%TO.N,-BATT*%
X207583000Y-114579400D03*
%TO.P,U11,2,A0*%
%TO.N,/power_conversion/SDA*%
X207583000Y-115849400D03*
%TO.P,U11,3,SDA*%
X207583000Y-117119400D03*
%TO.P,U11,4,SCL*%
%TO.N,/power_conversion/SCL*%
X207583000Y-118389400D03*
%TO.P,U11,5,VS*%
%TO.N,/power_conversion/3v3*%
X212533000Y-118389400D03*
%TO.P,U11,6,GND*%
%TO.N,-BATT*%
X212533000Y-117119400D03*
%TO.P,U11,7,IN-*%
%TO.N,/power_conversion/N2*%
X212533000Y-115849400D03*
%TO.P,U11,8,IN+*%
%TO.N,Net-(R7-Pad2)*%
X212533000Y-114579400D03*
%TD*%
D40*
%TO.P,U24,1,SDA*%
%TO.N,/power_conversion/SDA*%
X143557026Y-43300000D03*
D41*
%TO.P,U24,2,SCL*%
%TO.N,/power_conversion/SCL*%
X146097026Y-43300000D03*
%TO.P,U24,3,Alert*%
%TO.N,unconnected-(U24-Pad3)*%
X148637026Y-43300000D03*
%TO.P,U24,4,GND*%
%TO.N,-BATT*%
X151177026Y-43300000D03*
%TO.P,U24,5,A2*%
%TO.N,unconnected-(U24-Pad5)*%
X153717026Y-43300000D03*
%TO.P,U24,6,A1*%
%TO.N,unconnected-(U24-Pad6)*%
X156257026Y-43300000D03*
%TO.P,U24,7,A0*%
%TO.N,unconnected-(U24-Pad7)*%
X158797026Y-43300000D03*
%TO.P,U24,8,VDD*%
%TO.N,/power_conversion/3v3*%
X161337026Y-43300000D03*
%TD*%
D13*
%TO.P,J12,1,Pin_1*%
%TO.N,-BATT*%
X198851526Y-212261000D03*
D14*
%TO.P,J12,2,Pin_2*%
X203931526Y-212261000D03*
%TO.P,J12,3,Pin_3*%
X209011526Y-212261000D03*
%TO.P,J12,4,Pin_4*%
X214091526Y-212261000D03*
%TO.P,J12,5,Pin_5*%
X219171526Y-212261000D03*
%TD*%
D42*
%TO.P,U2,1,3V3*%
%TO.N,/power_conversion/3v3*%
X77823026Y-178936000D03*
D43*
%TO.P,U2,2,EN*%
%TO.N,Net-(J10-Pad9)*%
X80363026Y-178936000D03*
%TO.P,U2,3,SENSOR_VP*%
%TO.N,Net-(J10-Pad8)*%
X82903026Y-178936000D03*
%TO.P,U2,4,SENSOR_VN*%
%TO.N,Net-(J10-Pad7)*%
X85443026Y-178936000D03*
%TO.P,U2,5,IO34*%
%TO.N,Net-(J10-Pad6)*%
X87983026Y-178936000D03*
%TO.P,U2,6,IO35*%
%TO.N,Net-(J10-Pad5)*%
X90523026Y-178936000D03*
%TO.P,U2,7,IO32*%
%TO.N,Net-(J10-Pad4)*%
X93063026Y-178936000D03*
%TO.P,U2,8,IO33*%
%TO.N,Net-(J10-Pad3)*%
X95603026Y-178936000D03*
%TO.P,U2,9,IO25*%
%TO.N,Net-(J10-Pad2)*%
X98143026Y-178936000D03*
%TO.P,U2,10,IO26*%
%TO.N,Net-(J10-Pad1)*%
X100683026Y-178936000D03*
%TO.P,U2,11,IO27*%
%TO.N,Net-(J11-Pad10)*%
X103223026Y-178936000D03*
%TO.P,U2,12,IO14*%
%TO.N,Net-(J11-Pad9)*%
X105763026Y-178936000D03*
%TO.P,U2,13,IO12*%
%TO.N,Net-(J11-Pad8)*%
X108303026Y-178936000D03*
%TO.P,U2,14,GND1*%
%TO.N,-BATT*%
X110843026Y-178936000D03*
%TO.P,U2,15,IO13*%
%TO.N,Net-(J11-Pad7)*%
X113383026Y-178936000D03*
%TO.P,U2,16,SD2*%
%TO.N,Net-(J11-Pad6)*%
X115923026Y-178936000D03*
%TO.P,U2,17,SD3*%
%TO.N,Net-(J11-Pad5)*%
X118463026Y-178936000D03*
%TO.P,U2,18,CMD*%
%TO.N,Net-(J11-Pad4)*%
X121003026Y-178936000D03*
%TO.P,U2,19,EXT_5V*%
%TO.N,Net-(C2-Pad1)*%
X123543026Y-178936000D03*
%TO.P,U2,20,GND3*%
%TO.N,-BATT*%
X77823026Y-153536000D03*
%TO.P,U2,21,IO23*%
%TO.N,Net-(R1-Pad2)*%
X80363026Y-153536000D03*
%TO.P,U2,22,SCL*%
%TO.N,/power_conversion/SCL*%
X82903026Y-153536000D03*
%TO.P,U2,23,TXD0*%
%TO.N,unconnected-(U2-Pad23)*%
X85443026Y-153536000D03*
%TO.P,U2,24,RXD0*%
%TO.N,unconnected-(U2-Pad24)*%
X87983026Y-153536000D03*
%TO.P,U2,25,SDA*%
%TO.N,/power_conversion/SDA*%
X90523026Y-153536000D03*
%TO.P,U2,26,GND2*%
%TO.N,Net-(J8-Pad1)*%
X93063026Y-153536000D03*
%TO.P,U2,27,IO19*%
%TO.N,Net-(J8-Pad2)*%
X95603026Y-153536000D03*
%TO.P,U2,28,IO18*%
%TO.N,Net-(J8-Pad3)*%
X98143026Y-153536000D03*
%TO.P,U2,29,IO5*%
%TO.N,Net-(J8-Pad4)*%
X100683026Y-153536000D03*
%TO.P,U2,30,IO17*%
%TO.N,Net-(J8-Pad5)*%
X103223026Y-153536000D03*
%TO.P,U2,31,IO16*%
%TO.N,Net-(J8-Pad6)*%
X105763026Y-153536000D03*
%TO.P,U2,32,IO4*%
%TO.N,Net-(J8-Pad7)*%
X108303026Y-153536000D03*
%TO.P,U2,33,IO0*%
%TO.N,Net-(J8-Pad8)*%
X110843026Y-153536000D03*
%TO.P,U2,34,IO2*%
%TO.N,Net-(J8-Pad9)*%
X113383026Y-153536000D03*
%TO.P,U2,35,IO15*%
%TO.N,Net-(J8-Pad10)*%
X115923026Y-153536000D03*
%TO.P,U2,36,SD1*%
%TO.N,Net-(J11-Pad3)*%
X118463026Y-153536000D03*
%TO.P,U2,37,SD0*%
%TO.N,Net-(J11-Pad2)*%
X121003026Y-153536000D03*
%TO.P,U2,38,CLK*%
%TO.N,Net-(J11-Pad1)*%
X123543026Y-153536000D03*
%TD*%
D21*
%TO.P,R9,1*%
%TO.N,/power_conversion/N3*%
X235499600Y-107645200D03*
%TO.P,R9,2*%
%TO.N,Net-(R9-Pad2)*%
X240699600Y-107645200D03*
%TD*%
D33*
%TO.P,U21,1,A1*%
%TO.N,-BATT*%
X241539800Y-141503400D03*
%TO.P,U21,2,A0*%
%TO.N,/power_conversion/3v3*%
X241539800Y-140233400D03*
%TO.P,U21,3,SDA*%
%TO.N,/power_conversion/SDA*%
X241539800Y-138963400D03*
%TO.P,U21,4,SCL*%
%TO.N,/power_conversion/SCL*%
X241539800Y-137693400D03*
%TO.P,U21,5,VS*%
%TO.N,/power_conversion/3v3*%
X236589800Y-137693400D03*
%TO.P,U21,6,GND*%
%TO.N,-BATT*%
X236589800Y-138963400D03*
%TO.P,U21,7,IN-*%
%TO.N,/power_conversion/spare1*%
X236589800Y-140233400D03*
%TO.P,U21,8,IN+*%
%TO.N,Net-(R14-Pad2)*%
X236589800Y-141503400D03*
%TD*%
D19*
%TO.P,U22,1,Vin*%
%TO.N,Net-(JP4-Pad1)*%
X289697026Y-154258000D03*
%TO.P,U22,2,GND*%
%TO.N,-BATT*%
X289697026Y-170006000D03*
%TO.P,U22,3,GND*%
X335417026Y-154258000D03*
%TO.P,U22,4,Vout*%
%TO.N,Net-(R15-Pad2)*%
X335417026Y-170006000D03*
%TD*%
D15*
%TO.P,TP10,1,1*%
%TO.N,Net-(R5-Pad2)*%
X178206400Y-103682800D03*
%TD*%
D29*
%TO.P,J4,1,VBUS1*%
%TO.N,/power_conversion/N1*%
X285853026Y-205584000D03*
D30*
%TO.P,J4,2,D1-*%
%TO.N,unconnected-(J4-Pad2)*%
X288353026Y-205584000D03*
%TO.P,J4,3,D1+*%
%TO.N,unconnected-(J4-Pad3)*%
X290353026Y-205584000D03*
%TO.P,J4,4,GND1*%
%TO.N,-BATT*%
X292853026Y-205584000D03*
%TO.P,J4,5,VBUS2*%
%TO.N,/power_conversion/N2*%
X285853026Y-208204000D03*
%TO.P,J4,6,D2-*%
%TO.N,unconnected-(J4-Pad6)*%
X288353026Y-208204000D03*
%TO.P,J4,7,D2+*%
%TO.N,unconnected-(J4-Pad7)*%
X290353026Y-208204000D03*
%TO.P,J4,8,GND2*%
%TO.N,-BATT*%
X292853026Y-208204000D03*
D15*
%TO.P,J4,9,Shield*%
X282783026Y-210914000D03*
X295923026Y-210914000D03*
X282783026Y-205234000D03*
X295923026Y-205234000D03*
%TD*%
D21*
%TO.P,R11,1*%
%TO.N,/power_conversion/N4*%
X264100000Y-107950000D03*
%TO.P,R11,2*%
%TO.N,Net-(R11-Pad2)*%
X269300000Y-107950000D03*
%TD*%
D13*
%TO.P,J11,1,Pin_1*%
%TO.N,Net-(J11-Pad1)*%
X153860526Y-211651000D03*
D14*
%TO.P,J11,2,Pin_2*%
%TO.N,Net-(J11-Pad2)*%
X148780526Y-211651000D03*
%TO.P,J11,3,Pin_3*%
%TO.N,Net-(J11-Pad3)*%
X143700526Y-211651000D03*
%TO.P,J11,4,Pin_4*%
%TO.N,Net-(J11-Pad4)*%
X138620526Y-211651000D03*
%TO.P,J11,5,Pin_5*%
%TO.N,Net-(J11-Pad5)*%
X133540526Y-211651000D03*
%TO.P,J11,6,Pin_6*%
%TO.N,Net-(J11-Pad6)*%
X128460526Y-211651000D03*
%TO.P,J11,7,Pin_7*%
%TO.N,Net-(J11-Pad7)*%
X123380526Y-211651000D03*
%TO.P,J11,8,Pin_8*%
%TO.N,Net-(J11-Pad8)*%
X118300526Y-211651000D03*
%TO.P,J11,9,Pin_9*%
%TO.N,Net-(J11-Pad9)*%
X113220526Y-211651000D03*
%TO.P,J11,10,Pin_10*%
%TO.N,Net-(J11-Pad10)*%
X108140526Y-211651000D03*
%TD*%
D19*
%TO.P,U16,1,Vin*%
%TO.N,/power_conversion/Buck in*%
X183943026Y-136772000D03*
%TO.P,U16,2,GND*%
%TO.N,-BATT*%
X168195026Y-136772000D03*
%TO.P,U16,3,GND*%
X183943026Y-182492000D03*
%TO.P,U16,4,Vout*%
%TO.N,Net-(R10-Pad2)*%
X168195026Y-182492000D03*
%TD*%
D44*
%TO.P,JP1,1,A*%
%TO.N,Net-(JP1-Pad1)*%
X125328500Y-104546400D03*
%TO.P,JP1,2,B*%
%TO.N,/power_conversion/Buck in*%
X130703500Y-104546400D03*
%TD*%
D19*
%TO.P,U1,1,Vin*%
%TO.N,+BATT*%
X59483026Y-80130000D03*
%TO.P,U1,2,GND*%
%TO.N,-BATT*%
X59483026Y-95878000D03*
%TO.P,U1,3,GND*%
X105203026Y-80130000D03*
%TO.P,U1,4,Vout*%
%TO.N,Net-(C2-Pad1)*%
X105203026Y-95878000D03*
%TD*%
D15*
%TO.P,TP14,1,1*%
%TO.N,Net-(R9-Pad2)*%
X236982000Y-101803200D03*
%TD*%
%TO.P,TP4,1,1*%
%TO.N,Net-(D2-Pad2)*%
X80873600Y-118465600D03*
%TD*%
%TO.P,TP11,1,1*%
%TO.N,Net-(R6-Pad2)*%
X359968800Y-77165200D03*
%TD*%
D13*
%TO.P,J7,1,Pin_1*%
%TO.N,/power_conversion/routerp*%
X231467026Y-211456000D03*
D14*
%TO.P,J7,2,Pin_2*%
%TO.N,-BATT*%
X236467026Y-211456000D03*
%TO.P,J7,3,Pin_3*%
%TO.N,/power_conversion/routerp*%
X241467026Y-211456000D03*
%TO.P,J7,4,Pin_4*%
%TO.N,-BATT*%
X246467026Y-211456000D03*
%TO.P,J7,5,Pin_5*%
%TO.N,/power_conversion/spare1*%
X251467026Y-211456000D03*
%TO.P,J7,6,Pin_6*%
%TO.N,-BATT*%
X256467026Y-211456000D03*
%TO.P,J7,7,Pin_7*%
%TO.N,/power_conversion/netpw*%
X261467026Y-211456000D03*
%TO.P,J7,8,Pin_8*%
%TO.N,-BATT*%
X266467026Y-211456000D03*
%TD*%
D12*
%TO.P,U23,1,A1*%
%TO.N,/power_conversion/3v3*%
X338982026Y-189595000D03*
%TO.P,U23,2,A0*%
X338982026Y-190865000D03*
%TO.P,U23,3,SDA*%
%TO.N,/power_conversion/SDA*%
X338982026Y-192135000D03*
%TO.P,U23,4,SCL*%
%TO.N,/power_conversion/SCL*%
X338982026Y-193405000D03*
%TO.P,U23,5,VS*%
%TO.N,/power_conversion/3v3*%
X343932026Y-193405000D03*
%TO.P,U23,6,GND*%
%TO.N,-BATT*%
X343932026Y-192135000D03*
%TO.P,U23,7,IN-*%
%TO.N,/power_conversion/spare2*%
X343932026Y-190865000D03*
%TO.P,U23,8,IN+*%
%TO.N,Net-(R15-Pad2)*%
X343932026Y-189595000D03*
%TD*%
D45*
%TO.N,-BATT*%
X185623200Y-119786400D03*
%TO.N,/power_conversion/3v3*%
X150317200Y-119024400D03*
X174929800Y-119049800D03*
D46*
%TO.N,Net-(R1-Pad2)*%
X94246400Y-126428800D03*
D45*
%TO.N,-BATT*%
X150215600Y-128828800D03*
%TO.N,/power_conversion/3v3*%
X344424000Y-81381600D03*
X343321190Y-152080410D03*
X343321190Y-185841190D03*
X268630400Y-121564400D03*
X243484400Y-140004800D03*
X357936800Y-121513600D03*
X212547200Y-121564400D03*
X227076000Y-176276000D03*
X240487200Y-121564400D03*
X344322400Y-121564400D03*
X185826400Y-121564400D03*
%TO.N,-BATT*%
X361696000Y-83261200D03*
X244703600Y-116332000D03*
X353415600Y-81991200D03*
X271830800Y-182321200D03*
X238963200Y-140309600D03*
D47*
X125720000Y-191810000D03*
D45*
X210100564Y-116543436D03*
X350672400Y-107391200D03*
X274040600Y-116713000D03*
D47*
%TO.N,+BATT*%
X128625600Y-60502800D03*
%TO.N,/power_conversion/N4*%
X264100000Y-112124800D03*
%TO.N,/power_conversion/N3*%
X235499600Y-111884682D03*
%TO.N,/power_conversion/N1*%
X178333400Y-114935000D03*
%TO.N,/power_conversion/N2*%
X207476459Y-111699941D03*
%TO.N,/power_conversion/pi3*%
X352044000Y-95662835D03*
%TO.N,/power_conversion/pi2*%
X354347026Y-65768974D03*
%TO.N,/power_conversion/pi1*%
X357632000Y-129540000D03*
%TO.N,/power_conversion/routerp*%
X265531600Y-188061600D03*
D48*
%TO.N,/power_conversion/spare1*%
X240893600Y-162864800D03*
D47*
%TO.N,/power_conversion/spare2*%
X355854000Y-191820800D03*
D45*
%TO.N,/power_conversion/SCL*%
X263652000Y-120091200D03*
X350215200Y-149098000D03*
X235539800Y-120111000D03*
X205861400Y-120111000D03*
X246634000Y-179578000D03*
X345846400Y-120142000D03*
X173075600Y-117805200D03*
X245592600Y-137693400D03*
X340410800Y-198831200D03*
X246634000Y-184404000D03*
X350266000Y-85394800D03*
X149656800Y-134315200D03*
X175209200Y-122275600D03*
%TO.N,/power_conversion/SDA*%
X175107600Y-120446800D03*
X247497600Y-138938000D03*
X262229600Y-116687600D03*
X341630000Y-108458000D03*
X233380564Y-117393436D03*
X204749400Y-117119400D03*
X340055200Y-183134000D03*
X340055200Y-147370800D03*
X262001000Y-181483000D03*
X347319600Y-83261200D03*
X149961600Y-146913600D03*
D47*
%TO.N,Net-(JP1-Pad1)*%
X124154000Y-70580000D03*
X124022000Y-99650400D03*
%TD*%
D49*
%TO.N,-BATT*%
X185089800Y-120319800D02*
X185623200Y-119786400D01*
X183687800Y-120319800D02*
X185089800Y-120319800D01*
D50*
%TO.N,/power_conversion/Buck in*%
X153360000Y-63320000D02*
X163552800Y-63320000D01*
X163552800Y-63320000D02*
X163677600Y-63195200D01*
D51*
%TO.N,Net-(R15-Pad2)*%
X346100400Y-173532800D02*
X347624400Y-172008800D01*
X346100400Y-180689374D02*
X346100400Y-173532800D01*
D52*
%TO.N,/power_conversion/3v3*%
X181737000Y-121589800D02*
X183687800Y-121589800D01*
X181305200Y-120114282D02*
X181305200Y-121158000D01*
X181305200Y-121158000D02*
X181737000Y-121589800D01*
X180240718Y-119049800D02*
X181305200Y-120114282D01*
X150215600Y-123151500D02*
X150215600Y-119126000D01*
X150215600Y-119126000D02*
X150317200Y-119024400D01*
X143558800Y-127916400D02*
X145808300Y-125666900D01*
X145808300Y-125666900D02*
X147700200Y-125666900D01*
X143558800Y-130911600D02*
X143558800Y-127916400D01*
X147700200Y-125666900D02*
X150215600Y-123151500D01*
X178737800Y-119049800D02*
X174929800Y-119049800D01*
D49*
%TO.N,/power_conversion/SCL*%
X175895000Y-121589800D02*
X175209200Y-122275600D01*
X178737800Y-121589800D02*
X175895000Y-121589800D01*
D53*
%TO.N,/power_conversion/Buck in*%
X120243600Y-93167200D02*
X109917000Y-103493800D01*
X136855200Y-93167200D02*
X120243600Y-93167200D01*
X109917000Y-103493800D02*
X109917000Y-109329000D01*
X136855200Y-93167200D02*
X136855200Y-65176400D01*
X136855200Y-104546400D02*
X136855200Y-93167200D01*
D49*
%TO.N,Net-(R1-Pad2)*%
X94246400Y-126428800D02*
X92354400Y-124536800D01*
X94563600Y-126746000D02*
X94246400Y-126428800D01*
X96290800Y-126746000D02*
X94563600Y-126746000D01*
%TO.N,-BATT*%
X99390800Y-123216000D02*
X98856800Y-122682000D01*
X99390800Y-126746000D02*
X99390800Y-123216000D01*
%TO.N,Net-(Q1-Pad2)*%
X97562000Y-121436800D02*
X97586800Y-121412000D01*
X92354400Y-121436800D02*
X97562000Y-121436800D01*
D51*
%TO.N,Net-(R14-Pad2)*%
X228752400Y-152349200D02*
X226974400Y-150571200D01*
X228752400Y-153822400D02*
X228752400Y-152349200D01*
D49*
%TO.N,-BATT*%
X150215600Y-126276500D02*
X150215600Y-128828800D01*
D52*
%TO.N,/power_conversion/3v3*%
X345080600Y-80725000D02*
X344424000Y-81381600D01*
X227076000Y-176276000D02*
X227141000Y-176341000D01*
X227126800Y-176225200D02*
X265988800Y-176225200D01*
X268681200Y-117946400D02*
X268667000Y-117932200D01*
X355040026Y-80725000D02*
X355947108Y-80725000D01*
X106035698Y-176577328D02*
X143553026Y-139060000D01*
X265988800Y-176225200D02*
X267512800Y-177749200D01*
X357704026Y-121280826D02*
X357936800Y-121513600D01*
X240371400Y-118389400D02*
X239464318Y-118389400D01*
X343024944Y-193405000D02*
X343932026Y-193405000D01*
X178737800Y-119049800D02*
X180240718Y-119049800D01*
X145008000Y-134239000D02*
X143723052Y-134239000D01*
X53187600Y-203571426D02*
X77823026Y-178936000D01*
D54*
X240214035Y-140004800D02*
X237851835Y-137642600D01*
D52*
X143723052Y-134239000D02*
X143553026Y-134068974D01*
X268630400Y-121564400D02*
X268630400Y-118313200D01*
X143553026Y-129406000D02*
X143553026Y-134068974D01*
X185801000Y-121589800D02*
X185826400Y-121564400D01*
X358315026Y-83767082D02*
X359082944Y-84535000D01*
X355947108Y-80725000D02*
X358315026Y-83092918D01*
X240734318Y-140182600D02*
X241641400Y-140182600D01*
X237508518Y-115759436D02*
X236328482Y-114579400D01*
X243484400Y-140004800D02*
X240214035Y-140004800D01*
X227076000Y-176276000D02*
X227126800Y-176225200D01*
X143553026Y-139060000D02*
X143553026Y-138132974D01*
X227141000Y-176341000D02*
X227141000Y-180263800D01*
X269886200Y-183616600D02*
X268383282Y-183616600D01*
X357704026Y-109935000D02*
X357704026Y-121280826D01*
X268681200Y-118262400D02*
X268681200Y-117946400D01*
X212547200Y-121564400D02*
X212547200Y-118403600D01*
X359482026Y-148543000D02*
X355944616Y-152080410D01*
X240371400Y-121448600D02*
X240487200Y-121564400D01*
X267512800Y-177749200D02*
X267512800Y-180594000D01*
X143553026Y-138132974D02*
X145117374Y-138132974D01*
X268630400Y-118313200D02*
X268681200Y-118262400D01*
X338982026Y-190865000D02*
X340484944Y-190865000D01*
X338982026Y-189595000D02*
X338982026Y-190865000D01*
X236691400Y-137642600D02*
X237851835Y-137642600D01*
X339567380Y-189595000D02*
X343321190Y-185841190D01*
X340484944Y-190865000D02*
X343024944Y-193405000D01*
X358315026Y-83092918D02*
X358315026Y-83767082D01*
X267512800Y-180594000D02*
X266436741Y-181670059D01*
X355944616Y-152080410D02*
X343321190Y-152080410D01*
X145117374Y-138132974D02*
X145262000Y-138277600D01*
X239464318Y-118389400D02*
X237508518Y-116433600D01*
X80181698Y-176577328D02*
X106035698Y-176577328D01*
X236328482Y-114579400D02*
X235421400Y-114579400D01*
X268383282Y-183616600D02*
X266436741Y-181670059D01*
X143553026Y-134068974D02*
X143553026Y-138132974D01*
X77823026Y-178936000D02*
X80181698Y-176577328D01*
X183687800Y-121589800D02*
X185801000Y-121589800D01*
X237508518Y-116433600D02*
X237508518Y-115759436D01*
X355040026Y-80725000D02*
X345080600Y-80725000D01*
X53187600Y-212089800D02*
X53187600Y-203571426D01*
X240371400Y-118389400D02*
X240371400Y-121448600D01*
X359082944Y-84535000D02*
X359990026Y-84535000D01*
X266436741Y-181670059D02*
X265843282Y-181076600D01*
X338982026Y-189595000D02*
X339567380Y-189595000D01*
X212547200Y-118403600D02*
X212533000Y-118389400D01*
X265843282Y-181076600D02*
X264936200Y-181076600D01*
D49*
%TO.N,-BATT*%
X241641400Y-141452600D02*
X240106200Y-141452600D01*
X355857800Y-146003000D02*
X357127800Y-147273000D01*
X335417026Y-150187774D02*
X335417026Y-154258000D01*
X125757026Y-191772974D02*
X125720000Y-191810000D01*
X354532026Y-146003000D02*
X354532026Y-144733000D01*
X227768032Y-181533800D02*
X227141000Y-181533800D01*
X240371400Y-117119400D02*
X243916200Y-117119400D01*
X354577554Y-108665000D02*
X353307554Y-107395000D01*
X210100564Y-116543436D02*
X208136528Y-114579400D01*
X359990026Y-83265000D02*
X361692200Y-83265000D01*
X354532026Y-146003000D02*
X355857800Y-146003000D01*
X352754026Y-107395000D02*
X350676200Y-107395000D01*
X271805400Y-182346600D02*
X271830800Y-182321200D01*
X240106200Y-141452600D02*
X238963200Y-140309600D01*
X354532026Y-146003000D02*
X339601800Y-146003000D01*
X215889226Y-181533800D02*
X214931026Y-182492000D01*
X238963200Y-140309600D02*
X237566200Y-138912600D01*
X357704026Y-108665000D02*
X354577554Y-108665000D01*
D55*
X125757026Y-189125000D02*
X125757026Y-191772974D01*
D49*
X355040026Y-81995000D02*
X353419400Y-81995000D01*
X227141000Y-181533800D02*
X215889226Y-181533800D01*
X350676200Y-107395000D02*
X350672400Y-107391200D01*
X353307554Y-107395000D02*
X352754026Y-107395000D01*
X210676528Y-117119400D02*
X210100564Y-116543436D01*
X353419400Y-81995000D02*
X353415600Y-81991200D01*
X346723026Y-194372472D02*
X346723026Y-205234000D01*
X229038032Y-182803800D02*
X227768032Y-181533800D01*
X268616200Y-116713000D02*
X274040600Y-116713000D01*
X232091000Y-182803800D02*
X229038032Y-182803800D01*
X208136528Y-114579400D02*
X207583000Y-114579400D01*
X269886200Y-182346600D02*
X271805400Y-182346600D01*
X361692200Y-83265000D02*
X361696000Y-83261200D01*
X237566200Y-138912600D02*
X236691400Y-138912600D01*
X243916200Y-117119400D02*
X244703600Y-116332000D01*
X343932026Y-192135000D02*
X344485554Y-192135000D01*
X357127800Y-147273000D02*
X359482026Y-147273000D01*
X344485554Y-192135000D02*
X346723026Y-194372472D01*
X339601800Y-146003000D02*
X335417026Y-150187774D01*
X212533000Y-117119400D02*
X210676528Y-117119400D01*
D52*
%TO.N,Net-(C2-Pad1)*%
X125750000Y-185377500D02*
X139312526Y-185377500D01*
X123543026Y-183170526D02*
X125750000Y-185377500D01*
X139312526Y-185377500D02*
X166196026Y-212261000D01*
X123543026Y-178936000D02*
X123543026Y-183170526D01*
D53*
%TO.N,/power_conversion/Buck in*%
X136855200Y-65176400D02*
X138711600Y-63320000D01*
X131064000Y-104546400D02*
X136855200Y-104546400D01*
X138711600Y-63320000D02*
X153360000Y-63320000D01*
D50*
X131064000Y-104546400D02*
X130758000Y-104852400D01*
D51*
%TO.N,+BATT*%
X128778000Y-65232100D02*
X128778000Y-60655200D01*
D49*
X128778000Y-60655200D02*
X128625600Y-60502800D01*
D52*
%TO.N,/power_conversion/N4*%
X268616200Y-115443000D02*
X267113282Y-115443000D01*
X267113282Y-115443000D02*
X264100000Y-112429718D01*
X264100000Y-112429718D02*
X264100000Y-112124800D01*
X264100000Y-112124800D02*
X264100000Y-107950000D01*
%TO.N,/power_conversion/N3*%
X239464318Y-115849400D02*
X235499600Y-111884682D01*
D51*
X235499600Y-111884682D02*
X235499600Y-107645200D01*
D52*
X240371400Y-115849400D02*
X239464318Y-115849400D01*
D51*
%TO.N,/power_conversion/N1*%
X178298800Y-110794800D02*
X178298800Y-114900400D01*
D52*
X182448200Y-119049800D02*
X178333400Y-114935000D01*
D51*
X178298800Y-114900400D02*
X178333400Y-114935000D01*
D52*
X183687800Y-119049800D02*
X182448200Y-119049800D01*
D49*
%TO.N,/power_conversion/N2*%
X207476459Y-111699941D02*
X211625918Y-115849400D01*
D51*
X207398000Y-111621482D02*
X207476459Y-111699941D01*
D49*
X211625918Y-115849400D02*
X212533000Y-115849400D01*
D51*
X207398000Y-107340400D02*
X207398000Y-111621482D01*
D49*
%TO.N,/power_conversion/netpw*%
X228048082Y-182803800D02*
X231403200Y-186158918D01*
D51*
X231403200Y-195072000D02*
X245083026Y-195072000D01*
D49*
X231403200Y-186158918D02*
X231403200Y-195072000D01*
D51*
X245083026Y-195072000D02*
X261467026Y-211456000D01*
D49*
X227141000Y-182803800D02*
X228048082Y-182803800D01*
D51*
%TO.N,/power_conversion/pi3*%
X352019426Y-101178435D02*
X352019426Y-95687409D01*
D52*
X357704026Y-107395000D02*
X356796944Y-107395000D01*
X356796944Y-107395000D02*
X351613026Y-102211082D01*
D51*
X352019426Y-95687409D02*
X352044000Y-95662835D01*
D52*
X351613026Y-102211082D02*
X351613026Y-100156000D01*
%TO.N,/power_conversion/pi2*%
X359082944Y-81995000D02*
X354347026Y-77259082D01*
D51*
X354347026Y-71708000D02*
X354347026Y-65768974D01*
D52*
X359990026Y-81995000D02*
X359082944Y-81995000D01*
X354347026Y-77259082D02*
X354347026Y-71708000D01*
%TO.N,/power_conversion/pi1*%
X354347026Y-141775082D02*
X354347026Y-135970000D01*
X359482026Y-146003000D02*
X358574944Y-146003000D01*
D51*
X354347026Y-132824974D02*
X357632000Y-129540000D01*
D52*
X358574944Y-146003000D02*
X354347026Y-141775082D01*
D51*
X354347026Y-135970000D02*
X354347026Y-132824974D01*
D49*
%TO.N,/power_conversion/routerp*%
X269892359Y-181070441D02*
X269886200Y-181076600D01*
D51*
X266242800Y-188772800D02*
X265531600Y-188061600D01*
D49*
X275265959Y-188766641D02*
X275265959Y-184181559D01*
D53*
X273904400Y-188772800D02*
X266242800Y-188772800D01*
D49*
X272154841Y-181070441D02*
X269892359Y-181070441D01*
X275265959Y-184181559D02*
X272154841Y-181070441D01*
%TO.N,/power_conversion/spare1*%
X240893600Y-159987600D02*
X240902800Y-159978400D01*
X240902800Y-143840472D02*
X237244928Y-140182600D01*
X240902800Y-150164800D02*
X240902800Y-143840472D01*
X237244928Y-140182600D02*
X236691400Y-140182600D01*
D51*
X240893600Y-162864800D02*
X240893600Y-159987600D01*
X240902800Y-150164800D02*
X240902800Y-159978400D01*
D52*
%TO.N,/power_conversion/spare2*%
X349402600Y-190865000D02*
X350520000Y-191982400D01*
X343932026Y-190865000D02*
X349402600Y-190865000D01*
X355854000Y-191820800D02*
X355692400Y-191982400D01*
X350520000Y-191982400D02*
X355692400Y-191982400D01*
D49*
%TO.N,Net-(J8-Pad2)*%
X77724000Y-148590000D02*
X83114000Y-143200000D01*
X55981800Y-170434000D02*
X77724000Y-148691800D01*
X83114000Y-143200000D02*
X93290000Y-143200000D01*
X77724000Y-148691800D02*
X77724000Y-148590000D01*
X95603026Y-145513026D02*
X95603026Y-153536000D01*
X93290000Y-143200000D02*
X95603026Y-145513026D01*
%TO.N,Net-(J8-Pad3)*%
X95980000Y-142300000D02*
X79206400Y-142300000D01*
X79035800Y-142300000D02*
X79206400Y-142300000D01*
X98143026Y-144463026D02*
X95980000Y-142300000D01*
X98143026Y-153536000D02*
X98143026Y-144463026D01*
X55981800Y-165354000D02*
X79035800Y-142300000D01*
%TO.N,Net-(J8-Pad4)*%
X100683026Y-153536000D02*
X100683026Y-143403026D01*
X74855800Y-141400000D02*
X98680000Y-141400000D01*
X100683026Y-143403026D02*
X98680000Y-141400000D01*
X55981800Y-160274000D02*
X74855800Y-141400000D01*
%TO.N,Net-(J8-Pad5)*%
X70675800Y-140500000D02*
X100090000Y-140500000D01*
X103223026Y-143633026D02*
X100090000Y-140500000D01*
X103223026Y-153536000D02*
X103223026Y-143633026D01*
X55981800Y-155194000D02*
X70675800Y-140500000D01*
%TO.N,Net-(J8-Pad6)*%
X69001600Y-139424000D02*
X69465600Y-138960000D01*
X58267600Y-150114000D02*
X55981800Y-150114000D01*
X104620000Y-138960000D02*
X69465600Y-138960000D01*
X68957600Y-139424000D02*
X69001600Y-139424000D01*
X105763026Y-140103026D02*
X104620000Y-138960000D01*
X105763026Y-153536000D02*
X105763026Y-140103026D01*
X58267600Y-150114000D02*
X68957600Y-139424000D01*
%TO.N,Net-(J8-Pad7)*%
X66232800Y-137780000D02*
X105890000Y-137780000D01*
X105890000Y-137780000D02*
X108303026Y-140193026D01*
X58978800Y-145034000D02*
X66232800Y-137780000D01*
X55981800Y-145034000D02*
X58978800Y-145034000D01*
X108303026Y-140193026D02*
X108303026Y-153536000D01*
%TO.N,Net-(J8-Pad8)*%
X108485200Y-136855200D02*
X108624000Y-136994000D01*
X110870000Y-139240000D02*
X108624000Y-136994000D01*
X59080600Y-136855200D02*
X108485200Y-136855200D01*
X55981800Y-139954000D02*
X59080600Y-136855200D01*
X110843026Y-139266974D02*
X110870000Y-139240000D01*
X110843026Y-153536000D02*
X110843026Y-139266974D01*
%TO.N,Net-(J8-Pad9)*%
X113383026Y-138943026D02*
X113383026Y-153536000D01*
X55981800Y-134874000D02*
X109314000Y-134874000D01*
X109314000Y-134874000D02*
X113383026Y-138943026D01*
%TO.N,Net-(J8-Pad10)*%
X115923026Y-137653026D02*
X115923026Y-153536000D01*
X55981800Y-129794000D02*
X108064000Y-129794000D01*
X108064000Y-129794000D02*
X115923026Y-137653026D01*
%TO.N,Net-(J10-Pad1)*%
X98907600Y-212089800D02*
X98907600Y-180711426D01*
X98907600Y-180711426D02*
X100683026Y-178936000D01*
%TO.N,Net-(J10-Pad2)*%
X93827600Y-183251426D02*
X98143026Y-178936000D01*
X93827600Y-212089800D02*
X93827600Y-183251426D01*
%TO.N,Net-(J10-Pad3)*%
X88747600Y-185791426D02*
X95603026Y-178936000D01*
X88747600Y-212089800D02*
X88747600Y-185791426D01*
%TO.N,Net-(J10-Pad4)*%
X83667600Y-188331426D02*
X93063026Y-178936000D01*
X83667600Y-212089800D02*
X83667600Y-188331426D01*
%TO.N,Net-(J10-Pad5)*%
X78587600Y-190871426D02*
X90523026Y-178936000D01*
X78587600Y-212089800D02*
X78587600Y-190871426D01*
%TO.N,Net-(J10-Pad6)*%
X73507600Y-193411426D02*
X87983026Y-178936000D01*
X73507600Y-212089800D02*
X73507600Y-193411426D01*
%TO.N,Net-(J10-Pad7)*%
X68427600Y-195951426D02*
X85443026Y-178936000D01*
X68427600Y-212089800D02*
X68427600Y-195951426D01*
%TO.N,Net-(J10-Pad8)*%
X63347600Y-198491426D02*
X63457113Y-198381913D01*
X63347600Y-212089800D02*
X63347600Y-198491426D01*
X82903026Y-178936000D02*
X63457113Y-198381913D01*
%TO.N,Net-(J10-Pad9)*%
X58267600Y-201031426D02*
X80363026Y-178936000D01*
X58267600Y-212089800D02*
X58267600Y-201031426D01*
%TO.N,Net-(J11-Pad4)*%
X121003026Y-178936000D02*
X121003026Y-194033500D01*
X121003026Y-194033500D02*
X138620526Y-211651000D01*
%TO.N,Net-(J11-Pad5)*%
X118463026Y-178936000D02*
X118463026Y-196573500D01*
X118463026Y-196573500D02*
X133540526Y-211651000D01*
%TO.N,Net-(J11-Pad6)*%
X115923026Y-178936000D02*
X115923026Y-199113500D01*
X115923026Y-199113500D02*
X128460526Y-211651000D01*
%TO.N,Net-(J11-Pad7)*%
X113383026Y-201653500D02*
X123380526Y-211651000D01*
X113383026Y-178936000D02*
X113383026Y-201653500D01*
%TO.N,Net-(J11-Pad8)*%
X108303026Y-178936000D02*
X108303026Y-201653500D01*
X108303026Y-201653500D02*
X118300526Y-211651000D01*
%TO.N,Net-(J11-Pad9)*%
X105763026Y-204193500D02*
X113220526Y-211651000D01*
X105763026Y-178936000D02*
X105763026Y-204193500D01*
%TO.N,Net-(J11-Pad10)*%
X103223026Y-206733500D02*
X108140526Y-211651000D01*
X103223026Y-178936000D02*
X103223026Y-206733500D01*
D51*
%TO.N,Net-(JP4-Pad1)*%
X289159826Y-153720800D02*
X289697026Y-154258000D01*
X280314400Y-153720800D02*
X289159826Y-153720800D01*
%TO.N,Net-(R4-Pad2)*%
X349009826Y-128981200D02*
X335417026Y-142574000D01*
X360527600Y-134467600D02*
X360527600Y-126224174D01*
X355244400Y-126224174D02*
X352399600Y-129068974D01*
D49*
X359482026Y-144733000D02*
X359482026Y-136035000D01*
X359547026Y-135970000D02*
X361137200Y-134379826D01*
X359482026Y-136035000D02*
X359547026Y-135970000D01*
D51*
X353009200Y-128981200D02*
X349009826Y-128981200D01*
X360527600Y-126224174D02*
X355244400Y-126224174D01*
%TO.N,Net-(R5-Pad2)*%
X183498800Y-108772000D02*
X173883026Y-99156226D01*
D49*
X183687800Y-110983800D02*
X183498800Y-110794800D01*
D51*
X173883026Y-99156226D02*
X173883026Y-95860000D01*
X183498800Y-110794800D02*
X183498800Y-108772000D01*
D49*
X183687800Y-117779800D02*
X183687800Y-110983800D01*
D51*
%TO.N,Net-(R6-Pad2)*%
X359968800Y-77165200D02*
X359968800Y-72129774D01*
D49*
X359990026Y-80725000D02*
X359990026Y-77186426D01*
X359990026Y-77186426D02*
X359968800Y-77165200D01*
X359968800Y-72129774D02*
X359547026Y-71708000D01*
D51*
%TO.N,Net-(R7-Pad2)*%
X202997200Y-95860000D02*
X212598000Y-105460800D01*
X212598000Y-105460800D02*
X212598000Y-107340400D01*
D49*
X212533000Y-107405400D02*
X212598000Y-107340400D01*
D51*
X201653692Y-95860000D02*
X202997200Y-95860000D01*
D49*
X212533000Y-114579400D02*
X212533000Y-107405400D01*
D51*
%TO.N,Net-(R8-Pad2)*%
X356819200Y-90576400D02*
X355752400Y-89509600D01*
X351661426Y-89509600D02*
X346465026Y-94706000D01*
D49*
X357704026Y-106125000D02*
X357704026Y-101047000D01*
D51*
X355752400Y-89509600D02*
X351661426Y-89509600D01*
D49*
X356813026Y-100156000D02*
X356813026Y-97674144D01*
X357704026Y-101047000D02*
X356813026Y-100156000D01*
D51*
X356819200Y-97667970D02*
X356819200Y-90576400D01*
D49*
X356813026Y-97674144D02*
X356819200Y-97667970D01*
%TO.N,Net-(R9-Pad2)*%
X240699600Y-107645200D02*
X240699600Y-114251200D01*
D51*
X231189600Y-95960000D02*
X240699600Y-105470000D01*
D49*
X240699600Y-114251200D02*
X240371400Y-114579400D01*
X240699600Y-105470000D02*
X240699600Y-107645200D01*
X229483026Y-95960000D02*
X231189600Y-95960000D01*
D51*
%TO.N,Net-(R10-Pad2)*%
X197256400Y-195072000D02*
X226203200Y-195072000D01*
D49*
X226203200Y-185011600D02*
X226203200Y-195072000D01*
X227141000Y-184073800D02*
X226203200Y-185011600D01*
D51*
X195427600Y-193243200D02*
X197256400Y-195072000D01*
D49*
%TO.N,Net-(R11-Pad2)*%
X268616200Y-114173000D02*
X268616200Y-108633800D01*
D51*
X269285026Y-107950000D02*
X269285026Y-105150226D01*
D49*
X269300000Y-107950000D02*
X269285026Y-107950000D01*
D51*
X264185400Y-100050600D02*
X259994800Y-95860000D01*
X259994800Y-95860000D02*
X257195026Y-95860000D01*
D49*
X268616200Y-108633800D02*
X269300000Y-107950000D01*
X260908800Y-102108000D02*
X262966200Y-100050600D01*
D51*
X269285026Y-105150226D02*
X264185400Y-100050600D01*
D49*
X262966200Y-100050600D02*
X264185400Y-100050600D01*
%TO.N,/power_conversion/SCL*%
X241539800Y-137693400D02*
X245592600Y-137693400D01*
X245948200Y-180263800D02*
X246634000Y-179578000D01*
X178737800Y-117779800D02*
X173101000Y-117779800D01*
X246634000Y-184404000D02*
X264148800Y-184404000D01*
X338982026Y-193405000D02*
X338982026Y-197402426D01*
X235539800Y-131693400D02*
X241539800Y-137693400D01*
X353977026Y-149098000D02*
X354532026Y-148543000D01*
X235421400Y-119992600D02*
X235539800Y-120111000D01*
X235421400Y-118389400D02*
X235421400Y-119992600D01*
X352754026Y-109935000D02*
X352754026Y-113234374D01*
X173101000Y-117779800D02*
X173075600Y-117805200D01*
X148184200Y-134315200D02*
X148108000Y-134239000D01*
X235539800Y-120111000D02*
X235539800Y-131693400D01*
X263666200Y-120077000D02*
X263652000Y-120091200D01*
X263666200Y-117983000D02*
X263666200Y-120077000D01*
X338982026Y-197402426D02*
X340410800Y-198831200D01*
X232091000Y-184073800D02*
X246303800Y-184073800D01*
X246303800Y-184073800D02*
X246634000Y-184404000D01*
X264148800Y-184404000D02*
X264936200Y-183616600D01*
X355040026Y-84535000D02*
X351125800Y-84535000D01*
X350215200Y-149098000D02*
X353977026Y-149098000D01*
X205861400Y-120111000D02*
X207583000Y-118389400D01*
X351125800Y-84535000D02*
X350266000Y-85394800D01*
X232091000Y-180263800D02*
X245948200Y-180263800D01*
X352754026Y-113234374D02*
X345846400Y-120142000D01*
X149656800Y-134315200D02*
X148184200Y-134315200D01*
%TO.N,/power_conversion/SDA*%
X355040026Y-83265000D02*
X347323400Y-83265000D01*
X263930215Y-179832000D02*
X262001000Y-179832000D01*
X354532026Y-147273000D02*
X354434226Y-147370800D01*
X233380564Y-131120164D02*
X239420400Y-137160000D01*
X349406200Y-108665000D02*
X347980000Y-107238800D01*
X148362000Y-138277600D02*
X148362000Y-138456000D01*
X262001000Y-181533800D02*
X262001000Y-182270400D01*
X336677000Y-185801000D02*
X339344000Y-183134000D01*
X239420400Y-137397528D02*
X240986272Y-138963400D01*
X264936200Y-179806600D02*
X263955615Y-179806600D01*
X240986272Y-138963400D02*
X241539800Y-138963400D01*
X235421400Y-117119400D02*
X235421400Y-115849400D01*
X263640800Y-116687600D02*
X263666200Y-116713000D01*
X233380564Y-117393436D02*
X233380564Y-131120164D01*
X348234000Y-106984800D02*
X349093800Y-106125000D01*
X148362000Y-138456000D02*
X149862000Y-139956000D01*
X235147364Y-117393436D02*
X235421400Y-117119400D01*
X347323400Y-83265000D02*
X347319600Y-83261200D01*
X348234000Y-106984800D02*
X346760800Y-108458000D01*
X239420400Y-137160000D02*
X239420400Y-137397528D01*
X354434226Y-147370800D02*
X340055200Y-147370800D01*
X262001000Y-179832000D02*
X262001000Y-182270400D01*
X338982026Y-192135000D02*
X337550000Y-192135000D01*
X233380564Y-117393436D02*
X235147364Y-117393436D01*
X346760800Y-108458000D02*
X341630000Y-108458000D01*
X149862000Y-139956000D02*
X149862000Y-146814000D01*
X207583000Y-117119400D02*
X207583000Y-115849400D01*
X241539800Y-138963400D02*
X247472200Y-138963400D01*
X352754026Y-108665000D02*
X349406200Y-108665000D01*
X247472200Y-138963400D02*
X247497600Y-138938000D01*
X263666200Y-115443000D02*
X263666200Y-116713000D01*
X336677000Y-191262000D02*
X336677000Y-185801000D01*
X262229600Y-116687600D02*
X263640800Y-116687600D01*
X337550000Y-192135000D02*
X336677000Y-191262000D01*
X149862000Y-146814000D02*
X149961600Y-146913600D01*
X263666200Y-115443000D02*
X263666200Y-114173000D01*
X263955615Y-179806600D02*
X263930215Y-179832000D01*
X339344000Y-183134000D02*
X340055200Y-183134000D01*
X178737800Y-120319800D02*
X175234600Y-120319800D01*
X264860000Y-182270400D02*
X264936200Y-182346600D01*
X232091000Y-181533800D02*
X262001000Y-181533800D01*
X347980000Y-107238800D02*
X348234000Y-106984800D01*
X349093800Y-106125000D02*
X352754026Y-106125000D01*
X262001000Y-182270400D02*
X264860000Y-182270400D01*
X175234600Y-120319800D02*
X175107600Y-120446800D01*
X204749400Y-117119400D02*
X207583000Y-117119400D01*
D51*
%TO.N,Net-(R14-Pad2)*%
X228752400Y-153822400D02*
X232045200Y-153822400D01*
D49*
X236691400Y-141452600D02*
X235702800Y-142441200D01*
X235702800Y-142441200D02*
X235702800Y-150164800D01*
D51*
X232045200Y-153822400D02*
X235702800Y-150164800D01*
D49*
X199183026Y-182492000D02*
X200082800Y-182492000D01*
D51*
X200082800Y-182492000D02*
X228752400Y-153822400D01*
%TO.N,Net-(R15-Pad2)*%
X346100400Y-180689374D02*
X335417026Y-170006000D01*
D49*
X347707400Y-189595000D02*
X350520000Y-186782400D01*
X343932026Y-189595000D02*
X347707400Y-189595000D01*
D51*
X346100400Y-181152800D02*
X346100400Y-180689374D01*
X350520000Y-185572400D02*
X346100400Y-181152800D01*
D49*
X350520000Y-186782400D02*
X350520000Y-185572400D01*
D51*
%TO.N,Net-(JP1-Pad1)*%
X128778000Y-70607100D02*
X124181100Y-70607100D01*
D53*
X125328500Y-104546400D02*
X125328500Y-100956900D01*
D49*
X124181100Y-70607100D02*
X124154000Y-70580000D01*
D51*
X125328500Y-100956900D02*
X124022000Y-99650400D01*
D53*
%TO.N,/power_conversion/Buck in*%
X279400000Y-188477200D02*
X279104400Y-188772800D01*
%TD*%
%TA.AperFunction,Conductor*%
%TO.N,/power_conversion/Buck in*%
G36*
X309187121Y-40660002D02*
G01*
X309233614Y-40713658D01*
X309245000Y-40766000D01*
X309245000Y-151258000D01*
X309224998Y-151326121D01*
X309171342Y-151372614D01*
X309119000Y-151384000D01*
X301498000Y-151384000D01*
X301498000Y-196724000D01*
X301477998Y-196792121D01*
X301424342Y-196838614D01*
X301372000Y-196850000D01*
X267442436Y-196850000D01*
X267374315Y-196829998D01*
X267327822Y-196776342D01*
X267318020Y-196743914D01*
X266477585Y-191493145D01*
X266387002Y-190927214D01*
X266395986Y-190856788D01*
X266441619Y-190802399D01*
X266511418Y-190781300D01*
X271680544Y-190781300D01*
X271748665Y-190801302D01*
X271795158Y-190854958D01*
X271805871Y-190894296D01*
X271806874Y-190903966D01*
X271862850Y-191071746D01*
X271955922Y-191222148D01*
X272081097Y-191347105D01*
X272087327Y-191350945D01*
X272087328Y-191350946D01*
X272224688Y-191435616D01*
X272231662Y-191439915D01*
X272311405Y-191466364D01*
X272393011Y-191493432D01*
X272393013Y-191493432D01*
X272399539Y-191495597D01*
X272406375Y-191496297D01*
X272406378Y-191496298D01*
X272449431Y-191500709D01*
X272504000Y-191506300D01*
X275304800Y-191506300D01*
X275308046Y-191505963D01*
X275308050Y-191505963D01*
X275403708Y-191496038D01*
X275403712Y-191496037D01*
X275410566Y-191495326D01*
X275417102Y-191493145D01*
X275417104Y-191493145D01*
X275549206Y-191449072D01*
X275578346Y-191439350D01*
X275728748Y-191346278D01*
X275853705Y-191221103D01*
X275946515Y-191070538D01*
X276002197Y-190902661D01*
X276012900Y-190798200D01*
X276012900Y-190794895D01*
X276996401Y-190794895D01*
X276996738Y-190801414D01*
X277006657Y-190897006D01*
X277009549Y-190910400D01*
X277060988Y-191064584D01*
X277067161Y-191077762D01*
X277152463Y-191215607D01*
X277161499Y-191227008D01*
X277276229Y-191341539D01*
X277287640Y-191350551D01*
X277425643Y-191435616D01*
X277438824Y-191441763D01*
X277593110Y-191492938D01*
X277606486Y-191495805D01*
X277700838Y-191505472D01*
X277707254Y-191505800D01*
X278832285Y-191505800D01*
X278847524Y-191501325D01*
X278848729Y-191499935D01*
X278850400Y-191492252D01*
X278850400Y-191487684D01*
X279358400Y-191487684D01*
X279362875Y-191502923D01*
X279364265Y-191504128D01*
X279371948Y-191505799D01*
X280501495Y-191505799D01*
X280508014Y-191505462D01*
X280603606Y-191495543D01*
X280617000Y-191492651D01*
X280771184Y-191441212D01*
X280784362Y-191435039D01*
X280922207Y-191349737D01*
X280933608Y-191340701D01*
X281048139Y-191225971D01*
X281057151Y-191214560D01*
X281142216Y-191076557D01*
X281148363Y-191063376D01*
X281199538Y-190909090D01*
X281202405Y-190895714D01*
X281212072Y-190801362D01*
X281212400Y-190794946D01*
X281212400Y-189044915D01*
X281207925Y-189029676D01*
X281206535Y-189028471D01*
X281198852Y-189026800D01*
X279376515Y-189026800D01*
X279361276Y-189031275D01*
X279360071Y-189032665D01*
X279358400Y-189040348D01*
X279358400Y-191487684D01*
X278850400Y-191487684D01*
X278850400Y-189044915D01*
X278845925Y-189029676D01*
X278844535Y-189028471D01*
X278836852Y-189026800D01*
X277014516Y-189026800D01*
X276999277Y-189031275D01*
X276998072Y-189032665D01*
X276996401Y-189040348D01*
X276996401Y-190794895D01*
X276012900Y-190794895D01*
X276012900Y-188920632D01*
X276016511Y-188890684D01*
X276022432Y-188866485D01*
X276023767Y-188861031D01*
X276024459Y-188849877D01*
X276024459Y-188500685D01*
X276996400Y-188500685D01*
X277000875Y-188515924D01*
X277002265Y-188517129D01*
X277009948Y-188518800D01*
X278832285Y-188518800D01*
X278847524Y-188514325D01*
X278848729Y-188512935D01*
X278850400Y-188505252D01*
X278850400Y-188500685D01*
X279358400Y-188500685D01*
X279362875Y-188515924D01*
X279364265Y-188517129D01*
X279371948Y-188518800D01*
X281194284Y-188518800D01*
X281209523Y-188514325D01*
X281210728Y-188512935D01*
X281212399Y-188505252D01*
X281212399Y-186750705D01*
X281212062Y-186744186D01*
X281202143Y-186648594D01*
X281199251Y-186635200D01*
X281147812Y-186481016D01*
X281141639Y-186467838D01*
X281056337Y-186329993D01*
X281047301Y-186318592D01*
X280932571Y-186204061D01*
X280921160Y-186195049D01*
X280783157Y-186109984D01*
X280769976Y-186103837D01*
X280615690Y-186052662D01*
X280602314Y-186049795D01*
X280507962Y-186040128D01*
X280501545Y-186039800D01*
X279376515Y-186039800D01*
X279361276Y-186044275D01*
X279360071Y-186045665D01*
X279358400Y-186053348D01*
X279358400Y-188500685D01*
X278850400Y-188500685D01*
X278850400Y-186057916D01*
X278845925Y-186042677D01*
X278844535Y-186041472D01*
X278836852Y-186039801D01*
X277707305Y-186039801D01*
X277700786Y-186040138D01*
X277605194Y-186050057D01*
X277591800Y-186052949D01*
X277437616Y-186104388D01*
X277424438Y-186110561D01*
X277286593Y-186195863D01*
X277275192Y-186204899D01*
X277160661Y-186319629D01*
X277151649Y-186331040D01*
X277066584Y-186469043D01*
X277060437Y-186482224D01*
X277009262Y-186636510D01*
X277006395Y-186649886D01*
X276996728Y-186744238D01*
X276996400Y-186750655D01*
X276996400Y-188500685D01*
X276024459Y-188500685D01*
X276024459Y-184248628D01*
X276025892Y-184229677D01*
X276028058Y-184215442D01*
X276028058Y-184215440D01*
X276029158Y-184208210D01*
X276026784Y-184179016D01*
X276024874Y-184155541D01*
X276024459Y-184145326D01*
X276024459Y-184137266D01*
X276021170Y-184109052D01*
X276020737Y-184104677D01*
X276015413Y-184039220D01*
X276015412Y-184039217D01*
X276014819Y-184031922D01*
X276012563Y-184024958D01*
X276011372Y-184018999D01*
X276009988Y-184013144D01*
X276009141Y-184005878D01*
X275984224Y-183937232D01*
X275982807Y-183933104D01*
X275962566Y-183870623D01*
X275962565Y-183870621D01*
X275960310Y-183863660D01*
X275956514Y-183857405D01*
X275954008Y-183851931D01*
X275951289Y-183846501D01*
X275948792Y-183839622D01*
X275908768Y-183778575D01*
X275906431Y-183774871D01*
X275871468Y-183717252D01*
X275871464Y-183717247D01*
X275868554Y-183712451D01*
X275861156Y-183704075D01*
X275861182Y-183704052D01*
X275858533Y-183701062D01*
X275855825Y-183697823D01*
X275851815Y-183691707D01*
X275846508Y-183686680D01*
X275846505Y-183686676D01*
X275795576Y-183638431D01*
X275793134Y-183636053D01*
X272738611Y-180581530D01*
X272726225Y-180567118D01*
X272717692Y-180555523D01*
X272717687Y-180555518D01*
X272713349Y-180549623D01*
X272707771Y-180544884D01*
X272707768Y-180544881D01*
X272673073Y-180515406D01*
X272665557Y-180508476D01*
X272659862Y-180502781D01*
X272653721Y-180497923D01*
X272637590Y-180485160D01*
X272634186Y-180482369D01*
X272584138Y-180439850D01*
X272584136Y-180439849D01*
X272578556Y-180435108D01*
X272572040Y-180431780D01*
X272566991Y-180428413D01*
X272561862Y-180425246D01*
X272556125Y-180420707D01*
X272489966Y-180389786D01*
X272486066Y-180387880D01*
X272421033Y-180354672D01*
X272413925Y-180352933D01*
X272408282Y-180350834D01*
X272402519Y-180348917D01*
X272395891Y-180345819D01*
X272324424Y-180330954D01*
X272320140Y-180329984D01*
X272268937Y-180317455D01*
X272249231Y-180312633D01*
X272243629Y-180312285D01*
X272243626Y-180312285D01*
X272238077Y-180311941D01*
X272238079Y-180311905D01*
X272234086Y-180311666D01*
X272229894Y-180311292D01*
X272222726Y-180309801D01*
X272156516Y-180311592D01*
X272145320Y-180311895D01*
X272141913Y-180311941D01*
X271460988Y-180311941D01*
X271392867Y-180291939D01*
X271346374Y-180238283D01*
X271336270Y-180168009D01*
X271339991Y-180150788D01*
X271361139Y-180077996D01*
X271361099Y-180063894D01*
X271353830Y-180060600D01*
X269758200Y-180060600D01*
X269690079Y-180040598D01*
X269643586Y-179986942D01*
X269632200Y-179934600D01*
X269632200Y-179534485D01*
X270140200Y-179534485D01*
X270144675Y-179549724D01*
X270146065Y-179550929D01*
X270153748Y-179552600D01*
X271348078Y-179552600D01*
X271361609Y-179548627D01*
X271362744Y-179540729D01*
X271322093Y-179400810D01*
X271315848Y-179386379D01*
X271239289Y-179256922D01*
X271229649Y-179244496D01*
X271123304Y-179138151D01*
X271110878Y-179128511D01*
X270981421Y-179051952D01*
X270966990Y-179045707D01*
X270821135Y-179003331D01*
X270808533Y-179001030D01*
X270780116Y-178998793D01*
X270775186Y-178998600D01*
X270158315Y-178998600D01*
X270143076Y-179003075D01*
X270141871Y-179004465D01*
X270140200Y-179012148D01*
X270140200Y-179534485D01*
X269632200Y-179534485D01*
X269632200Y-179016716D01*
X269627725Y-179001477D01*
X269626335Y-179000272D01*
X269618652Y-178998601D01*
X268997217Y-178998601D01*
X268992280Y-178998795D01*
X268963864Y-179001030D01*
X268951269Y-179003330D01*
X268805410Y-179045707D01*
X268790979Y-179051952D01*
X268711439Y-179098991D01*
X268642622Y-179116450D01*
X268575291Y-179093933D01*
X268530822Y-179038588D01*
X268521300Y-178990537D01*
X268521300Y-177811040D01*
X268522037Y-177797432D01*
X268525459Y-177765936D01*
X268525459Y-177765932D01*
X268526124Y-177759811D01*
X268521750Y-177709809D01*
X268521421Y-177704984D01*
X268521300Y-177702513D01*
X268521300Y-177699431D01*
X268517109Y-177656689D01*
X268516987Y-177655374D01*
X268509423Y-177568919D01*
X268508887Y-177562787D01*
X268507400Y-177557668D01*
X268506880Y-177552367D01*
X268479999Y-177463333D01*
X268479664Y-177462200D01*
X268455427Y-177378778D01*
X268455425Y-177378774D01*
X268453708Y-177372863D01*
X268451257Y-177368134D01*
X268449716Y-177363031D01*
X268406030Y-177280869D01*
X268405483Y-177279827D01*
X268365528Y-177202745D01*
X268365527Y-177202744D01*
X268362692Y-177197274D01*
X268359369Y-177193111D01*
X268356866Y-177188404D01*
X268298063Y-177116305D01*
X268297300Y-177115360D01*
X268266061Y-177076227D01*
X268263570Y-177073736D01*
X268262920Y-177073009D01*
X268259208Y-177068663D01*
X268235755Y-177039908D01*
X268231865Y-177035138D01*
X268227123Y-177031215D01*
X268227121Y-177031213D01*
X268196527Y-177005903D01*
X268187747Y-176997913D01*
X266745655Y-175555821D01*
X266736553Y-175545678D01*
X266716697Y-175520982D01*
X266712832Y-175516175D01*
X266674378Y-175483908D01*
X266670731Y-175480728D01*
X266668919Y-175479085D01*
X266666725Y-175476891D01*
X266633451Y-175449558D01*
X266632653Y-175448896D01*
X266561326Y-175389046D01*
X266556656Y-175386478D01*
X266552539Y-175383097D01*
X266470714Y-175339223D01*
X266469555Y-175338594D01*
X266393419Y-175296738D01*
X266393411Y-175296735D01*
X266388013Y-175293767D01*
X266382931Y-175292155D01*
X266378237Y-175289638D01*
X266289269Y-175262438D01*
X266288241Y-175262118D01*
X266199494Y-175233965D01*
X266194198Y-175233371D01*
X266189102Y-175231813D01*
X266096543Y-175222410D01*
X266095407Y-175222289D01*
X266061792Y-175218519D01*
X266049070Y-175217092D01*
X266049066Y-175217092D01*
X266045573Y-175216700D01*
X266042046Y-175216700D01*
X266041061Y-175216645D01*
X266035381Y-175216198D01*
X266005975Y-175213211D01*
X265998463Y-175212448D01*
X265998461Y-175212448D01*
X265992338Y-175211826D01*
X265950059Y-175215823D01*
X265946691Y-175216141D01*
X265934833Y-175216700D01*
X263979822Y-175216700D01*
X263911701Y-175196698D01*
X263865208Y-175143042D01*
X263855406Y-175110614D01*
X263411965Y-172340134D01*
X286902526Y-172340134D01*
X286909281Y-172402316D01*
X286960411Y-172538705D01*
X287047765Y-172655261D01*
X287164321Y-172742615D01*
X287300710Y-172793745D01*
X287362892Y-172800500D01*
X292031160Y-172800500D01*
X292093342Y-172793745D01*
X292229731Y-172742615D01*
X292346287Y-172655261D01*
X292433641Y-172538705D01*
X292484771Y-172402316D01*
X292491526Y-172340134D01*
X292491526Y-167671866D01*
X292484771Y-167609684D01*
X292433641Y-167473295D01*
X292346287Y-167356739D01*
X292229731Y-167269385D01*
X292093342Y-167218255D01*
X292031160Y-167211500D01*
X287362892Y-167211500D01*
X287300710Y-167218255D01*
X287164321Y-167269385D01*
X287047765Y-167356739D01*
X286960411Y-167473295D01*
X286909281Y-167609684D01*
X286902526Y-167671866D01*
X286902526Y-172340134D01*
X263411965Y-172340134D01*
X263255606Y-171363254D01*
X271774818Y-171363254D01*
X271781873Y-171373227D01*
X271812879Y-171399151D01*
X271819798Y-171404179D01*
X272044472Y-171545115D01*
X272052007Y-171549156D01*
X272293720Y-171658294D01*
X272301751Y-171661280D01*
X272556032Y-171736602D01*
X272564384Y-171738469D01*
X272826540Y-171778584D01*
X272835074Y-171779300D01*
X273100245Y-171783467D01*
X273108796Y-171783018D01*
X273372083Y-171751157D01*
X273380484Y-171749555D01*
X273637024Y-171682253D01*
X273645126Y-171679526D01*
X273890149Y-171578034D01*
X273897817Y-171574228D01*
X274126798Y-171440422D01*
X274133879Y-171435609D01*
X274213855Y-171372901D01*
X274222325Y-171361042D01*
X274215808Y-171349418D01*
X273012012Y-170145622D01*
X272998068Y-170138008D01*
X272996235Y-170138139D01*
X272989620Y-170142390D01*
X271782110Y-171349900D01*
X271774818Y-171363254D01*
X263255606Y-171363254D01*
X262998478Y-169756804D01*
X270986865Y-169756804D01*
X271002132Y-170021569D01*
X271003205Y-170030070D01*
X271054265Y-170290322D01*
X271056476Y-170298574D01*
X271142384Y-170549494D01*
X271145699Y-170557379D01*
X271264864Y-170794313D01*
X271269220Y-170801679D01*
X271398547Y-170989850D01*
X271408801Y-170998194D01*
X271422542Y-170991048D01*
X272627178Y-169786412D01*
X272633556Y-169774732D01*
X273363608Y-169774732D01*
X273363739Y-169776565D01*
X273367990Y-169783180D01*
X274574930Y-170990120D01*
X274587139Y-170996787D01*
X274598639Y-170988097D01*
X274696031Y-170855513D01*
X274700618Y-170848285D01*
X274827162Y-170615221D01*
X274830730Y-170607427D01*
X274924471Y-170359350D01*
X274926948Y-170351144D01*
X274986154Y-170092638D01*
X274987494Y-170084177D01*
X275011231Y-169818216D01*
X275011477Y-169813277D01*
X275011866Y-169776085D01*
X275011723Y-169771119D01*
X274993562Y-169504723D01*
X274992401Y-169496249D01*
X274938619Y-169236544D01*
X274936320Y-169228309D01*
X274847788Y-168978305D01*
X274844391Y-168970454D01*
X274722750Y-168734778D01*
X274718322Y-168727466D01*
X274599231Y-168558017D01*
X274588709Y-168549637D01*
X274575321Y-168556689D01*
X273371222Y-169760788D01*
X273363608Y-169774732D01*
X272633556Y-169774732D01*
X272634792Y-169772468D01*
X272634661Y-169770635D01*
X272630410Y-169764020D01*
X271423014Y-168556624D01*
X271411004Y-168550066D01*
X271399264Y-168559034D01*
X271291135Y-168709511D01*
X271286618Y-168716796D01*
X271162525Y-168951167D01*
X271159039Y-168958995D01*
X271067900Y-169208046D01*
X271065511Y-169216270D01*
X271009012Y-169475395D01*
X271007763Y-169483850D01*
X270986954Y-169748253D01*
X270986865Y-169756804D01*
X262998478Y-169756804D01*
X262747072Y-168186100D01*
X271775784Y-168186100D01*
X271782180Y-168197370D01*
X272986388Y-169401578D01*
X273000332Y-169409192D01*
X273002165Y-169409061D01*
X273008780Y-169404810D01*
X274215804Y-168197786D01*
X274222995Y-168184617D01*
X274215673Y-168174380D01*
X274168433Y-168135715D01*
X274161461Y-168130760D01*
X273935322Y-167992182D01*
X273927752Y-167988224D01*
X273684904Y-167881622D01*
X273676844Y-167878720D01*
X273421792Y-167806067D01*
X273413414Y-167804285D01*
X273150856Y-167766918D01*
X273142311Y-167766291D01*
X272877108Y-167764902D01*
X272868574Y-167765439D01*
X272605633Y-167800056D01*
X272597235Y-167801749D01*
X272341438Y-167871727D01*
X272333343Y-167874546D01*
X272089399Y-167978597D01*
X272081777Y-167982481D01*
X271854213Y-168118675D01*
X271847181Y-168123562D01*
X271784253Y-168173977D01*
X271775784Y-168186100D01*
X262747072Y-168186100D01*
X260891891Y-156595531D01*
X260474493Y-153987762D01*
X277161558Y-153987762D01*
X277193056Y-154111785D01*
X277196897Y-154122632D01*
X277283085Y-154309589D01*
X277288836Y-154319550D01*
X277407654Y-154487673D01*
X277415120Y-154496415D01*
X277562591Y-154640075D01*
X277571524Y-154647309D01*
X277742699Y-154761684D01*
X277752809Y-154767174D01*
X277941966Y-154848442D01*
X277952899Y-154851994D01*
X278042732Y-154872321D01*
X278056805Y-154871432D01*
X278060400Y-154862033D01*
X278060400Y-154861312D01*
X278568400Y-154861312D01*
X278572366Y-154874818D01*
X278586283Y-154876811D01*
X278597217Y-154874186D01*
X278792163Y-154808010D01*
X278802672Y-154803331D01*
X278982282Y-154702744D01*
X278991770Y-154696224D01*
X278995373Y-154693227D01*
X279060537Y-154665046D01*
X279130592Y-154676568D01*
X279167492Y-154703527D01*
X279298246Y-154841795D01*
X279301732Y-154845481D01*
X279305758Y-154848559D01*
X279305759Y-154848560D01*
X279490554Y-154989847D01*
X279490558Y-154989850D01*
X279494574Y-154992920D01*
X279708509Y-155107631D01*
X279938031Y-155186662D01*
X280037378Y-155203822D01*
X280173326Y-155227304D01*
X280173332Y-155227305D01*
X280177236Y-155227979D01*
X280181197Y-155228159D01*
X280181198Y-155228159D01*
X280204906Y-155229236D01*
X280204925Y-155229236D01*
X280206325Y-155229300D01*
X286776526Y-155229300D01*
X286844647Y-155249302D01*
X286891140Y-155302958D01*
X286902526Y-155355300D01*
X286902526Y-156592134D01*
X286909281Y-156654316D01*
X286960411Y-156790705D01*
X287047765Y-156907261D01*
X287164321Y-156994615D01*
X287300710Y-157045745D01*
X287362892Y-157052500D01*
X292031160Y-157052500D01*
X292093342Y-157045745D01*
X292229731Y-156994615D01*
X292346287Y-156907261D01*
X292433641Y-156790705D01*
X292484771Y-156654316D01*
X292491526Y-156592134D01*
X292491526Y-151923866D01*
X292484771Y-151861684D01*
X292433641Y-151725295D01*
X292346287Y-151608739D01*
X292229731Y-151521385D01*
X292093342Y-151470255D01*
X292031160Y-151463500D01*
X287362892Y-151463500D01*
X287300710Y-151470255D01*
X287164321Y-151521385D01*
X287047765Y-151608739D01*
X286960411Y-151725295D01*
X286909281Y-151861684D01*
X286902526Y-151923866D01*
X286902526Y-152086300D01*
X286882524Y-152154421D01*
X286828868Y-152200914D01*
X286776526Y-152212300D01*
X280253399Y-152212300D01*
X280250891Y-152212502D01*
X280250886Y-152212502D01*
X280077476Y-152226454D01*
X280077471Y-152226455D01*
X280072435Y-152226860D01*
X280067527Y-152228066D01*
X280067524Y-152228066D01*
X279896819Y-152269995D01*
X279836694Y-152284763D01*
X279832042Y-152286738D01*
X279832038Y-152286739D01*
X279696229Y-152344387D01*
X279613244Y-152379612D01*
X279608960Y-152382310D01*
X279412112Y-152506272D01*
X279412109Y-152506274D01*
X279407833Y-152508967D01*
X279404039Y-152512312D01*
X279229542Y-152666150D01*
X279229539Y-152666153D01*
X279225745Y-152669498D01*
X279222535Y-152673406D01*
X279222534Y-152673407D01*
X279173276Y-152733375D01*
X279114581Y-152773318D01*
X279043609Y-152775188D01*
X279008676Y-152759961D01*
X278858655Y-152665305D01*
X278848408Y-152660084D01*
X278657193Y-152583797D01*
X278646167Y-152580530D01*
X278586170Y-152568597D01*
X278573294Y-152569749D01*
X278568400Y-152584902D01*
X278568400Y-154861312D01*
X278060400Y-154861312D01*
X278060400Y-153992915D01*
X278055925Y-153977676D01*
X278054535Y-153976471D01*
X278046852Y-153974800D01*
X277176381Y-153974800D01*
X277162850Y-153978773D01*
X277161558Y-153987762D01*
X260474493Y-153987762D01*
X260390596Y-153463599D01*
X277159618Y-153463599D01*
X277166350Y-153466800D01*
X278042285Y-153466800D01*
X278057524Y-153462325D01*
X278058729Y-153460935D01*
X278060400Y-153453252D01*
X278060400Y-152582137D01*
X278056594Y-152569175D01*
X278041678Y-152567239D01*
X278012602Y-152572235D01*
X278001482Y-152575215D01*
X277808340Y-152646469D01*
X277797962Y-152651419D01*
X277621039Y-152756677D01*
X277611727Y-152763443D01*
X277456947Y-152899181D01*
X277449030Y-152907524D01*
X277321580Y-153069194D01*
X277315309Y-153078850D01*
X277219460Y-153261029D01*
X277215055Y-153271663D01*
X277159836Y-153449500D01*
X277159618Y-153463599D01*
X260390596Y-153463599D01*
X259130800Y-145592800D01*
X259121112Y-145592795D01*
X259121111Y-145592795D01*
X246759940Y-145586895D01*
X246691829Y-145566860D01*
X246645361Y-145513183D01*
X246634000Y-145460895D01*
X246634000Y-144908134D01*
X286902526Y-144908134D01*
X286909281Y-144970316D01*
X286960411Y-145106705D01*
X287047765Y-145223261D01*
X287164321Y-145310615D01*
X287300710Y-145361745D01*
X287362892Y-145368500D01*
X292031160Y-145368500D01*
X292093342Y-145361745D01*
X292229731Y-145310615D01*
X292346287Y-145223261D01*
X292433641Y-145106705D01*
X292484771Y-144970316D01*
X292491526Y-144908134D01*
X292491526Y-140239866D01*
X292484771Y-140177684D01*
X292433641Y-140041295D01*
X292346287Y-139924739D01*
X292229731Y-139837385D01*
X292093342Y-139786255D01*
X292031160Y-139779500D01*
X287362892Y-139779500D01*
X287300710Y-139786255D01*
X287164321Y-139837385D01*
X287047765Y-139924739D01*
X286960411Y-140041295D01*
X286909281Y-140177684D01*
X286902526Y-140239866D01*
X286902526Y-144908134D01*
X246634000Y-144908134D01*
X246634000Y-139847900D01*
X246654002Y-139779779D01*
X246707658Y-139733286D01*
X246760000Y-139721900D01*
X246816214Y-139721900D01*
X246884335Y-139741902D01*
X246897878Y-139751947D01*
X246919250Y-139770136D01*
X247091894Y-139866624D01*
X247279992Y-139927740D01*
X247476377Y-139951158D01*
X247482512Y-139950686D01*
X247482514Y-139950686D01*
X247667430Y-139936457D01*
X247667434Y-139936456D01*
X247673572Y-139935984D01*
X247864063Y-139882798D01*
X247869567Y-139880018D01*
X247869569Y-139880017D01*
X248035095Y-139796404D01*
X248035097Y-139796403D01*
X248040596Y-139793625D01*
X248196447Y-139671861D01*
X248325678Y-139522145D01*
X248423369Y-139350179D01*
X248469072Y-139212791D01*
X271487909Y-139212791D01*
X271489639Y-139311891D01*
X271494068Y-139565631D01*
X271495372Y-139640365D01*
X271495680Y-139643198D01*
X271495680Y-139643202D01*
X271521407Y-139880017D01*
X271541557Y-140065503D01*
X271626083Y-140484706D01*
X271748255Y-140894522D01*
X271907066Y-141291580D01*
X272101210Y-141672609D01*
X272329089Y-142034475D01*
X272588827Y-142374198D01*
X272878286Y-142688982D01*
X273195084Y-142976237D01*
X273536612Y-143233596D01*
X273539030Y-143235095D01*
X273539034Y-143235098D01*
X273897639Y-143457444D01*
X273897647Y-143457448D01*
X273900059Y-143458944D01*
X274282435Y-143650423D01*
X274285089Y-143651463D01*
X274285091Y-143651464D01*
X274540666Y-143751623D01*
X274680591Y-143806459D01*
X274683318Y-143807251D01*
X274683329Y-143807255D01*
X275088507Y-143924969D01*
X275088511Y-143924970D01*
X275091251Y-143925766D01*
X275511033Y-144007364D01*
X275715219Y-144028104D01*
X275934196Y-144050347D01*
X275934207Y-144050348D01*
X275936484Y-144050579D01*
X276019571Y-144052900D01*
X276310347Y-144052900D01*
X276311747Y-144052836D01*
X276311766Y-144052836D01*
X276463218Y-144045958D01*
X276626799Y-144038530D01*
X276629619Y-144038144D01*
X276629627Y-144038143D01*
X276883804Y-144003325D01*
X277050482Y-143980493D01*
X277053251Y-143979854D01*
X277053255Y-143979853D01*
X277464372Y-143884939D01*
X277464374Y-143884938D01*
X277467161Y-143884295D01*
X277469885Y-143883399D01*
X277469890Y-143883398D01*
X277870685Y-143751623D01*
X277870686Y-143751623D01*
X277873407Y-143750728D01*
X277876021Y-143749597D01*
X277876031Y-143749593D01*
X278069641Y-143665810D01*
X278265875Y-143580892D01*
X278492294Y-143457444D01*
X278638823Y-143377554D01*
X278638830Y-143377550D01*
X278641335Y-143376184D01*
X278856891Y-143231882D01*
X278994320Y-143139882D01*
X278994331Y-143139874D01*
X278996697Y-143138290D01*
X279329035Y-142869168D01*
X279512346Y-142690907D01*
X279633569Y-142573023D01*
X279633573Y-142573019D01*
X279635615Y-142571033D01*
X279637465Y-142568875D01*
X279637474Y-142568865D01*
X279912049Y-142248512D01*
X279912053Y-142248507D01*
X279913912Y-142246338D01*
X280161635Y-141897757D01*
X280376746Y-141528159D01*
X280377955Y-141525567D01*
X280556265Y-141143182D01*
X280556269Y-141143172D01*
X280557475Y-141140586D01*
X280558446Y-141137889D01*
X280701364Y-140740918D01*
X280701367Y-140740909D01*
X280702332Y-140738228D01*
X280810127Y-140324398D01*
X280879972Y-139902501D01*
X280889005Y-139779500D01*
X280911082Y-139478855D01*
X280911291Y-139476009D01*
X280905921Y-139168365D01*
X280903878Y-139051286D01*
X280903878Y-139051281D01*
X280903828Y-139048435D01*
X280895286Y-138969799D01*
X280857953Y-138626151D01*
X280857643Y-138623297D01*
X280773117Y-138204094D01*
X280772064Y-138200560D01*
X280651762Y-137797019D01*
X280650945Y-137794278D01*
X280492134Y-137397220D01*
X280309891Y-137039548D01*
X280299286Y-137018734D01*
X280299283Y-137018729D01*
X280297990Y-137016191D01*
X280070111Y-136654325D01*
X279810373Y-136314602D01*
X279520914Y-135999818D01*
X279204116Y-135712563D01*
X278862588Y-135455204D01*
X278635188Y-135314209D01*
X278501561Y-135231356D01*
X278501553Y-135231352D01*
X278499141Y-135229856D01*
X278116765Y-135038377D01*
X277860818Y-134938072D01*
X277721263Y-134883381D01*
X277721261Y-134883380D01*
X277718609Y-134882341D01*
X277715882Y-134881549D01*
X277715871Y-134881545D01*
X277310693Y-134763831D01*
X277310689Y-134763830D01*
X277307949Y-134763034D01*
X276888167Y-134681436D01*
X276683981Y-134660696D01*
X276465004Y-134638453D01*
X276464993Y-134638452D01*
X276462716Y-134638221D01*
X276379629Y-134635900D01*
X276088853Y-134635900D01*
X276087453Y-134635964D01*
X276087434Y-134635964D01*
X275935982Y-134642842D01*
X275772401Y-134650270D01*
X275769581Y-134650656D01*
X275769573Y-134650657D01*
X275515396Y-134685475D01*
X275348718Y-134708307D01*
X275345949Y-134708946D01*
X275345945Y-134708947D01*
X275114030Y-134762489D01*
X274932039Y-134804505D01*
X274929315Y-134805401D01*
X274929310Y-134805402D01*
X274692136Y-134883381D01*
X274525793Y-134938072D01*
X274523179Y-134939203D01*
X274523169Y-134939207D01*
X274329559Y-135022990D01*
X274133325Y-135107908D01*
X273927172Y-135220307D01*
X273760377Y-135311246D01*
X273760370Y-135311250D01*
X273757865Y-135312616D01*
X273632424Y-135396591D01*
X273404880Y-135548918D01*
X273404869Y-135548926D01*
X273402503Y-135550510D01*
X273070165Y-135819632D01*
X273068116Y-135821625D01*
X273068111Y-135821629D01*
X272884875Y-135999818D01*
X272763585Y-136117767D01*
X272761735Y-136119925D01*
X272761726Y-136119935D01*
X272596689Y-136312488D01*
X272485288Y-136442462D01*
X272483631Y-136444793D01*
X272483626Y-136444800D01*
X272431606Y-136518000D01*
X272237565Y-136791043D01*
X272022454Y-137160641D01*
X272021248Y-137163227D01*
X272021245Y-137163233D01*
X271842935Y-137545618D01*
X271842931Y-137545628D01*
X271841725Y-137548214D01*
X271840754Y-137550911D01*
X271698104Y-137947140D01*
X271696868Y-137950572D01*
X271589073Y-138364402D01*
X271519228Y-138786299D01*
X271487909Y-139212791D01*
X248469072Y-139212791D01*
X248485797Y-139162513D01*
X248510585Y-138966295D01*
X248510980Y-138938000D01*
X248491680Y-138741167D01*
X248434516Y-138551831D01*
X248341666Y-138377204D01*
X248271309Y-138290938D01*
X248220560Y-138228713D01*
X248220557Y-138228710D01*
X248216665Y-138223938D01*
X248173075Y-138187877D01*
X248069025Y-138101799D01*
X248069021Y-138101797D01*
X248064275Y-138097870D01*
X247890301Y-138003802D01*
X247701368Y-137945318D01*
X247695243Y-137944674D01*
X247695242Y-137944674D01*
X247510804Y-137925289D01*
X247510802Y-137925289D01*
X247504675Y-137924645D01*
X247422176Y-137932153D01*
X247313851Y-137942011D01*
X247313848Y-137942012D01*
X247307712Y-137942570D01*
X247301806Y-137944308D01*
X247301802Y-137944309D01*
X247196676Y-137975249D01*
X247117981Y-137998410D01*
X247112523Y-138001263D01*
X247112519Y-138001265D01*
X247016735Y-138051340D01*
X246942710Y-138090040D01*
X246937912Y-138093898D01*
X246937904Y-138093903D01*
X246838952Y-138173463D01*
X246773330Y-138200560D01*
X246703475Y-138187877D01*
X246651567Y-138139441D01*
X246634000Y-138075267D01*
X246634000Y-129156669D01*
X286903027Y-129156669D01*
X286903397Y-129163490D01*
X286908921Y-129214352D01*
X286912547Y-129229604D01*
X286957702Y-129350054D01*
X286966240Y-129365649D01*
X287042741Y-129467724D01*
X287055302Y-129480285D01*
X287157377Y-129556786D01*
X287172972Y-129565324D01*
X287293420Y-129610478D01*
X287308675Y-129614105D01*
X287359540Y-129619631D01*
X287366354Y-129620000D01*
X289424911Y-129620000D01*
X289440150Y-129615525D01*
X289441355Y-129614135D01*
X289443026Y-129606452D01*
X289443026Y-129601884D01*
X289951026Y-129601884D01*
X289955501Y-129617123D01*
X289956891Y-129618328D01*
X289964574Y-129619999D01*
X292027695Y-129619999D01*
X292034516Y-129619629D01*
X292085378Y-129614105D01*
X292100630Y-129610479D01*
X292221080Y-129565324D01*
X292236675Y-129556786D01*
X292338750Y-129480285D01*
X292351311Y-129467724D01*
X292427812Y-129365649D01*
X292436350Y-129350054D01*
X292481504Y-129229606D01*
X292485131Y-129214351D01*
X292490657Y-129163486D01*
X292491026Y-129156672D01*
X292491026Y-127098115D01*
X292486551Y-127082876D01*
X292485161Y-127081671D01*
X292477478Y-127080000D01*
X289969141Y-127080000D01*
X289953902Y-127084475D01*
X289952697Y-127085865D01*
X289951026Y-127093548D01*
X289951026Y-129601884D01*
X289443026Y-129601884D01*
X289443026Y-127098115D01*
X289438551Y-127082876D01*
X289437161Y-127081671D01*
X289429478Y-127080000D01*
X286921142Y-127080000D01*
X286905903Y-127084475D01*
X286904698Y-127085865D01*
X286903027Y-127093548D01*
X286903027Y-129156669D01*
X246634000Y-129156669D01*
X246634000Y-126553885D01*
X286903026Y-126553885D01*
X286907501Y-126569124D01*
X286908891Y-126570329D01*
X286916574Y-126572000D01*
X289424911Y-126572000D01*
X289440150Y-126567525D01*
X289441355Y-126566135D01*
X289443026Y-126558452D01*
X289443026Y-126553885D01*
X289951026Y-126553885D01*
X289955501Y-126569124D01*
X289956891Y-126570329D01*
X289964574Y-126572000D01*
X292472910Y-126572000D01*
X292488149Y-126567525D01*
X292489354Y-126566135D01*
X292491025Y-126558452D01*
X292491025Y-124495331D01*
X292490655Y-124488510D01*
X292485131Y-124437648D01*
X292481505Y-124422396D01*
X292436350Y-124301946D01*
X292427812Y-124286351D01*
X292351311Y-124184276D01*
X292338750Y-124171715D01*
X292236675Y-124095214D01*
X292221080Y-124086676D01*
X292100632Y-124041522D01*
X292085377Y-124037895D01*
X292034512Y-124032369D01*
X292027698Y-124032000D01*
X289969141Y-124032000D01*
X289953902Y-124036475D01*
X289952697Y-124037865D01*
X289951026Y-124045548D01*
X289951026Y-126553885D01*
X289443026Y-126553885D01*
X289443026Y-124050116D01*
X289438551Y-124034877D01*
X289437161Y-124033672D01*
X289429478Y-124032001D01*
X287366357Y-124032001D01*
X287359536Y-124032371D01*
X287308674Y-124037895D01*
X287293422Y-124041521D01*
X287172972Y-124086676D01*
X287157377Y-124095214D01*
X287055302Y-124171715D01*
X287042741Y-124184276D01*
X286966240Y-124286351D01*
X286957702Y-124301946D01*
X286912548Y-124422394D01*
X286908921Y-124437649D01*
X286903395Y-124488514D01*
X286903026Y-124495328D01*
X286903026Y-126553885D01*
X246634000Y-126553885D01*
X246634000Y-105791000D01*
X240538000Y-99695000D01*
X253746000Y-99695000D01*
X253753224Y-99701487D01*
X259927184Y-105245451D01*
X259964505Y-105305847D01*
X259969000Y-105339201D01*
X259969000Y-123063000D01*
X274828000Y-123063000D01*
X274828000Y-117476134D01*
X286902526Y-117476134D01*
X286909281Y-117538316D01*
X286960411Y-117674705D01*
X287047765Y-117791261D01*
X287164321Y-117878615D01*
X287300710Y-117929745D01*
X287362892Y-117936500D01*
X292031160Y-117936500D01*
X292093342Y-117929745D01*
X292229731Y-117878615D01*
X292346287Y-117791261D01*
X292433641Y-117674705D01*
X292484771Y-117538316D01*
X292491526Y-117476134D01*
X292491526Y-112807866D01*
X292484771Y-112745684D01*
X292433641Y-112609295D01*
X292346287Y-112492739D01*
X292229731Y-112405385D01*
X292093342Y-112354255D01*
X292031160Y-112347500D01*
X287362892Y-112347500D01*
X287300710Y-112354255D01*
X287164321Y-112405385D01*
X287047765Y-112492739D01*
X286960411Y-112609295D01*
X286909281Y-112745684D01*
X286902526Y-112807866D01*
X286902526Y-117476134D01*
X274828000Y-117476134D01*
X274828000Y-117391129D01*
X274848002Y-117323008D01*
X274858613Y-117308806D01*
X274868678Y-117297145D01*
X274966369Y-117125179D01*
X275028797Y-116937513D01*
X275053585Y-116741295D01*
X275053980Y-116713000D01*
X275034680Y-116516167D01*
X274977516Y-116326831D01*
X274884666Y-116152204D01*
X274856357Y-116117494D01*
X274828803Y-116052062D01*
X274828000Y-116037858D01*
X274828000Y-105537000D01*
X271019134Y-101728134D01*
X286902526Y-101728134D01*
X286909281Y-101790316D01*
X286960411Y-101926705D01*
X287047765Y-102043261D01*
X287164321Y-102130615D01*
X287300710Y-102181745D01*
X287362892Y-102188500D01*
X292031160Y-102188500D01*
X292093342Y-102181745D01*
X292229731Y-102130615D01*
X292346287Y-102043261D01*
X292433641Y-101926705D01*
X292484771Y-101790316D01*
X292491526Y-101728134D01*
X292491526Y-97059866D01*
X292484771Y-96997684D01*
X292433641Y-96861295D01*
X292346287Y-96744739D01*
X292229731Y-96657385D01*
X292093342Y-96606255D01*
X292031160Y-96599500D01*
X287362892Y-96599500D01*
X287300710Y-96606255D01*
X287164321Y-96657385D01*
X287047765Y-96744739D01*
X286960411Y-96861295D01*
X286909281Y-96997684D01*
X286902526Y-97059866D01*
X286902526Y-101728134D01*
X271019134Y-101728134D01*
X267485134Y-98194134D01*
X270148526Y-98194134D01*
X270155281Y-98256316D01*
X270206411Y-98392705D01*
X270293765Y-98509261D01*
X270410321Y-98596615D01*
X270546710Y-98647745D01*
X270608892Y-98654500D01*
X275277160Y-98654500D01*
X275339342Y-98647745D01*
X275475731Y-98596615D01*
X275592287Y-98509261D01*
X275679641Y-98392705D01*
X275730771Y-98256316D01*
X275737526Y-98194134D01*
X275737526Y-93525866D01*
X275730771Y-93463684D01*
X275679641Y-93327295D01*
X275592287Y-93210739D01*
X275475731Y-93123385D01*
X275339342Y-93072255D01*
X275277160Y-93065500D01*
X270608892Y-93065500D01*
X270546710Y-93072255D01*
X270410321Y-93123385D01*
X270293765Y-93210739D01*
X270206411Y-93327295D01*
X270155281Y-93463684D01*
X270148526Y-93525866D01*
X270148526Y-98194134D01*
X267485134Y-98194134D01*
X261620000Y-92329000D01*
X253746000Y-92329000D01*
X253746000Y-99695000D01*
X240538000Y-99695000D01*
X239137134Y-98294134D01*
X242436526Y-98294134D01*
X242443281Y-98356316D01*
X242494411Y-98492705D01*
X242581765Y-98609261D01*
X242698321Y-98696615D01*
X242834710Y-98747745D01*
X242896892Y-98754500D01*
X247565160Y-98754500D01*
X247627342Y-98747745D01*
X247763731Y-98696615D01*
X247880287Y-98609261D01*
X247967641Y-98492705D01*
X248018771Y-98356316D01*
X248025526Y-98294134D01*
X248025526Y-93625866D01*
X248018771Y-93563684D01*
X247967641Y-93427295D01*
X247880287Y-93310739D01*
X247763731Y-93223385D01*
X247627342Y-93172255D01*
X247565160Y-93165500D01*
X242896892Y-93165500D01*
X242834710Y-93172255D01*
X242698321Y-93223385D01*
X242581765Y-93310739D01*
X242494411Y-93427295D01*
X242443281Y-93563684D01*
X242436526Y-93625866D01*
X242436526Y-98294134D01*
X239137134Y-98294134D01*
X233426000Y-92583000D01*
X225552000Y-92583000D01*
X225552000Y-99949000D01*
X225559224Y-99955487D01*
X231733184Y-105499451D01*
X231770505Y-105559847D01*
X231775000Y-105593201D01*
X231775000Y-145453682D01*
X231754998Y-145521803D01*
X231701342Y-145568296D01*
X231648940Y-145579682D01*
X152830740Y-145542060D01*
X152762629Y-145522025D01*
X152716161Y-145468348D01*
X152704800Y-145416060D01*
X152704800Y-139106134D01*
X165400526Y-139106134D01*
X165407281Y-139168316D01*
X165458411Y-139304705D01*
X165545765Y-139421261D01*
X165662321Y-139508615D01*
X165798710Y-139559745D01*
X165860892Y-139566500D01*
X170529160Y-139566500D01*
X170591342Y-139559745D01*
X170727731Y-139508615D01*
X170844287Y-139421261D01*
X170931641Y-139304705D01*
X170982771Y-139168316D01*
X170989526Y-139106134D01*
X170989526Y-139102669D01*
X181149027Y-139102669D01*
X181149397Y-139109490D01*
X181154921Y-139160352D01*
X181158547Y-139175604D01*
X181203702Y-139296054D01*
X181212240Y-139311649D01*
X181288741Y-139413724D01*
X181301302Y-139426285D01*
X181403377Y-139502786D01*
X181418972Y-139511324D01*
X181539420Y-139556478D01*
X181554675Y-139560105D01*
X181605540Y-139565631D01*
X181612354Y-139566000D01*
X183670911Y-139566000D01*
X183686150Y-139561525D01*
X183687355Y-139560135D01*
X183689026Y-139552452D01*
X183689026Y-139547884D01*
X184197026Y-139547884D01*
X184201501Y-139563123D01*
X184202891Y-139564328D01*
X184210574Y-139565999D01*
X186273695Y-139565999D01*
X186280516Y-139565629D01*
X186331378Y-139560105D01*
X186346630Y-139556479D01*
X186467080Y-139511324D01*
X186482675Y-139502786D01*
X186584750Y-139426285D01*
X186597311Y-139413724D01*
X186673812Y-139311649D01*
X186682350Y-139296054D01*
X186727504Y-139175606D01*
X186731131Y-139160351D01*
X186736657Y-139109486D01*
X186736839Y-139106134D01*
X196388526Y-139106134D01*
X196395281Y-139168316D01*
X196446411Y-139304705D01*
X196533765Y-139421261D01*
X196650321Y-139508615D01*
X196786710Y-139559745D01*
X196848892Y-139566500D01*
X201517160Y-139566500D01*
X201579342Y-139559745D01*
X201715731Y-139508615D01*
X201832287Y-139421261D01*
X201919641Y-139304705D01*
X201970771Y-139168316D01*
X201977526Y-139106134D01*
X212136526Y-139106134D01*
X212143281Y-139168316D01*
X212194411Y-139304705D01*
X212281765Y-139421261D01*
X212398321Y-139508615D01*
X212534710Y-139559745D01*
X212596892Y-139566500D01*
X217265160Y-139566500D01*
X217327342Y-139559745D01*
X217463731Y-139508615D01*
X217580287Y-139421261D01*
X217667641Y-139304705D01*
X217718771Y-139168316D01*
X217725526Y-139106134D01*
X217725526Y-134437866D01*
X217718771Y-134375684D01*
X217667641Y-134239295D01*
X217580287Y-134122739D01*
X217463731Y-134035385D01*
X217327342Y-133984255D01*
X217265160Y-133977500D01*
X212596892Y-133977500D01*
X212534710Y-133984255D01*
X212398321Y-134035385D01*
X212281765Y-134122739D01*
X212194411Y-134239295D01*
X212143281Y-134375684D01*
X212136526Y-134437866D01*
X212136526Y-139106134D01*
X201977526Y-139106134D01*
X201977526Y-134437866D01*
X201970771Y-134375684D01*
X201919641Y-134239295D01*
X201832287Y-134122739D01*
X201715731Y-134035385D01*
X201579342Y-133984255D01*
X201517160Y-133977500D01*
X196848892Y-133977500D01*
X196786710Y-133984255D01*
X196650321Y-134035385D01*
X196533765Y-134122739D01*
X196446411Y-134239295D01*
X196395281Y-134375684D01*
X196388526Y-134437866D01*
X196388526Y-139106134D01*
X186736839Y-139106134D01*
X186737026Y-139102672D01*
X186737026Y-137044115D01*
X186732551Y-137028876D01*
X186731161Y-137027671D01*
X186723478Y-137026000D01*
X184215141Y-137026000D01*
X184199902Y-137030475D01*
X184198697Y-137031865D01*
X184197026Y-137039548D01*
X184197026Y-139547884D01*
X183689026Y-139547884D01*
X183689026Y-137044115D01*
X183684551Y-137028876D01*
X183683161Y-137027671D01*
X183675478Y-137026000D01*
X181167142Y-137026000D01*
X181151903Y-137030475D01*
X181150698Y-137031865D01*
X181149027Y-137039548D01*
X181149027Y-139102669D01*
X170989526Y-139102669D01*
X170989526Y-136499885D01*
X181149026Y-136499885D01*
X181153501Y-136515124D01*
X181154891Y-136516329D01*
X181162574Y-136518000D01*
X183670911Y-136518000D01*
X183686150Y-136513525D01*
X183687355Y-136512135D01*
X183689026Y-136504452D01*
X183689026Y-136499885D01*
X184197026Y-136499885D01*
X184201501Y-136515124D01*
X184202891Y-136516329D01*
X184210574Y-136518000D01*
X186718910Y-136518000D01*
X186734149Y-136513525D01*
X186735354Y-136512135D01*
X186737025Y-136504452D01*
X186737025Y-134441331D01*
X186736655Y-134434510D01*
X186731131Y-134383648D01*
X186727505Y-134368396D01*
X186682350Y-134247946D01*
X186673812Y-134232351D01*
X186597311Y-134130276D01*
X186584750Y-134117715D01*
X186482675Y-134041214D01*
X186467080Y-134032676D01*
X186346632Y-133987522D01*
X186331377Y-133983895D01*
X186280512Y-133978369D01*
X186273698Y-133978000D01*
X184215141Y-133978000D01*
X184199902Y-133982475D01*
X184198697Y-133983865D01*
X184197026Y-133991548D01*
X184197026Y-136499885D01*
X183689026Y-136499885D01*
X183689026Y-133996116D01*
X183684551Y-133980877D01*
X183683161Y-133979672D01*
X183675478Y-133978001D01*
X181612357Y-133978001D01*
X181605536Y-133978371D01*
X181554674Y-133983895D01*
X181539422Y-133987521D01*
X181418972Y-134032676D01*
X181403377Y-134041214D01*
X181301302Y-134117715D01*
X181288741Y-134130276D01*
X181212240Y-134232351D01*
X181203702Y-134247946D01*
X181158548Y-134368394D01*
X181154921Y-134383649D01*
X181149395Y-134434514D01*
X181149026Y-134441328D01*
X181149026Y-136499885D01*
X170989526Y-136499885D01*
X170989526Y-134437866D01*
X170982771Y-134375684D01*
X170931641Y-134239295D01*
X170844287Y-134122739D01*
X170727731Y-134035385D01*
X170591342Y-133984255D01*
X170529160Y-133977500D01*
X165860892Y-133977500D01*
X165798710Y-133984255D01*
X165662321Y-134035385D01*
X165545765Y-134122739D01*
X165458411Y-134239295D01*
X165407281Y-134375684D01*
X165400526Y-134437866D01*
X165400526Y-139106134D01*
X152704800Y-139106134D01*
X152704800Y-131279134D01*
X207756900Y-131279134D01*
X207763655Y-131341316D01*
X207814785Y-131477705D01*
X207902139Y-131594261D01*
X208018695Y-131681615D01*
X208155084Y-131732745D01*
X208217266Y-131739500D01*
X209663534Y-131739500D01*
X209725716Y-131732745D01*
X209862105Y-131681615D01*
X209978661Y-131594261D01*
X210035915Y-131517867D01*
X210092773Y-131475353D01*
X210163591Y-131470327D01*
X210206742Y-131488668D01*
X210368699Y-131596884D01*
X210378809Y-131602374D01*
X210567966Y-131683642D01*
X210578899Y-131687194D01*
X210668732Y-131707521D01*
X210682805Y-131706632D01*
X210686400Y-131697233D01*
X210686400Y-131696512D01*
X211194400Y-131696512D01*
X211198366Y-131710018D01*
X211212283Y-131712011D01*
X211223217Y-131709386D01*
X211418163Y-131643210D01*
X211428672Y-131638531D01*
X211608282Y-131537944D01*
X211617775Y-131531420D01*
X211776053Y-131399782D01*
X211784182Y-131391653D01*
X211915820Y-131233375D01*
X211922344Y-131223882D01*
X212022931Y-131044272D01*
X212027610Y-131033763D01*
X212093786Y-130838817D01*
X212096417Y-130827857D01*
X212094440Y-130813992D01*
X212080874Y-130810000D01*
X211212515Y-130810000D01*
X211197276Y-130814475D01*
X211196071Y-130815865D01*
X211194400Y-130823548D01*
X211194400Y-131696512D01*
X210686400Y-131696512D01*
X210686400Y-130283885D01*
X211194400Y-130283885D01*
X211198875Y-130299124D01*
X211200265Y-130300329D01*
X211207948Y-130302000D01*
X212079885Y-130302000D01*
X212093416Y-130298027D01*
X212094585Y-130289892D01*
X212051125Y-130135794D01*
X212047003Y-130125055D01*
X211955949Y-129940417D01*
X211949938Y-129930608D01*
X211826760Y-129765651D01*
X211819071Y-129757111D01*
X211667890Y-129617361D01*
X211658765Y-129610360D01*
X211484655Y-129500505D01*
X211474408Y-129495284D01*
X211283193Y-129418997D01*
X211272167Y-129415730D01*
X211212170Y-129403797D01*
X211199294Y-129404949D01*
X211194400Y-129420102D01*
X211194400Y-130283885D01*
X210686400Y-130283885D01*
X210686400Y-129417337D01*
X210682594Y-129404375D01*
X210667678Y-129402439D01*
X210638602Y-129407435D01*
X210627482Y-129410415D01*
X210434340Y-129481669D01*
X210423962Y-129486619D01*
X210247039Y-129591877D01*
X210237721Y-129598647D01*
X210220293Y-129613931D01*
X210155889Y-129643809D01*
X210085556Y-129634123D01*
X210036389Y-129594765D01*
X209984043Y-129524920D01*
X209984042Y-129524919D01*
X209978661Y-129517739D01*
X209862105Y-129430385D01*
X209725716Y-129379255D01*
X209663534Y-129372500D01*
X208217266Y-129372500D01*
X208155084Y-129379255D01*
X208018695Y-129430385D01*
X207902139Y-129517739D01*
X207814785Y-129634295D01*
X207763655Y-129770684D01*
X207756900Y-129832866D01*
X207756900Y-131279134D01*
X152704800Y-131279134D01*
X152704800Y-99695000D01*
X169418000Y-99695000D01*
X169425224Y-99701487D01*
X175599184Y-105245451D01*
X175636505Y-105305847D01*
X175641000Y-105339201D01*
X175641000Y-116895300D01*
X175620998Y-116963421D01*
X175567342Y-117009914D01*
X175515000Y-117021300D01*
X173755608Y-117021300D01*
X173687487Y-117001298D01*
X173675293Y-116992385D01*
X173647023Y-116968998D01*
X173647024Y-116968998D01*
X173642275Y-116965070D01*
X173468301Y-116871002D01*
X173279368Y-116812518D01*
X173273243Y-116811874D01*
X173273242Y-116811874D01*
X173088804Y-116792489D01*
X173088802Y-116792489D01*
X173082675Y-116791845D01*
X173000176Y-116799353D01*
X172891851Y-116809211D01*
X172891848Y-116809212D01*
X172885712Y-116809770D01*
X172879806Y-116811508D01*
X172879802Y-116811509D01*
X172774676Y-116842449D01*
X172695981Y-116865610D01*
X172690523Y-116868463D01*
X172690519Y-116868465D01*
X172613546Y-116908706D01*
X172520710Y-116957240D01*
X172366575Y-117081168D01*
X172239446Y-117232674D01*
X172236479Y-117238072D01*
X172236475Y-117238077D01*
X172197598Y-117308796D01*
X172144167Y-117405987D01*
X172142306Y-117411854D01*
X172142305Y-117411856D01*
X172099842Y-117545715D01*
X172084365Y-117594506D01*
X172062319Y-117791051D01*
X172062835Y-117797195D01*
X172074037Y-117930598D01*
X172078868Y-117988134D01*
X172133383Y-118178250D01*
X172223787Y-118354156D01*
X172346635Y-118509153D01*
X172351328Y-118513147D01*
X172351329Y-118513148D01*
X172414655Y-118567042D01*
X172497250Y-118637336D01*
X172669894Y-118733824D01*
X172857992Y-118794940D01*
X173054377Y-118818358D01*
X173060512Y-118817886D01*
X173060514Y-118817886D01*
X173245430Y-118803657D01*
X173245434Y-118803656D01*
X173251572Y-118803184D01*
X173442063Y-118749998D01*
X173447567Y-118747218D01*
X173447569Y-118747217D01*
X173613095Y-118663604D01*
X173613097Y-118663603D01*
X173618596Y-118660825D01*
X173741233Y-118565011D01*
X173807226Y-118538833D01*
X173818805Y-118538300D01*
X173861474Y-118538300D01*
X173929595Y-118558302D01*
X173976088Y-118611958D01*
X173986192Y-118682232D01*
X173981841Y-118701555D01*
X173967470Y-118747978D01*
X173967262Y-118748642D01*
X173945147Y-118818358D01*
X173938565Y-118839106D01*
X173938169Y-118842637D01*
X173937118Y-118846032D01*
X173936474Y-118852163D01*
X173927197Y-118940425D01*
X173927102Y-118941300D01*
X173917206Y-119029525D01*
X173916519Y-119035651D01*
X173916816Y-119039192D01*
X173916445Y-119042725D01*
X173925054Y-119137318D01*
X173925110Y-119137959D01*
X173933068Y-119232734D01*
X173934048Y-119236153D01*
X173934370Y-119239688D01*
X173936110Y-119245599D01*
X173961164Y-119330728D01*
X173961377Y-119331460D01*
X173987583Y-119422850D01*
X173989206Y-119426008D01*
X173990210Y-119429419D01*
X174023664Y-119493410D01*
X174034210Y-119513583D01*
X174034614Y-119514363D01*
X174075169Y-119593273D01*
X174077987Y-119598756D01*
X174080193Y-119601539D01*
X174081840Y-119604690D01*
X174141266Y-119678600D01*
X174141815Y-119679288D01*
X174184446Y-119733074D01*
X174200835Y-119753753D01*
X174203543Y-119756058D01*
X174205768Y-119758825D01*
X174214865Y-119766458D01*
X174254189Y-119825567D01*
X174255315Y-119896554D01*
X174244286Y-119923678D01*
X174176167Y-120047587D01*
X174116365Y-120236106D01*
X174094319Y-120432651D01*
X174110868Y-120629734D01*
X174165383Y-120819850D01*
X174255787Y-120995756D01*
X174378635Y-121150753D01*
X174529250Y-121278936D01*
X174549072Y-121290014D01*
X174598777Y-121340707D01*
X174613186Y-121410226D01*
X174587722Y-121476499D01*
X174566555Y-121498197D01*
X174500175Y-121551568D01*
X174373046Y-121703074D01*
X174370079Y-121708472D01*
X174370075Y-121708477D01*
X174291295Y-121851780D01*
X174277767Y-121876387D01*
X174217965Y-122064906D01*
X174195919Y-122261451D01*
X174212468Y-122458534D01*
X174266983Y-122648650D01*
X174357387Y-122824556D01*
X174480235Y-122979553D01*
X174484928Y-122983547D01*
X174484929Y-122983548D01*
X174609671Y-123089711D01*
X174630850Y-123107736D01*
X174803494Y-123204224D01*
X174991592Y-123265340D01*
X175187977Y-123288758D01*
X175194112Y-123288286D01*
X175194114Y-123288286D01*
X175379030Y-123274057D01*
X175379034Y-123274056D01*
X175385172Y-123273584D01*
X175575663Y-123220398D01*
X175581167Y-123217618D01*
X175581169Y-123217617D01*
X175746695Y-123134004D01*
X175746697Y-123134003D01*
X175752196Y-123131225D01*
X175805333Y-123089710D01*
X175871324Y-123063533D01*
X175882904Y-123063000D01*
X190500000Y-123063000D01*
X190500000Y-105537000D01*
X184658000Y-99695000D01*
X197612000Y-99695000D01*
X197619224Y-99701487D01*
X203793184Y-105245451D01*
X203830505Y-105305847D01*
X203835000Y-105339201D01*
X203835000Y-116656852D01*
X203821757Y-116708434D01*
X203823363Y-116709122D01*
X203820932Y-116714793D01*
X203817967Y-116720187D01*
X203816106Y-116726054D01*
X203816105Y-116726056D01*
X203795058Y-116792404D01*
X203758165Y-116908706D01*
X203736119Y-117105251D01*
X203736635Y-117111395D01*
X203746819Y-117232674D01*
X203752668Y-117302334D01*
X203807183Y-117492450D01*
X203821067Y-117519465D01*
X203835000Y-117577057D01*
X203835000Y-123063000D01*
X218694000Y-123063000D01*
X218694000Y-105537000D01*
X211351134Y-98194134D01*
X214607192Y-98194134D01*
X214613947Y-98256316D01*
X214665077Y-98392705D01*
X214752431Y-98509261D01*
X214868987Y-98596615D01*
X215005376Y-98647745D01*
X215067558Y-98654500D01*
X219735826Y-98654500D01*
X219798008Y-98647745D01*
X219934397Y-98596615D01*
X220050953Y-98509261D01*
X220138307Y-98392705D01*
X220189437Y-98256316D01*
X220196192Y-98194134D01*
X220196192Y-93525866D01*
X220189437Y-93463684D01*
X220138307Y-93327295D01*
X220050953Y-93210739D01*
X219934397Y-93123385D01*
X219798008Y-93072255D01*
X219735826Y-93065500D01*
X215067558Y-93065500D01*
X215005376Y-93072255D01*
X214868987Y-93123385D01*
X214752431Y-93210739D01*
X214665077Y-93327295D01*
X214613947Y-93463684D01*
X214607192Y-93525866D01*
X214607192Y-98194134D01*
X211351134Y-98194134D01*
X205486000Y-92329000D01*
X197612000Y-92329000D01*
X197612000Y-99695000D01*
X184658000Y-99695000D01*
X183157134Y-98194134D01*
X186836526Y-98194134D01*
X186843281Y-98256316D01*
X186894411Y-98392705D01*
X186981765Y-98509261D01*
X187098321Y-98596615D01*
X187234710Y-98647745D01*
X187296892Y-98654500D01*
X191965160Y-98654500D01*
X192027342Y-98647745D01*
X192163731Y-98596615D01*
X192280287Y-98509261D01*
X192367641Y-98392705D01*
X192418771Y-98256316D01*
X192425526Y-98194134D01*
X192425526Y-93525866D01*
X192418771Y-93463684D01*
X192367641Y-93327295D01*
X192280287Y-93210739D01*
X192163731Y-93123385D01*
X192027342Y-93072255D01*
X191965160Y-93065500D01*
X187296892Y-93065500D01*
X187234710Y-93072255D01*
X187098321Y-93123385D01*
X186981765Y-93210739D01*
X186894411Y-93327295D01*
X186843281Y-93463684D01*
X186836526Y-93525866D01*
X186836526Y-98194134D01*
X183157134Y-98194134D01*
X177292000Y-92329000D01*
X169418000Y-92329000D01*
X169418000Y-99695000D01*
X152704800Y-99695000D01*
X152704800Y-90208134D01*
X286902526Y-90208134D01*
X286909281Y-90270316D01*
X286960411Y-90406705D01*
X287047765Y-90523261D01*
X287164321Y-90610615D01*
X287300710Y-90661745D01*
X287362892Y-90668500D01*
X292031160Y-90668500D01*
X292093342Y-90661745D01*
X292229731Y-90610615D01*
X292346287Y-90523261D01*
X292433641Y-90406705D01*
X292484771Y-90270316D01*
X292491526Y-90208134D01*
X292491526Y-85539866D01*
X292484771Y-85477684D01*
X292433641Y-85341295D01*
X292346287Y-85224739D01*
X292229731Y-85137385D01*
X292093342Y-85086255D01*
X292031160Y-85079500D01*
X287362892Y-85079500D01*
X287300710Y-85086255D01*
X287164321Y-85137385D01*
X287047765Y-85224739D01*
X286960411Y-85341295D01*
X286909281Y-85477684D01*
X286902526Y-85539866D01*
X286902526Y-90208134D01*
X152704800Y-90208134D01*
X152704800Y-74456669D01*
X286903027Y-74456669D01*
X286903397Y-74463490D01*
X286908921Y-74514352D01*
X286912547Y-74529604D01*
X286957702Y-74650054D01*
X286966240Y-74665649D01*
X287042741Y-74767724D01*
X287055302Y-74780285D01*
X287157377Y-74856786D01*
X287172972Y-74865324D01*
X287293420Y-74910478D01*
X287308675Y-74914105D01*
X287359540Y-74919631D01*
X287366354Y-74920000D01*
X289424911Y-74920000D01*
X289440150Y-74915525D01*
X289441355Y-74914135D01*
X289443026Y-74906452D01*
X289443026Y-74901884D01*
X289951026Y-74901884D01*
X289955501Y-74917123D01*
X289956891Y-74918328D01*
X289964574Y-74919999D01*
X292027695Y-74919999D01*
X292034516Y-74919629D01*
X292085378Y-74914105D01*
X292100630Y-74910479D01*
X292221080Y-74865324D01*
X292236675Y-74856786D01*
X292338750Y-74780285D01*
X292351311Y-74767724D01*
X292427812Y-74665649D01*
X292436350Y-74650054D01*
X292481504Y-74529606D01*
X292485131Y-74514351D01*
X292490657Y-74463486D01*
X292491026Y-74456672D01*
X292491026Y-72398115D01*
X292486551Y-72382876D01*
X292485161Y-72381671D01*
X292477478Y-72380000D01*
X289969141Y-72380000D01*
X289953902Y-72384475D01*
X289952697Y-72385865D01*
X289951026Y-72393548D01*
X289951026Y-74901884D01*
X289443026Y-74901884D01*
X289443026Y-72398115D01*
X289438551Y-72382876D01*
X289437161Y-72381671D01*
X289429478Y-72380000D01*
X286921142Y-72380000D01*
X286905903Y-72384475D01*
X286904698Y-72385865D01*
X286903027Y-72393548D01*
X286903027Y-74456669D01*
X152704800Y-74456669D01*
X152704800Y-71853885D01*
X286903026Y-71853885D01*
X286907501Y-71869124D01*
X286908891Y-71870329D01*
X286916574Y-71872000D01*
X289424911Y-71872000D01*
X289440150Y-71867525D01*
X289441355Y-71866135D01*
X289443026Y-71858452D01*
X289443026Y-71853885D01*
X289951026Y-71853885D01*
X289955501Y-71869124D01*
X289956891Y-71870329D01*
X289964574Y-71872000D01*
X292472910Y-71872000D01*
X292488149Y-71867525D01*
X292489354Y-71866135D01*
X292491025Y-71858452D01*
X292491025Y-69795331D01*
X292490655Y-69788510D01*
X292485131Y-69737648D01*
X292481505Y-69722396D01*
X292436350Y-69601946D01*
X292427812Y-69586351D01*
X292351311Y-69484276D01*
X292338750Y-69471715D01*
X292236675Y-69395214D01*
X292221080Y-69386676D01*
X292100632Y-69341522D01*
X292085377Y-69337895D01*
X292034512Y-69332369D01*
X292027698Y-69332000D01*
X289969141Y-69332000D01*
X289953902Y-69336475D01*
X289952697Y-69337865D01*
X289951026Y-69345548D01*
X289951026Y-71853885D01*
X289443026Y-71853885D01*
X289443026Y-69350116D01*
X289438551Y-69334877D01*
X289437161Y-69333672D01*
X289429478Y-69332001D01*
X287366357Y-69332001D01*
X287359536Y-69332371D01*
X287308674Y-69337895D01*
X287293422Y-69341521D01*
X287172972Y-69386676D01*
X287157377Y-69395214D01*
X287055302Y-69471715D01*
X287042741Y-69484276D01*
X286966240Y-69586351D01*
X286957702Y-69601946D01*
X286912548Y-69722394D01*
X286908921Y-69737649D01*
X286903395Y-69788514D01*
X286903026Y-69795328D01*
X286903026Y-71853885D01*
X152704800Y-71853885D01*
X152704800Y-52474134D01*
X171088526Y-52474134D01*
X171095281Y-52536316D01*
X171146411Y-52672705D01*
X171233765Y-52789261D01*
X171350321Y-52876615D01*
X171486710Y-52927745D01*
X171548892Y-52934500D01*
X176217160Y-52934500D01*
X176279342Y-52927745D01*
X176415731Y-52876615D01*
X176532287Y-52789261D01*
X176619641Y-52672705D01*
X176670771Y-52536316D01*
X176677526Y-52474134D01*
X176677526Y-52470669D01*
X186837027Y-52470669D01*
X186837397Y-52477490D01*
X186842921Y-52528352D01*
X186846547Y-52543604D01*
X186891702Y-52664054D01*
X186900240Y-52679649D01*
X186976741Y-52781724D01*
X186989302Y-52794285D01*
X187091377Y-52870786D01*
X187106972Y-52879324D01*
X187227420Y-52924478D01*
X187242675Y-52928105D01*
X187293540Y-52933631D01*
X187300354Y-52934000D01*
X189358911Y-52934000D01*
X189374150Y-52929525D01*
X189375355Y-52928135D01*
X189377026Y-52920452D01*
X189377026Y-52915884D01*
X189885026Y-52915884D01*
X189889501Y-52931123D01*
X189890891Y-52932328D01*
X189898574Y-52933999D01*
X191961695Y-52933999D01*
X191968516Y-52933629D01*
X192019378Y-52928105D01*
X192034630Y-52924479D01*
X192155080Y-52879324D01*
X192170675Y-52870786D01*
X192272750Y-52794285D01*
X192285311Y-52781724D01*
X192361812Y-52679649D01*
X192370350Y-52664054D01*
X192415504Y-52543606D01*
X192419131Y-52528351D01*
X192424657Y-52477486D01*
X192424839Y-52474134D01*
X198859192Y-52474134D01*
X198865947Y-52536316D01*
X198917077Y-52672705D01*
X199004431Y-52789261D01*
X199120987Y-52876615D01*
X199257376Y-52927745D01*
X199319558Y-52934500D01*
X203987826Y-52934500D01*
X204050008Y-52927745D01*
X204186397Y-52876615D01*
X204302953Y-52789261D01*
X204390307Y-52672705D01*
X204441437Y-52536316D01*
X204448192Y-52474134D01*
X204448192Y-52470669D01*
X214607693Y-52470669D01*
X214608063Y-52477490D01*
X214613587Y-52528352D01*
X214617213Y-52543604D01*
X214662368Y-52664054D01*
X214670906Y-52679649D01*
X214747407Y-52781724D01*
X214759968Y-52794285D01*
X214862043Y-52870786D01*
X214877638Y-52879324D01*
X214998086Y-52924478D01*
X215013341Y-52928105D01*
X215064206Y-52933631D01*
X215071020Y-52934000D01*
X217129577Y-52934000D01*
X217144816Y-52929525D01*
X217146021Y-52928135D01*
X217147692Y-52920452D01*
X217147692Y-52915884D01*
X217655692Y-52915884D01*
X217660167Y-52931123D01*
X217661557Y-52932328D01*
X217669240Y-52933999D01*
X219732361Y-52933999D01*
X219739182Y-52933629D01*
X219790044Y-52928105D01*
X219805296Y-52924479D01*
X219925746Y-52879324D01*
X219941341Y-52870786D01*
X220043416Y-52794285D01*
X220055977Y-52781724D01*
X220132478Y-52679649D01*
X220141016Y-52664054D01*
X220174726Y-52574134D01*
X226688526Y-52574134D01*
X226695281Y-52636316D01*
X226746411Y-52772705D01*
X226833765Y-52889261D01*
X226950321Y-52976615D01*
X227086710Y-53027745D01*
X227148892Y-53034500D01*
X231817160Y-53034500D01*
X231879342Y-53027745D01*
X232015731Y-52976615D01*
X232132287Y-52889261D01*
X232219641Y-52772705D01*
X232270771Y-52636316D01*
X232277526Y-52574134D01*
X232277526Y-52570669D01*
X242437027Y-52570669D01*
X242437397Y-52577490D01*
X242442921Y-52628352D01*
X242446547Y-52643604D01*
X242491702Y-52764054D01*
X242500240Y-52779649D01*
X242576741Y-52881724D01*
X242589302Y-52894285D01*
X242691377Y-52970786D01*
X242706972Y-52979324D01*
X242827420Y-53024478D01*
X242842675Y-53028105D01*
X242893540Y-53033631D01*
X242900354Y-53034000D01*
X244958911Y-53034000D01*
X244974150Y-53029525D01*
X244975355Y-53028135D01*
X244977026Y-53020452D01*
X244977026Y-53015884D01*
X245485026Y-53015884D01*
X245489501Y-53031123D01*
X245490891Y-53032328D01*
X245498574Y-53033999D01*
X247561695Y-53033999D01*
X247568516Y-53033629D01*
X247619378Y-53028105D01*
X247634630Y-53024479D01*
X247755080Y-52979324D01*
X247770675Y-52970786D01*
X247872750Y-52894285D01*
X247885311Y-52881724D01*
X247961812Y-52779649D01*
X247970350Y-52764054D01*
X248015504Y-52643606D01*
X248019131Y-52628351D01*
X248024657Y-52577486D01*
X248025026Y-52570672D01*
X248025026Y-52474134D01*
X254400526Y-52474134D01*
X254407281Y-52536316D01*
X254458411Y-52672705D01*
X254545765Y-52789261D01*
X254662321Y-52876615D01*
X254798710Y-52927745D01*
X254860892Y-52934500D01*
X259529160Y-52934500D01*
X259591342Y-52927745D01*
X259727731Y-52876615D01*
X259844287Y-52789261D01*
X259931641Y-52672705D01*
X259982771Y-52536316D01*
X259989526Y-52474134D01*
X259989526Y-52470669D01*
X270149027Y-52470669D01*
X270149397Y-52477490D01*
X270154921Y-52528352D01*
X270158547Y-52543604D01*
X270203702Y-52664054D01*
X270212240Y-52679649D01*
X270288741Y-52781724D01*
X270301302Y-52794285D01*
X270403377Y-52870786D01*
X270418972Y-52879324D01*
X270539420Y-52924478D01*
X270554675Y-52928105D01*
X270605540Y-52933631D01*
X270612354Y-52934000D01*
X272670911Y-52934000D01*
X272686150Y-52929525D01*
X272687355Y-52928135D01*
X272689026Y-52920452D01*
X272689026Y-52915884D01*
X273197026Y-52915884D01*
X273201501Y-52931123D01*
X273202891Y-52932328D01*
X273210574Y-52933999D01*
X275273695Y-52933999D01*
X275280516Y-52933629D01*
X275331378Y-52928105D01*
X275346630Y-52924479D01*
X275467080Y-52879324D01*
X275482675Y-52870786D01*
X275584750Y-52794285D01*
X275597311Y-52781724D01*
X275673812Y-52679649D01*
X275682350Y-52664054D01*
X275727504Y-52543606D01*
X275731131Y-52528351D01*
X275736657Y-52477486D01*
X275737026Y-52470672D01*
X275737026Y-51328791D01*
X295211509Y-51328791D01*
X295218972Y-51756365D01*
X295265157Y-52181503D01*
X295349683Y-52600706D01*
X295350498Y-52603439D01*
X295350499Y-52603444D01*
X295368568Y-52664054D01*
X295471855Y-53010522D01*
X295472919Y-53013183D01*
X295472920Y-53013185D01*
X295480095Y-53031123D01*
X295630666Y-53407580D01*
X295824810Y-53788609D01*
X296052689Y-54150475D01*
X296312427Y-54490198D01*
X296601886Y-54804982D01*
X296918684Y-55092237D01*
X297260212Y-55349596D01*
X297262630Y-55351095D01*
X297262634Y-55351098D01*
X297621239Y-55573444D01*
X297621247Y-55573448D01*
X297623659Y-55574944D01*
X298006035Y-55766423D01*
X298008689Y-55767463D01*
X298008691Y-55767464D01*
X298264266Y-55867623D01*
X298404191Y-55922459D01*
X298406918Y-55923251D01*
X298406929Y-55923255D01*
X298812107Y-56040969D01*
X298812111Y-56040970D01*
X298814851Y-56041766D01*
X299234633Y-56123364D01*
X299438819Y-56144104D01*
X299657796Y-56166347D01*
X299657807Y-56166348D01*
X299660084Y-56166579D01*
X299743171Y-56168900D01*
X300033947Y-56168900D01*
X300035347Y-56168836D01*
X300035366Y-56168836D01*
X300186818Y-56161958D01*
X300350399Y-56154530D01*
X300353219Y-56154144D01*
X300353227Y-56154143D01*
X300607404Y-56119325D01*
X300774082Y-56096493D01*
X300776851Y-56095854D01*
X300776855Y-56095853D01*
X301187972Y-56000939D01*
X301187974Y-56000938D01*
X301190761Y-56000295D01*
X301193485Y-55999399D01*
X301193490Y-55999398D01*
X301594285Y-55867623D01*
X301594286Y-55867623D01*
X301597007Y-55866728D01*
X301599621Y-55865597D01*
X301599631Y-55865593D01*
X301793241Y-55781810D01*
X301989475Y-55696892D01*
X302215894Y-55573444D01*
X302362423Y-55493554D01*
X302362430Y-55493550D01*
X302364935Y-55492184D01*
X302580491Y-55347882D01*
X302717920Y-55255882D01*
X302717931Y-55255874D01*
X302720297Y-55254290D01*
X303052635Y-54985168D01*
X303235946Y-54806907D01*
X303357169Y-54689023D01*
X303357173Y-54689019D01*
X303359215Y-54687033D01*
X303361065Y-54684875D01*
X303361074Y-54684865D01*
X303635649Y-54364512D01*
X303635653Y-54364507D01*
X303637512Y-54362338D01*
X303885235Y-54013757D01*
X304100346Y-53644159D01*
X304101555Y-53641567D01*
X304279865Y-53259182D01*
X304279869Y-53259172D01*
X304281075Y-53256586D01*
X304282046Y-53253889D01*
X304424964Y-52856918D01*
X304424967Y-52856909D01*
X304425932Y-52854228D01*
X304508742Y-52536316D01*
X304533006Y-52443167D01*
X304533007Y-52443161D01*
X304533727Y-52440398D01*
X304603572Y-52018501D01*
X304634891Y-51592009D01*
X304627428Y-51164435D01*
X304581243Y-50739297D01*
X304496717Y-50320094D01*
X304374545Y-49910278D01*
X304215734Y-49513220D01*
X304021590Y-49132191D01*
X303793711Y-48770325D01*
X303533973Y-48430602D01*
X303244514Y-48115818D01*
X302927716Y-47828563D01*
X302902131Y-47809283D01*
X302805403Y-47736394D01*
X302586188Y-47571204D01*
X302486209Y-47509214D01*
X302225161Y-47347356D01*
X302225153Y-47347352D01*
X302222741Y-47345856D01*
X301840365Y-47154377D01*
X301584418Y-47054072D01*
X301444863Y-46999381D01*
X301444861Y-46999380D01*
X301442209Y-46998341D01*
X301439482Y-46997549D01*
X301439471Y-46997545D01*
X301034293Y-46879831D01*
X301034289Y-46879830D01*
X301031549Y-46879034D01*
X300611767Y-46797436D01*
X300407581Y-46776696D01*
X300188604Y-46754453D01*
X300188593Y-46754452D01*
X300186316Y-46754221D01*
X300103229Y-46751900D01*
X299812453Y-46751900D01*
X299811053Y-46751964D01*
X299811034Y-46751964D01*
X299659582Y-46758842D01*
X299496001Y-46766270D01*
X299493181Y-46766656D01*
X299493173Y-46766657D01*
X299238996Y-46801475D01*
X299072318Y-46824307D01*
X299069549Y-46824946D01*
X299069545Y-46824947D01*
X298837630Y-46878489D01*
X298655639Y-46920505D01*
X298652915Y-46921401D01*
X298652910Y-46921402D01*
X298415736Y-46999381D01*
X298249393Y-47054072D01*
X298246779Y-47055203D01*
X298246769Y-47055207D01*
X298053159Y-47138990D01*
X297856925Y-47223908D01*
X297650772Y-47336307D01*
X297483977Y-47427246D01*
X297483970Y-47427250D01*
X297481465Y-47428616D01*
X297388667Y-47490739D01*
X297128480Y-47664918D01*
X297128469Y-47664926D01*
X297126103Y-47666510D01*
X296793765Y-47935632D01*
X296791716Y-47937625D01*
X296791711Y-47937629D01*
X296608475Y-48115818D01*
X296487185Y-48233767D01*
X296485335Y-48235925D01*
X296485326Y-48235935D01*
X296320289Y-48428488D01*
X296208888Y-48558462D01*
X295961165Y-48907043D01*
X295746054Y-49276641D01*
X295744848Y-49279227D01*
X295744845Y-49279233D01*
X295566535Y-49661618D01*
X295566531Y-49661628D01*
X295565325Y-49664214D01*
X295564354Y-49666911D01*
X295449476Y-49986000D01*
X295420468Y-50066572D01*
X295312673Y-50480402D01*
X295242828Y-50902299D01*
X295211509Y-51328791D01*
X275737026Y-51328791D01*
X275737026Y-50412115D01*
X275732551Y-50396876D01*
X275731161Y-50395671D01*
X275723478Y-50394000D01*
X273215141Y-50394000D01*
X273199902Y-50398475D01*
X273198697Y-50399865D01*
X273197026Y-50407548D01*
X273197026Y-52915884D01*
X272689026Y-52915884D01*
X272689026Y-50412115D01*
X272684551Y-50396876D01*
X272683161Y-50395671D01*
X272675478Y-50394000D01*
X270167142Y-50394000D01*
X270151903Y-50398475D01*
X270150698Y-50399865D01*
X270149027Y-50407548D01*
X270149027Y-52470669D01*
X259989526Y-52470669D01*
X259989526Y-49867885D01*
X270149026Y-49867885D01*
X270153501Y-49883124D01*
X270154891Y-49884329D01*
X270162574Y-49886000D01*
X272670911Y-49886000D01*
X272686150Y-49881525D01*
X272687355Y-49880135D01*
X272689026Y-49872452D01*
X272689026Y-49867885D01*
X273197026Y-49867885D01*
X273201501Y-49883124D01*
X273202891Y-49884329D01*
X273210574Y-49886000D01*
X275718910Y-49886000D01*
X275734149Y-49881525D01*
X275735354Y-49880135D01*
X275737025Y-49872452D01*
X275737025Y-47809331D01*
X275736655Y-47802510D01*
X275731131Y-47751648D01*
X275727505Y-47736396D01*
X275682350Y-47615946D01*
X275673812Y-47600351D01*
X275597311Y-47498276D01*
X275584750Y-47485715D01*
X275482675Y-47409214D01*
X275467080Y-47400676D01*
X275346632Y-47355522D01*
X275331377Y-47351895D01*
X275280512Y-47346369D01*
X275273698Y-47346000D01*
X273215141Y-47346000D01*
X273199902Y-47350475D01*
X273198697Y-47351865D01*
X273197026Y-47359548D01*
X273197026Y-49867885D01*
X272689026Y-49867885D01*
X272689026Y-47364116D01*
X272684551Y-47348877D01*
X272683161Y-47347672D01*
X272675478Y-47346001D01*
X270612357Y-47346001D01*
X270605536Y-47346371D01*
X270554674Y-47351895D01*
X270539422Y-47355521D01*
X270418972Y-47400676D01*
X270403377Y-47409214D01*
X270301302Y-47485715D01*
X270288741Y-47498276D01*
X270212240Y-47600351D01*
X270203702Y-47615946D01*
X270158548Y-47736394D01*
X270154921Y-47751649D01*
X270149395Y-47802514D01*
X270149026Y-47809328D01*
X270149026Y-49867885D01*
X259989526Y-49867885D01*
X259989526Y-47805866D01*
X259982771Y-47743684D01*
X259931641Y-47607295D01*
X259844287Y-47490739D01*
X259727731Y-47403385D01*
X259591342Y-47352255D01*
X259529160Y-47345500D01*
X254860892Y-47345500D01*
X254798710Y-47352255D01*
X254662321Y-47403385D01*
X254545765Y-47490739D01*
X254458411Y-47607295D01*
X254407281Y-47743684D01*
X254400526Y-47805866D01*
X254400526Y-52474134D01*
X248025026Y-52474134D01*
X248025026Y-50512115D01*
X248020551Y-50496876D01*
X248019161Y-50495671D01*
X248011478Y-50494000D01*
X245503141Y-50494000D01*
X245487902Y-50498475D01*
X245486697Y-50499865D01*
X245485026Y-50507548D01*
X245485026Y-53015884D01*
X244977026Y-53015884D01*
X244977026Y-50512115D01*
X244972551Y-50496876D01*
X244971161Y-50495671D01*
X244963478Y-50494000D01*
X242455142Y-50494000D01*
X242439903Y-50498475D01*
X242438698Y-50499865D01*
X242437027Y-50507548D01*
X242437027Y-52570669D01*
X232277526Y-52570669D01*
X232277526Y-49967885D01*
X242437026Y-49967885D01*
X242441501Y-49983124D01*
X242442891Y-49984329D01*
X242450574Y-49986000D01*
X244958911Y-49986000D01*
X244974150Y-49981525D01*
X244975355Y-49980135D01*
X244977026Y-49972452D01*
X244977026Y-49967885D01*
X245485026Y-49967885D01*
X245489501Y-49983124D01*
X245490891Y-49984329D01*
X245498574Y-49986000D01*
X248006910Y-49986000D01*
X248022149Y-49981525D01*
X248023354Y-49980135D01*
X248025025Y-49972452D01*
X248025025Y-47909331D01*
X248024655Y-47902510D01*
X248019131Y-47851648D01*
X248015505Y-47836396D01*
X247970350Y-47715946D01*
X247961812Y-47700351D01*
X247885311Y-47598276D01*
X247872750Y-47585715D01*
X247770675Y-47509214D01*
X247755080Y-47500676D01*
X247634632Y-47455522D01*
X247619377Y-47451895D01*
X247568512Y-47446369D01*
X247561698Y-47446000D01*
X245503141Y-47446000D01*
X245487902Y-47450475D01*
X245486697Y-47451865D01*
X245485026Y-47459548D01*
X245485026Y-49967885D01*
X244977026Y-49967885D01*
X244977026Y-47464116D01*
X244972551Y-47448877D01*
X244971161Y-47447672D01*
X244963478Y-47446001D01*
X242900357Y-47446001D01*
X242893536Y-47446371D01*
X242842674Y-47451895D01*
X242827422Y-47455521D01*
X242706972Y-47500676D01*
X242691377Y-47509214D01*
X242589302Y-47585715D01*
X242576741Y-47598276D01*
X242500240Y-47700351D01*
X242491702Y-47715946D01*
X242446548Y-47836394D01*
X242442921Y-47851649D01*
X242437395Y-47902514D01*
X242437026Y-47909328D01*
X242437026Y-49967885D01*
X232277526Y-49967885D01*
X232277526Y-47905866D01*
X232270771Y-47843684D01*
X232219641Y-47707295D01*
X232132287Y-47590739D01*
X232015731Y-47503385D01*
X231879342Y-47452255D01*
X231817160Y-47445500D01*
X227148892Y-47445500D01*
X227086710Y-47452255D01*
X226950321Y-47503385D01*
X226833765Y-47590739D01*
X226746411Y-47707295D01*
X226695281Y-47843684D01*
X226688526Y-47905866D01*
X226688526Y-52574134D01*
X220174726Y-52574134D01*
X220186170Y-52543606D01*
X220189797Y-52528351D01*
X220195323Y-52477486D01*
X220195692Y-52470672D01*
X220195692Y-50412115D01*
X220191217Y-50396876D01*
X220189827Y-50395671D01*
X220182144Y-50394000D01*
X217673807Y-50394000D01*
X217658568Y-50398475D01*
X217657363Y-50399865D01*
X217655692Y-50407548D01*
X217655692Y-52915884D01*
X217147692Y-52915884D01*
X217147692Y-50412115D01*
X217143217Y-50396876D01*
X217141827Y-50395671D01*
X217134144Y-50394000D01*
X214625808Y-50394000D01*
X214610569Y-50398475D01*
X214609364Y-50399865D01*
X214607693Y-50407548D01*
X214607693Y-52470669D01*
X204448192Y-52470669D01*
X204448192Y-49867885D01*
X214607692Y-49867885D01*
X214612167Y-49883124D01*
X214613557Y-49884329D01*
X214621240Y-49886000D01*
X217129577Y-49886000D01*
X217144816Y-49881525D01*
X217146021Y-49880135D01*
X217147692Y-49872452D01*
X217147692Y-49867885D01*
X217655692Y-49867885D01*
X217660167Y-49883124D01*
X217661557Y-49884329D01*
X217669240Y-49886000D01*
X220177576Y-49886000D01*
X220192815Y-49881525D01*
X220194020Y-49880135D01*
X220195691Y-49872452D01*
X220195691Y-47809331D01*
X220195321Y-47802510D01*
X220189797Y-47751648D01*
X220186171Y-47736396D01*
X220141016Y-47615946D01*
X220132478Y-47600351D01*
X220055977Y-47498276D01*
X220043416Y-47485715D01*
X219941341Y-47409214D01*
X219925746Y-47400676D01*
X219805298Y-47355522D01*
X219790043Y-47351895D01*
X219739178Y-47346369D01*
X219732364Y-47346000D01*
X217673807Y-47346000D01*
X217658568Y-47350475D01*
X217657363Y-47351865D01*
X217655692Y-47359548D01*
X217655692Y-49867885D01*
X217147692Y-49867885D01*
X217147692Y-47364116D01*
X217143217Y-47348877D01*
X217141827Y-47347672D01*
X217134144Y-47346001D01*
X215071023Y-47346001D01*
X215064202Y-47346371D01*
X215013340Y-47351895D01*
X214998088Y-47355521D01*
X214877638Y-47400676D01*
X214862043Y-47409214D01*
X214759968Y-47485715D01*
X214747407Y-47498276D01*
X214670906Y-47600351D01*
X214662368Y-47615946D01*
X214617214Y-47736394D01*
X214613587Y-47751649D01*
X214608061Y-47802514D01*
X214607692Y-47809328D01*
X214607692Y-49867885D01*
X204448192Y-49867885D01*
X204448192Y-47805866D01*
X204441437Y-47743684D01*
X204390307Y-47607295D01*
X204302953Y-47490739D01*
X204186397Y-47403385D01*
X204050008Y-47352255D01*
X203987826Y-47345500D01*
X199319558Y-47345500D01*
X199257376Y-47352255D01*
X199120987Y-47403385D01*
X199004431Y-47490739D01*
X198917077Y-47607295D01*
X198865947Y-47743684D01*
X198859192Y-47805866D01*
X198859192Y-52474134D01*
X192424839Y-52474134D01*
X192425026Y-52470672D01*
X192425026Y-50412115D01*
X192420551Y-50396876D01*
X192419161Y-50395671D01*
X192411478Y-50394000D01*
X189903141Y-50394000D01*
X189887902Y-50398475D01*
X189886697Y-50399865D01*
X189885026Y-50407548D01*
X189885026Y-52915884D01*
X189377026Y-52915884D01*
X189377026Y-50412115D01*
X189372551Y-50396876D01*
X189371161Y-50395671D01*
X189363478Y-50394000D01*
X186855142Y-50394000D01*
X186839903Y-50398475D01*
X186838698Y-50399865D01*
X186837027Y-50407548D01*
X186837027Y-52470669D01*
X176677526Y-52470669D01*
X176677526Y-49867885D01*
X186837026Y-49867885D01*
X186841501Y-49883124D01*
X186842891Y-49884329D01*
X186850574Y-49886000D01*
X189358911Y-49886000D01*
X189374150Y-49881525D01*
X189375355Y-49880135D01*
X189377026Y-49872452D01*
X189377026Y-49867885D01*
X189885026Y-49867885D01*
X189889501Y-49883124D01*
X189890891Y-49884329D01*
X189898574Y-49886000D01*
X192406910Y-49886000D01*
X192422149Y-49881525D01*
X192423354Y-49880135D01*
X192425025Y-49872452D01*
X192425025Y-47809331D01*
X192424655Y-47802510D01*
X192419131Y-47751648D01*
X192415505Y-47736396D01*
X192370350Y-47615946D01*
X192361812Y-47600351D01*
X192285311Y-47498276D01*
X192272750Y-47485715D01*
X192170675Y-47409214D01*
X192155080Y-47400676D01*
X192034632Y-47355522D01*
X192019377Y-47351895D01*
X191968512Y-47346369D01*
X191961698Y-47346000D01*
X189903141Y-47346000D01*
X189887902Y-47350475D01*
X189886697Y-47351865D01*
X189885026Y-47359548D01*
X189885026Y-49867885D01*
X189377026Y-49867885D01*
X189377026Y-47364116D01*
X189372551Y-47348877D01*
X189371161Y-47347672D01*
X189363478Y-47346001D01*
X187300357Y-47346001D01*
X187293536Y-47346371D01*
X187242674Y-47351895D01*
X187227422Y-47355521D01*
X187106972Y-47400676D01*
X187091377Y-47409214D01*
X186989302Y-47485715D01*
X186976741Y-47498276D01*
X186900240Y-47600351D01*
X186891702Y-47615946D01*
X186846548Y-47736394D01*
X186842921Y-47751649D01*
X186837395Y-47802514D01*
X186837026Y-47809328D01*
X186837026Y-49867885D01*
X176677526Y-49867885D01*
X176677526Y-47805866D01*
X176670771Y-47743684D01*
X176619641Y-47607295D01*
X176532287Y-47490739D01*
X176415731Y-47403385D01*
X176279342Y-47352255D01*
X176217160Y-47345500D01*
X171548892Y-47345500D01*
X171486710Y-47352255D01*
X171350321Y-47403385D01*
X171233765Y-47490739D01*
X171146411Y-47607295D01*
X171095281Y-47743684D01*
X171088526Y-47805866D01*
X171088526Y-52474134D01*
X152704800Y-52474134D01*
X152704800Y-46227000D01*
X152724802Y-46158879D01*
X152778458Y-46112386D01*
X152830800Y-46101000D01*
X165100000Y-46101000D01*
X165100000Y-40766000D01*
X165120002Y-40697879D01*
X165173658Y-40651386D01*
X165226000Y-40640000D01*
X309119000Y-40640000D01*
X309187121Y-40660002D01*
G37*
%TD.AperFunction*%
%TD*%
M02*
