%TF.GenerationSoftware,KiCad,Pcbnew,7.0.1*%
%TF.CreationDate,2023-06-03T21:24:41-06:00*%
%TF.ProjectId,augertapowermanagement,61756765-7274-4617-906f-7765726d616e,rev?*%
%TF.SameCoordinates,Original*%
%TF.FileFunction,Soldermask,Top*%
%TF.FilePolarity,Negative*%
%FSLAX46Y46*%
G04 Gerber Fmt 4.6, Leading zero omitted, Abs format (unit mm)*
G04 Created by KiCad (PCBNEW 7.0.1) date 2023-06-03 21:24:41*
%MOMM*%
%LPD*%
G01*
G04 APERTURE LIST*
G04 Aperture macros list*
%AMRoundRect*
0 Rectangle with rounded corners*
0 $1 Rounding radius*
0 $2 $3 $4 $5 $6 $7 $8 $9 X,Y pos of 4 corners*
0 Add a 4 corners polygon primitive as box body*
4,1,4,$2,$3,$4,$5,$6,$7,$8,$9,$2,$3,0*
0 Add four circle primitives for the rounded corners*
1,1,$1+$1,$2,$3*
1,1,$1+$1,$4,$5*
1,1,$1+$1,$6,$7*
1,1,$1+$1,$8,$9*
0 Add four rect primitives between the rounded corners*
20,1,$1+$1,$2,$3,$4,$5,0*
20,1,$1+$1,$4,$5,$6,$7,0*
20,1,$1+$1,$6,$7,$8,$9,0*
20,1,$1+$1,$8,$9,$2,$3,0*%
G04 Aperture macros list end*
%ADD10RoundRect,0.250000X0.412500X1.100000X-0.412500X1.100000X-0.412500X-1.100000X0.412500X-1.100000X0*%
%ADD11RoundRect,0.250000X0.625000X-0.400000X0.625000X0.400000X-0.625000X0.400000X-0.625000X-0.400000X0*%
%ADD12R,12.500000X3.150000*%
%ADD13R,3.150000X12.500000*%
%ADD14RoundRect,0.250000X0.400000X1.075000X-0.400000X1.075000X-0.400000X-1.075000X0.400000X-1.075000X0*%
%ADD15RoundRect,0.250000X-0.412500X-1.100000X0.412500X-1.100000X0.412500X1.100000X-0.412500X1.100000X0*%
%ADD16RoundRect,0.150000X-0.150000X0.825000X-0.150000X-0.825000X0.150000X-0.825000X0.150000X0.825000X0*%
%ADD17RoundRect,0.250000X-0.400000X-0.625000X0.400000X-0.625000X0.400000X0.625000X-0.400000X0.625000X0*%
%ADD18RoundRect,0.250000X0.412500X0.650000X-0.412500X0.650000X-0.412500X-0.650000X0.412500X-0.650000X0*%
%ADD19R,0.254000X0.914400*%
%ADD20R,2.590800X1.397000*%
%ADD21R,0.914400X0.254000*%
%ADD22R,1.397000X2.590800*%
%ADD23R,1.500000X1.500000*%
%ADD24C,1.500000*%
%ADD25C,3.000000*%
%ADD26R,2.600000X2.600000*%
%ADD27C,2.600000*%
%ADD28C,2.500000*%
%ADD29RoundRect,0.250000X0.400000X0.625000X-0.400000X0.625000X-0.400000X-0.625000X0.400000X-0.625000X0*%
%ADD30R,1.700000X1.700000*%
%ADD31O,1.700000X1.700000*%
%ADD32RoundRect,0.250000X-0.625000X0.400000X-0.625000X-0.400000X0.625000X-0.400000X0.625000X0.400000X0*%
%ADD33R,1.300000X2.000000*%
%ADD34R,2.000000X2.000000*%
%ADD35R,4.000000X4.000000*%
%ADD36C,4.000000*%
%ADD37RoundRect,0.500000X-0.500000X0.500000X-0.500000X-0.500000X0.500000X-0.500000X0.500000X0.500000X0*%
%ADD38C,2.000000*%
%ADD39R,2.000000X1.300000*%
%ADD40RoundRect,0.150000X-0.825000X-0.150000X0.825000X-0.150000X0.825000X0.150000X-0.825000X0.150000X0*%
%ADD41RoundRect,0.250000X-1.975000X1.350000X-1.975000X-1.350000X1.975000X-1.350000X1.975000X1.350000X0*%
%ADD42RoundRect,0.250000X-1.100000X0.412500X-1.100000X-0.412500X1.100000X-0.412500X1.100000X0.412500X0*%
%ADD43RoundRect,0.250000X1.350000X1.975000X-1.350000X1.975000X-1.350000X-1.975000X1.350000X-1.975000X0*%
%ADD44RoundRect,0.150000X-0.150000X0.150000X-0.150000X-0.150000X0.150000X-0.150000X0.150000X0.150000X0*%
%ADD45R,4.800000X4.500000*%
%ADD46C,0.600000*%
%ADD47RoundRect,0.250000X1.100000X-0.412500X1.100000X0.412500X-1.100000X0.412500X-1.100000X-0.412500X0*%
%ADD48RoundRect,0.250000X1.975000X-1.350000X1.975000X1.350000X-1.975000X1.350000X-1.975000X-1.350000X0*%
%ADD49RoundRect,0.250000X-0.412500X-0.650000X0.412500X-0.650000X0.412500X0.650000X-0.412500X0.650000X0*%
%ADD50RoundRect,0.250000X1.075000X-0.400000X1.075000X0.400000X-1.075000X0.400000X-1.075000X-0.400000X0*%
%ADD51R,2.200000X2.200000*%
%ADD52O,2.200000X2.200000*%
%ADD53RoundRect,0.150000X0.150000X-0.825000X0.150000X0.825000X-0.150000X0.825000X-0.150000X-0.825000X0*%
%ADD54R,1.100000X1.800000*%
%ADD55RoundRect,0.275000X-0.275000X-0.625000X0.275000X-0.625000X0.275000X0.625000X-0.275000X0.625000X0*%
%ADD56RoundRect,0.250000X0.650000X-0.412500X0.650000X0.412500X-0.650000X0.412500X-0.650000X-0.412500X0*%
%ADD57RoundRect,0.250000X-0.650000X0.412500X-0.650000X-0.412500X0.650000X-0.412500X0.650000X0.412500X0*%
%ADD58R,1.560000X1.560000*%
%ADD59C,1.560000*%
%ADD60R,1.350000X1.350000*%
%ADD61O,1.350000X1.350000*%
%ADD62R,3.000000X2.475000*%
%ADD63O,3.500000X2.200000*%
%ADD64O,2.500000X1.500000*%
%ADD65R,2.500000X1.500000*%
%ADD66RoundRect,0.150000X0.825000X0.150000X-0.825000X0.150000X-0.825000X-0.150000X0.825000X-0.150000X0*%
%ADD67O,3.500000X3.500000*%
%ADD68R,1.905000X2.000000*%
%ADD69O,1.905000X2.000000*%
%ADD70RoundRect,0.250000X-1.350000X-1.975000X1.350000X-1.975000X1.350000X1.975000X-1.350000X1.975000X0*%
%ADD71R,2.475000X3.000000*%
G04 APERTURE END LIST*
D10*
%TO.C,C17*%
X330925000Y-147200000D03*
X327800000Y-147200000D03*
%TD*%
D11*
%TO.C,R33*%
X269350000Y-205125000D03*
X269350000Y-202025000D03*
%TD*%
D12*
%TO.C,L7*%
X248670000Y-196725000D03*
X248670000Y-212075000D03*
%TD*%
D13*
%TO.C,L1*%
X202565000Y-47890000D03*
X217915000Y-47890000D03*
%TD*%
D14*
%TO.C,R47*%
X304550000Y-196050000D03*
X301450000Y-196050000D03*
%TD*%
D10*
%TO.C,C48*%
X199162500Y-57325000D03*
X196037500Y-57325000D03*
%TD*%
D15*
%TO.C,C59*%
X53597500Y-44490000D03*
X56722500Y-44490000D03*
%TD*%
D16*
%TO.C,U5*%
X333705000Y-180925000D03*
X332435000Y-180925000D03*
X331165000Y-180925000D03*
X329895000Y-180925000D03*
X329895000Y-185875000D03*
X331165000Y-185875000D03*
X332435000Y-185875000D03*
X333705000Y-185875000D03*
%TD*%
D15*
%TO.C,C36*%
X237327500Y-81810000D03*
X240452500Y-81810000D03*
%TD*%
D17*
%TO.C,R46*%
X85450000Y-146000000D03*
X88550000Y-146000000D03*
%TD*%
D18*
%TO.C,C14*%
X357125000Y-123400000D03*
X354000000Y-123400000D03*
%TD*%
D10*
%TO.C,C52*%
X284252500Y-127670000D03*
X281127500Y-127670000D03*
%TD*%
D19*
%TO.C,U20*%
X260849370Y-195372200D03*
X261349496Y-195372200D03*
X261849622Y-195372200D03*
X262349748Y-195372200D03*
X262849874Y-195372200D03*
X263350000Y-195372200D03*
X263350000Y-192375000D03*
X262849874Y-192375000D03*
X262349748Y-192375000D03*
X261849622Y-192375000D03*
X261349496Y-192375000D03*
X260849370Y-192375000D03*
D20*
X262099685Y-193873600D03*
%TD*%
D21*
%TO.C,U19*%
X337163663Y-104879685D03*
X337163663Y-105379811D03*
X337163663Y-105879937D03*
X337163663Y-106380063D03*
X337163663Y-106880189D03*
X337163663Y-107380315D03*
X340160863Y-107380315D03*
X340160863Y-106880189D03*
X340160863Y-106380063D03*
X340160863Y-105879937D03*
X340160863Y-105379811D03*
X340160863Y-104879685D03*
D22*
X338662263Y-106130000D03*
%TD*%
D23*
%TO.C,J12*%
X323635000Y-55230000D03*
D24*
X321135000Y-55230000D03*
X319135000Y-55230000D03*
X316635000Y-55230000D03*
X323635000Y-52610000D03*
X321135000Y-52610000D03*
X319135000Y-52610000D03*
X316635000Y-52610000D03*
D25*
X326705000Y-55580000D03*
X326705000Y-49900000D03*
X313565000Y-55580000D03*
X313565000Y-49900000D03*
%TD*%
D10*
%TO.C,C69*%
X286187500Y-95325000D03*
X283062500Y-95325000D03*
%TD*%
D25*
%TO.C,TP9*%
X222125000Y-48550000D03*
%TD*%
D26*
%TO.C,J1*%
X114840000Y-216935000D03*
D27*
X119920000Y-216935000D03*
X125000000Y-216935000D03*
X130080000Y-216935000D03*
X135160000Y-216935000D03*
%TD*%
D28*
%TO.C,H5*%
X356400000Y-77000000D03*
%TD*%
D10*
%TO.C,C55*%
X295087500Y-159875000D03*
X291962500Y-159875000D03*
%TD*%
D29*
%TO.C,R21*%
X357150000Y-127400000D03*
X354050000Y-127400000D03*
%TD*%
D30*
%TO.C,U2*%
X230075000Y-218625000D03*
D31*
X227535000Y-218625000D03*
X224995000Y-218625000D03*
X222455000Y-218625000D03*
X219915000Y-218625000D03*
X217375000Y-218625000D03*
X214835000Y-218625000D03*
X212295000Y-218625000D03*
%TD*%
D17*
%TO.C,R54*%
X344870000Y-99140000D03*
X347970000Y-99140000D03*
%TD*%
D32*
%TO.C,R40*%
X235230000Y-73920000D03*
X235230000Y-77020000D03*
%TD*%
D33*
%TO.C,RV6*%
X345220000Y-102270000D03*
D34*
X344070000Y-106270000D03*
D33*
X342920000Y-102270000D03*
%TD*%
D35*
%TO.C,C3*%
X176300000Y-70140000D03*
D36*
X166300000Y-70140000D03*
%TD*%
D25*
%TO.C,K1*%
X124600000Y-85740000D03*
X142400000Y-75600000D03*
X142400000Y-83200000D03*
D37*
X128400000Y-98400000D03*
D38*
X138600000Y-98400000D03*
%TD*%
D18*
%TO.C,C27*%
X351502500Y-115240000D03*
X348377500Y-115240000D03*
%TD*%
D39*
%TO.C,RV10*%
X289330000Y-92630000D03*
D34*
X293330000Y-93780000D03*
D39*
X289330000Y-94930000D03*
%TD*%
D29*
%TO.C,R57*%
X229875000Y-82000000D03*
X226775000Y-82000000D03*
%TD*%
D17*
%TO.C,R23*%
X326200000Y-151200000D03*
X329300000Y-151200000D03*
%TD*%
%TO.C,R59*%
X95300000Y-157530000D03*
X98400000Y-157530000D03*
%TD*%
D29*
%TO.C,R24*%
X337150000Y-148400000D03*
X334050000Y-148400000D03*
%TD*%
D25*
%TO.C,TP2*%
X87450000Y-137460000D03*
%TD*%
D32*
%TO.C,R43*%
X297340000Y-86060000D03*
X297340000Y-89160000D03*
%TD*%
D40*
%TO.C,U6*%
X343125000Y-162095000D03*
X343125000Y-163365000D03*
X343125000Y-164635000D03*
X343125000Y-165905000D03*
X348075000Y-165905000D03*
X348075000Y-164635000D03*
X348075000Y-163365000D03*
X348075000Y-162095000D03*
%TD*%
D28*
%TO.C,H1*%
X74400000Y-105000000D03*
%TD*%
D41*
%TO.C,R3*%
X247102500Y-60820000D03*
X247102500Y-66020000D03*
%TD*%
D10*
%TO.C,C20*%
X290082500Y-131490000D03*
X286957500Y-131490000D03*
%TD*%
D29*
%TO.C,R58*%
X285925000Y-91650000D03*
X282825000Y-91650000D03*
%TD*%
D32*
%TO.C,R27*%
X289950000Y-114780000D03*
X289950000Y-117880000D03*
%TD*%
D40*
%TO.C,U3*%
X234757500Y-62965000D03*
X234757500Y-64235000D03*
X234757500Y-65505000D03*
X234757500Y-66775000D03*
X239707500Y-66775000D03*
X239707500Y-65505000D03*
X239707500Y-64235000D03*
X239707500Y-62965000D03*
%TD*%
D17*
%TO.C,R56*%
X299675000Y-143800000D03*
X302775000Y-143800000D03*
%TD*%
D13*
%TO.C,L11*%
X101675000Y-126000000D03*
X86325000Y-126000000D03*
%TD*%
D25*
%TO.C,TP8*%
X251242500Y-70340000D03*
%TD*%
D41*
%TO.C,R9*%
X256442500Y-56590000D03*
X256442500Y-61790000D03*
%TD*%
D15*
%TO.C,C29*%
X265425000Y-198775000D03*
X268550000Y-198775000D03*
%TD*%
D42*
%TO.C,C2*%
X64440000Y-157527500D03*
X64440000Y-160652500D03*
%TD*%
D29*
%TO.C,R36*%
X312150000Y-154000000D03*
X309050000Y-154000000D03*
%TD*%
D17*
%TO.C,R14*%
X204812500Y-60620000D03*
X207912500Y-60620000D03*
%TD*%
D43*
%TO.C,R11*%
X335120000Y-61680000D03*
X329920000Y-61680000D03*
%TD*%
D11*
%TO.C,R38*%
X233580000Y-88100000D03*
X233580000Y-85000000D03*
%TD*%
D18*
%TO.C,C15*%
X357125000Y-120050000D03*
X354000000Y-120050000D03*
%TD*%
D36*
%TO.C,J4*%
X129305000Y-49192500D03*
X107845000Y-49192500D03*
D44*
X125525000Y-43342500D03*
X123575000Y-43342500D03*
X121625000Y-43342500D03*
D45*
X123575000Y-45142500D03*
D44*
X125525000Y-45342500D03*
X121625000Y-45342500D03*
X125525000Y-47342500D03*
X123575000Y-47342500D03*
X121625000Y-47342500D03*
X125525000Y-49342500D03*
X121625000Y-49342500D03*
D45*
X123575000Y-49542500D03*
D44*
X125525000Y-51342500D03*
X123575000Y-51342500D03*
X121625000Y-51342500D03*
D46*
X115525000Y-43342500D03*
X113575000Y-43342500D03*
X111625000Y-43342500D03*
D45*
X113575000Y-45142500D03*
D46*
X115525000Y-45342500D03*
X111625000Y-45342500D03*
X115525000Y-47342500D03*
X113575000Y-47342500D03*
X111625000Y-47342500D03*
X115525000Y-49342500D03*
X111625000Y-49342500D03*
D45*
X113575000Y-49542500D03*
D46*
X115525000Y-51342500D03*
X113575000Y-51342500D03*
X111625000Y-51342500D03*
%TD*%
D26*
%TO.C,J6*%
X57615000Y-216935000D03*
D27*
X62695000Y-216935000D03*
X67775000Y-216935000D03*
X72855000Y-216935000D03*
X77935000Y-216935000D03*
X83015000Y-216935000D03*
X88095000Y-216935000D03*
X93175000Y-216935000D03*
X98255000Y-216935000D03*
X103335000Y-216935000D03*
%TD*%
D47*
%TO.C,C58*%
X105830000Y-146922500D03*
X105830000Y-143797500D03*
%TD*%
D48*
%TO.C,R12*%
X312000000Y-190600000D03*
X312000000Y-185400000D03*
%TD*%
D15*
%TO.C,C68*%
X243110000Y-92860000D03*
X246235000Y-92860000D03*
%TD*%
D21*
%TO.C,U17*%
X323797200Y-154700630D03*
X323797200Y-154200504D03*
X323797200Y-153700378D03*
X323797200Y-153200252D03*
X323797200Y-152700126D03*
X323797200Y-152200000D03*
X320800000Y-152200000D03*
X320800000Y-152700126D03*
X320800000Y-153200252D03*
X320800000Y-153700378D03*
X320800000Y-154200504D03*
X320800000Y-154700630D03*
D22*
X322298600Y-153450315D03*
%TD*%
D25*
%TO.C,TP3*%
X168000000Y-152000000D03*
%TD*%
%TO.C,TP12*%
X333775000Y-78475000D03*
%TD*%
D15*
%TO.C,C5*%
X204660000Y-63600000D03*
X207785000Y-63600000D03*
%TD*%
D11*
%TO.C,R1*%
X158200000Y-144150000D03*
X158200000Y-141050000D03*
%TD*%
D13*
%TO.C,L8*%
X296725000Y-172800000D03*
X312075000Y-172800000D03*
%TD*%
D32*
%TO.C,R44*%
X100290000Y-150890000D03*
X100290000Y-153990000D03*
%TD*%
D13*
%TO.C,L3*%
X341925000Y-144800000D03*
X357275000Y-144800000D03*
%TD*%
D21*
%TO.C,U14*%
X197825300Y-63930000D03*
X197825300Y-64430126D03*
X197825300Y-64930252D03*
X197825300Y-65430378D03*
X197825300Y-65930504D03*
X197825300Y-66430630D03*
X200822500Y-66430630D03*
X200822500Y-65930504D03*
X200822500Y-65430378D03*
X200822500Y-64930252D03*
X200822500Y-64430126D03*
X200822500Y-63930000D03*
D22*
X199323900Y-65180315D03*
%TD*%
D32*
%TO.C,R28*%
X293700000Y-114640000D03*
X293700000Y-117740000D03*
%TD*%
D17*
%TO.C,R45*%
X85450000Y-142000000D03*
X88550000Y-142000000D03*
%TD*%
D33*
%TO.C,RV11*%
X95210000Y-154100000D03*
D34*
X96360000Y-150100000D03*
D33*
X97510000Y-154100000D03*
%TD*%
D21*
%TO.C,U21*%
X301298600Y-158900630D03*
X301298600Y-158400504D03*
X301298600Y-157900378D03*
X301298600Y-157400252D03*
X301298600Y-156900126D03*
X301298600Y-156400000D03*
X298301400Y-156400000D03*
X298301400Y-156900126D03*
X298301400Y-157400252D03*
X298301400Y-157900378D03*
X298301400Y-158400504D03*
X298301400Y-158900630D03*
D22*
X299800000Y-157650315D03*
%TD*%
D21*
%TO.C,U23*%
X292488600Y-102940315D03*
X292488600Y-102440189D03*
X292488600Y-101940063D03*
X292488600Y-101439937D03*
X292488600Y-100939811D03*
X292488600Y-100439685D03*
X289491400Y-100439685D03*
X289491400Y-100939811D03*
X289491400Y-101439937D03*
X289491400Y-101940063D03*
X289491400Y-102440189D03*
X289491400Y-102940315D03*
D22*
X290990000Y-101690000D03*
%TD*%
D15*
%TO.C,C56*%
X243010000Y-89435000D03*
X246135000Y-89435000D03*
%TD*%
D33*
%TO.C,RV1*%
X207502500Y-67650000D03*
D34*
X206352500Y-71650000D03*
D33*
X205202500Y-67650000D03*
%TD*%
D18*
%TO.C,C26*%
X351532500Y-111270000D03*
X348407500Y-111270000D03*
%TD*%
D42*
%TO.C,C16*%
X326800000Y-153437500D03*
X326800000Y-156562500D03*
%TD*%
D49*
%TO.C,C47*%
X85437500Y-154000000D03*
X88562500Y-154000000D03*
%TD*%
D11*
%TO.C,R26*%
X294810000Y-129180000D03*
X294810000Y-126080000D03*
%TD*%
D18*
%TO.C,C10*%
X293140000Y-76090000D03*
X290015000Y-76090000D03*
%TD*%
D50*
%TO.C,R48*%
X272675000Y-215625000D03*
X272675000Y-212525000D03*
%TD*%
D47*
%TO.C,C8*%
X275960000Y-67512500D03*
X275960000Y-64387500D03*
%TD*%
D43*
%TO.C,R4*%
X309110000Y-62670000D03*
X303910000Y-62670000D03*
%TD*%
D15*
%TO.C,C65*%
X340437500Y-77450000D03*
X343562500Y-77450000D03*
%TD*%
D13*
%TO.C,L6*%
X337325000Y-88750000D03*
X352675000Y-88750000D03*
%TD*%
D29*
%TO.C,R22*%
X357200000Y-131200000D03*
X354100000Y-131200000D03*
%TD*%
D18*
%TO.C,C7*%
X216665000Y-60770000D03*
X213540000Y-60770000D03*
%TD*%
D33*
%TO.C,RV4*%
X330550000Y-139600000D03*
D34*
X329400000Y-143600000D03*
D33*
X328250000Y-139600000D03*
%TD*%
D43*
%TO.C,R13*%
X358430000Y-52860000D03*
X353230000Y-52860000D03*
%TD*%
D51*
%TO.C,D1*%
X138480000Y-110740000D03*
D52*
X128320000Y-110740000D03*
%TD*%
D53*
%TO.C,U13*%
X354165000Y-63775000D03*
X355435000Y-63775000D03*
X356705000Y-63775000D03*
X357975000Y-63775000D03*
X357975000Y-58825000D03*
X356705000Y-58825000D03*
X355435000Y-58825000D03*
X354165000Y-58825000D03*
%TD*%
D25*
%TO.C,TP4*%
X314220000Y-70800000D03*
%TD*%
D17*
%TO.C,R2*%
X159650000Y-138000000D03*
X162750000Y-138000000D03*
%TD*%
D15*
%TO.C,C44*%
X99437500Y-138000000D03*
X102562500Y-138000000D03*
%TD*%
D10*
%TO.C,C37*%
X235362500Y-81100000D03*
X232237500Y-81100000D03*
%TD*%
D51*
%TO.C,D2*%
X182930000Y-151990000D03*
D52*
X172770000Y-151990000D03*
%TD*%
D40*
%TO.C,U12*%
X301125000Y-186495000D03*
X301125000Y-187765000D03*
X301125000Y-189035000D03*
X301125000Y-190305000D03*
X306075000Y-190305000D03*
X306075000Y-189035000D03*
X306075000Y-187765000D03*
X306075000Y-186495000D03*
%TD*%
D48*
%TO.C,R6*%
X357400000Y-167200000D03*
X357400000Y-162000000D03*
%TD*%
D32*
%TO.C,R55*%
X277150000Y-195025000D03*
X277150000Y-198125000D03*
%TD*%
D29*
%TO.C,R37*%
X312150000Y-149800000D03*
X309050000Y-149800000D03*
%TD*%
D47*
%TO.C,C24*%
X333880000Y-106292500D03*
X333880000Y-103167500D03*
%TD*%
D11*
%TO.C,R34*%
X265550000Y-205125000D03*
X265550000Y-202025000D03*
%TD*%
D28*
%TO.C,H4*%
X357800000Y-208000000D03*
%TD*%
D54*
%TO.C,Q1*%
X161660000Y-143800000D03*
D55*
X162930000Y-141730000D03*
X164200000Y-143800000D03*
%TD*%
D17*
%TO.C,R29*%
X338540000Y-110860000D03*
X341640000Y-110860000D03*
%TD*%
D56*
%TO.C,C31*%
X273350000Y-204737500D03*
X273350000Y-201612500D03*
%TD*%
D32*
%TO.C,R39*%
X239580000Y-73920000D03*
X239580000Y-77020000D03*
%TD*%
D10*
%TO.C,C64*%
X284222500Y-132420000D03*
X281097500Y-132420000D03*
%TD*%
D12*
%TO.C,L10*%
X308780000Y-101275000D03*
X308780000Y-85925000D03*
%TD*%
D11*
%TO.C,R53*%
X277380000Y-121710000D03*
X277380000Y-118610000D03*
%TD*%
D35*
%TO.C,C1*%
X91000000Y-76000000D03*
D36*
X91000000Y-86000000D03*
%TD*%
D47*
%TO.C,C54*%
X252500000Y-190437500D03*
X252500000Y-187312500D03*
%TD*%
D57*
%TO.C,C42*%
X289050000Y-86107500D03*
X289050000Y-89232500D03*
%TD*%
D49*
%TO.C,C46*%
X85437500Y-151000000D03*
X88562500Y-151000000D03*
%TD*%
D11*
%TO.C,R32*%
X266350000Y-195125000D03*
X266350000Y-192025000D03*
%TD*%
D25*
%TO.C,TP7*%
X344200000Y-180200000D03*
%TD*%
D12*
%TO.C,L5*%
X305350000Y-129395000D03*
X305350000Y-114045000D03*
%TD*%
D17*
%TO.C,R51*%
X348450000Y-119450000D03*
X351550000Y-119450000D03*
%TD*%
%TO.C,R52*%
X330675000Y-137050000D03*
X333775000Y-137050000D03*
%TD*%
D32*
%TO.C,R49*%
X210400000Y-67025000D03*
X210400000Y-70125000D03*
%TD*%
D57*
%TO.C,C43*%
X285000000Y-86040000D03*
X285000000Y-89165000D03*
%TD*%
D10*
%TO.C,C21*%
X294882500Y-120850000D03*
X291757500Y-120850000D03*
%TD*%
D47*
%TO.C,C4*%
X192742500Y-66645000D03*
X192742500Y-63520000D03*
%TD*%
D57*
%TO.C,C39*%
X232100000Y-73920000D03*
X232100000Y-77045000D03*
%TD*%
D19*
%TO.C,U18*%
X288659370Y-128247200D03*
X289159496Y-128247200D03*
X289659622Y-128247200D03*
X290159748Y-128247200D03*
X290659874Y-128247200D03*
X291160000Y-128247200D03*
X291160000Y-125250000D03*
X290659874Y-125250000D03*
X290159748Y-125250000D03*
X289659622Y-125250000D03*
X289159496Y-125250000D03*
X288659370Y-125250000D03*
D20*
X289909685Y-126748600D03*
%TD*%
D32*
%TO.C,R42*%
X293360000Y-86220000D03*
X293360000Y-89320000D03*
%TD*%
D15*
%TO.C,C61*%
X284112500Y-59550000D03*
X287237500Y-59550000D03*
%TD*%
D58*
%TO.C,U1*%
X99760000Y-166300000D03*
D59*
X97220000Y-166300000D03*
X94680000Y-166300000D03*
X92140000Y-166300000D03*
X89600000Y-166300000D03*
X87060000Y-166300000D03*
X84520000Y-166300000D03*
X81980000Y-166300000D03*
X79440000Y-166300000D03*
X76900000Y-166300000D03*
X74360000Y-166300000D03*
X71820000Y-166300000D03*
X69280000Y-166300000D03*
X66740000Y-166300000D03*
X64200000Y-166300000D03*
X61660000Y-166300000D03*
X59120000Y-166300000D03*
X56580000Y-166300000D03*
X54040000Y-166300000D03*
X99760000Y-191700000D03*
X97220000Y-191700000D03*
X94680000Y-191700000D03*
X92140000Y-191700000D03*
X89600000Y-191700000D03*
X87060000Y-191700000D03*
X84520000Y-191700000D03*
X81980000Y-191700000D03*
X79440000Y-191700000D03*
X76900000Y-191700000D03*
X74360000Y-191700000D03*
X71820000Y-191700000D03*
X69280000Y-191700000D03*
X66740000Y-191700000D03*
X64200000Y-191700000D03*
X61660000Y-191700000D03*
X59120000Y-191700000D03*
X56580000Y-191700000D03*
X54040000Y-191700000D03*
%TD*%
D33*
%TO.C,RV3*%
X345750000Y-118000000D03*
D34*
X344600000Y-122000000D03*
D33*
X343450000Y-118000000D03*
%TD*%
D57*
%TO.C,C38*%
X228480000Y-73920000D03*
X228480000Y-77045000D03*
%TD*%
D42*
%TO.C,C45*%
X92000000Y-146437500D03*
X92000000Y-149562500D03*
%TD*%
D26*
%TO.C,J3*%
X55075000Y-75370000D03*
D27*
X55075000Y-80450000D03*
X55075000Y-85530000D03*
X55075000Y-90610000D03*
X55075000Y-95690000D03*
%TD*%
D39*
%TO.C,RV5*%
X281100000Y-121820000D03*
D34*
X285100000Y-122970000D03*
D39*
X281100000Y-124120000D03*
%TD*%
D21*
%TO.C,U22*%
X237192800Y-86200000D03*
X237192800Y-86700126D03*
X237192800Y-87200252D03*
X237192800Y-87700378D03*
X237192800Y-88200504D03*
X237192800Y-88700630D03*
X240190000Y-88700630D03*
X240190000Y-88200504D03*
X240190000Y-87700378D03*
X240190000Y-87200252D03*
X240190000Y-86700126D03*
X240190000Y-86200000D03*
D22*
X238691400Y-87450315D03*
%TD*%
D29*
%TO.C,R25*%
X337150000Y-152200000D03*
X334050000Y-152200000D03*
%TD*%
D42*
%TO.C,C41*%
X297390000Y-93067500D03*
X297390000Y-96192500D03*
%TD*%
D26*
%TO.C,J5*%
X56000000Y-153640000D03*
D27*
X56000000Y-148560000D03*
X56000000Y-143480000D03*
X56000000Y-138400000D03*
X56000000Y-133320000D03*
X56000000Y-128240000D03*
X56000000Y-123160000D03*
X56000000Y-118080000D03*
X56000000Y-113000000D03*
X56000000Y-107920000D03*
%TD*%
D18*
%TO.C,C6*%
X216665000Y-63680000D03*
X213540000Y-63680000D03*
%TD*%
D10*
%TO.C,C62*%
X338137500Y-129000000D03*
X335012500Y-129000000D03*
%TD*%
D12*
%TO.C,L9*%
X256400000Y-89475000D03*
X256400000Y-74125000D03*
%TD*%
D33*
%TO.C,RV8*%
X299750000Y-146600000D03*
D34*
X298600000Y-150600000D03*
D33*
X297450000Y-146600000D03*
%TD*%
D60*
%TO.C,JP4*%
X286070000Y-103120000D03*
D61*
X284070000Y-103120000D03*
%TD*%
D57*
%TO.C,C22*%
X282070000Y-114947500D03*
X282070000Y-118072500D03*
%TD*%
D62*
%TO.C,JP1*%
X113550000Y-58942500D03*
X113550000Y-64317500D03*
%TD*%
D56*
%TO.C,C30*%
X261750000Y-205137500D03*
X261750000Y-202012500D03*
%TD*%
D26*
%TO.C,J2*%
X94900000Y-44575000D03*
D27*
X89820000Y-44575000D03*
%TD*%
D29*
%TO.C,R19*%
X293140000Y-66625000D03*
X290040000Y-66625000D03*
%TD*%
D47*
%TO.C,C66*%
X256500000Y-190612500D03*
X256500000Y-187487500D03*
%TD*%
D10*
%TO.C,C53*%
X341062500Y-99250000D03*
X337937500Y-99250000D03*
%TD*%
D53*
%TO.C,U11*%
X332845000Y-72375000D03*
X334115000Y-72375000D03*
X335385000Y-72375000D03*
X336655000Y-72375000D03*
X336655000Y-67425000D03*
X335385000Y-67425000D03*
X334115000Y-67425000D03*
X332845000Y-67425000D03*
%TD*%
D17*
%TO.C,R41*%
X291730000Y-98170000D03*
X294830000Y-98170000D03*
%TD*%
D63*
%TO.C,SW1*%
X51725000Y-54150000D03*
X51725000Y-62350000D03*
D64*
X51725000Y-60250000D03*
X51725000Y-58250000D03*
D65*
X51725000Y-56250000D03*
%TD*%
D25*
%TO.C,TP13*%
X352290000Y-47810000D03*
%TD*%
D47*
%TO.C,C33*%
X305200000Y-148962500D03*
X305200000Y-145837500D03*
%TD*%
D33*
%TO.C,RV9*%
X230330000Y-84950000D03*
D34*
X229180000Y-88950000D03*
D33*
X228030000Y-84950000D03*
%TD*%
D29*
%TO.C,R15*%
X216462500Y-69590000D03*
X213362500Y-69590000D03*
%TD*%
D10*
%TO.C,C60*%
X199237500Y-60750000D03*
X196112500Y-60750000D03*
%TD*%
D13*
%TO.C,L2*%
X276650000Y-48150000D03*
X292000000Y-48150000D03*
%TD*%
D17*
%TO.C,R50*%
X286750000Y-80550000D03*
X289850000Y-80550000D03*
%TD*%
D25*
%TO.C,K2*%
X169200000Y-127140000D03*
X187000000Y-117000000D03*
X187000000Y-124600000D03*
D37*
X173000000Y-139800000D03*
D38*
X183200000Y-139800000D03*
%TD*%
D53*
%TO.C,U4*%
X304445000Y-77275000D03*
X305715000Y-77275000D03*
X306985000Y-77275000D03*
X308255000Y-77275000D03*
X308255000Y-72325000D03*
X306985000Y-72325000D03*
X305715000Y-72325000D03*
X304445000Y-72325000D03*
%TD*%
D29*
%TO.C,R30*%
X351400000Y-102450000D03*
X348300000Y-102450000D03*
%TD*%
D10*
%TO.C,C63*%
X318687500Y-157875000D03*
X315562500Y-157875000D03*
%TD*%
D42*
%TO.C,C32*%
X305200000Y-156837500D03*
X305200000Y-159962500D03*
%TD*%
D66*
%TO.C,U9*%
X267367500Y-61295000D03*
X267367500Y-60025000D03*
X267367500Y-58755000D03*
X267367500Y-57485000D03*
X262417500Y-57485000D03*
X262417500Y-58755000D03*
X262417500Y-60025000D03*
X262417500Y-61295000D03*
%TD*%
D28*
%TO.C,H3*%
X128200000Y-182000000D03*
%TD*%
D25*
%TO.C,TP11*%
X290350000Y-207600000D03*
%TD*%
D39*
%TO.C,RV2*%
X285010000Y-77280000D03*
D34*
X281010000Y-76130000D03*
D39*
X285010000Y-74980000D03*
%TD*%
D10*
%TO.C,C49*%
X281887500Y-60975000D03*
X278762500Y-60975000D03*
%TD*%
D23*
%TO.C,J11*%
X341825000Y-55230000D03*
D24*
X339325000Y-55230000D03*
X337325000Y-55230000D03*
X334825000Y-55230000D03*
X341825000Y-52610000D03*
X339325000Y-52610000D03*
X337325000Y-52610000D03*
X334825000Y-52610000D03*
D25*
X344895000Y-55580000D03*
X344895000Y-49900000D03*
X331755000Y-55580000D03*
X331755000Y-49900000D03*
%TD*%
D10*
%TO.C,C50*%
X338237500Y-132425000D03*
X335112500Y-132425000D03*
%TD*%
D53*
%TO.C,U7*%
X224557500Y-65245000D03*
X225827500Y-65245000D03*
X227097500Y-65245000D03*
X228367500Y-65245000D03*
X228367500Y-60295000D03*
X227097500Y-60295000D03*
X225827500Y-60295000D03*
X224557500Y-60295000D03*
%TD*%
D25*
%TO.C,TP10*%
X200140000Y-110740000D03*
%TD*%
D21*
%TO.C,U15*%
X280629137Y-65209685D03*
X280629137Y-65709811D03*
X280629137Y-66209937D03*
X280629137Y-66710063D03*
X280629137Y-67210189D03*
X280629137Y-67710315D03*
X283626337Y-67710315D03*
X283626337Y-67210189D03*
X283626337Y-66710063D03*
X283626337Y-66209937D03*
X283626337Y-65709811D03*
X283626337Y-65209685D03*
D22*
X282127737Y-66460000D03*
%TD*%
D18*
%TO.C,C19*%
X337162500Y-140600000D03*
X334037500Y-140600000D03*
%TD*%
D53*
%TO.C,U8*%
X320685000Y-75625000D03*
X321955000Y-75625000D03*
X323225000Y-75625000D03*
X324495000Y-75625000D03*
X324495000Y-70675000D03*
X323225000Y-70675000D03*
X321955000Y-70675000D03*
X320685000Y-70675000D03*
%TD*%
D21*
%TO.C,U16*%
X343298600Y-130850315D03*
X343298600Y-130350189D03*
X343298600Y-129850063D03*
X343298600Y-129349937D03*
X343298600Y-128849811D03*
X343298600Y-128349685D03*
X340301400Y-128349685D03*
X340301400Y-128849811D03*
X340301400Y-129349937D03*
X340301400Y-129850063D03*
X340301400Y-130350189D03*
X340301400Y-130850315D03*
D22*
X341800000Y-129600000D03*
%TD*%
D28*
%TO.C,H6*%
X228080000Y-150000000D03*
%TD*%
D29*
%TO.C,R18*%
X293140000Y-61930000D03*
X290040000Y-61930000D03*
%TD*%
D17*
%TO.C,R17*%
X276550000Y-71140000D03*
X279650000Y-71140000D03*
%TD*%
D42*
%TO.C,C40*%
X297910000Y-100277500D03*
X297910000Y-103402500D03*
%TD*%
D40*
%TO.C,U10*%
X289925000Y-212295000D03*
X289925000Y-213565000D03*
X289925000Y-214835000D03*
X289925000Y-216105000D03*
X294875000Y-216105000D03*
X294875000Y-214835000D03*
X294875000Y-213565000D03*
X294875000Y-212295000D03*
%TD*%
D23*
%TO.C,J9*%
X312500000Y-206120000D03*
D24*
X315000000Y-206120000D03*
X317000000Y-206120000D03*
X319500000Y-206120000D03*
X312500000Y-208740000D03*
X315000000Y-208740000D03*
X317000000Y-208740000D03*
X319500000Y-208740000D03*
D25*
X309430000Y-205770000D03*
X309430000Y-211450000D03*
X322570000Y-205770000D03*
X322570000Y-211450000D03*
%TD*%
D17*
%TO.C,R20*%
X345850000Y-127200000D03*
X348950000Y-127200000D03*
%TD*%
D42*
%TO.C,C13*%
X351200000Y-129837500D03*
X351200000Y-132962500D03*
%TD*%
D25*
%TO.C,TP14*%
X306000000Y-183400000D03*
%TD*%
D17*
%TO.C,R35*%
X301050000Y-154200000D03*
X304150000Y-154200000D03*
%TD*%
D19*
%TO.C,U24*%
X101000000Y-143000000D03*
X100499874Y-143000000D03*
X99999748Y-143000000D03*
X99499622Y-143000000D03*
X98999496Y-143000000D03*
X98499370Y-143000000D03*
X98499370Y-145997200D03*
X98999496Y-145997200D03*
X99499622Y-145997200D03*
X99999748Y-145997200D03*
X100499874Y-145997200D03*
X101000000Y-145997200D03*
D20*
X99749685Y-144498600D03*
%TD*%
D25*
%TO.C,TP5*%
X350800000Y-158400000D03*
%TD*%
%TO.C,TP1*%
X90000000Y-56000000D03*
%TD*%
D47*
%TO.C,C70*%
X109690000Y-146782500D03*
X109690000Y-143657500D03*
%TD*%
D18*
%TO.C,C35*%
X312162500Y-145800000D03*
X309037500Y-145800000D03*
%TD*%
%TO.C,C11*%
X293140000Y-71345000D03*
X290015000Y-71345000D03*
%TD*%
D42*
%TO.C,C12*%
X346200000Y-131037500D03*
X346200000Y-134162500D03*
%TD*%
D10*
%TO.C,C28*%
X262512500Y-198575000D03*
X259387500Y-198575000D03*
%TD*%
D18*
%TO.C,C34*%
X312162500Y-159200000D03*
X309037500Y-159200000D03*
%TD*%
D67*
%TO.C,U25*%
X70190000Y-47200000D03*
D68*
X67650000Y-63860000D03*
D69*
X70190000Y-63860000D03*
X72730000Y-63860000D03*
%TD*%
D10*
%TO.C,C51*%
X318762500Y-154000000D03*
X315637500Y-154000000D03*
%TD*%
D23*
%TO.C,J10*%
X334950000Y-206305000D03*
D24*
X337450000Y-206305000D03*
X339450000Y-206305000D03*
X341950000Y-206305000D03*
X334950000Y-208925000D03*
X337450000Y-208925000D03*
X339450000Y-208925000D03*
X341950000Y-208925000D03*
D25*
X331880000Y-205955000D03*
X331880000Y-211635000D03*
X345020000Y-205955000D03*
X345020000Y-211635000D03*
%TD*%
D28*
%TO.C,H2*%
X180000000Y-47000000D03*
%TD*%
D70*
%TO.C,R5*%
X329600000Y-194400000D03*
X334800000Y-194400000D03*
%TD*%
D15*
%TO.C,C9*%
X283047500Y-71440000D03*
X286172500Y-71440000D03*
%TD*%
D13*
%TO.C,L4*%
X321725000Y-166600000D03*
X337075000Y-166600000D03*
%TD*%
D26*
%TO.C,J8*%
X266702500Y-45060000D03*
D27*
X261702500Y-45060000D03*
X256702500Y-45060000D03*
X251702500Y-45060000D03*
X246702500Y-45060000D03*
X241702500Y-45060000D03*
X236702500Y-45060000D03*
X231702500Y-45060000D03*
%TD*%
D25*
%TO.C,TP6*%
X299170000Y-68670000D03*
%TD*%
D48*
%TO.C,R10*%
X300400000Y-209400000D03*
X300400000Y-204200000D03*
%TD*%
D57*
%TO.C,C23*%
X286210000Y-114907500D03*
X286210000Y-118032500D03*
%TD*%
D43*
%TO.C,R7*%
X229572500Y-54210000D03*
X224372500Y-54210000D03*
%TD*%
D10*
%TO.C,C67*%
X295087500Y-155625000D03*
X291962500Y-155625000D03*
%TD*%
D42*
%TO.C,C25*%
X345120000Y-109297500D03*
X345120000Y-112422500D03*
%TD*%
D10*
%TO.C,C57*%
X286337500Y-99775000D03*
X283212500Y-99775000D03*
%TD*%
D43*
%TO.C,R8*%
X323490000Y-63530000D03*
X318290000Y-63530000D03*
%TD*%
D29*
%TO.C,R16*%
X216542500Y-66610000D03*
X213442500Y-66610000D03*
%TD*%
D18*
%TO.C,C18*%
X337162500Y-144400000D03*
X334037500Y-144400000D03*
%TD*%
D71*
%TO.C,JP2*%
X169052500Y-105400000D03*
X174427500Y-105400000D03*
%TD*%
D26*
%TO.C,J7*%
X200680000Y-216325000D03*
D27*
X195600000Y-216325000D03*
X190520000Y-216325000D03*
X185440000Y-216325000D03*
X180360000Y-216325000D03*
X175280000Y-216325000D03*
X170200000Y-216325000D03*
X165120000Y-216325000D03*
X160040000Y-216325000D03*
X154960000Y-216325000D03*
%TD*%
D39*
%TO.C,RV7*%
X273150000Y-194725000D03*
D34*
X269150000Y-193575000D03*
D39*
X273150000Y-192425000D03*
%TD*%
D29*
%TO.C,R31*%
X351460000Y-106770000D03*
X348360000Y-106770000D03*
%TD*%
D60*
%TO.C,JP3*%
X243090000Y-86640000D03*
D61*
X243090000Y-84640000D03*
%TD*%
G36*
X75526091Y-38979439D02*
G01*
X75566319Y-39006319D01*
X75753681Y-39193681D01*
X75780561Y-39233909D01*
X75790000Y-39281362D01*
X75790000Y-60106000D01*
X75773387Y-60168000D01*
X75728000Y-60213387D01*
X75666000Y-60230000D01*
X63114000Y-60230000D01*
X63052000Y-60213387D01*
X63006613Y-60168000D01*
X62990000Y-60106000D01*
X62990000Y-39881362D01*
X62999439Y-39833909D01*
X63026319Y-39793681D01*
X63813681Y-39006319D01*
X63853909Y-38979439D01*
X63901362Y-38970000D01*
X75478638Y-38970000D01*
X75526091Y-38979439D01*
G37*
M02*
