%TF.GenerationSoftware,KiCad,Pcbnew,6.0.2+dfsg-1*%
%TF.CreationDate,2022-08-02T12:08:57-04:00*%
%TF.ProjectId,augertapowermanagement,61756765-7274-4617-906f-7765726d616e,rev?*%
%TF.SameCoordinates,Original*%
%TF.FileFunction,Soldermask,Bot*%
%TF.FilePolarity,Negative*%
%FSLAX46Y46*%
G04 Gerber Fmt 4.6, Leading zero omitted, Abs format (unit mm)*
G04 Created by KiCad (PCBNEW 6.0.2+dfsg-1) date 2022-08-02 12:08:57*
%MOMM*%
%LPD*%
G01*
G04 APERTURE LIST*
G04 Aperture macros list*
%AMRoundRect*
0 Rectangle with rounded corners*
0 $1 Rounding radius*
0 $2 $3 $4 $5 $6 $7 $8 $9 X,Y pos of 4 corners*
0 Add a 4 corners polygon primitive as box body*
4,1,4,$2,$3,$4,$5,$6,$7,$8,$9,$2,$3,0*
0 Add four circle primitives for the rounded corners*
1,1,$1+$1,$2,$3*
1,1,$1+$1,$4,$5*
1,1,$1+$1,$6,$7*
1,1,$1+$1,$8,$9*
0 Add four rect primitives between the rounded corners*
20,1,$1+$1,$2,$3,$4,$5,0*
20,1,$1+$1,$4,$5,$6,$7,0*
20,1,$1+$1,$6,$7,$8,$9,0*
20,1,$1+$1,$8,$9,$2,$3,0*%
G04 Aperture macros list end*
%ADD10C,10.000000*%
%ADD11R,2.600000X2.600000*%
%ADD12C,2.600000*%
%ADD13C,3.000000*%
%ADD14R,1.350000X1.350000*%
%ADD15O,1.350000X1.350000*%
%ADD16RoundRect,0.250002X-1.599998X-1.599998X1.599998X-1.599998X1.599998X1.599998X-1.599998X1.599998X0*%
%ADD17C,3.700000*%
%ADD18R,4.572000X4.572000*%
%ADD19R,1.500000X1.500000*%
%ADD20C,1.500000*%
%ADD21O,2.200000X3.500000*%
%ADD22R,1.500000X2.500000*%
%ADD23O,1.500000X2.500000*%
%ADD24R,1.700000X1.700000*%
%ADD25O,1.700000X1.700000*%
%ADD26R,1.560000X1.560000*%
%ADD27C,1.560000*%
G04 APERTURE END LIST*
D10*
%TO.C,REF\u002A\u002A*%
X303600000Y-334500000D03*
%TD*%
%TO.C,REF\u002A\u002A*%
X190800000Y-315100000D03*
%TD*%
%TO.C,REF\u002A\u002A*%
X130800000Y-246300000D03*
%TD*%
%TO.C,REF\u002A\u002A*%
X345600000Y-387300000D03*
%TD*%
%TO.C,REF\u002A\u002A*%
X86700000Y-315700000D03*
%TD*%
%TO.C,REF\u002A\u002A*%
X343300000Y-244600000D03*
%TD*%
%TO.C,REF\u002A\u002A*%
X168200000Y-391000000D03*
%TD*%
D11*
%TO.C,J10*%
X130048000Y-409651000D03*
D12*
X124968000Y-409651000D03*
X119888000Y-409651000D03*
X114808000Y-409651000D03*
X109728000Y-409651000D03*
X104648000Y-409651000D03*
X99568000Y-409651000D03*
X94488000Y-409651000D03*
X89408000Y-409651000D03*
X84328000Y-409651000D03*
%TD*%
D13*
%TO.C,TP6*%
X312000000Y-367750000D03*
%TD*%
D14*
%TO.C,JP5*%
X157936000Y-249952000D03*
D15*
X157936000Y-251952000D03*
%TD*%
D13*
%TO.C,J2*%
X93800000Y-246875000D03*
D16*
X93800000Y-254175000D03*
D17*
X93800000Y-259675000D03*
%TD*%
D18*
%TO.C,U8*%
X323940000Y-270126000D03*
X323940000Y-285874000D03*
X369660000Y-270126000D03*
X369660000Y-285874000D03*
%TD*%
D11*
%TO.C,J9*%
X200439000Y-410261000D03*
D12*
X205519000Y-410261000D03*
X210599000Y-410261000D03*
X215679000Y-410261000D03*
X220759000Y-410261000D03*
%TD*%
D13*
%TO.C,TP9*%
X379708000Y-329706000D03*
%TD*%
D18*
%TO.C,U9*%
X251644666Y-248140000D03*
X235896666Y-248140000D03*
X251644666Y-293860000D03*
X235896666Y-293860000D03*
%TD*%
D13*
%TO.C,TP12*%
X264000000Y-312000000D03*
%TD*%
D18*
%TO.C,U12*%
X323940000Y-297394000D03*
X323940000Y-313142000D03*
X369660000Y-297394000D03*
X369660000Y-313142000D03*
%TD*%
%TO.C,U4*%
X323940000Y-324826000D03*
X323940000Y-340574000D03*
X369660000Y-324826000D03*
X369660000Y-340574000D03*
%TD*%
D13*
%TO.C,TP7*%
X170000000Y-274000000D03*
%TD*%
%TO.C,TP3*%
X156000000Y-287000000D03*
%TD*%
%TO.C,TP5*%
X150622000Y-303022000D03*
%TD*%
D18*
%TO.C,U5*%
X223874000Y-248140000D03*
X208126000Y-248140000D03*
X223874000Y-293860000D03*
X208126000Y-293860000D03*
%TD*%
D13*
%TO.C,TP16*%
X316000000Y-316000000D03*
%TD*%
D18*
%TO.C,U20*%
X249174000Y-334772000D03*
X233426000Y-334772000D03*
X249174000Y-380492000D03*
X233426000Y-380492000D03*
%TD*%
D14*
%TO.C,JP6*%
X190000000Y-266208000D03*
D15*
X188000000Y-266208000D03*
%TD*%
D13*
%TO.C,TP15*%
X202000000Y-390000000D03*
%TD*%
%TO.C,TP1*%
X117602000Y-254000000D03*
%TD*%
D18*
%TO.C,U13*%
X279474000Y-248240000D03*
X263726000Y-248240000D03*
X279474000Y-293960000D03*
X263726000Y-293960000D03*
%TD*%
D11*
%TO.C,J8*%
X86705000Y-373660000D03*
D12*
X86705000Y-368580000D03*
X86705000Y-363500000D03*
X86705000Y-358420000D03*
X86705000Y-353340000D03*
X86705000Y-348260000D03*
X86705000Y-343180000D03*
X86705000Y-338100000D03*
X86705000Y-333020000D03*
X86705000Y-327940000D03*
%TD*%
D11*
%TO.C,J1*%
X110155000Y-244005000D03*
D12*
X115235000Y-244005000D03*
%TD*%
D13*
%TO.C,TP17*%
X270000000Y-379000000D03*
%TD*%
%TO.C,TP13*%
X380708000Y-292706000D03*
%TD*%
D19*
%TO.C,J6*%
X367400000Y-254680000D03*
D20*
X364900000Y-254680000D03*
X362900000Y-254680000D03*
X360400000Y-254680000D03*
X367400000Y-252060000D03*
X364900000Y-252060000D03*
X362900000Y-252060000D03*
X360400000Y-252060000D03*
D13*
X370470000Y-255030000D03*
X357330000Y-255030000D03*
X357330000Y-249350000D03*
X370470000Y-249350000D03*
%TD*%
D14*
%TO.C,JP3*%
X243000000Y-322900000D03*
D15*
X241000000Y-322900000D03*
%TD*%
D18*
%TO.C,U17*%
X307186000Y-248140000D03*
X291438000Y-248140000D03*
X307186000Y-293860000D03*
X291438000Y-293860000D03*
%TD*%
D19*
%TO.C,J3*%
X370896000Y-403584000D03*
D20*
X373396000Y-403584000D03*
X375396000Y-403584000D03*
X377896000Y-403584000D03*
X370896000Y-406204000D03*
X373396000Y-406204000D03*
X375396000Y-406204000D03*
X377896000Y-406204000D03*
D13*
X367826000Y-408914000D03*
X380966000Y-408914000D03*
X367826000Y-403234000D03*
X380966000Y-403234000D03*
%TD*%
D19*
%TO.C,J5*%
X389000000Y-254098000D03*
D20*
X386500000Y-254098000D03*
X384500000Y-254098000D03*
X382000000Y-254098000D03*
X389000000Y-251478000D03*
X386500000Y-251478000D03*
X384500000Y-251478000D03*
X382000000Y-251478000D03*
D13*
X392070000Y-248768000D03*
X378930000Y-248768000D03*
X378930000Y-254448000D03*
X392070000Y-254448000D03*
%TD*%
D21*
%TO.C,SW1*%
X154500000Y-241300000D03*
X146300000Y-241300000D03*
D22*
X152400000Y-241300000D03*
D23*
X150400000Y-241300000D03*
X148400000Y-241300000D03*
%TD*%
D13*
%TO.C,TP18*%
X392708000Y-372706000D03*
%TD*%
D14*
%TO.C,JP4*%
X309700000Y-349200000D03*
D15*
X309700000Y-347200000D03*
%TD*%
D24*
%TO.C,U24*%
X177800000Y-241300000D03*
D25*
X180340000Y-241300000D03*
X182880000Y-241300000D03*
X185420000Y-241300000D03*
X187960000Y-241300000D03*
X190500000Y-241300000D03*
X193040000Y-241300000D03*
X195580000Y-241300000D03*
%TD*%
D11*
%TO.C,J12*%
X233094500Y-410261000D03*
D12*
X238174500Y-410261000D03*
X243254500Y-410261000D03*
X248334500Y-410261000D03*
X253414500Y-410261000D03*
%TD*%
D26*
%TO.C,U2*%
X112066000Y-376936000D03*
D27*
X114606000Y-376936000D03*
X117146000Y-376936000D03*
X119686000Y-376936000D03*
X122226000Y-376936000D03*
X124766000Y-376936000D03*
X127306000Y-376936000D03*
X129846000Y-376936000D03*
X132386000Y-376936000D03*
X134926000Y-376936000D03*
X137466000Y-376936000D03*
X140006000Y-376936000D03*
X142546000Y-376936000D03*
X145086000Y-376936000D03*
X147626000Y-376936000D03*
X150166000Y-376936000D03*
X152706000Y-376936000D03*
X155246000Y-376936000D03*
X157786000Y-376936000D03*
X112066000Y-351536000D03*
X114606000Y-351536000D03*
X117146000Y-351536000D03*
X119686000Y-351536000D03*
X122226000Y-351536000D03*
X124766000Y-351536000D03*
X127306000Y-351536000D03*
X129846000Y-351536000D03*
X132386000Y-351536000D03*
X134926000Y-351536000D03*
X137466000Y-351536000D03*
X140006000Y-351536000D03*
X142546000Y-351536000D03*
X145086000Y-351536000D03*
X147626000Y-351536000D03*
X150166000Y-351536000D03*
X152706000Y-351536000D03*
X155246000Y-351536000D03*
X157786000Y-351536000D03*
%TD*%
D14*
%TO.C,JP2*%
X166000000Y-268000000D03*
D15*
X166000000Y-266000000D03*
%TD*%
D18*
%TO.C,U22*%
X323940000Y-352258000D03*
X323940000Y-368006000D03*
X369660000Y-352258000D03*
X369660000Y-368006000D03*
%TD*%
D13*
%TO.C,TP10*%
X226000000Y-303000000D03*
%TD*%
D19*
%TO.C,J4*%
X320096000Y-403584000D03*
D20*
X322596000Y-403584000D03*
X324596000Y-403584000D03*
X327096000Y-403584000D03*
X320096000Y-406204000D03*
X322596000Y-406204000D03*
X324596000Y-406204000D03*
X327096000Y-406204000D03*
D13*
X317026000Y-408914000D03*
X330166000Y-408914000D03*
X317026000Y-403234000D03*
X330166000Y-403234000D03*
%TD*%
D11*
%TO.C,J11*%
X188103500Y-409651000D03*
D12*
X183023500Y-409651000D03*
X177943500Y-409651000D03*
X172863500Y-409651000D03*
X167783500Y-409651000D03*
X162703500Y-409651000D03*
X157623500Y-409651000D03*
X152543500Y-409651000D03*
X147463500Y-409651000D03*
X142383500Y-409651000D03*
%TD*%
D18*
%TO.C,U16*%
X218186000Y-334772000D03*
X202438000Y-334772000D03*
X218186000Y-380492000D03*
X202438000Y-380492000D03*
%TD*%
D13*
%TO.C,TP8*%
X110000000Y-316000000D03*
%TD*%
D14*
%TO.C,JP1*%
X118058000Y-314468000D03*
D15*
X118058000Y-316468000D03*
%TD*%
D18*
%TO.C,U1*%
X93726000Y-278130000D03*
X93726000Y-293878000D03*
X139446000Y-278130000D03*
X139446000Y-293878000D03*
%TD*%
D13*
%TO.C,TP14*%
X287000000Y-317000000D03*
%TD*%
%TO.C,TP4*%
X125000000Y-322000000D03*
%TD*%
%TO.C,TP11*%
X393500000Y-265000000D03*
%TD*%
D11*
%TO.C,J7*%
X265710000Y-409456000D03*
D12*
X270710000Y-409456000D03*
X275710000Y-409456000D03*
X280710000Y-409456000D03*
X285710000Y-409456000D03*
X290710000Y-409456000D03*
X295710000Y-409456000D03*
X300710000Y-409456000D03*
%TD*%
M02*
