%FSLAX45Y45*%
G04 Gerber Fmt 4.5, Leading zero omitted, Abs format (unit mm)*
G04 Created by KiCad (PCBNEW 6.0.2+dfsg-1) date 2022-08-24 13:43:22*
%MOMM*%
%LPD*%
G01*
G04 APERTURE LIST*
%TA.AperFunction,Profile*%
%ADD10C,0.100000*%
%TD*%
%ADD11C,0.200000*%
%ADD12C,0.040000*%
%ADD13C,0.080000*%
%ADD14C,0.090000*%
%ADD15C,0.092000*%
%ADD16C,0.100000*%
%ADD17C,0.104000*%
%ADD18C,0.120000*%
%ADD19C,0.130000*%
%ADD20C,0.150000*%
%ADD21C,0.180000*%
%ADD22C,0.230000*%
G04 APERTURE END LIST*
D10*
X4630703Y-22250000D02*
X36300703Y-22250000D01*
X36300703Y-22250000D02*
X36300703Y-3950000D01*
X36300703Y-3950000D02*
X4630703Y-3950000D01*
X4630703Y-3950000D02*
X4630703Y-22250000D01*
D11*
D12*
X10380000Y-4680000D02*
X10420000Y-4720000D01*
X10420000Y-4680000D02*
X10380000Y-4720000D01*
X11223203Y-6280000D02*
X11263203Y-6320000D01*
X11263203Y-6280000D02*
X11223203Y-6320000D01*
X12530703Y-18905000D02*
X12570703Y-18945000D01*
X12570703Y-18905000D02*
X12530703Y-18945000D01*
X13655703Y-13880000D02*
X13695703Y-13920000D01*
X13695703Y-13880000D02*
X13655703Y-13920000D01*
X15055703Y-14380000D02*
X15095703Y-14420000D01*
X15095703Y-14380000D02*
X15055703Y-14420000D01*
X15243251Y-9392451D02*
X15283251Y-9432451D01*
X15283251Y-9392451D02*
X15243251Y-9432451D01*
X15263978Y-10388275D02*
X15303978Y-10428275D01*
X15303978Y-10388275D02*
X15263978Y-10428275D01*
X15455703Y-14780000D02*
X15495703Y-14820000D01*
X15495703Y-14780000D02*
X15455703Y-14820000D01*
X15580703Y-10380000D02*
X15620703Y-10420000D01*
X15620703Y-10380000D02*
X15580703Y-10420000D01*
X18155703Y-19680000D02*
X18195703Y-19720000D01*
X18195703Y-19680000D02*
X18155703Y-19720000D01*
X18455703Y-18980000D02*
X18495703Y-19020000D01*
X18495703Y-18980000D02*
X18455703Y-19020000D01*
X18730703Y-19790000D02*
X18770703Y-19830000D01*
X18770703Y-19790000D02*
X18730703Y-19830000D01*
X18755703Y-11880000D02*
X18795703Y-11920000D01*
X18795703Y-11880000D02*
X18755703Y-11920000D01*
X18755703Y-12280000D02*
X18795703Y-12320000D01*
X18795703Y-12280000D02*
X18755703Y-12320000D01*
X18903203Y-12132500D02*
X18943203Y-12172500D01*
X18943203Y-12132500D02*
X18903203Y-12172500D01*
X18980703Y-19005000D02*
X19020703Y-19045000D01*
X19020703Y-19005000D02*
X18980703Y-19045000D01*
X19534603Y-12005500D02*
X19574603Y-12045500D01*
X19574603Y-12005500D02*
X19534603Y-12045500D01*
X19780703Y-12130000D02*
X19820703Y-12170000D01*
X19820703Y-12130000D02*
X19780703Y-12170000D01*
X20065203Y-12259500D02*
X20105203Y-12299500D01*
X20105203Y-12259500D02*
X20065203Y-12299500D01*
X20430703Y-11730000D02*
X20470703Y-11770000D01*
X20470703Y-11730000D02*
X20430703Y-11770000D01*
X21455703Y-11980000D02*
X21495703Y-12020000D01*
X21495703Y-11980000D02*
X21455703Y-12020000D01*
X21480703Y-11730000D02*
X21520703Y-11770000D01*
X21520703Y-11730000D02*
X21480703Y-11770000D01*
X21505703Y-11605000D02*
X21545703Y-11645000D01*
X21545703Y-11605000D02*
X21505703Y-11645000D01*
X21535703Y-11250000D02*
X21575703Y-11290000D01*
X21575703Y-11250000D02*
X21535703Y-11290000D01*
X22030703Y-11855000D02*
X22070703Y-11895000D01*
X22070703Y-11855000D02*
X22030703Y-11895000D01*
X22049203Y-11730900D02*
X22089203Y-11770900D01*
X22089203Y-11730900D02*
X22049203Y-11770900D01*
X22080703Y-12005000D02*
X22120703Y-12045000D01*
X22120703Y-12005000D02*
X22080703Y-12045000D01*
X24008203Y-12357900D02*
X24048203Y-12397900D01*
X24048203Y-12357900D02*
X24008203Y-12397900D01*
X24280703Y-16030000D02*
X24320703Y-16070000D01*
X24320703Y-16030000D02*
X24280703Y-16070000D01*
X24355703Y-12930000D02*
X24395703Y-12970000D01*
X24395703Y-12930000D02*
X24355703Y-12970000D01*
X24503203Y-12611900D02*
X24543203Y-12651900D01*
X24543203Y-12611900D02*
X24503203Y-12651900D01*
X24530703Y-12480000D02*
X24570703Y-12520000D01*
X24570703Y-12480000D02*
X24530703Y-12520000D01*
X24755703Y-16030000D02*
X24795703Y-16070000D01*
X24795703Y-16030000D02*
X24755703Y-16070000D01*
X24780703Y-15905000D02*
X24820703Y-15945000D01*
X24820703Y-15905000D02*
X24780703Y-15945000D01*
X24780703Y-16280000D02*
X24820703Y-16320000D01*
X24820703Y-16280000D02*
X24780703Y-16320000D01*
X25255703Y-12755000D02*
X25295703Y-12795000D01*
X25295703Y-12755000D02*
X25255703Y-12795000D01*
X25655703Y-14370000D02*
X25695703Y-14410000D01*
X25695703Y-14370000D02*
X25655703Y-14410000D01*
X25830703Y-12205000D02*
X25870703Y-12245000D01*
X25870703Y-12205000D02*
X25830703Y-12245000D01*
X26445703Y-12600000D02*
X26485703Y-12640000D01*
X26485703Y-12600000D02*
X26445703Y-12640000D01*
X26805703Y-16455000D02*
X26845703Y-16495000D01*
X26845703Y-16455000D02*
X26805703Y-16495000D01*
X26855703Y-12305000D02*
X26895703Y-12345000D01*
X26895703Y-12305000D02*
X26855703Y-12345000D01*
X26855703Y-17380000D02*
X26895703Y-17420000D01*
X26895703Y-17380000D02*
X26855703Y-17420000D01*
X26855703Y-17755000D02*
X26895703Y-17795000D01*
X26895703Y-17755000D02*
X26855703Y-17795000D01*
X27330703Y-17505000D02*
X27370703Y-17545000D01*
X27370703Y-17505000D02*
X27330703Y-17545000D01*
X27355703Y-17630000D02*
X27395703Y-17670000D01*
X27395703Y-17630000D02*
X27355703Y-17670000D01*
X31293003Y-17762700D02*
X31333003Y-17802700D01*
X31333003Y-17762700D02*
X31293003Y-17802700D01*
X32109203Y-17733300D02*
X32149203Y-17773300D01*
X32149203Y-17733300D02*
X32109203Y-17773300D01*
X33526503Y-18650600D02*
X33566503Y-18690600D01*
X33566503Y-18650600D02*
X33526503Y-18690600D01*
X33551503Y-18375600D02*
X33591503Y-18415600D01*
X33591503Y-18375600D02*
X33551503Y-18415600D01*
X33551503Y-18775600D02*
X33591503Y-18815600D01*
X33591503Y-18775600D02*
X33551503Y-18815600D01*
X33981503Y-5965600D02*
X34021503Y-6005600D01*
X34021503Y-5965600D02*
X33981503Y-6005600D01*
X34395703Y-19190000D02*
X34435703Y-19230000D01*
X34435703Y-19190000D02*
X34395703Y-19230000D01*
X35141303Y-9995600D02*
X35181303Y-10035600D01*
X35181303Y-9995600D02*
X35141303Y-10035600D01*
X35276503Y-10725600D02*
X35316503Y-10765600D01*
X35316503Y-10725600D02*
X35276503Y-10765600D01*
X35276503Y-10975600D02*
X35316503Y-11015600D01*
X35316503Y-10975600D02*
X35276503Y-11015600D01*
X35284603Y-10592500D02*
X35324603Y-10632500D01*
X35324603Y-10592500D02*
X35284603Y-10632500D01*
X35301503Y-8300600D02*
X35341503Y-8340600D01*
X35341503Y-8300600D02*
X35301503Y-8340600D01*
X35401503Y-7150600D02*
X35441503Y-7190600D01*
X35441503Y-7150600D02*
X35401503Y-7190600D01*
X35414703Y-13577000D02*
X35454703Y-13617000D01*
X35454703Y-13577000D02*
X35414703Y-13617000D01*
X35426503Y-14575600D02*
X35466503Y-14615600D01*
X35466503Y-14575600D02*
X35426503Y-14615600D01*
X35426503Y-14700600D02*
X35466503Y-14740600D01*
X35466503Y-14700600D02*
X35426503Y-14740600D01*
X35451503Y-14450600D02*
X35491503Y-14490600D01*
X35491503Y-14450600D02*
X35451503Y-14490600D01*
X35451503Y-14825600D02*
X35491503Y-14865600D01*
X35491503Y-14825600D02*
X35451503Y-14865600D01*
X35476503Y-8175600D02*
X35516503Y-8215600D01*
X35516503Y-8175600D02*
X35476503Y-8215600D01*
X35536454Y-8460551D02*
X35576454Y-8500551D01*
X35576454Y-8460551D02*
X35536454Y-8500551D01*
X35676503Y-10850600D02*
X35716503Y-10890600D01*
X35716503Y-10850600D02*
X35676503Y-10890600D01*
X35764003Y-10988100D02*
X35804003Y-11028100D01*
X35804003Y-10988100D02*
X35764003Y-11028100D01*
X35926503Y-14700600D02*
X35966503Y-14740600D01*
X35966503Y-14700600D02*
X35926503Y-14740600D01*
X35951503Y-8300600D02*
X35991503Y-8340600D01*
X35991503Y-8300600D02*
X35951503Y-8340600D01*
X35951503Y-14850600D02*
X35991503Y-14890600D01*
X35991503Y-14850600D02*
X35951503Y-14890600D01*
X35976503Y-8450600D02*
X36016503Y-8490600D01*
X36016503Y-8450600D02*
X35976503Y-8490600D01*
X36195703Y-8180000D02*
X36235703Y-8220000D01*
X36235703Y-8180000D02*
X36195703Y-8220000D01*
D13*
X8421503Y-11646800D02*
G75*
G03*
X8421503Y-11646800I-40000J0D01*
G01*
X8421503Y-11846800D02*
G75*
G03*
X8421503Y-11846800I-40000J0D01*
G01*
X12409303Y-5195200D02*
G75*
G03*
X12409303Y-5195200I-40000J0D01*
G01*
X12409303Y-5395200D02*
G75*
G03*
X12409303Y-5395200I-40000J0D01*
G01*
X13215703Y-6800000D02*
G75*
G03*
X13215703Y-6800000I-40000J0D01*
G01*
X13215703Y-7000000D02*
G75*
G03*
X13215703Y-7000000I-40000J0D01*
G01*
X15415703Y-6820800D02*
G75*
G03*
X15415703Y-6820800I-40000J0D01*
G01*
X15615703Y-6820800D02*
G75*
G03*
X15615703Y-6820800I-40000J0D01*
G01*
X20715703Y-12490000D02*
G75*
G03*
X20715703Y-12490000I-40000J0D01*
G01*
X20915703Y-12490000D02*
G75*
G03*
X20915703Y-12490000I-40000J0D01*
G01*
X27585703Y-14920000D02*
G75*
G03*
X27585703Y-14920000I-40000J0D01*
G01*
X27585703Y-15120000D02*
G75*
G03*
X27585703Y-15120000I-40000J0D01*
G01*
D14*
X11415703Y-4285000D02*
X11415703Y-4375000D01*
X11370703Y-4330000D02*
X11460703Y-4330000D01*
X11615703Y-4285000D02*
X11615703Y-4375000D01*
X11570703Y-4330000D02*
X11660703Y-4330000D01*
X11815703Y-4285000D02*
X11815703Y-4375000D01*
X11770703Y-4330000D02*
X11860703Y-4330000D01*
D15*
X28617830Y-20590927D02*
X28617830Y-20525873D01*
X28552775Y-20525873D01*
X28552775Y-20590927D01*
X28617830Y-20590927D01*
X28617830Y-20852927D02*
X28617830Y-20787873D01*
X28552775Y-20787873D01*
X28552775Y-20852927D01*
X28617830Y-20852927D01*
X28867830Y-20590927D02*
X28867830Y-20525873D01*
X28802775Y-20525873D01*
X28802775Y-20590927D01*
X28867830Y-20590927D01*
X28867830Y-20852927D02*
X28867830Y-20787873D01*
X28802775Y-20787873D01*
X28802775Y-20852927D01*
X28867830Y-20852927D01*
X29067830Y-20590927D02*
X29067830Y-20525873D01*
X29002775Y-20525873D01*
X29002775Y-20590927D01*
X29067830Y-20590927D01*
X29067830Y-20852927D02*
X29067830Y-20787873D01*
X29002775Y-20787873D01*
X29002775Y-20852927D01*
X29067830Y-20852927D01*
X29317830Y-20590927D02*
X29317830Y-20525873D01*
X29252775Y-20525873D01*
X29252775Y-20590927D01*
X29317830Y-20590927D01*
X29317830Y-20852927D02*
X29317830Y-20787873D01*
X29252775Y-20787873D01*
X29252775Y-20852927D01*
X29317830Y-20852927D01*
X32648230Y-5438527D02*
X32648230Y-5373473D01*
X32583175Y-5373473D01*
X32583175Y-5438527D01*
X32648230Y-5438527D01*
X32648230Y-5700527D02*
X32648230Y-5635473D01*
X32583175Y-5635473D01*
X32583175Y-5700527D01*
X32648230Y-5700527D01*
X32898230Y-5438527D02*
X32898230Y-5373473D01*
X32833175Y-5373473D01*
X32833175Y-5438527D01*
X32898230Y-5438527D01*
X32898230Y-5700527D02*
X32898230Y-5635473D01*
X32833175Y-5635473D01*
X32833175Y-5700527D01*
X32898230Y-5700527D01*
X33098230Y-5438527D02*
X33098230Y-5373473D01*
X33033175Y-5373473D01*
X33033175Y-5438527D01*
X33098230Y-5438527D01*
X33098230Y-5700527D02*
X33098230Y-5635473D01*
X33033175Y-5635473D01*
X33033175Y-5700527D01*
X33098230Y-5700527D01*
X33348230Y-5438527D02*
X33348230Y-5373473D01*
X33283175Y-5373473D01*
X33283175Y-5438527D01*
X33348230Y-5438527D01*
X33348230Y-5700527D02*
X33348230Y-5635473D01*
X33283175Y-5635473D01*
X33283175Y-5700527D01*
X33348230Y-5700527D01*
X33697830Y-20590927D02*
X33697830Y-20525873D01*
X33632775Y-20525873D01*
X33632775Y-20590927D01*
X33697830Y-20590927D01*
X33697830Y-20852927D02*
X33697830Y-20787873D01*
X33632775Y-20787873D01*
X33632775Y-20852927D01*
X33697830Y-20852927D01*
X33947830Y-20590927D02*
X33947830Y-20525873D01*
X33882775Y-20525873D01*
X33882775Y-20590927D01*
X33947830Y-20590927D01*
X33947830Y-20852927D02*
X33947830Y-20787873D01*
X33882775Y-20787873D01*
X33882775Y-20852927D01*
X33947830Y-20852927D01*
X34147830Y-20590927D02*
X34147830Y-20525873D01*
X34082775Y-20525873D01*
X34082775Y-20590927D01*
X34147830Y-20590927D01*
X34147830Y-20852927D02*
X34147830Y-20787873D01*
X34082775Y-20787873D01*
X34082775Y-20852927D01*
X34147830Y-20852927D01*
X34397830Y-20590927D02*
X34397830Y-20525873D01*
X34332775Y-20525873D01*
X34332775Y-20590927D01*
X34397830Y-20590927D01*
X34397830Y-20852927D02*
X34397830Y-20787873D01*
X34332775Y-20787873D01*
X34332775Y-20852927D01*
X34397830Y-20852927D01*
X34808230Y-5380327D02*
X34808230Y-5315273D01*
X34743175Y-5315273D01*
X34743175Y-5380327D01*
X34808230Y-5380327D01*
X34808230Y-5642327D02*
X34808230Y-5577273D01*
X34743175Y-5577273D01*
X34743175Y-5642327D01*
X34808230Y-5642327D01*
X35058230Y-5380327D02*
X35058230Y-5315273D01*
X34993175Y-5315273D01*
X34993175Y-5380327D01*
X35058230Y-5380327D01*
X35058230Y-5642327D02*
X35058230Y-5577273D01*
X34993175Y-5577273D01*
X34993175Y-5642327D01*
X35058230Y-5642327D01*
X35258230Y-5380327D02*
X35258230Y-5315273D01*
X35193175Y-5315273D01*
X35193175Y-5380327D01*
X35258230Y-5380327D01*
X35258230Y-5642327D02*
X35258230Y-5577273D01*
X35193175Y-5577273D01*
X35193175Y-5642327D01*
X35258230Y-5642327D01*
X35508230Y-5380327D02*
X35508230Y-5315273D01*
X35443175Y-5315273D01*
X35443175Y-5380327D01*
X35508230Y-5380327D01*
X35508230Y-5642327D02*
X35508230Y-5577273D01*
X35443175Y-5577273D01*
X35443175Y-5642327D01*
X35508230Y-5642327D01*
D16*
X14355703Y-4380000D02*
X14405703Y-4330000D01*
X14355703Y-4280000D01*
X14305703Y-4330000D01*
X14355703Y-4380000D01*
X14609703Y-4380000D02*
X14659703Y-4330000D01*
X14609703Y-4280000D01*
X14559703Y-4330000D01*
X14609703Y-4380000D01*
X14863703Y-4380000D02*
X14913703Y-4330000D01*
X14863703Y-4280000D01*
X14813703Y-4330000D01*
X14863703Y-4380000D01*
X15117703Y-4380000D02*
X15167703Y-4330000D01*
X15117703Y-4280000D01*
X15067703Y-4330000D01*
X15117703Y-4380000D01*
X15371703Y-4380000D02*
X15421703Y-4330000D01*
X15371703Y-4280000D01*
X15321703Y-4330000D01*
X15371703Y-4380000D01*
X15625703Y-4380000D02*
X15675703Y-4330000D01*
X15625703Y-4280000D01*
X15575703Y-4330000D01*
X15625703Y-4380000D01*
X15879703Y-4380000D02*
X15929703Y-4330000D01*
X15879703Y-4280000D01*
X15829703Y-4330000D01*
X15879703Y-4380000D01*
X16133703Y-4380000D02*
X16183703Y-4330000D01*
X16133703Y-4280000D01*
X16083703Y-4330000D01*
X16133703Y-4380000D01*
D17*
X7730303Y-15301600D02*
X7834303Y-15405600D01*
X7834303Y-15301600D02*
X7730303Y-15405600D01*
X7834303Y-15353600D02*
G75*
G03*
X7834303Y-15353600I-52000J0D01*
G01*
X7730303Y-17841600D02*
X7834303Y-17945600D01*
X7834303Y-17841600D02*
X7730303Y-17945600D01*
X7834303Y-17893600D02*
G75*
G03*
X7834303Y-17893600I-52000J0D01*
G01*
X7984303Y-15301600D02*
X8088303Y-15405600D01*
X8088303Y-15301600D02*
X7984303Y-15405600D01*
X8088303Y-15353600D02*
G75*
G03*
X8088303Y-15353600I-52000J0D01*
G01*
X7984303Y-17841600D02*
X8088303Y-17945600D01*
X8088303Y-17841600D02*
X7984303Y-17945600D01*
X8088303Y-17893600D02*
G75*
G03*
X8088303Y-17893600I-52000J0D01*
G01*
X8238303Y-15301600D02*
X8342303Y-15405600D01*
X8342303Y-15301600D02*
X8238303Y-15405600D01*
X8342303Y-15353600D02*
G75*
G03*
X8342303Y-15353600I-52000J0D01*
G01*
X8238303Y-17841600D02*
X8342303Y-17945600D01*
X8342303Y-17841600D02*
X8238303Y-17945600D01*
X8342303Y-17893600D02*
G75*
G03*
X8342303Y-17893600I-52000J0D01*
G01*
X8492303Y-15301600D02*
X8596303Y-15405600D01*
X8596303Y-15301600D02*
X8492303Y-15405600D01*
X8596303Y-15353600D02*
G75*
G03*
X8596303Y-15353600I-52000J0D01*
G01*
X8492303Y-17841600D02*
X8596303Y-17945600D01*
X8596303Y-17841600D02*
X8492303Y-17945600D01*
X8596303Y-17893600D02*
G75*
G03*
X8596303Y-17893600I-52000J0D01*
G01*
X8746303Y-15301600D02*
X8850303Y-15405600D01*
X8850303Y-15301600D02*
X8746303Y-15405600D01*
X8850303Y-15353600D02*
G75*
G03*
X8850303Y-15353600I-52000J0D01*
G01*
X8746303Y-17841600D02*
X8850303Y-17945600D01*
X8850303Y-17841600D02*
X8746303Y-17945600D01*
X8850303Y-17893600D02*
G75*
G03*
X8850303Y-17893600I-52000J0D01*
G01*
X9000303Y-15301600D02*
X9104303Y-15405600D01*
X9104303Y-15301600D02*
X9000303Y-15405600D01*
X9104303Y-15353600D02*
G75*
G03*
X9104303Y-15353600I-52000J0D01*
G01*
X9000303Y-17841600D02*
X9104303Y-17945600D01*
X9104303Y-17841600D02*
X9000303Y-17945600D01*
X9104303Y-17893600D02*
G75*
G03*
X9104303Y-17893600I-52000J0D01*
G01*
X9254303Y-15301600D02*
X9358303Y-15405600D01*
X9358303Y-15301600D02*
X9254303Y-15405600D01*
X9358303Y-15353600D02*
G75*
G03*
X9358303Y-15353600I-52000J0D01*
G01*
X9254303Y-17841600D02*
X9358303Y-17945600D01*
X9358303Y-17841600D02*
X9254303Y-17945600D01*
X9358303Y-17893600D02*
G75*
G03*
X9358303Y-17893600I-52000J0D01*
G01*
X9508303Y-15301600D02*
X9612303Y-15405600D01*
X9612303Y-15301600D02*
X9508303Y-15405600D01*
X9612303Y-15353600D02*
G75*
G03*
X9612303Y-15353600I-52000J0D01*
G01*
X9508303Y-17841600D02*
X9612303Y-17945600D01*
X9612303Y-17841600D02*
X9508303Y-17945600D01*
X9612303Y-17893600D02*
G75*
G03*
X9612303Y-17893600I-52000J0D01*
G01*
X9762303Y-15301600D02*
X9866303Y-15405600D01*
X9866303Y-15301600D02*
X9762303Y-15405600D01*
X9866303Y-15353600D02*
G75*
G03*
X9866303Y-15353600I-52000J0D01*
G01*
X9762303Y-17841600D02*
X9866303Y-17945600D01*
X9866303Y-17841600D02*
X9762303Y-17945600D01*
X9866303Y-17893600D02*
G75*
G03*
X9866303Y-17893600I-52000J0D01*
G01*
X10016303Y-15301600D02*
X10120303Y-15405600D01*
X10120303Y-15301600D02*
X10016303Y-15405600D01*
X10120303Y-15353600D02*
G75*
G03*
X10120303Y-15353600I-52000J0D01*
G01*
X10016303Y-17841600D02*
X10120303Y-17945600D01*
X10120303Y-17841600D02*
X10016303Y-17945600D01*
X10120303Y-17893600D02*
G75*
G03*
X10120303Y-17893600I-52000J0D01*
G01*
X10270303Y-15301600D02*
X10374303Y-15405600D01*
X10374303Y-15301600D02*
X10270303Y-15405600D01*
X10374303Y-15353600D02*
G75*
G03*
X10374303Y-15353600I-52000J0D01*
G01*
X10270303Y-17841600D02*
X10374303Y-17945600D01*
X10374303Y-17841600D02*
X10270303Y-17945600D01*
X10374303Y-17893600D02*
G75*
G03*
X10374303Y-17893600I-52000J0D01*
G01*
X10524303Y-15301600D02*
X10628303Y-15405600D01*
X10628303Y-15301600D02*
X10524303Y-15405600D01*
X10628303Y-15353600D02*
G75*
G03*
X10628303Y-15353600I-52000J0D01*
G01*
X10524303Y-17841600D02*
X10628303Y-17945600D01*
X10628303Y-17841600D02*
X10524303Y-17945600D01*
X10628303Y-17893600D02*
G75*
G03*
X10628303Y-17893600I-52000J0D01*
G01*
X10778303Y-15301600D02*
X10882303Y-15405600D01*
X10882303Y-15301600D02*
X10778303Y-15405600D01*
X10882303Y-15353600D02*
G75*
G03*
X10882303Y-15353600I-52000J0D01*
G01*
X10778303Y-17841600D02*
X10882303Y-17945600D01*
X10882303Y-17841600D02*
X10778303Y-17945600D01*
X10882303Y-17893600D02*
G75*
G03*
X10882303Y-17893600I-52000J0D01*
G01*
X11032303Y-15301600D02*
X11136303Y-15405600D01*
X11136303Y-15301600D02*
X11032303Y-15405600D01*
X11136303Y-15353600D02*
G75*
G03*
X11136303Y-15353600I-52000J0D01*
G01*
X11032303Y-17841600D02*
X11136303Y-17945600D01*
X11136303Y-17841600D02*
X11032303Y-17945600D01*
X11136303Y-17893600D02*
G75*
G03*
X11136303Y-17893600I-52000J0D01*
G01*
X11286303Y-15301600D02*
X11390303Y-15405600D01*
X11390303Y-15301600D02*
X11286303Y-15405600D01*
X11390303Y-15353600D02*
G75*
G03*
X11390303Y-15353600I-52000J0D01*
G01*
X11286303Y-17841600D02*
X11390303Y-17945600D01*
X11390303Y-17841600D02*
X11286303Y-17945600D01*
X11390303Y-17893600D02*
G75*
G03*
X11390303Y-17893600I-52000J0D01*
G01*
X11540303Y-15301600D02*
X11644303Y-15405600D01*
X11644303Y-15301600D02*
X11540303Y-15405600D01*
X11644303Y-15353600D02*
G75*
G03*
X11644303Y-15353600I-52000J0D01*
G01*
X11540303Y-17841600D02*
X11644303Y-17945600D01*
X11644303Y-17841600D02*
X11540303Y-17945600D01*
X11644303Y-17893600D02*
G75*
G03*
X11644303Y-17893600I-52000J0D01*
G01*
X11794303Y-15301600D02*
X11898303Y-15405600D01*
X11898303Y-15301600D02*
X11794303Y-15405600D01*
X11898303Y-15353600D02*
G75*
G03*
X11898303Y-15353600I-52000J0D01*
G01*
X11794303Y-17841600D02*
X11898303Y-17945600D01*
X11898303Y-17841600D02*
X11794303Y-17945600D01*
X11898303Y-17893600D02*
G75*
G03*
X11898303Y-17893600I-52000J0D01*
G01*
X12048303Y-15301600D02*
X12152303Y-15405600D01*
X12152303Y-15301600D02*
X12048303Y-15405600D01*
X12152303Y-15353600D02*
G75*
G03*
X12152303Y-15353600I-52000J0D01*
G01*
X12048303Y-17841600D02*
X12152303Y-17945600D01*
X12152303Y-17841600D02*
X12048303Y-17945600D01*
X12152303Y-17893600D02*
G75*
G03*
X12152303Y-17893600I-52000J0D01*
G01*
X12302303Y-15301600D02*
X12406303Y-15405600D01*
X12406303Y-15301600D02*
X12302303Y-15405600D01*
X12406303Y-15353600D02*
G75*
G03*
X12406303Y-15353600I-52000J0D01*
G01*
X12302303Y-17841600D02*
X12406303Y-17945600D01*
X12406303Y-17841600D02*
X12302303Y-17945600D01*
X12406303Y-17893600D02*
G75*
G03*
X12406303Y-17893600I-52000J0D01*
G01*
D18*
X5888303Y-7953000D02*
X6008303Y-8073000D01*
X6008303Y-7953000D02*
X5888303Y-8073000D01*
X5948303Y-7953000D02*
X5948303Y-8073000D01*
X5888303Y-8013000D02*
X6008303Y-8013000D01*
X5888303Y-9527800D02*
X6008303Y-9647800D01*
X6008303Y-9527800D02*
X5888303Y-9647800D01*
X5948303Y-9527800D02*
X5948303Y-9647800D01*
X5888303Y-9587800D02*
X6008303Y-9587800D01*
X10460303Y-7953000D02*
X10580303Y-8073000D01*
X10580303Y-7953000D02*
X10460303Y-8073000D01*
X10520303Y-7953000D02*
X10520303Y-8073000D01*
X10460303Y-8013000D02*
X10580303Y-8013000D01*
X10460303Y-9527800D02*
X10580303Y-9647800D01*
X10580303Y-9527800D02*
X10460303Y-9647800D01*
X10520303Y-9527800D02*
X10520303Y-9647800D01*
X10460303Y-9587800D02*
X10580303Y-9587800D01*
X16759503Y-13617200D02*
X16879503Y-13737200D01*
X16879503Y-13617200D02*
X16759503Y-13737200D01*
X16819503Y-13617200D02*
X16819503Y-13737200D01*
X16759503Y-13677200D02*
X16879503Y-13677200D01*
X16759503Y-18189200D02*
X16879503Y-18309200D01*
X16879503Y-18189200D02*
X16759503Y-18309200D01*
X16819503Y-18189200D02*
X16819503Y-18309200D01*
X16759503Y-18249200D02*
X16879503Y-18249200D01*
X17328303Y-4954000D02*
X17448303Y-5074000D01*
X17448303Y-4954000D02*
X17328303Y-5074000D01*
X17388303Y-4954000D02*
X17388303Y-5074000D01*
X17328303Y-5014000D02*
X17448303Y-5014000D01*
X17328303Y-9526000D02*
X17448303Y-9646000D01*
X17448303Y-9526000D02*
X17328303Y-9646000D01*
X17388303Y-9526000D02*
X17388303Y-9646000D01*
X17328303Y-9586000D02*
X17448303Y-9586000D01*
X18334303Y-13617200D02*
X18454303Y-13737200D01*
X18454303Y-13617200D02*
X18334303Y-13737200D01*
X18394303Y-13617200D02*
X18394303Y-13737200D01*
X18334303Y-13677200D02*
X18454303Y-13677200D01*
X18334303Y-18189200D02*
X18454303Y-18309200D01*
X18454303Y-18189200D02*
X18334303Y-18309200D01*
X18394303Y-18189200D02*
X18394303Y-18309200D01*
X18334303Y-18249200D02*
X18454303Y-18249200D01*
X18903103Y-4954000D02*
X19023103Y-5074000D01*
X19023103Y-4954000D02*
X18903103Y-5074000D01*
X18963103Y-4954000D02*
X18963103Y-5074000D01*
X18903103Y-5014000D02*
X19023103Y-5014000D01*
X18903103Y-9526000D02*
X19023103Y-9646000D01*
X19023103Y-9526000D02*
X18903103Y-9646000D01*
X18963103Y-9526000D02*
X18963103Y-9646000D01*
X18903103Y-9586000D02*
X19023103Y-9586000D01*
X19858303Y-13617200D02*
X19978303Y-13737200D01*
X19978303Y-13617200D02*
X19858303Y-13737200D01*
X19918303Y-13617200D02*
X19918303Y-13737200D01*
X19858303Y-13677200D02*
X19978303Y-13677200D01*
X19858303Y-18189200D02*
X19978303Y-18309200D01*
X19978303Y-18189200D02*
X19858303Y-18309200D01*
X19918303Y-18189200D02*
X19918303Y-18309200D01*
X19858303Y-18249200D02*
X19978303Y-18249200D01*
X20105369Y-4954000D02*
X20225369Y-5074000D01*
X20225369Y-4954000D02*
X20105369Y-5074000D01*
X20165369Y-4954000D02*
X20165369Y-5074000D01*
X20105369Y-5014000D02*
X20225369Y-5014000D01*
X20105369Y-9526000D02*
X20225369Y-9646000D01*
X20225369Y-9526000D02*
X20105369Y-9646000D01*
X20165369Y-9526000D02*
X20165369Y-9646000D01*
X20105369Y-9586000D02*
X20225369Y-9586000D01*
X21433103Y-13617200D02*
X21553103Y-13737200D01*
X21553103Y-13617200D02*
X21433103Y-13737200D01*
X21493103Y-13617200D02*
X21493103Y-13737200D01*
X21433103Y-13677200D02*
X21553103Y-13677200D01*
X21433103Y-18189200D02*
X21553103Y-18309200D01*
X21553103Y-18189200D02*
X21433103Y-18309200D01*
X21493103Y-18189200D02*
X21493103Y-18309200D01*
X21433103Y-18249200D02*
X21553103Y-18249200D01*
X21680169Y-4954000D02*
X21800169Y-5074000D01*
X21800169Y-4954000D02*
X21680169Y-5074000D01*
X21740169Y-4954000D02*
X21740169Y-5074000D01*
X21680169Y-5014000D02*
X21800169Y-5014000D01*
X21680169Y-9526000D02*
X21800169Y-9646000D01*
X21800169Y-9526000D02*
X21680169Y-9646000D01*
X21740169Y-9526000D02*
X21740169Y-9646000D01*
X21680169Y-9586000D02*
X21800169Y-9586000D01*
X22888303Y-4964000D02*
X23008303Y-5084000D01*
X23008303Y-4964000D02*
X22888303Y-5084000D01*
X22948303Y-4964000D02*
X22948303Y-5084000D01*
X22888303Y-5024000D02*
X23008303Y-5024000D01*
X22888303Y-9536000D02*
X23008303Y-9656000D01*
X23008303Y-9536000D02*
X22888303Y-9656000D01*
X22948303Y-9536000D02*
X22948303Y-9656000D01*
X22888303Y-9596000D02*
X23008303Y-9596000D01*
X24463103Y-4964000D02*
X24583103Y-5084000D01*
X24583103Y-4964000D02*
X24463103Y-5084000D01*
X24523103Y-4964000D02*
X24523103Y-5084000D01*
X24463103Y-5024000D02*
X24583103Y-5024000D01*
X24463103Y-9536000D02*
X24583103Y-9656000D01*
X24583103Y-9536000D02*
X24463103Y-9656000D01*
X24523103Y-9536000D02*
X24523103Y-9656000D01*
X24463103Y-9596000D02*
X24583103Y-9596000D01*
X25659503Y-4954000D02*
X25779503Y-5074000D01*
X25779503Y-4954000D02*
X25659503Y-5074000D01*
X25719503Y-4954000D02*
X25719503Y-5074000D01*
X25659503Y-5014000D02*
X25779503Y-5014000D01*
X25659503Y-9526000D02*
X25779503Y-9646000D01*
X25779503Y-9526000D02*
X25659503Y-9646000D01*
X25719503Y-9526000D02*
X25719503Y-9646000D01*
X25659503Y-9586000D02*
X25779503Y-9586000D01*
X27234303Y-4954000D02*
X27354303Y-5074000D01*
X27354303Y-4954000D02*
X27234303Y-5074000D01*
X27294303Y-4954000D02*
X27294303Y-5074000D01*
X27234303Y-5014000D02*
X27354303Y-5014000D01*
X27234303Y-9526000D02*
X27354303Y-9646000D01*
X27354303Y-9526000D02*
X27234303Y-9646000D01*
X27294303Y-9526000D02*
X27294303Y-9646000D01*
X27234303Y-9586000D02*
X27354303Y-9586000D01*
X28909703Y-7152600D02*
X29029703Y-7272600D01*
X29029703Y-7152600D02*
X28909703Y-7272600D01*
X28969703Y-7152600D02*
X28969703Y-7272600D01*
X28909703Y-7212600D02*
X29029703Y-7212600D01*
X28909703Y-8727400D02*
X29029703Y-8847400D01*
X29029703Y-8727400D02*
X28909703Y-8847400D01*
X28969703Y-8727400D02*
X28969703Y-8847400D01*
X28909703Y-8787400D02*
X29029703Y-8787400D01*
X28909703Y-9879400D02*
X29029703Y-9999400D01*
X29029703Y-9879400D02*
X28909703Y-9999400D01*
X28969703Y-9879400D02*
X28969703Y-9999400D01*
X28909703Y-9939400D02*
X29029703Y-9939400D01*
X28909703Y-11454200D02*
X29029703Y-11574200D01*
X29029703Y-11454200D02*
X28909703Y-11574200D01*
X28969703Y-11454200D02*
X28969703Y-11574200D01*
X28909703Y-11514200D02*
X29029703Y-11514200D01*
X28909703Y-12622600D02*
X29029703Y-12742600D01*
X29029703Y-12622600D02*
X28909703Y-12742600D01*
X28969703Y-12622600D02*
X28969703Y-12742600D01*
X28909703Y-12682600D02*
X29029703Y-12682600D01*
X28909703Y-14197400D02*
X29029703Y-14317400D01*
X29029703Y-14197400D02*
X28909703Y-14317400D01*
X28969703Y-14197400D02*
X28969703Y-14317400D01*
X28909703Y-14257400D02*
X29029703Y-14257400D01*
X28909703Y-15365800D02*
X29029703Y-15485800D01*
X29029703Y-15365800D02*
X28909703Y-15485800D01*
X28969703Y-15365800D02*
X28969703Y-15485800D01*
X28909703Y-15425800D02*
X29029703Y-15425800D01*
X28909703Y-16940600D02*
X29029703Y-17060600D01*
X29029703Y-16940600D02*
X28909703Y-17060600D01*
X28969703Y-16940600D02*
X28969703Y-17060600D01*
X28909703Y-17000600D02*
X29029703Y-17000600D01*
X33481703Y-7152600D02*
X33601703Y-7272600D01*
X33601703Y-7152600D02*
X33481703Y-7272600D01*
X33541703Y-7152600D02*
X33541703Y-7272600D01*
X33481703Y-7212600D02*
X33601703Y-7212600D01*
X33481703Y-8727400D02*
X33601703Y-8847400D01*
X33601703Y-8727400D02*
X33481703Y-8847400D01*
X33541703Y-8727400D02*
X33541703Y-8847400D01*
X33481703Y-8787400D02*
X33601703Y-8787400D01*
X33481703Y-9879400D02*
X33601703Y-9999400D01*
X33601703Y-9879400D02*
X33481703Y-9999400D01*
X33541703Y-9879400D02*
X33541703Y-9999400D01*
X33481703Y-9939400D02*
X33601703Y-9939400D01*
X33481703Y-11454200D02*
X33601703Y-11574200D01*
X33601703Y-11454200D02*
X33481703Y-11574200D01*
X33541703Y-11454200D02*
X33541703Y-11574200D01*
X33481703Y-11514200D02*
X33601703Y-11514200D01*
X33481703Y-12622600D02*
X33601703Y-12742600D01*
X33601703Y-12622600D02*
X33481703Y-12742600D01*
X33541703Y-12622600D02*
X33541703Y-12742600D01*
X33481703Y-12682600D02*
X33601703Y-12682600D01*
X33481703Y-14197400D02*
X33601703Y-14317400D01*
X33601703Y-14197400D02*
X33481703Y-14317400D01*
X33541703Y-14197400D02*
X33541703Y-14317400D01*
X33481703Y-14257400D02*
X33601703Y-14257400D01*
X33481703Y-15365800D02*
X33601703Y-15485800D01*
X33601703Y-15365800D02*
X33481703Y-15485800D01*
X33541703Y-15365800D02*
X33541703Y-15485800D01*
X33481703Y-15425800D02*
X33601703Y-15425800D01*
X33481703Y-16940600D02*
X33601703Y-17060600D01*
X33601703Y-16940600D02*
X33481703Y-17060600D01*
X33541703Y-16940600D02*
X33541703Y-17060600D01*
X33481703Y-17000600D02*
X33601703Y-17000600D01*
D19*
X4943503Y-21100100D02*
X5073503Y-21230100D01*
X5073503Y-21100100D02*
X4943503Y-21230100D01*
X5054465Y-21211062D02*
X5054465Y-21119138D01*
X4962540Y-21119138D01*
X4962540Y-21211062D01*
X5054465Y-21211062D01*
X5181203Y-12929000D02*
X5311203Y-13059000D01*
X5311203Y-12929000D02*
X5181203Y-13059000D01*
X5292165Y-13039962D02*
X5292165Y-12948038D01*
X5200240Y-12948038D01*
X5200240Y-13039962D01*
X5292165Y-13039962D01*
X5181203Y-13437000D02*
X5311203Y-13567000D01*
X5311203Y-13437000D02*
X5181203Y-13567000D01*
X5292165Y-13547962D02*
X5292165Y-13456038D01*
X5200240Y-13456038D01*
X5200240Y-13547962D01*
X5292165Y-13547962D01*
X5181203Y-13945000D02*
X5311203Y-14075000D01*
X5311203Y-13945000D02*
X5181203Y-14075000D01*
X5292165Y-14055962D02*
X5292165Y-13964038D01*
X5200240Y-13964038D01*
X5200240Y-14055962D01*
X5292165Y-14055962D01*
X5181203Y-14453000D02*
X5311203Y-14583000D01*
X5311203Y-14453000D02*
X5181203Y-14583000D01*
X5292165Y-14563962D02*
X5292165Y-14472038D01*
X5200240Y-14472038D01*
X5200240Y-14563962D01*
X5292165Y-14563962D01*
X5181203Y-14961000D02*
X5311203Y-15091000D01*
X5311203Y-14961000D02*
X5181203Y-15091000D01*
X5292165Y-15071962D02*
X5292165Y-14980038D01*
X5200240Y-14980038D01*
X5200240Y-15071962D01*
X5292165Y-15071962D01*
X5181203Y-15469000D02*
X5311203Y-15599000D01*
X5311203Y-15469000D02*
X5181203Y-15599000D01*
X5292165Y-15579962D02*
X5292165Y-15488038D01*
X5200240Y-15488038D01*
X5200240Y-15579962D01*
X5292165Y-15579962D01*
X5181203Y-15977000D02*
X5311203Y-16107000D01*
X5311203Y-15977000D02*
X5181203Y-16107000D01*
X5292165Y-16087962D02*
X5292165Y-15996038D01*
X5200240Y-15996038D01*
X5200240Y-16087962D01*
X5292165Y-16087962D01*
X5181203Y-16485000D02*
X5311203Y-16615000D01*
X5311203Y-16485000D02*
X5181203Y-16615000D01*
X5292165Y-16595962D02*
X5292165Y-16504038D01*
X5200240Y-16504038D01*
X5200240Y-16595962D01*
X5292165Y-16595962D01*
X5181203Y-16993000D02*
X5311203Y-17123000D01*
X5311203Y-16993000D02*
X5181203Y-17123000D01*
X5292165Y-17103962D02*
X5292165Y-17012038D01*
X5200240Y-17012038D01*
X5200240Y-17103962D01*
X5292165Y-17103962D01*
X5181203Y-17501000D02*
X5311203Y-17631000D01*
X5311203Y-17501000D02*
X5181203Y-17631000D01*
X5292165Y-17611962D02*
X5292165Y-17520038D01*
X5200240Y-17520038D01*
X5200240Y-17611962D01*
X5292165Y-17611962D01*
X5451503Y-21100100D02*
X5581503Y-21230100D01*
X5581503Y-21100100D02*
X5451503Y-21230100D01*
X5562465Y-21211062D02*
X5562465Y-21119138D01*
X5470540Y-21119138D01*
X5470540Y-21211062D01*
X5562465Y-21211062D01*
X5959503Y-21100100D02*
X6089503Y-21230100D01*
X6089503Y-21100100D02*
X5959503Y-21230100D01*
X6070465Y-21211062D02*
X6070465Y-21119138D01*
X5978540Y-21119138D01*
X5978540Y-21211062D01*
X6070465Y-21211062D01*
X6467503Y-21100100D02*
X6597503Y-21230100D01*
X6597503Y-21100100D02*
X6467503Y-21230100D01*
X6578465Y-21211062D02*
X6578465Y-21119138D01*
X6486540Y-21119138D01*
X6486540Y-21211062D01*
X6578465Y-21211062D01*
X6975503Y-21100100D02*
X7105503Y-21230100D01*
X7105503Y-21100100D02*
X6975503Y-21230100D01*
X7086465Y-21211062D02*
X7086465Y-21119138D01*
X6994540Y-21119138D01*
X6994540Y-21211062D01*
X7086465Y-21211062D01*
X7483503Y-21100100D02*
X7613503Y-21230100D01*
X7613503Y-21100100D02*
X7483503Y-21230100D01*
X7594465Y-21211062D02*
X7594465Y-21119138D01*
X7502540Y-21119138D01*
X7502540Y-21211062D01*
X7594465Y-21211062D01*
X7526203Y-4535500D02*
X7656203Y-4665500D01*
X7656203Y-4535500D02*
X7526203Y-4665500D01*
X7637165Y-4646462D02*
X7637165Y-4554538D01*
X7545240Y-4554538D01*
X7545240Y-4646462D01*
X7637165Y-4646462D01*
X7991503Y-21100100D02*
X8121503Y-21230100D01*
X8121503Y-21100100D02*
X7991503Y-21230100D01*
X8102465Y-21211062D02*
X8102465Y-21119138D01*
X8010540Y-21119138D01*
X8010540Y-21211062D01*
X8102465Y-21211062D01*
X8034203Y-4535500D02*
X8164203Y-4665500D01*
X8164203Y-4535500D02*
X8034203Y-4665500D01*
X8145165Y-4646462D02*
X8145165Y-4554538D01*
X8053240Y-4554538D01*
X8053240Y-4646462D01*
X8145165Y-4646462D01*
X8499503Y-21100100D02*
X8629503Y-21230100D01*
X8629503Y-21100100D02*
X8499503Y-21230100D01*
X8610465Y-21211062D02*
X8610465Y-21119138D01*
X8518540Y-21119138D01*
X8518540Y-21211062D01*
X8610465Y-21211062D01*
X9007503Y-21100100D02*
X9137503Y-21230100D01*
X9137503Y-21100100D02*
X9007503Y-21230100D01*
X9118465Y-21211062D02*
X9118465Y-21119138D01*
X9026540Y-21119138D01*
X9026540Y-21211062D01*
X9118465Y-21211062D01*
X9515503Y-21100100D02*
X9645503Y-21230100D01*
X9645503Y-21100100D02*
X9515503Y-21230100D01*
X9626465Y-21211062D02*
X9626465Y-21119138D01*
X9534540Y-21119138D01*
X9534540Y-21211062D01*
X9626465Y-21211062D01*
X10235000Y-5835000D02*
X10365000Y-5965000D01*
X10365000Y-5835000D02*
X10235000Y-5965000D01*
X10345962Y-5945962D02*
X10345962Y-5854038D01*
X10254038Y-5854038D01*
X10254038Y-5945962D01*
X10345962Y-5945962D01*
X10435000Y-5235000D02*
X10565000Y-5365000D01*
X10565000Y-5235000D02*
X10435000Y-5365000D01*
X10545962Y-5345962D02*
X10545962Y-5254038D01*
X10454038Y-5254038D01*
X10454038Y-5345962D01*
X10545962Y-5345962D01*
X10435000Y-6435000D02*
X10565000Y-6565000D01*
X10565000Y-6435000D02*
X10435000Y-6565000D01*
X10545962Y-6545962D02*
X10545962Y-6454038D01*
X10454038Y-6454038D01*
X10454038Y-6545962D01*
X10545962Y-6545962D01*
X10749053Y-21100100D02*
X10879053Y-21230100D01*
X10879053Y-21100100D02*
X10749053Y-21230100D01*
X10860015Y-21211062D02*
X10860015Y-21119138D01*
X10768090Y-21119138D01*
X10768090Y-21211062D01*
X10860015Y-21211062D01*
X11257053Y-21100100D02*
X11387053Y-21230100D01*
X11387053Y-21100100D02*
X11257053Y-21230100D01*
X11368015Y-21211062D02*
X11368015Y-21119138D01*
X11276090Y-21119138D01*
X11276090Y-21211062D01*
X11368015Y-21211062D01*
X11635000Y-5235000D02*
X11765000Y-5365000D01*
X11765000Y-5235000D02*
X11635000Y-5365000D01*
X11745962Y-5345962D02*
X11745962Y-5254038D01*
X11654038Y-5254038D01*
X11654038Y-5345962D01*
X11745962Y-5345962D01*
X11635000Y-6435000D02*
X11765000Y-6565000D01*
X11765000Y-6435000D02*
X11635000Y-6565000D01*
X11745962Y-6545962D02*
X11745962Y-6454038D01*
X11654038Y-6454038D01*
X11654038Y-6545962D01*
X11745962Y-6545962D01*
X11765053Y-21100100D02*
X11895053Y-21230100D01*
X11895053Y-21100100D02*
X11765053Y-21230100D01*
X11876015Y-21211062D02*
X11876015Y-21119138D01*
X11784090Y-21119138D01*
X11784090Y-21211062D01*
X11876015Y-21211062D01*
X12098103Y-11735000D02*
X12228103Y-11865000D01*
X12228103Y-11735000D02*
X12098103Y-11865000D01*
X12209065Y-11845962D02*
X12209065Y-11754038D01*
X12117140Y-11754038D01*
X12117140Y-11845962D01*
X12209065Y-11845962D01*
X12098103Y-12935000D02*
X12228103Y-13065000D01*
X12228103Y-12935000D02*
X12098103Y-13065000D01*
X12209065Y-13045962D02*
X12209065Y-12954038D01*
X12117140Y-12954038D01*
X12117140Y-13045962D01*
X12209065Y-13045962D01*
X12273053Y-21100100D02*
X12403053Y-21230100D01*
X12403053Y-21100100D02*
X12273053Y-21230100D01*
X12384015Y-21211062D02*
X12384015Y-21119138D01*
X12292090Y-21119138D01*
X12292090Y-21211062D01*
X12384015Y-21211062D01*
X12698103Y-11535000D02*
X12828103Y-11665000D01*
X12828103Y-11535000D02*
X12698103Y-11665000D01*
X12809065Y-11645962D02*
X12809065Y-11554038D01*
X12717140Y-11554038D01*
X12717140Y-11645962D01*
X12809065Y-11645962D01*
X12781053Y-21100100D02*
X12911053Y-21230100D01*
X12911053Y-21100100D02*
X12781053Y-21230100D01*
X12892015Y-21211062D02*
X12892015Y-21119138D01*
X12800090Y-21119138D01*
X12800090Y-21211062D01*
X12892015Y-21211062D01*
X13289053Y-21100100D02*
X13419053Y-21230100D01*
X13419053Y-21100100D02*
X13289053Y-21230100D01*
X13400015Y-21211062D02*
X13400015Y-21119138D01*
X13308090Y-21119138D01*
X13308090Y-21211062D01*
X13400015Y-21211062D01*
X13298103Y-11735000D02*
X13428103Y-11865000D01*
X13428103Y-11735000D02*
X13298103Y-11865000D01*
X13409065Y-11845962D02*
X13409065Y-11754038D01*
X13317140Y-11754038D01*
X13317140Y-11845962D01*
X13409065Y-11845962D01*
X13298103Y-12935000D02*
X13428103Y-13065000D01*
X13428103Y-12935000D02*
X13298103Y-13065000D01*
X13409065Y-13045962D02*
X13409065Y-12954038D01*
X13317140Y-12954038D01*
X13317140Y-13045962D01*
X13409065Y-13045962D01*
X13797053Y-21100100D02*
X13927053Y-21230100D01*
X13927053Y-21100100D02*
X13797053Y-21230100D01*
X13908015Y-21211062D02*
X13908015Y-21119138D01*
X13816090Y-21119138D01*
X13816090Y-21211062D01*
X13908015Y-21211062D01*
X14305053Y-21100100D02*
X14435053Y-21230100D01*
X14435053Y-21100100D02*
X14305053Y-21230100D01*
X14416015Y-21211062D02*
X14416015Y-21119138D01*
X14324090Y-21119138D01*
X14324090Y-21211062D01*
X14416015Y-21211062D01*
X14813053Y-21100100D02*
X14943053Y-21230100D01*
X14943053Y-21100100D02*
X14813053Y-21230100D01*
X14924015Y-21211062D02*
X14924015Y-21119138D01*
X14832090Y-21119138D01*
X14832090Y-21211062D01*
X14924015Y-21211062D01*
X15321053Y-21100100D02*
X15451053Y-21230100D01*
X15451053Y-21100100D02*
X15321053Y-21230100D01*
X15432015Y-21211062D02*
X15432015Y-21119138D01*
X15340090Y-21119138D01*
X15340090Y-21211062D01*
X15432015Y-21211062D01*
X16554603Y-21161100D02*
X16684603Y-21291100D01*
X16684603Y-21161100D02*
X16554603Y-21291100D01*
X16665565Y-21272062D02*
X16665565Y-21180138D01*
X16573640Y-21180138D01*
X16573640Y-21272062D01*
X16665565Y-21272062D01*
X17062603Y-21161100D02*
X17192603Y-21291100D01*
X17192603Y-21161100D02*
X17062603Y-21291100D01*
X17173565Y-21272062D02*
X17173565Y-21180138D01*
X17081640Y-21180138D01*
X17081640Y-21272062D01*
X17173565Y-21272062D01*
X17570603Y-21161100D02*
X17700603Y-21291100D01*
X17700603Y-21161100D02*
X17570603Y-21291100D01*
X17681565Y-21272062D02*
X17681565Y-21180138D01*
X17589640Y-21180138D01*
X17589640Y-21272062D01*
X17681565Y-21272062D01*
X18078603Y-21161100D02*
X18208603Y-21291100D01*
X18208603Y-21161100D02*
X18078603Y-21291100D01*
X18189565Y-21272062D02*
X18189565Y-21180138D01*
X18097640Y-21180138D01*
X18097640Y-21272062D01*
X18189565Y-21272062D01*
X18586603Y-21161100D02*
X18716603Y-21291100D01*
X18716603Y-21161100D02*
X18586603Y-21291100D01*
X18697565Y-21272062D02*
X18697565Y-21180138D01*
X18605640Y-21180138D01*
X18605640Y-21272062D01*
X18697565Y-21272062D01*
X19820153Y-21161100D02*
X19950153Y-21291100D01*
X19950153Y-21161100D02*
X19820153Y-21291100D01*
X19931115Y-21272062D02*
X19931115Y-21180138D01*
X19839190Y-21180138D01*
X19839190Y-21272062D01*
X19931115Y-21272062D01*
X20328153Y-21161100D02*
X20458153Y-21291100D01*
X20458153Y-21161100D02*
X20328153Y-21291100D01*
X20439115Y-21272062D02*
X20439115Y-21180138D01*
X20347190Y-21180138D01*
X20347190Y-21272062D01*
X20439115Y-21272062D01*
X20836153Y-21161100D02*
X20966153Y-21291100D01*
X20966153Y-21161100D02*
X20836153Y-21291100D01*
X20947115Y-21272062D02*
X20947115Y-21180138D01*
X20855190Y-21180138D01*
X20855190Y-21272062D01*
X20947115Y-21272062D01*
X21344153Y-21161100D02*
X21474153Y-21291100D01*
X21474153Y-21161100D02*
X21344153Y-21291100D01*
X21455115Y-21272062D02*
X21455115Y-21180138D01*
X21363190Y-21180138D01*
X21363190Y-21272062D01*
X21455115Y-21272062D01*
X21852153Y-21161100D02*
X21982153Y-21291100D01*
X21982153Y-21161100D02*
X21852153Y-21291100D01*
X21963115Y-21272062D02*
X21963115Y-21180138D01*
X21871190Y-21180138D01*
X21871190Y-21272062D01*
X21963115Y-21272062D01*
X23081703Y-21080600D02*
X23211703Y-21210600D01*
X23211703Y-21080600D02*
X23081703Y-21210600D01*
X23192665Y-21191562D02*
X23192665Y-21099638D01*
X23100740Y-21099638D01*
X23100740Y-21191562D01*
X23192665Y-21191562D01*
X23581703Y-21080600D02*
X23711703Y-21210600D01*
X23711703Y-21080600D02*
X23581703Y-21210600D01*
X23692665Y-21191562D02*
X23692665Y-21099638D01*
X23600740Y-21099638D01*
X23600740Y-21191562D01*
X23692665Y-21191562D01*
X24081703Y-21080600D02*
X24211703Y-21210600D01*
X24211703Y-21080600D02*
X24081703Y-21210600D01*
X24192665Y-21191562D02*
X24192665Y-21099638D01*
X24100740Y-21099638D01*
X24100740Y-21191562D01*
X24192665Y-21191562D01*
X24581703Y-21080600D02*
X24711703Y-21210600D01*
X24711703Y-21080600D02*
X24581703Y-21210600D01*
X24692665Y-21191562D02*
X24692665Y-21099638D01*
X24600740Y-21099638D01*
X24600740Y-21191562D01*
X24692665Y-21191562D01*
X25081703Y-21080600D02*
X25211703Y-21210600D01*
X25211703Y-21080600D02*
X25081703Y-21210600D01*
X25192665Y-21191562D02*
X25192665Y-21099638D01*
X25100740Y-21099638D01*
X25100740Y-21191562D01*
X25192665Y-21191562D01*
X25581703Y-21080600D02*
X25711703Y-21210600D01*
X25711703Y-21080600D02*
X25581703Y-21210600D01*
X25692665Y-21191562D02*
X25692665Y-21099638D01*
X25600740Y-21099638D01*
X25600740Y-21191562D01*
X25692665Y-21191562D01*
X26081703Y-21080600D02*
X26211703Y-21210600D01*
X26211703Y-21080600D02*
X26081703Y-21210600D01*
X26192665Y-21191562D02*
X26192665Y-21099638D01*
X26100740Y-21099638D01*
X26100740Y-21191562D01*
X26192665Y-21191562D01*
X26581703Y-21080600D02*
X26711703Y-21210600D01*
X26711703Y-21080600D02*
X26581703Y-21210600D01*
X26692665Y-21191562D02*
X26692665Y-21099638D01*
X26600740Y-21099638D01*
X26600740Y-21191562D01*
X26692665Y-21191562D01*
D20*
X11130703Y-4255000D02*
X11280703Y-4405000D01*
X11280703Y-4255000D02*
X11130703Y-4405000D01*
X11205703Y-4405000D02*
X11280703Y-4330000D01*
X11205703Y-4255000D01*
X11130703Y-4330000D01*
X11205703Y-4405000D01*
X11950703Y-4255000D02*
X12100703Y-4405000D01*
X12100703Y-4255000D02*
X11950703Y-4405000D01*
X12025703Y-4405000D02*
X12100703Y-4330000D01*
X12025703Y-4255000D01*
X11950703Y-4330000D01*
X12025703Y-4405000D01*
D21*
X5955703Y-5527500D02*
X5955703Y-5707500D01*
X5865703Y-5617500D02*
X6045703Y-5617500D01*
X6045703Y-5617500D02*
G75*
G03*
X6045703Y-5617500I-90000J0D01*
G01*
X5955703Y-6077500D02*
X5955703Y-6257500D01*
X5865703Y-6167500D02*
X6045703Y-6167500D01*
X6045703Y-6167500D02*
G75*
G03*
X6045703Y-6167500I-90000J0D01*
G01*
D11*
X7646414Y-11870711D02*
X7646414Y-11729289D01*
X7504991Y-11729289D01*
X7504991Y-11870711D01*
X7646414Y-11870711D01*
X7675703Y-11800000D02*
G75*
G03*
X7675703Y-11800000I-100000J0D01*
G01*
X8406614Y-5670711D02*
X8406614Y-5529289D01*
X8265191Y-5529289D01*
X8265191Y-5670711D01*
X8406614Y-5670711D01*
X8435903Y-5600000D02*
G75*
G03*
X8435903Y-5600000I-100000J0D01*
G01*
X9146414Y-12470711D02*
X9146414Y-12329289D01*
X9004991Y-12329289D01*
X9004991Y-12470711D01*
X9146414Y-12470711D01*
X9175703Y-12400000D02*
G75*
G03*
X9175703Y-12400000I-100000J0D01*
G01*
X11220711Y-8870711D02*
X11220711Y-8729289D01*
X11079289Y-8729289D01*
X11079289Y-8870711D01*
X11220711Y-8870711D01*
X11250000Y-8800000D02*
G75*
G03*
X11250000Y-8800000I-100000J0D01*
G01*
X11708614Y-10572911D02*
X11708614Y-10431489D01*
X11567191Y-10431489D01*
X11567191Y-10572911D01*
X11708614Y-10572911D01*
X11737903Y-10502200D02*
G75*
G03*
X11737903Y-10502200I-100000J0D01*
G01*
X13646414Y-7670711D02*
X13646414Y-7529289D01*
X13504991Y-7529289D01*
X13504991Y-7670711D01*
X13646414Y-7670711D01*
X13675703Y-7600000D02*
G75*
G03*
X13675703Y-7600000I-100000J0D01*
G01*
X16846414Y-19270711D02*
X16846414Y-19129289D01*
X16704991Y-19129289D01*
X16704991Y-19270711D01*
X16846414Y-19270711D01*
X16875703Y-19200000D02*
G75*
G03*
X16875703Y-19200000I-100000J0D01*
G01*
X19246414Y-10570711D02*
X19246414Y-10429289D01*
X19104991Y-10429289D01*
X19104991Y-10570711D01*
X19246414Y-10570711D01*
X19275703Y-10500000D02*
G75*
G03*
X19275703Y-10500000I-100000J0D01*
G01*
X23046414Y-11470711D02*
X23046414Y-11329289D01*
X22904991Y-11329289D01*
X22904991Y-11470711D01*
X23046414Y-11470711D01*
X23075703Y-11400000D02*
G75*
G03*
X23075703Y-11400000I-100000J0D01*
G01*
X23646414Y-18170711D02*
X23646414Y-18029289D01*
X23504991Y-18029289D01*
X23504991Y-18170711D01*
X23646414Y-18170711D01*
X23675703Y-18100000D02*
G75*
G03*
X23675703Y-18100000I-100000J0D01*
G01*
X25346414Y-11970711D02*
X25346414Y-11829289D01*
X25204991Y-11829289D01*
X25204991Y-11970711D01*
X25346414Y-11970711D01*
X25375703Y-11900000D02*
G75*
G03*
X25375703Y-11900000I-100000J0D01*
G01*
X27846414Y-17045711D02*
X27846414Y-16904289D01*
X27704991Y-16904289D01*
X27704991Y-17045711D01*
X27846414Y-17045711D01*
X27875703Y-16975000D02*
G75*
G03*
X27875703Y-16975000I-100000J0D01*
G01*
X28246414Y-11870711D02*
X28246414Y-11729289D01*
X28104991Y-11729289D01*
X28104991Y-11870711D01*
X28246414Y-11870711D01*
X28275703Y-11800000D02*
G75*
G03*
X28275703Y-11800000I-100000J0D01*
G01*
X34617214Y-13241311D02*
X34617214Y-13099889D01*
X34475791Y-13099889D01*
X34475791Y-13241311D01*
X34617214Y-13241311D01*
X34646503Y-13170600D02*
G75*
G03*
X34646503Y-13170600I-100000J0D01*
G01*
X34717214Y-9541311D02*
X34717214Y-9399889D01*
X34575791Y-9399889D01*
X34575791Y-9541311D01*
X34717214Y-9541311D01*
X34746503Y-9470600D02*
G75*
G03*
X34746503Y-9470600I-100000J0D01*
G01*
X35917214Y-17541311D02*
X35917214Y-17399889D01*
X35775791Y-17399889D01*
X35775791Y-17541311D01*
X35917214Y-17541311D01*
X35946503Y-17470600D02*
G75*
G03*
X35946503Y-17470600I-100000J0D01*
G01*
X35996414Y-6770711D02*
X35996414Y-6629289D01*
X35854991Y-6629289D01*
X35854991Y-6770711D01*
X35996414Y-6770711D01*
X36025703Y-6700000D02*
G75*
G03*
X36025703Y-6700000I-100000J0D01*
G01*
D22*
X28278303Y-20638400D02*
X28393303Y-20523400D01*
X28278303Y-20408400D01*
X28163303Y-20523400D01*
X28278303Y-20638400D01*
X28393303Y-20523400D02*
G75*
G03*
X28393303Y-20523400I-115000J0D01*
G01*
X28278303Y-21206400D02*
X28393303Y-21091400D01*
X28278303Y-20976400D01*
X28163303Y-21091400D01*
X28278303Y-21206400D01*
X28393303Y-21091400D02*
G75*
G03*
X28393303Y-21091400I-115000J0D01*
G01*
X29592303Y-20638400D02*
X29707303Y-20523400D01*
X29592303Y-20408400D01*
X29477303Y-20523400D01*
X29592303Y-20638400D01*
X29707303Y-20523400D02*
G75*
G03*
X29707303Y-20523400I-115000J0D01*
G01*
X29592303Y-21206400D02*
X29707303Y-21091400D01*
X29592303Y-20976400D01*
X29477303Y-21091400D01*
X29592303Y-21206400D01*
X29707303Y-21091400D02*
G75*
G03*
X29707303Y-21091400I-115000J0D01*
G01*
X32308703Y-5250000D02*
X32423703Y-5135000D01*
X32308703Y-5020000D01*
X32193703Y-5135000D01*
X32308703Y-5250000D01*
X32423703Y-5135000D02*
G75*
G03*
X32423703Y-5135000I-115000J0D01*
G01*
X32308703Y-5818000D02*
X32423703Y-5703000D01*
X32308703Y-5588000D01*
X32193703Y-5703000D01*
X32308703Y-5818000D01*
X32423703Y-5703000D02*
G75*
G03*
X32423703Y-5703000I-115000J0D01*
G01*
X33358303Y-20638400D02*
X33473303Y-20523400D01*
X33358303Y-20408400D01*
X33243303Y-20523400D01*
X33358303Y-20638400D01*
X33473303Y-20523400D02*
G75*
G03*
X33473303Y-20523400I-115000J0D01*
G01*
X33358303Y-21206400D02*
X33473303Y-21091400D01*
X33358303Y-20976400D01*
X33243303Y-21091400D01*
X33358303Y-21206400D01*
X33473303Y-21091400D02*
G75*
G03*
X33473303Y-21091400I-115000J0D01*
G01*
X33622703Y-5250000D02*
X33737703Y-5135000D01*
X33622703Y-5020000D01*
X33507703Y-5135000D01*
X33622703Y-5250000D01*
X33737703Y-5135000D02*
G75*
G03*
X33737703Y-5135000I-115000J0D01*
G01*
X33622703Y-5818000D02*
X33737703Y-5703000D01*
X33622703Y-5588000D01*
X33507703Y-5703000D01*
X33622703Y-5818000D01*
X33737703Y-5703000D02*
G75*
G03*
X33737703Y-5703000I-115000J0D01*
G01*
X34468703Y-5191800D02*
X34583703Y-5076800D01*
X34468703Y-4961800D01*
X34353703Y-5076800D01*
X34468703Y-5191800D01*
X34583703Y-5076800D02*
G75*
G03*
X34583703Y-5076800I-115000J0D01*
G01*
X34468703Y-5759800D02*
X34583703Y-5644800D01*
X34468703Y-5529800D01*
X34353703Y-5644800D01*
X34468703Y-5759800D01*
X34583703Y-5644800D02*
G75*
G03*
X34583703Y-5644800I-115000J0D01*
G01*
X34672303Y-20638400D02*
X34787303Y-20523400D01*
X34672303Y-20408400D01*
X34557303Y-20523400D01*
X34672303Y-20638400D01*
X34787303Y-20523400D02*
G75*
G03*
X34787303Y-20523400I-115000J0D01*
G01*
X34672303Y-21206400D02*
X34787303Y-21091400D01*
X34672303Y-20976400D01*
X34557303Y-21091400D01*
X34672303Y-21206400D01*
X34787303Y-21091400D02*
G75*
G03*
X34787303Y-21091400I-115000J0D01*
G01*
X35782703Y-5191800D02*
X35897703Y-5076800D01*
X35782703Y-4961800D01*
X35667703Y-5076800D01*
X35782703Y-5191800D01*
X35897703Y-5076800D02*
G75*
G03*
X35897703Y-5076800I-115000J0D01*
G01*
X35782703Y-5759800D02*
X35897703Y-5644800D01*
X35782703Y-5529800D01*
X35667703Y-5644800D01*
X35782703Y-5759800D01*
X35897703Y-5644800D02*
G75*
G03*
X35897703Y-5644800I-115000J0D01*
G01*
D11*
X4883322Y-22565476D02*
X4883322Y-22365476D01*
X4930941Y-22365476D01*
X4959512Y-22375000D01*
X4978560Y-22394048D01*
X4988084Y-22413095D01*
X4997607Y-22451190D01*
X4997607Y-22479762D01*
X4988084Y-22517857D01*
X4978560Y-22536905D01*
X4959512Y-22555952D01*
X4930941Y-22565476D01*
X4883322Y-22565476D01*
X5083322Y-22565476D02*
X5083322Y-22432143D01*
X5083322Y-22470238D02*
X5092845Y-22451190D01*
X5102369Y-22441667D01*
X5121417Y-22432143D01*
X5140465Y-22432143D01*
X5207131Y-22565476D02*
X5207131Y-22432143D01*
X5207131Y-22365476D02*
X5197607Y-22375000D01*
X5207131Y-22384524D01*
X5216655Y-22375000D01*
X5207131Y-22365476D01*
X5207131Y-22384524D01*
X5330941Y-22565476D02*
X5311893Y-22555952D01*
X5302369Y-22536905D01*
X5302369Y-22365476D01*
X5435703Y-22565476D02*
X5416655Y-22555952D01*
X5407131Y-22536905D01*
X5407131Y-22365476D01*
X5664274Y-22565476D02*
X5664274Y-22365476D01*
X5730941Y-22508333D01*
X5797607Y-22365476D01*
X5797607Y-22565476D01*
X5978560Y-22565476D02*
X5978560Y-22460714D01*
X5969036Y-22441667D01*
X5949988Y-22432143D01*
X5911893Y-22432143D01*
X5892845Y-22441667D01*
X5978560Y-22555952D02*
X5959512Y-22565476D01*
X5911893Y-22565476D01*
X5892845Y-22555952D01*
X5883322Y-22536905D01*
X5883322Y-22517857D01*
X5892845Y-22498809D01*
X5911893Y-22489286D01*
X5959512Y-22489286D01*
X5978560Y-22479762D01*
X6073798Y-22432143D02*
X6073798Y-22632143D01*
X6073798Y-22441667D02*
X6092845Y-22432143D01*
X6130941Y-22432143D01*
X6149988Y-22441667D01*
X6159512Y-22451190D01*
X6169036Y-22470238D01*
X6169036Y-22527381D01*
X6159512Y-22546428D01*
X6149988Y-22555952D01*
X6130941Y-22565476D01*
X6092845Y-22565476D01*
X6073798Y-22555952D01*
X6254750Y-22546428D02*
X6264274Y-22555952D01*
X6254750Y-22565476D01*
X6245226Y-22555952D01*
X6254750Y-22546428D01*
X6254750Y-22565476D01*
X6254750Y-22441667D02*
X6264274Y-22451190D01*
X6254750Y-22460714D01*
X6245226Y-22451190D01*
X6254750Y-22441667D01*
X6254750Y-22460714D01*
D12*
X4585703Y-22875000D02*
X4625703Y-22915000D01*
X4625703Y-22875000D02*
X4585703Y-22915000D01*
D11*
X4921417Y-22785476D02*
X4940465Y-22785476D01*
X4959512Y-22795000D01*
X4969036Y-22804524D01*
X4978560Y-22823571D01*
X4988084Y-22861667D01*
X4988084Y-22909286D01*
X4978560Y-22947381D01*
X4969036Y-22966428D01*
X4959512Y-22975952D01*
X4940465Y-22985476D01*
X4921417Y-22985476D01*
X4902369Y-22975952D01*
X4892845Y-22966428D01*
X4883322Y-22947381D01*
X4873798Y-22909286D01*
X4873798Y-22861667D01*
X4883322Y-22823571D01*
X4892845Y-22804524D01*
X4902369Y-22795000D01*
X4921417Y-22785476D01*
X5073798Y-22966428D02*
X5083322Y-22975952D01*
X5073798Y-22985476D01*
X5064274Y-22975952D01*
X5073798Y-22966428D01*
X5073798Y-22985476D01*
X5254750Y-22852143D02*
X5254750Y-22985476D01*
X5207131Y-22775952D02*
X5159512Y-22918809D01*
X5283322Y-22918809D01*
X5397607Y-22785476D02*
X5416655Y-22785476D01*
X5435703Y-22795000D01*
X5445226Y-22804524D01*
X5454750Y-22823571D01*
X5464274Y-22861667D01*
X5464274Y-22909286D01*
X5454750Y-22947381D01*
X5445226Y-22966428D01*
X5435703Y-22975952D01*
X5416655Y-22985476D01*
X5397607Y-22985476D01*
X5378560Y-22975952D01*
X5369036Y-22966428D01*
X5359512Y-22947381D01*
X5349988Y-22909286D01*
X5349988Y-22861667D01*
X5359512Y-22823571D01*
X5369036Y-22804524D01*
X5378560Y-22795000D01*
X5397607Y-22785476D01*
X5588084Y-22785476D02*
X5607131Y-22785476D01*
X5626179Y-22795000D01*
X5635703Y-22804524D01*
X5645226Y-22823571D01*
X5654750Y-22861667D01*
X5654750Y-22909286D01*
X5645226Y-22947381D01*
X5635703Y-22966428D01*
X5626179Y-22975952D01*
X5607131Y-22985476D01*
X5588084Y-22985476D01*
X5569036Y-22975952D01*
X5559512Y-22966428D01*
X5549988Y-22947381D01*
X5540465Y-22909286D01*
X5540465Y-22861667D01*
X5549988Y-22823571D01*
X5559512Y-22804524D01*
X5569036Y-22795000D01*
X5588084Y-22785476D01*
X5740464Y-22985476D02*
X5740464Y-22852143D01*
X5740464Y-22871190D02*
X5749988Y-22861667D01*
X5769036Y-22852143D01*
X5797607Y-22852143D01*
X5816655Y-22861667D01*
X5826179Y-22880714D01*
X5826179Y-22985476D01*
X5826179Y-22880714D02*
X5835703Y-22861667D01*
X5854750Y-22852143D01*
X5883322Y-22852143D01*
X5902369Y-22861667D01*
X5911893Y-22880714D01*
X5911893Y-22985476D01*
X6007131Y-22985476D02*
X6007131Y-22852143D01*
X6007131Y-22871190D02*
X6016655Y-22861667D01*
X6035703Y-22852143D01*
X6064274Y-22852143D01*
X6083322Y-22861667D01*
X6092845Y-22880714D01*
X6092845Y-22985476D01*
X6092845Y-22880714D02*
X6102369Y-22861667D01*
X6121417Y-22852143D01*
X6149988Y-22852143D01*
X6169036Y-22861667D01*
X6178560Y-22880714D01*
X6178560Y-22985476D01*
X6569036Y-22775952D02*
X6397607Y-23033095D01*
X6826179Y-22785476D02*
X6845226Y-22785476D01*
X6864274Y-22795000D01*
X6873798Y-22804524D01*
X6883322Y-22823571D01*
X6892845Y-22861667D01*
X6892845Y-22909286D01*
X6883322Y-22947381D01*
X6873798Y-22966428D01*
X6864274Y-22975952D01*
X6845226Y-22985476D01*
X6826179Y-22985476D01*
X6807131Y-22975952D01*
X6797607Y-22966428D01*
X6788083Y-22947381D01*
X6778560Y-22909286D01*
X6778560Y-22861667D01*
X6788083Y-22823571D01*
X6797607Y-22804524D01*
X6807131Y-22795000D01*
X6826179Y-22785476D01*
X6978560Y-22966428D02*
X6988083Y-22975952D01*
X6978560Y-22985476D01*
X6969036Y-22975952D01*
X6978560Y-22966428D01*
X6978560Y-22985476D01*
X7111893Y-22785476D02*
X7130941Y-22785476D01*
X7149988Y-22795000D01*
X7159512Y-22804524D01*
X7169036Y-22823571D01*
X7178560Y-22861667D01*
X7178560Y-22909286D01*
X7169036Y-22947381D01*
X7159512Y-22966428D01*
X7149988Y-22975952D01*
X7130941Y-22985476D01*
X7111893Y-22985476D01*
X7092845Y-22975952D01*
X7083322Y-22966428D01*
X7073798Y-22947381D01*
X7064274Y-22909286D01*
X7064274Y-22861667D01*
X7073798Y-22823571D01*
X7083322Y-22804524D01*
X7092845Y-22795000D01*
X7111893Y-22785476D01*
X7369036Y-22985476D02*
X7254750Y-22985476D01*
X7311893Y-22985476D02*
X7311893Y-22785476D01*
X7292845Y-22814048D01*
X7273798Y-22833095D01*
X7254750Y-22842619D01*
X7549988Y-22785476D02*
X7454750Y-22785476D01*
X7445226Y-22880714D01*
X7454750Y-22871190D01*
X7473798Y-22861667D01*
X7521417Y-22861667D01*
X7540464Y-22871190D01*
X7549988Y-22880714D01*
X7559512Y-22899762D01*
X7559512Y-22947381D01*
X7549988Y-22966428D01*
X7540464Y-22975952D01*
X7521417Y-22985476D01*
X7473798Y-22985476D01*
X7454750Y-22975952D01*
X7445226Y-22966428D01*
X7626179Y-22785476D02*
X7759512Y-22785476D01*
X7673798Y-22985476D01*
X7826179Y-22785476D02*
X7826179Y-22823571D01*
X7902369Y-22785476D02*
X7902369Y-22823571D01*
X8197607Y-23061667D02*
X8188083Y-23052143D01*
X8169036Y-23023571D01*
X8159512Y-23004524D01*
X8149988Y-22975952D01*
X8140464Y-22928333D01*
X8140464Y-22890238D01*
X8149988Y-22842619D01*
X8159512Y-22814048D01*
X8169036Y-22795000D01*
X8188083Y-22766428D01*
X8197607Y-22756905D01*
X8254750Y-22785476D02*
X8388083Y-22785476D01*
X8302369Y-22985476D01*
X8454750Y-22804524D02*
X8464274Y-22795000D01*
X8483322Y-22785476D01*
X8530941Y-22785476D01*
X8549988Y-22795000D01*
X8559512Y-22804524D01*
X8569036Y-22823571D01*
X8569036Y-22842619D01*
X8559512Y-22871190D01*
X8445226Y-22985476D01*
X8569036Y-22985476D01*
X8807131Y-22985476D02*
X8807131Y-22785476D01*
X8892845Y-22985476D02*
X8892845Y-22880714D01*
X8883322Y-22861667D01*
X8864274Y-22852143D01*
X8835703Y-22852143D01*
X8816655Y-22861667D01*
X8807131Y-22871190D01*
X9016655Y-22985476D02*
X8997607Y-22975952D01*
X8988084Y-22966428D01*
X8978560Y-22947381D01*
X8978560Y-22890238D01*
X8988084Y-22871190D01*
X8997607Y-22861667D01*
X9016655Y-22852143D01*
X9045226Y-22852143D01*
X9064274Y-22861667D01*
X9073798Y-22871190D01*
X9083322Y-22890238D01*
X9083322Y-22947381D01*
X9073798Y-22966428D01*
X9064274Y-22975952D01*
X9045226Y-22985476D01*
X9016655Y-22985476D01*
X9197607Y-22985476D02*
X9178560Y-22975952D01*
X9169036Y-22956905D01*
X9169036Y-22785476D01*
X9349988Y-22975952D02*
X9330941Y-22985476D01*
X9292845Y-22985476D01*
X9273798Y-22975952D01*
X9264274Y-22956905D01*
X9264274Y-22880714D01*
X9273798Y-22861667D01*
X9292845Y-22852143D01*
X9330941Y-22852143D01*
X9349988Y-22861667D01*
X9359512Y-22880714D01*
X9359512Y-22899762D01*
X9264274Y-22918809D01*
X9435703Y-22975952D02*
X9454750Y-22985476D01*
X9492845Y-22985476D01*
X9511893Y-22975952D01*
X9521417Y-22956905D01*
X9521417Y-22947381D01*
X9511893Y-22928333D01*
X9492845Y-22918809D01*
X9464274Y-22918809D01*
X9445226Y-22909286D01*
X9435703Y-22890238D01*
X9435703Y-22880714D01*
X9445226Y-22861667D01*
X9464274Y-22852143D01*
X9492845Y-22852143D01*
X9511893Y-22861667D01*
X9588084Y-23061667D02*
X9597607Y-23052143D01*
X9616655Y-23023571D01*
X9626179Y-23004524D01*
X9635703Y-22975952D01*
X9645226Y-22928333D01*
X9645226Y-22890238D01*
X9635703Y-22842619D01*
X9626179Y-22814048D01*
X9616655Y-22795000D01*
X9597607Y-22766428D01*
X9588084Y-22756905D01*
D13*
X4625703Y-23159000D02*
G75*
G03*
X4625703Y-23159000I-40000J0D01*
G01*
D11*
X4921417Y-23049476D02*
X4940465Y-23049476D01*
X4959512Y-23059000D01*
X4969036Y-23068524D01*
X4978560Y-23087571D01*
X4988084Y-23125667D01*
X4988084Y-23173286D01*
X4978560Y-23211381D01*
X4969036Y-23230428D01*
X4959512Y-23239952D01*
X4940465Y-23249476D01*
X4921417Y-23249476D01*
X4902369Y-23239952D01*
X4892845Y-23230428D01*
X4883322Y-23211381D01*
X4873798Y-23173286D01*
X4873798Y-23125667D01*
X4883322Y-23087571D01*
X4892845Y-23068524D01*
X4902369Y-23059000D01*
X4921417Y-23049476D01*
X5073798Y-23230428D02*
X5083322Y-23239952D01*
X5073798Y-23249476D01*
X5064274Y-23239952D01*
X5073798Y-23230428D01*
X5073798Y-23249476D01*
X5197607Y-23135190D02*
X5178560Y-23125667D01*
X5169036Y-23116143D01*
X5159512Y-23097095D01*
X5159512Y-23087571D01*
X5169036Y-23068524D01*
X5178560Y-23059000D01*
X5197607Y-23049476D01*
X5235703Y-23049476D01*
X5254750Y-23059000D01*
X5264274Y-23068524D01*
X5273798Y-23087571D01*
X5273798Y-23097095D01*
X5264274Y-23116143D01*
X5254750Y-23125667D01*
X5235703Y-23135190D01*
X5197607Y-23135190D01*
X5178560Y-23144714D01*
X5169036Y-23154238D01*
X5159512Y-23173286D01*
X5159512Y-23211381D01*
X5169036Y-23230428D01*
X5178560Y-23239952D01*
X5197607Y-23249476D01*
X5235703Y-23249476D01*
X5254750Y-23239952D01*
X5264274Y-23230428D01*
X5273798Y-23211381D01*
X5273798Y-23173286D01*
X5264274Y-23154238D01*
X5254750Y-23144714D01*
X5235703Y-23135190D01*
X5397607Y-23049476D02*
X5416655Y-23049476D01*
X5435703Y-23059000D01*
X5445226Y-23068524D01*
X5454750Y-23087571D01*
X5464274Y-23125667D01*
X5464274Y-23173286D01*
X5454750Y-23211381D01*
X5445226Y-23230428D01*
X5435703Y-23239952D01*
X5416655Y-23249476D01*
X5397607Y-23249476D01*
X5378560Y-23239952D01*
X5369036Y-23230428D01*
X5359512Y-23211381D01*
X5349988Y-23173286D01*
X5349988Y-23125667D01*
X5359512Y-23087571D01*
X5369036Y-23068524D01*
X5378560Y-23059000D01*
X5397607Y-23049476D01*
X5588084Y-23049476D02*
X5607131Y-23049476D01*
X5626179Y-23059000D01*
X5635703Y-23068524D01*
X5645226Y-23087571D01*
X5654750Y-23125667D01*
X5654750Y-23173286D01*
X5645226Y-23211381D01*
X5635703Y-23230428D01*
X5626179Y-23239952D01*
X5607131Y-23249476D01*
X5588084Y-23249476D01*
X5569036Y-23239952D01*
X5559512Y-23230428D01*
X5549988Y-23211381D01*
X5540465Y-23173286D01*
X5540465Y-23125667D01*
X5549988Y-23087571D01*
X5559512Y-23068524D01*
X5569036Y-23059000D01*
X5588084Y-23049476D01*
X5740464Y-23249476D02*
X5740464Y-23116143D01*
X5740464Y-23135190D02*
X5749988Y-23125667D01*
X5769036Y-23116143D01*
X5797607Y-23116143D01*
X5816655Y-23125667D01*
X5826179Y-23144714D01*
X5826179Y-23249476D01*
X5826179Y-23144714D02*
X5835703Y-23125667D01*
X5854750Y-23116143D01*
X5883322Y-23116143D01*
X5902369Y-23125667D01*
X5911893Y-23144714D01*
X5911893Y-23249476D01*
X6007131Y-23249476D02*
X6007131Y-23116143D01*
X6007131Y-23135190D02*
X6016655Y-23125667D01*
X6035703Y-23116143D01*
X6064274Y-23116143D01*
X6083322Y-23125667D01*
X6092845Y-23144714D01*
X6092845Y-23249476D01*
X6092845Y-23144714D02*
X6102369Y-23125667D01*
X6121417Y-23116143D01*
X6149988Y-23116143D01*
X6169036Y-23125667D01*
X6178560Y-23144714D01*
X6178560Y-23249476D01*
X6569036Y-23039952D02*
X6397607Y-23297095D01*
X6826179Y-23049476D02*
X6845226Y-23049476D01*
X6864274Y-23059000D01*
X6873798Y-23068524D01*
X6883322Y-23087571D01*
X6892845Y-23125667D01*
X6892845Y-23173286D01*
X6883322Y-23211381D01*
X6873798Y-23230428D01*
X6864274Y-23239952D01*
X6845226Y-23249476D01*
X6826179Y-23249476D01*
X6807131Y-23239952D01*
X6797607Y-23230428D01*
X6788083Y-23211381D01*
X6778560Y-23173286D01*
X6778560Y-23125667D01*
X6788083Y-23087571D01*
X6797607Y-23068524D01*
X6807131Y-23059000D01*
X6826179Y-23049476D01*
X6978560Y-23230428D02*
X6988083Y-23239952D01*
X6978560Y-23249476D01*
X6969036Y-23239952D01*
X6978560Y-23230428D01*
X6978560Y-23249476D01*
X7111893Y-23049476D02*
X7130941Y-23049476D01*
X7149988Y-23059000D01*
X7159512Y-23068524D01*
X7169036Y-23087571D01*
X7178560Y-23125667D01*
X7178560Y-23173286D01*
X7169036Y-23211381D01*
X7159512Y-23230428D01*
X7149988Y-23239952D01*
X7130941Y-23249476D01*
X7111893Y-23249476D01*
X7092845Y-23239952D01*
X7083322Y-23230428D01*
X7073798Y-23211381D01*
X7064274Y-23173286D01*
X7064274Y-23125667D01*
X7073798Y-23087571D01*
X7083322Y-23068524D01*
X7092845Y-23059000D01*
X7111893Y-23049476D01*
X7245226Y-23049476D02*
X7369036Y-23049476D01*
X7302369Y-23125667D01*
X7330941Y-23125667D01*
X7349988Y-23135190D01*
X7359512Y-23144714D01*
X7369036Y-23163762D01*
X7369036Y-23211381D01*
X7359512Y-23230428D01*
X7349988Y-23239952D01*
X7330941Y-23249476D01*
X7273798Y-23249476D01*
X7254750Y-23239952D01*
X7245226Y-23230428D01*
X7559512Y-23249476D02*
X7445226Y-23249476D01*
X7502369Y-23249476D02*
X7502369Y-23049476D01*
X7483322Y-23078048D01*
X7464274Y-23097095D01*
X7445226Y-23106619D01*
X7740464Y-23049476D02*
X7645226Y-23049476D01*
X7635702Y-23144714D01*
X7645226Y-23135190D01*
X7664274Y-23125667D01*
X7711893Y-23125667D01*
X7730941Y-23135190D01*
X7740464Y-23144714D01*
X7749988Y-23163762D01*
X7749988Y-23211381D01*
X7740464Y-23230428D01*
X7730941Y-23239952D01*
X7711893Y-23249476D01*
X7664274Y-23249476D01*
X7645226Y-23239952D01*
X7635702Y-23230428D01*
X7826179Y-23049476D02*
X7826179Y-23087571D01*
X7902369Y-23049476D02*
X7902369Y-23087571D01*
X8197607Y-23325667D02*
X8188083Y-23316143D01*
X8169036Y-23287571D01*
X8159512Y-23268524D01*
X8149988Y-23239952D01*
X8140464Y-23192333D01*
X8140464Y-23154238D01*
X8149988Y-23106619D01*
X8159512Y-23078048D01*
X8169036Y-23059000D01*
X8188083Y-23030428D01*
X8197607Y-23020905D01*
X8378560Y-23249476D02*
X8264274Y-23249476D01*
X8321417Y-23249476D02*
X8321417Y-23049476D01*
X8302369Y-23078048D01*
X8283322Y-23097095D01*
X8264274Y-23106619D01*
X8454750Y-23068524D02*
X8464274Y-23059000D01*
X8483322Y-23049476D01*
X8530941Y-23049476D01*
X8549988Y-23059000D01*
X8559512Y-23068524D01*
X8569036Y-23087571D01*
X8569036Y-23106619D01*
X8559512Y-23135190D01*
X8445226Y-23249476D01*
X8569036Y-23249476D01*
X8807131Y-23249476D02*
X8807131Y-23049476D01*
X8892845Y-23249476D02*
X8892845Y-23144714D01*
X8883322Y-23125667D01*
X8864274Y-23116143D01*
X8835703Y-23116143D01*
X8816655Y-23125667D01*
X8807131Y-23135190D01*
X9016655Y-23249476D02*
X8997607Y-23239952D01*
X8988084Y-23230428D01*
X8978560Y-23211381D01*
X8978560Y-23154238D01*
X8988084Y-23135190D01*
X8997607Y-23125667D01*
X9016655Y-23116143D01*
X9045226Y-23116143D01*
X9064274Y-23125667D01*
X9073798Y-23135190D01*
X9083322Y-23154238D01*
X9083322Y-23211381D01*
X9073798Y-23230428D01*
X9064274Y-23239952D01*
X9045226Y-23249476D01*
X9016655Y-23249476D01*
X9197607Y-23249476D02*
X9178560Y-23239952D01*
X9169036Y-23220905D01*
X9169036Y-23049476D01*
X9349988Y-23239952D02*
X9330941Y-23249476D01*
X9292845Y-23249476D01*
X9273798Y-23239952D01*
X9264274Y-23220905D01*
X9264274Y-23144714D01*
X9273798Y-23125667D01*
X9292845Y-23116143D01*
X9330941Y-23116143D01*
X9349988Y-23125667D01*
X9359512Y-23144714D01*
X9359512Y-23163762D01*
X9264274Y-23182809D01*
X9435703Y-23239952D02*
X9454750Y-23249476D01*
X9492845Y-23249476D01*
X9511893Y-23239952D01*
X9521417Y-23220905D01*
X9521417Y-23211381D01*
X9511893Y-23192333D01*
X9492845Y-23182809D01*
X9464274Y-23182809D01*
X9445226Y-23173286D01*
X9435703Y-23154238D01*
X9435703Y-23144714D01*
X9445226Y-23125667D01*
X9464274Y-23116143D01*
X9492845Y-23116143D01*
X9511893Y-23125667D01*
X9588084Y-23325667D02*
X9597607Y-23316143D01*
X9616655Y-23287571D01*
X9626179Y-23268524D01*
X9635703Y-23239952D01*
X9645226Y-23192333D01*
X9645226Y-23154238D01*
X9635703Y-23106619D01*
X9626179Y-23078048D01*
X9616655Y-23059000D01*
X9597607Y-23030428D01*
X9588084Y-23020905D01*
D14*
X4580703Y-23378000D02*
X4580703Y-23468000D01*
X4535703Y-23423000D02*
X4625703Y-23423000D01*
D11*
X4921417Y-23313476D02*
X4940465Y-23313476D01*
X4959512Y-23323000D01*
X4969036Y-23332524D01*
X4978560Y-23351571D01*
X4988084Y-23389667D01*
X4988084Y-23437286D01*
X4978560Y-23475381D01*
X4969036Y-23494428D01*
X4959512Y-23503952D01*
X4940465Y-23513476D01*
X4921417Y-23513476D01*
X4902369Y-23503952D01*
X4892845Y-23494428D01*
X4883322Y-23475381D01*
X4873798Y-23437286D01*
X4873798Y-23389667D01*
X4883322Y-23351571D01*
X4892845Y-23332524D01*
X4902369Y-23323000D01*
X4921417Y-23313476D01*
X5073798Y-23494428D02*
X5083322Y-23503952D01*
X5073798Y-23513476D01*
X5064274Y-23503952D01*
X5073798Y-23494428D01*
X5073798Y-23513476D01*
X5178560Y-23513476D02*
X5216655Y-23513476D01*
X5235703Y-23503952D01*
X5245226Y-23494428D01*
X5264274Y-23465857D01*
X5273798Y-23427762D01*
X5273798Y-23351571D01*
X5264274Y-23332524D01*
X5254750Y-23323000D01*
X5235703Y-23313476D01*
X5197607Y-23313476D01*
X5178560Y-23323000D01*
X5169036Y-23332524D01*
X5159512Y-23351571D01*
X5159512Y-23399190D01*
X5169036Y-23418238D01*
X5178560Y-23427762D01*
X5197607Y-23437286D01*
X5235703Y-23437286D01*
X5254750Y-23427762D01*
X5264274Y-23418238D01*
X5273798Y-23399190D01*
X5397607Y-23313476D02*
X5416655Y-23313476D01*
X5435703Y-23323000D01*
X5445226Y-23332524D01*
X5454750Y-23351571D01*
X5464274Y-23389667D01*
X5464274Y-23437286D01*
X5454750Y-23475381D01*
X5445226Y-23494428D01*
X5435703Y-23503952D01*
X5416655Y-23513476D01*
X5397607Y-23513476D01*
X5378560Y-23503952D01*
X5369036Y-23494428D01*
X5359512Y-23475381D01*
X5349988Y-23437286D01*
X5349988Y-23389667D01*
X5359512Y-23351571D01*
X5369036Y-23332524D01*
X5378560Y-23323000D01*
X5397607Y-23313476D01*
X5588084Y-23313476D02*
X5607131Y-23313476D01*
X5626179Y-23323000D01*
X5635703Y-23332524D01*
X5645226Y-23351571D01*
X5654750Y-23389667D01*
X5654750Y-23437286D01*
X5645226Y-23475381D01*
X5635703Y-23494428D01*
X5626179Y-23503952D01*
X5607131Y-23513476D01*
X5588084Y-23513476D01*
X5569036Y-23503952D01*
X5559512Y-23494428D01*
X5549988Y-23475381D01*
X5540465Y-23437286D01*
X5540465Y-23389667D01*
X5549988Y-23351571D01*
X5559512Y-23332524D01*
X5569036Y-23323000D01*
X5588084Y-23313476D01*
X5740464Y-23513476D02*
X5740464Y-23380143D01*
X5740464Y-23399190D02*
X5749988Y-23389667D01*
X5769036Y-23380143D01*
X5797607Y-23380143D01*
X5816655Y-23389667D01*
X5826179Y-23408714D01*
X5826179Y-23513476D01*
X5826179Y-23408714D02*
X5835703Y-23389667D01*
X5854750Y-23380143D01*
X5883322Y-23380143D01*
X5902369Y-23389667D01*
X5911893Y-23408714D01*
X5911893Y-23513476D01*
X6007131Y-23513476D02*
X6007131Y-23380143D01*
X6007131Y-23399190D02*
X6016655Y-23389667D01*
X6035703Y-23380143D01*
X6064274Y-23380143D01*
X6083322Y-23389667D01*
X6092845Y-23408714D01*
X6092845Y-23513476D01*
X6092845Y-23408714D02*
X6102369Y-23389667D01*
X6121417Y-23380143D01*
X6149988Y-23380143D01*
X6169036Y-23389667D01*
X6178560Y-23408714D01*
X6178560Y-23513476D01*
X6569036Y-23303952D02*
X6397607Y-23561095D01*
X6826179Y-23313476D02*
X6845226Y-23313476D01*
X6864274Y-23323000D01*
X6873798Y-23332524D01*
X6883322Y-23351571D01*
X6892845Y-23389667D01*
X6892845Y-23437286D01*
X6883322Y-23475381D01*
X6873798Y-23494428D01*
X6864274Y-23503952D01*
X6845226Y-23513476D01*
X6826179Y-23513476D01*
X6807131Y-23503952D01*
X6797607Y-23494428D01*
X6788083Y-23475381D01*
X6778560Y-23437286D01*
X6778560Y-23389667D01*
X6788083Y-23351571D01*
X6797607Y-23332524D01*
X6807131Y-23323000D01*
X6826179Y-23313476D01*
X6978560Y-23494428D02*
X6988083Y-23503952D01*
X6978560Y-23513476D01*
X6969036Y-23503952D01*
X6978560Y-23494428D01*
X6978560Y-23513476D01*
X7111893Y-23313476D02*
X7130941Y-23313476D01*
X7149988Y-23323000D01*
X7159512Y-23332524D01*
X7169036Y-23351571D01*
X7178560Y-23389667D01*
X7178560Y-23437286D01*
X7169036Y-23475381D01*
X7159512Y-23494428D01*
X7149988Y-23503952D01*
X7130941Y-23513476D01*
X7111893Y-23513476D01*
X7092845Y-23503952D01*
X7083322Y-23494428D01*
X7073798Y-23475381D01*
X7064274Y-23437286D01*
X7064274Y-23389667D01*
X7073798Y-23351571D01*
X7083322Y-23332524D01*
X7092845Y-23323000D01*
X7111893Y-23313476D01*
X7245226Y-23313476D02*
X7369036Y-23313476D01*
X7302369Y-23389667D01*
X7330941Y-23389667D01*
X7349988Y-23399190D01*
X7359512Y-23408714D01*
X7369036Y-23427762D01*
X7369036Y-23475381D01*
X7359512Y-23494428D01*
X7349988Y-23503952D01*
X7330941Y-23513476D01*
X7273798Y-23513476D01*
X7254750Y-23503952D01*
X7245226Y-23494428D01*
X7549988Y-23313476D02*
X7454750Y-23313476D01*
X7445226Y-23408714D01*
X7454750Y-23399190D01*
X7473798Y-23389667D01*
X7521417Y-23389667D01*
X7540464Y-23399190D01*
X7549988Y-23408714D01*
X7559512Y-23427762D01*
X7559512Y-23475381D01*
X7549988Y-23494428D01*
X7540464Y-23503952D01*
X7521417Y-23513476D01*
X7473798Y-23513476D01*
X7454750Y-23503952D01*
X7445226Y-23494428D01*
X7730941Y-23380143D02*
X7730941Y-23513476D01*
X7683322Y-23303952D02*
X7635702Y-23446809D01*
X7759512Y-23446809D01*
X7826179Y-23313476D02*
X7826179Y-23351571D01*
X7902369Y-23313476D02*
X7902369Y-23351571D01*
X8197607Y-23589667D02*
X8188083Y-23580143D01*
X8169036Y-23551571D01*
X8159512Y-23532524D01*
X8149988Y-23503952D01*
X8140464Y-23456333D01*
X8140464Y-23418238D01*
X8149988Y-23370619D01*
X8159512Y-23342048D01*
X8169036Y-23323000D01*
X8188083Y-23294428D01*
X8197607Y-23284905D01*
X8254750Y-23313476D02*
X8378560Y-23313476D01*
X8311893Y-23389667D01*
X8340464Y-23389667D01*
X8359512Y-23399190D01*
X8369036Y-23408714D01*
X8378560Y-23427762D01*
X8378560Y-23475381D01*
X8369036Y-23494428D01*
X8359512Y-23503952D01*
X8340464Y-23513476D01*
X8283322Y-23513476D01*
X8264274Y-23503952D01*
X8254750Y-23494428D01*
X8616655Y-23513476D02*
X8616655Y-23313476D01*
X8702369Y-23513476D02*
X8702369Y-23408714D01*
X8692845Y-23389667D01*
X8673798Y-23380143D01*
X8645226Y-23380143D01*
X8626179Y-23389667D01*
X8616655Y-23399190D01*
X8826179Y-23513476D02*
X8807131Y-23503952D01*
X8797607Y-23494428D01*
X8788084Y-23475381D01*
X8788084Y-23418238D01*
X8797607Y-23399190D01*
X8807131Y-23389667D01*
X8826179Y-23380143D01*
X8854750Y-23380143D01*
X8873798Y-23389667D01*
X8883322Y-23399190D01*
X8892845Y-23418238D01*
X8892845Y-23475381D01*
X8883322Y-23494428D01*
X8873798Y-23503952D01*
X8854750Y-23513476D01*
X8826179Y-23513476D01*
X9007131Y-23513476D02*
X8988084Y-23503952D01*
X8978560Y-23484905D01*
X8978560Y-23313476D01*
X9159512Y-23503952D02*
X9140465Y-23513476D01*
X9102369Y-23513476D01*
X9083322Y-23503952D01*
X9073798Y-23484905D01*
X9073798Y-23408714D01*
X9083322Y-23389667D01*
X9102369Y-23380143D01*
X9140465Y-23380143D01*
X9159512Y-23389667D01*
X9169036Y-23408714D01*
X9169036Y-23427762D01*
X9073798Y-23446809D01*
X9245226Y-23503952D02*
X9264274Y-23513476D01*
X9302369Y-23513476D01*
X9321417Y-23503952D01*
X9330941Y-23484905D01*
X9330941Y-23475381D01*
X9321417Y-23456333D01*
X9302369Y-23446809D01*
X9273798Y-23446809D01*
X9254750Y-23437286D01*
X9245226Y-23418238D01*
X9245226Y-23408714D01*
X9254750Y-23389667D01*
X9273798Y-23380143D01*
X9302369Y-23380143D01*
X9321417Y-23389667D01*
X9397607Y-23589667D02*
X9407131Y-23580143D01*
X9426179Y-23551571D01*
X9435703Y-23532524D01*
X9445226Y-23503952D01*
X9454750Y-23456333D01*
X9454750Y-23418238D01*
X9445226Y-23370619D01*
X9435703Y-23342048D01*
X9426179Y-23323000D01*
X9407131Y-23294428D01*
X9397607Y-23284905D01*
D15*
X4612230Y-23719527D02*
X4612230Y-23654473D01*
X4547175Y-23654473D01*
X4547175Y-23719527D01*
X4612230Y-23719527D01*
D11*
X4921417Y-23577476D02*
X4940465Y-23577476D01*
X4959512Y-23587000D01*
X4969036Y-23596524D01*
X4978560Y-23615571D01*
X4988084Y-23653667D01*
X4988084Y-23701286D01*
X4978560Y-23739381D01*
X4969036Y-23758428D01*
X4959512Y-23767952D01*
X4940465Y-23777476D01*
X4921417Y-23777476D01*
X4902369Y-23767952D01*
X4892845Y-23758428D01*
X4883322Y-23739381D01*
X4873798Y-23701286D01*
X4873798Y-23653667D01*
X4883322Y-23615571D01*
X4892845Y-23596524D01*
X4902369Y-23587000D01*
X4921417Y-23577476D01*
X5073798Y-23758428D02*
X5083322Y-23767952D01*
X5073798Y-23777476D01*
X5064274Y-23767952D01*
X5073798Y-23758428D01*
X5073798Y-23777476D01*
X5178560Y-23777476D02*
X5216655Y-23777476D01*
X5235703Y-23767952D01*
X5245226Y-23758428D01*
X5264274Y-23729857D01*
X5273798Y-23691762D01*
X5273798Y-23615571D01*
X5264274Y-23596524D01*
X5254750Y-23587000D01*
X5235703Y-23577476D01*
X5197607Y-23577476D01*
X5178560Y-23587000D01*
X5169036Y-23596524D01*
X5159512Y-23615571D01*
X5159512Y-23663190D01*
X5169036Y-23682238D01*
X5178560Y-23691762D01*
X5197607Y-23701286D01*
X5235703Y-23701286D01*
X5254750Y-23691762D01*
X5264274Y-23682238D01*
X5273798Y-23663190D01*
X5349988Y-23596524D02*
X5359512Y-23587000D01*
X5378560Y-23577476D01*
X5426179Y-23577476D01*
X5445226Y-23587000D01*
X5454750Y-23596524D01*
X5464274Y-23615571D01*
X5464274Y-23634619D01*
X5454750Y-23663190D01*
X5340465Y-23777476D01*
X5464274Y-23777476D01*
X5588084Y-23577476D02*
X5607131Y-23577476D01*
X5626179Y-23587000D01*
X5635703Y-23596524D01*
X5645226Y-23615571D01*
X5654750Y-23653667D01*
X5654750Y-23701286D01*
X5645226Y-23739381D01*
X5635703Y-23758428D01*
X5626179Y-23767952D01*
X5607131Y-23777476D01*
X5588084Y-23777476D01*
X5569036Y-23767952D01*
X5559512Y-23758428D01*
X5549988Y-23739381D01*
X5540465Y-23701286D01*
X5540465Y-23653667D01*
X5549988Y-23615571D01*
X5559512Y-23596524D01*
X5569036Y-23587000D01*
X5588084Y-23577476D01*
X5740464Y-23777476D02*
X5740464Y-23644143D01*
X5740464Y-23663190D02*
X5749988Y-23653667D01*
X5769036Y-23644143D01*
X5797607Y-23644143D01*
X5816655Y-23653667D01*
X5826179Y-23672714D01*
X5826179Y-23777476D01*
X5826179Y-23672714D02*
X5835703Y-23653667D01*
X5854750Y-23644143D01*
X5883322Y-23644143D01*
X5902369Y-23653667D01*
X5911893Y-23672714D01*
X5911893Y-23777476D01*
X6007131Y-23777476D02*
X6007131Y-23644143D01*
X6007131Y-23663190D02*
X6016655Y-23653667D01*
X6035703Y-23644143D01*
X6064274Y-23644143D01*
X6083322Y-23653667D01*
X6092845Y-23672714D01*
X6092845Y-23777476D01*
X6092845Y-23672714D02*
X6102369Y-23653667D01*
X6121417Y-23644143D01*
X6149988Y-23644143D01*
X6169036Y-23653667D01*
X6178560Y-23672714D01*
X6178560Y-23777476D01*
X6569036Y-23567952D02*
X6397607Y-23825095D01*
X6826179Y-23577476D02*
X6845226Y-23577476D01*
X6864274Y-23587000D01*
X6873798Y-23596524D01*
X6883322Y-23615571D01*
X6892845Y-23653667D01*
X6892845Y-23701286D01*
X6883322Y-23739381D01*
X6873798Y-23758428D01*
X6864274Y-23767952D01*
X6845226Y-23777476D01*
X6826179Y-23777476D01*
X6807131Y-23767952D01*
X6797607Y-23758428D01*
X6788083Y-23739381D01*
X6778560Y-23701286D01*
X6778560Y-23653667D01*
X6788083Y-23615571D01*
X6797607Y-23596524D01*
X6807131Y-23587000D01*
X6826179Y-23577476D01*
X6978560Y-23758428D02*
X6988083Y-23767952D01*
X6978560Y-23777476D01*
X6969036Y-23767952D01*
X6978560Y-23758428D01*
X6978560Y-23777476D01*
X7111893Y-23577476D02*
X7130941Y-23577476D01*
X7149988Y-23587000D01*
X7159512Y-23596524D01*
X7169036Y-23615571D01*
X7178560Y-23653667D01*
X7178560Y-23701286D01*
X7169036Y-23739381D01*
X7159512Y-23758428D01*
X7149988Y-23767952D01*
X7130941Y-23777476D01*
X7111893Y-23777476D01*
X7092845Y-23767952D01*
X7083322Y-23758428D01*
X7073798Y-23739381D01*
X7064274Y-23701286D01*
X7064274Y-23653667D01*
X7073798Y-23615571D01*
X7083322Y-23596524D01*
X7092845Y-23587000D01*
X7111893Y-23577476D01*
X7245226Y-23577476D02*
X7369036Y-23577476D01*
X7302369Y-23653667D01*
X7330941Y-23653667D01*
X7349988Y-23663190D01*
X7359512Y-23672714D01*
X7369036Y-23691762D01*
X7369036Y-23739381D01*
X7359512Y-23758428D01*
X7349988Y-23767952D01*
X7330941Y-23777476D01*
X7273798Y-23777476D01*
X7254750Y-23767952D01*
X7245226Y-23758428D01*
X7540464Y-23577476D02*
X7502369Y-23577476D01*
X7483322Y-23587000D01*
X7473798Y-23596524D01*
X7454750Y-23625095D01*
X7445226Y-23663190D01*
X7445226Y-23739381D01*
X7454750Y-23758428D01*
X7464274Y-23767952D01*
X7483322Y-23777476D01*
X7521417Y-23777476D01*
X7540464Y-23767952D01*
X7549988Y-23758428D01*
X7559512Y-23739381D01*
X7559512Y-23691762D01*
X7549988Y-23672714D01*
X7540464Y-23663190D01*
X7521417Y-23653667D01*
X7483322Y-23653667D01*
X7464274Y-23663190D01*
X7454750Y-23672714D01*
X7445226Y-23691762D01*
X7635702Y-23596524D02*
X7645226Y-23587000D01*
X7664274Y-23577476D01*
X7711893Y-23577476D01*
X7730941Y-23587000D01*
X7740464Y-23596524D01*
X7749988Y-23615571D01*
X7749988Y-23634619D01*
X7740464Y-23663190D01*
X7626179Y-23777476D01*
X7749988Y-23777476D01*
X7826179Y-23577476D02*
X7826179Y-23615571D01*
X7902369Y-23577476D02*
X7902369Y-23615571D01*
X8197607Y-23853667D02*
X8188083Y-23844143D01*
X8169036Y-23815571D01*
X8159512Y-23796524D01*
X8149988Y-23767952D01*
X8140464Y-23720333D01*
X8140464Y-23682238D01*
X8149988Y-23634619D01*
X8159512Y-23606048D01*
X8169036Y-23587000D01*
X8188083Y-23558428D01*
X8197607Y-23548905D01*
X8254750Y-23577476D02*
X8378560Y-23577476D01*
X8311893Y-23653667D01*
X8340464Y-23653667D01*
X8359512Y-23663190D01*
X8369036Y-23672714D01*
X8378560Y-23691762D01*
X8378560Y-23739381D01*
X8369036Y-23758428D01*
X8359512Y-23767952D01*
X8340464Y-23777476D01*
X8283322Y-23777476D01*
X8264274Y-23767952D01*
X8254750Y-23758428D01*
X8454750Y-23596524D02*
X8464274Y-23587000D01*
X8483322Y-23577476D01*
X8530941Y-23577476D01*
X8549988Y-23587000D01*
X8559512Y-23596524D01*
X8569036Y-23615571D01*
X8569036Y-23634619D01*
X8559512Y-23663190D01*
X8445226Y-23777476D01*
X8569036Y-23777476D01*
X8807131Y-23777476D02*
X8807131Y-23577476D01*
X8892845Y-23777476D02*
X8892845Y-23672714D01*
X8883322Y-23653667D01*
X8864274Y-23644143D01*
X8835703Y-23644143D01*
X8816655Y-23653667D01*
X8807131Y-23663190D01*
X9016655Y-23777476D02*
X8997607Y-23767952D01*
X8988084Y-23758428D01*
X8978560Y-23739381D01*
X8978560Y-23682238D01*
X8988084Y-23663190D01*
X8997607Y-23653667D01*
X9016655Y-23644143D01*
X9045226Y-23644143D01*
X9064274Y-23653667D01*
X9073798Y-23663190D01*
X9083322Y-23682238D01*
X9083322Y-23739381D01*
X9073798Y-23758428D01*
X9064274Y-23767952D01*
X9045226Y-23777476D01*
X9016655Y-23777476D01*
X9197607Y-23777476D02*
X9178560Y-23767952D01*
X9169036Y-23748905D01*
X9169036Y-23577476D01*
X9349988Y-23767952D02*
X9330941Y-23777476D01*
X9292845Y-23777476D01*
X9273798Y-23767952D01*
X9264274Y-23748905D01*
X9264274Y-23672714D01*
X9273798Y-23653667D01*
X9292845Y-23644143D01*
X9330941Y-23644143D01*
X9349988Y-23653667D01*
X9359512Y-23672714D01*
X9359512Y-23691762D01*
X9264274Y-23710809D01*
X9435703Y-23767952D02*
X9454750Y-23777476D01*
X9492845Y-23777476D01*
X9511893Y-23767952D01*
X9521417Y-23748905D01*
X9521417Y-23739381D01*
X9511893Y-23720333D01*
X9492845Y-23710809D01*
X9464274Y-23710809D01*
X9445226Y-23701286D01*
X9435703Y-23682238D01*
X9435703Y-23672714D01*
X9445226Y-23653667D01*
X9464274Y-23644143D01*
X9492845Y-23644143D01*
X9511893Y-23653667D01*
X9588084Y-23853667D02*
X9597607Y-23844143D01*
X9616655Y-23815571D01*
X9626179Y-23796524D01*
X9635703Y-23767952D01*
X9645226Y-23720333D01*
X9645226Y-23682238D01*
X9635703Y-23634619D01*
X9626179Y-23606048D01*
X9616655Y-23587000D01*
X9597607Y-23558428D01*
X9588084Y-23548905D01*
D16*
X4575703Y-24001000D02*
X4625703Y-23951000D01*
X4575703Y-23901000D01*
X4525703Y-23951000D01*
X4575703Y-24001000D01*
D11*
X4988084Y-24041476D02*
X4873798Y-24041476D01*
X4930941Y-24041476D02*
X4930941Y-23841476D01*
X4911893Y-23870048D01*
X4892845Y-23889095D01*
X4873798Y-23898619D01*
X5073798Y-24022428D02*
X5083322Y-24031952D01*
X5073798Y-24041476D01*
X5064274Y-24031952D01*
X5073798Y-24022428D01*
X5073798Y-24041476D01*
X5207131Y-23841476D02*
X5226179Y-23841476D01*
X5245226Y-23851000D01*
X5254750Y-23860524D01*
X5264274Y-23879571D01*
X5273798Y-23917667D01*
X5273798Y-23965286D01*
X5264274Y-24003381D01*
X5254750Y-24022428D01*
X5245226Y-24031952D01*
X5226179Y-24041476D01*
X5207131Y-24041476D01*
X5188084Y-24031952D01*
X5178560Y-24022428D01*
X5169036Y-24003381D01*
X5159512Y-23965286D01*
X5159512Y-23917667D01*
X5169036Y-23879571D01*
X5178560Y-23860524D01*
X5188084Y-23851000D01*
X5207131Y-23841476D01*
X5397607Y-23841476D02*
X5416655Y-23841476D01*
X5435703Y-23851000D01*
X5445226Y-23860524D01*
X5454750Y-23879571D01*
X5464274Y-23917667D01*
X5464274Y-23965286D01*
X5454750Y-24003381D01*
X5445226Y-24022428D01*
X5435703Y-24031952D01*
X5416655Y-24041476D01*
X5397607Y-24041476D01*
X5378560Y-24031952D01*
X5369036Y-24022428D01*
X5359512Y-24003381D01*
X5349988Y-23965286D01*
X5349988Y-23917667D01*
X5359512Y-23879571D01*
X5369036Y-23860524D01*
X5378560Y-23851000D01*
X5397607Y-23841476D01*
X5588084Y-23841476D02*
X5607131Y-23841476D01*
X5626179Y-23851000D01*
X5635703Y-23860524D01*
X5645226Y-23879571D01*
X5654750Y-23917667D01*
X5654750Y-23965286D01*
X5645226Y-24003381D01*
X5635703Y-24022428D01*
X5626179Y-24031952D01*
X5607131Y-24041476D01*
X5588084Y-24041476D01*
X5569036Y-24031952D01*
X5559512Y-24022428D01*
X5549988Y-24003381D01*
X5540465Y-23965286D01*
X5540465Y-23917667D01*
X5549988Y-23879571D01*
X5559512Y-23860524D01*
X5569036Y-23851000D01*
X5588084Y-23841476D01*
X5740464Y-24041476D02*
X5740464Y-23908143D01*
X5740464Y-23927190D02*
X5749988Y-23917667D01*
X5769036Y-23908143D01*
X5797607Y-23908143D01*
X5816655Y-23917667D01*
X5826179Y-23936714D01*
X5826179Y-24041476D01*
X5826179Y-23936714D02*
X5835703Y-23917667D01*
X5854750Y-23908143D01*
X5883322Y-23908143D01*
X5902369Y-23917667D01*
X5911893Y-23936714D01*
X5911893Y-24041476D01*
X6007131Y-24041476D02*
X6007131Y-23908143D01*
X6007131Y-23927190D02*
X6016655Y-23917667D01*
X6035703Y-23908143D01*
X6064274Y-23908143D01*
X6083322Y-23917667D01*
X6092845Y-23936714D01*
X6092845Y-24041476D01*
X6092845Y-23936714D02*
X6102369Y-23917667D01*
X6121417Y-23908143D01*
X6149988Y-23908143D01*
X6169036Y-23917667D01*
X6178560Y-23936714D01*
X6178560Y-24041476D01*
X6569036Y-23831952D02*
X6397607Y-24089095D01*
X6826179Y-23841476D02*
X6845226Y-23841476D01*
X6864274Y-23851000D01*
X6873798Y-23860524D01*
X6883322Y-23879571D01*
X6892845Y-23917667D01*
X6892845Y-23965286D01*
X6883322Y-24003381D01*
X6873798Y-24022428D01*
X6864274Y-24031952D01*
X6845226Y-24041476D01*
X6826179Y-24041476D01*
X6807131Y-24031952D01*
X6797607Y-24022428D01*
X6788083Y-24003381D01*
X6778560Y-23965286D01*
X6778560Y-23917667D01*
X6788083Y-23879571D01*
X6797607Y-23860524D01*
X6807131Y-23851000D01*
X6826179Y-23841476D01*
X6978560Y-24022428D02*
X6988083Y-24031952D01*
X6978560Y-24041476D01*
X6969036Y-24031952D01*
X6978560Y-24022428D01*
X6978560Y-24041476D01*
X7111893Y-23841476D02*
X7130941Y-23841476D01*
X7149988Y-23851000D01*
X7159512Y-23860524D01*
X7169036Y-23879571D01*
X7178560Y-23917667D01*
X7178560Y-23965286D01*
X7169036Y-24003381D01*
X7159512Y-24022428D01*
X7149988Y-24031952D01*
X7130941Y-24041476D01*
X7111893Y-24041476D01*
X7092845Y-24031952D01*
X7083322Y-24022428D01*
X7073798Y-24003381D01*
X7064274Y-23965286D01*
X7064274Y-23917667D01*
X7073798Y-23879571D01*
X7083322Y-23860524D01*
X7092845Y-23851000D01*
X7111893Y-23841476D01*
X7245226Y-23841476D02*
X7369036Y-23841476D01*
X7302369Y-23917667D01*
X7330941Y-23917667D01*
X7349988Y-23927190D01*
X7359512Y-23936714D01*
X7369036Y-23955762D01*
X7369036Y-24003381D01*
X7359512Y-24022428D01*
X7349988Y-24031952D01*
X7330941Y-24041476D01*
X7273798Y-24041476D01*
X7254750Y-24031952D01*
X7245226Y-24022428D01*
X7464274Y-24041476D02*
X7502369Y-24041476D01*
X7521417Y-24031952D01*
X7530941Y-24022428D01*
X7549988Y-23993857D01*
X7559512Y-23955762D01*
X7559512Y-23879571D01*
X7549988Y-23860524D01*
X7540464Y-23851000D01*
X7521417Y-23841476D01*
X7483322Y-23841476D01*
X7464274Y-23851000D01*
X7454750Y-23860524D01*
X7445226Y-23879571D01*
X7445226Y-23927190D01*
X7454750Y-23946238D01*
X7464274Y-23955762D01*
X7483322Y-23965286D01*
X7521417Y-23965286D01*
X7540464Y-23955762D01*
X7549988Y-23946238D01*
X7559512Y-23927190D01*
X7730941Y-23908143D02*
X7730941Y-24041476D01*
X7683322Y-23831952D02*
X7635702Y-23974809D01*
X7759512Y-23974809D01*
X7826179Y-23841476D02*
X7826179Y-23879571D01*
X7902369Y-23841476D02*
X7902369Y-23879571D01*
X8197607Y-24117667D02*
X8188083Y-24108143D01*
X8169036Y-24079571D01*
X8159512Y-24060524D01*
X8149988Y-24031952D01*
X8140464Y-23984333D01*
X8140464Y-23946238D01*
X8149988Y-23898619D01*
X8159512Y-23870048D01*
X8169036Y-23851000D01*
X8188083Y-23822428D01*
X8197607Y-23812905D01*
X8302369Y-23927190D02*
X8283322Y-23917667D01*
X8273798Y-23908143D01*
X8264274Y-23889095D01*
X8264274Y-23879571D01*
X8273798Y-23860524D01*
X8283322Y-23851000D01*
X8302369Y-23841476D01*
X8340464Y-23841476D01*
X8359512Y-23851000D01*
X8369036Y-23860524D01*
X8378560Y-23879571D01*
X8378560Y-23889095D01*
X8369036Y-23908143D01*
X8359512Y-23917667D01*
X8340464Y-23927190D01*
X8302369Y-23927190D01*
X8283322Y-23936714D01*
X8273798Y-23946238D01*
X8264274Y-23965286D01*
X8264274Y-24003381D01*
X8273798Y-24022428D01*
X8283322Y-24031952D01*
X8302369Y-24041476D01*
X8340464Y-24041476D01*
X8359512Y-24031952D01*
X8369036Y-24022428D01*
X8378560Y-24003381D01*
X8378560Y-23965286D01*
X8369036Y-23946238D01*
X8359512Y-23936714D01*
X8340464Y-23927190D01*
X8616655Y-24041476D02*
X8616655Y-23841476D01*
X8702369Y-24041476D02*
X8702369Y-23936714D01*
X8692845Y-23917667D01*
X8673798Y-23908143D01*
X8645226Y-23908143D01*
X8626179Y-23917667D01*
X8616655Y-23927190D01*
X8826179Y-24041476D02*
X8807131Y-24031952D01*
X8797607Y-24022428D01*
X8788084Y-24003381D01*
X8788084Y-23946238D01*
X8797607Y-23927190D01*
X8807131Y-23917667D01*
X8826179Y-23908143D01*
X8854750Y-23908143D01*
X8873798Y-23917667D01*
X8883322Y-23927190D01*
X8892845Y-23946238D01*
X8892845Y-24003381D01*
X8883322Y-24022428D01*
X8873798Y-24031952D01*
X8854750Y-24041476D01*
X8826179Y-24041476D01*
X9007131Y-24041476D02*
X8988084Y-24031952D01*
X8978560Y-24012905D01*
X8978560Y-23841476D01*
X9159512Y-24031952D02*
X9140465Y-24041476D01*
X9102369Y-24041476D01*
X9083322Y-24031952D01*
X9073798Y-24012905D01*
X9073798Y-23936714D01*
X9083322Y-23917667D01*
X9102369Y-23908143D01*
X9140465Y-23908143D01*
X9159512Y-23917667D01*
X9169036Y-23936714D01*
X9169036Y-23955762D01*
X9073798Y-23974809D01*
X9245226Y-24031952D02*
X9264274Y-24041476D01*
X9302369Y-24041476D01*
X9321417Y-24031952D01*
X9330941Y-24012905D01*
X9330941Y-24003381D01*
X9321417Y-23984333D01*
X9302369Y-23974809D01*
X9273798Y-23974809D01*
X9254750Y-23965286D01*
X9245226Y-23946238D01*
X9245226Y-23936714D01*
X9254750Y-23917667D01*
X9273798Y-23908143D01*
X9302369Y-23908143D01*
X9321417Y-23917667D01*
X9397607Y-24117667D02*
X9407131Y-24108143D01*
X9426179Y-24079571D01*
X9435703Y-24060524D01*
X9445226Y-24031952D01*
X9454750Y-23984333D01*
X9454750Y-23946238D01*
X9445226Y-23898619D01*
X9435703Y-23870048D01*
X9426179Y-23851000D01*
X9407131Y-23822428D01*
X9397607Y-23812905D01*
D17*
X4521703Y-24163000D02*
X4625703Y-24267000D01*
X4625703Y-24163000D02*
X4521703Y-24267000D01*
X4625703Y-24215000D02*
G75*
G03*
X4625703Y-24215000I-52000J0D01*
G01*
D11*
X4988084Y-24305476D02*
X4873798Y-24305476D01*
X4930941Y-24305476D02*
X4930941Y-24105476D01*
X4911893Y-24134048D01*
X4892845Y-24153095D01*
X4873798Y-24162619D01*
X5073798Y-24286428D02*
X5083322Y-24295952D01*
X5073798Y-24305476D01*
X5064274Y-24295952D01*
X5073798Y-24286428D01*
X5073798Y-24305476D01*
X5207131Y-24105476D02*
X5226179Y-24105476D01*
X5245226Y-24115000D01*
X5254750Y-24124524D01*
X5264274Y-24143571D01*
X5273798Y-24181667D01*
X5273798Y-24229286D01*
X5264274Y-24267381D01*
X5254750Y-24286428D01*
X5245226Y-24295952D01*
X5226179Y-24305476D01*
X5207131Y-24305476D01*
X5188084Y-24295952D01*
X5178560Y-24286428D01*
X5169036Y-24267381D01*
X5159512Y-24229286D01*
X5159512Y-24181667D01*
X5169036Y-24143571D01*
X5178560Y-24124524D01*
X5188084Y-24115000D01*
X5207131Y-24105476D01*
X5445226Y-24172143D02*
X5445226Y-24305476D01*
X5397607Y-24095952D02*
X5349988Y-24238809D01*
X5473798Y-24238809D01*
X5588084Y-24105476D02*
X5607131Y-24105476D01*
X5626179Y-24115000D01*
X5635703Y-24124524D01*
X5645226Y-24143571D01*
X5654750Y-24181667D01*
X5654750Y-24229286D01*
X5645226Y-24267381D01*
X5635703Y-24286428D01*
X5626179Y-24295952D01*
X5607131Y-24305476D01*
X5588084Y-24305476D01*
X5569036Y-24295952D01*
X5559512Y-24286428D01*
X5549988Y-24267381D01*
X5540465Y-24229286D01*
X5540465Y-24181667D01*
X5549988Y-24143571D01*
X5559512Y-24124524D01*
X5569036Y-24115000D01*
X5588084Y-24105476D01*
X5740464Y-24305476D02*
X5740464Y-24172143D01*
X5740464Y-24191190D02*
X5749988Y-24181667D01*
X5769036Y-24172143D01*
X5797607Y-24172143D01*
X5816655Y-24181667D01*
X5826179Y-24200714D01*
X5826179Y-24305476D01*
X5826179Y-24200714D02*
X5835703Y-24181667D01*
X5854750Y-24172143D01*
X5883322Y-24172143D01*
X5902369Y-24181667D01*
X5911893Y-24200714D01*
X5911893Y-24305476D01*
X6007131Y-24305476D02*
X6007131Y-24172143D01*
X6007131Y-24191190D02*
X6016655Y-24181667D01*
X6035703Y-24172143D01*
X6064274Y-24172143D01*
X6083322Y-24181667D01*
X6092845Y-24200714D01*
X6092845Y-24305476D01*
X6092845Y-24200714D02*
X6102369Y-24181667D01*
X6121417Y-24172143D01*
X6149988Y-24172143D01*
X6169036Y-24181667D01*
X6178560Y-24200714D01*
X6178560Y-24305476D01*
X6569036Y-24095952D02*
X6397607Y-24353095D01*
X6826179Y-24105476D02*
X6845226Y-24105476D01*
X6864274Y-24115000D01*
X6873798Y-24124524D01*
X6883322Y-24143571D01*
X6892845Y-24181667D01*
X6892845Y-24229286D01*
X6883322Y-24267381D01*
X6873798Y-24286428D01*
X6864274Y-24295952D01*
X6845226Y-24305476D01*
X6826179Y-24305476D01*
X6807131Y-24295952D01*
X6797607Y-24286428D01*
X6788083Y-24267381D01*
X6778560Y-24229286D01*
X6778560Y-24181667D01*
X6788083Y-24143571D01*
X6797607Y-24124524D01*
X6807131Y-24115000D01*
X6826179Y-24105476D01*
X6978560Y-24286428D02*
X6988083Y-24295952D01*
X6978560Y-24305476D01*
X6969036Y-24295952D01*
X6978560Y-24286428D01*
X6978560Y-24305476D01*
X7111893Y-24105476D02*
X7130941Y-24105476D01*
X7149988Y-24115000D01*
X7159512Y-24124524D01*
X7169036Y-24143571D01*
X7178560Y-24181667D01*
X7178560Y-24229286D01*
X7169036Y-24267381D01*
X7159512Y-24286428D01*
X7149988Y-24295952D01*
X7130941Y-24305476D01*
X7111893Y-24305476D01*
X7092845Y-24295952D01*
X7083322Y-24286428D01*
X7073798Y-24267381D01*
X7064274Y-24229286D01*
X7064274Y-24181667D01*
X7073798Y-24143571D01*
X7083322Y-24124524D01*
X7092845Y-24115000D01*
X7111893Y-24105476D01*
X7349988Y-24172143D02*
X7349988Y-24305476D01*
X7302369Y-24095952D02*
X7254750Y-24238809D01*
X7378560Y-24238809D01*
X7492845Y-24105476D02*
X7511893Y-24105476D01*
X7530941Y-24115000D01*
X7540464Y-24124524D01*
X7549988Y-24143571D01*
X7559512Y-24181667D01*
X7559512Y-24229286D01*
X7549988Y-24267381D01*
X7540464Y-24286428D01*
X7530941Y-24295952D01*
X7511893Y-24305476D01*
X7492845Y-24305476D01*
X7473798Y-24295952D01*
X7464274Y-24286428D01*
X7454750Y-24267381D01*
X7445226Y-24229286D01*
X7445226Y-24181667D01*
X7454750Y-24143571D01*
X7464274Y-24124524D01*
X7473798Y-24115000D01*
X7492845Y-24105476D01*
X7654750Y-24305476D02*
X7692845Y-24305476D01*
X7711893Y-24295952D01*
X7721417Y-24286428D01*
X7740464Y-24257857D01*
X7749988Y-24219762D01*
X7749988Y-24143571D01*
X7740464Y-24124524D01*
X7730941Y-24115000D01*
X7711893Y-24105476D01*
X7673798Y-24105476D01*
X7654750Y-24115000D01*
X7645226Y-24124524D01*
X7635702Y-24143571D01*
X7635702Y-24191190D01*
X7645226Y-24210238D01*
X7654750Y-24219762D01*
X7673798Y-24229286D01*
X7711893Y-24229286D01*
X7730941Y-24219762D01*
X7740464Y-24210238D01*
X7749988Y-24191190D01*
X7826179Y-24105476D02*
X7826179Y-24143571D01*
X7902369Y-24105476D02*
X7902369Y-24143571D01*
X8197607Y-24381667D02*
X8188083Y-24372143D01*
X8169036Y-24343571D01*
X8159512Y-24324524D01*
X8149988Y-24295952D01*
X8140464Y-24248333D01*
X8140464Y-24210238D01*
X8149988Y-24162619D01*
X8159512Y-24134048D01*
X8169036Y-24115000D01*
X8188083Y-24086428D01*
X8197607Y-24076905D01*
X8254750Y-24105476D02*
X8378560Y-24105476D01*
X8311893Y-24181667D01*
X8340464Y-24181667D01*
X8359512Y-24191190D01*
X8369036Y-24200714D01*
X8378560Y-24219762D01*
X8378560Y-24267381D01*
X8369036Y-24286428D01*
X8359512Y-24295952D01*
X8340464Y-24305476D01*
X8283322Y-24305476D01*
X8264274Y-24295952D01*
X8254750Y-24286428D01*
X8492845Y-24191190D02*
X8473798Y-24181667D01*
X8464274Y-24172143D01*
X8454750Y-24153095D01*
X8454750Y-24143571D01*
X8464274Y-24124524D01*
X8473798Y-24115000D01*
X8492845Y-24105476D01*
X8530941Y-24105476D01*
X8549988Y-24115000D01*
X8559512Y-24124524D01*
X8569036Y-24143571D01*
X8569036Y-24153095D01*
X8559512Y-24172143D01*
X8549988Y-24181667D01*
X8530941Y-24191190D01*
X8492845Y-24191190D01*
X8473798Y-24200714D01*
X8464274Y-24210238D01*
X8454750Y-24229286D01*
X8454750Y-24267381D01*
X8464274Y-24286428D01*
X8473798Y-24295952D01*
X8492845Y-24305476D01*
X8530941Y-24305476D01*
X8549988Y-24295952D01*
X8559512Y-24286428D01*
X8569036Y-24267381D01*
X8569036Y-24229286D01*
X8559512Y-24210238D01*
X8549988Y-24200714D01*
X8530941Y-24191190D01*
X8807131Y-24305476D02*
X8807131Y-24105476D01*
X8892845Y-24305476D02*
X8892845Y-24200714D01*
X8883322Y-24181667D01*
X8864274Y-24172143D01*
X8835703Y-24172143D01*
X8816655Y-24181667D01*
X8807131Y-24191190D01*
X9016655Y-24305476D02*
X8997607Y-24295952D01*
X8988084Y-24286428D01*
X8978560Y-24267381D01*
X8978560Y-24210238D01*
X8988084Y-24191190D01*
X8997607Y-24181667D01*
X9016655Y-24172143D01*
X9045226Y-24172143D01*
X9064274Y-24181667D01*
X9073798Y-24191190D01*
X9083322Y-24210238D01*
X9083322Y-24267381D01*
X9073798Y-24286428D01*
X9064274Y-24295952D01*
X9045226Y-24305476D01*
X9016655Y-24305476D01*
X9197607Y-24305476D02*
X9178560Y-24295952D01*
X9169036Y-24276905D01*
X9169036Y-24105476D01*
X9349988Y-24295952D02*
X9330941Y-24305476D01*
X9292845Y-24305476D01*
X9273798Y-24295952D01*
X9264274Y-24276905D01*
X9264274Y-24200714D01*
X9273798Y-24181667D01*
X9292845Y-24172143D01*
X9330941Y-24172143D01*
X9349988Y-24181667D01*
X9359512Y-24200714D01*
X9359512Y-24219762D01*
X9264274Y-24238809D01*
X9435703Y-24295952D02*
X9454750Y-24305476D01*
X9492845Y-24305476D01*
X9511893Y-24295952D01*
X9521417Y-24276905D01*
X9521417Y-24267381D01*
X9511893Y-24248333D01*
X9492845Y-24238809D01*
X9464274Y-24238809D01*
X9445226Y-24229286D01*
X9435703Y-24210238D01*
X9435703Y-24200714D01*
X9445226Y-24181667D01*
X9464274Y-24172143D01*
X9492845Y-24172143D01*
X9511893Y-24181667D01*
X9588084Y-24381667D02*
X9597607Y-24372143D01*
X9616655Y-24343571D01*
X9626179Y-24324524D01*
X9635703Y-24295952D01*
X9645226Y-24248333D01*
X9645226Y-24210238D01*
X9635703Y-24162619D01*
X9626179Y-24134048D01*
X9616655Y-24115000D01*
X9597607Y-24086428D01*
X9588084Y-24076905D01*
D18*
X4505703Y-24419000D02*
X4625703Y-24539000D01*
X4625703Y-24419000D02*
X4505703Y-24539000D01*
X4565703Y-24419000D02*
X4565703Y-24539000D01*
X4505703Y-24479000D02*
X4625703Y-24479000D01*
D11*
X4988084Y-24569476D02*
X4873798Y-24569476D01*
X4930941Y-24569476D02*
X4930941Y-24369476D01*
X4911893Y-24398048D01*
X4892845Y-24417095D01*
X4873798Y-24426619D01*
X5073798Y-24550428D02*
X5083322Y-24559952D01*
X5073798Y-24569476D01*
X5064274Y-24559952D01*
X5073798Y-24550428D01*
X5073798Y-24569476D01*
X5159512Y-24388524D02*
X5169036Y-24379000D01*
X5188084Y-24369476D01*
X5235703Y-24369476D01*
X5254750Y-24379000D01*
X5264274Y-24388524D01*
X5273798Y-24407571D01*
X5273798Y-24426619D01*
X5264274Y-24455190D01*
X5149988Y-24569476D01*
X5273798Y-24569476D01*
X5397607Y-24369476D02*
X5416655Y-24369476D01*
X5435703Y-24379000D01*
X5445226Y-24388524D01*
X5454750Y-24407571D01*
X5464274Y-24445667D01*
X5464274Y-24493286D01*
X5454750Y-24531381D01*
X5445226Y-24550428D01*
X5435703Y-24559952D01*
X5416655Y-24569476D01*
X5397607Y-24569476D01*
X5378560Y-24559952D01*
X5369036Y-24550428D01*
X5359512Y-24531381D01*
X5349988Y-24493286D01*
X5349988Y-24445667D01*
X5359512Y-24407571D01*
X5369036Y-24388524D01*
X5378560Y-24379000D01*
X5397607Y-24369476D01*
X5588084Y-24369476D02*
X5607131Y-24369476D01*
X5626179Y-24379000D01*
X5635703Y-24388524D01*
X5645226Y-24407571D01*
X5654750Y-24445667D01*
X5654750Y-24493286D01*
X5645226Y-24531381D01*
X5635703Y-24550428D01*
X5626179Y-24559952D01*
X5607131Y-24569476D01*
X5588084Y-24569476D01*
X5569036Y-24559952D01*
X5559512Y-24550428D01*
X5549988Y-24531381D01*
X5540465Y-24493286D01*
X5540465Y-24445667D01*
X5549988Y-24407571D01*
X5559512Y-24388524D01*
X5569036Y-24379000D01*
X5588084Y-24369476D01*
X5740464Y-24569476D02*
X5740464Y-24436143D01*
X5740464Y-24455190D02*
X5749988Y-24445667D01*
X5769036Y-24436143D01*
X5797607Y-24436143D01*
X5816655Y-24445667D01*
X5826179Y-24464714D01*
X5826179Y-24569476D01*
X5826179Y-24464714D02*
X5835703Y-24445667D01*
X5854750Y-24436143D01*
X5883322Y-24436143D01*
X5902369Y-24445667D01*
X5911893Y-24464714D01*
X5911893Y-24569476D01*
X6007131Y-24569476D02*
X6007131Y-24436143D01*
X6007131Y-24455190D02*
X6016655Y-24445667D01*
X6035703Y-24436143D01*
X6064274Y-24436143D01*
X6083322Y-24445667D01*
X6092845Y-24464714D01*
X6092845Y-24569476D01*
X6092845Y-24464714D02*
X6102369Y-24445667D01*
X6121417Y-24436143D01*
X6149988Y-24436143D01*
X6169036Y-24445667D01*
X6178560Y-24464714D01*
X6178560Y-24569476D01*
X6569036Y-24359952D02*
X6397607Y-24617095D01*
X6826179Y-24369476D02*
X6845226Y-24369476D01*
X6864274Y-24379000D01*
X6873798Y-24388524D01*
X6883322Y-24407571D01*
X6892845Y-24445667D01*
X6892845Y-24493286D01*
X6883322Y-24531381D01*
X6873798Y-24550428D01*
X6864274Y-24559952D01*
X6845226Y-24569476D01*
X6826179Y-24569476D01*
X6807131Y-24559952D01*
X6797607Y-24550428D01*
X6788083Y-24531381D01*
X6778560Y-24493286D01*
X6778560Y-24445667D01*
X6788083Y-24407571D01*
X6797607Y-24388524D01*
X6807131Y-24379000D01*
X6826179Y-24369476D01*
X6978560Y-24550428D02*
X6988083Y-24559952D01*
X6978560Y-24569476D01*
X6969036Y-24559952D01*
X6978560Y-24550428D01*
X6978560Y-24569476D01*
X7111893Y-24369476D02*
X7130941Y-24369476D01*
X7149988Y-24379000D01*
X7159512Y-24388524D01*
X7169036Y-24407571D01*
X7178560Y-24445667D01*
X7178560Y-24493286D01*
X7169036Y-24531381D01*
X7159512Y-24550428D01*
X7149988Y-24559952D01*
X7130941Y-24569476D01*
X7111893Y-24569476D01*
X7092845Y-24559952D01*
X7083322Y-24550428D01*
X7073798Y-24531381D01*
X7064274Y-24493286D01*
X7064274Y-24445667D01*
X7073798Y-24407571D01*
X7083322Y-24388524D01*
X7092845Y-24379000D01*
X7111893Y-24369476D01*
X7349988Y-24436143D02*
X7349988Y-24569476D01*
X7302369Y-24359952D02*
X7254750Y-24502809D01*
X7378560Y-24502809D01*
X7435703Y-24369476D02*
X7569036Y-24369476D01*
X7483322Y-24569476D01*
X7635702Y-24388524D02*
X7645226Y-24379000D01*
X7664274Y-24369476D01*
X7711893Y-24369476D01*
X7730941Y-24379000D01*
X7740464Y-24388524D01*
X7749988Y-24407571D01*
X7749988Y-24426619D01*
X7740464Y-24455190D01*
X7626179Y-24569476D01*
X7749988Y-24569476D01*
X7826179Y-24369476D02*
X7826179Y-24407571D01*
X7902369Y-24369476D02*
X7902369Y-24407571D01*
X8197607Y-24645667D02*
X8188083Y-24636143D01*
X8169036Y-24607571D01*
X8159512Y-24588524D01*
X8149988Y-24559952D01*
X8140464Y-24512333D01*
X8140464Y-24474238D01*
X8149988Y-24426619D01*
X8159512Y-24398048D01*
X8169036Y-24379000D01*
X8188083Y-24350428D01*
X8197607Y-24340905D01*
X8359512Y-24436143D02*
X8359512Y-24569476D01*
X8311893Y-24359952D02*
X8264274Y-24502809D01*
X8388083Y-24502809D01*
X8549988Y-24436143D02*
X8549988Y-24569476D01*
X8502369Y-24359952D02*
X8454750Y-24502809D01*
X8578560Y-24502809D01*
X8807131Y-24569476D02*
X8807131Y-24369476D01*
X8892845Y-24569476D02*
X8892845Y-24464714D01*
X8883322Y-24445667D01*
X8864274Y-24436143D01*
X8835703Y-24436143D01*
X8816655Y-24445667D01*
X8807131Y-24455190D01*
X9016655Y-24569476D02*
X8997607Y-24559952D01*
X8988084Y-24550428D01*
X8978560Y-24531381D01*
X8978560Y-24474238D01*
X8988084Y-24455190D01*
X8997607Y-24445667D01*
X9016655Y-24436143D01*
X9045226Y-24436143D01*
X9064274Y-24445667D01*
X9073798Y-24455190D01*
X9083322Y-24474238D01*
X9083322Y-24531381D01*
X9073798Y-24550428D01*
X9064274Y-24559952D01*
X9045226Y-24569476D01*
X9016655Y-24569476D01*
X9197607Y-24569476D02*
X9178560Y-24559952D01*
X9169036Y-24540905D01*
X9169036Y-24369476D01*
X9349988Y-24559952D02*
X9330941Y-24569476D01*
X9292845Y-24569476D01*
X9273798Y-24559952D01*
X9264274Y-24540905D01*
X9264274Y-24464714D01*
X9273798Y-24445667D01*
X9292845Y-24436143D01*
X9330941Y-24436143D01*
X9349988Y-24445667D01*
X9359512Y-24464714D01*
X9359512Y-24483762D01*
X9264274Y-24502809D01*
X9435703Y-24559952D02*
X9454750Y-24569476D01*
X9492845Y-24569476D01*
X9511893Y-24559952D01*
X9521417Y-24540905D01*
X9521417Y-24531381D01*
X9511893Y-24512333D01*
X9492845Y-24502809D01*
X9464274Y-24502809D01*
X9445226Y-24493286D01*
X9435703Y-24474238D01*
X9435703Y-24464714D01*
X9445226Y-24445667D01*
X9464274Y-24436143D01*
X9492845Y-24436143D01*
X9511893Y-24445667D01*
X9588084Y-24645667D02*
X9597607Y-24636143D01*
X9616655Y-24607571D01*
X9626179Y-24588524D01*
X9635703Y-24559952D01*
X9645226Y-24512333D01*
X9645226Y-24474238D01*
X9635703Y-24426619D01*
X9626179Y-24398048D01*
X9616655Y-24379000D01*
X9597607Y-24350428D01*
X9588084Y-24340905D01*
D19*
X4495703Y-24678000D02*
X4625703Y-24808000D01*
X4625703Y-24678000D02*
X4495703Y-24808000D01*
X4606665Y-24788962D02*
X4606665Y-24697038D01*
X4514740Y-24697038D01*
X4514740Y-24788962D01*
X4606665Y-24788962D01*
D11*
X4988084Y-24833476D02*
X4873798Y-24833476D01*
X4930941Y-24833476D02*
X4930941Y-24633476D01*
X4911893Y-24662048D01*
X4892845Y-24681095D01*
X4873798Y-24690619D01*
X5073798Y-24814428D02*
X5083322Y-24823952D01*
X5073798Y-24833476D01*
X5064274Y-24823952D01*
X5073798Y-24814428D01*
X5073798Y-24833476D01*
X5149988Y-24633476D02*
X5273798Y-24633476D01*
X5207131Y-24709667D01*
X5235703Y-24709667D01*
X5254750Y-24719190D01*
X5264274Y-24728714D01*
X5273798Y-24747762D01*
X5273798Y-24795381D01*
X5264274Y-24814428D01*
X5254750Y-24823952D01*
X5235703Y-24833476D01*
X5178560Y-24833476D01*
X5159512Y-24823952D01*
X5149988Y-24814428D01*
X5397607Y-24633476D02*
X5416655Y-24633476D01*
X5435703Y-24643000D01*
X5445226Y-24652524D01*
X5454750Y-24671571D01*
X5464274Y-24709667D01*
X5464274Y-24757286D01*
X5454750Y-24795381D01*
X5445226Y-24814428D01*
X5435703Y-24823952D01*
X5416655Y-24833476D01*
X5397607Y-24833476D01*
X5378560Y-24823952D01*
X5369036Y-24814428D01*
X5359512Y-24795381D01*
X5349988Y-24757286D01*
X5349988Y-24709667D01*
X5359512Y-24671571D01*
X5369036Y-24652524D01*
X5378560Y-24643000D01*
X5397607Y-24633476D01*
X5588084Y-24633476D02*
X5607131Y-24633476D01*
X5626179Y-24643000D01*
X5635703Y-24652524D01*
X5645226Y-24671571D01*
X5654750Y-24709667D01*
X5654750Y-24757286D01*
X5645226Y-24795381D01*
X5635703Y-24814428D01*
X5626179Y-24823952D01*
X5607131Y-24833476D01*
X5588084Y-24833476D01*
X5569036Y-24823952D01*
X5559512Y-24814428D01*
X5549988Y-24795381D01*
X5540465Y-24757286D01*
X5540465Y-24709667D01*
X5549988Y-24671571D01*
X5559512Y-24652524D01*
X5569036Y-24643000D01*
X5588084Y-24633476D01*
X5740464Y-24833476D02*
X5740464Y-24700143D01*
X5740464Y-24719190D02*
X5749988Y-24709667D01*
X5769036Y-24700143D01*
X5797607Y-24700143D01*
X5816655Y-24709667D01*
X5826179Y-24728714D01*
X5826179Y-24833476D01*
X5826179Y-24728714D02*
X5835703Y-24709667D01*
X5854750Y-24700143D01*
X5883322Y-24700143D01*
X5902369Y-24709667D01*
X5911893Y-24728714D01*
X5911893Y-24833476D01*
X6007131Y-24833476D02*
X6007131Y-24700143D01*
X6007131Y-24719190D02*
X6016655Y-24709667D01*
X6035703Y-24700143D01*
X6064274Y-24700143D01*
X6083322Y-24709667D01*
X6092845Y-24728714D01*
X6092845Y-24833476D01*
X6092845Y-24728714D02*
X6102369Y-24709667D01*
X6121417Y-24700143D01*
X6149988Y-24700143D01*
X6169036Y-24709667D01*
X6178560Y-24728714D01*
X6178560Y-24833476D01*
X6569036Y-24623952D02*
X6397607Y-24881095D01*
X6826179Y-24633476D02*
X6845226Y-24633476D01*
X6864274Y-24643000D01*
X6873798Y-24652524D01*
X6883322Y-24671571D01*
X6892845Y-24709667D01*
X6892845Y-24757286D01*
X6883322Y-24795381D01*
X6873798Y-24814428D01*
X6864274Y-24823952D01*
X6845226Y-24833476D01*
X6826179Y-24833476D01*
X6807131Y-24823952D01*
X6797607Y-24814428D01*
X6788083Y-24795381D01*
X6778560Y-24757286D01*
X6778560Y-24709667D01*
X6788083Y-24671571D01*
X6797607Y-24652524D01*
X6807131Y-24643000D01*
X6826179Y-24633476D01*
X6978560Y-24814428D02*
X6988083Y-24823952D01*
X6978560Y-24833476D01*
X6969036Y-24823952D01*
X6978560Y-24814428D01*
X6978560Y-24833476D01*
X7111893Y-24633476D02*
X7130941Y-24633476D01*
X7149988Y-24643000D01*
X7159512Y-24652524D01*
X7169036Y-24671571D01*
X7178560Y-24709667D01*
X7178560Y-24757286D01*
X7169036Y-24795381D01*
X7159512Y-24814428D01*
X7149988Y-24823952D01*
X7130941Y-24833476D01*
X7111893Y-24833476D01*
X7092845Y-24823952D01*
X7083322Y-24814428D01*
X7073798Y-24795381D01*
X7064274Y-24757286D01*
X7064274Y-24709667D01*
X7073798Y-24671571D01*
X7083322Y-24652524D01*
X7092845Y-24643000D01*
X7111893Y-24633476D01*
X7359512Y-24633476D02*
X7264274Y-24633476D01*
X7254750Y-24728714D01*
X7264274Y-24719190D01*
X7283322Y-24709667D01*
X7330941Y-24709667D01*
X7349988Y-24719190D01*
X7359512Y-24728714D01*
X7369036Y-24747762D01*
X7369036Y-24795381D01*
X7359512Y-24814428D01*
X7349988Y-24823952D01*
X7330941Y-24833476D01*
X7283322Y-24833476D01*
X7264274Y-24823952D01*
X7254750Y-24814428D01*
X7559512Y-24833476D02*
X7445226Y-24833476D01*
X7502369Y-24833476D02*
X7502369Y-24633476D01*
X7483322Y-24662048D01*
X7464274Y-24681095D01*
X7445226Y-24690619D01*
X7635702Y-24652524D02*
X7645226Y-24643000D01*
X7664274Y-24633476D01*
X7711893Y-24633476D01*
X7730941Y-24643000D01*
X7740464Y-24652524D01*
X7749988Y-24671571D01*
X7749988Y-24690619D01*
X7740464Y-24719190D01*
X7626179Y-24833476D01*
X7749988Y-24833476D01*
X7826179Y-24633476D02*
X7826179Y-24671571D01*
X7902369Y-24633476D02*
X7902369Y-24671571D01*
X8197607Y-24909667D02*
X8188083Y-24900143D01*
X8169036Y-24871571D01*
X8159512Y-24852524D01*
X8149988Y-24823952D01*
X8140464Y-24776333D01*
X8140464Y-24738238D01*
X8149988Y-24690619D01*
X8159512Y-24662048D01*
X8169036Y-24643000D01*
X8188083Y-24614428D01*
X8197607Y-24604905D01*
X8359512Y-24633476D02*
X8321417Y-24633476D01*
X8302369Y-24643000D01*
X8292845Y-24652524D01*
X8273798Y-24681095D01*
X8264274Y-24719190D01*
X8264274Y-24795381D01*
X8273798Y-24814428D01*
X8283322Y-24823952D01*
X8302369Y-24833476D01*
X8340464Y-24833476D01*
X8359512Y-24823952D01*
X8369036Y-24814428D01*
X8378560Y-24795381D01*
X8378560Y-24747762D01*
X8369036Y-24728714D01*
X8359512Y-24719190D01*
X8340464Y-24709667D01*
X8302369Y-24709667D01*
X8283322Y-24719190D01*
X8273798Y-24728714D01*
X8264274Y-24747762D01*
X8502369Y-24633476D02*
X8521417Y-24633476D01*
X8540465Y-24643000D01*
X8549988Y-24652524D01*
X8559512Y-24671571D01*
X8569036Y-24709667D01*
X8569036Y-24757286D01*
X8559512Y-24795381D01*
X8549988Y-24814428D01*
X8540465Y-24823952D01*
X8521417Y-24833476D01*
X8502369Y-24833476D01*
X8483322Y-24823952D01*
X8473798Y-24814428D01*
X8464274Y-24795381D01*
X8454750Y-24757286D01*
X8454750Y-24709667D01*
X8464274Y-24671571D01*
X8473798Y-24652524D01*
X8483322Y-24643000D01*
X8502369Y-24633476D01*
X8807131Y-24833476D02*
X8807131Y-24633476D01*
X8892845Y-24833476D02*
X8892845Y-24728714D01*
X8883322Y-24709667D01*
X8864274Y-24700143D01*
X8835703Y-24700143D01*
X8816655Y-24709667D01*
X8807131Y-24719190D01*
X9016655Y-24833476D02*
X8997607Y-24823952D01*
X8988084Y-24814428D01*
X8978560Y-24795381D01*
X8978560Y-24738238D01*
X8988084Y-24719190D01*
X8997607Y-24709667D01*
X9016655Y-24700143D01*
X9045226Y-24700143D01*
X9064274Y-24709667D01*
X9073798Y-24719190D01*
X9083322Y-24738238D01*
X9083322Y-24795381D01*
X9073798Y-24814428D01*
X9064274Y-24823952D01*
X9045226Y-24833476D01*
X9016655Y-24833476D01*
X9197607Y-24833476D02*
X9178560Y-24823952D01*
X9169036Y-24804905D01*
X9169036Y-24633476D01*
X9349988Y-24823952D02*
X9330941Y-24833476D01*
X9292845Y-24833476D01*
X9273798Y-24823952D01*
X9264274Y-24804905D01*
X9264274Y-24728714D01*
X9273798Y-24709667D01*
X9292845Y-24700143D01*
X9330941Y-24700143D01*
X9349988Y-24709667D01*
X9359512Y-24728714D01*
X9359512Y-24747762D01*
X9264274Y-24766809D01*
X9435703Y-24823952D02*
X9454750Y-24833476D01*
X9492845Y-24833476D01*
X9511893Y-24823952D01*
X9521417Y-24804905D01*
X9521417Y-24795381D01*
X9511893Y-24776333D01*
X9492845Y-24766809D01*
X9464274Y-24766809D01*
X9445226Y-24757286D01*
X9435703Y-24738238D01*
X9435703Y-24728714D01*
X9445226Y-24709667D01*
X9464274Y-24700143D01*
X9492845Y-24700143D01*
X9511893Y-24709667D01*
X9588084Y-24909667D02*
X9597607Y-24900143D01*
X9616655Y-24871571D01*
X9626179Y-24852524D01*
X9635703Y-24823952D01*
X9645226Y-24776333D01*
X9645226Y-24738238D01*
X9635703Y-24690619D01*
X9626179Y-24662048D01*
X9616655Y-24643000D01*
X9597607Y-24614428D01*
X9588084Y-24604905D01*
D20*
X4475703Y-24932000D02*
X4625703Y-25082000D01*
X4625703Y-24932000D02*
X4475703Y-25082000D01*
X4550703Y-25082000D02*
X4625703Y-25007000D01*
X4550703Y-24932000D01*
X4475703Y-25007000D01*
X4550703Y-25082000D01*
D11*
X4988084Y-25097476D02*
X4873798Y-25097476D01*
X4930941Y-25097476D02*
X4930941Y-24897476D01*
X4911893Y-24926048D01*
X4892845Y-24945095D01*
X4873798Y-24954619D01*
X5073798Y-25078428D02*
X5083322Y-25087952D01*
X5073798Y-25097476D01*
X5064274Y-25087952D01*
X5073798Y-25078428D01*
X5073798Y-25097476D01*
X5264274Y-24897476D02*
X5169036Y-24897476D01*
X5159512Y-24992714D01*
X5169036Y-24983190D01*
X5188084Y-24973667D01*
X5235703Y-24973667D01*
X5254750Y-24983190D01*
X5264274Y-24992714D01*
X5273798Y-25011762D01*
X5273798Y-25059381D01*
X5264274Y-25078428D01*
X5254750Y-25087952D01*
X5235703Y-25097476D01*
X5188084Y-25097476D01*
X5169036Y-25087952D01*
X5159512Y-25078428D01*
X5397607Y-24897476D02*
X5416655Y-24897476D01*
X5435703Y-24907000D01*
X5445226Y-24916524D01*
X5454750Y-24935571D01*
X5464274Y-24973667D01*
X5464274Y-25021286D01*
X5454750Y-25059381D01*
X5445226Y-25078428D01*
X5435703Y-25087952D01*
X5416655Y-25097476D01*
X5397607Y-25097476D01*
X5378560Y-25087952D01*
X5369036Y-25078428D01*
X5359512Y-25059381D01*
X5349988Y-25021286D01*
X5349988Y-24973667D01*
X5359512Y-24935571D01*
X5369036Y-24916524D01*
X5378560Y-24907000D01*
X5397607Y-24897476D01*
X5588084Y-24897476D02*
X5607131Y-24897476D01*
X5626179Y-24907000D01*
X5635703Y-24916524D01*
X5645226Y-24935571D01*
X5654750Y-24973667D01*
X5654750Y-25021286D01*
X5645226Y-25059381D01*
X5635703Y-25078428D01*
X5626179Y-25087952D01*
X5607131Y-25097476D01*
X5588084Y-25097476D01*
X5569036Y-25087952D01*
X5559512Y-25078428D01*
X5549988Y-25059381D01*
X5540465Y-25021286D01*
X5540465Y-24973667D01*
X5549988Y-24935571D01*
X5559512Y-24916524D01*
X5569036Y-24907000D01*
X5588084Y-24897476D01*
X5740464Y-25097476D02*
X5740464Y-24964143D01*
X5740464Y-24983190D02*
X5749988Y-24973667D01*
X5769036Y-24964143D01*
X5797607Y-24964143D01*
X5816655Y-24973667D01*
X5826179Y-24992714D01*
X5826179Y-25097476D01*
X5826179Y-24992714D02*
X5835703Y-24973667D01*
X5854750Y-24964143D01*
X5883322Y-24964143D01*
X5902369Y-24973667D01*
X5911893Y-24992714D01*
X5911893Y-25097476D01*
X6007131Y-25097476D02*
X6007131Y-24964143D01*
X6007131Y-24983190D02*
X6016655Y-24973667D01*
X6035703Y-24964143D01*
X6064274Y-24964143D01*
X6083322Y-24973667D01*
X6092845Y-24992714D01*
X6092845Y-25097476D01*
X6092845Y-24992714D02*
X6102369Y-24973667D01*
X6121417Y-24964143D01*
X6149988Y-24964143D01*
X6169036Y-24973667D01*
X6178560Y-24992714D01*
X6178560Y-25097476D01*
X6569036Y-24887952D02*
X6397607Y-25145095D01*
X6826179Y-24897476D02*
X6845226Y-24897476D01*
X6864274Y-24907000D01*
X6873798Y-24916524D01*
X6883322Y-24935571D01*
X6892845Y-24973667D01*
X6892845Y-25021286D01*
X6883322Y-25059381D01*
X6873798Y-25078428D01*
X6864274Y-25087952D01*
X6845226Y-25097476D01*
X6826179Y-25097476D01*
X6807131Y-25087952D01*
X6797607Y-25078428D01*
X6788083Y-25059381D01*
X6778560Y-25021286D01*
X6778560Y-24973667D01*
X6788083Y-24935571D01*
X6797607Y-24916524D01*
X6807131Y-24907000D01*
X6826179Y-24897476D01*
X6978560Y-25078428D02*
X6988083Y-25087952D01*
X6978560Y-25097476D01*
X6969036Y-25087952D01*
X6978560Y-25078428D01*
X6978560Y-25097476D01*
X7111893Y-24897476D02*
X7130941Y-24897476D01*
X7149988Y-24907000D01*
X7159512Y-24916524D01*
X7169036Y-24935571D01*
X7178560Y-24973667D01*
X7178560Y-25021286D01*
X7169036Y-25059381D01*
X7159512Y-25078428D01*
X7149988Y-25087952D01*
X7130941Y-25097476D01*
X7111893Y-25097476D01*
X7092845Y-25087952D01*
X7083322Y-25078428D01*
X7073798Y-25059381D01*
X7064274Y-25021286D01*
X7064274Y-24973667D01*
X7073798Y-24935571D01*
X7083322Y-24916524D01*
X7092845Y-24907000D01*
X7111893Y-24897476D01*
X7359512Y-24897476D02*
X7264274Y-24897476D01*
X7254750Y-24992714D01*
X7264274Y-24983190D01*
X7283322Y-24973667D01*
X7330941Y-24973667D01*
X7349988Y-24983190D01*
X7359512Y-24992714D01*
X7369036Y-25011762D01*
X7369036Y-25059381D01*
X7359512Y-25078428D01*
X7349988Y-25087952D01*
X7330941Y-25097476D01*
X7283322Y-25097476D01*
X7264274Y-25087952D01*
X7254750Y-25078428D01*
X7464274Y-25097476D02*
X7502369Y-25097476D01*
X7521417Y-25087952D01*
X7530941Y-25078428D01*
X7549988Y-25049857D01*
X7559512Y-25011762D01*
X7559512Y-24935571D01*
X7549988Y-24916524D01*
X7540464Y-24907000D01*
X7521417Y-24897476D01*
X7483322Y-24897476D01*
X7464274Y-24907000D01*
X7454750Y-24916524D01*
X7445226Y-24935571D01*
X7445226Y-24983190D01*
X7454750Y-25002238D01*
X7464274Y-25011762D01*
X7483322Y-25021286D01*
X7521417Y-25021286D01*
X7540464Y-25011762D01*
X7549988Y-25002238D01*
X7559512Y-24983190D01*
X7749988Y-25097476D02*
X7635702Y-25097476D01*
X7692845Y-25097476D02*
X7692845Y-24897476D01*
X7673798Y-24926048D01*
X7654750Y-24945095D01*
X7635702Y-24954619D01*
X7826179Y-24897476D02*
X7826179Y-24935571D01*
X7902369Y-24897476D02*
X7902369Y-24935571D01*
X8197607Y-25173667D02*
X8188083Y-25164143D01*
X8169036Y-25135571D01*
X8159512Y-25116524D01*
X8149988Y-25087952D01*
X8140464Y-25040333D01*
X8140464Y-25002238D01*
X8149988Y-24954619D01*
X8159512Y-24926048D01*
X8169036Y-24907000D01*
X8188083Y-24878428D01*
X8197607Y-24868905D01*
X8264274Y-24916524D02*
X8273798Y-24907000D01*
X8292845Y-24897476D01*
X8340464Y-24897476D01*
X8359512Y-24907000D01*
X8369036Y-24916524D01*
X8378560Y-24935571D01*
X8378560Y-24954619D01*
X8369036Y-24983190D01*
X8254750Y-25097476D01*
X8378560Y-25097476D01*
X8616655Y-25097476D02*
X8616655Y-24897476D01*
X8702369Y-25097476D02*
X8702369Y-24992714D01*
X8692845Y-24973667D01*
X8673798Y-24964143D01*
X8645226Y-24964143D01*
X8626179Y-24973667D01*
X8616655Y-24983190D01*
X8826179Y-25097476D02*
X8807131Y-25087952D01*
X8797607Y-25078428D01*
X8788084Y-25059381D01*
X8788084Y-25002238D01*
X8797607Y-24983190D01*
X8807131Y-24973667D01*
X8826179Y-24964143D01*
X8854750Y-24964143D01*
X8873798Y-24973667D01*
X8883322Y-24983190D01*
X8892845Y-25002238D01*
X8892845Y-25059381D01*
X8883322Y-25078428D01*
X8873798Y-25087952D01*
X8854750Y-25097476D01*
X8826179Y-25097476D01*
X9007131Y-25097476D02*
X8988084Y-25087952D01*
X8978560Y-25068905D01*
X8978560Y-24897476D01*
X9159512Y-25087952D02*
X9140465Y-25097476D01*
X9102369Y-25097476D01*
X9083322Y-25087952D01*
X9073798Y-25068905D01*
X9073798Y-24992714D01*
X9083322Y-24973667D01*
X9102369Y-24964143D01*
X9140465Y-24964143D01*
X9159512Y-24973667D01*
X9169036Y-24992714D01*
X9169036Y-25011762D01*
X9073798Y-25030809D01*
X9245226Y-25087952D02*
X9264274Y-25097476D01*
X9302369Y-25097476D01*
X9321417Y-25087952D01*
X9330941Y-25068905D01*
X9330941Y-25059381D01*
X9321417Y-25040333D01*
X9302369Y-25030809D01*
X9273798Y-25030809D01*
X9254750Y-25021286D01*
X9245226Y-25002238D01*
X9245226Y-24992714D01*
X9254750Y-24973667D01*
X9273798Y-24964143D01*
X9302369Y-24964143D01*
X9321417Y-24973667D01*
X9397607Y-25173667D02*
X9407131Y-25164143D01*
X9426179Y-25135571D01*
X9435703Y-25116524D01*
X9445226Y-25087952D01*
X9454750Y-25040333D01*
X9454750Y-25002238D01*
X9445226Y-24954619D01*
X9435703Y-24926048D01*
X9426179Y-24907000D01*
X9407131Y-24878428D01*
X9397607Y-24868905D01*
D21*
X4535703Y-25187000D02*
X4535703Y-25367000D01*
X4445703Y-25277000D02*
X4625703Y-25277000D01*
X4625703Y-25277000D02*
G75*
G03*
X4625703Y-25277000I-90000J0D01*
G01*
D11*
X4988084Y-25367476D02*
X4873798Y-25367476D01*
X4930941Y-25367476D02*
X4930941Y-25167476D01*
X4911893Y-25196048D01*
X4892845Y-25215095D01*
X4873798Y-25224619D01*
X5073798Y-25348428D02*
X5083322Y-25357952D01*
X5073798Y-25367476D01*
X5064274Y-25357952D01*
X5073798Y-25348428D01*
X5073798Y-25367476D01*
X5197607Y-25253190D02*
X5178560Y-25243667D01*
X5169036Y-25234143D01*
X5159512Y-25215095D01*
X5159512Y-25205571D01*
X5169036Y-25186524D01*
X5178560Y-25177000D01*
X5197607Y-25167476D01*
X5235703Y-25167476D01*
X5254750Y-25177000D01*
X5264274Y-25186524D01*
X5273798Y-25205571D01*
X5273798Y-25215095D01*
X5264274Y-25234143D01*
X5254750Y-25243667D01*
X5235703Y-25253190D01*
X5197607Y-25253190D01*
X5178560Y-25262714D01*
X5169036Y-25272238D01*
X5159512Y-25291286D01*
X5159512Y-25329381D01*
X5169036Y-25348428D01*
X5178560Y-25357952D01*
X5197607Y-25367476D01*
X5235703Y-25367476D01*
X5254750Y-25357952D01*
X5264274Y-25348428D01*
X5273798Y-25329381D01*
X5273798Y-25291286D01*
X5264274Y-25272238D01*
X5254750Y-25262714D01*
X5235703Y-25253190D01*
X5397607Y-25167476D02*
X5416655Y-25167476D01*
X5435703Y-25177000D01*
X5445226Y-25186524D01*
X5454750Y-25205571D01*
X5464274Y-25243667D01*
X5464274Y-25291286D01*
X5454750Y-25329381D01*
X5445226Y-25348428D01*
X5435703Y-25357952D01*
X5416655Y-25367476D01*
X5397607Y-25367476D01*
X5378560Y-25357952D01*
X5369036Y-25348428D01*
X5359512Y-25329381D01*
X5349988Y-25291286D01*
X5349988Y-25243667D01*
X5359512Y-25205571D01*
X5369036Y-25186524D01*
X5378560Y-25177000D01*
X5397607Y-25167476D01*
X5588084Y-25167476D02*
X5607131Y-25167476D01*
X5626179Y-25177000D01*
X5635703Y-25186524D01*
X5645226Y-25205571D01*
X5654750Y-25243667D01*
X5654750Y-25291286D01*
X5645226Y-25329381D01*
X5635703Y-25348428D01*
X5626179Y-25357952D01*
X5607131Y-25367476D01*
X5588084Y-25367476D01*
X5569036Y-25357952D01*
X5559512Y-25348428D01*
X5549988Y-25329381D01*
X5540465Y-25291286D01*
X5540465Y-25243667D01*
X5549988Y-25205571D01*
X5559512Y-25186524D01*
X5569036Y-25177000D01*
X5588084Y-25167476D01*
X5740464Y-25367476D02*
X5740464Y-25234143D01*
X5740464Y-25253190D02*
X5749988Y-25243667D01*
X5769036Y-25234143D01*
X5797607Y-25234143D01*
X5816655Y-25243667D01*
X5826179Y-25262714D01*
X5826179Y-25367476D01*
X5826179Y-25262714D02*
X5835703Y-25243667D01*
X5854750Y-25234143D01*
X5883322Y-25234143D01*
X5902369Y-25243667D01*
X5911893Y-25262714D01*
X5911893Y-25367476D01*
X6007131Y-25367476D02*
X6007131Y-25234143D01*
X6007131Y-25253190D02*
X6016655Y-25243667D01*
X6035703Y-25234143D01*
X6064274Y-25234143D01*
X6083322Y-25243667D01*
X6092845Y-25262714D01*
X6092845Y-25367476D01*
X6092845Y-25262714D02*
X6102369Y-25243667D01*
X6121417Y-25234143D01*
X6149988Y-25234143D01*
X6169036Y-25243667D01*
X6178560Y-25262714D01*
X6178560Y-25367476D01*
X6569036Y-25157952D02*
X6397607Y-25415095D01*
X6826179Y-25167476D02*
X6845226Y-25167476D01*
X6864274Y-25177000D01*
X6873798Y-25186524D01*
X6883322Y-25205571D01*
X6892845Y-25243667D01*
X6892845Y-25291286D01*
X6883322Y-25329381D01*
X6873798Y-25348428D01*
X6864274Y-25357952D01*
X6845226Y-25367476D01*
X6826179Y-25367476D01*
X6807131Y-25357952D01*
X6797607Y-25348428D01*
X6788083Y-25329381D01*
X6778560Y-25291286D01*
X6778560Y-25243667D01*
X6788083Y-25205571D01*
X6797607Y-25186524D01*
X6807131Y-25177000D01*
X6826179Y-25167476D01*
X6978560Y-25348428D02*
X6988083Y-25357952D01*
X6978560Y-25367476D01*
X6969036Y-25357952D01*
X6978560Y-25348428D01*
X6978560Y-25367476D01*
X7111893Y-25167476D02*
X7130941Y-25167476D01*
X7149988Y-25177000D01*
X7159512Y-25186524D01*
X7169036Y-25205571D01*
X7178560Y-25243667D01*
X7178560Y-25291286D01*
X7169036Y-25329381D01*
X7159512Y-25348428D01*
X7149988Y-25357952D01*
X7130941Y-25367476D01*
X7111893Y-25367476D01*
X7092845Y-25357952D01*
X7083322Y-25348428D01*
X7073798Y-25329381D01*
X7064274Y-25291286D01*
X7064274Y-25243667D01*
X7073798Y-25205571D01*
X7083322Y-25186524D01*
X7092845Y-25177000D01*
X7111893Y-25167476D01*
X7245226Y-25167476D02*
X7378560Y-25167476D01*
X7292845Y-25367476D01*
X7492845Y-25167476D02*
X7511893Y-25167476D01*
X7530941Y-25177000D01*
X7540464Y-25186524D01*
X7549988Y-25205571D01*
X7559512Y-25243667D01*
X7559512Y-25291286D01*
X7549988Y-25329381D01*
X7540464Y-25348428D01*
X7530941Y-25357952D01*
X7511893Y-25367476D01*
X7492845Y-25367476D01*
X7473798Y-25357952D01*
X7464274Y-25348428D01*
X7454750Y-25329381D01*
X7445226Y-25291286D01*
X7445226Y-25243667D01*
X7454750Y-25205571D01*
X7464274Y-25186524D01*
X7473798Y-25177000D01*
X7492845Y-25167476D01*
X7654750Y-25367476D02*
X7692845Y-25367476D01*
X7711893Y-25357952D01*
X7721417Y-25348428D01*
X7740464Y-25319857D01*
X7749988Y-25281762D01*
X7749988Y-25205571D01*
X7740464Y-25186524D01*
X7730941Y-25177000D01*
X7711893Y-25167476D01*
X7673798Y-25167476D01*
X7654750Y-25177000D01*
X7645226Y-25186524D01*
X7635702Y-25205571D01*
X7635702Y-25253190D01*
X7645226Y-25272238D01*
X7654750Y-25281762D01*
X7673798Y-25291286D01*
X7711893Y-25291286D01*
X7730941Y-25281762D01*
X7740464Y-25272238D01*
X7749988Y-25253190D01*
X7826179Y-25167476D02*
X7826179Y-25205571D01*
X7902369Y-25167476D02*
X7902369Y-25205571D01*
X8197607Y-25443667D02*
X8188083Y-25434143D01*
X8169036Y-25405571D01*
X8159512Y-25386524D01*
X8149988Y-25357952D01*
X8140464Y-25310333D01*
X8140464Y-25272238D01*
X8149988Y-25224619D01*
X8159512Y-25196048D01*
X8169036Y-25177000D01*
X8188083Y-25148428D01*
X8197607Y-25138905D01*
X8264274Y-25186524D02*
X8273798Y-25177000D01*
X8292845Y-25167476D01*
X8340464Y-25167476D01*
X8359512Y-25177000D01*
X8369036Y-25186524D01*
X8378560Y-25205571D01*
X8378560Y-25224619D01*
X8369036Y-25253190D01*
X8254750Y-25367476D01*
X8378560Y-25367476D01*
X8616655Y-25367476D02*
X8616655Y-25167476D01*
X8702369Y-25367476D02*
X8702369Y-25262714D01*
X8692845Y-25243667D01*
X8673798Y-25234143D01*
X8645226Y-25234143D01*
X8626179Y-25243667D01*
X8616655Y-25253190D01*
X8826179Y-25367476D02*
X8807131Y-25357952D01*
X8797607Y-25348428D01*
X8788084Y-25329381D01*
X8788084Y-25272238D01*
X8797607Y-25253190D01*
X8807131Y-25243667D01*
X8826179Y-25234143D01*
X8854750Y-25234143D01*
X8873798Y-25243667D01*
X8883322Y-25253190D01*
X8892845Y-25272238D01*
X8892845Y-25329381D01*
X8883322Y-25348428D01*
X8873798Y-25357952D01*
X8854750Y-25367476D01*
X8826179Y-25367476D01*
X9007131Y-25367476D02*
X8988084Y-25357952D01*
X8978560Y-25338905D01*
X8978560Y-25167476D01*
X9159512Y-25357952D02*
X9140465Y-25367476D01*
X9102369Y-25367476D01*
X9083322Y-25357952D01*
X9073798Y-25338905D01*
X9073798Y-25262714D01*
X9083322Y-25243667D01*
X9102369Y-25234143D01*
X9140465Y-25234143D01*
X9159512Y-25243667D01*
X9169036Y-25262714D01*
X9169036Y-25281762D01*
X9073798Y-25300809D01*
X9245226Y-25357952D02*
X9264274Y-25367476D01*
X9302369Y-25367476D01*
X9321417Y-25357952D01*
X9330941Y-25338905D01*
X9330941Y-25329381D01*
X9321417Y-25310333D01*
X9302369Y-25300809D01*
X9273798Y-25300809D01*
X9254750Y-25291286D01*
X9245226Y-25272238D01*
X9245226Y-25262714D01*
X9254750Y-25243667D01*
X9273798Y-25234143D01*
X9302369Y-25234143D01*
X9321417Y-25243667D01*
X9397607Y-25443667D02*
X9407131Y-25434143D01*
X9426179Y-25405571D01*
X9435703Y-25386524D01*
X9445226Y-25357952D01*
X9454750Y-25310333D01*
X9454750Y-25272238D01*
X9445226Y-25224619D01*
X9435703Y-25196048D01*
X9426179Y-25177000D01*
X9407131Y-25148428D01*
X9397607Y-25138905D01*
X4596414Y-25647711D02*
X4596414Y-25506289D01*
X4454991Y-25506289D01*
X4454991Y-25647711D01*
X4596414Y-25647711D01*
X4625703Y-25577000D02*
G75*
G03*
X4625703Y-25577000I-100000J0D01*
G01*
X4873798Y-25486524D02*
X4883322Y-25477000D01*
X4902369Y-25467476D01*
X4949988Y-25467476D01*
X4969036Y-25477000D01*
X4978560Y-25486524D01*
X4988084Y-25505571D01*
X4988084Y-25524619D01*
X4978560Y-25553190D01*
X4864274Y-25667476D01*
X4988084Y-25667476D01*
X5073798Y-25648428D02*
X5083322Y-25657952D01*
X5073798Y-25667476D01*
X5064274Y-25657952D01*
X5073798Y-25648428D01*
X5073798Y-25667476D01*
X5207131Y-25467476D02*
X5226179Y-25467476D01*
X5245226Y-25477000D01*
X5254750Y-25486524D01*
X5264274Y-25505571D01*
X5273798Y-25543667D01*
X5273798Y-25591286D01*
X5264274Y-25629381D01*
X5254750Y-25648428D01*
X5245226Y-25657952D01*
X5226179Y-25667476D01*
X5207131Y-25667476D01*
X5188084Y-25657952D01*
X5178560Y-25648428D01*
X5169036Y-25629381D01*
X5159512Y-25591286D01*
X5159512Y-25543667D01*
X5169036Y-25505571D01*
X5178560Y-25486524D01*
X5188084Y-25477000D01*
X5207131Y-25467476D01*
X5397607Y-25467476D02*
X5416655Y-25467476D01*
X5435703Y-25477000D01*
X5445226Y-25486524D01*
X5454750Y-25505571D01*
X5464274Y-25543667D01*
X5464274Y-25591286D01*
X5454750Y-25629381D01*
X5445226Y-25648428D01*
X5435703Y-25657952D01*
X5416655Y-25667476D01*
X5397607Y-25667476D01*
X5378560Y-25657952D01*
X5369036Y-25648428D01*
X5359512Y-25629381D01*
X5349988Y-25591286D01*
X5349988Y-25543667D01*
X5359512Y-25505571D01*
X5369036Y-25486524D01*
X5378560Y-25477000D01*
X5397607Y-25467476D01*
X5588084Y-25467476D02*
X5607131Y-25467476D01*
X5626179Y-25477000D01*
X5635703Y-25486524D01*
X5645226Y-25505571D01*
X5654750Y-25543667D01*
X5654750Y-25591286D01*
X5645226Y-25629381D01*
X5635703Y-25648428D01*
X5626179Y-25657952D01*
X5607131Y-25667476D01*
X5588084Y-25667476D01*
X5569036Y-25657952D01*
X5559512Y-25648428D01*
X5549988Y-25629381D01*
X5540465Y-25591286D01*
X5540465Y-25543667D01*
X5549988Y-25505571D01*
X5559512Y-25486524D01*
X5569036Y-25477000D01*
X5588084Y-25467476D01*
X5740464Y-25667476D02*
X5740464Y-25534143D01*
X5740464Y-25553190D02*
X5749988Y-25543667D01*
X5769036Y-25534143D01*
X5797607Y-25534143D01*
X5816655Y-25543667D01*
X5826179Y-25562714D01*
X5826179Y-25667476D01*
X5826179Y-25562714D02*
X5835703Y-25543667D01*
X5854750Y-25534143D01*
X5883322Y-25534143D01*
X5902369Y-25543667D01*
X5911893Y-25562714D01*
X5911893Y-25667476D01*
X6007131Y-25667476D02*
X6007131Y-25534143D01*
X6007131Y-25553190D02*
X6016655Y-25543667D01*
X6035703Y-25534143D01*
X6064274Y-25534143D01*
X6083322Y-25543667D01*
X6092845Y-25562714D01*
X6092845Y-25667476D01*
X6092845Y-25562714D02*
X6102369Y-25543667D01*
X6121417Y-25534143D01*
X6149988Y-25534143D01*
X6169036Y-25543667D01*
X6178560Y-25562714D01*
X6178560Y-25667476D01*
X6569036Y-25457952D02*
X6397607Y-25715095D01*
X6826179Y-25467476D02*
X6845226Y-25467476D01*
X6864274Y-25477000D01*
X6873798Y-25486524D01*
X6883322Y-25505571D01*
X6892845Y-25543667D01*
X6892845Y-25591286D01*
X6883322Y-25629381D01*
X6873798Y-25648428D01*
X6864274Y-25657952D01*
X6845226Y-25667476D01*
X6826179Y-25667476D01*
X6807131Y-25657952D01*
X6797607Y-25648428D01*
X6788083Y-25629381D01*
X6778560Y-25591286D01*
X6778560Y-25543667D01*
X6788083Y-25505571D01*
X6797607Y-25486524D01*
X6807131Y-25477000D01*
X6826179Y-25467476D01*
X6978560Y-25648428D02*
X6988083Y-25657952D01*
X6978560Y-25667476D01*
X6969036Y-25657952D01*
X6978560Y-25648428D01*
X6978560Y-25667476D01*
X7111893Y-25467476D02*
X7130941Y-25467476D01*
X7149988Y-25477000D01*
X7159512Y-25486524D01*
X7169036Y-25505571D01*
X7178560Y-25543667D01*
X7178560Y-25591286D01*
X7169036Y-25629381D01*
X7159512Y-25648428D01*
X7149988Y-25657952D01*
X7130941Y-25667476D01*
X7111893Y-25667476D01*
X7092845Y-25657952D01*
X7083322Y-25648428D01*
X7073798Y-25629381D01*
X7064274Y-25591286D01*
X7064274Y-25543667D01*
X7073798Y-25505571D01*
X7083322Y-25486524D01*
X7092845Y-25477000D01*
X7111893Y-25467476D01*
X7245226Y-25467476D02*
X7378560Y-25467476D01*
X7292845Y-25667476D01*
X7483322Y-25553190D02*
X7464274Y-25543667D01*
X7454750Y-25534143D01*
X7445226Y-25515095D01*
X7445226Y-25505571D01*
X7454750Y-25486524D01*
X7464274Y-25477000D01*
X7483322Y-25467476D01*
X7521417Y-25467476D01*
X7540464Y-25477000D01*
X7549988Y-25486524D01*
X7559512Y-25505571D01*
X7559512Y-25515095D01*
X7549988Y-25534143D01*
X7540464Y-25543667D01*
X7521417Y-25553190D01*
X7483322Y-25553190D01*
X7464274Y-25562714D01*
X7454750Y-25572238D01*
X7445226Y-25591286D01*
X7445226Y-25629381D01*
X7454750Y-25648428D01*
X7464274Y-25657952D01*
X7483322Y-25667476D01*
X7521417Y-25667476D01*
X7540464Y-25657952D01*
X7549988Y-25648428D01*
X7559512Y-25629381D01*
X7559512Y-25591286D01*
X7549988Y-25572238D01*
X7540464Y-25562714D01*
X7521417Y-25553190D01*
X7626179Y-25467476D02*
X7759512Y-25467476D01*
X7673798Y-25667476D01*
X7826179Y-25467476D02*
X7826179Y-25505571D01*
X7902369Y-25467476D02*
X7902369Y-25505571D01*
X8197607Y-25743667D02*
X8188083Y-25734143D01*
X8169036Y-25705571D01*
X8159512Y-25686524D01*
X8149988Y-25657952D01*
X8140464Y-25610333D01*
X8140464Y-25572238D01*
X8149988Y-25524619D01*
X8159512Y-25496048D01*
X8169036Y-25477000D01*
X8188083Y-25448428D01*
X8197607Y-25438905D01*
X8378560Y-25667476D02*
X8264274Y-25667476D01*
X8321417Y-25667476D02*
X8321417Y-25467476D01*
X8302369Y-25496048D01*
X8283322Y-25515095D01*
X8264274Y-25524619D01*
X8445226Y-25467476D02*
X8578560Y-25467476D01*
X8492845Y-25667476D01*
X8807131Y-25667476D02*
X8807131Y-25467476D01*
X8892845Y-25667476D02*
X8892845Y-25562714D01*
X8883322Y-25543667D01*
X8864274Y-25534143D01*
X8835703Y-25534143D01*
X8816655Y-25543667D01*
X8807131Y-25553190D01*
X9016655Y-25667476D02*
X8997607Y-25657952D01*
X8988084Y-25648428D01*
X8978560Y-25629381D01*
X8978560Y-25572238D01*
X8988084Y-25553190D01*
X8997607Y-25543667D01*
X9016655Y-25534143D01*
X9045226Y-25534143D01*
X9064274Y-25543667D01*
X9073798Y-25553190D01*
X9083322Y-25572238D01*
X9083322Y-25629381D01*
X9073798Y-25648428D01*
X9064274Y-25657952D01*
X9045226Y-25667476D01*
X9016655Y-25667476D01*
X9197607Y-25667476D02*
X9178560Y-25657952D01*
X9169036Y-25638905D01*
X9169036Y-25467476D01*
X9349988Y-25657952D02*
X9330941Y-25667476D01*
X9292845Y-25667476D01*
X9273798Y-25657952D01*
X9264274Y-25638905D01*
X9264274Y-25562714D01*
X9273798Y-25543667D01*
X9292845Y-25534143D01*
X9330941Y-25534143D01*
X9349988Y-25543667D01*
X9359512Y-25562714D01*
X9359512Y-25581762D01*
X9264274Y-25600809D01*
X9435703Y-25657952D02*
X9454750Y-25667476D01*
X9492845Y-25667476D01*
X9511893Y-25657952D01*
X9521417Y-25638905D01*
X9521417Y-25629381D01*
X9511893Y-25610333D01*
X9492845Y-25600809D01*
X9464274Y-25600809D01*
X9445226Y-25591286D01*
X9435703Y-25572238D01*
X9435703Y-25562714D01*
X9445226Y-25543667D01*
X9464274Y-25534143D01*
X9492845Y-25534143D01*
X9511893Y-25543667D01*
X9588084Y-25743667D02*
X9597607Y-25734143D01*
X9616655Y-25705571D01*
X9626179Y-25686524D01*
X9635703Y-25657952D01*
X9645226Y-25610333D01*
X9645226Y-25572238D01*
X9635703Y-25524619D01*
X9626179Y-25496048D01*
X9616655Y-25477000D01*
X9597607Y-25448428D01*
X9588084Y-25438905D01*
X4525703Y-25997000D02*
X4625703Y-25897000D01*
X4525703Y-25797000D01*
X4425703Y-25897000D01*
X4525703Y-25997000D01*
X4625703Y-25897000D02*
G75*
G03*
X4625703Y-25897000I-100000J0D01*
G01*
X4873798Y-25806524D02*
X4883322Y-25797000D01*
X4902369Y-25787476D01*
X4949988Y-25787476D01*
X4969036Y-25797000D01*
X4978560Y-25806524D01*
X4988084Y-25825571D01*
X4988084Y-25844619D01*
X4978560Y-25873190D01*
X4864274Y-25987476D01*
X4988084Y-25987476D01*
X5073798Y-25968428D02*
X5083322Y-25977952D01*
X5073798Y-25987476D01*
X5064274Y-25977952D01*
X5073798Y-25968428D01*
X5073798Y-25987476D01*
X5149988Y-25787476D02*
X5273798Y-25787476D01*
X5207131Y-25863667D01*
X5235703Y-25863667D01*
X5254750Y-25873190D01*
X5264274Y-25882714D01*
X5273798Y-25901762D01*
X5273798Y-25949381D01*
X5264274Y-25968428D01*
X5254750Y-25977952D01*
X5235703Y-25987476D01*
X5178560Y-25987476D01*
X5159512Y-25977952D01*
X5149988Y-25968428D01*
X5397607Y-25787476D02*
X5416655Y-25787476D01*
X5435703Y-25797000D01*
X5445226Y-25806524D01*
X5454750Y-25825571D01*
X5464274Y-25863667D01*
X5464274Y-25911286D01*
X5454750Y-25949381D01*
X5445226Y-25968428D01*
X5435703Y-25977952D01*
X5416655Y-25987476D01*
X5397607Y-25987476D01*
X5378560Y-25977952D01*
X5369036Y-25968428D01*
X5359512Y-25949381D01*
X5349988Y-25911286D01*
X5349988Y-25863667D01*
X5359512Y-25825571D01*
X5369036Y-25806524D01*
X5378560Y-25797000D01*
X5397607Y-25787476D01*
X5588084Y-25787476D02*
X5607131Y-25787476D01*
X5626179Y-25797000D01*
X5635703Y-25806524D01*
X5645226Y-25825571D01*
X5654750Y-25863667D01*
X5654750Y-25911286D01*
X5645226Y-25949381D01*
X5635703Y-25968428D01*
X5626179Y-25977952D01*
X5607131Y-25987476D01*
X5588084Y-25987476D01*
X5569036Y-25977952D01*
X5559512Y-25968428D01*
X5549988Y-25949381D01*
X5540465Y-25911286D01*
X5540465Y-25863667D01*
X5549988Y-25825571D01*
X5559512Y-25806524D01*
X5569036Y-25797000D01*
X5588084Y-25787476D01*
X5740464Y-25987476D02*
X5740464Y-25854143D01*
X5740464Y-25873190D02*
X5749988Y-25863667D01*
X5769036Y-25854143D01*
X5797607Y-25854143D01*
X5816655Y-25863667D01*
X5826179Y-25882714D01*
X5826179Y-25987476D01*
X5826179Y-25882714D02*
X5835703Y-25863667D01*
X5854750Y-25854143D01*
X5883322Y-25854143D01*
X5902369Y-25863667D01*
X5911893Y-25882714D01*
X5911893Y-25987476D01*
X6007131Y-25987476D02*
X6007131Y-25854143D01*
X6007131Y-25873190D02*
X6016655Y-25863667D01*
X6035703Y-25854143D01*
X6064274Y-25854143D01*
X6083322Y-25863667D01*
X6092845Y-25882714D01*
X6092845Y-25987476D01*
X6092845Y-25882714D02*
X6102369Y-25863667D01*
X6121417Y-25854143D01*
X6149988Y-25854143D01*
X6169036Y-25863667D01*
X6178560Y-25882714D01*
X6178560Y-25987476D01*
X6569036Y-25777952D02*
X6397607Y-26035095D01*
X6826179Y-25787476D02*
X6845226Y-25787476D01*
X6864274Y-25797000D01*
X6873798Y-25806524D01*
X6883322Y-25825571D01*
X6892845Y-25863667D01*
X6892845Y-25911286D01*
X6883322Y-25949381D01*
X6873798Y-25968428D01*
X6864274Y-25977952D01*
X6845226Y-25987476D01*
X6826179Y-25987476D01*
X6807131Y-25977952D01*
X6797607Y-25968428D01*
X6788083Y-25949381D01*
X6778560Y-25911286D01*
X6778560Y-25863667D01*
X6788083Y-25825571D01*
X6797607Y-25806524D01*
X6807131Y-25797000D01*
X6826179Y-25787476D01*
X6978560Y-25968428D02*
X6988083Y-25977952D01*
X6978560Y-25987476D01*
X6969036Y-25977952D01*
X6978560Y-25968428D01*
X6978560Y-25987476D01*
X7111893Y-25787476D02*
X7130941Y-25787476D01*
X7149988Y-25797000D01*
X7159512Y-25806524D01*
X7169036Y-25825571D01*
X7178560Y-25863667D01*
X7178560Y-25911286D01*
X7169036Y-25949381D01*
X7159512Y-25968428D01*
X7149988Y-25977952D01*
X7130941Y-25987476D01*
X7111893Y-25987476D01*
X7092845Y-25977952D01*
X7083322Y-25968428D01*
X7073798Y-25949381D01*
X7064274Y-25911286D01*
X7064274Y-25863667D01*
X7073798Y-25825571D01*
X7083322Y-25806524D01*
X7092845Y-25797000D01*
X7111893Y-25787476D01*
X7273798Y-25987476D02*
X7311893Y-25987476D01*
X7330941Y-25977952D01*
X7340464Y-25968428D01*
X7359512Y-25939857D01*
X7369036Y-25901762D01*
X7369036Y-25825571D01*
X7359512Y-25806524D01*
X7349988Y-25797000D01*
X7330941Y-25787476D01*
X7292845Y-25787476D01*
X7273798Y-25797000D01*
X7264274Y-25806524D01*
X7254750Y-25825571D01*
X7254750Y-25873190D01*
X7264274Y-25892238D01*
X7273798Y-25901762D01*
X7292845Y-25911286D01*
X7330941Y-25911286D01*
X7349988Y-25901762D01*
X7359512Y-25892238D01*
X7369036Y-25873190D01*
X7492845Y-25787476D02*
X7511893Y-25787476D01*
X7530941Y-25797000D01*
X7540464Y-25806524D01*
X7549988Y-25825571D01*
X7559512Y-25863667D01*
X7559512Y-25911286D01*
X7549988Y-25949381D01*
X7540464Y-25968428D01*
X7530941Y-25977952D01*
X7511893Y-25987476D01*
X7492845Y-25987476D01*
X7473798Y-25977952D01*
X7464274Y-25968428D01*
X7454750Y-25949381D01*
X7445226Y-25911286D01*
X7445226Y-25863667D01*
X7454750Y-25825571D01*
X7464274Y-25806524D01*
X7473798Y-25797000D01*
X7492845Y-25787476D01*
X7730941Y-25787476D02*
X7692845Y-25787476D01*
X7673798Y-25797000D01*
X7664274Y-25806524D01*
X7645226Y-25835095D01*
X7635702Y-25873190D01*
X7635702Y-25949381D01*
X7645226Y-25968428D01*
X7654750Y-25977952D01*
X7673798Y-25987476D01*
X7711893Y-25987476D01*
X7730941Y-25977952D01*
X7740464Y-25968428D01*
X7749988Y-25949381D01*
X7749988Y-25901762D01*
X7740464Y-25882714D01*
X7730941Y-25873190D01*
X7711893Y-25863667D01*
X7673798Y-25863667D01*
X7654750Y-25873190D01*
X7645226Y-25882714D01*
X7635702Y-25901762D01*
X7826179Y-25787476D02*
X7826179Y-25825571D01*
X7902369Y-25787476D02*
X7902369Y-25825571D01*
X8197607Y-26063667D02*
X8188083Y-26054143D01*
X8169036Y-26025571D01*
X8159512Y-26006524D01*
X8149988Y-25977952D01*
X8140464Y-25930333D01*
X8140464Y-25892238D01*
X8149988Y-25844619D01*
X8159512Y-25816048D01*
X8169036Y-25797000D01*
X8188083Y-25768428D01*
X8197607Y-25758905D01*
X8378560Y-25987476D02*
X8264274Y-25987476D01*
X8321417Y-25987476D02*
X8321417Y-25787476D01*
X8302369Y-25816048D01*
X8283322Y-25835095D01*
X8264274Y-25844619D01*
X8549988Y-25787476D02*
X8511893Y-25787476D01*
X8492845Y-25797000D01*
X8483322Y-25806524D01*
X8464274Y-25835095D01*
X8454750Y-25873190D01*
X8454750Y-25949381D01*
X8464274Y-25968428D01*
X8473798Y-25977952D01*
X8492845Y-25987476D01*
X8530941Y-25987476D01*
X8549988Y-25977952D01*
X8559512Y-25968428D01*
X8569036Y-25949381D01*
X8569036Y-25901762D01*
X8559512Y-25882714D01*
X8549988Y-25873190D01*
X8530941Y-25863667D01*
X8492845Y-25863667D01*
X8473798Y-25873190D01*
X8464274Y-25882714D01*
X8454750Y-25901762D01*
X8807131Y-25987476D02*
X8807131Y-25787476D01*
X8892845Y-25987476D02*
X8892845Y-25882714D01*
X8883322Y-25863667D01*
X8864274Y-25854143D01*
X8835703Y-25854143D01*
X8816655Y-25863667D01*
X8807131Y-25873190D01*
X9016655Y-25987476D02*
X8997607Y-25977952D01*
X8988084Y-25968428D01*
X8978560Y-25949381D01*
X8978560Y-25892238D01*
X8988084Y-25873190D01*
X8997607Y-25863667D01*
X9016655Y-25854143D01*
X9045226Y-25854143D01*
X9064274Y-25863667D01*
X9073798Y-25873190D01*
X9083322Y-25892238D01*
X9083322Y-25949381D01*
X9073798Y-25968428D01*
X9064274Y-25977952D01*
X9045226Y-25987476D01*
X9016655Y-25987476D01*
X9197607Y-25987476D02*
X9178560Y-25977952D01*
X9169036Y-25958905D01*
X9169036Y-25787476D01*
X9349988Y-25977952D02*
X9330941Y-25987476D01*
X9292845Y-25987476D01*
X9273798Y-25977952D01*
X9264274Y-25958905D01*
X9264274Y-25882714D01*
X9273798Y-25863667D01*
X9292845Y-25854143D01*
X9330941Y-25854143D01*
X9349988Y-25863667D01*
X9359512Y-25882714D01*
X9359512Y-25901762D01*
X9264274Y-25920809D01*
X9435703Y-25977952D02*
X9454750Y-25987476D01*
X9492845Y-25987476D01*
X9511893Y-25977952D01*
X9521417Y-25958905D01*
X9521417Y-25949381D01*
X9511893Y-25930333D01*
X9492845Y-25920809D01*
X9464274Y-25920809D01*
X9445226Y-25911286D01*
X9435703Y-25892238D01*
X9435703Y-25882714D01*
X9445226Y-25863667D01*
X9464274Y-25854143D01*
X9492845Y-25854143D01*
X9511893Y-25863667D01*
X9588084Y-26063667D02*
X9597607Y-26054143D01*
X9616655Y-26025571D01*
X9626179Y-26006524D01*
X9635703Y-25977952D01*
X9645226Y-25930333D01*
X9645226Y-25892238D01*
X9635703Y-25844619D01*
X9626179Y-25816048D01*
X9616655Y-25797000D01*
X9597607Y-25768428D01*
X9588084Y-25758905D01*
M02*
