%TF.GenerationSoftware,KiCad,Pcbnew,(6.0.7)*%
%TF.CreationDate,2022-09-11T16:21:36-04:00*%
%TF.ProjectId,augertapowermanagement,61756765-7274-4617-906f-7765726d616e,rev?*%
%TF.SameCoordinates,Original*%
%TF.FileFunction,Legend,Top*%
%TF.FilePolarity,Positive*%
%FSLAX46Y46*%
G04 Gerber Fmt 4.6, Leading zero omitted, Abs format (unit mm)*
G04 Created by KiCad (PCBNEW (6.0.7)) date 2022-09-11 16:21:36*
%MOMM*%
%LPD*%
G01*
G04 APERTURE LIST*
G04 Aperture macros list*
%AMRoundRect*
0 Rectangle with rounded corners*
0 $1 Rounding radius*
0 $2 $3 $4 $5 $6 $7 $8 $9 X,Y pos of 4 corners*
0 Add a 4 corners polygon primitive as box body*
4,1,4,$2,$3,$4,$5,$6,$7,$8,$9,$2,$3,0*
0 Add four circle primitives for the rounded corners*
1,1,$1+$1,$2,$3*
1,1,$1+$1,$4,$5*
1,1,$1+$1,$6,$7*
1,1,$1+$1,$8,$9*
0 Add four rect primitives between the rounded corners*
20,1,$1+$1,$2,$3,$4,$5,0*
20,1,$1+$1,$4,$5,$6,$7,0*
20,1,$1+$1,$6,$7,$8,$9,0*
20,1,$1+$1,$8,$9,$2,$3,0*%
G04 Aperture macros list end*
%ADD10C,0.300000*%
%ADD11C,0.150000*%
%ADD12C,0.120000*%
%ADD13C,0.127000*%
%ADD14R,4.572000X4.572000*%
%ADD15C,8.400000*%
%ADD16R,2.200000X2.200000*%
%ADD17O,2.200000X2.200000*%
%ADD18RoundRect,0.150000X-0.825000X-0.150000X0.825000X-0.150000X0.825000X0.150000X-0.825000X0.150000X0*%
%ADD19R,2.600000X2.600000*%
%ADD20C,2.600000*%
%ADD21C,3.000000*%
%ADD22R,3.000000X2.475000*%
%ADD23C,3.700000*%
%ADD24RoundRect,0.250002X-1.599998X-1.599998X1.599998X-1.599998X1.599998X1.599998X-1.599998X1.599998X0*%
%ADD25RoundRect,0.250000X1.975000X-1.350000X1.975000X1.350000X-1.975000X1.350000X-1.975000X-1.350000X0*%
%ADD26RoundRect,0.250000X-1.350000X-1.975000X1.350000X-1.975000X1.350000X1.975000X-1.350000X1.975000X0*%
%ADD27RoundRect,0.500000X-0.500000X-0.500000X0.500000X-0.500000X0.500000X0.500000X-0.500000X0.500000X0*%
%ADD28C,2.000000*%
%ADD29RoundRect,0.250000X-1.100000X0.412500X-1.100000X-0.412500X1.100000X-0.412500X1.100000X0.412500X0*%
%ADD30RoundRect,0.250000X0.400000X0.625000X-0.400000X0.625000X-0.400000X-0.625000X0.400000X-0.625000X0*%
%ADD31RoundRect,0.250000X0.625000X-0.400000X0.625000X0.400000X-0.625000X0.400000X-0.625000X-0.400000X0*%
%ADD32RoundRect,0.500000X0.500000X-0.500000X0.500000X0.500000X-0.500000X0.500000X-0.500000X-0.500000X0*%
%ADD33RoundRect,0.250000X1.350000X1.975000X-1.350000X1.975000X-1.350000X-1.975000X1.350000X-1.975000X0*%
%ADD34R,1.500000X1.500000*%
%ADD35C,1.500000*%
%ADD36R,1.350000X1.350000*%
%ADD37O,1.350000X1.350000*%
%ADD38RoundRect,0.150000X0.825000X0.150000X-0.825000X0.150000X-0.825000X-0.150000X0.825000X-0.150000X0*%
%ADD39RoundRect,0.250000X-0.400000X-0.625000X0.400000X-0.625000X0.400000X0.625000X-0.400000X0.625000X0*%
%ADD40R,1.800000X1.100000*%
%ADD41RoundRect,0.275000X0.625000X-0.275000X0.625000X0.275000X-0.625000X0.275000X-0.625000X-0.275000X0*%
%ADD42O,1.500000X2.500000*%
%ADD43R,1.500000X2.500000*%
%ADD44O,2.200000X3.500000*%
%ADD45R,1.700000X1.700000*%
%ADD46O,1.700000X1.700000*%
%ADD47R,1.560000X1.560000*%
%ADD48C,1.560000*%
%ADD49R,2.475000X3.000000*%
G04 APERTURE END LIST*
D10*
X53016857Y-105936171D02*
X53016857Y-104436171D01*
X53374000Y-104436171D01*
X53588285Y-104507600D01*
X53731142Y-104650457D01*
X53802571Y-104793314D01*
X53874000Y-105079028D01*
X53874000Y-105293314D01*
X53802571Y-105579028D01*
X53731142Y-105721885D01*
X53588285Y-105864742D01*
X53374000Y-105936171D01*
X53016857Y-105936171D01*
X55088285Y-105864742D02*
X54945428Y-105936171D01*
X54659714Y-105936171D01*
X54516857Y-105864742D01*
X54445428Y-105721885D01*
X54445428Y-105150457D01*
X54516857Y-105007600D01*
X54659714Y-104936171D01*
X54945428Y-104936171D01*
X55088285Y-105007600D01*
X55159714Y-105150457D01*
X55159714Y-105293314D01*
X54445428Y-105436171D01*
X55731142Y-105864742D02*
X55874000Y-105936171D01*
X56159714Y-105936171D01*
X56302571Y-105864742D01*
X56374000Y-105721885D01*
X56374000Y-105650457D01*
X56302571Y-105507600D01*
X56159714Y-105436171D01*
X55945428Y-105436171D01*
X55802571Y-105364742D01*
X55731142Y-105221885D01*
X55731142Y-105150457D01*
X55802571Y-105007600D01*
X55945428Y-104936171D01*
X56159714Y-104936171D01*
X56302571Y-105007600D01*
X57016857Y-105936171D02*
X57016857Y-104936171D01*
X57016857Y-104436171D02*
X56945428Y-104507600D01*
X57016857Y-104579028D01*
X57088285Y-104507600D01*
X57016857Y-104436171D01*
X57016857Y-104579028D01*
X58374000Y-104936171D02*
X58374000Y-106150457D01*
X58302571Y-106293314D01*
X58231142Y-106364742D01*
X58088285Y-106436171D01*
X57874000Y-106436171D01*
X57731142Y-106364742D01*
X58374000Y-105864742D02*
X58231142Y-105936171D01*
X57945428Y-105936171D01*
X57802571Y-105864742D01*
X57731142Y-105793314D01*
X57659714Y-105650457D01*
X57659714Y-105221885D01*
X57731142Y-105079028D01*
X57802571Y-105007600D01*
X57945428Y-104936171D01*
X58231142Y-104936171D01*
X58374000Y-105007600D01*
X59088285Y-104936171D02*
X59088285Y-105936171D01*
X59088285Y-105079028D02*
X59159714Y-105007600D01*
X59302571Y-104936171D01*
X59516857Y-104936171D01*
X59659714Y-105007600D01*
X59731142Y-105150457D01*
X59731142Y-105936171D01*
X61588285Y-105936171D02*
X61588285Y-104436171D01*
X61588285Y-105007600D02*
X61731142Y-104936171D01*
X62016857Y-104936171D01*
X62159714Y-105007600D01*
X62231142Y-105079028D01*
X62302571Y-105221885D01*
X62302571Y-105650457D01*
X62231142Y-105793314D01*
X62159714Y-105864742D01*
X62016857Y-105936171D01*
X61731142Y-105936171D01*
X61588285Y-105864742D01*
X62802571Y-104936171D02*
X63159714Y-105936171D01*
X63516857Y-104936171D02*
X63159714Y-105936171D01*
X63016857Y-106293314D01*
X62945428Y-106364742D01*
X62802571Y-106436171D01*
X66088285Y-105936171D02*
X65588285Y-105221885D01*
X65231142Y-105936171D02*
X65231142Y-104436171D01*
X65802571Y-104436171D01*
X65945428Y-104507600D01*
X66016857Y-104579028D01*
X66088285Y-104721885D01*
X66088285Y-104936171D01*
X66016857Y-105079028D01*
X65945428Y-105150457D01*
X65802571Y-105221885D01*
X65231142Y-105221885D01*
X66945428Y-105936171D02*
X66802571Y-105864742D01*
X66731142Y-105793314D01*
X66659714Y-105650457D01*
X66659714Y-105221885D01*
X66731142Y-105079028D01*
X66802571Y-105007600D01*
X66945428Y-104936171D01*
X67159714Y-104936171D01*
X67302571Y-105007600D01*
X67374000Y-105079028D01*
X67445428Y-105221885D01*
X67445428Y-105650457D01*
X67374000Y-105793314D01*
X67302571Y-105864742D01*
X67159714Y-105936171D01*
X66945428Y-105936171D01*
X68088285Y-105936171D02*
X68088285Y-104436171D01*
X68088285Y-105007600D02*
X68231142Y-104936171D01*
X68516857Y-104936171D01*
X68659714Y-105007600D01*
X68731142Y-105079028D01*
X68802571Y-105221885D01*
X68802571Y-105650457D01*
X68731142Y-105793314D01*
X68659714Y-105864742D01*
X68516857Y-105936171D01*
X68231142Y-105936171D01*
X68088285Y-105864742D01*
X69445428Y-105936171D02*
X69445428Y-104936171D01*
X69445428Y-104436171D02*
X69374000Y-104507600D01*
X69445428Y-104579028D01*
X69516857Y-104507600D01*
X69445428Y-104436171D01*
X69445428Y-104579028D01*
X70159714Y-104936171D02*
X70159714Y-105936171D01*
X70159714Y-105079028D02*
X70231142Y-105007600D01*
X70374000Y-104936171D01*
X70588285Y-104936171D01*
X70731142Y-105007600D01*
X70802571Y-105150457D01*
X70802571Y-105936171D01*
X73088285Y-104436171D02*
X73088285Y-105507600D01*
X73016857Y-105721885D01*
X72874000Y-105864742D01*
X72659714Y-105936171D01*
X72516857Y-105936171D01*
X74445428Y-105936171D02*
X74445428Y-105150457D01*
X74374000Y-105007600D01*
X74231142Y-104936171D01*
X73945428Y-104936171D01*
X73802571Y-105007600D01*
X74445428Y-105864742D02*
X74302571Y-105936171D01*
X73945428Y-105936171D01*
X73802571Y-105864742D01*
X73731142Y-105721885D01*
X73731142Y-105579028D01*
X73802571Y-105436171D01*
X73945428Y-105364742D01*
X74302571Y-105364742D01*
X74445428Y-105293314D01*
X75159714Y-105936171D02*
X75159714Y-104936171D01*
X75159714Y-105079028D02*
X75231142Y-105007600D01*
X75374000Y-104936171D01*
X75588285Y-104936171D01*
X75731142Y-105007600D01*
X75802571Y-105150457D01*
X75802571Y-105936171D01*
X75802571Y-105150457D02*
X75874000Y-105007600D01*
X76016857Y-104936171D01*
X76231142Y-104936171D01*
X76374000Y-105007600D01*
X76445428Y-105150457D01*
X76445428Y-105936171D01*
X77731142Y-105864742D02*
X77588285Y-105936171D01*
X77302571Y-105936171D01*
X77159714Y-105864742D01*
X77088285Y-105721885D01*
X77088285Y-105150457D01*
X77159714Y-105007600D01*
X77302571Y-104936171D01*
X77588285Y-104936171D01*
X77731142Y-105007600D01*
X77802571Y-105150457D01*
X77802571Y-105293314D01*
X77088285Y-105436171D01*
X78374000Y-105864742D02*
X78516857Y-105936171D01*
X78802571Y-105936171D01*
X78945428Y-105864742D01*
X79016857Y-105721885D01*
X79016857Y-105650457D01*
X78945428Y-105507600D01*
X78802571Y-105436171D01*
X78588285Y-105436171D01*
X78445428Y-105364742D01*
X78374000Y-105221885D01*
X78374000Y-105150457D01*
X78445428Y-105007600D01*
X78588285Y-104936171D01*
X78802571Y-104936171D01*
X78945428Y-105007600D01*
X81445428Y-105936171D02*
X81445428Y-105150457D01*
X81374000Y-105007600D01*
X81231142Y-104936171D01*
X80945428Y-104936171D01*
X80802571Y-105007600D01*
X81445428Y-105864742D02*
X81302571Y-105936171D01*
X80945428Y-105936171D01*
X80802571Y-105864742D01*
X80731142Y-105721885D01*
X80731142Y-105579028D01*
X80802571Y-105436171D01*
X80945428Y-105364742D01*
X81302571Y-105364742D01*
X81445428Y-105293314D01*
X81945428Y-104936171D02*
X82516857Y-104936171D01*
X82159714Y-104436171D02*
X82159714Y-105721885D01*
X82231142Y-105864742D01*
X82374000Y-105936171D01*
X82516857Y-105936171D01*
X85016857Y-105793314D02*
X84945428Y-105864742D01*
X84731142Y-105936171D01*
X84588285Y-105936171D01*
X84374000Y-105864742D01*
X84231142Y-105721885D01*
X84159714Y-105579028D01*
X84088285Y-105293314D01*
X84088285Y-105079028D01*
X84159714Y-104793314D01*
X84231142Y-104650457D01*
X84374000Y-104507600D01*
X84588285Y-104436171D01*
X84731142Y-104436171D01*
X84945428Y-104507600D01*
X85016857Y-104579028D01*
X85516857Y-104436171D02*
X85874000Y-105936171D01*
X86159714Y-104864742D01*
X86445428Y-105936171D01*
X86802571Y-104436171D01*
X88231142Y-105936171D02*
X87731142Y-105221885D01*
X87374000Y-105936171D02*
X87374000Y-104436171D01*
X87945428Y-104436171D01*
X88088285Y-104507600D01*
X88159714Y-104579028D01*
X88231142Y-104721885D01*
X88231142Y-104936171D01*
X88159714Y-105079028D01*
X88088285Y-105150457D01*
X87945428Y-105221885D01*
X87374000Y-105221885D01*
X88874000Y-104436171D02*
X88874000Y-105650457D01*
X88945428Y-105793314D01*
X89016857Y-105864742D01*
X89159714Y-105936171D01*
X89445428Y-105936171D01*
X89588285Y-105864742D01*
X89659714Y-105793314D01*
X89731142Y-105650457D01*
X89731142Y-104436171D01*
X52427257Y-101545200D02*
X53141542Y-101545200D01*
X52284399Y-101973771D02*
X52784399Y-100473771D01*
X53284399Y-101973771D01*
X54427257Y-100973771D02*
X54427257Y-101973771D01*
X53784399Y-100973771D02*
X53784399Y-101759485D01*
X53855828Y-101902342D01*
X53998685Y-101973771D01*
X54212971Y-101973771D01*
X54355828Y-101902342D01*
X54427257Y-101830914D01*
X55784399Y-100973771D02*
X55784399Y-102188057D01*
X55712971Y-102330914D01*
X55641542Y-102402342D01*
X55498685Y-102473771D01*
X55284399Y-102473771D01*
X55141542Y-102402342D01*
X55784399Y-101902342D02*
X55641542Y-101973771D01*
X55355828Y-101973771D01*
X55212971Y-101902342D01*
X55141542Y-101830914D01*
X55070114Y-101688057D01*
X55070114Y-101259485D01*
X55141542Y-101116628D01*
X55212971Y-101045200D01*
X55355828Y-100973771D01*
X55641542Y-100973771D01*
X55784399Y-101045200D01*
X57070114Y-101902342D02*
X56927257Y-101973771D01*
X56641542Y-101973771D01*
X56498685Y-101902342D01*
X56427257Y-101759485D01*
X56427257Y-101188057D01*
X56498685Y-101045200D01*
X56641542Y-100973771D01*
X56927257Y-100973771D01*
X57070114Y-101045200D01*
X57141542Y-101188057D01*
X57141542Y-101330914D01*
X56427257Y-101473771D01*
X57784399Y-101973771D02*
X57784399Y-100973771D01*
X57784399Y-101259485D02*
X57855828Y-101116628D01*
X57927257Y-101045200D01*
X58070114Y-100973771D01*
X58212971Y-100973771D01*
X59641542Y-101259485D02*
X59570114Y-101188057D01*
X59427257Y-101116628D01*
X59284399Y-101116628D01*
X59141542Y-101188057D01*
X59070114Y-101259485D01*
X58998685Y-101402342D01*
X58998685Y-101545200D01*
X59070114Y-101688057D01*
X59141542Y-101759485D01*
X59284399Y-101830914D01*
X59427257Y-101830914D01*
X59570114Y-101759485D01*
X59641542Y-101688057D01*
X59641542Y-101116628D02*
X59641542Y-101688057D01*
X59712971Y-101759485D01*
X59784399Y-101759485D01*
X59927257Y-101688057D01*
X59998685Y-101545200D01*
X59998685Y-101188057D01*
X59855828Y-100973771D01*
X59641542Y-100830914D01*
X59355828Y-100759485D01*
X59070114Y-100830914D01*
X58855828Y-100973771D01*
X58712971Y-101188057D01*
X58641542Y-101473771D01*
X58712971Y-101759485D01*
X58855828Y-101973771D01*
X59070114Y-102116628D01*
X59355828Y-102188057D01*
X59641542Y-102116628D01*
X59855828Y-101973771D01*
X60427257Y-100473771D02*
X61284399Y-100473771D01*
X60855828Y-101973771D02*
X60855828Y-100473771D01*
X61712971Y-101545200D02*
X62427257Y-101545200D01*
X61570114Y-101973771D02*
X62070114Y-100473771D01*
X62570114Y-101973771D01*
X64212971Y-101973771D02*
X64212971Y-100473771D01*
X64784399Y-100473771D01*
X64927257Y-100545200D01*
X64998685Y-100616628D01*
X65070114Y-100759485D01*
X65070114Y-100973771D01*
X64998685Y-101116628D01*
X64927257Y-101188057D01*
X64784399Y-101259485D01*
X64212971Y-101259485D01*
X65927257Y-101973771D02*
X65784399Y-101902342D01*
X65712971Y-101830914D01*
X65641542Y-101688057D01*
X65641542Y-101259485D01*
X65712971Y-101116628D01*
X65784399Y-101045200D01*
X65927257Y-100973771D01*
X66141542Y-100973771D01*
X66284399Y-101045200D01*
X66355828Y-101116628D01*
X66427257Y-101259485D01*
X66427257Y-101688057D01*
X66355828Y-101830914D01*
X66284399Y-101902342D01*
X66141542Y-101973771D01*
X65927257Y-101973771D01*
X66927257Y-100973771D02*
X67212971Y-101973771D01*
X67498685Y-101259485D01*
X67784399Y-101973771D01*
X68070114Y-100973771D01*
X69212971Y-101902342D02*
X69070114Y-101973771D01*
X68784399Y-101973771D01*
X68641542Y-101902342D01*
X68570114Y-101759485D01*
X68570114Y-101188057D01*
X68641542Y-101045200D01*
X68784399Y-100973771D01*
X69070114Y-100973771D01*
X69212971Y-101045200D01*
X69284400Y-101188057D01*
X69284400Y-101330914D01*
X68570114Y-101473771D01*
X69927257Y-101973771D02*
X69927257Y-100973771D01*
X69927257Y-101259485D02*
X69998685Y-101116628D01*
X70070114Y-101045200D01*
X70212971Y-100973771D01*
X70355828Y-100973771D01*
X71998685Y-101973771D02*
X71998685Y-100473771D01*
X72498685Y-101545200D01*
X72998685Y-100473771D01*
X72998685Y-101973771D01*
X74355828Y-101973771D02*
X74355828Y-101188057D01*
X74284399Y-101045200D01*
X74141542Y-100973771D01*
X73855828Y-100973771D01*
X73712971Y-101045200D01*
X74355828Y-101902342D02*
X74212971Y-101973771D01*
X73855828Y-101973771D01*
X73712971Y-101902342D01*
X73641542Y-101759485D01*
X73641542Y-101616628D01*
X73712971Y-101473771D01*
X73855828Y-101402342D01*
X74212971Y-101402342D01*
X74355828Y-101330914D01*
X75070114Y-100973771D02*
X75070114Y-101973771D01*
X75070114Y-101116628D02*
X75141542Y-101045200D01*
X75284399Y-100973771D01*
X75498685Y-100973771D01*
X75641542Y-101045200D01*
X75712971Y-101188057D01*
X75712971Y-101973771D01*
X77070114Y-101973771D02*
X77070114Y-101188057D01*
X76998685Y-101045200D01*
X76855828Y-100973771D01*
X76570114Y-100973771D01*
X76427257Y-101045200D01*
X77070114Y-101902342D02*
X76927257Y-101973771D01*
X76570114Y-101973771D01*
X76427257Y-101902342D01*
X76355828Y-101759485D01*
X76355828Y-101616628D01*
X76427257Y-101473771D01*
X76570114Y-101402342D01*
X76927257Y-101402342D01*
X77070114Y-101330914D01*
X78427257Y-100973771D02*
X78427257Y-102188057D01*
X78355828Y-102330914D01*
X78284400Y-102402342D01*
X78141542Y-102473771D01*
X77927257Y-102473771D01*
X77784400Y-102402342D01*
X78427257Y-101902342D02*
X78284400Y-101973771D01*
X77998685Y-101973771D01*
X77855828Y-101902342D01*
X77784400Y-101830914D01*
X77712971Y-101688057D01*
X77712971Y-101259485D01*
X77784400Y-101116628D01*
X77855828Y-101045200D01*
X77998685Y-100973771D01*
X78284400Y-100973771D01*
X78427257Y-101045200D01*
X79141542Y-101973771D02*
X79141542Y-100973771D01*
X79141542Y-101116628D02*
X79212971Y-101045200D01*
X79355828Y-100973771D01*
X79570114Y-100973771D01*
X79712971Y-101045200D01*
X79784400Y-101188057D01*
X79784400Y-101973771D01*
X79784400Y-101188057D02*
X79855828Y-101045200D01*
X79998685Y-100973771D01*
X80212971Y-100973771D01*
X80355828Y-101045200D01*
X80427257Y-101188057D01*
X80427257Y-101973771D01*
X81712971Y-101902342D02*
X81570114Y-101973771D01*
X81284400Y-101973771D01*
X81141542Y-101902342D01*
X81070114Y-101759485D01*
X81070114Y-101188057D01*
X81141542Y-101045200D01*
X81284400Y-100973771D01*
X81570114Y-100973771D01*
X81712971Y-101045200D01*
X81784400Y-101188057D01*
X81784400Y-101330914D01*
X81070114Y-101473771D01*
X82427257Y-100973771D02*
X82427257Y-101973771D01*
X82427257Y-101116628D02*
X82498685Y-101045200D01*
X82641542Y-100973771D01*
X82855828Y-100973771D01*
X82998685Y-101045200D01*
X83070114Y-101188057D01*
X83070114Y-101973771D01*
X83570114Y-100973771D02*
X84141542Y-100973771D01*
X83784400Y-100473771D02*
X83784400Y-101759485D01*
X83855828Y-101902342D01*
X83998685Y-101973771D01*
X84141542Y-101973771D01*
X86284400Y-101188057D02*
X86498685Y-101259485D01*
X86570114Y-101330914D01*
X86641542Y-101473771D01*
X86641542Y-101688057D01*
X86570114Y-101830914D01*
X86498685Y-101902342D01*
X86355828Y-101973771D01*
X85784400Y-101973771D01*
X85784400Y-100473771D01*
X86284400Y-100473771D01*
X86427257Y-100545200D01*
X86498685Y-100616628D01*
X86570114Y-100759485D01*
X86570114Y-100902342D01*
X86498685Y-101045200D01*
X86427257Y-101116628D01*
X86284400Y-101188057D01*
X85784400Y-101188057D01*
X87498685Y-101973771D02*
X87355828Y-101902342D01*
X87284400Y-101830914D01*
X87212971Y-101688057D01*
X87212971Y-101259485D01*
X87284400Y-101116628D01*
X87355828Y-101045200D01*
X87498685Y-100973771D01*
X87712971Y-100973771D01*
X87855828Y-101045200D01*
X87927257Y-101116628D01*
X87998685Y-101259485D01*
X87998685Y-101688057D01*
X87927257Y-101830914D01*
X87855828Y-101902342D01*
X87712971Y-101973771D01*
X87498685Y-101973771D01*
X89284400Y-101973771D02*
X89284400Y-101188057D01*
X89212971Y-101045200D01*
X89070114Y-100973771D01*
X88784400Y-100973771D01*
X88641542Y-101045200D01*
X89284400Y-101902342D02*
X89141542Y-101973771D01*
X88784400Y-101973771D01*
X88641542Y-101902342D01*
X88570114Y-101759485D01*
X88570114Y-101616628D01*
X88641542Y-101473771D01*
X88784400Y-101402342D01*
X89141542Y-101402342D01*
X89284400Y-101330914D01*
X89998685Y-101973771D02*
X89998685Y-100973771D01*
X89998685Y-101259485D02*
X90070114Y-101116628D01*
X90141542Y-101045200D01*
X90284400Y-100973771D01*
X90427257Y-100973771D01*
X91570114Y-101973771D02*
X91570114Y-100473771D01*
X91570114Y-101902342D02*
X91427257Y-101973771D01*
X91141542Y-101973771D01*
X90998685Y-101902342D01*
X90927257Y-101830914D01*
X90855828Y-101688057D01*
X90855828Y-101259485D01*
X90927257Y-101116628D01*
X90998685Y-101045200D01*
X91141542Y-100973771D01*
X91427257Y-100973771D01*
X91570114Y-101045200D01*
D11*
%TO.C,H9*%
X59994895Y-107384380D02*
X59994895Y-106384380D01*
X59994895Y-106860571D02*
X60566323Y-106860571D01*
X60566323Y-107384380D02*
X60566323Y-106384380D01*
X61090133Y-107384380D02*
X61280609Y-107384380D01*
X61375847Y-107336761D01*
X61423466Y-107289142D01*
X61518704Y-107146285D01*
X61566323Y-106955809D01*
X61566323Y-106574857D01*
X61518704Y-106479619D01*
X61471085Y-106432000D01*
X61375847Y-106384380D01*
X61185371Y-106384380D01*
X61090133Y-106432000D01*
X61042514Y-106479619D01*
X60994895Y-106574857D01*
X60994895Y-106812952D01*
X61042514Y-106908190D01*
X61090133Y-106955809D01*
X61185371Y-107003428D01*
X61375847Y-107003428D01*
X61471085Y-106955809D01*
X61518704Y-106908190D01*
X61566323Y-106812952D01*
%TO.C,H8*%
X150622095Y-154425180D02*
X150622095Y-153425180D01*
X150622095Y-153901371D02*
X151193523Y-153901371D01*
X151193523Y-154425180D02*
X151193523Y-153425180D01*
X151812571Y-153853752D02*
X151717333Y-153806133D01*
X151669714Y-153758514D01*
X151622095Y-153663276D01*
X151622095Y-153615657D01*
X151669714Y-153520419D01*
X151717333Y-153472800D01*
X151812571Y-153425180D01*
X152003047Y-153425180D01*
X152098285Y-153472800D01*
X152145904Y-153520419D01*
X152193523Y-153615657D01*
X152193523Y-153663276D01*
X152145904Y-153758514D01*
X152098285Y-153806133D01*
X152003047Y-153853752D01*
X151812571Y-153853752D01*
X151717333Y-153901371D01*
X151669714Y-153948990D01*
X151622095Y-154044228D01*
X151622095Y-154234704D01*
X151669714Y-154329942D01*
X151717333Y-154377561D01*
X151812571Y-154425180D01*
X152003047Y-154425180D01*
X152098285Y-154377561D01*
X152145904Y-154329942D01*
X152193523Y-154234704D01*
X152193523Y-154044228D01*
X152145904Y-153948990D01*
X152098285Y-153901371D01*
X152003047Y-153853752D01*
%TO.C,H5*%
X299161295Y-42512780D02*
X299161295Y-41512780D01*
X299161295Y-41988971D02*
X299732723Y-41988971D01*
X299732723Y-42512780D02*
X299732723Y-41512780D01*
X300685104Y-41512780D02*
X300208914Y-41512780D01*
X300161295Y-41988971D01*
X300208914Y-41941352D01*
X300304152Y-41893733D01*
X300542247Y-41893733D01*
X300637485Y-41941352D01*
X300685104Y-41988971D01*
X300732723Y-42084209D01*
X300732723Y-42322304D01*
X300685104Y-42417542D01*
X300637485Y-42465161D01*
X300542247Y-42512780D01*
X300304152Y-42512780D01*
X300208914Y-42465161D01*
X300161295Y-42417542D01*
%TO.C,H4*%
X323494495Y-185717980D02*
X323494495Y-184717980D01*
X323494495Y-185194171D02*
X324065923Y-185194171D01*
X324065923Y-185717980D02*
X324065923Y-184717980D01*
X324970685Y-185051314D02*
X324970685Y-185717980D01*
X324732590Y-184670361D02*
X324494495Y-185384647D01*
X325113542Y-185384647D01*
%TO.C,H3*%
X275437695Y-130396780D02*
X275437695Y-129396780D01*
X275437695Y-129872971D02*
X276009123Y-129872971D01*
X276009123Y-130396780D02*
X276009123Y-129396780D01*
X276390076Y-129396780D02*
X277009123Y-129396780D01*
X276675790Y-129777733D01*
X276818647Y-129777733D01*
X276913885Y-129825352D01*
X276961504Y-129872971D01*
X277009123Y-129968209D01*
X277009123Y-130206304D01*
X276961504Y-130301542D01*
X276913885Y-130349161D01*
X276818647Y-130396780D01*
X276532933Y-130396780D01*
X276437695Y-130349161D01*
X276390076Y-130301542D01*
%TO.C,D2*%
X94511904Y-108726380D02*
X94511904Y-107726380D01*
X94750000Y-107726380D01*
X94892857Y-107774000D01*
X94988095Y-107869238D01*
X95035714Y-107964476D01*
X95083333Y-108154952D01*
X95083333Y-108297809D01*
X95035714Y-108488285D01*
X94988095Y-108583523D01*
X94892857Y-108678761D01*
X94750000Y-108726380D01*
X94511904Y-108726380D01*
X95464285Y-107821619D02*
X95511904Y-107774000D01*
X95607142Y-107726380D01*
X95845238Y-107726380D01*
X95940476Y-107774000D01*
X95988095Y-107821619D01*
X96035714Y-107916857D01*
X96035714Y-108012095D01*
X95988095Y-108154952D01*
X95416666Y-108726380D01*
X96035714Y-108726380D01*
X89908095Y-109096380D02*
X89908095Y-108096380D01*
X90479523Y-109096380D02*
X90050952Y-108524952D01*
X90479523Y-108096380D02*
X89908095Y-108667809D01*
%TO.C,U14*%
X353990930Y-104082380D02*
X353990930Y-104891904D01*
X354038549Y-104987142D01*
X354086168Y-105034761D01*
X354181406Y-105082380D01*
X354371883Y-105082380D01*
X354467121Y-105034761D01*
X354514740Y-104987142D01*
X354562359Y-104891904D01*
X354562359Y-104082380D01*
X355562359Y-105082380D02*
X354990930Y-105082380D01*
X355276645Y-105082380D02*
X355276645Y-104082380D01*
X355181406Y-104225238D01*
X355086168Y-104320476D01*
X354990930Y-104368095D01*
X356419502Y-104415714D02*
X356419502Y-105082380D01*
X356181406Y-104034761D02*
X355943311Y-104749047D01*
X356562359Y-104749047D01*
%TO.C,J10*%
X75238076Y-217802180D02*
X75238076Y-218516466D01*
X75190457Y-218659323D01*
X75095219Y-218754561D01*
X74952361Y-218802180D01*
X74857123Y-218802180D01*
X76238076Y-218802180D02*
X75666647Y-218802180D01*
X75952361Y-218802180D02*
X75952361Y-217802180D01*
X75857123Y-217945038D01*
X75761885Y-218040276D01*
X75666647Y-218087895D01*
X76857123Y-217802180D02*
X76952361Y-217802180D01*
X77047600Y-217849800D01*
X77095219Y-217897419D01*
X77142838Y-217992657D01*
X77190457Y-218183133D01*
X77190457Y-218421228D01*
X77142838Y-218611704D01*
X77095219Y-218706942D01*
X77047600Y-218754561D01*
X76952361Y-218802180D01*
X76857123Y-218802180D01*
X76761885Y-218754561D01*
X76714266Y-218706942D01*
X76666647Y-218611704D01*
X76619028Y-218421228D01*
X76619028Y-218183133D01*
X76666647Y-217992657D01*
X76714266Y-217897419D01*
X76761885Y-217849800D01*
X76857123Y-217802180D01*
%TO.C,TP6*%
X271737295Y-164647980D02*
X272308723Y-164647980D01*
X272023009Y-165647980D02*
X272023009Y-164647980D01*
X272642057Y-165647980D02*
X272642057Y-164647980D01*
X273023009Y-164647980D01*
X273118247Y-164695600D01*
X273165866Y-164743219D01*
X273213485Y-164838457D01*
X273213485Y-164981314D01*
X273165866Y-165076552D01*
X273118247Y-165124171D01*
X273023009Y-165171790D01*
X272642057Y-165171790D01*
X274070628Y-164647980D02*
X273880152Y-164647980D01*
X273784914Y-164695600D01*
X273737295Y-164743219D01*
X273642057Y-164886076D01*
X273594438Y-165076552D01*
X273594438Y-165457504D01*
X273642057Y-165552742D01*
X273689676Y-165600361D01*
X273784914Y-165647980D01*
X273975390Y-165647980D01*
X274070628Y-165600361D01*
X274118247Y-165552742D01*
X274165866Y-165457504D01*
X274165866Y-165219409D01*
X274118247Y-165124171D01*
X274070628Y-165076552D01*
X273975390Y-165028933D01*
X273784914Y-165028933D01*
X273689676Y-165076552D01*
X273642057Y-165124171D01*
X273594438Y-165219409D01*
%TO.C,JP5*%
X130805380Y-67727933D02*
X131519666Y-67727933D01*
X131662523Y-67775552D01*
X131757761Y-67870790D01*
X131805380Y-68013647D01*
X131805380Y-68108885D01*
X131805380Y-67251742D02*
X130805380Y-67251742D01*
X130805380Y-66870790D01*
X130853000Y-66775552D01*
X130900619Y-66727933D01*
X130995857Y-66680314D01*
X131138714Y-66680314D01*
X131233952Y-66727933D01*
X131281571Y-66775552D01*
X131329190Y-66870790D01*
X131329190Y-67251742D01*
X130805380Y-65775552D02*
X130805380Y-66251742D01*
X131281571Y-66299361D01*
X131233952Y-66251742D01*
X131186333Y-66156504D01*
X131186333Y-65918409D01*
X131233952Y-65823171D01*
X131281571Y-65775552D01*
X131376809Y-65727933D01*
X131614904Y-65727933D01*
X131710142Y-65775552D01*
X131757761Y-65823171D01*
X131805380Y-65918409D01*
X131805380Y-66156504D01*
X131757761Y-66251742D01*
X131710142Y-66299361D01*
%TO.C,D1*%
X73928380Y-61063095D02*
X72928380Y-61063095D01*
X72928380Y-60825000D01*
X72976000Y-60682142D01*
X73071238Y-60586904D01*
X73166476Y-60539285D01*
X73356952Y-60491666D01*
X73499809Y-60491666D01*
X73690285Y-60539285D01*
X73785523Y-60586904D01*
X73880761Y-60682142D01*
X73928380Y-60825000D01*
X73928380Y-61063095D01*
X73928380Y-59539285D02*
X73928380Y-60110714D01*
X73928380Y-59825000D02*
X72928380Y-59825000D01*
X73071238Y-59920238D01*
X73166476Y-60015476D01*
X73214095Y-60110714D01*
X74298380Y-65666904D02*
X73298380Y-65666904D01*
X74298380Y-65095476D02*
X73726952Y-65524047D01*
X73298380Y-65095476D02*
X73869809Y-65666904D01*
%TO.C,J2*%
X59102666Y-40221380D02*
X59102666Y-40935666D01*
X59055047Y-41078523D01*
X58959809Y-41173761D01*
X58816952Y-41221380D01*
X58721714Y-41221380D01*
X59531238Y-40316619D02*
X59578857Y-40269000D01*
X59674095Y-40221380D01*
X59912190Y-40221380D01*
X60007428Y-40269000D01*
X60055047Y-40316619D01*
X60102666Y-40411857D01*
X60102666Y-40507095D01*
X60055047Y-40649952D01*
X59483619Y-41221380D01*
X60102666Y-41221380D01*
%TO.C,U8*%
X311515768Y-76841771D02*
X311515768Y-78056057D01*
X311587197Y-78198914D01*
X311658626Y-78270342D01*
X311801483Y-78341771D01*
X312087197Y-78341771D01*
X312230054Y-78270342D01*
X312301483Y-78198914D01*
X312372911Y-78056057D01*
X312372911Y-76841771D01*
X313301483Y-77484628D02*
X313158626Y-77413200D01*
X313087197Y-77341771D01*
X313015768Y-77198914D01*
X313015768Y-77127485D01*
X313087197Y-76984628D01*
X313158626Y-76913200D01*
X313301483Y-76841771D01*
X313587197Y-76841771D01*
X313730054Y-76913200D01*
X313801483Y-76984628D01*
X313872911Y-77127485D01*
X313872911Y-77198914D01*
X313801483Y-77341771D01*
X313730054Y-77413200D01*
X313587197Y-77484628D01*
X313301483Y-77484628D01*
X313158626Y-77556057D01*
X313087197Y-77627485D01*
X313015768Y-77770342D01*
X313015768Y-78056057D01*
X313087197Y-78198914D01*
X313158626Y-78270342D01*
X313301483Y-78341771D01*
X313587197Y-78341771D01*
X313730054Y-78270342D01*
X313801483Y-78198914D01*
X313872911Y-78056057D01*
X313872911Y-77770342D01*
X313801483Y-77627485D01*
X313730054Y-77556057D01*
X313587197Y-77484628D01*
X333155026Y-79178571D02*
X333440740Y-79178571D01*
X333583597Y-79250000D01*
X333726454Y-79392857D01*
X333797883Y-79678571D01*
X333797883Y-80178571D01*
X333726454Y-80464285D01*
X333583597Y-80607142D01*
X333440740Y-80678571D01*
X333155026Y-80678571D01*
X333012168Y-80607142D01*
X332869311Y-80464285D01*
X332797883Y-80178571D01*
X332797883Y-79678571D01*
X332869311Y-79392857D01*
X333012168Y-79250000D01*
X333155026Y-79178571D01*
X334440740Y-79178571D02*
X334440740Y-80392857D01*
X334512168Y-80535714D01*
X334583597Y-80607142D01*
X334726454Y-80678571D01*
X335012168Y-80678571D01*
X335155026Y-80607142D01*
X335226454Y-80535714D01*
X335297883Y-80392857D01*
X335297883Y-79178571D01*
X335797883Y-79178571D02*
X336655026Y-79178571D01*
X336226454Y-80678571D02*
X336226454Y-79178571D01*
X289419311Y-80678571D02*
X289419311Y-79178571D01*
X290133597Y-80678571D02*
X290133597Y-79178571D01*
X290990740Y-80678571D01*
X290990740Y-79178571D01*
%TO.C,J9*%
X176022692Y-205453380D02*
X176022692Y-206167666D01*
X175975073Y-206310523D01*
X175879835Y-206405761D01*
X175736978Y-206453380D01*
X175641740Y-206453380D01*
X176546502Y-206453380D02*
X176736978Y-206453380D01*
X176832216Y-206405761D01*
X176879835Y-206358142D01*
X176975073Y-206215285D01*
X177022692Y-206024809D01*
X177022692Y-205643857D01*
X176975073Y-205548619D01*
X176927454Y-205501000D01*
X176832216Y-205453380D01*
X176641740Y-205453380D01*
X176546502Y-205501000D01*
X176498883Y-205548619D01*
X176451264Y-205643857D01*
X176451264Y-205881952D01*
X176498883Y-205977190D01*
X176546502Y-206024809D01*
X176641740Y-206072428D01*
X176832216Y-206072428D01*
X176927454Y-206024809D01*
X176975073Y-205977190D01*
X177022692Y-205881952D01*
%TO.C,R15*%
X347792380Y-190025257D02*
X347316190Y-190358590D01*
X347792380Y-190596685D02*
X346792380Y-190596685D01*
X346792380Y-190215733D01*
X346840000Y-190120495D01*
X346887619Y-190072876D01*
X346982857Y-190025257D01*
X347125714Y-190025257D01*
X347220952Y-190072876D01*
X347268571Y-190120495D01*
X347316190Y-190215733D01*
X347316190Y-190596685D01*
X347792380Y-189072876D02*
X347792380Y-189644304D01*
X347792380Y-189358590D02*
X346792380Y-189358590D01*
X346935238Y-189453828D01*
X347030476Y-189549066D01*
X347078095Y-189644304D01*
X346792380Y-188168114D02*
X346792380Y-188644304D01*
X347268571Y-188691923D01*
X347220952Y-188644304D01*
X347173333Y-188549066D01*
X347173333Y-188310971D01*
X347220952Y-188215733D01*
X347268571Y-188168114D01*
X347363809Y-188120495D01*
X347601904Y-188120495D01*
X347697142Y-188168114D01*
X347744761Y-188215733D01*
X347792380Y-188310971D01*
X347792380Y-188549066D01*
X347744761Y-188644304D01*
X347697142Y-188691923D01*
%TO.C,TP9*%
X351188495Y-124369580D02*
X351759923Y-124369580D01*
X351474209Y-125369580D02*
X351474209Y-124369580D01*
X352093257Y-125369580D02*
X352093257Y-124369580D01*
X352474209Y-124369580D01*
X352569447Y-124417200D01*
X352617066Y-124464819D01*
X352664685Y-124560057D01*
X352664685Y-124702914D01*
X352617066Y-124798152D01*
X352569447Y-124845771D01*
X352474209Y-124893390D01*
X352093257Y-124893390D01*
X353140876Y-125369580D02*
X353331352Y-125369580D01*
X353426590Y-125321961D01*
X353474209Y-125274342D01*
X353569447Y-125131485D01*
X353617066Y-124941009D01*
X353617066Y-124560057D01*
X353569447Y-124464819D01*
X353521828Y-124417200D01*
X353426590Y-124369580D01*
X353236114Y-124369580D01*
X353140876Y-124417200D01*
X353093257Y-124464819D01*
X353045638Y-124560057D01*
X353045638Y-124798152D01*
X353093257Y-124893390D01*
X353140876Y-124941009D01*
X353236114Y-124988628D01*
X353426590Y-124988628D01*
X353521828Y-124941009D01*
X353569447Y-124893390D01*
X353617066Y-124798152D01*
%TO.C,R3*%
X276337733Y-186045180D02*
X276004400Y-185568990D01*
X275766304Y-186045180D02*
X275766304Y-185045180D01*
X276147257Y-185045180D01*
X276242495Y-185092800D01*
X276290114Y-185140419D01*
X276337733Y-185235657D01*
X276337733Y-185378514D01*
X276290114Y-185473752D01*
X276242495Y-185521371D01*
X276147257Y-185568990D01*
X275766304Y-185568990D01*
X276671066Y-185045180D02*
X277290114Y-185045180D01*
X276956780Y-185426133D01*
X277099638Y-185426133D01*
X277194876Y-185473752D01*
X277242495Y-185521371D01*
X277290114Y-185616609D01*
X277290114Y-185854704D01*
X277242495Y-185949942D01*
X277194876Y-185997561D01*
X277099638Y-186045180D01*
X276813923Y-186045180D01*
X276718685Y-185997561D01*
X276671066Y-185949942D01*
%TO.C,U3*%
X263035295Y-177441980D02*
X263035295Y-178251504D01*
X263082914Y-178346742D01*
X263130533Y-178394361D01*
X263225771Y-178441980D01*
X263416247Y-178441980D01*
X263511485Y-178394361D01*
X263559104Y-178346742D01*
X263606723Y-178251504D01*
X263606723Y-177441980D01*
X263987676Y-177441980D02*
X264606723Y-177441980D01*
X264273390Y-177822933D01*
X264416247Y-177822933D01*
X264511485Y-177870552D01*
X264559104Y-177918171D01*
X264606723Y-178013409D01*
X264606723Y-178251504D01*
X264559104Y-178346742D01*
X264511485Y-178394361D01*
X264416247Y-178441980D01*
X264130533Y-178441980D01*
X264035295Y-178394361D01*
X263987676Y-178346742D01*
%TO.C,K1*%
X122352304Y-132981380D02*
X122352304Y-131981380D01*
X122923733Y-132981380D02*
X122495161Y-132409952D01*
X122923733Y-131981380D02*
X122352304Y-132552809D01*
X123876114Y-132981380D02*
X123304685Y-132981380D01*
X123590400Y-132981380D02*
X123590400Y-131981380D01*
X123495161Y-132124238D01*
X123399923Y-132219476D01*
X123304685Y-132267095D01*
%TO.C,U9*%
X211043063Y-74244457D02*
X212257349Y-74244457D01*
X212400206Y-74173028D01*
X212471634Y-74101600D01*
X212543063Y-73958742D01*
X212543063Y-73673028D01*
X212471634Y-73530171D01*
X212400206Y-73458742D01*
X212257349Y-73387314D01*
X211043063Y-73387314D01*
X212543063Y-72601600D02*
X212543063Y-72315885D01*
X212471634Y-72173028D01*
X212400206Y-72101600D01*
X212185920Y-71958742D01*
X211900206Y-71887314D01*
X211328777Y-71887314D01*
X211185920Y-71958742D01*
X211114492Y-72030171D01*
X211043063Y-72173028D01*
X211043063Y-72458742D01*
X211114492Y-72601600D01*
X211185920Y-72673028D01*
X211328777Y-72744457D01*
X211685920Y-72744457D01*
X211828777Y-72673028D01*
X211900206Y-72601600D01*
X211971634Y-72458742D01*
X211971634Y-72173028D01*
X211900206Y-72030171D01*
X211828777Y-71958742D01*
X211685920Y-71887314D01*
X210206263Y-51433714D02*
X208706263Y-51433714D01*
X210206263Y-50719428D02*
X208706263Y-50719428D01*
X210206263Y-49862285D01*
X208706263Y-49862285D01*
X208706263Y-96598000D02*
X208706263Y-96312285D01*
X208777692Y-96169428D01*
X208920549Y-96026571D01*
X209206263Y-95955142D01*
X209706263Y-95955142D01*
X209991977Y-96026571D01*
X210134834Y-96169428D01*
X210206263Y-96312285D01*
X210206263Y-96598000D01*
X210134834Y-96740857D01*
X209991977Y-96883714D01*
X209706263Y-96955142D01*
X209206263Y-96955142D01*
X208920549Y-96883714D01*
X208777692Y-96740857D01*
X208706263Y-96598000D01*
X208706263Y-95312285D02*
X209920549Y-95312285D01*
X210063406Y-95240857D01*
X210134834Y-95169428D01*
X210206263Y-95026571D01*
X210206263Y-94740857D01*
X210134834Y-94598000D01*
X210063406Y-94526571D01*
X209920549Y-94455142D01*
X208706263Y-94455142D01*
X208706263Y-93955142D02*
X208706263Y-93098000D01*
X210206263Y-93526571D02*
X208706263Y-93526571D01*
%TO.C,TP12*%
X202833504Y-101255580D02*
X203404933Y-101255580D01*
X203119219Y-102255580D02*
X203119219Y-101255580D01*
X203738266Y-102255580D02*
X203738266Y-101255580D01*
X204119219Y-101255580D01*
X204214457Y-101303200D01*
X204262076Y-101350819D01*
X204309695Y-101446057D01*
X204309695Y-101588914D01*
X204262076Y-101684152D01*
X204214457Y-101731771D01*
X204119219Y-101779390D01*
X203738266Y-101779390D01*
X205262076Y-102255580D02*
X204690647Y-102255580D01*
X204976361Y-102255580D02*
X204976361Y-101255580D01*
X204881123Y-101398438D01*
X204785885Y-101493676D01*
X204690647Y-101541295D01*
X205643028Y-101350819D02*
X205690647Y-101303200D01*
X205785885Y-101255580D01*
X206023980Y-101255580D01*
X206119219Y-101303200D01*
X206166838Y-101350819D01*
X206214457Y-101446057D01*
X206214457Y-101541295D01*
X206166838Y-101684152D01*
X205595409Y-102255580D01*
X206214457Y-102255580D01*
%TO.C,U12*%
X310801483Y-104109771D02*
X310801483Y-105324057D01*
X310872911Y-105466914D01*
X310944340Y-105538342D01*
X311087197Y-105609771D01*
X311372911Y-105609771D01*
X311515768Y-105538342D01*
X311587197Y-105466914D01*
X311658626Y-105324057D01*
X311658626Y-104109771D01*
X313158626Y-105609771D02*
X312301483Y-105609771D01*
X312730054Y-105609771D02*
X312730054Y-104109771D01*
X312587197Y-104324057D01*
X312444340Y-104466914D01*
X312301483Y-104538342D01*
X313730054Y-104252628D02*
X313801483Y-104181200D01*
X313944340Y-104109771D01*
X314301483Y-104109771D01*
X314444340Y-104181200D01*
X314515768Y-104252628D01*
X314587197Y-104395485D01*
X314587197Y-104538342D01*
X314515768Y-104752628D01*
X313658626Y-105609771D01*
X314587197Y-105609771D01*
X289419311Y-107946571D02*
X289419311Y-106446571D01*
X290133597Y-107946571D02*
X290133597Y-106446571D01*
X290990740Y-107946571D01*
X290990740Y-106446571D01*
X333155026Y-106446571D02*
X333440740Y-106446571D01*
X333583597Y-106518000D01*
X333726454Y-106660857D01*
X333797883Y-106946571D01*
X333797883Y-107446571D01*
X333726454Y-107732285D01*
X333583597Y-107875142D01*
X333440740Y-107946571D01*
X333155026Y-107946571D01*
X333012168Y-107875142D01*
X332869311Y-107732285D01*
X332797883Y-107446571D01*
X332797883Y-106946571D01*
X332869311Y-106660857D01*
X333012168Y-106518000D01*
X333155026Y-106446571D01*
X334440740Y-106446571D02*
X334440740Y-107660857D01*
X334512168Y-107803714D01*
X334583597Y-107875142D01*
X334726454Y-107946571D01*
X335012168Y-107946571D01*
X335155026Y-107875142D01*
X335226454Y-107803714D01*
X335297883Y-107660857D01*
X335297883Y-106446571D01*
X335797883Y-106446571D02*
X336655026Y-106446571D01*
X336226454Y-107946571D02*
X336226454Y-106446571D01*
%TO.C,R7*%
X213345733Y-102153980D02*
X213012400Y-101677790D01*
X212774304Y-102153980D02*
X212774304Y-101153980D01*
X213155257Y-101153980D01*
X213250495Y-101201600D01*
X213298114Y-101249219D01*
X213345733Y-101344457D01*
X213345733Y-101487314D01*
X213298114Y-101582552D01*
X213250495Y-101630171D01*
X213155257Y-101677790D01*
X212774304Y-101677790D01*
X213679066Y-101153980D02*
X214345733Y-101153980D01*
X213917161Y-102153980D01*
%TO.C,C1*%
X152872742Y-124880666D02*
X152920361Y-124928285D01*
X152967980Y-125071142D01*
X152967980Y-125166380D01*
X152920361Y-125309238D01*
X152825123Y-125404476D01*
X152729885Y-125452095D01*
X152539409Y-125499714D01*
X152396552Y-125499714D01*
X152206076Y-125452095D01*
X152110838Y-125404476D01*
X152015600Y-125309238D01*
X151967980Y-125166380D01*
X151967980Y-125071142D01*
X152015600Y-124928285D01*
X152063219Y-124880666D01*
X152967980Y-123928285D02*
X152967980Y-124499714D01*
X152967980Y-124214000D02*
X151967980Y-124214000D01*
X152110838Y-124309238D01*
X152206076Y-124404476D01*
X152253695Y-124499714D01*
%TO.C,R1*%
X97674133Y-129018380D02*
X97340800Y-128542190D01*
X97102704Y-129018380D02*
X97102704Y-128018380D01*
X97483657Y-128018380D01*
X97578895Y-128066000D01*
X97626514Y-128113619D01*
X97674133Y-128208857D01*
X97674133Y-128351714D01*
X97626514Y-128446952D01*
X97578895Y-128494571D01*
X97483657Y-128542190D01*
X97102704Y-128542190D01*
X98626514Y-129018380D02*
X98055085Y-129018380D01*
X98340800Y-129018380D02*
X98340800Y-128018380D01*
X98245561Y-128161238D01*
X98150323Y-128256476D01*
X98055085Y-128304095D01*
%TO.C,U4*%
X311515768Y-131541771D02*
X311515768Y-132756057D01*
X311587197Y-132898914D01*
X311658626Y-132970342D01*
X311801483Y-133041771D01*
X312087197Y-133041771D01*
X312230054Y-132970342D01*
X312301483Y-132898914D01*
X312372911Y-132756057D01*
X312372911Y-131541771D01*
X313730054Y-132041771D02*
X313730054Y-133041771D01*
X313372911Y-131470342D02*
X313015768Y-132541771D01*
X313944340Y-132541771D01*
X333155026Y-133878571D02*
X333440740Y-133878571D01*
X333583597Y-133950000D01*
X333726454Y-134092857D01*
X333797883Y-134378571D01*
X333797883Y-134878571D01*
X333726454Y-135164285D01*
X333583597Y-135307142D01*
X333440740Y-135378571D01*
X333155026Y-135378571D01*
X333012168Y-135307142D01*
X332869311Y-135164285D01*
X332797883Y-134878571D01*
X332797883Y-134378571D01*
X332869311Y-134092857D01*
X333012168Y-133950000D01*
X333155026Y-133878571D01*
X334440740Y-133878571D02*
X334440740Y-135092857D01*
X334512168Y-135235714D01*
X334583597Y-135307142D01*
X334726454Y-135378571D01*
X335012168Y-135378571D01*
X335155026Y-135307142D01*
X335226454Y-135235714D01*
X335297883Y-135092857D01*
X335297883Y-133878571D01*
X335797883Y-133878571D02*
X336655026Y-133878571D01*
X336226454Y-135378571D02*
X336226454Y-133878571D01*
X289419311Y-135378571D02*
X289419311Y-133878571D01*
X290133597Y-135378571D02*
X290133597Y-133878571D01*
X290990740Y-135378571D01*
X290990740Y-133878571D01*
%TO.C,TP3*%
X117965695Y-78852780D02*
X118537123Y-78852780D01*
X118251409Y-79852780D02*
X118251409Y-78852780D01*
X118870457Y-79852780D02*
X118870457Y-78852780D01*
X119251409Y-78852780D01*
X119346647Y-78900400D01*
X119394266Y-78948019D01*
X119441885Y-79043257D01*
X119441885Y-79186114D01*
X119394266Y-79281352D01*
X119346647Y-79328971D01*
X119251409Y-79376590D01*
X118870457Y-79376590D01*
X119775219Y-78852780D02*
X120394266Y-78852780D01*
X120060933Y-79233733D01*
X120203790Y-79233733D01*
X120299028Y-79281352D01*
X120346647Y-79328971D01*
X120394266Y-79424209D01*
X120394266Y-79662304D01*
X120346647Y-79757542D01*
X120299028Y-79805161D01*
X120203790Y-79852780D01*
X119918076Y-79852780D01*
X119822838Y-79805161D01*
X119775219Y-79757542D01*
%TO.C,R5*%
X180732133Y-108067180D02*
X180398800Y-107590990D01*
X180160704Y-108067180D02*
X180160704Y-107067180D01*
X180541657Y-107067180D01*
X180636895Y-107114800D01*
X180684514Y-107162419D01*
X180732133Y-107257657D01*
X180732133Y-107400514D01*
X180684514Y-107495752D01*
X180636895Y-107543371D01*
X180541657Y-107590990D01*
X180160704Y-107590990D01*
X181636895Y-107067180D02*
X181160704Y-107067180D01*
X181113085Y-107543371D01*
X181160704Y-107495752D01*
X181255942Y-107448133D01*
X181494038Y-107448133D01*
X181589276Y-107495752D01*
X181636895Y-107543371D01*
X181684514Y-107638609D01*
X181684514Y-107876704D01*
X181636895Y-107971942D01*
X181589276Y-108019561D01*
X181494038Y-108067180D01*
X181255942Y-108067180D01*
X181160704Y-108019561D01*
X181113085Y-107971942D01*
%TO.C,TP5*%
X138946095Y-181612380D02*
X139517523Y-181612380D01*
X139231809Y-182612380D02*
X139231809Y-181612380D01*
X139850857Y-182612380D02*
X139850857Y-181612380D01*
X140231809Y-181612380D01*
X140327047Y-181660000D01*
X140374666Y-181707619D01*
X140422285Y-181802857D01*
X140422285Y-181945714D01*
X140374666Y-182040952D01*
X140327047Y-182088571D01*
X140231809Y-182136190D01*
X139850857Y-182136190D01*
X141327047Y-181612380D02*
X140850857Y-181612380D01*
X140803238Y-182088571D01*
X140850857Y-182040952D01*
X140946095Y-181993333D01*
X141184190Y-181993333D01*
X141279428Y-182040952D01*
X141327047Y-182088571D01*
X141374666Y-182183809D01*
X141374666Y-182421904D01*
X141327047Y-182517142D01*
X141279428Y-182564761D01*
X141184190Y-182612380D01*
X140946095Y-182612380D01*
X140850857Y-182564761D01*
X140803238Y-182517142D01*
%TO.C,R2*%
X90986780Y-123153466D02*
X90510590Y-123486800D01*
X90986780Y-123724895D02*
X89986780Y-123724895D01*
X89986780Y-123343942D01*
X90034400Y-123248704D01*
X90082019Y-123201085D01*
X90177257Y-123153466D01*
X90320114Y-123153466D01*
X90415352Y-123201085D01*
X90462971Y-123248704D01*
X90510590Y-123343942D01*
X90510590Y-123724895D01*
X90082019Y-122772514D02*
X90034400Y-122724895D01*
X89986780Y-122629657D01*
X89986780Y-122391561D01*
X90034400Y-122296323D01*
X90082019Y-122248704D01*
X90177257Y-122201085D01*
X90272495Y-122201085D01*
X90415352Y-122248704D01*
X90986780Y-122820133D01*
X90986780Y-122201085D01*
%TO.C,U5*%
X183272397Y-74244457D02*
X184486683Y-74244457D01*
X184629540Y-74173028D01*
X184700968Y-74101600D01*
X184772397Y-73958742D01*
X184772397Y-73673028D01*
X184700968Y-73530171D01*
X184629540Y-73458742D01*
X184486683Y-73387314D01*
X183272397Y-73387314D01*
X183272397Y-71958742D02*
X183272397Y-72673028D01*
X183986683Y-72744457D01*
X183915254Y-72673028D01*
X183843826Y-72530171D01*
X183843826Y-72173028D01*
X183915254Y-72030171D01*
X183986683Y-71958742D01*
X184129540Y-71887314D01*
X184486683Y-71887314D01*
X184629540Y-71958742D01*
X184700968Y-72030171D01*
X184772397Y-72173028D01*
X184772397Y-72530171D01*
X184700968Y-72673028D01*
X184629540Y-72744457D01*
X182435597Y-51433714D02*
X180935597Y-51433714D01*
X182435597Y-50719428D02*
X180935597Y-50719428D01*
X182435597Y-49862285D01*
X180935597Y-49862285D01*
X180935597Y-96598000D02*
X180935597Y-96312285D01*
X181007026Y-96169428D01*
X181149883Y-96026571D01*
X181435597Y-95955142D01*
X181935597Y-95955142D01*
X182221311Y-96026571D01*
X182364168Y-96169428D01*
X182435597Y-96312285D01*
X182435597Y-96598000D01*
X182364168Y-96740857D01*
X182221311Y-96883714D01*
X181935597Y-96955142D01*
X181435597Y-96955142D01*
X181149883Y-96883714D01*
X181007026Y-96740857D01*
X180935597Y-96598000D01*
X180935597Y-95312285D02*
X182149883Y-95312285D01*
X182292740Y-95240857D01*
X182364168Y-95169428D01*
X182435597Y-95026571D01*
X182435597Y-94740857D01*
X182364168Y-94598000D01*
X182292740Y-94526571D01*
X182149883Y-94455142D01*
X180935597Y-94455142D01*
X180935597Y-93955142D02*
X180935597Y-93098000D01*
X182435597Y-93526571D02*
X180935597Y-93526571D01*
%TO.C,TP16*%
X254649504Y-102119180D02*
X255220933Y-102119180D01*
X254935219Y-103119180D02*
X254935219Y-102119180D01*
X255554266Y-103119180D02*
X255554266Y-102119180D01*
X255935219Y-102119180D01*
X256030457Y-102166800D01*
X256078076Y-102214419D01*
X256125695Y-102309657D01*
X256125695Y-102452514D01*
X256078076Y-102547752D01*
X256030457Y-102595371D01*
X255935219Y-102642990D01*
X255554266Y-102642990D01*
X257078076Y-103119180D02*
X256506647Y-103119180D01*
X256792361Y-103119180D02*
X256792361Y-102119180D01*
X256697123Y-102262038D01*
X256601885Y-102357276D01*
X256506647Y-102404895D01*
X257935219Y-102119180D02*
X257744742Y-102119180D01*
X257649504Y-102166800D01*
X257601885Y-102214419D01*
X257506647Y-102357276D01*
X257459028Y-102547752D01*
X257459028Y-102928704D01*
X257506647Y-103023942D01*
X257554266Y-103071561D01*
X257649504Y-103119180D01*
X257839980Y-103119180D01*
X257935219Y-103071561D01*
X257982838Y-103023942D01*
X258030457Y-102928704D01*
X258030457Y-102690609D01*
X257982838Y-102595371D01*
X257935219Y-102547752D01*
X257839980Y-102500133D01*
X257649504Y-102500133D01*
X257554266Y-102547752D01*
X257506647Y-102595371D01*
X257459028Y-102690609D01*
%TO.C,R6*%
X356780359Y-68980380D02*
X356447026Y-68504190D01*
X356208930Y-68980380D02*
X356208930Y-67980380D01*
X356589883Y-67980380D01*
X356685121Y-68028000D01*
X356732740Y-68075619D01*
X356780359Y-68170857D01*
X356780359Y-68313714D01*
X356732740Y-68408952D01*
X356685121Y-68456571D01*
X356589883Y-68504190D01*
X356208930Y-68504190D01*
X357637502Y-67980380D02*
X357447026Y-67980380D01*
X357351787Y-68028000D01*
X357304168Y-68075619D01*
X357208930Y-68218476D01*
X357161311Y-68408952D01*
X357161311Y-68789904D01*
X357208930Y-68885142D01*
X357256549Y-68932761D01*
X357351787Y-68980380D01*
X357542264Y-68980380D01*
X357637502Y-68932761D01*
X357685121Y-68885142D01*
X357732740Y-68789904D01*
X357732740Y-68551809D01*
X357685121Y-68456571D01*
X357637502Y-68408952D01*
X357542264Y-68361333D01*
X357351787Y-68361333D01*
X357256549Y-68408952D01*
X357208930Y-68456571D01*
X357161311Y-68551809D01*
%TO.C,U20*%
X208572397Y-161590742D02*
X209786683Y-161590742D01*
X209929540Y-161519314D01*
X210000968Y-161447885D01*
X210072397Y-161305028D01*
X210072397Y-161019314D01*
X210000968Y-160876457D01*
X209929540Y-160805028D01*
X209786683Y-160733600D01*
X208572397Y-160733600D01*
X208715254Y-160090742D02*
X208643826Y-160019314D01*
X208572397Y-159876457D01*
X208572397Y-159519314D01*
X208643826Y-159376457D01*
X208715254Y-159305028D01*
X208858111Y-159233600D01*
X209000968Y-159233600D01*
X209215254Y-159305028D01*
X210072397Y-160162171D01*
X210072397Y-159233600D01*
X208572397Y-158305028D02*
X208572397Y-158162171D01*
X208643826Y-158019314D01*
X208715254Y-157947885D01*
X208858111Y-157876457D01*
X209143826Y-157805028D01*
X209500968Y-157805028D01*
X209786683Y-157876457D01*
X209929540Y-157947885D01*
X210000968Y-158019314D01*
X210072397Y-158162171D01*
X210072397Y-158305028D01*
X210000968Y-158447885D01*
X209929540Y-158519314D01*
X209786683Y-158590742D01*
X209500968Y-158662171D01*
X209143826Y-158662171D01*
X208858111Y-158590742D01*
X208715254Y-158519314D01*
X208643826Y-158447885D01*
X208572397Y-158305028D01*
X207735597Y-138065714D02*
X206235597Y-138065714D01*
X207735597Y-137351428D02*
X206235597Y-137351428D01*
X207735597Y-136494285D01*
X206235597Y-136494285D01*
X206235597Y-183230000D02*
X206235597Y-182944285D01*
X206307026Y-182801428D01*
X206449883Y-182658571D01*
X206735597Y-182587142D01*
X207235597Y-182587142D01*
X207521311Y-182658571D01*
X207664168Y-182801428D01*
X207735597Y-182944285D01*
X207735597Y-183230000D01*
X207664168Y-183372857D01*
X207521311Y-183515714D01*
X207235597Y-183587142D01*
X206735597Y-183587142D01*
X206449883Y-183515714D01*
X206307026Y-183372857D01*
X206235597Y-183230000D01*
X206235597Y-181944285D02*
X207449883Y-181944285D01*
X207592740Y-181872857D01*
X207664168Y-181801428D01*
X207735597Y-181658571D01*
X207735597Y-181372857D01*
X207664168Y-181230000D01*
X207592740Y-181158571D01*
X207449883Y-181087142D01*
X206235597Y-181087142D01*
X206235597Y-180587142D02*
X206235597Y-179730000D01*
X207735597Y-180158571D02*
X206235597Y-180158571D01*
%TO.C,U10*%
X362519980Y-84042095D02*
X363329504Y-84042095D01*
X363424742Y-83994476D01*
X363472361Y-83946857D01*
X363519980Y-83851619D01*
X363519980Y-83661142D01*
X363472361Y-83565904D01*
X363424742Y-83518285D01*
X363329504Y-83470666D01*
X362519980Y-83470666D01*
X363519980Y-82470666D02*
X363519980Y-83042095D01*
X363519980Y-82756380D02*
X362519980Y-82756380D01*
X362662838Y-82851619D01*
X362758076Y-82946857D01*
X362805695Y-83042095D01*
X362519980Y-81851619D02*
X362519980Y-81756380D01*
X362567600Y-81661142D01*
X362615219Y-81613523D01*
X362710457Y-81565904D01*
X362900933Y-81518285D01*
X363139028Y-81518285D01*
X363329504Y-81565904D01*
X363424742Y-81613523D01*
X363472361Y-81661142D01*
X363519980Y-81756380D01*
X363519980Y-81851619D01*
X363472361Y-81946857D01*
X363424742Y-81994476D01*
X363329504Y-82042095D01*
X363139028Y-82089714D01*
X362900933Y-82089714D01*
X362710457Y-82042095D01*
X362615219Y-81994476D01*
X362567600Y-81946857D01*
X362519980Y-81851619D01*
%TO.C,TP15*%
X193689504Y-190197580D02*
X194260933Y-190197580D01*
X193975219Y-191197580D02*
X193975219Y-190197580D01*
X194594266Y-191197580D02*
X194594266Y-190197580D01*
X194975219Y-190197580D01*
X195070457Y-190245200D01*
X195118076Y-190292819D01*
X195165695Y-190388057D01*
X195165695Y-190530914D01*
X195118076Y-190626152D01*
X195070457Y-190673771D01*
X194975219Y-190721390D01*
X194594266Y-190721390D01*
X196118076Y-191197580D02*
X195546647Y-191197580D01*
X195832361Y-191197580D02*
X195832361Y-190197580D01*
X195737123Y-190340438D01*
X195641885Y-190435676D01*
X195546647Y-190483295D01*
X197022838Y-190197580D02*
X196546647Y-190197580D01*
X196499028Y-190673771D01*
X196546647Y-190626152D01*
X196641885Y-190578533D01*
X196879980Y-190578533D01*
X196975219Y-190626152D01*
X197022838Y-190673771D01*
X197070457Y-190769009D01*
X197070457Y-191007104D01*
X197022838Y-191102342D01*
X196975219Y-191149961D01*
X196879980Y-191197580D01*
X196641885Y-191197580D01*
X196546647Y-191149961D01*
X196499028Y-191102342D01*
%TO.C,TP1*%
X68080095Y-74340380D02*
X68651523Y-74340380D01*
X68365809Y-75340380D02*
X68365809Y-74340380D01*
X68984857Y-75340380D02*
X68984857Y-74340380D01*
X69365809Y-74340380D01*
X69461047Y-74388000D01*
X69508666Y-74435619D01*
X69556285Y-74530857D01*
X69556285Y-74673714D01*
X69508666Y-74768952D01*
X69461047Y-74816571D01*
X69365809Y-74864190D01*
X68984857Y-74864190D01*
X70508666Y-75340380D02*
X69937238Y-75340380D01*
X70222952Y-75340380D02*
X70222952Y-74340380D01*
X70127714Y-74483238D01*
X70032476Y-74578476D01*
X69937238Y-74626095D01*
%TO.C,U13*%
X238872397Y-75058742D02*
X240086683Y-75058742D01*
X240229540Y-74987314D01*
X240300968Y-74915885D01*
X240372397Y-74773028D01*
X240372397Y-74487314D01*
X240300968Y-74344457D01*
X240229540Y-74273028D01*
X240086683Y-74201600D01*
X238872397Y-74201600D01*
X240372397Y-72701600D02*
X240372397Y-73558742D01*
X240372397Y-73130171D02*
X238872397Y-73130171D01*
X239086683Y-73273028D01*
X239229540Y-73415885D01*
X239300968Y-73558742D01*
X238872397Y-72201600D02*
X238872397Y-71273028D01*
X239443826Y-71773028D01*
X239443826Y-71558742D01*
X239515254Y-71415885D01*
X239586683Y-71344457D01*
X239729540Y-71273028D01*
X240086683Y-71273028D01*
X240229540Y-71344457D01*
X240300968Y-71415885D01*
X240372397Y-71558742D01*
X240372397Y-71987314D01*
X240300968Y-72130171D01*
X240229540Y-72201600D01*
X237587311Y-51934571D02*
X237587311Y-50434571D01*
X238301597Y-51934571D02*
X238301597Y-50434571D01*
X239158740Y-51934571D01*
X239158740Y-50434571D01*
X236535597Y-96698000D02*
X236535597Y-96412285D01*
X236607026Y-96269428D01*
X236749883Y-96126571D01*
X237035597Y-96055142D01*
X237535597Y-96055142D01*
X237821311Y-96126571D01*
X237964168Y-96269428D01*
X238035597Y-96412285D01*
X238035597Y-96698000D01*
X237964168Y-96840857D01*
X237821311Y-96983714D01*
X237535597Y-97055142D01*
X237035597Y-97055142D01*
X236749883Y-96983714D01*
X236607026Y-96840857D01*
X236535597Y-96698000D01*
X236535597Y-95412285D02*
X237749883Y-95412285D01*
X237892740Y-95340857D01*
X237964168Y-95269428D01*
X238035597Y-95126571D01*
X238035597Y-94840857D01*
X237964168Y-94698000D01*
X237892740Y-94626571D01*
X237749883Y-94555142D01*
X236535597Y-94555142D01*
X236535597Y-94055142D02*
X236535597Y-93198000D01*
X238035597Y-93626571D02*
X236535597Y-93626571D01*
%TO.C,U15*%
X236658304Y-112536780D02*
X236658304Y-113346304D01*
X236705923Y-113441542D01*
X236753542Y-113489161D01*
X236848780Y-113536780D01*
X237039257Y-113536780D01*
X237134495Y-113489161D01*
X237182114Y-113441542D01*
X237229733Y-113346304D01*
X237229733Y-112536780D01*
X238229733Y-113536780D02*
X237658304Y-113536780D01*
X237944019Y-113536780D02*
X237944019Y-112536780D01*
X237848780Y-112679638D01*
X237753542Y-112774876D01*
X237658304Y-112822495D01*
X239134495Y-112536780D02*
X238658304Y-112536780D01*
X238610685Y-113012971D01*
X238658304Y-112965352D01*
X238753542Y-112917733D01*
X238991638Y-112917733D01*
X239086876Y-112965352D01*
X239134495Y-113012971D01*
X239182114Y-113108209D01*
X239182114Y-113346304D01*
X239134495Y-113441542D01*
X239086876Y-113489161D01*
X238991638Y-113536780D01*
X238753542Y-113536780D01*
X238658304Y-113489161D01*
X238610685Y-113441542D01*
%TO.C,K2*%
X110375380Y-60146695D02*
X109375380Y-60146695D01*
X110375380Y-59575266D02*
X109803952Y-60003838D01*
X109375380Y-59575266D02*
X109946809Y-60146695D01*
X109470619Y-59194314D02*
X109423000Y-59146695D01*
X109375380Y-59051457D01*
X109375380Y-58813361D01*
X109423000Y-58718123D01*
X109470619Y-58670504D01*
X109565857Y-58622885D01*
X109661095Y-58622885D01*
X109803952Y-58670504D01*
X110375380Y-59241933D01*
X110375380Y-58622885D01*
%TO.C,J8*%
X63460380Y-150599733D02*
X64174666Y-150599733D01*
X64317523Y-150647352D01*
X64412761Y-150742590D01*
X64460380Y-150885447D01*
X64460380Y-150980685D01*
X63888952Y-149980685D02*
X63841333Y-150075923D01*
X63793714Y-150123542D01*
X63698476Y-150171161D01*
X63650857Y-150171161D01*
X63555619Y-150123542D01*
X63508000Y-150075923D01*
X63460380Y-149980685D01*
X63460380Y-149790209D01*
X63508000Y-149694971D01*
X63555619Y-149647352D01*
X63650857Y-149599733D01*
X63698476Y-149599733D01*
X63793714Y-149647352D01*
X63841333Y-149694971D01*
X63888952Y-149790209D01*
X63888952Y-149980685D01*
X63936571Y-150075923D01*
X63984190Y-150123542D01*
X64079428Y-150171161D01*
X64269904Y-150171161D01*
X64365142Y-150123542D01*
X64412761Y-150075923D01*
X64460380Y-149980685D01*
X64460380Y-149790209D01*
X64412761Y-149694971D01*
X64365142Y-149647352D01*
X64269904Y-149599733D01*
X64079428Y-149599733D01*
X63984190Y-149647352D01*
X63936571Y-149694971D01*
X63888952Y-149790209D01*
%TO.C,U7*%
X180450895Y-115737180D02*
X180450895Y-116546704D01*
X180498514Y-116641942D01*
X180546133Y-116689561D01*
X180641371Y-116737180D01*
X180831847Y-116737180D01*
X180927085Y-116689561D01*
X180974704Y-116641942D01*
X181022323Y-116546704D01*
X181022323Y-115737180D01*
X181403276Y-115737180D02*
X182069942Y-115737180D01*
X181641371Y-116737180D01*
%TO.C,J1*%
X78118692Y-39928580D02*
X78118692Y-40642866D01*
X78071073Y-40785723D01*
X77975835Y-40880961D01*
X77832978Y-40928580D01*
X77737740Y-40928580D01*
X79118692Y-40928580D02*
X78547264Y-40928580D01*
X78832978Y-40928580D02*
X78832978Y-39928580D01*
X78737740Y-40071438D01*
X78642502Y-40166676D01*
X78547264Y-40214295D01*
%TO.C,TP17*%
X225236304Y-147525580D02*
X225807733Y-147525580D01*
X225522019Y-148525580D02*
X225522019Y-147525580D01*
X226141066Y-148525580D02*
X226141066Y-147525580D01*
X226522019Y-147525580D01*
X226617257Y-147573200D01*
X226664876Y-147620819D01*
X226712495Y-147716057D01*
X226712495Y-147858914D01*
X226664876Y-147954152D01*
X226617257Y-148001771D01*
X226522019Y-148049390D01*
X226141066Y-148049390D01*
X227664876Y-148525580D02*
X227093447Y-148525580D01*
X227379161Y-148525580D02*
X227379161Y-147525580D01*
X227283923Y-147668438D01*
X227188685Y-147763676D01*
X227093447Y-147811295D01*
X227998209Y-147525580D02*
X228664876Y-147525580D01*
X228236304Y-148525580D01*
%TO.C,R4*%
X356780359Y-133242380D02*
X356447026Y-132766190D01*
X356208930Y-133242380D02*
X356208930Y-132242380D01*
X356589883Y-132242380D01*
X356685121Y-132290000D01*
X356732740Y-132337619D01*
X356780359Y-132432857D01*
X356780359Y-132575714D01*
X356732740Y-132670952D01*
X356685121Y-132718571D01*
X356589883Y-132766190D01*
X356208930Y-132766190D01*
X357637502Y-132575714D02*
X357637502Y-133242380D01*
X357399406Y-132194761D02*
X357161311Y-132909047D01*
X357780359Y-132909047D01*
%TO.C,TP13*%
X344726930Y-91660380D02*
X345298359Y-91660380D01*
X345012645Y-92660380D02*
X345012645Y-91660380D01*
X345631692Y-92660380D02*
X345631692Y-91660380D01*
X346012645Y-91660380D01*
X346107883Y-91708000D01*
X346155502Y-91755619D01*
X346203121Y-91850857D01*
X346203121Y-91993714D01*
X346155502Y-92088952D01*
X346107883Y-92136571D01*
X346012645Y-92184190D01*
X345631692Y-92184190D01*
X347155502Y-92660380D02*
X346584073Y-92660380D01*
X346869787Y-92660380D02*
X346869787Y-91660380D01*
X346774549Y-91803238D01*
X346679311Y-91898476D01*
X346584073Y-91946095D01*
X347488835Y-91660380D02*
X348107883Y-91660380D01*
X347774549Y-92041333D01*
X347917406Y-92041333D01*
X348012645Y-92088952D01*
X348060264Y-92136571D01*
X348107883Y-92231809D01*
X348107883Y-92469904D01*
X348060264Y-92565142D01*
X348012645Y-92612761D01*
X347917406Y-92660380D01*
X347631692Y-92660380D01*
X347536454Y-92612761D01*
X347488835Y-92565142D01*
%TO.C,R10*%
X239410342Y-193274380D02*
X239077009Y-192798190D01*
X238838914Y-193274380D02*
X238838914Y-192274380D01*
X239219866Y-192274380D01*
X239315104Y-192322000D01*
X239362723Y-192369619D01*
X239410342Y-192464857D01*
X239410342Y-192607714D01*
X239362723Y-192702952D01*
X239315104Y-192750571D01*
X239219866Y-192798190D01*
X238838914Y-192798190D01*
X240362723Y-193274380D02*
X239791295Y-193274380D01*
X240077009Y-193274380D02*
X240077009Y-192274380D01*
X239981771Y-192417238D01*
X239886533Y-192512476D01*
X239791295Y-192560095D01*
X240981771Y-192274380D02*
X241077009Y-192274380D01*
X241172247Y-192322000D01*
X241219866Y-192369619D01*
X241267485Y-192464857D01*
X241315104Y-192655333D01*
X241315104Y-192893428D01*
X241267485Y-193083904D01*
X241219866Y-193179142D01*
X241172247Y-193226761D01*
X241077009Y-193274380D01*
X240981771Y-193274380D01*
X240886533Y-193226761D01*
X240838914Y-193179142D01*
X240791295Y-193083904D01*
X240743676Y-192893428D01*
X240743676Y-192655333D01*
X240791295Y-192464857D01*
X240838914Y-192369619D01*
X240886533Y-192322000D01*
X240981771Y-192274380D01*
%TO.C,C2*%
X128407142Y-187106666D02*
X128454761Y-187154285D01*
X128502380Y-187297142D01*
X128502380Y-187392380D01*
X128454761Y-187535238D01*
X128359523Y-187630476D01*
X128264285Y-187678095D01*
X128073809Y-187725714D01*
X127930952Y-187725714D01*
X127740476Y-187678095D01*
X127645238Y-187630476D01*
X127550000Y-187535238D01*
X127502380Y-187392380D01*
X127502380Y-187297142D01*
X127550000Y-187154285D01*
X127597619Y-187106666D01*
X127597619Y-186725714D02*
X127550000Y-186678095D01*
X127502380Y-186582857D01*
X127502380Y-186344761D01*
X127550000Y-186249523D01*
X127597619Y-186201904D01*
X127692857Y-186154285D01*
X127788095Y-186154285D01*
X127930952Y-186201904D01*
X128502380Y-186773333D01*
X128502380Y-186154285D01*
%TO.C,J6*%
X342809066Y-58111180D02*
X342809066Y-58825466D01*
X342761447Y-58968323D01*
X342666209Y-59063561D01*
X342523352Y-59111180D01*
X342428114Y-59111180D01*
X343713828Y-58111180D02*
X343523352Y-58111180D01*
X343428114Y-58158800D01*
X343380495Y-58206419D01*
X343285257Y-58349276D01*
X343237638Y-58539752D01*
X343237638Y-58920704D01*
X343285257Y-59015942D01*
X343332876Y-59063561D01*
X343428114Y-59111180D01*
X343618590Y-59111180D01*
X343713828Y-59063561D01*
X343761447Y-59015942D01*
X343809066Y-58920704D01*
X343809066Y-58682609D01*
X343761447Y-58587371D01*
X343713828Y-58539752D01*
X343618590Y-58492133D01*
X343428114Y-58492133D01*
X343332876Y-58539752D01*
X343285257Y-58587371D01*
X343237638Y-58682609D01*
%TO.C,JP3*%
X206392780Y-128289333D02*
X207107066Y-128289333D01*
X207249923Y-128336952D01*
X207345161Y-128432190D01*
X207392780Y-128575047D01*
X207392780Y-128670285D01*
X207392780Y-127813142D02*
X206392780Y-127813142D01*
X206392780Y-127432190D01*
X206440400Y-127336952D01*
X206488019Y-127289333D01*
X206583257Y-127241714D01*
X206726114Y-127241714D01*
X206821352Y-127289333D01*
X206868971Y-127336952D01*
X206916590Y-127432190D01*
X206916590Y-127813142D01*
X206392780Y-126908380D02*
X206392780Y-126289333D01*
X206773733Y-126622666D01*
X206773733Y-126479809D01*
X206821352Y-126384571D01*
X206868971Y-126336952D01*
X206964209Y-126289333D01*
X207202304Y-126289333D01*
X207297542Y-126336952D01*
X207345161Y-126384571D01*
X207392780Y-126479809D01*
X207392780Y-126765523D01*
X207345161Y-126860761D01*
X207297542Y-126908380D01*
%TO.C,U17*%
X266584397Y-74958742D02*
X267798683Y-74958742D01*
X267941540Y-74887314D01*
X268012968Y-74815885D01*
X268084397Y-74673028D01*
X268084397Y-74387314D01*
X268012968Y-74244457D01*
X267941540Y-74173028D01*
X267798683Y-74101600D01*
X266584397Y-74101600D01*
X268084397Y-72601600D02*
X268084397Y-73458742D01*
X268084397Y-73030171D02*
X266584397Y-73030171D01*
X266798683Y-73173028D01*
X266941540Y-73315885D01*
X267012968Y-73458742D01*
X266584397Y-72101600D02*
X266584397Y-71101600D01*
X268084397Y-71744457D01*
X264247597Y-96598000D02*
X264247597Y-96312285D01*
X264319026Y-96169428D01*
X264461883Y-96026571D01*
X264747597Y-95955142D01*
X265247597Y-95955142D01*
X265533311Y-96026571D01*
X265676168Y-96169428D01*
X265747597Y-96312285D01*
X265747597Y-96598000D01*
X265676168Y-96740857D01*
X265533311Y-96883714D01*
X265247597Y-96955142D01*
X264747597Y-96955142D01*
X264461883Y-96883714D01*
X264319026Y-96740857D01*
X264247597Y-96598000D01*
X264247597Y-95312285D02*
X265461883Y-95312285D01*
X265604740Y-95240857D01*
X265676168Y-95169428D01*
X265747597Y-95026571D01*
X265747597Y-94740857D01*
X265676168Y-94598000D01*
X265604740Y-94526571D01*
X265461883Y-94455142D01*
X264247597Y-94455142D01*
X264247597Y-93955142D02*
X264247597Y-93098000D01*
X265747597Y-93526571D02*
X264247597Y-93526571D01*
X265747597Y-51433714D02*
X264247597Y-51433714D01*
X265747597Y-50719428D02*
X264247597Y-50719428D01*
X265747597Y-49862285D01*
X264247597Y-49862285D01*
%TO.C,U18*%
X228377904Y-185021180D02*
X228377904Y-185830704D01*
X228425523Y-185925942D01*
X228473142Y-185973561D01*
X228568380Y-186021180D01*
X228758857Y-186021180D01*
X228854095Y-185973561D01*
X228901714Y-185925942D01*
X228949333Y-185830704D01*
X228949333Y-185021180D01*
X229949333Y-186021180D02*
X229377904Y-186021180D01*
X229663619Y-186021180D02*
X229663619Y-185021180D01*
X229568380Y-185164038D01*
X229473142Y-185259276D01*
X229377904Y-185306895D01*
X230520761Y-185449752D02*
X230425523Y-185402133D01*
X230377904Y-185354514D01*
X230330285Y-185259276D01*
X230330285Y-185211657D01*
X230377904Y-185116419D01*
X230425523Y-185068800D01*
X230520761Y-185021180D01*
X230711238Y-185021180D01*
X230806476Y-185068800D01*
X230854095Y-185116419D01*
X230901714Y-185211657D01*
X230901714Y-185259276D01*
X230854095Y-185354514D01*
X230806476Y-185402133D01*
X230711238Y-185449752D01*
X230520761Y-185449752D01*
X230425523Y-185497371D01*
X230377904Y-185544990D01*
X230330285Y-185640228D01*
X230330285Y-185830704D01*
X230377904Y-185925942D01*
X230425523Y-185973561D01*
X230520761Y-186021180D01*
X230711238Y-186021180D01*
X230806476Y-185973561D01*
X230854095Y-185925942D01*
X230901714Y-185830704D01*
X230901714Y-185640228D01*
X230854095Y-185544990D01*
X230806476Y-185497371D01*
X230711238Y-185449752D01*
%TO.C,R13*%
X146169142Y-136909980D02*
X145835809Y-136433790D01*
X145597714Y-136909980D02*
X145597714Y-135909980D01*
X145978666Y-135909980D01*
X146073904Y-135957600D01*
X146121523Y-136005219D01*
X146169142Y-136100457D01*
X146169142Y-136243314D01*
X146121523Y-136338552D01*
X146073904Y-136386171D01*
X145978666Y-136433790D01*
X145597714Y-136433790D01*
X147121523Y-136909980D02*
X146550095Y-136909980D01*
X146835809Y-136909980D02*
X146835809Y-135909980D01*
X146740571Y-136052838D01*
X146645333Y-136148076D01*
X146550095Y-136195695D01*
X147454857Y-135909980D02*
X148073904Y-135909980D01*
X147740571Y-136290933D01*
X147883428Y-136290933D01*
X147978666Y-136338552D01*
X148026285Y-136386171D01*
X148073904Y-136481409D01*
X148073904Y-136719504D01*
X148026285Y-136814742D01*
X147978666Y-136862361D01*
X147883428Y-136909980D01*
X147597714Y-136909980D01*
X147502476Y-136862361D01*
X147454857Y-136814742D01*
%TO.C,J3*%
X339819692Y-202036380D02*
X339819692Y-202750666D01*
X339772073Y-202893523D01*
X339676835Y-202988761D01*
X339533978Y-203036380D01*
X339438740Y-203036380D01*
X340200645Y-202036380D02*
X340819692Y-202036380D01*
X340486359Y-202417333D01*
X340629216Y-202417333D01*
X340724454Y-202464952D01*
X340772073Y-202512571D01*
X340819692Y-202607809D01*
X340819692Y-202845904D01*
X340772073Y-202941142D01*
X340724454Y-202988761D01*
X340629216Y-203036380D01*
X340343502Y-203036380D01*
X340248264Y-202988761D01*
X340200645Y-202941142D01*
%TO.C,R8*%
X354046359Y-97428380D02*
X353713026Y-96952190D01*
X353474930Y-97428380D02*
X353474930Y-96428380D01*
X353855883Y-96428380D01*
X353951121Y-96476000D01*
X353998740Y-96523619D01*
X354046359Y-96618857D01*
X354046359Y-96761714D01*
X353998740Y-96856952D01*
X353951121Y-96904571D01*
X353855883Y-96952190D01*
X353474930Y-96952190D01*
X354617787Y-96856952D02*
X354522549Y-96809333D01*
X354474930Y-96761714D01*
X354427311Y-96666476D01*
X354427311Y-96618857D01*
X354474930Y-96523619D01*
X354522549Y-96476000D01*
X354617787Y-96428380D01*
X354808264Y-96428380D01*
X354903502Y-96476000D01*
X354951121Y-96523619D01*
X354998740Y-96618857D01*
X354998740Y-96666476D01*
X354951121Y-96761714D01*
X354903502Y-96809333D01*
X354808264Y-96856952D01*
X354617787Y-96856952D01*
X354522549Y-96904571D01*
X354474930Y-96952190D01*
X354427311Y-97047428D01*
X354427311Y-97237904D01*
X354474930Y-97333142D01*
X354522549Y-97380761D01*
X354617787Y-97428380D01*
X354808264Y-97428380D01*
X354903502Y-97380761D01*
X354951121Y-97333142D01*
X354998740Y-97237904D01*
X354998740Y-97047428D01*
X354951121Y-96952190D01*
X354903502Y-96904571D01*
X354808264Y-96856952D01*
%TO.C,U19*%
X264903104Y-112130380D02*
X264903104Y-112939904D01*
X264950723Y-113035142D01*
X264998342Y-113082761D01*
X265093580Y-113130380D01*
X265284057Y-113130380D01*
X265379295Y-113082761D01*
X265426914Y-113035142D01*
X265474533Y-112939904D01*
X265474533Y-112130380D01*
X266474533Y-113130380D02*
X265903104Y-113130380D01*
X266188819Y-113130380D02*
X266188819Y-112130380D01*
X266093580Y-112273238D01*
X265998342Y-112368476D01*
X265903104Y-112416095D01*
X266950723Y-113130380D02*
X267141200Y-113130380D01*
X267236438Y-113082761D01*
X267284057Y-113035142D01*
X267379295Y-112892285D01*
X267426914Y-112701809D01*
X267426914Y-112320857D01*
X267379295Y-112225619D01*
X267331676Y-112178000D01*
X267236438Y-112130380D01*
X267045961Y-112130380D01*
X266950723Y-112178000D01*
X266903104Y-112225619D01*
X266855485Y-112320857D01*
X266855485Y-112558952D01*
X266903104Y-112654190D01*
X266950723Y-112701809D01*
X267045961Y-112749428D01*
X267236438Y-112749428D01*
X267331676Y-112701809D01*
X267379295Y-112654190D01*
X267426914Y-112558952D01*
%TO.C,R14*%
X237659942Y-153797180D02*
X237326609Y-153320990D01*
X237088514Y-153797180D02*
X237088514Y-152797180D01*
X237469466Y-152797180D01*
X237564704Y-152844800D01*
X237612323Y-152892419D01*
X237659942Y-152987657D01*
X237659942Y-153130514D01*
X237612323Y-153225752D01*
X237564704Y-153273371D01*
X237469466Y-153320990D01*
X237088514Y-153320990D01*
X238612323Y-153797180D02*
X238040895Y-153797180D01*
X238326609Y-153797180D02*
X238326609Y-152797180D01*
X238231371Y-152940038D01*
X238136133Y-153035276D01*
X238040895Y-153082895D01*
X239469466Y-153130514D02*
X239469466Y-153797180D01*
X239231371Y-152749561D02*
X238993276Y-153463847D01*
X239612323Y-153463847D01*
%TO.C,U6*%
X356245121Y-142690380D02*
X356245121Y-143499904D01*
X356292740Y-143595142D01*
X356340359Y-143642761D01*
X356435597Y-143690380D01*
X356626073Y-143690380D01*
X356721311Y-143642761D01*
X356768930Y-143595142D01*
X356816549Y-143499904D01*
X356816549Y-142690380D01*
X357721311Y-142690380D02*
X357530835Y-142690380D01*
X357435597Y-142738000D01*
X357387978Y-142785619D01*
X357292740Y-142928476D01*
X357245121Y-143118952D01*
X357245121Y-143499904D01*
X357292740Y-143595142D01*
X357340359Y-143642761D01*
X357435597Y-143690380D01*
X357626073Y-143690380D01*
X357721311Y-143642761D01*
X357768930Y-143595142D01*
X357816549Y-143499904D01*
X357816549Y-143261809D01*
X357768930Y-143166571D01*
X357721311Y-143118952D01*
X357626073Y-143071333D01*
X357435597Y-143071333D01*
X357340359Y-143118952D01*
X357292740Y-143166571D01*
X357245121Y-143261809D01*
%TO.C,J5*%
X319034666Y-58161980D02*
X319034666Y-58876266D01*
X318987047Y-59019123D01*
X318891809Y-59114361D01*
X318748952Y-59161980D01*
X318653714Y-59161980D01*
X319987047Y-58161980D02*
X319510857Y-58161980D01*
X319463238Y-58638171D01*
X319510857Y-58590552D01*
X319606095Y-58542933D01*
X319844190Y-58542933D01*
X319939428Y-58590552D01*
X319987047Y-58638171D01*
X320034666Y-58733409D01*
X320034666Y-58971504D01*
X319987047Y-59066742D01*
X319939428Y-59114361D01*
X319844190Y-59161980D01*
X319606095Y-59161980D01*
X319510857Y-59114361D01*
X319463238Y-59066742D01*
%TO.C,Q1*%
X95004419Y-121507238D02*
X94956800Y-121602476D01*
X94861561Y-121697714D01*
X94718704Y-121840571D01*
X94671085Y-121935809D01*
X94671085Y-122031047D01*
X94909180Y-121983428D02*
X94861561Y-122078666D01*
X94766323Y-122173904D01*
X94575847Y-122221523D01*
X94242514Y-122221523D01*
X94052038Y-122173904D01*
X93956800Y-122078666D01*
X93909180Y-121983428D01*
X93909180Y-121792952D01*
X93956800Y-121697714D01*
X94052038Y-121602476D01*
X94242514Y-121554857D01*
X94575847Y-121554857D01*
X94766323Y-121602476D01*
X94861561Y-121697714D01*
X94909180Y-121792952D01*
X94909180Y-121983428D01*
X94909180Y-120602476D02*
X94909180Y-121173904D01*
X94909180Y-120888190D02*
X93909180Y-120888190D01*
X94052038Y-120983428D01*
X94147276Y-121078666D01*
X94194895Y-121173904D01*
%TO.C,SW1*%
X115423692Y-47304761D02*
X115566549Y-47352380D01*
X115804645Y-47352380D01*
X115899883Y-47304761D01*
X115947502Y-47257142D01*
X115995121Y-47161904D01*
X115995121Y-47066666D01*
X115947502Y-46971428D01*
X115899883Y-46923809D01*
X115804645Y-46876190D01*
X115614168Y-46828571D01*
X115518930Y-46780952D01*
X115471311Y-46733333D01*
X115423692Y-46638095D01*
X115423692Y-46542857D01*
X115471311Y-46447619D01*
X115518930Y-46400000D01*
X115614168Y-46352380D01*
X115852264Y-46352380D01*
X115995121Y-46400000D01*
X116328454Y-46352380D02*
X116566549Y-47352380D01*
X116757026Y-46638095D01*
X116947502Y-47352380D01*
X117185597Y-46352380D01*
X118090359Y-47352380D02*
X117518930Y-47352380D01*
X117804645Y-47352380D02*
X117804645Y-46352380D01*
X117709406Y-46495238D01*
X117614168Y-46590476D01*
X117518930Y-46638095D01*
%TO.C,TP18*%
X345886304Y-168963180D02*
X346457733Y-168963180D01*
X346172019Y-169963180D02*
X346172019Y-168963180D01*
X346791066Y-169963180D02*
X346791066Y-168963180D01*
X347172019Y-168963180D01*
X347267257Y-169010800D01*
X347314876Y-169058419D01*
X347362495Y-169153657D01*
X347362495Y-169296514D01*
X347314876Y-169391752D01*
X347267257Y-169439371D01*
X347172019Y-169486990D01*
X346791066Y-169486990D01*
X348314876Y-169963180D02*
X347743447Y-169963180D01*
X348029161Y-169963180D02*
X348029161Y-168963180D01*
X347933923Y-169106038D01*
X347838685Y-169201276D01*
X347743447Y-169248895D01*
X348886304Y-169391752D02*
X348791066Y-169344133D01*
X348743447Y-169296514D01*
X348695828Y-169201276D01*
X348695828Y-169153657D01*
X348743447Y-169058419D01*
X348791066Y-169010800D01*
X348886304Y-168963180D01*
X349076780Y-168963180D01*
X349172019Y-169010800D01*
X349219638Y-169058419D01*
X349267257Y-169153657D01*
X349267257Y-169201276D01*
X349219638Y-169296514D01*
X349172019Y-169344133D01*
X349076780Y-169391752D01*
X348886304Y-169391752D01*
X348791066Y-169439371D01*
X348743447Y-169486990D01*
X348695828Y-169582228D01*
X348695828Y-169772704D01*
X348743447Y-169867942D01*
X348791066Y-169915561D01*
X348886304Y-169963180D01*
X349076780Y-169963180D01*
X349172019Y-169915561D01*
X349219638Y-169867942D01*
X349267257Y-169772704D01*
X349267257Y-169582228D01*
X349219638Y-169486990D01*
X349172019Y-169439371D01*
X349076780Y-169391752D01*
%TO.C,JP4*%
X273474780Y-157360133D02*
X274189066Y-157360133D01*
X274331923Y-157407752D01*
X274427161Y-157502990D01*
X274474780Y-157645847D01*
X274474780Y-157741085D01*
X274474780Y-156883942D02*
X273474780Y-156883942D01*
X273474780Y-156502990D01*
X273522400Y-156407752D01*
X273570019Y-156360133D01*
X273665257Y-156312514D01*
X273808114Y-156312514D01*
X273903352Y-156360133D01*
X273950971Y-156407752D01*
X273998590Y-156502990D01*
X273998590Y-156883942D01*
X273808114Y-155455371D02*
X274474780Y-155455371D01*
X273427161Y-155693466D02*
X274141447Y-155931561D01*
X274141447Y-155312514D01*
%TO.C,R12*%
X145915142Y-132871380D02*
X145581809Y-132395190D01*
X145343714Y-132871380D02*
X145343714Y-131871380D01*
X145724666Y-131871380D01*
X145819904Y-131919000D01*
X145867523Y-131966619D01*
X145915142Y-132061857D01*
X145915142Y-132204714D01*
X145867523Y-132299952D01*
X145819904Y-132347571D01*
X145724666Y-132395190D01*
X145343714Y-132395190D01*
X146867523Y-132871380D02*
X146296095Y-132871380D01*
X146581809Y-132871380D02*
X146581809Y-131871380D01*
X146486571Y-132014238D01*
X146391333Y-132109476D01*
X146296095Y-132157095D01*
X147248476Y-131966619D02*
X147296095Y-131919000D01*
X147391333Y-131871380D01*
X147629428Y-131871380D01*
X147724666Y-131919000D01*
X147772285Y-131966619D01*
X147819904Y-132061857D01*
X147819904Y-132157095D01*
X147772285Y-132299952D01*
X147200857Y-132871380D01*
X147819904Y-132871380D01*
%TO.C,U11*%
X208819904Y-112536780D02*
X208819904Y-113346304D01*
X208867523Y-113441542D01*
X208915142Y-113489161D01*
X209010380Y-113536780D01*
X209200857Y-113536780D01*
X209296095Y-113489161D01*
X209343714Y-113441542D01*
X209391333Y-113346304D01*
X209391333Y-112536780D01*
X210391333Y-113536780D02*
X209819904Y-113536780D01*
X210105619Y-113536780D02*
X210105619Y-112536780D01*
X210010380Y-112679638D01*
X209915142Y-112774876D01*
X209819904Y-112822495D01*
X211343714Y-113536780D02*
X210772285Y-113536780D01*
X211058000Y-113536780D02*
X211058000Y-112536780D01*
X210962761Y-112679638D01*
X210867523Y-112774876D01*
X210772285Y-112822495D01*
%TO.C,U24*%
X140239406Y-44538095D02*
X141048930Y-44538095D01*
X141144168Y-44490476D01*
X141191787Y-44442857D01*
X141239406Y-44347619D01*
X141239406Y-44157142D01*
X141191787Y-44061904D01*
X141144168Y-44014285D01*
X141048930Y-43966666D01*
X140239406Y-43966666D01*
X140334645Y-43538095D02*
X140287026Y-43490476D01*
X140239406Y-43395238D01*
X140239406Y-43157142D01*
X140287026Y-43061904D01*
X140334645Y-43014285D01*
X140429883Y-42966666D01*
X140525121Y-42966666D01*
X140667978Y-43014285D01*
X141239406Y-43585714D01*
X141239406Y-42966666D01*
X140572740Y-42109523D02*
X141239406Y-42109523D01*
X140191787Y-42347619D02*
X140906073Y-42585714D01*
X140906073Y-41966666D01*
%TO.C,J12*%
X208202002Y-205453380D02*
X208202002Y-206167666D01*
X208154383Y-206310523D01*
X208059145Y-206405761D01*
X207916287Y-206453380D01*
X207821049Y-206453380D01*
X209202002Y-206453380D02*
X208630573Y-206453380D01*
X208916287Y-206453380D02*
X208916287Y-205453380D01*
X208821049Y-205596238D01*
X208725811Y-205691476D01*
X208630573Y-205739095D01*
X209582954Y-205548619D02*
X209630573Y-205501000D01*
X209725811Y-205453380D01*
X209963906Y-205453380D01*
X210059145Y-205501000D01*
X210106764Y-205548619D01*
X210154383Y-205643857D01*
X210154383Y-205739095D01*
X210106764Y-205881952D01*
X209535335Y-206453380D01*
X210154383Y-206453380D01*
%TO.C,U2*%
X68589150Y-177827373D02*
X69398986Y-177827373D01*
X69494261Y-177779736D01*
X69541899Y-177732099D01*
X69589536Y-177636824D01*
X69589536Y-177446274D01*
X69541899Y-177350999D01*
X69494261Y-177303362D01*
X69398986Y-177255724D01*
X68589150Y-177255724D01*
X68684425Y-176826987D02*
X68636788Y-176779350D01*
X68589150Y-176684075D01*
X68589150Y-176445888D01*
X68636788Y-176350613D01*
X68684425Y-176302976D01*
X68779700Y-176255338D01*
X68874975Y-176255338D01*
X69017887Y-176302976D01*
X69589536Y-176874625D01*
X69589536Y-176255338D01*
%TO.C,R9*%
X231633733Y-105151180D02*
X231300400Y-104674990D01*
X231062304Y-105151180D02*
X231062304Y-104151180D01*
X231443257Y-104151180D01*
X231538495Y-104198800D01*
X231586114Y-104246419D01*
X231633733Y-104341657D01*
X231633733Y-104484514D01*
X231586114Y-104579752D01*
X231538495Y-104627371D01*
X231443257Y-104674990D01*
X231062304Y-104674990D01*
X232109923Y-105151180D02*
X232300400Y-105151180D01*
X232395638Y-105103561D01*
X232443257Y-105055942D01*
X232538495Y-104913085D01*
X232586114Y-104722609D01*
X232586114Y-104341657D01*
X232538495Y-104246419D01*
X232490876Y-104198800D01*
X232395638Y-104151180D01*
X232205161Y-104151180D01*
X232109923Y-104198800D01*
X232062304Y-104246419D01*
X232014685Y-104341657D01*
X232014685Y-104579752D01*
X232062304Y-104674990D01*
X232109923Y-104722609D01*
X232205161Y-104770228D01*
X232395638Y-104770228D01*
X232490876Y-104722609D01*
X232538495Y-104674990D01*
X232586114Y-104579752D01*
%TO.C,U21*%
X237826704Y-142450780D02*
X237826704Y-143260304D01*
X237874323Y-143355542D01*
X237921942Y-143403161D01*
X238017180Y-143450780D01*
X238207657Y-143450780D01*
X238302895Y-143403161D01*
X238350514Y-143355542D01*
X238398133Y-143260304D01*
X238398133Y-142450780D01*
X238826704Y-142546019D02*
X238874323Y-142498400D01*
X238969561Y-142450780D01*
X239207657Y-142450780D01*
X239302895Y-142498400D01*
X239350514Y-142546019D01*
X239398133Y-142641257D01*
X239398133Y-142736495D01*
X239350514Y-142879352D01*
X238779085Y-143450780D01*
X239398133Y-143450780D01*
X240350514Y-143450780D02*
X239779085Y-143450780D01*
X240064800Y-143450780D02*
X240064800Y-142450780D01*
X239969561Y-142593638D01*
X239874323Y-142688876D01*
X239779085Y-142736495D01*
%TO.C,U22*%
X310801483Y-158973771D02*
X310801483Y-160188057D01*
X310872911Y-160330914D01*
X310944340Y-160402342D01*
X311087197Y-160473771D01*
X311372911Y-160473771D01*
X311515768Y-160402342D01*
X311587197Y-160330914D01*
X311658626Y-160188057D01*
X311658626Y-158973771D01*
X312301483Y-159116628D02*
X312372911Y-159045200D01*
X312515768Y-158973771D01*
X312872911Y-158973771D01*
X313015768Y-159045200D01*
X313087197Y-159116628D01*
X313158626Y-159259485D01*
X313158626Y-159402342D01*
X313087197Y-159616628D01*
X312230054Y-160473771D01*
X313158626Y-160473771D01*
X313730054Y-159116628D02*
X313801483Y-159045200D01*
X313944340Y-158973771D01*
X314301483Y-158973771D01*
X314444340Y-159045200D01*
X314515768Y-159116628D01*
X314587197Y-159259485D01*
X314587197Y-159402342D01*
X314515768Y-159616628D01*
X313658626Y-160473771D01*
X314587197Y-160473771D01*
X333155026Y-161310571D02*
X333440740Y-161310571D01*
X333583597Y-161382000D01*
X333726454Y-161524857D01*
X333797883Y-161810571D01*
X333797883Y-162310571D01*
X333726454Y-162596285D01*
X333583597Y-162739142D01*
X333440740Y-162810571D01*
X333155026Y-162810571D01*
X333012168Y-162739142D01*
X332869311Y-162596285D01*
X332797883Y-162310571D01*
X332797883Y-161810571D01*
X332869311Y-161524857D01*
X333012168Y-161382000D01*
X333155026Y-161310571D01*
X334440740Y-161310571D02*
X334440740Y-162524857D01*
X334512168Y-162667714D01*
X334583597Y-162739142D01*
X334726454Y-162810571D01*
X335012168Y-162810571D01*
X335155026Y-162739142D01*
X335226454Y-162667714D01*
X335297883Y-162524857D01*
X335297883Y-161310571D01*
X335797883Y-161310571D02*
X336655026Y-161310571D01*
X336226454Y-162810571D02*
X336226454Y-161310571D01*
X289419311Y-162810571D02*
X289419311Y-161310571D01*
X290133597Y-162810571D02*
X290133597Y-161310571D01*
X290990740Y-162810571D01*
X290990740Y-161310571D01*
%TO.C,TP10*%
X176925504Y-99680780D02*
X177496933Y-99680780D01*
X177211219Y-100680780D02*
X177211219Y-99680780D01*
X177830266Y-100680780D02*
X177830266Y-99680780D01*
X178211219Y-99680780D01*
X178306457Y-99728400D01*
X178354076Y-99776019D01*
X178401695Y-99871257D01*
X178401695Y-100014114D01*
X178354076Y-100109352D01*
X178306457Y-100156971D01*
X178211219Y-100204590D01*
X177830266Y-100204590D01*
X179354076Y-100680780D02*
X178782647Y-100680780D01*
X179068361Y-100680780D02*
X179068361Y-99680780D01*
X178973123Y-99823638D01*
X178877885Y-99918876D01*
X178782647Y-99966495D01*
X179973123Y-99680780D02*
X180068361Y-99680780D01*
X180163600Y-99728400D01*
X180211219Y-99776019D01*
X180258838Y-99871257D01*
X180306457Y-100061733D01*
X180306457Y-100299828D01*
X180258838Y-100490304D01*
X180211219Y-100585542D01*
X180163600Y-100633161D01*
X180068361Y-100680780D01*
X179973123Y-100680780D01*
X179877885Y-100633161D01*
X179830266Y-100585542D01*
X179782647Y-100490304D01*
X179735028Y-100299828D01*
X179735028Y-100061733D01*
X179782647Y-99871257D01*
X179830266Y-99776019D01*
X179877885Y-99728400D01*
X179973123Y-99680780D01*
%TO.C,J4*%
X289019692Y-202036380D02*
X289019692Y-202750666D01*
X288972073Y-202893523D01*
X288876835Y-202988761D01*
X288733978Y-203036380D01*
X288638740Y-203036380D01*
X289924454Y-202369714D02*
X289924454Y-203036380D01*
X289686359Y-201988761D02*
X289448264Y-202703047D01*
X290067311Y-202703047D01*
%TO.C,R11*%
X266057142Y-105222380D02*
X265723809Y-104746190D01*
X265485714Y-105222380D02*
X265485714Y-104222380D01*
X265866666Y-104222380D01*
X265961904Y-104270000D01*
X266009523Y-104317619D01*
X266057142Y-104412857D01*
X266057142Y-104555714D01*
X266009523Y-104650952D01*
X265961904Y-104698571D01*
X265866666Y-104746190D01*
X265485714Y-104746190D01*
X267009523Y-105222380D02*
X266438095Y-105222380D01*
X266723809Y-105222380D02*
X266723809Y-104222380D01*
X266628571Y-104365238D01*
X266533333Y-104460476D01*
X266438095Y-104508095D01*
X267961904Y-105222380D02*
X267390476Y-105222380D01*
X267676190Y-105222380D02*
X267676190Y-104222380D01*
X267580952Y-104365238D01*
X267485714Y-104460476D01*
X267390476Y-104508095D01*
%TO.C,J11*%
X130191002Y-217363380D02*
X130191002Y-218077666D01*
X130143383Y-218220523D01*
X130048145Y-218315761D01*
X129905287Y-218363380D01*
X129810049Y-218363380D01*
X131191002Y-218363380D02*
X130619573Y-218363380D01*
X130905287Y-218363380D02*
X130905287Y-217363380D01*
X130810049Y-217506238D01*
X130714811Y-217601476D01*
X130619573Y-217649095D01*
X132143383Y-218363380D02*
X131571954Y-218363380D01*
X131857668Y-218363380D02*
X131857668Y-217363380D01*
X131762430Y-217506238D01*
X131667192Y-217601476D01*
X131571954Y-217649095D01*
%TO.C,U16*%
X177584397Y-161590742D02*
X178798683Y-161590742D01*
X178941540Y-161519314D01*
X179012968Y-161447885D01*
X179084397Y-161305028D01*
X179084397Y-161019314D01*
X179012968Y-160876457D01*
X178941540Y-160805028D01*
X178798683Y-160733600D01*
X177584397Y-160733600D01*
X179084397Y-159233600D02*
X179084397Y-160090742D01*
X179084397Y-159662171D02*
X177584397Y-159662171D01*
X177798683Y-159805028D01*
X177941540Y-159947885D01*
X178012968Y-160090742D01*
X177584397Y-157947885D02*
X177584397Y-158233600D01*
X177655826Y-158376457D01*
X177727254Y-158447885D01*
X177941540Y-158590742D01*
X178227254Y-158662171D01*
X178798683Y-158662171D01*
X178941540Y-158590742D01*
X179012968Y-158519314D01*
X179084397Y-158376457D01*
X179084397Y-158090742D01*
X179012968Y-157947885D01*
X178941540Y-157876457D01*
X178798683Y-157805028D01*
X178441540Y-157805028D01*
X178298683Y-157876457D01*
X178227254Y-157947885D01*
X178155826Y-158090742D01*
X178155826Y-158376457D01*
X178227254Y-158519314D01*
X178298683Y-158590742D01*
X178441540Y-158662171D01*
X176747597Y-138065714D02*
X175247597Y-138065714D01*
X176747597Y-137351428D02*
X175247597Y-137351428D01*
X176747597Y-136494285D01*
X175247597Y-136494285D01*
X175247597Y-183230000D02*
X175247597Y-182944285D01*
X175319026Y-182801428D01*
X175461883Y-182658571D01*
X175747597Y-182587142D01*
X176247597Y-182587142D01*
X176533311Y-182658571D01*
X176676168Y-182801428D01*
X176747597Y-182944285D01*
X176747597Y-183230000D01*
X176676168Y-183372857D01*
X176533311Y-183515714D01*
X176247597Y-183587142D01*
X175747597Y-183587142D01*
X175461883Y-183515714D01*
X175319026Y-183372857D01*
X175247597Y-183230000D01*
X175247597Y-181944285D02*
X176461883Y-181944285D01*
X176604740Y-181872857D01*
X176676168Y-181801428D01*
X176747597Y-181658571D01*
X176747597Y-181372857D01*
X176676168Y-181230000D01*
X176604740Y-181158571D01*
X176461883Y-181087142D01*
X175247597Y-181087142D01*
X175247597Y-180587142D02*
X175247597Y-179730000D01*
X176747597Y-180158571D02*
X175247597Y-180158571D01*
%TO.C,JP1*%
X126157666Y-101423780D02*
X126157666Y-102138066D01*
X126110047Y-102280923D01*
X126014809Y-102376161D01*
X125871952Y-102423780D01*
X125776714Y-102423780D01*
X126633857Y-102423780D02*
X126633857Y-101423780D01*
X127014809Y-101423780D01*
X127110047Y-101471400D01*
X127157666Y-101519019D01*
X127205285Y-101614257D01*
X127205285Y-101757114D01*
X127157666Y-101852352D01*
X127110047Y-101899971D01*
X127014809Y-101947590D01*
X126633857Y-101947590D01*
X128157666Y-102423780D02*
X127586238Y-102423780D01*
X127871952Y-102423780D02*
X127871952Y-101423780D01*
X127776714Y-101566638D01*
X127681476Y-101661876D01*
X127586238Y-101709495D01*
%TO.C,U1*%
X81301768Y-84845771D02*
X81301768Y-86060057D01*
X81373197Y-86202914D01*
X81444626Y-86274342D01*
X81587483Y-86345771D01*
X81873197Y-86345771D01*
X82016054Y-86274342D01*
X82087483Y-86202914D01*
X82158911Y-86060057D01*
X82158911Y-84845771D01*
X83658911Y-86345771D02*
X82801768Y-86345771D01*
X83230340Y-86345771D02*
X83230340Y-84845771D01*
X83087483Y-85060057D01*
X82944626Y-85202914D01*
X82801768Y-85274342D01*
X102941026Y-87182571D02*
X103226740Y-87182571D01*
X103369597Y-87254000D01*
X103512454Y-87396857D01*
X103583883Y-87682571D01*
X103583883Y-88182571D01*
X103512454Y-88468285D01*
X103369597Y-88611142D01*
X103226740Y-88682571D01*
X102941026Y-88682571D01*
X102798168Y-88611142D01*
X102655311Y-88468285D01*
X102583883Y-88182571D01*
X102583883Y-87682571D01*
X102655311Y-87396857D01*
X102798168Y-87254000D01*
X102941026Y-87182571D01*
X104226740Y-87182571D02*
X104226740Y-88396857D01*
X104298168Y-88539714D01*
X104369597Y-88611142D01*
X104512454Y-88682571D01*
X104798168Y-88682571D01*
X104941026Y-88611142D01*
X105012454Y-88539714D01*
X105083883Y-88396857D01*
X105083883Y-87182571D01*
X105583883Y-87182571D02*
X106441026Y-87182571D01*
X106012454Y-88682571D02*
X106012454Y-87182571D01*
X59205311Y-88682571D02*
X59205311Y-87182571D01*
X59919597Y-88682571D02*
X59919597Y-87182571D01*
X60776740Y-88682571D01*
X60776740Y-87182571D01*
%TO.C,TP14*%
X242101904Y-101357180D02*
X242673333Y-101357180D01*
X242387619Y-102357180D02*
X242387619Y-101357180D01*
X243006666Y-102357180D02*
X243006666Y-101357180D01*
X243387619Y-101357180D01*
X243482857Y-101404800D01*
X243530476Y-101452419D01*
X243578095Y-101547657D01*
X243578095Y-101690514D01*
X243530476Y-101785752D01*
X243482857Y-101833371D01*
X243387619Y-101880990D01*
X243006666Y-101880990D01*
X244530476Y-102357180D02*
X243959047Y-102357180D01*
X244244761Y-102357180D02*
X244244761Y-101357180D01*
X244149523Y-101500038D01*
X244054285Y-101595276D01*
X243959047Y-101642895D01*
X245387619Y-101690514D02*
X245387619Y-102357180D01*
X245149523Y-101309561D02*
X244911428Y-102023847D01*
X245530476Y-102023847D01*
%TO.C,TP4*%
X79611695Y-115419980D02*
X80183123Y-115419980D01*
X79897409Y-116419980D02*
X79897409Y-115419980D01*
X80516457Y-116419980D02*
X80516457Y-115419980D01*
X80897409Y-115419980D01*
X80992647Y-115467600D01*
X81040266Y-115515219D01*
X81087885Y-115610457D01*
X81087885Y-115753314D01*
X81040266Y-115848552D01*
X80992647Y-115896171D01*
X80897409Y-115943790D01*
X80516457Y-115943790D01*
X81945028Y-115753314D02*
X81945028Y-116419980D01*
X81706933Y-115372361D02*
X81468838Y-116086647D01*
X82087885Y-116086647D01*
%TO.C,TP11*%
X362469180Y-78547695D02*
X362469180Y-77976266D01*
X363469180Y-78261980D02*
X362469180Y-78261980D01*
X363469180Y-77642933D02*
X362469180Y-77642933D01*
X362469180Y-77261980D01*
X362516800Y-77166742D01*
X362564419Y-77119123D01*
X362659657Y-77071504D01*
X362802514Y-77071504D01*
X362897752Y-77119123D01*
X362945371Y-77166742D01*
X362992990Y-77261980D01*
X362992990Y-77642933D01*
X363469180Y-76119123D02*
X363469180Y-76690552D01*
X363469180Y-76404838D02*
X362469180Y-76404838D01*
X362612038Y-76500076D01*
X362707276Y-76595314D01*
X362754895Y-76690552D01*
X363469180Y-75166742D02*
X363469180Y-75738171D01*
X363469180Y-75452457D02*
X362469180Y-75452457D01*
X362612038Y-75547695D01*
X362707276Y-75642933D01*
X362754895Y-75738171D01*
%TO.C,J7*%
X248633692Y-205848380D02*
X248633692Y-206562666D01*
X248586073Y-206705523D01*
X248490835Y-206800761D01*
X248347978Y-206848380D01*
X248252740Y-206848380D01*
X249014645Y-205848380D02*
X249681311Y-205848380D01*
X249252740Y-206848380D01*
%TO.C,U23*%
X340218930Y-187552380D02*
X340218930Y-188361904D01*
X340266549Y-188457142D01*
X340314168Y-188504761D01*
X340409406Y-188552380D01*
X340599883Y-188552380D01*
X340695121Y-188504761D01*
X340742740Y-188457142D01*
X340790359Y-188361904D01*
X340790359Y-187552380D01*
X341218930Y-187647619D02*
X341266549Y-187600000D01*
X341361787Y-187552380D01*
X341599883Y-187552380D01*
X341695121Y-187600000D01*
X341742740Y-187647619D01*
X341790359Y-187742857D01*
X341790359Y-187838095D01*
X341742740Y-187980952D01*
X341171311Y-188552380D01*
X341790359Y-188552380D01*
X342123692Y-187552380D02*
X342742740Y-187552380D01*
X342409406Y-187933333D01*
X342552264Y-187933333D01*
X342647502Y-187980952D01*
X342695121Y-188028571D01*
X342742740Y-188123809D01*
X342742740Y-188361904D01*
X342695121Y-188457142D01*
X342647502Y-188504761D01*
X342552264Y-188552380D01*
X342266549Y-188552380D01*
X342171311Y-188504761D01*
X342123692Y-188457142D01*
D12*
%TO.C,D2*%
X92530000Y-109274000D02*
X92530000Y-112214000D01*
X97970000Y-109274000D02*
X92530000Y-109274000D01*
X93430000Y-109274000D02*
X93430000Y-112214000D01*
X98990000Y-110744000D02*
X97970000Y-110744000D01*
X92530000Y-112214000D02*
X97970000Y-112214000D01*
X93550000Y-109274000D02*
X93550000Y-112214000D01*
X93310000Y-109274000D02*
X93310000Y-112214000D01*
X91510000Y-110744000D02*
X92530000Y-110744000D01*
X97970000Y-112214000D02*
X97970000Y-109274000D01*
%TO.C,U14*%
X355229026Y-110590000D02*
X357179026Y-110590000D01*
X355229026Y-110590000D02*
X353279026Y-110590000D01*
X355229026Y-105470000D02*
X357179026Y-105470000D01*
X355229026Y-105470000D02*
X351779026Y-105470000D01*
%TO.C,J10*%
X72232600Y-213158800D02*
X72279600Y-213112800D01*
X94861600Y-210850800D02*
X94896600Y-210815800D01*
X51912600Y-213158800D02*
X51959600Y-213112800D01*
X54414600Y-211066800D02*
X54461600Y-211020800D01*
X82597600Y-213364800D02*
X82632600Y-213328800D01*
X101507600Y-214390800D02*
X50587600Y-214390800D01*
X56992600Y-213158800D02*
X57039600Y-213112800D01*
X79814600Y-211066800D02*
X79861600Y-211020800D01*
X89781600Y-210850800D02*
X89816600Y-210815800D01*
X92757600Y-213364800D02*
X92792600Y-213328800D01*
X54221600Y-210850800D02*
X54256600Y-210815800D01*
X84894600Y-211066800D02*
X84941600Y-211020800D01*
X77312600Y-213158800D02*
X77359600Y-213112800D01*
X74541600Y-210850800D02*
X74576600Y-210815800D01*
X95054600Y-211066800D02*
X95101600Y-211020800D01*
X84701600Y-210850800D02*
X84736600Y-210815800D01*
X50587600Y-217350800D02*
X50587600Y-207429800D01*
X101507600Y-217350800D02*
X101507600Y-207429800D01*
X87677600Y-213364800D02*
X87712600Y-213328800D01*
X67357600Y-213364800D02*
X67392600Y-213328800D01*
X79621600Y-210850800D02*
X79656600Y-210815800D01*
X69461600Y-210850800D02*
X69496600Y-210815800D01*
X57197600Y-213364800D02*
X57232600Y-213328800D01*
X62072600Y-213158800D02*
X62119600Y-213112800D01*
X101507600Y-207989800D02*
X50587600Y-207989800D01*
X82392600Y-213158800D02*
X82439600Y-213112800D01*
X101507600Y-207429800D02*
X50587600Y-207429800D01*
X92552600Y-213158800D02*
X92599600Y-213112800D01*
X62277600Y-213364800D02*
X62312600Y-213328800D01*
X64574600Y-211066800D02*
X64621600Y-211020800D01*
X52117600Y-213364800D02*
X52152600Y-213328800D01*
X59301600Y-210850800D02*
X59336600Y-210815800D01*
X101507600Y-217350800D02*
X50587600Y-217350800D01*
X89974600Y-211066800D02*
X90021600Y-211020800D01*
X101507600Y-209489800D02*
X50587600Y-209489800D01*
X67152600Y-213158800D02*
X67199600Y-213112800D01*
X101747600Y-207929800D02*
X101747600Y-207189800D01*
X74734600Y-211066800D02*
X74781600Y-211020800D01*
X64381600Y-210850800D02*
X64416600Y-210815800D01*
X87472600Y-213158800D02*
X87519600Y-213112800D01*
X69654600Y-211066800D02*
X69701600Y-211020800D01*
X101747600Y-207189800D02*
X101247600Y-207189800D01*
X59494600Y-211066800D02*
X59541600Y-211020800D01*
X72437600Y-213364800D02*
X72472600Y-213328800D01*
X77517600Y-213364800D02*
X77552600Y-213328800D01*
X98907600Y-210409800D02*
G75*
G03*
X98224282Y-210555044I0J-1680000D01*
G01*
X97372599Y-211405800D02*
G75*
G03*
X97372173Y-212772842I1535001J-684000D01*
G01*
X98223600Y-213624800D02*
G75*
G03*
X99590642Y-213625227I684001J1534993D01*
G01*
X100442600Y-212773800D02*
G75*
G03*
X100443027Y-211406758I-1534993J684001D01*
G01*
X99591600Y-210554800D02*
G75*
G03*
X98878795Y-210409547I-683999J-1535001D01*
G01*
X65027600Y-212089800D02*
G75*
G03*
X65027600Y-212089800I-1680000J0D01*
G01*
X90427600Y-212089800D02*
G75*
G03*
X90427600Y-212089800I-1680000J0D01*
G01*
X54867600Y-212089800D02*
G75*
G03*
X54867600Y-212089800I-1680000J0D01*
G01*
X80267600Y-212089800D02*
G75*
G03*
X80267600Y-212089800I-1680000J0D01*
G01*
X75187600Y-212089800D02*
G75*
G03*
X75187600Y-212089800I-1680000J0D01*
G01*
X95507600Y-212089800D02*
G75*
G03*
X95507600Y-212089800I-1680000J0D01*
G01*
X85347600Y-212089800D02*
G75*
G03*
X85347600Y-212089800I-1680000J0D01*
G01*
X70107600Y-212089800D02*
G75*
G03*
X70107600Y-212089800I-1680000J0D01*
G01*
X59947600Y-212089800D02*
G75*
G03*
X59947600Y-212089800I-1680000J0D01*
G01*
%TO.C,TP6*%
X274699200Y-169773600D02*
G75*
G03*
X274699200Y-169773600I-1700000J0D01*
G01*
D13*
%TO.C,JP5*%
X130048000Y-66789600D02*
X130048000Y-69049600D01*
X127508000Y-66789600D02*
X127508000Y-69049600D01*
D12*
%TO.C,D1*%
X77416000Y-63045000D02*
X77416000Y-57605000D01*
X74476000Y-62265000D02*
X77416000Y-62265000D01*
X74476000Y-57605000D02*
X74476000Y-63045000D01*
X74476000Y-62025000D02*
X77416000Y-62025000D01*
X74476000Y-62145000D02*
X77416000Y-62145000D01*
X77416000Y-57605000D02*
X74476000Y-57605000D01*
X75946000Y-56585000D02*
X75946000Y-57605000D01*
X74476000Y-63045000D02*
X77416000Y-63045000D01*
X75946000Y-64065000D02*
X75946000Y-63045000D01*
%TO.C,J2*%
X61196000Y-50569000D02*
G75*
G03*
X61196000Y-50569000I-1760000J0D01*
G01*
X55151000Y-41859000D02*
X55151000Y-56879000D01*
X59736000Y-59979000D02*
X59736000Y-61259000D01*
X56936000Y-57869000D02*
X56336000Y-58169000D01*
X63721000Y-41859000D02*
X63721000Y-56879000D01*
X59436000Y-41859000D02*
X55151000Y-41859000D01*
X56336000Y-57569000D02*
X56936000Y-57869000D01*
X56336000Y-58169000D02*
X56336000Y-57569000D01*
X59436000Y-41859000D02*
X63721000Y-41859000D01*
X59136000Y-59979000D02*
X59136000Y-61259000D01*
X63721000Y-56879000D02*
X61546000Y-56879000D01*
X55151000Y-56879000D02*
X57326000Y-56879000D01*
D11*
%TO.C,U8*%
X286903026Y-69332000D02*
X338211026Y-69332000D01*
X315351026Y-90668000D02*
X309763026Y-90668000D01*
X338211026Y-90668000D02*
X338211026Y-69332000D01*
X286903026Y-90668000D02*
X286903026Y-69332000D01*
X286903026Y-90668000D02*
X309763026Y-90668000D01*
X315351026Y-90668000D02*
X338211026Y-90668000D01*
D12*
%TO.C,J9*%
X163356026Y-216421000D02*
X163356026Y-217161000D01*
X170049026Y-213284000D02*
X170002026Y-213330000D01*
X163596026Y-207000000D02*
X189116026Y-207000000D01*
X163356026Y-217161000D02*
X163856026Y-217161000D01*
X172346026Y-210986000D02*
X172311026Y-211022000D01*
X163596026Y-209960000D02*
X189116026Y-209960000D01*
X189116026Y-207000000D02*
X189116026Y-216921000D01*
X180402026Y-213500000D02*
X180367026Y-213535000D01*
X163596026Y-216361000D02*
X189116026Y-216361000D01*
X172551026Y-211192000D02*
X172504026Y-211238000D01*
X170242026Y-213500000D02*
X170207026Y-213535000D01*
X163596026Y-216921000D02*
X189116026Y-216921000D01*
X182506026Y-210986000D02*
X182471026Y-211022000D01*
X175129026Y-213284000D02*
X175082026Y-213330000D01*
X185482026Y-213500000D02*
X185447026Y-213535000D01*
X175322026Y-213500000D02*
X175287026Y-213535000D01*
X177426026Y-210986000D02*
X177391026Y-211022000D01*
X163596026Y-214861000D02*
X189116026Y-214861000D01*
X187791026Y-211192000D02*
X187744026Y-211238000D01*
X185289026Y-213284000D02*
X185242026Y-213330000D01*
X182711026Y-211192000D02*
X182664026Y-211238000D01*
X177631026Y-211192000D02*
X177584026Y-211238000D01*
X180209026Y-213284000D02*
X180162026Y-213330000D01*
X187586026Y-210986000D02*
X187551026Y-211022000D01*
X163596026Y-207000000D02*
X163596026Y-216921000D01*
X164661026Y-211577000D02*
G75*
G03*
X164660599Y-212944042I1534993J-684001D01*
G01*
X166880026Y-210726000D02*
G75*
G03*
X165512984Y-210725573I-684001J-1534993D01*
G01*
X165512026Y-213796000D02*
G75*
G03*
X166224831Y-213941253I683999J1535001D01*
G01*
X166196026Y-213941000D02*
G75*
G03*
X166879344Y-213795756I0J1680000D01*
G01*
X167731027Y-212945000D02*
G75*
G03*
X167731453Y-211577958I-1535001J684000D01*
G01*
X172956026Y-212261000D02*
G75*
G03*
X172956026Y-212261000I-1680000J0D01*
G01*
X188196026Y-212261000D02*
G75*
G03*
X188196026Y-212261000I-1680000J0D01*
G01*
X178036026Y-212261000D02*
G75*
G03*
X178036026Y-212261000I-1680000J0D01*
G01*
X183116026Y-212261000D02*
G75*
G03*
X183116026Y-212261000I-1680000J0D01*
G01*
%TO.C,R15*%
X348310000Y-190179769D02*
X348310000Y-188585031D01*
X352730000Y-190179769D02*
X352730000Y-188585031D01*
%TO.C,TP9*%
X354709200Y-128981200D02*
G75*
G03*
X354709200Y-128981200I-1700000J0D01*
G01*
%TO.C,R3*%
X275707031Y-190982800D02*
X277301769Y-190982800D01*
X275707031Y-186562800D02*
X277301769Y-186562800D01*
%TO.C,U3*%
X267411200Y-179151600D02*
X263961200Y-179151600D01*
X267411200Y-179151600D02*
X269361200Y-179151600D01*
X267411200Y-184271600D02*
X269361200Y-184271600D01*
X267411200Y-184271600D02*
X265461200Y-184271600D01*
%TO.C,K1*%
X117517000Y-116451000D02*
X115953000Y-116451000D01*
X107307000Y-130669000D02*
X107307000Y-104789000D01*
X111381000Y-115689000D02*
X111381000Y-117213000D01*
X113667000Y-120769000D02*
X112447800Y-116197000D01*
X138457000Y-129039000D02*
X125777000Y-129039000D01*
X125127000Y-130669000D02*
X125127000Y-129689000D01*
X119257000Y-103919000D02*
X108177000Y-103919000D01*
X112397000Y-116451000D02*
X111381000Y-117213000D01*
X111381000Y-116451000D02*
X109917000Y-116451000D01*
X109917000Y-116451000D02*
X109917000Y-111625000D01*
X120127000Y-108569000D02*
X120127000Y-104789000D01*
X131193000Y-123334400D02*
X129923000Y-123334400D01*
X117517000Y-111625000D02*
X117517000Y-116451000D01*
X114937000Y-116451000D02*
X115953000Y-117213000D01*
X111381000Y-115689000D02*
X112397000Y-116451000D01*
X129922998Y-113123603D02*
X129922998Y-116451003D01*
X115953000Y-117213000D02*
X115953000Y-115689000D01*
X113667000Y-127129000D02*
X117731000Y-127129000D01*
X113667000Y-120769000D02*
X113667000Y-127129000D01*
X124257000Y-131539000D02*
X108177000Y-131539000D01*
X139327000Y-128169000D02*
X139327000Y-110089000D01*
X115953000Y-115689000D02*
X114937000Y-116451000D01*
X129923000Y-120007000D02*
X129923000Y-123334400D01*
X129923000Y-113123600D02*
X131193000Y-113123600D01*
X138457000Y-109219000D02*
X120777000Y-109219000D01*
X120127000Y-104789000D02*
G75*
G03*
X119257000Y-103919000I-870000J0D01*
G01*
X120127000Y-108569000D02*
G75*
G03*
X120777000Y-109219000I650000J0D01*
G01*
X129415001Y-118991000D02*
G75*
G03*
X129414735Y-118229355I507999J381000D01*
G01*
X125777000Y-129039000D02*
G75*
G03*
X125127000Y-129689000I0J-650000D01*
G01*
X139327000Y-110089000D02*
G75*
G03*
X138457000Y-109219000I-870000J0D01*
G01*
X129415203Y-117467266D02*
G75*
G03*
X129922998Y-116451003I507797J381266D01*
G01*
X129415001Y-118229000D02*
G75*
G03*
X129414734Y-117467356I507999J381000D01*
G01*
X138457000Y-129039000D02*
G75*
G03*
X139327000Y-128169000I0J870000D01*
G01*
X108177000Y-103919000D02*
G75*
G03*
X107307000Y-104789000I0J-870000D01*
G01*
X129923000Y-120007000D02*
G75*
G03*
X129415200Y-118990733I0J635000D01*
G01*
X107307000Y-130669000D02*
G75*
G03*
X108177000Y-131539000I870000J0D01*
G01*
X124257000Y-131539000D02*
G75*
G03*
X125127000Y-130669000I0J870000D01*
G01*
X113794000Y-120769000D02*
G75*
G03*
X113794000Y-120769000I-127000J0D01*
G01*
D11*
%TO.C,U9*%
X220195692Y-47346000D02*
X220195692Y-98654000D01*
X198859692Y-75794000D02*
X198859692Y-98654000D01*
X198859692Y-47346000D02*
X198859692Y-70206000D01*
X198859692Y-98654000D02*
X220195692Y-98654000D01*
X198859692Y-47346000D02*
X220195692Y-47346000D01*
X198859692Y-75794000D02*
X198859692Y-70206000D01*
D12*
%TO.C,TP12*%
X211046800Y-101752400D02*
G75*
G03*
X211046800Y-101752400I-1700000J0D01*
G01*
D11*
%TO.C,U12*%
X315351026Y-117936000D02*
X309763026Y-117936000D01*
X338211026Y-117936000D02*
X338211026Y-96600000D01*
X286903026Y-96600000D02*
X338211026Y-96600000D01*
X286903026Y-117936000D02*
X309763026Y-117936000D01*
X286903026Y-117936000D02*
X286903026Y-96600000D01*
X315351026Y-117936000D02*
X338211026Y-117936000D01*
D12*
%TO.C,R7*%
X209200631Y-105130400D02*
X210795369Y-105130400D01*
X209200631Y-109550400D02*
X210795369Y-109550400D01*
%TO.C,C1*%
X151575600Y-124002748D02*
X151575600Y-125425252D01*
X148855600Y-124002748D02*
X148855600Y-125425252D01*
%TO.C,R1*%
X98567864Y-125836000D02*
X97113736Y-125836000D01*
X98567864Y-127656000D02*
X97113736Y-127656000D01*
D11*
%TO.C,U4*%
X315351026Y-145368000D02*
X309763026Y-145368000D01*
X286903026Y-145368000D02*
X309763026Y-145368000D01*
X338211026Y-145368000D02*
X338211026Y-124032000D01*
X286903026Y-124032000D02*
X338211026Y-124032000D01*
X286903026Y-145368000D02*
X286903026Y-124032000D01*
X315351026Y-145368000D02*
X338211026Y-145368000D01*
D12*
%TO.C,TP3*%
X118032000Y-81534000D02*
G75*
G03*
X118032000Y-81534000I-1700000J0D01*
G01*
%TO.C,R5*%
X180101431Y-108584800D02*
X181696169Y-108584800D01*
X180101431Y-113004800D02*
X181696169Y-113004800D01*
%TO.C,TP5*%
X141908000Y-184658000D02*
G75*
G03*
X141908000Y-184658000I-1700000J0D01*
G01*
%TO.C,R2*%
X91444400Y-123713864D02*
X91444400Y-122259736D01*
X93264400Y-123713864D02*
X93264400Y-122259736D01*
D11*
%TO.C,U5*%
X171089026Y-98654000D02*
X192425026Y-98654000D01*
X171089026Y-75794000D02*
X171089026Y-98654000D01*
X192425026Y-47346000D02*
X192425026Y-98654000D01*
X171089026Y-47346000D02*
X192425026Y-47346000D01*
X171089026Y-47346000D02*
X171089026Y-70206000D01*
X171089026Y-75794000D02*
X171089026Y-70206000D01*
D12*
%TO.C,TP16*%
X262608800Y-102108000D02*
G75*
G03*
X262608800Y-102108000I-1700000J0D01*
G01*
%TO.C,R6*%
X356149657Y-69498000D02*
X357744395Y-69498000D01*
X356149657Y-73918000D02*
X357744395Y-73918000D01*
D11*
%TO.C,U20*%
X196389026Y-162426000D02*
X196389026Y-156838000D01*
X217725026Y-133978000D02*
X217725026Y-185286000D01*
X196389026Y-133978000D02*
X196389026Y-156838000D01*
X196389026Y-185286000D02*
X217725026Y-185286000D01*
X196389026Y-162426000D02*
X196389026Y-185286000D01*
X196389026Y-133978000D02*
X217725026Y-133978000D01*
D12*
%TO.C,U10*%
X357515026Y-80070000D02*
X359465026Y-80070000D01*
X357515026Y-85190000D02*
X355565026Y-85190000D01*
X357515026Y-80070000D02*
X354065026Y-80070000D01*
X357515026Y-85190000D02*
X359465026Y-85190000D01*
%TO.C,TP15*%
X197127600Y-193243200D02*
G75*
G03*
X197127600Y-193243200I-1700000J0D01*
G01*
%TO.C,TP1*%
X71042000Y-72390000D02*
G75*
G03*
X71042000Y-72390000I-1700000J0D01*
G01*
D11*
%TO.C,U13*%
X226689026Y-47446000D02*
X226689026Y-70306000D01*
X226689026Y-47446000D02*
X248025026Y-47446000D01*
X248025026Y-47446000D02*
X248025026Y-98754000D01*
X226689026Y-98754000D02*
X248025026Y-98754000D01*
X226689026Y-75894000D02*
X226689026Y-70306000D01*
X226689026Y-75894000D02*
X226689026Y-98754000D01*
D12*
%TO.C,U15*%
X237896400Y-119044400D02*
X235946400Y-119044400D01*
X237896400Y-113924400D02*
X234446400Y-113924400D01*
X237896400Y-113924400D02*
X239846400Y-113924400D01*
X237896400Y-119044400D02*
X239846400Y-119044400D01*
%TO.C,K2*%
X94607000Y-66546000D02*
X93083000Y-66546000D01*
X100728400Y-51306000D02*
X100728400Y-52576000D01*
X93845000Y-71118000D02*
X93845000Y-72582000D01*
X93083000Y-71118000D02*
X94607000Y-71118000D01*
X90517600Y-52576000D02*
X90517600Y-51306000D01*
X108063000Y-75192000D02*
X82183000Y-75192000D01*
X93845000Y-64982000D02*
X93845000Y-66546000D01*
X97401000Y-52576000D02*
X100728400Y-52576000D01*
X106433000Y-44042000D02*
X106433000Y-56722000D01*
X108063000Y-57372000D02*
X107083000Y-57372000D01*
X85963000Y-62372000D02*
X82183000Y-62372000D01*
X93845000Y-72582000D02*
X89019000Y-72582000D01*
X98163000Y-68832000D02*
X104523000Y-68832000D01*
X93083000Y-71118000D02*
X93845000Y-70102000D01*
X104523000Y-68832000D02*
X104523000Y-64768000D01*
X90517603Y-52576002D02*
X93845003Y-52576002D01*
X98163000Y-68832000D02*
X93591000Y-70051200D01*
X108933000Y-58242000D02*
X108933000Y-74322000D01*
X93083000Y-66546000D02*
X93845000Y-67562000D01*
X89019000Y-64982000D02*
X93845000Y-64982000D01*
X86613000Y-44042000D02*
X86613000Y-61722000D01*
X93845000Y-67562000D02*
X94607000Y-66546000D01*
X105563000Y-43172000D02*
X87483000Y-43172000D01*
X81313000Y-63242000D02*
X81313000Y-74322000D01*
X93845000Y-70102000D02*
X94607000Y-71118000D01*
X85963000Y-62372000D02*
G75*
G03*
X86613000Y-61722000I0J650000D01*
G01*
X106433000Y-56722000D02*
G75*
G03*
X107083000Y-57372000I650000J0D01*
G01*
X87483000Y-43172000D02*
G75*
G03*
X86613000Y-44042000I0J-870000D01*
G01*
X106433000Y-44042000D02*
G75*
G03*
X105563000Y-43172000I-870000J0D01*
G01*
X81313000Y-74322000D02*
G75*
G03*
X82183000Y-75192000I870000J0D01*
G01*
X82183000Y-62372000D02*
G75*
G03*
X81313000Y-63242000I0J-870000D01*
G01*
X94861266Y-53083797D02*
G75*
G03*
X93845003Y-52576002I-381266J507797D01*
G01*
X108933000Y-58242000D02*
G75*
G03*
X108063000Y-57372000I-870000J0D01*
G01*
X95623000Y-53083999D02*
G75*
G03*
X94861356Y-53084266I-381000J507999D01*
G01*
X97401000Y-52576000D02*
G75*
G03*
X96384733Y-53083800I-635000J0D01*
G01*
X96385000Y-53083999D02*
G75*
G03*
X95623355Y-53084265I-381000J507999D01*
G01*
X108063000Y-75192000D02*
G75*
G03*
X108933000Y-74322000I0J870000D01*
G01*
X98290000Y-68832000D02*
G75*
G03*
X98290000Y-68832000I-127000J0D01*
G01*
%TO.C,J8*%
X57220800Y-166388000D02*
X57255800Y-166423000D01*
X54912800Y-133599000D02*
X54958800Y-133646000D01*
X54912800Y-128519000D02*
X54958800Y-128566000D01*
X54912800Y-153919000D02*
X54958800Y-153966000D01*
X54912800Y-143759000D02*
X54958800Y-143806000D01*
X60641800Y-178114000D02*
X60641800Y-127194000D01*
X57220800Y-161308000D02*
X57255800Y-161343000D01*
X54912800Y-158999000D02*
X54958800Y-159046000D01*
X57220800Y-130828000D02*
X57255800Y-130863000D01*
X57220800Y-151148000D02*
X57255800Y-151183000D01*
X58581800Y-178114000D02*
X58581800Y-127194000D01*
X57004800Y-161501000D02*
X57050800Y-161548000D01*
X54706800Y-138884000D02*
X54742800Y-138919000D01*
X50720800Y-127194000D02*
X60641800Y-127194000D01*
X57004800Y-156421000D02*
X57050800Y-156468000D01*
X57220800Y-135908000D02*
X57255800Y-135943000D01*
X57220800Y-156228000D02*
X57255800Y-156263000D01*
X54706800Y-154124000D02*
X54742800Y-154159000D01*
X54706800Y-164284000D02*
X54742800Y-164319000D01*
X57004800Y-141181000D02*
X57050800Y-141228000D01*
X54706800Y-133804000D02*
X54742800Y-133839000D01*
X57004800Y-171661000D02*
X57050800Y-171708000D01*
X60081800Y-178114000D02*
X60081800Y-127194000D01*
X57220800Y-171468000D02*
X57255800Y-171503000D01*
X57004800Y-146261000D02*
X57050800Y-146308000D01*
X57004800Y-166581000D02*
X57050800Y-166628000D01*
X54706800Y-143964000D02*
X54742800Y-143999000D01*
X57004800Y-131021000D02*
X57050800Y-131068000D01*
X57004800Y-151341000D02*
X57050800Y-151388000D01*
X54912800Y-138679000D02*
X54958800Y-138726000D01*
X60141800Y-178354000D02*
X60881800Y-178354000D01*
X54912800Y-164079000D02*
X54958800Y-164126000D01*
X54706800Y-128724000D02*
X54742800Y-128759000D01*
X54706800Y-149044000D02*
X54742800Y-149079000D01*
X50720800Y-178114000D02*
X50720800Y-127194000D01*
X57220800Y-146068000D02*
X57255800Y-146103000D01*
X57220800Y-140988000D02*
X57255800Y-141023000D01*
X53680800Y-178114000D02*
X53680800Y-127194000D01*
X54912800Y-148839000D02*
X54958800Y-148886000D01*
X54912800Y-169159000D02*
X54958800Y-169206000D01*
X54706800Y-169364000D02*
X54742800Y-169399000D01*
X54706800Y-159204000D02*
X54742800Y-159239000D01*
X57004800Y-136101000D02*
X57050800Y-136148000D01*
X50720800Y-178114000D02*
X60641800Y-178114000D01*
X60881800Y-178354000D02*
X60881800Y-177854000D01*
X57516800Y-176198000D02*
G75*
G03*
X57662053Y-175485195I-1535001J683999D01*
G01*
X57661800Y-175514000D02*
G75*
G03*
X57516556Y-174830682I-1680000J0D01*
G01*
X56665800Y-173978999D02*
G75*
G03*
X55298758Y-173978573I-684000J-1535001D01*
G01*
X54446800Y-174830000D02*
G75*
G03*
X54446373Y-176197042I1534993J-684001D01*
G01*
X55297800Y-177049000D02*
G75*
G03*
X56664842Y-177049427I684001J1534993D01*
G01*
X57661800Y-134874000D02*
G75*
G03*
X57661800Y-134874000I-1680000J0D01*
G01*
X57661800Y-129794000D02*
G75*
G03*
X57661800Y-129794000I-1680000J0D01*
G01*
X57661800Y-165354000D02*
G75*
G03*
X57661800Y-165354000I-1680000J0D01*
G01*
X57661800Y-160274000D02*
G75*
G03*
X57661800Y-160274000I-1680000J0D01*
G01*
X57661800Y-170434000D02*
G75*
G03*
X57661800Y-170434000I-1680000J0D01*
G01*
X57661800Y-150114000D02*
G75*
G03*
X57661800Y-150114000I-1680000J0D01*
G01*
X57661800Y-145034000D02*
G75*
G03*
X57661800Y-145034000I-1680000J0D01*
G01*
X57661800Y-155194000D02*
G75*
G03*
X57661800Y-155194000I-1680000J0D01*
G01*
X57661800Y-139954000D02*
G75*
G03*
X57661800Y-139954000I-1680000J0D01*
G01*
%TO.C,U7*%
X181212800Y-122244800D02*
X179262800Y-122244800D01*
X181212800Y-117124800D02*
X177762800Y-117124800D01*
X181212800Y-122244800D02*
X183162800Y-122244800D01*
X181212800Y-117124800D02*
X183162800Y-117124800D01*
%TO.C,J1*%
X82062026Y-45461200D02*
X82027026Y-45497200D01*
X73072026Y-51636200D02*
X73572026Y-51636200D01*
X73072026Y-50896200D02*
X73072026Y-51636200D01*
X73312026Y-49336200D02*
X83592026Y-49336200D01*
X83592026Y-41475200D02*
X83592026Y-51396200D01*
X82267026Y-45667200D02*
X82220026Y-45713200D01*
X73312026Y-50836200D02*
X83592026Y-50836200D01*
X73312026Y-41475200D02*
X83592026Y-41475200D01*
X73312026Y-44435200D02*
X83592026Y-44435200D01*
X79958026Y-47975200D02*
X79923026Y-48010200D01*
X79765026Y-47759200D02*
X79718026Y-47805200D01*
X73312026Y-41475200D02*
X73312026Y-51396200D01*
X73312026Y-51396200D02*
X83592026Y-51396200D01*
X76596026Y-45201200D02*
G75*
G03*
X75228984Y-45200773I-684001J-1534993D01*
G01*
X75912026Y-48416200D02*
G75*
G03*
X76595344Y-48270956I0J1680000D01*
G01*
X77447027Y-47420200D02*
G75*
G03*
X77447453Y-46053158I-1535001J684000D01*
G01*
X74377026Y-46052200D02*
G75*
G03*
X74376599Y-47419242I1534993J-684001D01*
G01*
X75228026Y-48271200D02*
G75*
G03*
X75940831Y-48416453I683999J1535001D01*
G01*
X82672026Y-46736200D02*
G75*
G03*
X82672026Y-46736200I-1680000J0D01*
G01*
%TO.C,TP17*%
X228674400Y-150571200D02*
G75*
G03*
X228674400Y-150571200I-1700000J0D01*
G01*
%TO.C,R4*%
X356149657Y-138180000D02*
X357744395Y-138180000D01*
X356149657Y-133760000D02*
X357744395Y-133760000D01*
%TO.C,TP13*%
X348165026Y-94706000D02*
G75*
G03*
X348165026Y-94706000I-1700000J0D01*
G01*
%TO.C,R10*%
X229600569Y-197282000D02*
X228005831Y-197282000D01*
X229600569Y-192862000D02*
X228005831Y-192862000D01*
%TO.C,C2*%
X127110000Y-186228748D02*
X127110000Y-187651252D01*
X124390000Y-186228748D02*
X124390000Y-187651252D01*
%TO.C,J6*%
X344124400Y-40902800D02*
X344124400Y-40282800D01*
X345124400Y-48872800D02*
X345124400Y-40902800D01*
X358744400Y-40902800D02*
X357744400Y-40902800D01*
X356624400Y-57402800D02*
X346244400Y-57402800D01*
X345124400Y-52372800D02*
X345124400Y-54552800D01*
X345124400Y-40902800D02*
X344124400Y-40902800D01*
X354534400Y-57552800D02*
X355334400Y-57552800D01*
X357744400Y-52372800D02*
X357744400Y-54552800D01*
X344124400Y-40282800D02*
X358744400Y-40282800D01*
X357744400Y-40902800D02*
X357744400Y-48872800D01*
X358744400Y-40282800D02*
X358744400Y-40902800D01*
%TO.C,JP3*%
X209050400Y-127496000D02*
X209050400Y-123296000D01*
X208630400Y-129621000D02*
X208630400Y-129116000D01*
X209940400Y-129116000D02*
X209940400Y-127496000D01*
X207880400Y-127496000D02*
X207880400Y-129116000D01*
X208810400Y-127496000D02*
X208810400Y-123296000D01*
X209170400Y-127496000D02*
X209170400Y-123296000D01*
X207940400Y-131556000D02*
X207940400Y-130556000D01*
X212000400Y-127496000D02*
X207880400Y-127496000D01*
X207880400Y-129116000D02*
X212000400Y-129116000D01*
X208930400Y-127496000D02*
X208930400Y-123296000D01*
X212000400Y-129116000D02*
X212000400Y-127496000D01*
X210630400Y-123296000D02*
X211250400Y-123296000D01*
X210630400Y-129673886D02*
X210630400Y-129116000D01*
X209250400Y-129621000D02*
X209250400Y-129116000D01*
X211250400Y-123296000D02*
X211250400Y-127496000D01*
X208630400Y-127496000D02*
X208630400Y-123296000D01*
X211250400Y-129673886D02*
X211250400Y-129116000D01*
X208940400Y-131556000D02*
X207940400Y-131556000D01*
X209250400Y-123296000D02*
X209250400Y-127496000D01*
X208690400Y-127496000D02*
X208690400Y-123296000D01*
X210630400Y-127496000D02*
X210630400Y-123296000D01*
X208630400Y-123296000D02*
X209250400Y-123296000D01*
D11*
%TO.C,U17*%
X275737026Y-47346000D02*
X275737026Y-98654000D01*
X254401026Y-47346000D02*
X275737026Y-47346000D01*
X254401026Y-75794000D02*
X254401026Y-70206000D01*
X254401026Y-47346000D02*
X254401026Y-70206000D01*
X254401026Y-75794000D02*
X254401026Y-98654000D01*
X254401026Y-98654000D02*
X275737026Y-98654000D01*
D12*
%TO.C,U18*%
X229616000Y-179608800D02*
X227666000Y-179608800D01*
X229616000Y-179608800D02*
X231566000Y-179608800D01*
X229616000Y-184728800D02*
X227666000Y-184728800D01*
X229616000Y-184728800D02*
X233066000Y-184728800D01*
%TO.C,R13*%
X146084936Y-137367600D02*
X147539064Y-137367600D01*
X146084936Y-139187600D02*
X147539064Y-139187600D01*
%TO.C,J3*%
X333843026Y-209164000D02*
X333843026Y-206984000D01*
X346463026Y-220634000D02*
X347463026Y-220634000D01*
X334963026Y-204134000D02*
X345343026Y-204134000D01*
X333843026Y-220634000D02*
X333843026Y-212664000D01*
X346463026Y-212664000D02*
X346463026Y-220634000D01*
X346463026Y-209164000D02*
X346463026Y-206984000D01*
X332843026Y-220634000D02*
X333843026Y-220634000D01*
X347463026Y-221254000D02*
X332843026Y-221254000D01*
X332843026Y-221254000D02*
X332843026Y-220634000D01*
X347463026Y-220634000D02*
X347463026Y-221254000D01*
X337053026Y-203984000D02*
X336253026Y-203984000D01*
%TO.C,R8*%
X353415657Y-102366000D02*
X355010395Y-102366000D01*
X353415657Y-97946000D02*
X355010395Y-97946000D01*
%TO.C,U19*%
X266141200Y-113518000D02*
X268091200Y-113518000D01*
X266141200Y-113518000D02*
X262691200Y-113518000D01*
X266141200Y-118638000D02*
X264191200Y-118638000D01*
X266141200Y-118638000D02*
X268091200Y-118638000D01*
%TO.C,R14*%
X239100169Y-152374800D02*
X237505431Y-152374800D01*
X239100169Y-147954800D02*
X237505431Y-147954800D01*
%TO.C,U6*%
X357007026Y-149198000D02*
X355057026Y-149198000D01*
X357007026Y-144078000D02*
X358957026Y-144078000D01*
X357007026Y-144078000D02*
X353557026Y-144078000D01*
X357007026Y-149198000D02*
X358957026Y-149198000D01*
%TO.C,J5*%
X333970000Y-40953600D02*
X333970000Y-48923600D01*
X321350000Y-52423600D02*
X321350000Y-54603600D01*
X330760000Y-57603600D02*
X331560000Y-57603600D01*
X320350000Y-40953600D02*
X320350000Y-40333600D01*
X320350000Y-40333600D02*
X334970000Y-40333600D01*
X321350000Y-48923600D02*
X321350000Y-40953600D01*
X332850000Y-57453600D02*
X322470000Y-57453600D01*
X333970000Y-52423600D02*
X333970000Y-54603600D01*
X334970000Y-40953600D02*
X333970000Y-40953600D01*
X334970000Y-40333600D02*
X334970000Y-40953600D01*
X321350000Y-40953600D02*
X320350000Y-40953600D01*
%TO.C,Q1*%
X100706800Y-123212000D02*
X100706800Y-119612000D01*
X100684484Y-119603555D02*
G75*
G03*
X96406800Y-120632000I-1827684J-1808445D01*
G01*
X96406800Y-122232000D02*
G75*
G03*
X100698541Y-123223875I2450000J820000D01*
G01*
D11*
%TO.C,SW1*%
X120457026Y-45600000D02*
X111857026Y-45600000D01*
X120457026Y-41000000D02*
X118257026Y-41000000D01*
X114157026Y-41000000D02*
X111857026Y-41000000D01*
D12*
%TO.C,TP18*%
X349324400Y-172008800D02*
G75*
G03*
X349324400Y-172008800I-1700000J0D01*
G01*
%TO.C,JP4*%
X277254400Y-155160800D02*
X277254400Y-156780800D01*
X278004400Y-160980800D02*
X278004400Y-156780800D01*
X280564400Y-156780800D02*
X280564400Y-160980800D01*
X280004400Y-154655800D02*
X280004400Y-155160800D01*
X278004400Y-154602914D02*
X278004400Y-155160800D01*
X281374400Y-155160800D02*
X277254400Y-155160800D01*
X280624400Y-160980800D02*
X280004400Y-160980800D01*
X280204400Y-156780800D02*
X280204400Y-160980800D01*
X280444400Y-156780800D02*
X280444400Y-160980800D01*
X277254400Y-156780800D02*
X281374400Y-156780800D01*
X281374400Y-156780800D02*
X281374400Y-155160800D01*
X280624400Y-154655800D02*
X280624400Y-155160800D01*
X280084400Y-156780800D02*
X280084400Y-160980800D01*
X278624400Y-154602914D02*
X278624400Y-155160800D01*
X278624400Y-156780800D02*
X278624400Y-160980800D01*
X280314400Y-152720800D02*
X281314400Y-152720800D01*
X278624400Y-160980800D02*
X278004400Y-160980800D01*
X280624400Y-156780800D02*
X280624400Y-160980800D01*
X280004400Y-160980800D02*
X280004400Y-156780800D01*
X281314400Y-152720800D02*
X281314400Y-153720800D01*
X280324400Y-156780800D02*
X280324400Y-160980800D01*
X279314400Y-155160800D02*
X279314400Y-156780800D01*
%TO.C,R12*%
X145830936Y-133329000D02*
X147285064Y-133329000D01*
X145830936Y-135149000D02*
X147285064Y-135149000D01*
%TO.C,U11*%
X210058000Y-113924400D02*
X212008000Y-113924400D01*
X210058000Y-119044400D02*
X208108000Y-119044400D01*
X210058000Y-119044400D02*
X212008000Y-119044400D01*
X210058000Y-113924400D02*
X206608000Y-113924400D01*
%TO.C,U24*%
X144827026Y-44630000D02*
X144827026Y-41970000D01*
X144827026Y-41970000D02*
X162667026Y-41970000D01*
X162667026Y-44630000D02*
X162667026Y-41970000D01*
X142227026Y-43300000D02*
X142227026Y-41970000D01*
X142227026Y-41970000D02*
X143557026Y-41970000D01*
X144827026Y-44630000D02*
X162667026Y-44630000D01*
%TO.C,J12*%
X196251526Y-216921000D02*
X221771526Y-216921000D01*
X215366526Y-211192000D02*
X215319526Y-211238000D01*
X210081526Y-210986000D02*
X210046526Y-211022000D01*
X196251526Y-216361000D02*
X221771526Y-216361000D01*
X196251526Y-214861000D02*
X221771526Y-214861000D01*
X202897526Y-213500000D02*
X202862526Y-213535000D01*
X215161526Y-210986000D02*
X215126526Y-211022000D01*
X217944526Y-213284000D02*
X217897526Y-213330000D01*
X218137526Y-213500000D02*
X218102526Y-213535000D01*
X196011526Y-216421000D02*
X196011526Y-217161000D01*
X212864526Y-213284000D02*
X212817526Y-213330000D01*
X220446526Y-211192000D02*
X220399526Y-211238000D01*
X207784526Y-213284000D02*
X207737526Y-213330000D01*
X213057526Y-213500000D02*
X213022526Y-213535000D01*
X196011526Y-217161000D02*
X196511526Y-217161000D01*
X210286526Y-211192000D02*
X210239526Y-211238000D01*
X221771526Y-207000000D02*
X221771526Y-216921000D01*
X205206526Y-211192000D02*
X205159526Y-211238000D01*
X196251526Y-207000000D02*
X221771526Y-207000000D01*
X207977526Y-213500000D02*
X207942526Y-213535000D01*
X202704526Y-213284000D02*
X202657526Y-213330000D01*
X196251526Y-209960000D02*
X221771526Y-209960000D01*
X196251526Y-207000000D02*
X196251526Y-216921000D01*
X205001526Y-210986000D02*
X204966526Y-211022000D01*
X220241526Y-210986000D02*
X220206526Y-211022000D01*
X197316526Y-211577000D02*
G75*
G03*
X197316099Y-212944042I1534993J-684001D01*
G01*
X200386527Y-212945000D02*
G75*
G03*
X200386953Y-211577958I-1535001J684000D01*
G01*
X198167526Y-213796000D02*
G75*
G03*
X198880331Y-213941253I683999J1535001D01*
G01*
X198851526Y-213941000D02*
G75*
G03*
X199534844Y-213795756I0J1680000D01*
G01*
X199535526Y-210726000D02*
G75*
G03*
X198168484Y-210725573I-684001J-1534993D01*
G01*
X220851526Y-212261000D02*
G75*
G03*
X220851526Y-212261000I-1680000J0D01*
G01*
X210691526Y-212261000D02*
G75*
G03*
X210691526Y-212261000I-1680000J0D01*
G01*
X215771526Y-212261000D02*
G75*
G03*
X215771526Y-212261000I-1680000J0D01*
G01*
X205611526Y-212261000D02*
G75*
G03*
X205611526Y-212261000I-1680000J0D01*
G01*
D13*
%TO.C,U2*%
X70433026Y-180186000D02*
X70433026Y-152286000D01*
X124833026Y-180186000D02*
X70433026Y-180186000D01*
X70433026Y-152286000D02*
X124833026Y-152286000D01*
X124833026Y-152286000D02*
X124833026Y-180186000D01*
D12*
%TO.C,R9*%
X237302231Y-109855200D02*
X238896969Y-109855200D01*
X237302231Y-105435200D02*
X238896969Y-105435200D01*
%TO.C,U21*%
X239064800Y-137038400D02*
X241014800Y-137038400D01*
X239064800Y-137038400D02*
X237114800Y-137038400D01*
X239064800Y-142158400D02*
X242514800Y-142158400D01*
X239064800Y-142158400D02*
X237114800Y-142158400D01*
D11*
%TO.C,U22*%
X315351026Y-172800000D02*
X338211026Y-172800000D01*
X286903026Y-172800000D02*
X309763026Y-172800000D01*
X286903026Y-172800000D02*
X286903026Y-151464000D01*
X338211026Y-172800000D02*
X338211026Y-151464000D01*
X315351026Y-172800000D02*
X309763026Y-172800000D01*
X286903026Y-151464000D02*
X338211026Y-151464000D01*
D12*
%TO.C,TP10*%
X179906400Y-103682800D02*
G75*
G03*
X179906400Y-103682800I-1700000J0D01*
G01*
%TO.C,J4*%
X283043026Y-209164000D02*
X283043026Y-206984000D01*
X296663026Y-220634000D02*
X296663026Y-221254000D01*
X295663026Y-212664000D02*
X295663026Y-220634000D01*
X284163026Y-204134000D02*
X294543026Y-204134000D01*
X283043026Y-220634000D02*
X283043026Y-212664000D01*
X296663026Y-221254000D02*
X282043026Y-221254000D01*
X282043026Y-220634000D02*
X283043026Y-220634000D01*
X295663026Y-220634000D02*
X296663026Y-220634000D01*
X286253026Y-203984000D02*
X285453026Y-203984000D01*
X282043026Y-221254000D02*
X282043026Y-220634000D01*
X295663026Y-209164000D02*
X295663026Y-206984000D01*
%TO.C,R11*%
X265902631Y-110160000D02*
X267497369Y-110160000D01*
X265902631Y-105740000D02*
X267497369Y-105740000D01*
%TO.C,J11*%
X114254526Y-210412000D02*
X114289526Y-210377000D01*
X105540526Y-216912000D02*
X105540526Y-206991000D01*
X127390526Y-212926000D02*
X127425526Y-212890000D01*
X111945526Y-212720000D02*
X111992526Y-212674000D01*
X144734526Y-210412000D02*
X144769526Y-210377000D01*
X114447526Y-210628000D02*
X114494526Y-210582000D01*
X117230526Y-212926000D02*
X117265526Y-212890000D01*
X137550526Y-212926000D02*
X137585526Y-212890000D01*
X112150526Y-212926000D02*
X112185526Y-212890000D01*
X156460526Y-216912000D02*
X105540526Y-216912000D01*
X156460526Y-216912000D02*
X156460526Y-206991000D01*
X124607526Y-210628000D02*
X124654526Y-210582000D01*
X147505526Y-212720000D02*
X147552526Y-212674000D01*
X132470526Y-212926000D02*
X132505526Y-212890000D01*
X149814526Y-210412000D02*
X149849526Y-210377000D01*
X147710526Y-212926000D02*
X147745526Y-212890000D01*
X119527526Y-210628000D02*
X119574526Y-210582000D01*
X139654526Y-210412000D02*
X139689526Y-210377000D01*
X122105526Y-212720000D02*
X122152526Y-212674000D01*
X144927526Y-210628000D02*
X144974526Y-210582000D01*
X109174526Y-210412000D02*
X109209526Y-210377000D01*
X134767526Y-210628000D02*
X134814526Y-210582000D01*
X156700526Y-207491000D02*
X156700526Y-206751000D01*
X122310526Y-212926000D02*
X122345526Y-212890000D01*
X129687526Y-210628000D02*
X129734526Y-210582000D01*
X124414526Y-210412000D02*
X124449526Y-210377000D01*
X132265526Y-212720000D02*
X132312526Y-212674000D01*
X119334526Y-210412000D02*
X119369526Y-210377000D01*
X134574526Y-210412000D02*
X134609526Y-210377000D01*
X107070526Y-212926000D02*
X107105526Y-212890000D01*
X137345526Y-212720000D02*
X137392526Y-212674000D01*
X156460526Y-207551000D02*
X105540526Y-207551000D01*
X109367526Y-210628000D02*
X109414526Y-210582000D01*
X156460526Y-213952000D02*
X105540526Y-213952000D01*
X156700526Y-206751000D02*
X156200526Y-206751000D01*
X139847526Y-210628000D02*
X139894526Y-210582000D01*
X127185526Y-212720000D02*
X127232526Y-212674000D01*
X156460526Y-206991000D02*
X105540526Y-206991000D01*
X117025526Y-212720000D02*
X117072526Y-212674000D01*
X106865526Y-212720000D02*
X106912526Y-212674000D01*
X150007526Y-210628000D02*
X150054526Y-210582000D01*
X129494526Y-210412000D02*
X129529526Y-210377000D01*
X142630526Y-212926000D02*
X142665526Y-212890000D01*
X142425526Y-212720000D02*
X142472526Y-212674000D01*
X156460526Y-209051000D02*
X105540526Y-209051000D01*
X153176526Y-213186000D02*
G75*
G03*
X154543568Y-213186427I684001J1534993D01*
G01*
X153860526Y-209971000D02*
G75*
G03*
X153177208Y-210116244I0J-1680000D01*
G01*
X152325525Y-210967000D02*
G75*
G03*
X152325099Y-212334042I1535001J-684000D01*
G01*
X154544526Y-210116000D02*
G75*
G03*
X153831721Y-209970747I-683999J-1535001D01*
G01*
X155395526Y-212335000D02*
G75*
G03*
X155395953Y-210967958I-1534993J684001D01*
G01*
X135220526Y-211651000D02*
G75*
G03*
X135220526Y-211651000I-1680000J0D01*
G01*
X114900526Y-211651000D02*
G75*
G03*
X114900526Y-211651000I-1680000J0D01*
G01*
X130140526Y-211651000D02*
G75*
G03*
X130140526Y-211651000I-1680000J0D01*
G01*
X125060526Y-211651000D02*
G75*
G03*
X125060526Y-211651000I-1680000J0D01*
G01*
X109820526Y-211651000D02*
G75*
G03*
X109820526Y-211651000I-1680000J0D01*
G01*
X145380526Y-211651000D02*
G75*
G03*
X145380526Y-211651000I-1680000J0D01*
G01*
X150460526Y-211651000D02*
G75*
G03*
X150460526Y-211651000I-1680000J0D01*
G01*
X119980526Y-211651000D02*
G75*
G03*
X119980526Y-211651000I-1680000J0D01*
G01*
X140300526Y-211651000D02*
G75*
G03*
X140300526Y-211651000I-1680000J0D01*
G01*
D11*
%TO.C,U16*%
X165401026Y-162426000D02*
X165401026Y-185286000D01*
X165401026Y-133978000D02*
X165401026Y-156838000D01*
X165401026Y-162426000D02*
X165401026Y-156838000D01*
X165401026Y-133978000D02*
X186737026Y-133978000D01*
X165401026Y-185286000D02*
X186737026Y-185286000D01*
X186737026Y-133978000D02*
X186737026Y-185286000D01*
D13*
%TO.C,JP1*%
X126886000Y-105816400D02*
X129146000Y-105816400D01*
X126886000Y-103276400D02*
X129146000Y-103276400D01*
D11*
%TO.C,U1*%
X56689026Y-98672000D02*
X79549026Y-98672000D01*
X56689026Y-98672000D02*
X56689026Y-77336000D01*
X85137026Y-98672000D02*
X79549026Y-98672000D01*
X56689026Y-77336000D02*
X107997026Y-77336000D01*
X107997026Y-98672000D02*
X107997026Y-77336000D01*
X85137026Y-98672000D02*
X107997026Y-98672000D01*
D12*
%TO.C,TP14*%
X238682000Y-101803200D02*
G75*
G03*
X238682000Y-101803200I-1700000J0D01*
G01*
%TO.C,TP4*%
X82573600Y-118465600D02*
G75*
G03*
X82573600Y-118465600I-1700000J0D01*
G01*
%TO.C,TP11*%
X361668800Y-77165200D02*
G75*
G03*
X361668800Y-77165200I-1700000J0D01*
G01*
%TO.C,J7*%
X228667026Y-216756000D02*
X229067026Y-216756000D01*
X228907026Y-207396000D02*
X269027026Y-207396000D01*
X228907026Y-216516000D02*
X269027026Y-216516000D01*
X248121026Y-210068000D02*
X247726026Y-210464000D01*
X243121026Y-210068000D02*
X242726026Y-210464000D01*
X253121026Y-210068000D02*
X252726026Y-210464000D01*
X242855026Y-209802000D02*
X242475026Y-210182000D01*
X235209026Y-212448000D02*
X234814026Y-212844000D01*
X269027026Y-207396000D02*
X269027026Y-216516000D01*
X245209026Y-212448000D02*
X244814026Y-212844000D01*
X263121026Y-210068000D02*
X262726026Y-210464000D01*
X238121026Y-210068000D02*
X237726026Y-210464000D01*
X262855026Y-209802000D02*
X262475026Y-210182000D01*
X258121026Y-210068000D02*
X257726026Y-210464000D01*
X228667026Y-216116000D02*
X228667026Y-216756000D01*
X237855026Y-209802000D02*
X237475026Y-210182000D01*
X255209026Y-212448000D02*
X254814026Y-212844000D01*
X265460026Y-212730000D02*
X265080026Y-213110000D01*
X245460026Y-212730000D02*
X245080026Y-213110000D01*
X228907026Y-216056000D02*
X269027026Y-216056000D01*
X260460026Y-212730000D02*
X260080026Y-213110000D01*
X235460026Y-212730000D02*
X235080026Y-213110000D01*
X260209026Y-212448000D02*
X259814026Y-212844000D01*
X250209026Y-212448000D02*
X249814026Y-212844000D01*
X265209026Y-212448000D02*
X264814026Y-212844000D01*
X232855026Y-209802000D02*
X232748026Y-209909000D01*
X252855026Y-209802000D02*
X252475026Y-210182000D01*
X257855026Y-209802000D02*
X257475026Y-210182000D01*
X247855026Y-209802000D02*
X247475026Y-210182000D01*
X267855026Y-209802000D02*
X267475026Y-210182000D01*
X228907026Y-207396000D02*
X228907026Y-216516000D01*
X233121026Y-210068000D02*
X233014026Y-210175000D01*
X229919026Y-212737000D02*
X229813026Y-212844000D01*
X268121026Y-210068000D02*
X267726026Y-210464000D01*
X255460026Y-212730000D02*
X255080026Y-213110000D01*
X240460026Y-212730000D02*
X240080026Y-213110000D01*
X250460026Y-212730000D02*
X250080026Y-213110000D01*
X230185026Y-213003000D02*
X230079026Y-213110000D01*
X228907026Y-214956000D02*
X269027026Y-214956000D01*
X240209026Y-212448000D02*
X239814026Y-212844000D01*
X243647026Y-211456000D02*
G75*
G03*
X243647026Y-211456000I-2180000J0D01*
G01*
X263647026Y-211456000D02*
G75*
G03*
X263647026Y-211456000I-2180000J0D01*
G01*
X238647026Y-211456000D02*
G75*
G03*
X238647026Y-211456000I-2180000J0D01*
G01*
X253647026Y-211456000D02*
G75*
G03*
X253647026Y-211456000I-2180000J0D01*
G01*
X248647026Y-211456000D02*
G75*
G03*
X248647026Y-211456000I-2180000J0D01*
G01*
X233647026Y-211456000D02*
G75*
G03*
X233647026Y-211456000I-2180000J0D01*
G01*
X268647026Y-211456000D02*
G75*
G03*
X268647026Y-211456000I-2180000J0D01*
G01*
X258647026Y-211456000D02*
G75*
G03*
X258647026Y-211456000I-2180000J0D01*
G01*
%TO.C,U23*%
X341457026Y-188940000D02*
X343407026Y-188940000D01*
X341457026Y-194060000D02*
X343407026Y-194060000D01*
X341457026Y-194060000D02*
X339507026Y-194060000D01*
X341457026Y-188940000D02*
X338007026Y-188940000D01*
%TD*%
D14*
%TO.C,U8*%
X289697026Y-72126000D03*
X289697026Y-87874000D03*
X335417026Y-72126000D03*
X335417026Y-87874000D03*
%TD*%
%TO.C,U9*%
X217401692Y-50140000D03*
X201653692Y-50140000D03*
X217401692Y-95860000D03*
X201653692Y-95860000D03*
%TD*%
%TO.C,U12*%
X289697026Y-99394000D03*
X289697026Y-115142000D03*
X335417026Y-99394000D03*
X335417026Y-115142000D03*
%TD*%
%TO.C,U4*%
X289697026Y-126826000D03*
X289697026Y-142574000D03*
X335417026Y-126826000D03*
X335417026Y-142574000D03*
%TD*%
%TO.C,U5*%
X189631026Y-50140000D03*
X173883026Y-50140000D03*
X189631026Y-95860000D03*
X173883026Y-95860000D03*
%TD*%
%TO.C,U20*%
X214931026Y-136772000D03*
X199183026Y-136772000D03*
X214931026Y-182492000D03*
X199183026Y-182492000D03*
%TD*%
%TO.C,U13*%
X245231026Y-50240000D03*
X229483026Y-50240000D03*
X245231026Y-95960000D03*
X229483026Y-95960000D03*
%TD*%
%TO.C,U17*%
X272943026Y-50140000D03*
X257195026Y-50140000D03*
X272943026Y-95860000D03*
X257195026Y-95860000D03*
%TD*%
%TO.C,U22*%
X289697026Y-154258000D03*
X289697026Y-170006000D03*
X335417026Y-154258000D03*
X335417026Y-170006000D03*
%TD*%
%TO.C,U16*%
X183943026Y-136772000D03*
X168195026Y-136772000D03*
X183943026Y-182492000D03*
X168195026Y-182492000D03*
%TD*%
%TO.C,U1*%
X59483026Y-80130000D03*
X59483026Y-95878000D03*
X105203026Y-80130000D03*
X105203026Y-95878000D03*
%TD*%
%LPC*%
D15*
%TO.C,H9*%
X60756800Y-116332000D03*
%TD*%
%TO.C,H8*%
X151384000Y-163372800D03*
%TD*%
%TO.C,H5*%
X299923200Y-51460400D03*
%TD*%
%TO.C,H4*%
X324256400Y-194665600D03*
%TD*%
%TO.C,H3*%
X276199600Y-139344400D03*
%TD*%
D16*
%TO.C,D2*%
X90170000Y-110744000D03*
D17*
X100330000Y-110744000D03*
%TD*%
D18*
%TO.C,U14*%
X352754026Y-106125000D03*
X352754026Y-107395000D03*
X352754026Y-108665000D03*
X352754026Y-109935000D03*
X357704026Y-109935000D03*
X357704026Y-108665000D03*
X357704026Y-107395000D03*
X357704026Y-106125000D03*
%TD*%
D19*
%TO.C,J10*%
X98907600Y-212089800D03*
D20*
X93827600Y-212089800D03*
X88747600Y-212089800D03*
X83667600Y-212089800D03*
X78587600Y-212089800D03*
X73507600Y-212089800D03*
X68427600Y-212089800D03*
X63347600Y-212089800D03*
X58267600Y-212089800D03*
X53187600Y-212089800D03*
%TD*%
D21*
%TO.C,TP6*%
X272999200Y-169773600D03*
%TD*%
D22*
%TO.C,JP5*%
X128778000Y-65232100D03*
X128778000Y-70607100D03*
%TD*%
D16*
%TO.C,D1*%
X75946000Y-65405000D03*
D17*
X75946000Y-55245000D03*
%TD*%
D23*
%TO.C,J2*%
X59436000Y-63369000D03*
D24*
X59436000Y-57869000D03*
D21*
X59436000Y-50569000D03*
%TD*%
D14*
%TO.C,U8*%
X289697026Y-72126000D03*
X289697026Y-87874000D03*
X335417026Y-72126000D03*
X335417026Y-87874000D03*
%TD*%
D19*
%TO.C,J9*%
X166196026Y-212261000D03*
D20*
X171276026Y-212261000D03*
X176356026Y-212261000D03*
X181436026Y-212261000D03*
X186516026Y-212261000D03*
%TD*%
D25*
%TO.C,R15*%
X350520000Y-191982400D03*
X350520000Y-186782400D03*
%TD*%
D21*
%TO.C,TP9*%
X353009200Y-128981200D03*
%TD*%
D26*
%TO.C,R3*%
X273904400Y-188772800D03*
X279104400Y-188772800D03*
%TD*%
D18*
%TO.C,U3*%
X264936200Y-179806600D03*
X264936200Y-181076600D03*
X264936200Y-182346600D03*
X264936200Y-183616600D03*
X269886200Y-183616600D03*
X269886200Y-182346600D03*
X269886200Y-181076600D03*
X269886200Y-179806600D03*
%TD*%
D21*
%TO.C,K1*%
X120057000Y-127129000D03*
X109917000Y-109329000D03*
X117517000Y-109329000D03*
D27*
X132717000Y-123329000D03*
D28*
X132717000Y-113129000D03*
%TD*%
D14*
%TO.C,U9*%
X217401692Y-50140000D03*
X201653692Y-50140000D03*
X217401692Y-95860000D03*
X201653692Y-95860000D03*
%TD*%
D21*
%TO.C,TP12*%
X209346800Y-101752400D03*
%TD*%
D14*
%TO.C,U12*%
X289697026Y-99394000D03*
X289697026Y-115142000D03*
X335417026Y-99394000D03*
X335417026Y-115142000D03*
%TD*%
D26*
%TO.C,R7*%
X207398000Y-107340400D03*
X212598000Y-107340400D03*
%TD*%
D29*
%TO.C,C1*%
X150215600Y-123151500D03*
X150215600Y-126276500D03*
%TD*%
D30*
%TO.C,R1*%
X99390800Y-126746000D03*
X96290800Y-126746000D03*
%TD*%
D14*
%TO.C,U4*%
X289697026Y-126826000D03*
X289697026Y-142574000D03*
X335417026Y-126826000D03*
X335417026Y-142574000D03*
%TD*%
D21*
%TO.C,TP3*%
X116332000Y-81534000D03*
%TD*%
D26*
%TO.C,R5*%
X178298800Y-110794800D03*
X183498800Y-110794800D03*
%TD*%
D21*
%TO.C,TP5*%
X140208000Y-184658000D03*
%TD*%
D31*
%TO.C,R2*%
X92354400Y-124536800D03*
X92354400Y-121436800D03*
%TD*%
D14*
%TO.C,U5*%
X189631026Y-50140000D03*
X173883026Y-50140000D03*
X189631026Y-95860000D03*
X173883026Y-95860000D03*
%TD*%
D21*
%TO.C,TP16*%
X260908800Y-102108000D03*
%TD*%
D26*
%TO.C,R6*%
X354347026Y-71708000D03*
X359547026Y-71708000D03*
%TD*%
D14*
%TO.C,U20*%
X214931026Y-136772000D03*
X199183026Y-136772000D03*
X214931026Y-182492000D03*
X199183026Y-182492000D03*
%TD*%
D18*
%TO.C,U10*%
X355040026Y-80725000D03*
X355040026Y-81995000D03*
X355040026Y-83265000D03*
X355040026Y-84535000D03*
X359990026Y-84535000D03*
X359990026Y-83265000D03*
X359990026Y-81995000D03*
X359990026Y-80725000D03*
%TD*%
D21*
%TO.C,TP15*%
X195427600Y-193243200D03*
%TD*%
%TO.C,TP1*%
X69342000Y-72390000D03*
%TD*%
D14*
%TO.C,U13*%
X245231026Y-50240000D03*
X229483026Y-50240000D03*
X245231026Y-95960000D03*
X229483026Y-95960000D03*
%TD*%
D18*
%TO.C,U15*%
X235421400Y-114579400D03*
X235421400Y-115849400D03*
X235421400Y-117119400D03*
X235421400Y-118389400D03*
X240371400Y-118389400D03*
X240371400Y-117119400D03*
X240371400Y-115849400D03*
X240371400Y-114579400D03*
%TD*%
D21*
%TO.C,K2*%
X104523000Y-62442000D03*
X86723000Y-72582000D03*
X86723000Y-64982000D03*
D32*
X100723000Y-49782000D03*
D28*
X90523000Y-49782000D03*
%TD*%
D19*
%TO.C,J8*%
X55981800Y-175514000D03*
D20*
X55981800Y-170434000D03*
X55981800Y-165354000D03*
X55981800Y-160274000D03*
X55981800Y-155194000D03*
X55981800Y-150114000D03*
X55981800Y-145034000D03*
X55981800Y-139954000D03*
X55981800Y-134874000D03*
X55981800Y-129794000D03*
%TD*%
D18*
%TO.C,U7*%
X178737800Y-117779800D03*
X178737800Y-119049800D03*
X178737800Y-120319800D03*
X178737800Y-121589800D03*
X183687800Y-121589800D03*
X183687800Y-120319800D03*
X183687800Y-119049800D03*
X183687800Y-117779800D03*
%TD*%
D19*
%TO.C,J1*%
X75912026Y-46736200D03*
D20*
X80992026Y-46736200D03*
%TD*%
D21*
%TO.C,TP17*%
X226974400Y-150571200D03*
%TD*%
D26*
%TO.C,R4*%
X354347026Y-135970000D03*
X359547026Y-135970000D03*
%TD*%
D21*
%TO.C,TP13*%
X346465026Y-94706000D03*
%TD*%
D33*
%TO.C,R10*%
X231403200Y-195072000D03*
X226203200Y-195072000D03*
%TD*%
D29*
%TO.C,C2*%
X125750000Y-185377500D03*
X125750000Y-188502500D03*
%TD*%
D34*
%TO.C,J6*%
X354934400Y-55952800D03*
D35*
X352434400Y-55952800D03*
X350434400Y-55952800D03*
X347934400Y-55952800D03*
X354934400Y-53332800D03*
X352434400Y-53332800D03*
X350434400Y-53332800D03*
X347934400Y-53332800D03*
D21*
X358004400Y-56302800D03*
X344864400Y-56302800D03*
X344864400Y-50622800D03*
X358004400Y-50622800D03*
%TD*%
D36*
%TO.C,JP3*%
X208940400Y-130556000D03*
D37*
X210940400Y-130556000D03*
%TD*%
D14*
%TO.C,U17*%
X272943026Y-50140000D03*
X257195026Y-50140000D03*
X272943026Y-95860000D03*
X257195026Y-95860000D03*
%TD*%
D38*
%TO.C,U18*%
X232091000Y-184073800D03*
X232091000Y-182803800D03*
X232091000Y-181533800D03*
X232091000Y-180263800D03*
X227141000Y-180263800D03*
X227141000Y-181533800D03*
X227141000Y-182803800D03*
X227141000Y-184073800D03*
%TD*%
D39*
%TO.C,R13*%
X145262000Y-138277600D03*
X148362000Y-138277600D03*
%TD*%
D34*
%TO.C,J3*%
X336653026Y-205584000D03*
D35*
X339153026Y-205584000D03*
X341153026Y-205584000D03*
X343653026Y-205584000D03*
X336653026Y-208204000D03*
X339153026Y-208204000D03*
X341153026Y-208204000D03*
X343653026Y-208204000D03*
D21*
X333583026Y-210914000D03*
X346723026Y-210914000D03*
X333583026Y-205234000D03*
X346723026Y-205234000D03*
%TD*%
D26*
%TO.C,R8*%
X351613026Y-100156000D03*
X356813026Y-100156000D03*
%TD*%
D18*
%TO.C,U19*%
X263666200Y-114173000D03*
X263666200Y-115443000D03*
X263666200Y-116713000D03*
X263666200Y-117983000D03*
X268616200Y-117983000D03*
X268616200Y-116713000D03*
X268616200Y-115443000D03*
X268616200Y-114173000D03*
%TD*%
D33*
%TO.C,R14*%
X240902800Y-150164800D03*
X235702800Y-150164800D03*
%TD*%
D18*
%TO.C,U6*%
X354532026Y-144733000D03*
X354532026Y-146003000D03*
X354532026Y-147273000D03*
X354532026Y-148543000D03*
X359482026Y-148543000D03*
X359482026Y-147273000D03*
X359482026Y-146003000D03*
X359482026Y-144733000D03*
%TD*%
D34*
%TO.C,J5*%
X331160000Y-56003600D03*
D35*
X328660000Y-56003600D03*
X326660000Y-56003600D03*
X324160000Y-56003600D03*
X331160000Y-53383600D03*
X328660000Y-53383600D03*
X326660000Y-53383600D03*
X324160000Y-53383600D03*
D21*
X334230000Y-50673600D03*
X321090000Y-50673600D03*
X321090000Y-56353600D03*
X334230000Y-56353600D03*
%TD*%
D40*
%TO.C,Q1*%
X99256800Y-122682000D03*
D41*
X97186800Y-121412000D03*
X99256800Y-120142000D03*
%TD*%
D42*
%TO.C,SW1*%
X114157026Y-43300000D03*
X116157026Y-43300000D03*
D43*
X118157026Y-43300000D03*
D44*
X112057026Y-43300000D03*
X120257026Y-43300000D03*
%TD*%
D21*
%TO.C,TP18*%
X347624400Y-172008800D03*
%TD*%
D36*
%TO.C,JP4*%
X280314400Y-153720800D03*
D37*
X278314400Y-153720800D03*
%TD*%
D39*
%TO.C,R12*%
X145008000Y-134239000D03*
X148108000Y-134239000D03*
%TD*%
D18*
%TO.C,U11*%
X207583000Y-114579400D03*
X207583000Y-115849400D03*
X207583000Y-117119400D03*
X207583000Y-118389400D03*
X212533000Y-118389400D03*
X212533000Y-117119400D03*
X212533000Y-115849400D03*
X212533000Y-114579400D03*
%TD*%
D45*
%TO.C,U24*%
X143557026Y-43300000D03*
D46*
X146097026Y-43300000D03*
X148637026Y-43300000D03*
X151177026Y-43300000D03*
X153717026Y-43300000D03*
X156257026Y-43300000D03*
X158797026Y-43300000D03*
X161337026Y-43300000D03*
%TD*%
D19*
%TO.C,J12*%
X198851526Y-212261000D03*
D20*
X203931526Y-212261000D03*
X209011526Y-212261000D03*
X214091526Y-212261000D03*
X219171526Y-212261000D03*
%TD*%
D47*
%TO.C,U2*%
X77823026Y-178936000D03*
D48*
X80363026Y-178936000D03*
X82903026Y-178936000D03*
X85443026Y-178936000D03*
X87983026Y-178936000D03*
X90523026Y-178936000D03*
X93063026Y-178936000D03*
X95603026Y-178936000D03*
X98143026Y-178936000D03*
X100683026Y-178936000D03*
X103223026Y-178936000D03*
X105763026Y-178936000D03*
X108303026Y-178936000D03*
X110843026Y-178936000D03*
X113383026Y-178936000D03*
X115923026Y-178936000D03*
X118463026Y-178936000D03*
X121003026Y-178936000D03*
X123543026Y-178936000D03*
X77823026Y-153536000D03*
X80363026Y-153536000D03*
X82903026Y-153536000D03*
X85443026Y-153536000D03*
X87983026Y-153536000D03*
X90523026Y-153536000D03*
X93063026Y-153536000D03*
X95603026Y-153536000D03*
X98143026Y-153536000D03*
X100683026Y-153536000D03*
X103223026Y-153536000D03*
X105763026Y-153536000D03*
X108303026Y-153536000D03*
X110843026Y-153536000D03*
X113383026Y-153536000D03*
X115923026Y-153536000D03*
X118463026Y-153536000D03*
X121003026Y-153536000D03*
X123543026Y-153536000D03*
%TD*%
D26*
%TO.C,R9*%
X235499600Y-107645200D03*
X240699600Y-107645200D03*
%TD*%
D38*
%TO.C,U21*%
X241539800Y-141503400D03*
X241539800Y-140233400D03*
X241539800Y-138963400D03*
X241539800Y-137693400D03*
X236589800Y-137693400D03*
X236589800Y-138963400D03*
X236589800Y-140233400D03*
X236589800Y-141503400D03*
%TD*%
D14*
%TO.C,U22*%
X289697026Y-154258000D03*
X289697026Y-170006000D03*
X335417026Y-154258000D03*
X335417026Y-170006000D03*
%TD*%
D21*
%TO.C,TP10*%
X178206400Y-103682800D03*
%TD*%
D34*
%TO.C,J4*%
X285853026Y-205584000D03*
D35*
X288353026Y-205584000D03*
X290353026Y-205584000D03*
X292853026Y-205584000D03*
X285853026Y-208204000D03*
X288353026Y-208204000D03*
X290353026Y-208204000D03*
X292853026Y-208204000D03*
D21*
X282783026Y-210914000D03*
X295923026Y-210914000D03*
X282783026Y-205234000D03*
X295923026Y-205234000D03*
%TD*%
D26*
%TO.C,R11*%
X264100000Y-107950000D03*
X269300000Y-107950000D03*
%TD*%
D19*
%TO.C,J11*%
X153860526Y-211651000D03*
D20*
X148780526Y-211651000D03*
X143700526Y-211651000D03*
X138620526Y-211651000D03*
X133540526Y-211651000D03*
X128460526Y-211651000D03*
X123380526Y-211651000D03*
X118300526Y-211651000D03*
X113220526Y-211651000D03*
X108140526Y-211651000D03*
%TD*%
D14*
%TO.C,U16*%
X183943026Y-136772000D03*
X168195026Y-136772000D03*
X183943026Y-182492000D03*
X168195026Y-182492000D03*
%TD*%
D49*
%TO.C,JP1*%
X125328500Y-104546400D03*
X130703500Y-104546400D03*
%TD*%
D14*
%TO.C,U1*%
X59483026Y-80130000D03*
X59483026Y-95878000D03*
X105203026Y-80130000D03*
X105203026Y-95878000D03*
%TD*%
D21*
%TO.C,TP14*%
X236982000Y-101803200D03*
%TD*%
%TO.C,TP4*%
X80873600Y-118465600D03*
%TD*%
%TO.C,TP11*%
X359968800Y-77165200D03*
%TD*%
D19*
%TO.C,J7*%
X231467026Y-211456000D03*
D20*
X236467026Y-211456000D03*
X241467026Y-211456000D03*
X246467026Y-211456000D03*
X251467026Y-211456000D03*
X256467026Y-211456000D03*
X261467026Y-211456000D03*
X266467026Y-211456000D03*
%TD*%
D18*
%TO.C,U23*%
X338982026Y-189595000D03*
X338982026Y-190865000D03*
X338982026Y-192135000D03*
X338982026Y-193405000D03*
X343932026Y-193405000D03*
X343932026Y-192135000D03*
X343932026Y-190865000D03*
X343932026Y-189595000D03*
%TD*%
M02*
