M48
; DRILL file {KiCad 6.0.2+dfsg-1} date Tue 02 Aug 2022 12:10:36 PM EDT
; FORMAT={-:-/ absolute / metric / decimal}
; #@! TF.CreationDate,2022-08-02T12:10:36-04:00
; #@! TF.GenerationSoftware,Kicad,Pcbnew,6.0.2+dfsg-1
; #@! TF.FileFunction,Plated,1,4,PTH
FMAT,2
METRIC
; #@! TA.AperFunction,Plated,PTH,ViaDrill
T1C0.400
; #@! TA.AperFunction,Plated,PTH,ComponentDrill
T2C0.800
; #@! TA.AperFunction,Plated,PTH,ComponentDrill
T3C0.900
; #@! TA.AperFunction,Plated,PTH,ComponentDrill
T4C0.920
; #@! TA.AperFunction,Plated,PTH,ComponentDrill
T5C1.000
; #@! TA.AperFunction,Plated,PTH,ComponentDrill
T6C1.040
; #@! TA.AperFunction,Plated,PTH,ComponentDrill
T7C1.200
; #@! TA.AperFunction,Plated,PTH,ComponentDrill
T8C1.300
; #@! TA.AperFunction,Plated,PTH,ComponentDrill
T9C1.500
; #@! TA.AperFunction,Plated,PTH,ComponentDrill
T10C1.800
; #@! TA.AperFunction,Plated,PTH,ComponentDrill
T11C2.000
; #@! TA.AperFunction,Plated,PTH,ComponentDrill
T12C2.300
; #@! TA.AperFunction,Plated,PTH,ComponentDrill
T13C5.000
%
G90
G05
T1
X125.815Y-327.723
X129.0Y-317.0
X130.725Y-327.723
X142.0Y-252.0
X146.675Y-257.675
X149.0Y-252.0
X149.0Y-253.0
X159.75Y-387.25
X171.0Y-337.0
X185.0Y-342.0
X186.875Y-292.125
X187.083Y-302.083
X189.0Y-346.0
X190.25Y-302.0
X216.0Y-395.0
X219.0Y-388.0
X221.75Y-396.1
X222.0Y-317.0
X222.0Y-321.0
X223.475Y-319.525
X224.25Y-388.25
X229.789Y-318.255
X232.25Y-319.5
X235.095Y-320.795
X238.75Y-315.5
X249.0Y-318.0
X249.25Y-315.5
X249.5Y-314.25
X249.8Y-310.7
X254.75Y-316.75
X254.935Y-315.509
X255.25Y-318.25
X274.525Y-321.779
X277.25Y-358.5
X278.0Y-327.5
X279.475Y-324.319
X279.75Y-323.0
X282.0Y-358.5
X282.25Y-357.25
X282.25Y-361.0
X287.0Y-325.75
X291.0Y-341.9
X292.75Y-320.25
X298.9Y-324.2
X302.5Y-362.75
X303.0Y-321.25
X303.0Y-372.0
X303.0Y-375.75
X307.75Y-373.25
X308.0Y-374.5
X347.373Y-375.827
X355.535Y-375.533
X369.708Y-384.706
X369.958Y-381.956
X369.958Y-385.956
X374.258Y-257.856
X378.4Y-390.1
X385.856Y-298.156
X387.208Y-305.456
X387.208Y-307.956
X387.289Y-304.125
X387.458Y-281.206
X388.458Y-269.706
X388.59Y-333.97
X388.708Y-343.956
X388.708Y-345.206
X388.958Y-342.706
X388.958Y-346.456
X389.208Y-279.956
X389.808Y-282.806
X391.208Y-306.706
X392.083Y-308.081
X393.708Y-345.206
X393.958Y-281.206
X393.958Y-346.706
X394.208Y-282.706
X396.4Y-280.0
T2
X118.058Y-314.468
X118.058Y-316.468
X157.936Y-249.952
X157.936Y-251.952
X166.0Y-266.0
X166.0Y-268.0
X188.0Y-266.208
X190.0Y-266.208
X241.0Y-322.9
X243.0Y-322.9
X309.7Y-347.2
X309.7Y-349.2
T3
X148.4Y-241.3
X150.4Y-241.3
X152.4Y-241.3
T4
X320.096Y-403.584
X320.096Y-406.204
X322.596Y-403.584
X322.596Y-406.204
X324.596Y-403.584
X324.596Y-406.204
X327.096Y-403.584
X327.096Y-406.204
X360.4Y-252.06
X360.4Y-254.68
X362.9Y-252.06
X362.9Y-254.68
X364.9Y-252.06
X364.9Y-254.68
X367.4Y-252.06
X367.4Y-254.68
X370.896Y-403.584
X370.896Y-406.204
X373.396Y-403.584
X373.396Y-406.204
X375.396Y-403.584
X375.396Y-406.204
X377.896Y-403.584
X377.896Y-406.204
X382.0Y-251.478
X382.0Y-254.098
X384.5Y-251.478
X384.5Y-254.098
X386.5Y-251.478
X386.5Y-254.098
X389.0Y-251.478
X389.0Y-254.098
T5
X177.8Y-241.3
X180.34Y-241.3
X182.88Y-241.3
X185.42Y-241.3
X187.96Y-241.3
X190.5Y-241.3
X193.04Y-241.3
X195.58Y-241.3
T6
X112.066Y-351.536
X112.066Y-376.936
X114.606Y-351.536
X114.606Y-376.936
X117.146Y-351.536
X117.146Y-376.936
X119.686Y-351.536
X119.686Y-376.936
X122.226Y-351.536
X122.226Y-376.936
X124.766Y-351.536
X124.766Y-376.936
X127.306Y-351.536
X127.306Y-376.936
X129.846Y-351.536
X129.846Y-376.936
X132.386Y-351.536
X132.386Y-376.936
X134.926Y-351.536
X134.926Y-376.936
X137.466Y-351.536
X137.466Y-376.936
X140.006Y-351.536
X140.006Y-376.936
X142.546Y-351.536
X142.546Y-376.936
X145.086Y-351.536
X145.086Y-376.936
X147.626Y-351.536
X147.626Y-376.936
X150.166Y-351.536
X150.166Y-376.936
X152.706Y-351.536
X152.706Y-376.936
X155.246Y-351.536
X155.246Y-376.936
X157.786Y-351.536
X157.786Y-376.936
T7
X93.726Y-278.13
X93.726Y-293.878
X139.446Y-278.13
X139.446Y-293.878
X202.438Y-334.772
X202.438Y-380.492
X208.126Y-248.14
X208.126Y-293.86
X218.186Y-334.772
X218.186Y-380.492
X223.874Y-248.14
X223.874Y-293.86
X233.426Y-334.772
X233.426Y-380.492
X235.897Y-248.14
X235.897Y-293.86
X249.174Y-334.772
X249.174Y-380.492
X251.645Y-248.14
X251.645Y-293.86
X263.726Y-248.24
X263.726Y-293.96
X279.474Y-248.24
X279.474Y-293.96
X291.438Y-248.14
X291.438Y-293.86
X307.186Y-248.14
X307.186Y-293.86
X323.94Y-270.126
X323.94Y-285.874
X323.94Y-297.394
X323.94Y-313.142
X323.94Y-324.826
X323.94Y-340.574
X323.94Y-352.258
X323.94Y-368.006
X369.66Y-270.126
X369.66Y-285.874
X369.66Y-297.394
X369.66Y-313.142
X369.66Y-324.826
X369.66Y-340.574
X369.66Y-352.258
X369.66Y-368.006
T8
X84.328Y-409.651
X86.705Y-327.94
X86.705Y-333.02
X86.705Y-338.1
X86.705Y-343.18
X86.705Y-348.26
X86.705Y-353.34
X86.705Y-358.42
X86.705Y-363.5
X86.705Y-368.58
X86.705Y-373.66
X89.408Y-409.651
X94.488Y-409.651
X99.568Y-409.651
X104.648Y-409.651
X109.728Y-409.651
X110.155Y-244.005
X114.808Y-409.651
X115.235Y-244.005
X119.888Y-409.651
X124.968Y-409.651
X130.048Y-409.651
X142.383Y-409.651
X147.463Y-409.651
X152.543Y-409.651
X157.624Y-409.651
X162.703Y-409.651
X167.784Y-409.651
X172.863Y-409.651
X177.944Y-409.651
X183.023Y-409.651
X188.103Y-409.651
X200.439Y-410.261
X205.519Y-410.261
X210.599Y-410.261
X215.679Y-410.261
X220.759Y-410.261
X233.094Y-410.261
X238.174Y-410.261
X243.254Y-410.261
X248.334Y-410.261
X253.414Y-410.261
X265.71Y-409.456
X270.71Y-409.456
X275.71Y-409.456
X280.71Y-409.456
X285.71Y-409.456
X290.71Y-409.456
X295.71Y-409.456
X300.71Y-409.456
T9
X146.3Y-241.3
X154.5Y-241.3
T10
X93.8Y-254.175
X93.8Y-259.675
T11
X110.0Y-316.0
X117.602Y-254.0
X125.0Y-322.0
X150.622Y-303.022
X156.0Y-287.0
X170.0Y-274.0
X202.0Y-390.0
X226.0Y-303.0
X264.0Y-312.0
X270.0Y-379.0
X287.0Y-317.0
X312.0Y-367.75
X316.0Y-316.0
X379.708Y-329.706
X380.708Y-292.706
X392.708Y-372.706
X393.5Y-265.0
T12
X317.026Y-403.234
X317.026Y-408.914
X330.166Y-403.234
X330.166Y-408.914
X357.33Y-249.35
X357.33Y-255.03
X367.826Y-403.234
X367.826Y-408.914
X370.47Y-249.35
X370.47Y-255.03
X378.93Y-248.768
X378.93Y-254.448
X380.966Y-403.234
X380.966Y-408.914
X392.07Y-248.768
X392.07Y-254.448
T13
X86.7Y-315.7
X130.8Y-246.3
X168.2Y-391.0
X190.8Y-315.1
X303.6Y-334.5
X343.3Y-244.6
X345.6Y-387.3
T0
M30
