%FSLAX45Y45*%
G04 Gerber Fmt 4.5, Leading zero omitted, Abs format (unit mm)*
G04 Created by KiCad (PCBNEW 6.0.2+dfsg-1) date 2022-08-02 12:10:53*
%MOMM*%
%LPD*%
G01*
G04 APERTURE LIST*
%TA.AperFunction,Profile*%
%ADD10C,0.100000*%
%TD*%
%ADD11C,0.200000*%
%ADD12C,0.300000*%
G04 APERTURE END LIST*
D10*
X8055000Y-42050000D02*
X39725000Y-42050000D01*
X39725000Y-42050000D02*
X39725000Y-23750000D01*
X39725000Y-23750000D02*
X8055000Y-23750000D01*
X8055000Y-23750000D02*
X8055000Y-42050000D01*
D11*
D12*
X9230000Y-24537500D02*
X9530000Y-24837500D01*
X9530000Y-24537500D02*
X9230000Y-24837500D01*
D11*
X8307619Y-42365476D02*
X8307619Y-42165476D01*
X8355238Y-42165476D01*
X8383809Y-42175000D01*
X8402857Y-42194048D01*
X8412381Y-42213095D01*
X8421905Y-42251190D01*
X8421905Y-42279762D01*
X8412381Y-42317857D01*
X8402857Y-42336905D01*
X8383809Y-42355952D01*
X8355238Y-42365476D01*
X8307619Y-42365476D01*
X8507619Y-42365476D02*
X8507619Y-42232143D01*
X8507619Y-42270238D02*
X8517143Y-42251190D01*
X8526667Y-42241667D01*
X8545714Y-42232143D01*
X8564762Y-42232143D01*
X8631429Y-42365476D02*
X8631429Y-42232143D01*
X8631429Y-42165476D02*
X8621905Y-42175000D01*
X8631429Y-42184524D01*
X8640952Y-42175000D01*
X8631429Y-42165476D01*
X8631429Y-42184524D01*
X8755238Y-42365476D02*
X8736190Y-42355952D01*
X8726667Y-42336905D01*
X8726667Y-42165476D01*
X8860000Y-42365476D02*
X8840952Y-42355952D01*
X8831429Y-42336905D01*
X8831429Y-42165476D01*
X9088571Y-42365476D02*
X9088571Y-42165476D01*
X9155238Y-42308333D01*
X9221905Y-42165476D01*
X9221905Y-42365476D01*
X9402857Y-42365476D02*
X9402857Y-42260714D01*
X9393333Y-42241667D01*
X9374286Y-42232143D01*
X9336190Y-42232143D01*
X9317143Y-42241667D01*
X9402857Y-42355952D02*
X9383810Y-42365476D01*
X9336190Y-42365476D01*
X9317143Y-42355952D01*
X9307619Y-42336905D01*
X9307619Y-42317857D01*
X9317143Y-42298810D01*
X9336190Y-42289286D01*
X9383810Y-42289286D01*
X9402857Y-42279762D01*
X9498095Y-42232143D02*
X9498095Y-42432143D01*
X9498095Y-42241667D02*
X9517143Y-42232143D01*
X9555238Y-42232143D01*
X9574286Y-42241667D01*
X9583810Y-42251190D01*
X9593333Y-42270238D01*
X9593333Y-42327381D01*
X9583810Y-42346429D01*
X9574286Y-42355952D01*
X9555238Y-42365476D01*
X9517143Y-42365476D01*
X9498095Y-42355952D01*
X9679048Y-42346429D02*
X9688571Y-42355952D01*
X9679048Y-42365476D01*
X9669524Y-42355952D01*
X9679048Y-42346429D01*
X9679048Y-42365476D01*
X9679048Y-42241667D02*
X9688571Y-42251190D01*
X9679048Y-42260714D01*
X9669524Y-42251190D01*
X9679048Y-42241667D01*
X9679048Y-42260714D01*
X7850000Y-42595000D02*
X8050000Y-42795000D01*
X8050000Y-42595000D02*
X7850000Y-42795000D01*
X8288571Y-42585476D02*
X8412381Y-42585476D01*
X8345714Y-42661667D01*
X8374286Y-42661667D01*
X8393333Y-42671190D01*
X8402857Y-42680714D01*
X8412381Y-42699762D01*
X8412381Y-42747381D01*
X8402857Y-42766429D01*
X8393333Y-42775952D01*
X8374286Y-42785476D01*
X8317143Y-42785476D01*
X8298095Y-42775952D01*
X8288571Y-42766429D01*
X8498095Y-42766429D02*
X8507619Y-42775952D01*
X8498095Y-42785476D01*
X8488571Y-42775952D01*
X8498095Y-42766429D01*
X8498095Y-42785476D01*
X8631429Y-42585476D02*
X8650476Y-42585476D01*
X8669524Y-42595000D01*
X8679048Y-42604524D01*
X8688571Y-42623571D01*
X8698095Y-42661667D01*
X8698095Y-42709286D01*
X8688571Y-42747381D01*
X8679048Y-42766429D01*
X8669524Y-42775952D01*
X8650476Y-42785476D01*
X8631429Y-42785476D01*
X8612381Y-42775952D01*
X8602857Y-42766429D01*
X8593333Y-42747381D01*
X8583810Y-42709286D01*
X8583810Y-42661667D01*
X8593333Y-42623571D01*
X8602857Y-42604524D01*
X8612381Y-42595000D01*
X8631429Y-42585476D01*
X8821905Y-42585476D02*
X8840952Y-42585476D01*
X8860000Y-42595000D01*
X8869524Y-42604524D01*
X8879048Y-42623571D01*
X8888571Y-42661667D01*
X8888571Y-42709286D01*
X8879048Y-42747381D01*
X8869524Y-42766429D01*
X8860000Y-42775952D01*
X8840952Y-42785476D01*
X8821905Y-42785476D01*
X8802857Y-42775952D01*
X8793333Y-42766429D01*
X8783810Y-42747381D01*
X8774286Y-42709286D01*
X8774286Y-42661667D01*
X8783810Y-42623571D01*
X8793333Y-42604524D01*
X8802857Y-42595000D01*
X8821905Y-42585476D01*
X9012381Y-42585476D02*
X9031429Y-42585476D01*
X9050476Y-42595000D01*
X9060000Y-42604524D01*
X9069524Y-42623571D01*
X9079048Y-42661667D01*
X9079048Y-42709286D01*
X9069524Y-42747381D01*
X9060000Y-42766429D01*
X9050476Y-42775952D01*
X9031429Y-42785476D01*
X9012381Y-42785476D01*
X8993333Y-42775952D01*
X8983810Y-42766429D01*
X8974286Y-42747381D01*
X8964762Y-42709286D01*
X8964762Y-42661667D01*
X8974286Y-42623571D01*
X8983810Y-42604524D01*
X8993333Y-42595000D01*
X9012381Y-42585476D01*
X9164762Y-42785476D02*
X9164762Y-42652143D01*
X9164762Y-42671190D02*
X9174286Y-42661667D01*
X9193333Y-42652143D01*
X9221905Y-42652143D01*
X9240952Y-42661667D01*
X9250476Y-42680714D01*
X9250476Y-42785476D01*
X9250476Y-42680714D02*
X9260000Y-42661667D01*
X9279048Y-42652143D01*
X9307619Y-42652143D01*
X9326667Y-42661667D01*
X9336190Y-42680714D01*
X9336190Y-42785476D01*
X9431429Y-42785476D02*
X9431429Y-42652143D01*
X9431429Y-42671190D02*
X9440952Y-42661667D01*
X9460000Y-42652143D01*
X9488571Y-42652143D01*
X9507619Y-42661667D01*
X9517143Y-42680714D01*
X9517143Y-42785476D01*
X9517143Y-42680714D02*
X9526667Y-42661667D01*
X9545714Y-42652143D01*
X9574286Y-42652143D01*
X9593333Y-42661667D01*
X9602857Y-42680714D01*
X9602857Y-42785476D01*
X9993333Y-42575952D02*
X9821905Y-42833095D01*
X10250476Y-42585476D02*
X10269524Y-42585476D01*
X10288571Y-42595000D01*
X10298095Y-42604524D01*
X10307619Y-42623571D01*
X10317143Y-42661667D01*
X10317143Y-42709286D01*
X10307619Y-42747381D01*
X10298095Y-42766429D01*
X10288571Y-42775952D01*
X10269524Y-42785476D01*
X10250476Y-42785476D01*
X10231429Y-42775952D01*
X10221905Y-42766429D01*
X10212381Y-42747381D01*
X10202857Y-42709286D01*
X10202857Y-42661667D01*
X10212381Y-42623571D01*
X10221905Y-42604524D01*
X10231429Y-42595000D01*
X10250476Y-42585476D01*
X10402857Y-42766429D02*
X10412381Y-42775952D01*
X10402857Y-42785476D01*
X10393333Y-42775952D01*
X10402857Y-42766429D01*
X10402857Y-42785476D01*
X10602857Y-42785476D02*
X10488571Y-42785476D01*
X10545714Y-42785476D02*
X10545714Y-42585476D01*
X10526667Y-42614048D01*
X10507619Y-42633095D01*
X10488571Y-42642619D01*
X10793333Y-42785476D02*
X10679048Y-42785476D01*
X10736190Y-42785476D02*
X10736190Y-42585476D01*
X10717143Y-42614048D01*
X10698095Y-42633095D01*
X10679048Y-42642619D01*
X10907619Y-42671190D02*
X10888571Y-42661667D01*
X10879048Y-42652143D01*
X10869524Y-42633095D01*
X10869524Y-42623571D01*
X10879048Y-42604524D01*
X10888571Y-42595000D01*
X10907619Y-42585476D01*
X10945714Y-42585476D01*
X10964762Y-42595000D01*
X10974286Y-42604524D01*
X10983810Y-42623571D01*
X10983810Y-42633095D01*
X10974286Y-42652143D01*
X10964762Y-42661667D01*
X10945714Y-42671190D01*
X10907619Y-42671190D01*
X10888571Y-42680714D01*
X10879048Y-42690238D01*
X10869524Y-42709286D01*
X10869524Y-42747381D01*
X10879048Y-42766429D01*
X10888571Y-42775952D01*
X10907619Y-42785476D01*
X10945714Y-42785476D01*
X10964762Y-42775952D01*
X10974286Y-42766429D01*
X10983810Y-42747381D01*
X10983810Y-42709286D01*
X10974286Y-42690238D01*
X10964762Y-42680714D01*
X10945714Y-42671190D01*
X11174286Y-42785476D02*
X11060000Y-42785476D01*
X11117143Y-42785476D02*
X11117143Y-42585476D01*
X11098095Y-42614048D01*
X11079048Y-42633095D01*
X11060000Y-42642619D01*
X11250476Y-42585476D02*
X11250476Y-42623571D01*
X11326667Y-42585476D02*
X11326667Y-42623571D01*
X11621905Y-42861667D02*
X11612381Y-42852143D01*
X11593333Y-42823571D01*
X11583809Y-42804524D01*
X11574286Y-42775952D01*
X11564762Y-42728333D01*
X11564762Y-42690238D01*
X11574286Y-42642619D01*
X11583809Y-42614048D01*
X11593333Y-42595000D01*
X11612381Y-42566429D01*
X11621905Y-42556905D01*
X11802857Y-42785476D02*
X11688571Y-42785476D01*
X11745714Y-42785476D02*
X11745714Y-42585476D01*
X11726667Y-42614048D01*
X11707619Y-42633095D01*
X11688571Y-42642619D01*
X12040952Y-42785476D02*
X12040952Y-42585476D01*
X12126667Y-42785476D02*
X12126667Y-42680714D01*
X12117143Y-42661667D01*
X12098095Y-42652143D01*
X12069524Y-42652143D01*
X12050476Y-42661667D01*
X12040952Y-42671190D01*
X12250476Y-42785476D02*
X12231428Y-42775952D01*
X12221905Y-42766429D01*
X12212381Y-42747381D01*
X12212381Y-42690238D01*
X12221905Y-42671190D01*
X12231428Y-42661667D01*
X12250476Y-42652143D01*
X12279048Y-42652143D01*
X12298095Y-42661667D01*
X12307619Y-42671190D01*
X12317143Y-42690238D01*
X12317143Y-42747381D01*
X12307619Y-42766429D01*
X12298095Y-42775952D01*
X12279048Y-42785476D01*
X12250476Y-42785476D01*
X12431428Y-42785476D02*
X12412381Y-42775952D01*
X12402857Y-42756905D01*
X12402857Y-42585476D01*
X12583809Y-42775952D02*
X12564762Y-42785476D01*
X12526667Y-42785476D01*
X12507619Y-42775952D01*
X12498095Y-42756905D01*
X12498095Y-42680714D01*
X12507619Y-42661667D01*
X12526667Y-42652143D01*
X12564762Y-42652143D01*
X12583809Y-42661667D01*
X12593333Y-42680714D01*
X12593333Y-42699762D01*
X12498095Y-42718810D01*
X12660000Y-42861667D02*
X12669524Y-42852143D01*
X12688571Y-42823571D01*
X12698095Y-42804524D01*
X12707619Y-42775952D01*
X12717143Y-42728333D01*
X12717143Y-42690238D01*
X12707619Y-42642619D01*
X12698095Y-42614048D01*
X12688571Y-42595000D01*
X12669524Y-42566429D01*
X12660000Y-42556905D01*
X13021905Y-42861667D02*
X13012381Y-42852143D01*
X12993333Y-42823571D01*
X12983809Y-42804524D01*
X12974286Y-42775952D01*
X12964762Y-42728333D01*
X12964762Y-42690238D01*
X12974286Y-42642619D01*
X12983809Y-42614048D01*
X12993333Y-42595000D01*
X13012381Y-42566429D01*
X13021905Y-42556905D01*
X13098095Y-42652143D02*
X13098095Y-42785476D01*
X13098095Y-42671190D02*
X13107619Y-42661667D01*
X13126667Y-42652143D01*
X13155238Y-42652143D01*
X13174286Y-42661667D01*
X13183809Y-42680714D01*
X13183809Y-42785476D01*
X13307619Y-42785476D02*
X13288571Y-42775952D01*
X13279048Y-42766429D01*
X13269524Y-42747381D01*
X13269524Y-42690238D01*
X13279048Y-42671190D01*
X13288571Y-42661667D01*
X13307619Y-42652143D01*
X13336190Y-42652143D01*
X13355238Y-42661667D01*
X13364762Y-42671190D01*
X13374286Y-42690238D01*
X13374286Y-42747381D01*
X13364762Y-42766429D01*
X13355238Y-42775952D01*
X13336190Y-42785476D01*
X13307619Y-42785476D01*
X13431428Y-42652143D02*
X13507619Y-42652143D01*
X13460000Y-42585476D02*
X13460000Y-42756905D01*
X13469524Y-42775952D01*
X13488571Y-42785476D01*
X13507619Y-42785476D01*
X13726667Y-42652143D02*
X13726667Y-42852143D01*
X13726667Y-42661667D02*
X13745714Y-42652143D01*
X13783809Y-42652143D01*
X13802857Y-42661667D01*
X13812381Y-42671190D01*
X13821905Y-42690238D01*
X13821905Y-42747381D01*
X13812381Y-42766429D01*
X13802857Y-42775952D01*
X13783809Y-42785476D01*
X13745714Y-42785476D01*
X13726667Y-42775952D01*
X13936190Y-42785476D02*
X13917143Y-42775952D01*
X13907619Y-42756905D01*
X13907619Y-42585476D01*
X14098095Y-42785476D02*
X14098095Y-42680714D01*
X14088571Y-42661667D01*
X14069524Y-42652143D01*
X14031428Y-42652143D01*
X14012381Y-42661667D01*
X14098095Y-42775952D02*
X14079048Y-42785476D01*
X14031428Y-42785476D01*
X14012381Y-42775952D01*
X14002857Y-42756905D01*
X14002857Y-42737857D01*
X14012381Y-42718810D01*
X14031428Y-42709286D01*
X14079048Y-42709286D01*
X14098095Y-42699762D01*
X14164762Y-42652143D02*
X14240952Y-42652143D01*
X14193333Y-42585476D02*
X14193333Y-42756905D01*
X14202857Y-42775952D01*
X14221905Y-42785476D01*
X14240952Y-42785476D01*
X14383809Y-42775952D02*
X14364762Y-42785476D01*
X14326667Y-42785476D01*
X14307619Y-42775952D01*
X14298095Y-42756905D01*
X14298095Y-42680714D01*
X14307619Y-42661667D01*
X14326667Y-42652143D01*
X14364762Y-42652143D01*
X14383809Y-42661667D01*
X14393333Y-42680714D01*
X14393333Y-42699762D01*
X14298095Y-42718810D01*
X14564762Y-42785476D02*
X14564762Y-42585476D01*
X14564762Y-42775952D02*
X14545714Y-42785476D01*
X14507619Y-42785476D01*
X14488571Y-42775952D01*
X14479048Y-42766429D01*
X14469524Y-42747381D01*
X14469524Y-42690238D01*
X14479048Y-42671190D01*
X14488571Y-42661667D01*
X14507619Y-42652143D01*
X14545714Y-42652143D01*
X14564762Y-42661667D01*
X14640952Y-42861667D02*
X14650476Y-42852143D01*
X14669524Y-42823571D01*
X14679048Y-42804524D01*
X14688571Y-42775952D01*
X14698095Y-42728333D01*
X14698095Y-42690238D01*
X14688571Y-42642619D01*
X14679048Y-42614048D01*
X14669524Y-42595000D01*
X14650476Y-42566429D01*
X14640952Y-42556905D01*
M02*
