%FSLAX45Y45*%
G04 Gerber Fmt 4.5, Leading zero omitted, Abs format (unit mm)*
G04 Created by KiCad (PCBNEW 6.0.2+dfsg-1) date 2022-08-24 13:43:22*
%MOMM*%
%LPD*%
G01*
G04 APERTURE LIST*
%TA.AperFunction,Profile*%
%ADD10C,0.100000*%
%TD*%
%ADD11C,0.200000*%
%ADD12C,0.300000*%
G04 APERTURE END LIST*
D10*
X4630703Y-22250000D02*
X36300703Y-22250000D01*
X36300703Y-22250000D02*
X36300703Y-3950000D01*
X36300703Y-3950000D02*
X4630703Y-3950000D01*
X4630703Y-3950000D02*
X4630703Y-22250000D01*
D11*
D12*
X5805703Y-4737500D02*
X6105703Y-5037500D01*
X6105703Y-4737500D02*
X5805703Y-5037500D01*
D11*
X4883322Y-22565476D02*
X4883322Y-22365476D01*
X4930941Y-22365476D01*
X4959512Y-22375000D01*
X4978560Y-22394048D01*
X4988084Y-22413095D01*
X4997607Y-22451190D01*
X4997607Y-22479762D01*
X4988084Y-22517857D01*
X4978560Y-22536905D01*
X4959512Y-22555952D01*
X4930941Y-22565476D01*
X4883322Y-22565476D01*
X5083322Y-22565476D02*
X5083322Y-22432143D01*
X5083322Y-22470238D02*
X5092845Y-22451190D01*
X5102369Y-22441667D01*
X5121417Y-22432143D01*
X5140465Y-22432143D01*
X5207131Y-22565476D02*
X5207131Y-22432143D01*
X5207131Y-22365476D02*
X5197607Y-22375000D01*
X5207131Y-22384524D01*
X5216655Y-22375000D01*
X5207131Y-22365476D01*
X5207131Y-22384524D01*
X5330941Y-22565476D02*
X5311893Y-22555952D01*
X5302369Y-22536905D01*
X5302369Y-22365476D01*
X5435703Y-22565476D02*
X5416655Y-22555952D01*
X5407131Y-22536905D01*
X5407131Y-22365476D01*
X5664274Y-22565476D02*
X5664274Y-22365476D01*
X5730941Y-22508333D01*
X5797607Y-22365476D01*
X5797607Y-22565476D01*
X5978560Y-22565476D02*
X5978560Y-22460714D01*
X5969036Y-22441667D01*
X5949988Y-22432143D01*
X5911893Y-22432143D01*
X5892845Y-22441667D01*
X5978560Y-22555952D02*
X5959512Y-22565476D01*
X5911893Y-22565476D01*
X5892845Y-22555952D01*
X5883322Y-22536905D01*
X5883322Y-22517857D01*
X5892845Y-22498809D01*
X5911893Y-22489286D01*
X5959512Y-22489286D01*
X5978560Y-22479762D01*
X6073798Y-22432143D02*
X6073798Y-22632143D01*
X6073798Y-22441667D02*
X6092845Y-22432143D01*
X6130941Y-22432143D01*
X6149988Y-22441667D01*
X6159512Y-22451190D01*
X6169036Y-22470238D01*
X6169036Y-22527381D01*
X6159512Y-22546428D01*
X6149988Y-22555952D01*
X6130941Y-22565476D01*
X6092845Y-22565476D01*
X6073798Y-22555952D01*
X6254750Y-22546428D02*
X6264274Y-22555952D01*
X6254750Y-22565476D01*
X6245226Y-22555952D01*
X6254750Y-22546428D01*
X6254750Y-22565476D01*
X6254750Y-22441667D02*
X6264274Y-22451190D01*
X6254750Y-22460714D01*
X6245226Y-22451190D01*
X6254750Y-22441667D01*
X6254750Y-22460714D01*
X4425703Y-22795000D02*
X4625703Y-22995000D01*
X4625703Y-22795000D02*
X4425703Y-22995000D01*
X4864274Y-22785476D02*
X4988084Y-22785476D01*
X4921417Y-22861667D01*
X4949988Y-22861667D01*
X4969036Y-22871190D01*
X4978560Y-22880714D01*
X4988084Y-22899762D01*
X4988084Y-22947381D01*
X4978560Y-22966428D01*
X4969036Y-22975952D01*
X4949988Y-22985476D01*
X4892845Y-22985476D01*
X4873798Y-22975952D01*
X4864274Y-22966428D01*
X5073798Y-22966428D02*
X5083322Y-22975952D01*
X5073798Y-22985476D01*
X5064274Y-22975952D01*
X5073798Y-22966428D01*
X5073798Y-22985476D01*
X5207131Y-22785476D02*
X5226179Y-22785476D01*
X5245226Y-22795000D01*
X5254750Y-22804524D01*
X5264274Y-22823571D01*
X5273798Y-22861667D01*
X5273798Y-22909286D01*
X5264274Y-22947381D01*
X5254750Y-22966428D01*
X5245226Y-22975952D01*
X5226179Y-22985476D01*
X5207131Y-22985476D01*
X5188084Y-22975952D01*
X5178560Y-22966428D01*
X5169036Y-22947381D01*
X5159512Y-22909286D01*
X5159512Y-22861667D01*
X5169036Y-22823571D01*
X5178560Y-22804524D01*
X5188084Y-22795000D01*
X5207131Y-22785476D01*
X5397607Y-22785476D02*
X5416655Y-22785476D01*
X5435703Y-22795000D01*
X5445226Y-22804524D01*
X5454750Y-22823571D01*
X5464274Y-22861667D01*
X5464274Y-22909286D01*
X5454750Y-22947381D01*
X5445226Y-22966428D01*
X5435703Y-22975952D01*
X5416655Y-22985476D01*
X5397607Y-22985476D01*
X5378560Y-22975952D01*
X5369036Y-22966428D01*
X5359512Y-22947381D01*
X5349988Y-22909286D01*
X5349988Y-22861667D01*
X5359512Y-22823571D01*
X5369036Y-22804524D01*
X5378560Y-22795000D01*
X5397607Y-22785476D01*
X5588084Y-22785476D02*
X5607131Y-22785476D01*
X5626179Y-22795000D01*
X5635703Y-22804524D01*
X5645226Y-22823571D01*
X5654750Y-22861667D01*
X5654750Y-22909286D01*
X5645226Y-22947381D01*
X5635703Y-22966428D01*
X5626179Y-22975952D01*
X5607131Y-22985476D01*
X5588084Y-22985476D01*
X5569036Y-22975952D01*
X5559512Y-22966428D01*
X5549988Y-22947381D01*
X5540465Y-22909286D01*
X5540465Y-22861667D01*
X5549988Y-22823571D01*
X5559512Y-22804524D01*
X5569036Y-22795000D01*
X5588084Y-22785476D01*
X5740464Y-22985476D02*
X5740464Y-22852143D01*
X5740464Y-22871190D02*
X5749988Y-22861667D01*
X5769036Y-22852143D01*
X5797607Y-22852143D01*
X5816655Y-22861667D01*
X5826179Y-22880714D01*
X5826179Y-22985476D01*
X5826179Y-22880714D02*
X5835703Y-22861667D01*
X5854750Y-22852143D01*
X5883322Y-22852143D01*
X5902369Y-22861667D01*
X5911893Y-22880714D01*
X5911893Y-22985476D01*
X6007131Y-22985476D02*
X6007131Y-22852143D01*
X6007131Y-22871190D02*
X6016655Y-22861667D01*
X6035703Y-22852143D01*
X6064274Y-22852143D01*
X6083322Y-22861667D01*
X6092845Y-22880714D01*
X6092845Y-22985476D01*
X6092845Y-22880714D02*
X6102369Y-22861667D01*
X6121417Y-22852143D01*
X6149988Y-22852143D01*
X6169036Y-22861667D01*
X6178560Y-22880714D01*
X6178560Y-22985476D01*
X6569036Y-22775952D02*
X6397607Y-23033095D01*
X6826179Y-22785476D02*
X6845226Y-22785476D01*
X6864274Y-22795000D01*
X6873798Y-22804524D01*
X6883322Y-22823571D01*
X6892845Y-22861667D01*
X6892845Y-22909286D01*
X6883322Y-22947381D01*
X6873798Y-22966428D01*
X6864274Y-22975952D01*
X6845226Y-22985476D01*
X6826179Y-22985476D01*
X6807131Y-22975952D01*
X6797607Y-22966428D01*
X6788083Y-22947381D01*
X6778560Y-22909286D01*
X6778560Y-22861667D01*
X6788083Y-22823571D01*
X6797607Y-22804524D01*
X6807131Y-22795000D01*
X6826179Y-22785476D01*
X6978560Y-22966428D02*
X6988083Y-22975952D01*
X6978560Y-22985476D01*
X6969036Y-22975952D01*
X6978560Y-22966428D01*
X6978560Y-22985476D01*
X7178560Y-22985476D02*
X7064274Y-22985476D01*
X7121417Y-22985476D02*
X7121417Y-22785476D01*
X7102369Y-22814048D01*
X7083322Y-22833095D01*
X7064274Y-22842619D01*
X7369036Y-22985476D02*
X7254750Y-22985476D01*
X7311893Y-22985476D02*
X7311893Y-22785476D01*
X7292845Y-22814048D01*
X7273798Y-22833095D01*
X7254750Y-22842619D01*
X7483322Y-22871190D02*
X7464274Y-22861667D01*
X7454750Y-22852143D01*
X7445226Y-22833095D01*
X7445226Y-22823571D01*
X7454750Y-22804524D01*
X7464274Y-22795000D01*
X7483322Y-22785476D01*
X7521417Y-22785476D01*
X7540464Y-22795000D01*
X7549988Y-22804524D01*
X7559512Y-22823571D01*
X7559512Y-22833095D01*
X7549988Y-22852143D01*
X7540464Y-22861667D01*
X7521417Y-22871190D01*
X7483322Y-22871190D01*
X7464274Y-22880714D01*
X7454750Y-22890238D01*
X7445226Y-22909286D01*
X7445226Y-22947381D01*
X7454750Y-22966428D01*
X7464274Y-22975952D01*
X7483322Y-22985476D01*
X7521417Y-22985476D01*
X7540464Y-22975952D01*
X7549988Y-22966428D01*
X7559512Y-22947381D01*
X7559512Y-22909286D01*
X7549988Y-22890238D01*
X7540464Y-22880714D01*
X7521417Y-22871190D01*
X7749988Y-22985476D02*
X7635702Y-22985476D01*
X7692845Y-22985476D02*
X7692845Y-22785476D01*
X7673798Y-22814048D01*
X7654750Y-22833095D01*
X7635702Y-22842619D01*
X7826179Y-22785476D02*
X7826179Y-22823571D01*
X7902369Y-22785476D02*
X7902369Y-22823571D01*
X8197607Y-23061667D02*
X8188083Y-23052143D01*
X8169036Y-23023571D01*
X8159512Y-23004524D01*
X8149988Y-22975952D01*
X8140464Y-22928333D01*
X8140464Y-22890238D01*
X8149988Y-22842619D01*
X8159512Y-22814048D01*
X8169036Y-22795000D01*
X8188083Y-22766428D01*
X8197607Y-22756905D01*
X8378560Y-22985476D02*
X8264274Y-22985476D01*
X8321417Y-22985476D02*
X8321417Y-22785476D01*
X8302369Y-22814048D01*
X8283322Y-22833095D01*
X8264274Y-22842619D01*
X8616655Y-22985476D02*
X8616655Y-22785476D01*
X8702369Y-22985476D02*
X8702369Y-22880714D01*
X8692845Y-22861667D01*
X8673798Y-22852143D01*
X8645226Y-22852143D01*
X8626179Y-22861667D01*
X8616655Y-22871190D01*
X8826179Y-22985476D02*
X8807131Y-22975952D01*
X8797607Y-22966428D01*
X8788084Y-22947381D01*
X8788084Y-22890238D01*
X8797607Y-22871190D01*
X8807131Y-22861667D01*
X8826179Y-22852143D01*
X8854750Y-22852143D01*
X8873798Y-22861667D01*
X8883322Y-22871190D01*
X8892845Y-22890238D01*
X8892845Y-22947381D01*
X8883322Y-22966428D01*
X8873798Y-22975952D01*
X8854750Y-22985476D01*
X8826179Y-22985476D01*
X9007131Y-22985476D02*
X8988084Y-22975952D01*
X8978560Y-22956905D01*
X8978560Y-22785476D01*
X9159512Y-22975952D02*
X9140465Y-22985476D01*
X9102369Y-22985476D01*
X9083322Y-22975952D01*
X9073798Y-22956905D01*
X9073798Y-22880714D01*
X9083322Y-22861667D01*
X9102369Y-22852143D01*
X9140465Y-22852143D01*
X9159512Y-22861667D01*
X9169036Y-22880714D01*
X9169036Y-22899762D01*
X9073798Y-22918809D01*
X9235703Y-23061667D02*
X9245226Y-23052143D01*
X9264274Y-23023571D01*
X9273798Y-23004524D01*
X9283322Y-22975952D01*
X9292845Y-22928333D01*
X9292845Y-22890238D01*
X9283322Y-22842619D01*
X9273798Y-22814048D01*
X9264274Y-22795000D01*
X9245226Y-22766428D01*
X9235703Y-22756905D01*
X9597607Y-23061667D02*
X9588084Y-23052143D01*
X9569036Y-23023571D01*
X9559512Y-23004524D01*
X9549988Y-22975952D01*
X9540465Y-22928333D01*
X9540465Y-22890238D01*
X9549988Y-22842619D01*
X9559512Y-22814048D01*
X9569036Y-22795000D01*
X9588084Y-22766428D01*
X9597607Y-22756905D01*
X9673798Y-22852143D02*
X9673798Y-22985476D01*
X9673798Y-22871190D02*
X9683322Y-22861667D01*
X9702369Y-22852143D01*
X9730941Y-22852143D01*
X9749988Y-22861667D01*
X9759512Y-22880714D01*
X9759512Y-22985476D01*
X9883322Y-22985476D02*
X9864274Y-22975952D01*
X9854750Y-22966428D01*
X9845226Y-22947381D01*
X9845226Y-22890238D01*
X9854750Y-22871190D01*
X9864274Y-22861667D01*
X9883322Y-22852143D01*
X9911893Y-22852143D01*
X9930941Y-22861667D01*
X9940465Y-22871190D01*
X9949988Y-22890238D01*
X9949988Y-22947381D01*
X9940465Y-22966428D01*
X9930941Y-22975952D01*
X9911893Y-22985476D01*
X9883322Y-22985476D01*
X10007131Y-22852143D02*
X10083322Y-22852143D01*
X10035703Y-22785476D02*
X10035703Y-22956905D01*
X10045226Y-22975952D01*
X10064274Y-22985476D01*
X10083322Y-22985476D01*
X10302369Y-22852143D02*
X10302369Y-23052143D01*
X10302369Y-22861667D02*
X10321417Y-22852143D01*
X10359512Y-22852143D01*
X10378560Y-22861667D01*
X10388084Y-22871190D01*
X10397607Y-22890238D01*
X10397607Y-22947381D01*
X10388084Y-22966428D01*
X10378560Y-22975952D01*
X10359512Y-22985476D01*
X10321417Y-22985476D01*
X10302369Y-22975952D01*
X10511893Y-22985476D02*
X10492845Y-22975952D01*
X10483322Y-22956905D01*
X10483322Y-22785476D01*
X10673798Y-22985476D02*
X10673798Y-22880714D01*
X10664274Y-22861667D01*
X10645226Y-22852143D01*
X10607131Y-22852143D01*
X10588084Y-22861667D01*
X10673798Y-22975952D02*
X10654750Y-22985476D01*
X10607131Y-22985476D01*
X10588084Y-22975952D01*
X10578560Y-22956905D01*
X10578560Y-22937857D01*
X10588084Y-22918809D01*
X10607131Y-22909286D01*
X10654750Y-22909286D01*
X10673798Y-22899762D01*
X10740465Y-22852143D02*
X10816655Y-22852143D01*
X10769036Y-22785476D02*
X10769036Y-22956905D01*
X10778560Y-22975952D01*
X10797607Y-22985476D01*
X10816655Y-22985476D01*
X10959512Y-22975952D02*
X10940465Y-22985476D01*
X10902369Y-22985476D01*
X10883322Y-22975952D01*
X10873798Y-22956905D01*
X10873798Y-22880714D01*
X10883322Y-22861667D01*
X10902369Y-22852143D01*
X10940465Y-22852143D01*
X10959512Y-22861667D01*
X10969036Y-22880714D01*
X10969036Y-22899762D01*
X10873798Y-22918809D01*
X11140465Y-22985476D02*
X11140465Y-22785476D01*
X11140465Y-22975952D02*
X11121417Y-22985476D01*
X11083322Y-22985476D01*
X11064274Y-22975952D01*
X11054750Y-22966428D01*
X11045226Y-22947381D01*
X11045226Y-22890238D01*
X11054750Y-22871190D01*
X11064274Y-22861667D01*
X11083322Y-22852143D01*
X11121417Y-22852143D01*
X11140465Y-22861667D01*
X11216655Y-23061667D02*
X11226179Y-23052143D01*
X11245226Y-23023571D01*
X11254750Y-23004524D01*
X11264274Y-22975952D01*
X11273798Y-22928333D01*
X11273798Y-22890238D01*
X11264274Y-22842619D01*
X11254750Y-22814048D01*
X11245226Y-22795000D01*
X11226179Y-22766428D01*
X11216655Y-22756905D01*
M02*
