%TF.GenerationSoftware,KiCad,Pcbnew,(6.0.7)*%
%TF.CreationDate,2022-09-09T17:44:55-04:00*%
%TF.ProjectId,augertapowermanagement,61756765-7274-4617-906f-7765726d616e,rev?*%
%TF.SameCoordinates,Original*%
%TF.FileFunction,Drillmap*%
%TF.FilePolarity,Positive*%
%FSLAX45Y45*%
G04 Gerber Fmt 4.5, Leading zero omitted, Abs format (unit mm)*
G04 Created by KiCad (PCBNEW (6.0.7)) date 2022-09-09 17:44:55*
%MOMM*%
%LPD*%
G01*
G04 APERTURE LIST*
%ADD10C,0.100000*%
%ADD11C,0.200000*%
%ADD12C,0.300000*%
%ADD13C,0.840000*%
G04 APERTURE END LIST*
D10*
X4911080Y-22237000D02*
X36494720Y-22237000D01*
X36494720Y-22237000D02*
X36494720Y-3937000D01*
X36494720Y-3937000D02*
X4911080Y-3937000D01*
X4911080Y-3937000D02*
X4911080Y-22237000D01*
D11*
D12*
X5793600Y-4906900D02*
X6093600Y-5206900D01*
X6093600Y-4906900D02*
X5793600Y-5206900D01*
D13*
X6495680Y-11633200D02*
G75*
G03*
X6495680Y-11633200I-420000J0D01*
G01*
X15558400Y-16337280D02*
G75*
G03*
X15558400Y-16337280I-420000J0D01*
G01*
X28039960Y-13934440D02*
G75*
G03*
X28039960Y-13934440I-420000J0D01*
G01*
X30412320Y-5146040D02*
G75*
G03*
X30412320Y-5146040I-420000J0D01*
G01*
X32845640Y-19466560D02*
G75*
G03*
X32845640Y-19466560I-420000J0D01*
G01*
D11*
X5163699Y-22552476D02*
X5163699Y-22352476D01*
X5211318Y-22352476D01*
X5239890Y-22362000D01*
X5258937Y-22381048D01*
X5268461Y-22400095D01*
X5277985Y-22438190D01*
X5277985Y-22466762D01*
X5268461Y-22504857D01*
X5258937Y-22523905D01*
X5239890Y-22542952D01*
X5211318Y-22552476D01*
X5163699Y-22552476D01*
X5363699Y-22552476D02*
X5363699Y-22419143D01*
X5363699Y-22457238D02*
X5373223Y-22438190D01*
X5382747Y-22428667D01*
X5401794Y-22419143D01*
X5420842Y-22419143D01*
X5487509Y-22552476D02*
X5487509Y-22419143D01*
X5487509Y-22352476D02*
X5477985Y-22362000D01*
X5487509Y-22371524D01*
X5497032Y-22362000D01*
X5487509Y-22352476D01*
X5487509Y-22371524D01*
X5611318Y-22552476D02*
X5592270Y-22542952D01*
X5582747Y-22523905D01*
X5582747Y-22352476D01*
X5716080Y-22552476D02*
X5697032Y-22542952D01*
X5687508Y-22523905D01*
X5687508Y-22352476D01*
X5944651Y-22552476D02*
X5944651Y-22352476D01*
X6011318Y-22495333D01*
X6077985Y-22352476D01*
X6077985Y-22552476D01*
X6258937Y-22552476D02*
X6258937Y-22447714D01*
X6249413Y-22428667D01*
X6230366Y-22419143D01*
X6192270Y-22419143D01*
X6173223Y-22428667D01*
X6258937Y-22542952D02*
X6239889Y-22552476D01*
X6192270Y-22552476D01*
X6173223Y-22542952D01*
X6163699Y-22523905D01*
X6163699Y-22504857D01*
X6173223Y-22485809D01*
X6192270Y-22476286D01*
X6239889Y-22476286D01*
X6258937Y-22466762D01*
X6354175Y-22419143D02*
X6354175Y-22619143D01*
X6354175Y-22428667D02*
X6373223Y-22419143D01*
X6411318Y-22419143D01*
X6430366Y-22428667D01*
X6439889Y-22438190D01*
X6449413Y-22457238D01*
X6449413Y-22514381D01*
X6439889Y-22533428D01*
X6430366Y-22542952D01*
X6411318Y-22552476D01*
X6373223Y-22552476D01*
X6354175Y-22542952D01*
X6535128Y-22533428D02*
X6544651Y-22542952D01*
X6535128Y-22552476D01*
X6525604Y-22542952D01*
X6535128Y-22533428D01*
X6535128Y-22552476D01*
X6535128Y-22428667D02*
X6544651Y-22438190D01*
X6535128Y-22447714D01*
X6525604Y-22438190D01*
X6535128Y-22428667D01*
X6535128Y-22447714D01*
X4706080Y-22782000D02*
X4906080Y-22982000D01*
X4906080Y-22782000D02*
X4706080Y-22982000D01*
X5144651Y-22772476D02*
X5268461Y-22772476D01*
X5201794Y-22848667D01*
X5230366Y-22848667D01*
X5249413Y-22858190D01*
X5258937Y-22867714D01*
X5268461Y-22886762D01*
X5268461Y-22934381D01*
X5258937Y-22953428D01*
X5249413Y-22962952D01*
X5230366Y-22972476D01*
X5173223Y-22972476D01*
X5154175Y-22962952D01*
X5144651Y-22953428D01*
X5354175Y-22953428D02*
X5363699Y-22962952D01*
X5354175Y-22972476D01*
X5344651Y-22962952D01*
X5354175Y-22953428D01*
X5354175Y-22972476D01*
X5487509Y-22772476D02*
X5506556Y-22772476D01*
X5525604Y-22782000D01*
X5535128Y-22791524D01*
X5544651Y-22810571D01*
X5554175Y-22848667D01*
X5554175Y-22896286D01*
X5544651Y-22934381D01*
X5535128Y-22953428D01*
X5525604Y-22962952D01*
X5506556Y-22972476D01*
X5487509Y-22972476D01*
X5468461Y-22962952D01*
X5458937Y-22953428D01*
X5449413Y-22934381D01*
X5439890Y-22896286D01*
X5439890Y-22848667D01*
X5449413Y-22810571D01*
X5458937Y-22791524D01*
X5468461Y-22782000D01*
X5487509Y-22772476D01*
X5677985Y-22772476D02*
X5697032Y-22772476D01*
X5716080Y-22782000D01*
X5725604Y-22791524D01*
X5735128Y-22810571D01*
X5744651Y-22848667D01*
X5744651Y-22896286D01*
X5735128Y-22934381D01*
X5725604Y-22953428D01*
X5716080Y-22962952D01*
X5697032Y-22972476D01*
X5677985Y-22972476D01*
X5658937Y-22962952D01*
X5649413Y-22953428D01*
X5639889Y-22934381D01*
X5630366Y-22896286D01*
X5630366Y-22848667D01*
X5639889Y-22810571D01*
X5649413Y-22791524D01*
X5658937Y-22782000D01*
X5677985Y-22772476D01*
X5868461Y-22772476D02*
X5887508Y-22772476D01*
X5906556Y-22782000D01*
X5916080Y-22791524D01*
X5925604Y-22810571D01*
X5935128Y-22848667D01*
X5935128Y-22896286D01*
X5925604Y-22934381D01*
X5916080Y-22953428D01*
X5906556Y-22962952D01*
X5887508Y-22972476D01*
X5868461Y-22972476D01*
X5849413Y-22962952D01*
X5839889Y-22953428D01*
X5830366Y-22934381D01*
X5820842Y-22896286D01*
X5820842Y-22848667D01*
X5830366Y-22810571D01*
X5839889Y-22791524D01*
X5849413Y-22782000D01*
X5868461Y-22772476D01*
X6020842Y-22972476D02*
X6020842Y-22839143D01*
X6020842Y-22858190D02*
X6030366Y-22848667D01*
X6049413Y-22839143D01*
X6077985Y-22839143D01*
X6097032Y-22848667D01*
X6106556Y-22867714D01*
X6106556Y-22972476D01*
X6106556Y-22867714D02*
X6116080Y-22848667D01*
X6135128Y-22839143D01*
X6163699Y-22839143D01*
X6182747Y-22848667D01*
X6192270Y-22867714D01*
X6192270Y-22972476D01*
X6287508Y-22972476D02*
X6287508Y-22839143D01*
X6287508Y-22858190D02*
X6297032Y-22848667D01*
X6316080Y-22839143D01*
X6344651Y-22839143D01*
X6363699Y-22848667D01*
X6373223Y-22867714D01*
X6373223Y-22972476D01*
X6373223Y-22867714D02*
X6382747Y-22848667D01*
X6401794Y-22839143D01*
X6430366Y-22839143D01*
X6449413Y-22848667D01*
X6458937Y-22867714D01*
X6458937Y-22972476D01*
X6849413Y-22762952D02*
X6677985Y-23020095D01*
X7106556Y-22772476D02*
X7125604Y-22772476D01*
X7144651Y-22782000D01*
X7154175Y-22791524D01*
X7163699Y-22810571D01*
X7173223Y-22848667D01*
X7173223Y-22896286D01*
X7163699Y-22934381D01*
X7154175Y-22953428D01*
X7144651Y-22962952D01*
X7125604Y-22972476D01*
X7106556Y-22972476D01*
X7087508Y-22962952D01*
X7077985Y-22953428D01*
X7068461Y-22934381D01*
X7058937Y-22896286D01*
X7058937Y-22848667D01*
X7068461Y-22810571D01*
X7077985Y-22791524D01*
X7087508Y-22782000D01*
X7106556Y-22772476D01*
X7258937Y-22953428D02*
X7268461Y-22962952D01*
X7258937Y-22972476D01*
X7249413Y-22962952D01*
X7258937Y-22953428D01*
X7258937Y-22972476D01*
X7458937Y-22972476D02*
X7344651Y-22972476D01*
X7401794Y-22972476D02*
X7401794Y-22772476D01*
X7382747Y-22801048D01*
X7363699Y-22820095D01*
X7344651Y-22829619D01*
X7649413Y-22972476D02*
X7535128Y-22972476D01*
X7592270Y-22972476D02*
X7592270Y-22772476D01*
X7573223Y-22801048D01*
X7554175Y-22820095D01*
X7535128Y-22829619D01*
X7763699Y-22858190D02*
X7744651Y-22848667D01*
X7735128Y-22839143D01*
X7725604Y-22820095D01*
X7725604Y-22810571D01*
X7735128Y-22791524D01*
X7744651Y-22782000D01*
X7763699Y-22772476D01*
X7801794Y-22772476D01*
X7820842Y-22782000D01*
X7830366Y-22791524D01*
X7839889Y-22810571D01*
X7839889Y-22820095D01*
X7830366Y-22839143D01*
X7820842Y-22848667D01*
X7801794Y-22858190D01*
X7763699Y-22858190D01*
X7744651Y-22867714D01*
X7735128Y-22877238D01*
X7725604Y-22896286D01*
X7725604Y-22934381D01*
X7735128Y-22953428D01*
X7744651Y-22962952D01*
X7763699Y-22972476D01*
X7801794Y-22972476D01*
X7820842Y-22962952D01*
X7830366Y-22953428D01*
X7839889Y-22934381D01*
X7839889Y-22896286D01*
X7830366Y-22877238D01*
X7820842Y-22867714D01*
X7801794Y-22858190D01*
X8030366Y-22972476D02*
X7916080Y-22972476D01*
X7973223Y-22972476D02*
X7973223Y-22772476D01*
X7954175Y-22801048D01*
X7935128Y-22820095D01*
X7916080Y-22829619D01*
X8106556Y-22772476D02*
X8106556Y-22810571D01*
X8182747Y-22772476D02*
X8182747Y-22810571D01*
X8477985Y-23048667D02*
X8468461Y-23039143D01*
X8449413Y-23010571D01*
X8439890Y-22991524D01*
X8430366Y-22962952D01*
X8420842Y-22915333D01*
X8420842Y-22877238D01*
X8430366Y-22829619D01*
X8439890Y-22801048D01*
X8449413Y-22782000D01*
X8468461Y-22753428D01*
X8477985Y-22743905D01*
X8658937Y-22972476D02*
X8544651Y-22972476D01*
X8601794Y-22972476D02*
X8601794Y-22772476D01*
X8582747Y-22801048D01*
X8563699Y-22820095D01*
X8544651Y-22829619D01*
X8897032Y-22972476D02*
X8897032Y-22772476D01*
X8982747Y-22972476D02*
X8982747Y-22867714D01*
X8973223Y-22848667D01*
X8954175Y-22839143D01*
X8925604Y-22839143D01*
X8906556Y-22848667D01*
X8897032Y-22858190D01*
X9106556Y-22972476D02*
X9087509Y-22962952D01*
X9077985Y-22953428D01*
X9068461Y-22934381D01*
X9068461Y-22877238D01*
X9077985Y-22858190D01*
X9087509Y-22848667D01*
X9106556Y-22839143D01*
X9135128Y-22839143D01*
X9154175Y-22848667D01*
X9163699Y-22858190D01*
X9173223Y-22877238D01*
X9173223Y-22934381D01*
X9163699Y-22953428D01*
X9154175Y-22962952D01*
X9135128Y-22972476D01*
X9106556Y-22972476D01*
X9287509Y-22972476D02*
X9268461Y-22962952D01*
X9258937Y-22943905D01*
X9258937Y-22772476D01*
X9439890Y-22962952D02*
X9420842Y-22972476D01*
X9382747Y-22972476D01*
X9363699Y-22962952D01*
X9354175Y-22943905D01*
X9354175Y-22867714D01*
X9363699Y-22848667D01*
X9382747Y-22839143D01*
X9420842Y-22839143D01*
X9439890Y-22848667D01*
X9449413Y-22867714D01*
X9449413Y-22886762D01*
X9354175Y-22905809D01*
X9516080Y-23048667D02*
X9525604Y-23039143D01*
X9544651Y-23010571D01*
X9554175Y-22991524D01*
X9563699Y-22962952D01*
X9573223Y-22915333D01*
X9573223Y-22877238D01*
X9563699Y-22829619D01*
X9554175Y-22801048D01*
X9544651Y-22782000D01*
X9525604Y-22753428D01*
X9516080Y-22743905D01*
X9877985Y-23048667D02*
X9868461Y-23039143D01*
X9849413Y-23010571D01*
X9839890Y-22991524D01*
X9830366Y-22962952D01*
X9820842Y-22915333D01*
X9820842Y-22877238D01*
X9830366Y-22829619D01*
X9839890Y-22801048D01*
X9849413Y-22782000D01*
X9868461Y-22753428D01*
X9877985Y-22743905D01*
X9954175Y-22839143D02*
X9954175Y-22972476D01*
X9954175Y-22858190D02*
X9963699Y-22848667D01*
X9982747Y-22839143D01*
X10011318Y-22839143D01*
X10030366Y-22848667D01*
X10039890Y-22867714D01*
X10039890Y-22972476D01*
X10163699Y-22972476D02*
X10144651Y-22962952D01*
X10135128Y-22953428D01*
X10125604Y-22934381D01*
X10125604Y-22877238D01*
X10135128Y-22858190D01*
X10144651Y-22848667D01*
X10163699Y-22839143D01*
X10192270Y-22839143D01*
X10211318Y-22848667D01*
X10220842Y-22858190D01*
X10230366Y-22877238D01*
X10230366Y-22934381D01*
X10220842Y-22953428D01*
X10211318Y-22962952D01*
X10192270Y-22972476D01*
X10163699Y-22972476D01*
X10287509Y-22839143D02*
X10363699Y-22839143D01*
X10316080Y-22772476D02*
X10316080Y-22943905D01*
X10325604Y-22962952D01*
X10344651Y-22972476D01*
X10363699Y-22972476D01*
X10582747Y-22839143D02*
X10582747Y-23039143D01*
X10582747Y-22848667D02*
X10601794Y-22839143D01*
X10639890Y-22839143D01*
X10658937Y-22848667D01*
X10668461Y-22858190D01*
X10677985Y-22877238D01*
X10677985Y-22934381D01*
X10668461Y-22953428D01*
X10658937Y-22962952D01*
X10639890Y-22972476D01*
X10601794Y-22972476D01*
X10582747Y-22962952D01*
X10792270Y-22972476D02*
X10773223Y-22962952D01*
X10763699Y-22943905D01*
X10763699Y-22772476D01*
X10954175Y-22972476D02*
X10954175Y-22867714D01*
X10944651Y-22848667D01*
X10925604Y-22839143D01*
X10887509Y-22839143D01*
X10868461Y-22848667D01*
X10954175Y-22962952D02*
X10935128Y-22972476D01*
X10887509Y-22972476D01*
X10868461Y-22962952D01*
X10858937Y-22943905D01*
X10858937Y-22924857D01*
X10868461Y-22905809D01*
X10887509Y-22896286D01*
X10935128Y-22896286D01*
X10954175Y-22886762D01*
X11020842Y-22839143D02*
X11097032Y-22839143D01*
X11049413Y-22772476D02*
X11049413Y-22943905D01*
X11058937Y-22962952D01*
X11077985Y-22972476D01*
X11097032Y-22972476D01*
X11239889Y-22962952D02*
X11220842Y-22972476D01*
X11182747Y-22972476D01*
X11163699Y-22962952D01*
X11154175Y-22943905D01*
X11154175Y-22867714D01*
X11163699Y-22848667D01*
X11182747Y-22839143D01*
X11220842Y-22839143D01*
X11239889Y-22848667D01*
X11249413Y-22867714D01*
X11249413Y-22886762D01*
X11154175Y-22905809D01*
X11420842Y-22972476D02*
X11420842Y-22772476D01*
X11420842Y-22962952D02*
X11401794Y-22972476D01*
X11363699Y-22972476D01*
X11344651Y-22962952D01*
X11335128Y-22953428D01*
X11325604Y-22934381D01*
X11325604Y-22877238D01*
X11335128Y-22858190D01*
X11344651Y-22848667D01*
X11363699Y-22839143D01*
X11401794Y-22839143D01*
X11420842Y-22848667D01*
X11497032Y-23048667D02*
X11506556Y-23039143D01*
X11525604Y-23010571D01*
X11535128Y-22991524D01*
X11544651Y-22962952D01*
X11554175Y-22915333D01*
X11554175Y-22877238D01*
X11544651Y-22829619D01*
X11535128Y-22801048D01*
X11525604Y-22782000D01*
X11506556Y-22753428D01*
X11497032Y-22743905D01*
X4906080Y-23202000D02*
G75*
G03*
X4906080Y-23202000I-100000J0D01*
G01*
X5192270Y-23178190D02*
X5173223Y-23168667D01*
X5163699Y-23159143D01*
X5154175Y-23140095D01*
X5154175Y-23130571D01*
X5163699Y-23111524D01*
X5173223Y-23102000D01*
X5192270Y-23092476D01*
X5230366Y-23092476D01*
X5249413Y-23102000D01*
X5258937Y-23111524D01*
X5268461Y-23130571D01*
X5268461Y-23140095D01*
X5258937Y-23159143D01*
X5249413Y-23168667D01*
X5230366Y-23178190D01*
X5192270Y-23178190D01*
X5173223Y-23187714D01*
X5163699Y-23197238D01*
X5154175Y-23216286D01*
X5154175Y-23254381D01*
X5163699Y-23273428D01*
X5173223Y-23282952D01*
X5192270Y-23292476D01*
X5230366Y-23292476D01*
X5249413Y-23282952D01*
X5258937Y-23273428D01*
X5268461Y-23254381D01*
X5268461Y-23216286D01*
X5258937Y-23197238D01*
X5249413Y-23187714D01*
X5230366Y-23178190D01*
X5354175Y-23273428D02*
X5363699Y-23282952D01*
X5354175Y-23292476D01*
X5344651Y-23282952D01*
X5354175Y-23273428D01*
X5354175Y-23292476D01*
X5535128Y-23159143D02*
X5535128Y-23292476D01*
X5487509Y-23082952D02*
X5439890Y-23225809D01*
X5563699Y-23225809D01*
X5677985Y-23092476D02*
X5697032Y-23092476D01*
X5716080Y-23102000D01*
X5725604Y-23111524D01*
X5735128Y-23130571D01*
X5744651Y-23168667D01*
X5744651Y-23216286D01*
X5735128Y-23254381D01*
X5725604Y-23273428D01*
X5716080Y-23282952D01*
X5697032Y-23292476D01*
X5677985Y-23292476D01*
X5658937Y-23282952D01*
X5649413Y-23273428D01*
X5639889Y-23254381D01*
X5630366Y-23216286D01*
X5630366Y-23168667D01*
X5639889Y-23130571D01*
X5649413Y-23111524D01*
X5658937Y-23102000D01*
X5677985Y-23092476D01*
X5868461Y-23092476D02*
X5887508Y-23092476D01*
X5906556Y-23102000D01*
X5916080Y-23111524D01*
X5925604Y-23130571D01*
X5935128Y-23168667D01*
X5935128Y-23216286D01*
X5925604Y-23254381D01*
X5916080Y-23273428D01*
X5906556Y-23282952D01*
X5887508Y-23292476D01*
X5868461Y-23292476D01*
X5849413Y-23282952D01*
X5839889Y-23273428D01*
X5830366Y-23254381D01*
X5820842Y-23216286D01*
X5820842Y-23168667D01*
X5830366Y-23130571D01*
X5839889Y-23111524D01*
X5849413Y-23102000D01*
X5868461Y-23092476D01*
X6020842Y-23292476D02*
X6020842Y-23159143D01*
X6020842Y-23178190D02*
X6030366Y-23168667D01*
X6049413Y-23159143D01*
X6077985Y-23159143D01*
X6097032Y-23168667D01*
X6106556Y-23187714D01*
X6106556Y-23292476D01*
X6106556Y-23187714D02*
X6116080Y-23168667D01*
X6135128Y-23159143D01*
X6163699Y-23159143D01*
X6182747Y-23168667D01*
X6192270Y-23187714D01*
X6192270Y-23292476D01*
X6287508Y-23292476D02*
X6287508Y-23159143D01*
X6287508Y-23178190D02*
X6297032Y-23168667D01*
X6316080Y-23159143D01*
X6344651Y-23159143D01*
X6363699Y-23168667D01*
X6373223Y-23187714D01*
X6373223Y-23292476D01*
X6373223Y-23187714D02*
X6382747Y-23168667D01*
X6401794Y-23159143D01*
X6430366Y-23159143D01*
X6449413Y-23168667D01*
X6458937Y-23187714D01*
X6458937Y-23292476D01*
X6849413Y-23082952D02*
X6677985Y-23340095D01*
X7106556Y-23092476D02*
X7125604Y-23092476D01*
X7144651Y-23102000D01*
X7154175Y-23111524D01*
X7163699Y-23130571D01*
X7173223Y-23168667D01*
X7173223Y-23216286D01*
X7163699Y-23254381D01*
X7154175Y-23273428D01*
X7144651Y-23282952D01*
X7125604Y-23292476D01*
X7106556Y-23292476D01*
X7087508Y-23282952D01*
X7077985Y-23273428D01*
X7068461Y-23254381D01*
X7058937Y-23216286D01*
X7058937Y-23168667D01*
X7068461Y-23130571D01*
X7077985Y-23111524D01*
X7087508Y-23102000D01*
X7106556Y-23092476D01*
X7258937Y-23273428D02*
X7268461Y-23282952D01*
X7258937Y-23292476D01*
X7249413Y-23282952D01*
X7258937Y-23273428D01*
X7258937Y-23292476D01*
X7335128Y-23092476D02*
X7458937Y-23092476D01*
X7392270Y-23168667D01*
X7420842Y-23168667D01*
X7439889Y-23178190D01*
X7449413Y-23187714D01*
X7458937Y-23206762D01*
X7458937Y-23254381D01*
X7449413Y-23273428D01*
X7439889Y-23282952D01*
X7420842Y-23292476D01*
X7363699Y-23292476D01*
X7344651Y-23282952D01*
X7335128Y-23273428D01*
X7525604Y-23092476D02*
X7649413Y-23092476D01*
X7582747Y-23168667D01*
X7611318Y-23168667D01*
X7630366Y-23178190D01*
X7639889Y-23187714D01*
X7649413Y-23206762D01*
X7649413Y-23254381D01*
X7639889Y-23273428D01*
X7630366Y-23282952D01*
X7611318Y-23292476D01*
X7554175Y-23292476D01*
X7535128Y-23282952D01*
X7525604Y-23273428D01*
X7773223Y-23092476D02*
X7792270Y-23092476D01*
X7811318Y-23102000D01*
X7820842Y-23111524D01*
X7830366Y-23130571D01*
X7839889Y-23168667D01*
X7839889Y-23216286D01*
X7830366Y-23254381D01*
X7820842Y-23273428D01*
X7811318Y-23282952D01*
X7792270Y-23292476D01*
X7773223Y-23292476D01*
X7754175Y-23282952D01*
X7744651Y-23273428D01*
X7735128Y-23254381D01*
X7725604Y-23216286D01*
X7725604Y-23168667D01*
X7735128Y-23130571D01*
X7744651Y-23111524D01*
X7754175Y-23102000D01*
X7773223Y-23092476D01*
X7906556Y-23092476D02*
X8039889Y-23092476D01*
X7954175Y-23292476D01*
X8106556Y-23092476D02*
X8106556Y-23130571D01*
X8182747Y-23092476D02*
X8182747Y-23130571D01*
X8477985Y-23368667D02*
X8468461Y-23359143D01*
X8449413Y-23330571D01*
X8439890Y-23311524D01*
X8430366Y-23282952D01*
X8420842Y-23235333D01*
X8420842Y-23197238D01*
X8430366Y-23149619D01*
X8439890Y-23121048D01*
X8449413Y-23102000D01*
X8468461Y-23073428D01*
X8477985Y-23063905D01*
X8649413Y-23092476D02*
X8554175Y-23092476D01*
X8544651Y-23187714D01*
X8554175Y-23178190D01*
X8573223Y-23168667D01*
X8620842Y-23168667D01*
X8639890Y-23178190D01*
X8649413Y-23187714D01*
X8658937Y-23206762D01*
X8658937Y-23254381D01*
X8649413Y-23273428D01*
X8639890Y-23282952D01*
X8620842Y-23292476D01*
X8573223Y-23292476D01*
X8554175Y-23282952D01*
X8544651Y-23273428D01*
X8897032Y-23292476D02*
X8897032Y-23092476D01*
X8982747Y-23292476D02*
X8982747Y-23187714D01*
X8973223Y-23168667D01*
X8954175Y-23159143D01*
X8925604Y-23159143D01*
X8906556Y-23168667D01*
X8897032Y-23178190D01*
X9106556Y-23292476D02*
X9087509Y-23282952D01*
X9077985Y-23273428D01*
X9068461Y-23254381D01*
X9068461Y-23197238D01*
X9077985Y-23178190D01*
X9087509Y-23168667D01*
X9106556Y-23159143D01*
X9135128Y-23159143D01*
X9154175Y-23168667D01*
X9163699Y-23178190D01*
X9173223Y-23197238D01*
X9173223Y-23254381D01*
X9163699Y-23273428D01*
X9154175Y-23282952D01*
X9135128Y-23292476D01*
X9106556Y-23292476D01*
X9287509Y-23292476D02*
X9268461Y-23282952D01*
X9258937Y-23263905D01*
X9258937Y-23092476D01*
X9439890Y-23282952D02*
X9420842Y-23292476D01*
X9382747Y-23292476D01*
X9363699Y-23282952D01*
X9354175Y-23263905D01*
X9354175Y-23187714D01*
X9363699Y-23168667D01*
X9382747Y-23159143D01*
X9420842Y-23159143D01*
X9439890Y-23168667D01*
X9449413Y-23187714D01*
X9449413Y-23206762D01*
X9354175Y-23225809D01*
X9525604Y-23282952D02*
X9544651Y-23292476D01*
X9582747Y-23292476D01*
X9601794Y-23282952D01*
X9611318Y-23263905D01*
X9611318Y-23254381D01*
X9601794Y-23235333D01*
X9582747Y-23225809D01*
X9554175Y-23225809D01*
X9535128Y-23216286D01*
X9525604Y-23197238D01*
X9525604Y-23187714D01*
X9535128Y-23168667D01*
X9554175Y-23159143D01*
X9582747Y-23159143D01*
X9601794Y-23168667D01*
X9677985Y-23368667D02*
X9687509Y-23359143D01*
X9706556Y-23330571D01*
X9716080Y-23311524D01*
X9725604Y-23282952D01*
X9735128Y-23235333D01*
X9735128Y-23197238D01*
X9725604Y-23149619D01*
X9716080Y-23121048D01*
X9706556Y-23102000D01*
X9687509Y-23073428D01*
X9677985Y-23063905D01*
X10039890Y-23368667D02*
X10030366Y-23359143D01*
X10011318Y-23330571D01*
X10001794Y-23311524D01*
X9992270Y-23282952D01*
X9982747Y-23235333D01*
X9982747Y-23197238D01*
X9992270Y-23149619D01*
X10001794Y-23121048D01*
X10011318Y-23102000D01*
X10030366Y-23073428D01*
X10039890Y-23063905D01*
X10116080Y-23159143D02*
X10116080Y-23292476D01*
X10116080Y-23178190D02*
X10125604Y-23168667D01*
X10144651Y-23159143D01*
X10173223Y-23159143D01*
X10192270Y-23168667D01*
X10201794Y-23187714D01*
X10201794Y-23292476D01*
X10325604Y-23292476D02*
X10306556Y-23282952D01*
X10297032Y-23273428D01*
X10287509Y-23254381D01*
X10287509Y-23197238D01*
X10297032Y-23178190D01*
X10306556Y-23168667D01*
X10325604Y-23159143D01*
X10354175Y-23159143D01*
X10373223Y-23168667D01*
X10382747Y-23178190D01*
X10392270Y-23197238D01*
X10392270Y-23254381D01*
X10382747Y-23273428D01*
X10373223Y-23282952D01*
X10354175Y-23292476D01*
X10325604Y-23292476D01*
X10449413Y-23159143D02*
X10525604Y-23159143D01*
X10477985Y-23092476D02*
X10477985Y-23263905D01*
X10487509Y-23282952D01*
X10506556Y-23292476D01*
X10525604Y-23292476D01*
X10744651Y-23159143D02*
X10744651Y-23359143D01*
X10744651Y-23168667D02*
X10763699Y-23159143D01*
X10801794Y-23159143D01*
X10820842Y-23168667D01*
X10830366Y-23178190D01*
X10839890Y-23197238D01*
X10839890Y-23254381D01*
X10830366Y-23273428D01*
X10820842Y-23282952D01*
X10801794Y-23292476D01*
X10763699Y-23292476D01*
X10744651Y-23282952D01*
X10954175Y-23292476D02*
X10935128Y-23282952D01*
X10925604Y-23263905D01*
X10925604Y-23092476D01*
X11116080Y-23292476D02*
X11116080Y-23187714D01*
X11106556Y-23168667D01*
X11087509Y-23159143D01*
X11049413Y-23159143D01*
X11030366Y-23168667D01*
X11116080Y-23282952D02*
X11097032Y-23292476D01*
X11049413Y-23292476D01*
X11030366Y-23282952D01*
X11020842Y-23263905D01*
X11020842Y-23244857D01*
X11030366Y-23225809D01*
X11049413Y-23216286D01*
X11097032Y-23216286D01*
X11116080Y-23206762D01*
X11182747Y-23159143D02*
X11258937Y-23159143D01*
X11211318Y-23092476D02*
X11211318Y-23263905D01*
X11220842Y-23282952D01*
X11239889Y-23292476D01*
X11258937Y-23292476D01*
X11401794Y-23282952D02*
X11382747Y-23292476D01*
X11344651Y-23292476D01*
X11325604Y-23282952D01*
X11316080Y-23263905D01*
X11316080Y-23187714D01*
X11325604Y-23168667D01*
X11344651Y-23159143D01*
X11382747Y-23159143D01*
X11401794Y-23168667D01*
X11411318Y-23187714D01*
X11411318Y-23206762D01*
X11316080Y-23225809D01*
X11582747Y-23292476D02*
X11582747Y-23092476D01*
X11582747Y-23282952D02*
X11563699Y-23292476D01*
X11525604Y-23292476D01*
X11506556Y-23282952D01*
X11497032Y-23273428D01*
X11487508Y-23254381D01*
X11487508Y-23197238D01*
X11497032Y-23178190D01*
X11506556Y-23168667D01*
X11525604Y-23159143D01*
X11563699Y-23159143D01*
X11582747Y-23168667D01*
X11658937Y-23368667D02*
X11668461Y-23359143D01*
X11687508Y-23330571D01*
X11697032Y-23311524D01*
X11706556Y-23282952D01*
X11716080Y-23235333D01*
X11716080Y-23197238D01*
X11706556Y-23149619D01*
X11697032Y-23121048D01*
X11687508Y-23102000D01*
X11668461Y-23073428D01*
X11658937Y-23063905D01*
M02*
