M48
; DRILL file {KiCad 6.0.2+dfsg-1} date Wed 24 Aug 2022 01:43:14 PM EDT
; FORMAT={-:-/ absolute / inch / decimal}
; #@! TF.CreationDate,2022-08-24T13:43:14-04:00
; #@! TF.GenerationSoftware,Kicad,Pcbnew,6.0.2+dfsg-1
; #@! TF.FileFunction,Plated,1,4,PTH
FMAT,2
INCH
; #@! TA.AperFunction,Plated,PTH,ViaDrill
T1C0.0157
; #@! TA.AperFunction,Plated,PTH,ComponentDrill
T2C0.0315
; #@! TA.AperFunction,Plated,PTH,ComponentDrill
T3C0.0354
; #@! TA.AperFunction,Plated,PTH,ComponentDrill
T4C0.0362
; #@! TA.AperFunction,Plated,PTH,ComponentDrill
T5C0.0394
; #@! TA.AperFunction,Plated,PTH,ComponentDrill
T6C0.0409
; #@! TA.AperFunction,Plated,PTH,ComponentDrill
T7C0.0472
; #@! TA.AperFunction,Plated,PTH,ComponentDrill
T8C0.0512
; #@! TA.AperFunction,Plated,PTH,ComponentDrill
T9C0.0591
; #@! TA.AperFunction,Plated,PTH,ComponentDrill
T10C0.0709
; #@! TA.AperFunction,Plated,PTH,ComponentDrill
T11C0.0787
; #@! TA.AperFunction,Plated,PTH,ComponentDrill
T12C0.0906
%
G90
G05
T1
X4.0945Y-1.8504
X4.4265Y-2.4803
X4.9412Y-7.4508
X5.3841Y-5.4724
X5.9353Y-5.6693
X6.0092Y-3.7057
X6.0173Y-4.0977
X6.0928Y-5.8268
X6.142Y-4.0945
X7.1558Y-7.7559
X7.2739Y-7.4803
X7.3822Y-7.7992
X7.392Y-4.685
X7.392Y-4.8425
X7.4501Y-4.7844
X7.4806Y-7.4902
X7.6987Y-4.7344
X7.7956Y-4.7835
X7.9076Y-4.8344
X8.0515Y-4.626
X8.455Y-4.7244
X8.4648Y-4.626
X8.4747Y-4.5768
X8.4865Y-4.437
X8.6814Y-4.6752
X8.6887Y-4.6263
X8.7011Y-4.7343
X9.4599Y-4.8732
X9.5672Y-6.3189
X9.5967Y-5.0984
X9.6548Y-4.9732
X9.6656Y-4.9213
X9.7542Y-6.3189
X9.7641Y-6.2697
X9.7641Y-6.4173
X9.9511Y-5.0295
X10.1085Y-5.6654
X10.1774Y-4.813
X10.4196Y-4.9685
X10.5613Y-6.4862
X10.581Y-4.8524
X10.581Y-6.8504
X10.581Y-6.998
X10.768Y-6.8996
X10.7778Y-6.9488
X12.328Y-7.0011
X12.6493Y-6.9895
X13.2073Y-7.3506
X13.2171Y-7.2424
X13.2171Y-7.3998
X13.3864Y-2.3565
X13.5495Y-7.563
X13.843Y-3.9431
X13.8963Y-4.2306
X13.8963Y-4.329
X13.8994Y-4.1781
X13.9061Y-3.2758
X13.9455Y-2.8231
X13.9507Y-5.3531
X13.9553Y-5.7463
X13.9553Y-5.7955
X13.9652Y-5.6971
X13.9652Y-5.8447
X13.975Y-3.2266
X13.9986Y-3.3388
X14.0537Y-4.2798
X14.0882Y-4.3339
X14.1522Y-5.7955
X14.162Y-3.2758
X14.162Y-5.8546
X14.1719Y-3.3349
X14.2582Y-3.2283
T2
X3.2998Y-4.5854
X3.2998Y-4.6641
X4.8698Y-2.0454
X4.8698Y-2.1241
X5.1873Y-2.6772
X5.1873Y-2.7559
X6.0534Y-2.6854
X6.1322Y-2.6854
X8.14Y-4.9173
X8.2188Y-4.9173
X10.8448Y-5.874
X10.8448Y-5.9528
T3
X4.4944Y-1.7047
X4.5731Y-1.7047
X4.6519Y-1.7047
T4
X11.2541Y-8.0939
X11.2541Y-8.197
X11.3525Y-8.0939
X11.3525Y-8.197
X11.4312Y-8.0939
X11.4312Y-8.197
X11.5296Y-8.0939
X11.5296Y-8.197
X12.8408Y-2.1283
X12.8408Y-2.2315
X12.9393Y-2.1283
X12.9393Y-2.2315
X13.018Y-2.1283
X13.018Y-2.2315
X13.1164Y-2.1283
X13.1164Y-2.2315
X13.2541Y-8.0939
X13.2541Y-8.197
X13.3525Y-8.0939
X13.3525Y-8.197
X13.4312Y-8.0939
X13.4312Y-8.197
X13.5296Y-8.0939
X13.5296Y-8.197
X13.6912Y-2.1054
X13.6912Y-2.2086
X13.7896Y-2.1054
X13.7896Y-2.2086
X13.8684Y-2.1054
X13.8684Y-2.2086
X13.9668Y-2.1054
X13.9668Y-2.2086
T5
X5.6519Y-1.7047
X5.7519Y-1.7047
X5.8519Y-1.7047
X5.9519Y-1.7047
X6.0519Y-1.7047
X6.1519Y-1.7047
X6.2519Y-1.7047
X6.3519Y-1.7047
T6
X3.0639Y-6.0447
X3.0639Y-7.0447
X3.1639Y-6.0447
X3.1639Y-7.0447
X3.2639Y-6.0447
X3.2639Y-7.0447
X3.3639Y-6.0447
X3.3639Y-7.0447
X3.4639Y-6.0447
X3.4639Y-7.0447
X3.5639Y-6.0447
X3.5639Y-7.0447
X3.6639Y-6.0447
X3.6639Y-7.0447
X3.7639Y-6.0447
X3.7639Y-7.0447
X3.8639Y-6.0447
X3.8639Y-7.0447
X3.9639Y-6.0447
X3.9639Y-7.0447
X4.0639Y-6.0447
X4.0639Y-7.0447
X4.1639Y-6.0447
X4.1639Y-7.0447
X4.2639Y-6.0447
X4.2639Y-7.0447
X4.3639Y-6.0447
X4.3639Y-7.0447
X4.4639Y-6.0447
X4.4639Y-7.0447
X4.5639Y-6.0447
X4.5639Y-7.0447
X4.6639Y-6.0447
X4.6639Y-7.0447
X4.7639Y-6.0447
X4.7639Y-7.0447
X4.8639Y-6.0447
X4.8639Y-7.0447
T7
X2.3419Y-3.1547
X2.3419Y-3.7747
X4.1419Y-3.1547
X4.1419Y-3.7747
X6.6219Y-5.3847
X6.6219Y-7.1847
X6.8458Y-1.974
X6.8458Y-3.774
X7.2419Y-5.3847
X7.2419Y-7.1847
X7.4658Y-1.974
X7.4658Y-3.774
X7.8419Y-5.3847
X7.8419Y-7.1847
X7.9391Y-1.974
X7.9391Y-3.774
X8.4619Y-5.3847
X8.4619Y-7.1847
X8.5591Y-1.974
X8.5591Y-3.774
X9.0348Y-1.978
X9.0348Y-3.778
X9.6548Y-1.978
X9.6548Y-3.778
X10.1258Y-1.974
X10.1258Y-3.774
X10.7458Y-1.974
X10.7458Y-3.774
X11.4054Y-2.8396
X11.4054Y-3.4596
X11.4054Y-3.9131
X11.4054Y-4.5331
X11.4054Y-4.9931
X11.4054Y-5.6131
X11.4054Y-6.0731
X11.4054Y-6.6931
X13.2054Y-2.8396
X13.2054Y-3.4596
X13.2054Y-3.9131
X13.2054Y-4.5331
X13.2054Y-4.9931
X13.2054Y-5.6131
X13.2054Y-6.0731
X13.2054Y-6.6931
T8
X1.9719Y-8.3327
X2.0654Y-5.1157
X2.0654Y-5.3157
X2.0654Y-5.5157
X2.0654Y-5.7157
X2.0654Y-5.9157
X2.0654Y-6.1157
X2.0654Y-6.3157
X2.0654Y-6.5157
X2.0654Y-6.7157
X2.0654Y-6.9157
X2.1719Y-8.3327
X2.3719Y-8.3327
X2.5719Y-8.3327
X2.7719Y-8.3327
X2.9719Y-8.3327
X2.9887Y-1.8112
X3.1719Y-8.3327
X3.1887Y-1.8112
X3.3719Y-8.3327
X3.5719Y-8.3327
X3.7719Y-8.3327
X4.0551Y-2.3228
X4.1339Y-2.0866
X4.1339Y-2.5591
X4.2575Y-8.3327
X4.4575Y-8.3327
X4.6063Y-2.0866
X4.6063Y-2.5591
X4.6575Y-8.3327
X4.7886Y-4.6457
X4.7886Y-5.1181
X4.8575Y-8.3327
X5.0248Y-4.5669
X5.0575Y-8.3327
X5.2575Y-8.3327
X5.2611Y-4.6457
X5.2611Y-5.1181
X5.4575Y-8.3327
X5.6575Y-8.3327
X5.8575Y-8.3327
X6.0575Y-8.3327
X6.5432Y-8.3567
X6.7432Y-8.3567
X6.9432Y-8.3567
X7.1432Y-8.3567
X7.3432Y-8.3567
X7.8288Y-8.3567
X8.0288Y-8.3567
X8.2288Y-8.3567
X8.4288Y-8.3567
X8.6288Y-8.3567
X9.1129Y-8.325
X9.3097Y-8.325
X9.5066Y-8.325
X9.7034Y-8.325
X9.9003Y-8.325
X10.0971Y-8.325
X10.294Y-8.325
X10.4908Y-8.325
T9
X4.4117Y-1.7047
X4.7345Y-1.7047
T10
X2.3448Y-2.2116
X2.3448Y-2.4281
T11
X2.9826Y-4.6457
X3.2819Y-2.2047
X3.5731Y-4.8819
X4.3898Y-3.4646
X4.5819Y-4.1347
X5.3448Y-2.9921
X6.6046Y-7.5591
X7.5495Y-4.1339
X9.0456Y-4.4882
X9.2818Y-7.126
X9.9511Y-4.685
X10.9353Y-6.6831
X11.0928Y-4.6457
X13.601Y-5.1853
X13.6404Y-3.7286
X14.1128Y-6.8782
X14.144Y-2.6378
T12
X11.1332Y-8.0801
X11.1332Y-8.3037
X11.6505Y-8.0801
X11.6505Y-8.3037
X12.72Y-2.0217
X12.72Y-2.2453
X13.1332Y-8.0801
X13.1332Y-8.3037
X13.2373Y-2.0217
X13.2373Y-2.2453
X13.5704Y-1.9987
X13.5704Y-2.2224
X13.6505Y-8.0801
X13.6505Y-8.3037
X14.0877Y-1.9987
X14.0877Y-2.2224
T0
M30
