%TF.GenerationSoftware,KiCad,Pcbnew,6.0.2+dfsg-1*%
%TF.CreationDate,2022-08-02T12:08:57-04:00*%
%TF.ProjectId,augertapowermanagement,61756765-7274-4617-906f-7765726d616e,rev?*%
%TF.SameCoordinates,Original*%
%TF.FileFunction,Soldermask,Top*%
%TF.FilePolarity,Negative*%
%FSLAX46Y46*%
G04 Gerber Fmt 4.6, Leading zero omitted, Abs format (unit mm)*
G04 Created by KiCad (PCBNEW 6.0.2+dfsg-1) date 2022-08-02 12:08:57*
%MOMM*%
%LPD*%
G01*
G04 APERTURE LIST*
G04 Aperture macros list*
%AMRoundRect*
0 Rectangle with rounded corners*
0 $1 Rounding radius*
0 $2 $3 $4 $5 $6 $7 $8 $9 X,Y pos of 4 corners*
0 Add a 4 corners polygon primitive as box body*
4,1,4,$2,$3,$4,$5,$6,$7,$8,$9,$2,$3,0*
0 Add four circle primitives for the rounded corners*
1,1,$1+$1,$2,$3*
1,1,$1+$1,$4,$5*
1,1,$1+$1,$6,$7*
1,1,$1+$1,$8,$9*
0 Add four rect primitives between the rounded corners*
20,1,$1+$1,$2,$3,$4,$5,0*
20,1,$1+$1,$4,$5,$6,$7,0*
20,1,$1+$1,$6,$7,$8,$9,0*
20,1,$1+$1,$8,$9,$2,$3,0*%
G04 Aperture macros list end*
%ADD10C,10.000000*%
%ADD11RoundRect,0.150000X-0.825000X-0.150000X0.825000X-0.150000X0.825000X0.150000X-0.825000X0.150000X0*%
%ADD12R,2.600000X2.600000*%
%ADD13C,2.600000*%
%ADD14C,3.000000*%
%ADD15R,1.350000X1.350000*%
%ADD16O,1.350000X1.350000*%
%ADD17RoundRect,0.250002X-1.599998X-1.599998X1.599998X-1.599998X1.599998X1.599998X-1.599998X1.599998X0*%
%ADD18C,3.700000*%
%ADD19R,4.572000X4.572000*%
%ADD20RoundRect,0.250000X-1.350000X-1.975000X1.350000X-1.975000X1.350000X1.975000X-1.350000X1.975000X0*%
%ADD21RoundRect,0.250000X-0.412500X-1.100000X0.412500X-1.100000X0.412500X1.100000X-0.412500X1.100000X0*%
%ADD22RoundRect,0.250000X0.400000X1.075000X-0.400000X1.075000X-0.400000X-1.075000X0.400000X-1.075000X0*%
%ADD23RoundRect,0.250000X1.075000X-0.400000X1.075000X0.400000X-1.075000X0.400000X-1.075000X-0.400000X0*%
%ADD24R,0.900000X1.250000*%
%ADD25R,0.650000X0.650000*%
%ADD26R,0.820000X0.600000*%
%ADD27RoundRect,0.250000X1.350000X1.975000X-1.350000X1.975000X-1.350000X-1.975000X1.350000X-1.975000X0*%
%ADD28RoundRect,0.250000X-1.100000X0.412500X-1.100000X-0.412500X1.100000X-0.412500X1.100000X0.412500X0*%
%ADD29R,1.500000X1.500000*%
%ADD30C,1.500000*%
%ADD31RoundRect,0.249999X-0.450001X-1.425001X0.450001X-1.425001X0.450001X1.425001X-0.450001X1.425001X0*%
%ADD32O,2.200000X3.500000*%
%ADD33R,1.500000X2.500000*%
%ADD34O,1.500000X2.500000*%
%ADD35R,1.700000X1.700000*%
%ADD36O,1.700000X1.700000*%
%ADD37RoundRect,0.250000X-0.400000X-1.075000X0.400000X-1.075000X0.400000X1.075000X-0.400000X1.075000X0*%
%ADD38R,1.560000X1.560000*%
%ADD39C,1.560000*%
%ADD40RoundRect,0.150000X0.825000X0.150000X-0.825000X0.150000X-0.825000X-0.150000X0.825000X-0.150000X0*%
G04 APERTURE END LIST*
D10*
%TO.C,REF\u002A\u002A*%
X303600000Y-334500000D03*
%TD*%
%TO.C,REF\u002A\u002A*%
X190800000Y-315100000D03*
%TD*%
%TO.C,REF\u002A\u002A*%
X130800000Y-246300000D03*
%TD*%
%TO.C,REF\u002A\u002A*%
X345600000Y-387300000D03*
%TD*%
%TO.C,REF\u002A\u002A*%
X86700000Y-315700000D03*
%TD*%
%TO.C,REF\u002A\u002A*%
X343300000Y-244600000D03*
%TD*%
%TO.C,REF\u002A\u002A*%
X168200000Y-391000000D03*
%TD*%
D11*
%TO.C,U14*%
X386997000Y-304125000D03*
X386997000Y-305395000D03*
X386997000Y-306665000D03*
X386997000Y-307935000D03*
X391947000Y-307935000D03*
X391947000Y-306665000D03*
X391947000Y-305395000D03*
X391947000Y-304125000D03*
%TD*%
D12*
%TO.C,J10*%
X130048000Y-409651000D03*
D13*
X124968000Y-409651000D03*
X119888000Y-409651000D03*
X114808000Y-409651000D03*
X109728000Y-409651000D03*
X104648000Y-409651000D03*
X99568000Y-409651000D03*
X94488000Y-409651000D03*
X89408000Y-409651000D03*
X84328000Y-409651000D03*
%TD*%
D14*
%TO.C,TP6*%
X312000000Y-367750000D03*
%TD*%
D15*
%TO.C,JP5*%
X157936000Y-249952000D03*
D16*
X157936000Y-251952000D03*
%TD*%
D14*
%TO.C,J2*%
X93800000Y-246875000D03*
D17*
X93800000Y-254175000D03*
D18*
X93800000Y-259675000D03*
%TD*%
D19*
%TO.C,U8*%
X323940000Y-270126000D03*
X323940000Y-285874000D03*
X369660000Y-270126000D03*
X369660000Y-285874000D03*
%TD*%
D12*
%TO.C,J9*%
X200439000Y-410261000D03*
D13*
X205519000Y-410261000D03*
X210599000Y-410261000D03*
X215679000Y-410261000D03*
X220759000Y-410261000D03*
%TD*%
D20*
%TO.C,R15*%
X386208000Y-385456000D03*
X391408000Y-385456000D03*
%TD*%
D14*
%TO.C,TP9*%
X379708000Y-329706000D03*
%TD*%
D20*
%TO.C,R3*%
X302400000Y-363000000D03*
X307600000Y-363000000D03*
%TD*%
D11*
%TO.C,U3*%
X302839000Y-372017000D03*
X302839000Y-373287000D03*
X302839000Y-374557000D03*
X302839000Y-375827000D03*
X307789000Y-375827000D03*
X307789000Y-374557000D03*
X307789000Y-373287000D03*
X307789000Y-372017000D03*
%TD*%
D19*
%TO.C,U9*%
X251644666Y-248140000D03*
X235896666Y-248140000D03*
X251644666Y-293860000D03*
X235896666Y-293860000D03*
%TD*%
D14*
%TO.C,TP12*%
X264000000Y-312000000D03*
%TD*%
D19*
%TO.C,U12*%
X323940000Y-297394000D03*
X323940000Y-313142000D03*
X369660000Y-297394000D03*
X369660000Y-313142000D03*
%TD*%
D20*
%TO.C,R7*%
X249800000Y-307000000D03*
X255000000Y-307000000D03*
%TD*%
D21*
%TO.C,C1*%
X187159500Y-302006000D03*
X190284500Y-302006000D03*
%TD*%
D22*
%TO.C,R1*%
X121550000Y-343000000D03*
X118450000Y-343000000D03*
%TD*%
D19*
%TO.C,U4*%
X323940000Y-324826000D03*
X323940000Y-340574000D03*
X369660000Y-324826000D03*
X369660000Y-340574000D03*
%TD*%
D14*
%TO.C,TP7*%
X170000000Y-274000000D03*
%TD*%
%TO.C,TP3*%
X156000000Y-287000000D03*
%TD*%
D20*
%TO.C,R5*%
X224400000Y-310000000D03*
X229600000Y-310000000D03*
%TD*%
D14*
%TO.C,TP5*%
X150622000Y-303022000D03*
%TD*%
D23*
%TO.C,R2*%
X146000000Y-292550000D03*
X146000000Y-289450000D03*
%TD*%
D19*
%TO.C,U5*%
X223874000Y-248140000D03*
X208126000Y-248140000D03*
X223874000Y-293860000D03*
X208126000Y-293860000D03*
%TD*%
D14*
%TO.C,TP16*%
X316000000Y-316000000D03*
%TD*%
D20*
%TO.C,R6*%
X388590000Y-269708000D03*
X393790000Y-269708000D03*
%TD*%
D19*
%TO.C,U20*%
X249174000Y-334772000D03*
X233426000Y-334772000D03*
X249174000Y-380492000D03*
X233426000Y-380492000D03*
%TD*%
D11*
%TO.C,U10*%
X389283000Y-278725000D03*
X389283000Y-279995000D03*
X389283000Y-281265000D03*
X389283000Y-282535000D03*
X394233000Y-282535000D03*
X394233000Y-281265000D03*
X394233000Y-279995000D03*
X394233000Y-278725000D03*
%TD*%
D15*
%TO.C,JP6*%
X190000000Y-266208000D03*
D16*
X188000000Y-266208000D03*
%TD*%
D14*
%TO.C,TP15*%
X202000000Y-390000000D03*
%TD*%
%TO.C,TP1*%
X117602000Y-254000000D03*
%TD*%
D19*
%TO.C,U13*%
X279474000Y-248240000D03*
X263726000Y-248240000D03*
X279474000Y-293960000D03*
X263726000Y-293960000D03*
%TD*%
D11*
%TO.C,U15*%
X274525000Y-320509000D03*
X274525000Y-321779000D03*
X274525000Y-323049000D03*
X274525000Y-324319000D03*
X279475000Y-324319000D03*
X279475000Y-323049000D03*
X279475000Y-321779000D03*
X279475000Y-320509000D03*
%TD*%
D12*
%TO.C,J8*%
X86705000Y-373660000D03*
D13*
X86705000Y-368580000D03*
X86705000Y-363500000D03*
X86705000Y-358420000D03*
X86705000Y-353340000D03*
X86705000Y-348260000D03*
X86705000Y-343180000D03*
X86705000Y-338100000D03*
X86705000Y-333020000D03*
X86705000Y-327940000D03*
%TD*%
D11*
%TO.C,U7*%
X224839000Y-316985000D03*
X224839000Y-318255000D03*
X224839000Y-319525000D03*
X224839000Y-320795000D03*
X229789000Y-320795000D03*
X229789000Y-319525000D03*
X229789000Y-318255000D03*
X229789000Y-316985000D03*
%TD*%
D12*
%TO.C,J1*%
X110155000Y-244005000D03*
D13*
X115235000Y-244005000D03*
%TD*%
D14*
%TO.C,TP17*%
X270000000Y-379000000D03*
%TD*%
D20*
%TO.C,R4*%
X388590000Y-333970000D03*
X393790000Y-333970000D03*
%TD*%
D14*
%TO.C,TP13*%
X380708000Y-292706000D03*
%TD*%
D24*
%TO.C,Q2*%
X130725000Y-327723000D03*
X125815000Y-327723000D03*
X130725000Y-326073000D03*
X125815000Y-326073000D03*
D25*
X127505000Y-326898000D03*
D26*
X128895000Y-327313000D03*
X128895000Y-326483000D03*
%TD*%
D27*
%TO.C,R10*%
X224850000Y-388250000D03*
X219650000Y-388250000D03*
%TD*%
D28*
%TO.C,C2*%
X160000000Y-384000000D03*
X160000000Y-387125000D03*
%TD*%
D29*
%TO.C,J6*%
X367400000Y-254680000D03*
D30*
X364900000Y-254680000D03*
X362900000Y-254680000D03*
X360400000Y-254680000D03*
X367400000Y-252060000D03*
X364900000Y-252060000D03*
X362900000Y-252060000D03*
X360400000Y-252060000D03*
D14*
X370470000Y-255030000D03*
X357330000Y-255030000D03*
X357330000Y-249350000D03*
X370470000Y-249350000D03*
%TD*%
D15*
%TO.C,JP3*%
X243000000Y-322900000D03*
D16*
X241000000Y-322900000D03*
%TD*%
D19*
%TO.C,U17*%
X307186000Y-248140000D03*
X291438000Y-248140000D03*
X307186000Y-293860000D03*
X291438000Y-293860000D03*
%TD*%
D11*
%TO.C,U18*%
X216275000Y-393595000D03*
X216275000Y-394865000D03*
X216275000Y-396135000D03*
X216275000Y-397405000D03*
X221225000Y-397405000D03*
X221225000Y-396135000D03*
X221225000Y-394865000D03*
X221225000Y-393595000D03*
%TD*%
D31*
%TO.C,R13*%
X177796000Y-327406000D03*
X183896000Y-327406000D03*
%TD*%
D29*
%TO.C,J3*%
X370896000Y-403584000D03*
D30*
X373396000Y-403584000D03*
X375396000Y-403584000D03*
X377896000Y-403584000D03*
X370896000Y-406204000D03*
X373396000Y-406204000D03*
X375396000Y-406204000D03*
X377896000Y-406204000D03*
D14*
X367826000Y-408914000D03*
X380966000Y-408914000D03*
X367826000Y-403234000D03*
X380966000Y-403234000D03*
%TD*%
D20*
%TO.C,R8*%
X385856000Y-298156000D03*
X391056000Y-298156000D03*
%TD*%
D11*
%TO.C,U19*%
X296017000Y-318763000D03*
X296017000Y-320033000D03*
X296017000Y-321303000D03*
X296017000Y-322573000D03*
X300967000Y-322573000D03*
X300967000Y-321303000D03*
X300967000Y-320033000D03*
X300967000Y-318763000D03*
%TD*%
D27*
%TO.C,R14*%
X280600000Y-367500000D03*
X275400000Y-367500000D03*
%TD*%
D11*
%TO.C,U6*%
X388775000Y-342733000D03*
X388775000Y-344003000D03*
X388775000Y-345273000D03*
X388775000Y-346543000D03*
X393725000Y-346543000D03*
X393725000Y-345273000D03*
X393725000Y-344003000D03*
X393725000Y-342733000D03*
%TD*%
D29*
%TO.C,J5*%
X389000000Y-254098000D03*
D30*
X386500000Y-254098000D03*
X384500000Y-254098000D03*
X382000000Y-254098000D03*
X389000000Y-251478000D03*
X386500000Y-251478000D03*
X384500000Y-251478000D03*
X382000000Y-251478000D03*
D14*
X392070000Y-248768000D03*
X378930000Y-248768000D03*
X378930000Y-254448000D03*
X392070000Y-254448000D03*
%TD*%
D32*
%TO.C,SW1*%
X154500000Y-241300000D03*
X146300000Y-241300000D03*
D33*
X152400000Y-241300000D03*
D34*
X150400000Y-241300000D03*
X148400000Y-241300000D03*
%TD*%
D14*
%TO.C,TP18*%
X392708000Y-372706000D03*
%TD*%
D15*
%TO.C,JP4*%
X309700000Y-349200000D03*
D16*
X309700000Y-347200000D03*
%TD*%
D31*
%TO.C,R12*%
X178052000Y-336804000D03*
X184152000Y-336804000D03*
%TD*%
D11*
%TO.C,U11*%
X249985000Y-314239000D03*
X249985000Y-315509000D03*
X249985000Y-316779000D03*
X249985000Y-318049000D03*
X254935000Y-318049000D03*
X254935000Y-316779000D03*
X254935000Y-315509000D03*
X254935000Y-314239000D03*
%TD*%
D35*
%TO.C,U24*%
X177800000Y-241300000D03*
D36*
X180340000Y-241300000D03*
X182880000Y-241300000D03*
X185420000Y-241300000D03*
X187960000Y-241300000D03*
X190500000Y-241300000D03*
X193040000Y-241300000D03*
X195580000Y-241300000D03*
%TD*%
D12*
%TO.C,J12*%
X233094500Y-410261000D03*
D13*
X238174500Y-410261000D03*
X243254500Y-410261000D03*
X248334500Y-410261000D03*
X253414500Y-410261000D03*
%TD*%
D37*
%TO.C,F1*%
X174726000Y-269240000D03*
X177826000Y-269240000D03*
%TD*%
D38*
%TO.C,U2*%
X112066000Y-376936000D03*
D39*
X114606000Y-376936000D03*
X117146000Y-376936000D03*
X119686000Y-376936000D03*
X122226000Y-376936000D03*
X124766000Y-376936000D03*
X127306000Y-376936000D03*
X129846000Y-376936000D03*
X132386000Y-376936000D03*
X134926000Y-376936000D03*
X137466000Y-376936000D03*
X140006000Y-376936000D03*
X142546000Y-376936000D03*
X145086000Y-376936000D03*
X147626000Y-376936000D03*
X150166000Y-376936000D03*
X152706000Y-376936000D03*
X155246000Y-376936000D03*
X157786000Y-376936000D03*
X112066000Y-351536000D03*
X114606000Y-351536000D03*
X117146000Y-351536000D03*
X119686000Y-351536000D03*
X122226000Y-351536000D03*
X124766000Y-351536000D03*
X127306000Y-351536000D03*
X129846000Y-351536000D03*
X132386000Y-351536000D03*
X134926000Y-351536000D03*
X137466000Y-351536000D03*
X140006000Y-351536000D03*
X142546000Y-351536000D03*
X145086000Y-351536000D03*
X147626000Y-351536000D03*
X150166000Y-351536000D03*
X152706000Y-351536000D03*
X155246000Y-351536000D03*
X157786000Y-351536000D03*
%TD*%
D20*
%TO.C,R9*%
X274400000Y-312000000D03*
X279600000Y-312000000D03*
%TD*%
D24*
%TO.C,Q1*%
X143595000Y-251905000D03*
X148505000Y-251905000D03*
X143595000Y-253555000D03*
X148505000Y-253555000D03*
D25*
X145285000Y-252730000D03*
D26*
X146675000Y-253145000D03*
X146675000Y-252315000D03*
%TD*%
D37*
%TO.C,F2*%
X175742000Y-262128000D03*
X178842000Y-262128000D03*
%TD*%
D15*
%TO.C,JP2*%
X166000000Y-268000000D03*
D16*
X166000000Y-266000000D03*
%TD*%
D40*
%TO.C,U21*%
X282193000Y-361023000D03*
X282193000Y-359753000D03*
X282193000Y-358483000D03*
X282193000Y-357213000D03*
X277243000Y-357213000D03*
X277243000Y-358483000D03*
X277243000Y-359753000D03*
X277243000Y-361023000D03*
%TD*%
D19*
%TO.C,U22*%
X323940000Y-352258000D03*
X323940000Y-368006000D03*
X369660000Y-352258000D03*
X369660000Y-368006000D03*
%TD*%
D14*
%TO.C,TP10*%
X226000000Y-303000000D03*
%TD*%
D29*
%TO.C,J4*%
X320096000Y-403584000D03*
D30*
X322596000Y-403584000D03*
X324596000Y-403584000D03*
X327096000Y-403584000D03*
X320096000Y-406204000D03*
X322596000Y-406204000D03*
X324596000Y-406204000D03*
X327096000Y-406204000D03*
D14*
X317026000Y-408914000D03*
X330166000Y-408914000D03*
X317026000Y-403234000D03*
X330166000Y-403234000D03*
%TD*%
D20*
%TO.C,R11*%
X296400000Y-310000000D03*
X301600000Y-310000000D03*
%TD*%
D12*
%TO.C,J11*%
X188103500Y-409651000D03*
D13*
X183023500Y-409651000D03*
X177943500Y-409651000D03*
X172863500Y-409651000D03*
X167783500Y-409651000D03*
X162703500Y-409651000D03*
X157623500Y-409651000D03*
X152543500Y-409651000D03*
X147463500Y-409651000D03*
X142383500Y-409651000D03*
%TD*%
D19*
%TO.C,U16*%
X218186000Y-334772000D03*
X202438000Y-334772000D03*
X218186000Y-380492000D03*
X202438000Y-380492000D03*
%TD*%
D14*
%TO.C,TP8*%
X110000000Y-316000000D03*
%TD*%
D15*
%TO.C,JP1*%
X118058000Y-314468000D03*
D16*
X118058000Y-316468000D03*
%TD*%
D19*
%TO.C,U1*%
X93726000Y-278130000D03*
X93726000Y-293878000D03*
X139446000Y-278130000D03*
X139446000Y-293878000D03*
%TD*%
D14*
%TO.C,TP14*%
X287000000Y-317000000D03*
%TD*%
%TO.C,TP4*%
X125000000Y-322000000D03*
%TD*%
%TO.C,TP11*%
X393500000Y-265000000D03*
%TD*%
D12*
%TO.C,J7*%
X265710000Y-409456000D03*
D13*
X270710000Y-409456000D03*
X275710000Y-409456000D03*
X280710000Y-409456000D03*
X285710000Y-409456000D03*
X290710000Y-409456000D03*
X295710000Y-409456000D03*
X300710000Y-409456000D03*
%TD*%
D11*
%TO.C,U23*%
X373225000Y-387595000D03*
X373225000Y-388865000D03*
X373225000Y-390135000D03*
X373225000Y-391405000D03*
X378175000Y-391405000D03*
X378175000Y-390135000D03*
X378175000Y-388865000D03*
X378175000Y-387595000D03*
%TD*%
M02*
