M48
; DRILL file {KiCad 7.0.1} date Sat Jun  3 21:24:48 2023
; FORMAT={-:-/ absolute / inch / decimal}
; #@! TF.CreationDate,2023-06-03T21:24:48-06:00
; #@! TF.GenerationSoftware,Kicad,Pcbnew,7.0.1
; #@! TF.FileFunction,Plated,1,4,PTH
FMAT,2
INCH
; #@! TA.AperFunction,Plated,PTH,ComponentDrill
T1C0.0118
; #@! TA.AperFunction,Plated,PTH,ViaDrill
T2C0.0157
; #@! TA.AperFunction,Plated,PTH,ViaDrill
T3C0.0197
; #@! TA.AperFunction,Plated,PTH,ViaDrill
T4C0.0236
; #@! TA.AperFunction,Plated,PTH,ViaDrill
T5C0.0276
; #@! TA.AperFunction,Plated,PTH,ComponentDrill
T6C0.0295
; #@! TA.AperFunction,Plated,PTH,ComponentDrill
T7C0.0315
; #@! TA.AperFunction,Plated,PTH,ComponentDrill
T8C0.0354
; #@! TA.AperFunction,Plated,PTH,ComponentDrill
T9C0.0362
; #@! TA.AperFunction,Plated,PTH,ViaDrill
T10C0.0394
; #@! TA.AperFunction,Plated,PTH,ComponentDrill
T11C0.0394
; #@! TA.AperFunction,Plated,PTH,ComponentDrill
T12C0.0409
; #@! TA.AperFunction,Plated,PTH,ComponentDrill
T13C0.0433
; #@! TA.AperFunction,Plated,PTH,ComponentDrill
T14C0.0512
; #@! TA.AperFunction,Plated,PTH,ComponentDrill
T15C0.0591
; #@! TA.AperFunction,Plated,PTH,ComponentDrill
T16C0.0630
; #@! TA.AperFunction,Plated,PTH,ComponentDrill
T17C0.0787
; #@! TA.AperFunction,Plated,PTH,ComponentDrill
T18C0.0906
; #@! TA.AperFunction,Plated,PTH,ComponentDrill
T19C0.1102
; #@! TA.AperFunction,Plated,PTH,ComponentDrill
T20C0.1181
%
G90
G05
T1
X4.3947Y-1.7064
X4.3947Y-1.7851
X4.3947Y-1.8639
X4.3947Y-1.9426
X4.3947Y-2.0214
X4.4715Y-1.7064
X4.4715Y-1.8639
X4.4715Y-2.0214
X4.5482Y-1.7064
X4.5482Y-1.7851
X4.5482Y-1.8639
X4.5482Y-1.9426
X4.5482Y-2.0214
X4.7884Y-1.7064
X4.7884Y-1.7851
X4.7884Y-1.8639
X4.7884Y-1.9426
X4.7884Y-2.0214
X4.8652Y-1.7064
X4.8652Y-1.8639
X4.8652Y-2.0214
X4.9419Y-1.7064
X4.9419Y-1.7851
X4.9419Y-1.8639
X4.9419Y-1.9426
X4.9419Y-2.0214
T2
X3.7169Y-5.7492
X3.8398Y-5.7488
X3.8953Y-5.6795
X3.9606Y-5.6862
X7.622Y-2.1191
X7.7839Y-2.7004
X7.8474Y-2.5925
X7.8484Y-2.5335
X7.9539Y-2.2764
X7.9744Y-2.3839
X7.9772Y-2.6217
X8.0319Y-2.7398
X8.1032Y-2.5874
X8.1035Y-2.2701
X8.2079Y-2.7425
X8.2953Y-2.3909
X8.2988Y-2.2803
X8.3016Y-2.5146
X8.3409Y-2.7063
X8.3627Y-2.5886
X8.4579Y-2.8335
X8.7147Y-2.4957
X8.9449Y-2.6457
X9.0Y-2.7323
X9.0028Y-3.1386
X9.063Y-2.4488
X9.1112Y-3.4213
X9.2414Y-2.4008
X9.2864Y-3.5502
X9.3897Y-3.4748
X9.3966Y-3.4098
X9.4307Y-3.1051
X9.4346Y-3.6083
X9.4852Y-3.3189
X9.6988Y-3.3701
X10.0571Y-7.5992
X10.1154Y-7.6339
X10.1969Y-2.6614
X10.2106Y-7.5581
X10.2362Y-2.2756
X10.2831Y-7.6382
X10.348Y-7.6402
X10.3634Y-7.5118
X10.4331Y-2.189
X10.5276Y-2.1811
X10.5563Y-7.4752
X10.6535Y-2.3622
X10.7372Y-8.5728
X10.7854Y-7.81
X10.8691Y-8.3051
X10.9591Y-2.9965
X10.9787Y-4.5614
X11.1063Y-2.5866
X11.1112Y-2.6457
X11.1339Y-8.4961
X11.1807Y-4.6996
X11.2205Y-2.6689
X11.2244Y-8.1388
X11.2354Y-5.3185
X11.29Y-4.93
X11.315Y-8.3622
X11.3571Y-2.4386
X11.3787Y-4.9799
X11.4465Y-4.9992
X11.4547Y-4.0325
X11.4587Y-3.9695
X11.4858Y-4.5984
X11.4996Y-5.1945
X11.5445Y-4.8689
X11.6614Y-4.6217
X11.7284Y-6.2835
X11.7785Y-6.0778
X11.7972Y-6.2402
X11.8091Y-6.31
X11.815Y-6.1762
X11.8504Y-7.5748
X11.8583Y-7.252
X11.9449Y-7.4252
X11.9862Y-5.9862
X12.0362Y-2.9406
X12.0551Y-3.1181
X12.0551Y-7.5748
X12.0581Y-6.4213
X12.1654Y-6.1673
X12.1663Y-6.3701
X12.2126Y-2.8425
X12.2126Y-3.0394
X12.4941Y-6.3691
X12.4941Y-6.8061
X12.622Y-3.0787
X12.6299Y-6.1575
X12.6831Y-6.0719
X12.7028Y-6.0059
X12.7244Y-3.0866
X12.7256Y-2.7035
X12.8425Y-2.9764
X12.9134Y-7.1181
X12.9587Y-6.75
X12.9843Y-7.4173
X13.0394Y-7.0315
X13.0866Y-7.2205
X13.1033Y-6.2726
X13.202Y-2.5685
X13.3012Y-4.0039
X13.311Y-3.7953
X13.3317Y-4.1457
X13.3317Y-4.2106
X13.3386Y-2.748
X13.3543Y-2.8504
X13.3701Y-2.6457
X13.3937Y-5.2047
X13.3984Y-4.0571
X13.4094Y-6.4803
X13.4437Y-4.4827
X13.4508Y-5.1319
X13.4626Y-5.0748
X13.4783Y-4.2894
X13.4803Y-6.1447
X13.5039Y-6.6142
X13.5118Y-6.3307
X13.5965Y-6.6624
X13.6112Y-4.5217
X13.7008Y-6.5827
X13.7106Y-4.1181
X13.749Y-4.2815
X13.7606Y-3.8555
X13.8455Y-6.563
X13.9222Y-4.6161
X14.0079Y-2.5906
X14.0445Y-2.2303
X14.1417Y-2.5118
X14.1575Y-2.315
X14.2067Y-6.8081
X14.2352Y-5.7963
T3
X4.0354Y-5.689
X11.1669Y-2.5142
T4
X7.8524Y-2.1447
X11.1043Y-3.2116
T5
X4.0394Y-5.7744
T6
X6.3646Y-5.6457
X6.4146Y-5.5957
X6.4646Y-5.6457
T7
X9.5705Y-3.3323
X9.5705Y-3.411
X11.1839Y-4.0598
X11.2626Y-4.0598
T8
X2.0364Y-2.2146
X2.0364Y-2.2933
X2.0364Y-2.372
T9
X12.3031Y-8.115
X12.3031Y-8.2181
X12.4016Y-8.115
X12.4016Y-8.2181
X12.4659Y-2.0713
X12.4659Y-2.1744
X12.4803Y-8.115
X12.4803Y-8.2181
X12.5644Y-2.0713
X12.5644Y-2.1744
X12.5787Y-8.115
X12.5787Y-8.2181
X12.6431Y-2.0713
X12.6431Y-2.1744
X12.7415Y-2.0713
X12.7415Y-2.1744
X13.1821Y-2.0713
X13.1821Y-2.1744
X13.187Y-8.1222
X13.187Y-8.2254
X13.2805Y-2.0713
X13.2805Y-2.1744
X13.2854Y-8.1222
X13.2854Y-8.2254
X13.3593Y-2.0713
X13.3593Y-2.1744
X13.3642Y-8.1222
X13.3642Y-8.2254
X13.4577Y-2.0713
X13.4577Y-2.1744
X13.4626Y-8.1222
X13.4626Y-8.2254
T10
X3.5776Y-5.9756
X7.0823Y-4.1492
T11
X8.3581Y-8.6073
X8.4581Y-8.6073
X8.5581Y-8.6073
X8.6581Y-8.6073
X8.7581Y-8.6073
X8.8581Y-8.6073
X8.9581Y-8.6073
X9.0581Y-8.6073
T12
X2.1276Y-6.5472
X2.1276Y-7.5472
X2.2276Y-6.5472
X2.2276Y-7.5472
X2.3276Y-6.5472
X2.3276Y-7.5472
X2.4276Y-6.5472
X2.4276Y-7.5472
X2.5276Y-6.5472
X2.5276Y-7.5472
X2.6276Y-6.5472
X2.6276Y-7.5472
X2.7276Y-6.5472
X2.7276Y-7.5472
X2.8276Y-6.5472
X2.8276Y-7.5472
X2.9276Y-6.5472
X2.9276Y-7.5472
X3.0276Y-6.5472
X3.0276Y-7.5472
X3.1276Y-6.5472
X3.1276Y-7.5472
X3.2276Y-6.5472
X3.2276Y-7.5472
X3.3276Y-6.5472
X3.3276Y-7.5472
X3.4276Y-6.5472
X3.4276Y-7.5472
X3.5276Y-6.5472
X3.5276Y-7.5472
X3.6276Y-6.5472
X3.6276Y-7.5472
X3.7276Y-6.5472
X3.7276Y-7.5472
X3.8276Y-6.5472
X3.8276Y-7.5472
X3.9276Y-6.5472
X3.9276Y-7.5472
T13
X2.6634Y-2.5142
X2.7634Y-2.5142
X2.8634Y-2.5142
X5.052Y-4.3598
X5.0551Y-3.874
X5.452Y-4.3598
X5.4567Y-3.874
X6.802Y-5.9839
X6.811Y-5.5039
X7.202Y-5.9839
X7.2126Y-5.5039
T14
X2.1683Y-2.9673
X2.1683Y-3.1673
X2.1683Y-3.3673
X2.1683Y-3.5673
X2.1683Y-3.7673
X2.2047Y-4.2488
X2.2047Y-4.4488
X2.2047Y-4.6488
X2.2047Y-4.8488
X2.2047Y-5.0488
X2.2047Y-5.2488
X2.2047Y-5.4488
X2.2047Y-5.6488
X2.2047Y-5.8488
X2.2047Y-6.0488
X2.2683Y-8.5407
X2.4683Y-8.5407
X2.6683Y-8.5407
X2.8683Y-8.5407
X3.0683Y-8.5407
X3.2683Y-8.5407
X3.4683Y-8.5407
X3.5362Y-1.7549
X3.6683Y-8.5407
X3.7362Y-1.7549
X3.8683Y-8.5407
X4.0683Y-8.5407
X4.5213Y-8.5407
X4.7213Y-8.5407
X4.9213Y-8.5407
X5.1213Y-8.5407
X5.3213Y-8.5407
X6.1008Y-8.5167
X6.3008Y-8.5167
X6.5008Y-8.5167
X6.7008Y-8.5167
X6.9008Y-8.5167
X7.1008Y-8.5167
X7.3008Y-8.5167
X7.5008Y-8.5167
X7.7008Y-8.5167
X7.9008Y-8.5167
X9.1221Y-1.774
X9.319Y-1.774
X9.5158Y-1.774
X9.7127Y-1.774
X9.9095Y-1.774
X10.1064Y-1.774
X10.3032Y-1.774
X10.5001Y-1.774
T15
X2.0364Y-2.1319
X2.0364Y-2.4547
T16
X4.9055Y-3.3756
X5.6063Y-2.9764
X5.6063Y-3.2756
X6.6614Y-5.0055
X7.3622Y-4.6063
X7.3622Y-4.9055
T17
X3.4429Y-5.4118
X3.5433Y-2.2047
X3.5827Y-2.9921
X3.5827Y-3.3858
X6.5472Y-2.7614
X6.6142Y-5.9843
X6.9409Y-2.7614
X7.8795Y-4.3598
X8.7451Y-1.9114
X9.8914Y-2.7693
X11.4311Y-8.1732
X11.7783Y-2.7035
X12.0472Y-7.2205
X12.3709Y-2.7874
X13.1407Y-3.0896
X13.5512Y-7.0945
X13.811Y-6.2362
X13.8697Y-1.8823
T18
X12.1823Y-8.1012
X12.1823Y-8.3248
X12.3451Y-1.9646
X12.3451Y-2.1882
X12.6996Y-8.1012
X12.6996Y-8.3248
X12.8624Y-1.9646
X12.8624Y-2.1882
X13.0612Y-1.9646
X13.0612Y-2.1882
X13.0661Y-8.1085
X13.0661Y-8.3321
X13.5785Y-1.9646
X13.5785Y-2.1882
X13.5835Y-8.1085
X13.5835Y-8.3321
T19
X4.4715Y-1.7773
X4.4715Y-1.9505
X4.8652Y-1.7773
X4.8652Y-1.9505
T20
X4.2459Y-1.9367
X5.0907Y-1.9367
T0
M30
