%TF.GenerationSoftware,KiCad,Pcbnew,(6.0.7)*%
%TF.CreationDate,2022-09-11T16:21:36-04:00*%
%TF.ProjectId,augertapowermanagement,61756765-7274-4617-906f-7765726d616e,rev?*%
%TF.SameCoordinates,Original*%
%TF.FileFunction,Copper,L4,Bot*%
%TF.FilePolarity,Positive*%
%FSLAX46Y46*%
G04 Gerber Fmt 4.6, Leading zero omitted, Abs format (unit mm)*
G04 Created by KiCad (PCBNEW (6.0.7)) date 2022-09-11 16:21:36*
%MOMM*%
%LPD*%
G01*
G04 APERTURE LIST*
G04 Aperture macros list*
%AMRoundRect*
0 Rectangle with rounded corners*
0 $1 Rounding radius*
0 $2 $3 $4 $5 $6 $7 $8 $9 X,Y pos of 4 corners*
0 Add a 4 corners polygon primitive as box body*
4,1,4,$2,$3,$4,$5,$6,$7,$8,$9,$2,$3,0*
0 Add four circle primitives for the rounded corners*
1,1,$1+$1,$2,$3*
1,1,$1+$1,$4,$5*
1,1,$1+$1,$6,$7*
1,1,$1+$1,$8,$9*
0 Add four rect primitives between the rounded corners*
20,1,$1+$1,$2,$3,$4,$5,0*
20,1,$1+$1,$4,$5,$6,$7,0*
20,1,$1+$1,$6,$7,$8,$9,0*
20,1,$1+$1,$8,$9,$2,$3,0*%
G04 Aperture macros list end*
%TA.AperFunction,ComponentPad*%
%ADD10R,2.200000X2.200000*%
%TD*%
%TA.AperFunction,ComponentPad*%
%ADD11O,2.200000X2.200000*%
%TD*%
%TA.AperFunction,ComponentPad*%
%ADD12R,2.600000X2.600000*%
%TD*%
%TA.AperFunction,ComponentPad*%
%ADD13C,2.600000*%
%TD*%
%TA.AperFunction,ComponentPad*%
%ADD14C,3.000000*%
%TD*%
%TA.AperFunction,ComponentPad*%
%ADD15C,3.700000*%
%TD*%
%TA.AperFunction,ComponentPad*%
%ADD16RoundRect,0.250002X-1.599998X-1.599998X1.599998X-1.599998X1.599998X1.599998X-1.599998X1.599998X0*%
%TD*%
%TA.AperFunction,ComponentPad*%
%ADD17R,4.572000X4.572000*%
%TD*%
%TA.AperFunction,ComponentPad*%
%ADD18RoundRect,0.500000X-0.500000X-0.500000X0.500000X-0.500000X0.500000X0.500000X-0.500000X0.500000X0*%
%TD*%
%TA.AperFunction,ComponentPad*%
%ADD19C,2.000000*%
%TD*%
%TA.AperFunction,ComponentPad*%
%ADD20RoundRect,0.500000X0.500000X-0.500000X0.500000X0.500000X-0.500000X0.500000X-0.500000X-0.500000X0*%
%TD*%
%TA.AperFunction,ComponentPad*%
%ADD21R,1.500000X1.500000*%
%TD*%
%TA.AperFunction,ComponentPad*%
%ADD22C,1.500000*%
%TD*%
%TA.AperFunction,ComponentPad*%
%ADD23R,1.350000X1.350000*%
%TD*%
%TA.AperFunction,ComponentPad*%
%ADD24O,1.350000X1.350000*%
%TD*%
%TA.AperFunction,ComponentPad*%
%ADD25R,1.800000X1.100000*%
%TD*%
%TA.AperFunction,ComponentPad*%
%ADD26RoundRect,0.275000X0.625000X-0.275000X0.625000X0.275000X-0.625000X0.275000X-0.625000X-0.275000X0*%
%TD*%
%TA.AperFunction,ComponentPad*%
%ADD27O,1.500000X2.500000*%
%TD*%
%TA.AperFunction,ComponentPad*%
%ADD28R,1.500000X2.500000*%
%TD*%
%TA.AperFunction,ComponentPad*%
%ADD29O,2.200000X3.500000*%
%TD*%
%TA.AperFunction,ComponentPad*%
%ADD30R,1.700000X1.700000*%
%TD*%
%TA.AperFunction,ComponentPad*%
%ADD31O,1.700000X1.700000*%
%TD*%
%TA.AperFunction,ComponentPad*%
%ADD32R,1.560000X1.560000*%
%TD*%
%TA.AperFunction,ComponentPad*%
%ADD33C,1.560000*%
%TD*%
%TA.AperFunction,ViaPad*%
%ADD34C,1.000000*%
%TD*%
%TA.AperFunction,ViaPad*%
%ADD35C,1.500000*%
%TD*%
%TA.AperFunction,ViaPad*%
%ADD36C,3.000000*%
%TD*%
%TA.AperFunction,ViaPad*%
%ADD37C,4.000000*%
%TD*%
%TA.AperFunction,Conductor*%
%ADD38C,1.000000*%
%TD*%
%TA.AperFunction,Conductor*%
%ADD39C,0.500000*%
%TD*%
%TA.AperFunction,Conductor*%
%ADD40C,3.000000*%
%TD*%
%TA.AperFunction,Conductor*%
%ADD41C,2.000000*%
%TD*%
G04 APERTURE END LIST*
D10*
%TO.P,D2,1,K*%
%TO.N,+BATT*%
X90170000Y-110744000D03*
D11*
%TO.P,D2,2,A*%
%TO.N,Net-(D2-Pad2)*%
X100330000Y-110744000D03*
%TD*%
D12*
%TO.P,J10,1,Pin_1*%
%TO.N,Net-(J10-Pad1)*%
X98907600Y-212089800D03*
D13*
%TO.P,J10,2,Pin_2*%
%TO.N,Net-(J10-Pad2)*%
X93827600Y-212089800D03*
%TO.P,J10,3,Pin_3*%
%TO.N,Net-(J10-Pad3)*%
X88747600Y-212089800D03*
%TO.P,J10,4,Pin_4*%
%TO.N,Net-(J10-Pad4)*%
X83667600Y-212089800D03*
%TO.P,J10,5,Pin_5*%
%TO.N,Net-(J10-Pad5)*%
X78587600Y-212089800D03*
%TO.P,J10,6,Pin_6*%
%TO.N,Net-(J10-Pad6)*%
X73507600Y-212089800D03*
%TO.P,J10,7,Pin_7*%
%TO.N,Net-(J10-Pad7)*%
X68427600Y-212089800D03*
%TO.P,J10,8,Pin_8*%
%TO.N,Net-(J10-Pad8)*%
X63347600Y-212089800D03*
%TO.P,J10,9,Pin_9*%
%TO.N,Net-(J10-Pad9)*%
X58267600Y-212089800D03*
%TO.P,J10,10,Pin_10*%
%TO.N,/power_conversion/3v3*%
X53187600Y-212089800D03*
%TD*%
D14*
%TO.P,TP6,1,1*%
%TO.N,/power_conversion/Buck in*%
X272999200Y-169773600D03*
%TD*%
D10*
%TO.P,D1,1,K*%
%TO.N,Net-(D1-Pad1)*%
X75946000Y-65405000D03*
D11*
%TO.P,D1,2,A*%
%TO.N,-BATT*%
X75946000Y-55245000D03*
%TD*%
D15*
%TO.P,J2,2,2*%
%TO.N,+BATT*%
X59436000Y-63369000D03*
D16*
%TO.P,J2,1,1*%
%TO.N,-BATT*%
X59436000Y-57869000D03*
%TD*%
D17*
%TO.P,U8,1,Vin*%
%TO.N,/power_conversion/Buck in*%
X289697026Y-72126000D03*
%TO.P,U8,2,GND*%
%TO.N,-BATT*%
X289697026Y-87874000D03*
%TO.P,U8,3,GND*%
X335417026Y-72126000D03*
%TO.P,U8,4,Vout*%
%TO.N,Net-(R6-Pad2)*%
X335417026Y-87874000D03*
%TD*%
D12*
%TO.P,J9,1,Pin_1*%
%TO.N,Net-(C2-Pad1)*%
X166196026Y-212261000D03*
D13*
%TO.P,J9,2,Pin_2*%
X171276026Y-212261000D03*
%TO.P,J9,3,Pin_3*%
X176356026Y-212261000D03*
%TO.P,J9,4,Pin_4*%
X181436026Y-212261000D03*
%TO.P,J9,5,Pin_5*%
X186516026Y-212261000D03*
%TD*%
D14*
%TO.P,TP9,1,1*%
%TO.N,Net-(R4-Pad2)*%
X353009200Y-128981200D03*
%TD*%
%TO.P,K1,11*%
%TO.N,Net-(JP1-Pad1)*%
X120057000Y-127129000D03*
%TO.P,K1,12*%
%TO.N,/power_conversion/Buck in*%
X109917000Y-109329000D03*
%TO.P,K1,14*%
%TO.N,unconnected-(K1-Pad14)*%
X117517000Y-109329000D03*
D18*
%TO.P,K1,A1*%
%TO.N,Net-(D2-Pad2)*%
X132717000Y-123329000D03*
D19*
%TO.P,K1,A2*%
%TO.N,+BATT*%
X132717000Y-113129000D03*
%TD*%
D17*
%TO.P,U9,1,Vin*%
%TO.N,/power_conversion/Buck in*%
X217401692Y-50140000D03*
%TO.P,U9,2,GND*%
%TO.N,-BATT*%
X201653692Y-50140000D03*
%TO.P,U9,3,GND*%
X217401692Y-95860000D03*
%TO.P,U9,4,Vout*%
%TO.N,Net-(R7-Pad2)*%
X201653692Y-95860000D03*
%TD*%
D14*
%TO.P,TP12,1,1*%
%TO.N,Net-(R7-Pad2)*%
X209346800Y-101752400D03*
%TD*%
D17*
%TO.P,U12,1,Vin*%
%TO.N,unconnected-(U12-Pad1)*%
X289697026Y-99394000D03*
%TO.P,U12,2,GND*%
%TO.N,-BATT*%
X289697026Y-115142000D03*
%TO.P,U12,3,GND*%
X335417026Y-99394000D03*
%TO.P,U12,4,Vout*%
%TO.N,Net-(R8-Pad2)*%
X335417026Y-115142000D03*
%TD*%
%TO.P,U4,1,Vin*%
%TO.N,/power_conversion/Buck in*%
X289697026Y-126826000D03*
%TO.P,U4,2,GND*%
%TO.N,-BATT*%
X289697026Y-142574000D03*
%TO.P,U4,3,GND*%
X335417026Y-126826000D03*
%TO.P,U4,4,Vout*%
%TO.N,Net-(R4-Pad2)*%
X335417026Y-142574000D03*
%TD*%
D14*
%TO.P,TP3,1,1*%
%TO.N,Net-(C2-Pad1)*%
X116332000Y-81534000D03*
%TD*%
%TO.P,TP5,1,1*%
%TO.N,Net-(C2-Pad1)*%
X140208000Y-184658000D03*
%TD*%
D17*
%TO.P,U5,1,Vin*%
%TO.N,/power_conversion/Buck in*%
X189631026Y-50140000D03*
%TO.P,U5,2,GND*%
%TO.N,-BATT*%
X173883026Y-50140000D03*
%TO.P,U5,3,GND*%
X189631026Y-95860000D03*
%TO.P,U5,4,Vout*%
%TO.N,Net-(R5-Pad2)*%
X173883026Y-95860000D03*
%TD*%
D14*
%TO.P,TP16,1,1*%
%TO.N,Net-(R11-Pad2)*%
X260908800Y-102108000D03*
%TD*%
D17*
%TO.P,U20,1,Vin*%
%TO.N,Net-(JP3-Pad1)*%
X214931026Y-136772000D03*
%TO.P,U20,2,GND*%
%TO.N,-BATT*%
X199183026Y-136772000D03*
%TO.P,U20,3,GND*%
X214931026Y-182492000D03*
%TO.P,U20,4,Vout*%
%TO.N,Net-(R14-Pad2)*%
X199183026Y-182492000D03*
%TD*%
D14*
%TO.P,TP15,1,1*%
%TO.N,Net-(R10-Pad2)*%
X195427600Y-193243200D03*
%TD*%
%TO.P,TP1,1,1*%
%TO.N,+BATT*%
X69342000Y-72390000D03*
%TD*%
D17*
%TO.P,U13,1,Vin*%
%TO.N,/power_conversion/Buck in*%
X245231026Y-50240000D03*
%TO.P,U13,2,GND*%
%TO.N,-BATT*%
X229483026Y-50240000D03*
%TO.P,U13,3,GND*%
X245231026Y-95960000D03*
%TO.P,U13,4,Vout*%
%TO.N,Net-(R9-Pad2)*%
X229483026Y-95960000D03*
%TD*%
D14*
%TO.P,K2,11*%
%TO.N,+BATT*%
X104523000Y-62442000D03*
%TO.P,K2,12*%
%TO.N,unconnected-(K2-Pad12)*%
X86723000Y-72582000D03*
%TO.P,K2,14*%
%TO.N,Net-(JP1-Pad1)*%
X86723000Y-64982000D03*
D20*
%TO.P,K2,A1*%
%TO.N,-BATT*%
X100723000Y-49782000D03*
D19*
%TO.P,K2,A2*%
%TO.N,Net-(D1-Pad1)*%
X90523000Y-49782000D03*
%TD*%
D12*
%TO.P,J8,1,Pin_1*%
%TO.N,Net-(J8-Pad1)*%
X55981800Y-175514000D03*
D13*
%TO.P,J8,2,Pin_2*%
%TO.N,Net-(J8-Pad2)*%
X55981800Y-170434000D03*
%TO.P,J8,3,Pin_3*%
%TO.N,Net-(J8-Pad3)*%
X55981800Y-165354000D03*
%TO.P,J8,4,Pin_4*%
%TO.N,Net-(J8-Pad4)*%
X55981800Y-160274000D03*
%TO.P,J8,5,Pin_5*%
%TO.N,Net-(J8-Pad5)*%
X55981800Y-155194000D03*
%TO.P,J8,6,Pin_6*%
%TO.N,Net-(J8-Pad6)*%
X55981800Y-150114000D03*
%TO.P,J8,7,Pin_7*%
%TO.N,Net-(J8-Pad7)*%
X55981800Y-145034000D03*
%TO.P,J8,8,Pin_8*%
%TO.N,Net-(J8-Pad8)*%
X55981800Y-139954000D03*
%TO.P,J8,9,Pin_9*%
%TO.N,Net-(J8-Pad9)*%
X55981800Y-134874000D03*
%TO.P,J8,10,Pin_10*%
%TO.N,Net-(J8-Pad10)*%
X55981800Y-129794000D03*
%TD*%
D12*
%TO.P,J1,1,Pin_1*%
%TO.N,-BATT*%
X75912026Y-46736200D03*
D13*
%TO.P,J1,2,Pin_2*%
%TO.N,+BATT*%
X80992026Y-46736200D03*
%TD*%
D14*
%TO.P,TP17,1,1*%
%TO.N,Net-(R14-Pad2)*%
X226974400Y-150571200D03*
%TD*%
%TO.P,TP13,1,1*%
%TO.N,Net-(R8-Pad2)*%
X346465026Y-94706000D03*
%TD*%
D21*
%TO.P,J6,1,VBUS1*%
%TO.N,/power_conversion/pi2*%
X354934400Y-55952800D03*
D22*
%TO.P,J6,2,D1-*%
%TO.N,unconnected-(J6-Pad2)*%
X352434400Y-55952800D03*
%TO.P,J6,3,D1+*%
%TO.N,unconnected-(J6-Pad3)*%
X350434400Y-55952800D03*
%TO.P,J6,4,GND1*%
%TO.N,-BATT*%
X347934400Y-55952800D03*
%TO.P,J6,5,VBUS2*%
%TO.N,/power_conversion/pi1*%
X354934400Y-53332800D03*
%TO.P,J6,6,D2-*%
%TO.N,unconnected-(J6-Pad6)*%
X352434400Y-53332800D03*
%TO.P,J6,7,D2+*%
%TO.N,unconnected-(J6-Pad7)*%
X350434400Y-53332800D03*
%TO.P,J6,8,GND2*%
%TO.N,-BATT*%
X347934400Y-53332800D03*
D14*
%TO.P,J6,9,Shield*%
X358004400Y-56302800D03*
X344864400Y-56302800D03*
X344864400Y-50622800D03*
X358004400Y-50622800D03*
%TD*%
D23*
%TO.P,JP3,1,A*%
%TO.N,Net-(JP3-Pad1)*%
X208940400Y-130556000D03*
D24*
%TO.P,JP3,2,B*%
%TO.N,/power_conversion/Buck in*%
X210940400Y-130556000D03*
%TD*%
D17*
%TO.P,U17,1,Vin*%
%TO.N,/power_conversion/Buck in*%
X272943026Y-50140000D03*
%TO.P,U17,2,GND*%
%TO.N,-BATT*%
X257195026Y-50140000D03*
%TO.P,U17,3,GND*%
X272943026Y-95860000D03*
%TO.P,U17,4,Vout*%
%TO.N,Net-(R11-Pad2)*%
X257195026Y-95860000D03*
%TD*%
D21*
%TO.P,J3,1,VBUS1*%
%TO.N,/power_conversion/N4*%
X336653026Y-205584000D03*
D22*
%TO.P,J3,2,D1-*%
%TO.N,unconnected-(J3-Pad2)*%
X339153026Y-205584000D03*
%TO.P,J3,3,D1+*%
%TO.N,unconnected-(J3-Pad3)*%
X341153026Y-205584000D03*
%TO.P,J3,4,GND1*%
%TO.N,-BATT*%
X343653026Y-205584000D03*
%TO.P,J3,5,VBUS2*%
%TO.N,/power_conversion/N3*%
X336653026Y-208204000D03*
%TO.P,J3,6,D2-*%
%TO.N,unconnected-(J3-Pad6)*%
X339153026Y-208204000D03*
%TO.P,J3,7,D2+*%
%TO.N,unconnected-(J3-Pad7)*%
X341153026Y-208204000D03*
%TO.P,J3,8,GND2*%
%TO.N,-BATT*%
X343653026Y-208204000D03*
D14*
%TO.P,J3,9,Shield*%
X333583026Y-210914000D03*
X346723026Y-210914000D03*
X333583026Y-205234000D03*
X346723026Y-205234000D03*
%TD*%
D21*
%TO.P,J5,1,VBUS1*%
%TO.N,/power_conversion/spare2*%
X331160000Y-56003600D03*
D22*
%TO.P,J5,2,D1-*%
%TO.N,unconnected-(J5-Pad2)*%
X328660000Y-56003600D03*
%TO.P,J5,3,D1+*%
%TO.N,unconnected-(J5-Pad3)*%
X326660000Y-56003600D03*
%TO.P,J5,4,GND1*%
%TO.N,-BATT*%
X324160000Y-56003600D03*
%TO.P,J5,5,VBUS2*%
%TO.N,/power_conversion/pi3*%
X331160000Y-53383600D03*
%TO.P,J5,6,D2-*%
%TO.N,unconnected-(J5-Pad6)*%
X328660000Y-53383600D03*
%TO.P,J5,7,D2+*%
%TO.N,unconnected-(J5-Pad7)*%
X326660000Y-53383600D03*
%TO.P,J5,8,GND2*%
%TO.N,-BATT*%
X324160000Y-53383600D03*
D14*
%TO.P,J5,9,Shield*%
X334230000Y-50673600D03*
X321090000Y-50673600D03*
X321090000Y-56353600D03*
X334230000Y-56353600D03*
%TD*%
D25*
%TO.P,Q1,1,E*%
%TO.N,-BATT*%
X99256800Y-122682000D03*
D26*
%TO.P,Q1,2,B*%
%TO.N,Net-(Q1-Pad2)*%
X97186800Y-121412000D03*
%TO.P,Q1,3,C*%
%TO.N,Net-(D2-Pad2)*%
X99256800Y-120142000D03*
%TD*%
D27*
%TO.P,SW1,3,C*%
%TO.N,unconnected-(SW1-Pad3)*%
X114157026Y-43300000D03*
%TO.P,SW1,2,B*%
%TO.N,+BATT*%
X116157026Y-43300000D03*
D28*
%TO.P,SW1,1,A*%
%TO.N,Net-(D1-Pad1)*%
X118157026Y-43300000D03*
D29*
%TO.P,SW1,*%
%TO.N,*%
X112057026Y-43300000D03*
X120257026Y-43300000D03*
%TD*%
D14*
%TO.P,TP18,1,1*%
%TO.N,Net-(R15-Pad2)*%
X347624400Y-172008800D03*
%TD*%
D23*
%TO.P,JP4,1,A*%
%TO.N,Net-(JP4-Pad1)*%
X280314400Y-153720800D03*
D24*
%TO.P,JP4,2,B*%
%TO.N,/power_conversion/Buck in*%
X278314400Y-153720800D03*
%TD*%
D30*
%TO.P,U24,1,SDA*%
%TO.N,/power_conversion/SDA*%
X143557026Y-43300000D03*
D31*
%TO.P,U24,2,SCL*%
%TO.N,/power_conversion/SCL*%
X146097026Y-43300000D03*
%TO.P,U24,3,Alert*%
%TO.N,unconnected-(U24-Pad3)*%
X148637026Y-43300000D03*
%TO.P,U24,4,GND*%
%TO.N,-BATT*%
X151177026Y-43300000D03*
%TO.P,U24,5,A2*%
%TO.N,unconnected-(U24-Pad5)*%
X153717026Y-43300000D03*
%TO.P,U24,6,A1*%
%TO.N,unconnected-(U24-Pad6)*%
X156257026Y-43300000D03*
%TO.P,U24,7,A0*%
%TO.N,unconnected-(U24-Pad7)*%
X158797026Y-43300000D03*
%TO.P,U24,8,VDD*%
%TO.N,/power_conversion/3v3*%
X161337026Y-43300000D03*
%TD*%
D12*
%TO.P,J12,1,Pin_1*%
%TO.N,-BATT*%
X198851526Y-212261000D03*
D13*
%TO.P,J12,2,Pin_2*%
X203931526Y-212261000D03*
%TO.P,J12,3,Pin_3*%
X209011526Y-212261000D03*
%TO.P,J12,4,Pin_4*%
X214091526Y-212261000D03*
%TO.P,J12,5,Pin_5*%
X219171526Y-212261000D03*
%TD*%
D32*
%TO.P,U2,1,3V3*%
%TO.N,/power_conversion/3v3*%
X77823026Y-178936000D03*
D33*
%TO.P,U2,2,EN*%
%TO.N,Net-(J10-Pad9)*%
X80363026Y-178936000D03*
%TO.P,U2,3,SENSOR_VP*%
%TO.N,Net-(J10-Pad8)*%
X82903026Y-178936000D03*
%TO.P,U2,4,SENSOR_VN*%
%TO.N,Net-(J10-Pad7)*%
X85443026Y-178936000D03*
%TO.P,U2,5,IO34*%
%TO.N,Net-(J10-Pad6)*%
X87983026Y-178936000D03*
%TO.P,U2,6,IO35*%
%TO.N,Net-(J10-Pad5)*%
X90523026Y-178936000D03*
%TO.P,U2,7,IO32*%
%TO.N,Net-(J10-Pad4)*%
X93063026Y-178936000D03*
%TO.P,U2,8,IO33*%
%TO.N,Net-(J10-Pad3)*%
X95603026Y-178936000D03*
%TO.P,U2,9,IO25*%
%TO.N,Net-(J10-Pad2)*%
X98143026Y-178936000D03*
%TO.P,U2,10,IO26*%
%TO.N,Net-(J10-Pad1)*%
X100683026Y-178936000D03*
%TO.P,U2,11,IO27*%
%TO.N,Net-(J11-Pad10)*%
X103223026Y-178936000D03*
%TO.P,U2,12,IO14*%
%TO.N,Net-(J11-Pad9)*%
X105763026Y-178936000D03*
%TO.P,U2,13,IO12*%
%TO.N,Net-(J11-Pad8)*%
X108303026Y-178936000D03*
%TO.P,U2,14,GND1*%
%TO.N,-BATT*%
X110843026Y-178936000D03*
%TO.P,U2,15,IO13*%
%TO.N,Net-(J11-Pad7)*%
X113383026Y-178936000D03*
%TO.P,U2,16,SD2*%
%TO.N,Net-(J11-Pad6)*%
X115923026Y-178936000D03*
%TO.P,U2,17,SD3*%
%TO.N,Net-(J11-Pad5)*%
X118463026Y-178936000D03*
%TO.P,U2,18,CMD*%
%TO.N,Net-(J11-Pad4)*%
X121003026Y-178936000D03*
%TO.P,U2,19,EXT_5V*%
%TO.N,Net-(C2-Pad1)*%
X123543026Y-178936000D03*
%TO.P,U2,20,GND3*%
%TO.N,-BATT*%
X77823026Y-153536000D03*
%TO.P,U2,21,IO23*%
%TO.N,Net-(R1-Pad2)*%
X80363026Y-153536000D03*
%TO.P,U2,22,SCL*%
%TO.N,/power_conversion/SCL*%
X82903026Y-153536000D03*
%TO.P,U2,23,TXD0*%
%TO.N,unconnected-(U2-Pad23)*%
X85443026Y-153536000D03*
%TO.P,U2,24,RXD0*%
%TO.N,unconnected-(U2-Pad24)*%
X87983026Y-153536000D03*
%TO.P,U2,25,SDA*%
%TO.N,/power_conversion/SDA*%
X90523026Y-153536000D03*
%TO.P,U2,26,GND2*%
%TO.N,Net-(J8-Pad1)*%
X93063026Y-153536000D03*
%TO.P,U2,27,IO19*%
%TO.N,Net-(J8-Pad2)*%
X95603026Y-153536000D03*
%TO.P,U2,28,IO18*%
%TO.N,Net-(J8-Pad3)*%
X98143026Y-153536000D03*
%TO.P,U2,29,IO5*%
%TO.N,Net-(J8-Pad4)*%
X100683026Y-153536000D03*
%TO.P,U2,30,IO17*%
%TO.N,Net-(J8-Pad5)*%
X103223026Y-153536000D03*
%TO.P,U2,31,IO16*%
%TO.N,Net-(J8-Pad6)*%
X105763026Y-153536000D03*
%TO.P,U2,32,IO4*%
%TO.N,Net-(J8-Pad7)*%
X108303026Y-153536000D03*
%TO.P,U2,33,IO0*%
%TO.N,Net-(J8-Pad8)*%
X110843026Y-153536000D03*
%TO.P,U2,34,IO2*%
%TO.N,Net-(J8-Pad9)*%
X113383026Y-153536000D03*
%TO.P,U2,35,IO15*%
%TO.N,Net-(J8-Pad10)*%
X115923026Y-153536000D03*
%TO.P,U2,36,SD1*%
%TO.N,Net-(J11-Pad3)*%
X118463026Y-153536000D03*
%TO.P,U2,37,SD0*%
%TO.N,Net-(J11-Pad2)*%
X121003026Y-153536000D03*
%TO.P,U2,38,CLK*%
%TO.N,Net-(J11-Pad1)*%
X123543026Y-153536000D03*
%TD*%
D17*
%TO.P,U22,1,Vin*%
%TO.N,Net-(JP4-Pad1)*%
X289697026Y-154258000D03*
%TO.P,U22,2,GND*%
%TO.N,-BATT*%
X289697026Y-170006000D03*
%TO.P,U22,3,GND*%
X335417026Y-154258000D03*
%TO.P,U22,4,Vout*%
%TO.N,Net-(R15-Pad2)*%
X335417026Y-170006000D03*
%TD*%
D14*
%TO.P,TP10,1,1*%
%TO.N,Net-(R5-Pad2)*%
X178206400Y-103682800D03*
%TD*%
D21*
%TO.P,J4,1,VBUS1*%
%TO.N,/power_conversion/N1*%
X285853026Y-205584000D03*
D22*
%TO.P,J4,2,D1-*%
%TO.N,unconnected-(J4-Pad2)*%
X288353026Y-205584000D03*
%TO.P,J4,3,D1+*%
%TO.N,unconnected-(J4-Pad3)*%
X290353026Y-205584000D03*
%TO.P,J4,4,GND1*%
%TO.N,-BATT*%
X292853026Y-205584000D03*
%TO.P,J4,5,VBUS2*%
%TO.N,/power_conversion/N2*%
X285853026Y-208204000D03*
%TO.P,J4,6,D2-*%
%TO.N,unconnected-(J4-Pad6)*%
X288353026Y-208204000D03*
%TO.P,J4,7,D2+*%
%TO.N,unconnected-(J4-Pad7)*%
X290353026Y-208204000D03*
%TO.P,J4,8,GND2*%
%TO.N,-BATT*%
X292853026Y-208204000D03*
D14*
%TO.P,J4,9,Shield*%
X282783026Y-210914000D03*
X295923026Y-210914000D03*
X282783026Y-205234000D03*
X295923026Y-205234000D03*
%TD*%
D12*
%TO.P,J11,1,Pin_1*%
%TO.N,Net-(J11-Pad1)*%
X153860526Y-211651000D03*
D13*
%TO.P,J11,2,Pin_2*%
%TO.N,Net-(J11-Pad2)*%
X148780526Y-211651000D03*
%TO.P,J11,3,Pin_3*%
%TO.N,Net-(J11-Pad3)*%
X143700526Y-211651000D03*
%TO.P,J11,4,Pin_4*%
%TO.N,Net-(J11-Pad4)*%
X138620526Y-211651000D03*
%TO.P,J11,5,Pin_5*%
%TO.N,Net-(J11-Pad5)*%
X133540526Y-211651000D03*
%TO.P,J11,6,Pin_6*%
%TO.N,Net-(J11-Pad6)*%
X128460526Y-211651000D03*
%TO.P,J11,7,Pin_7*%
%TO.N,Net-(J11-Pad7)*%
X123380526Y-211651000D03*
%TO.P,J11,8,Pin_8*%
%TO.N,Net-(J11-Pad8)*%
X118300526Y-211651000D03*
%TO.P,J11,9,Pin_9*%
%TO.N,Net-(J11-Pad9)*%
X113220526Y-211651000D03*
%TO.P,J11,10,Pin_10*%
%TO.N,Net-(J11-Pad10)*%
X108140526Y-211651000D03*
%TD*%
D17*
%TO.P,U16,1,Vin*%
%TO.N,/power_conversion/Buck in*%
X183943026Y-136772000D03*
%TO.P,U16,2,GND*%
%TO.N,-BATT*%
X168195026Y-136772000D03*
%TO.P,U16,3,GND*%
X183943026Y-182492000D03*
%TO.P,U16,4,Vout*%
%TO.N,Net-(R10-Pad2)*%
X168195026Y-182492000D03*
%TD*%
%TO.P,U1,1,Vin*%
%TO.N,+BATT*%
X59483026Y-80130000D03*
%TO.P,U1,2,GND*%
%TO.N,-BATT*%
X59483026Y-95878000D03*
%TO.P,U1,3,GND*%
X105203026Y-80130000D03*
%TO.P,U1,4,Vout*%
%TO.N,Net-(C2-Pad1)*%
X105203026Y-95878000D03*
%TD*%
D14*
%TO.P,TP14,1,1*%
%TO.N,Net-(R9-Pad2)*%
X236982000Y-101803200D03*
%TD*%
%TO.P,TP4,1,1*%
%TO.N,Net-(D2-Pad2)*%
X80873600Y-118465600D03*
%TD*%
%TO.P,TP11,1,1*%
%TO.N,Net-(R6-Pad2)*%
X359968800Y-77165200D03*
%TD*%
D12*
%TO.P,J7,1,Pin_1*%
%TO.N,/power_conversion/routerp*%
X231467026Y-211456000D03*
D13*
%TO.P,J7,2,Pin_2*%
%TO.N,-BATT*%
X236467026Y-211456000D03*
%TO.P,J7,3,Pin_3*%
%TO.N,/power_conversion/routerp*%
X241467026Y-211456000D03*
%TO.P,J7,4,Pin_4*%
%TO.N,-BATT*%
X246467026Y-211456000D03*
%TO.P,J7,5,Pin_5*%
%TO.N,/power_conversion/spare1*%
X251467026Y-211456000D03*
%TO.P,J7,6,Pin_6*%
%TO.N,-BATT*%
X256467026Y-211456000D03*
%TO.P,J7,7,Pin_7*%
%TO.N,/power_conversion/netpw*%
X261467026Y-211456000D03*
%TO.P,J7,8,Pin_8*%
%TO.N,-BATT*%
X266467026Y-211456000D03*
%TD*%
D34*
%TO.N,-BATT*%
X185623200Y-119786400D03*
%TO.N,/power_conversion/3v3*%
X150317200Y-119024400D03*
X174929800Y-119049800D03*
D35*
%TO.N,Net-(R1-Pad2)*%
X94246400Y-126428800D03*
D34*
%TO.N,-BATT*%
X150215600Y-128828800D03*
%TO.N,/power_conversion/3v3*%
X344424000Y-81381600D03*
X343321190Y-152080410D03*
X343321190Y-185841190D03*
X268630400Y-121564400D03*
X243484400Y-140004800D03*
X357936800Y-121513600D03*
X212547200Y-121564400D03*
X227076000Y-176276000D03*
X240487200Y-121564400D03*
X344322400Y-121564400D03*
X185826400Y-121564400D03*
%TO.N,-BATT*%
X361696000Y-83261200D03*
X244703600Y-116332000D03*
X353415600Y-81991200D03*
X271830800Y-182321200D03*
X238963200Y-140309600D03*
D36*
X125720000Y-191810000D03*
D34*
X210100564Y-116543436D03*
X350672400Y-107391200D03*
X274040600Y-116713000D03*
D36*
%TO.N,+BATT*%
X128625600Y-60502800D03*
%TO.N,/power_conversion/N4*%
X264100000Y-112124800D03*
%TO.N,/power_conversion/N3*%
X235499600Y-111884682D03*
%TO.N,/power_conversion/N1*%
X178333400Y-114935000D03*
%TO.N,/power_conversion/N2*%
X207476459Y-111699941D03*
%TO.N,/power_conversion/pi3*%
X352044000Y-95662835D03*
%TO.N,/power_conversion/pi2*%
X354347026Y-65768974D03*
%TO.N,/power_conversion/pi1*%
X357632000Y-129540000D03*
%TO.N,/power_conversion/routerp*%
X265531600Y-188061600D03*
D37*
%TO.N,/power_conversion/spare1*%
X240893600Y-162864800D03*
D36*
%TO.N,/power_conversion/spare2*%
X355854000Y-191820800D03*
D34*
%TO.N,/power_conversion/SCL*%
X263652000Y-120091200D03*
X350215200Y-149098000D03*
X235539800Y-120111000D03*
X205861400Y-120111000D03*
X246634000Y-179578000D03*
X345846400Y-120142000D03*
X173075600Y-117805200D03*
X245592600Y-137693400D03*
X340410800Y-198831200D03*
X246634000Y-184404000D03*
X350266000Y-85394800D03*
X149656800Y-134315200D03*
X175209200Y-122275600D03*
%TO.N,/power_conversion/SDA*%
X175107600Y-120446800D03*
X247497600Y-138938000D03*
X262229600Y-116687600D03*
X341630000Y-108458000D03*
X233380564Y-117393436D03*
X204749400Y-117119400D03*
X340055200Y-183134000D03*
X340055200Y-147370800D03*
X262001000Y-181483000D03*
X347319600Y-83261200D03*
X149961600Y-146913600D03*
D36*
%TO.N,Net-(JP1-Pad1)*%
X124154000Y-70580000D03*
X124022000Y-99650400D03*
%TD*%
D38*
%TO.N,/power_conversion/3v3*%
X212293200Y-121818400D02*
X186080400Y-121818400D01*
X212547200Y-121564400D02*
X212293200Y-121818400D01*
X186080400Y-121818400D02*
X185826400Y-121564400D01*
D39*
%TO.N,Net-(D2-Pad2)*%
X98856800Y-120142000D02*
X82550000Y-120142000D01*
X82550000Y-120142000D02*
X80873600Y-118465600D01*
D38*
X100330000Y-118668800D02*
X100330000Y-110744000D01*
X98856800Y-120142000D02*
X100330000Y-118668800D01*
D39*
%TO.N,Net-(D1-Pad1)*%
X118157026Y-44250574D02*
X118157026Y-43300000D01*
X114096800Y-48310800D02*
X118157026Y-44250574D01*
X91994200Y-48310800D02*
X114096800Y-48310800D01*
X90523000Y-49782000D02*
X91994200Y-48310800D01*
D40*
%TO.N,Net-(JP1-Pad1)*%
X86723000Y-66707800D02*
X86723000Y-64982000D01*
X87579200Y-67564000D02*
X86723000Y-66707800D01*
X121138000Y-67564000D02*
X87579200Y-67564000D01*
X124154000Y-70580000D02*
X121138000Y-67564000D01*
D38*
%TO.N,/power_conversion/3v3*%
X150317200Y-97470092D02*
X161337026Y-86450266D01*
X150317200Y-119024400D02*
X150317200Y-97470092D01*
X174904400Y-119024400D02*
X150317200Y-119024400D01*
X161337026Y-86450266D02*
X161337026Y-43300000D01*
X174929800Y-119049800D02*
X174904400Y-119024400D01*
D40*
%TO.N,Net-(JP1-Pad1)*%
X124022000Y-123164000D02*
X120057000Y-127129000D01*
X124022000Y-99650400D02*
X124022000Y-123164000D01*
D38*
%TO.N,/power_conversion/3v3*%
X343321190Y-122565610D02*
X343321190Y-152080410D01*
X343321190Y-152080410D02*
X343321190Y-185841190D01*
X344322400Y-121564400D02*
X343321190Y-122565610D01*
D39*
%TO.N,Net-(C2-Pad1)*%
X116157026Y-81359026D02*
X116332000Y-81534000D01*
D38*
X105203026Y-92313026D02*
X105203026Y-95878000D01*
X131826000Y-154178000D02*
X131826000Y-170653026D01*
X105203026Y-95878000D02*
X105203026Y-127555026D01*
X131826000Y-170653026D02*
X123543026Y-178936000D01*
X105203026Y-127555026D02*
X131826000Y-154178000D01*
X116157026Y-81359026D02*
X105203026Y-92313026D01*
%TO.N,/power_conversion/N4*%
X266709200Y-112124800D02*
X264100000Y-112124800D01*
X336653026Y-205584000D02*
X336653026Y-182068626D01*
X336653026Y-182068626D02*
X266709200Y-112124800D01*
D41*
%TO.N,/power_conversion/N3*%
X229514400Y-113182400D02*
X229514400Y-116840000D01*
X320878400Y-208204000D02*
X336653026Y-208204000D01*
X229514400Y-116840000D02*
X320878400Y-208204000D01*
X230812118Y-111884682D02*
X229514400Y-113182400D01*
X235499600Y-111884682D02*
X230812118Y-111884682D01*
%TO.N,/power_conversion/N1*%
X284703027Y-201723419D02*
X285853026Y-202873418D01*
X285853026Y-202873418D02*
X285853026Y-205584000D01*
X218033600Y-192532000D02*
X218033600Y-198780400D01*
X218033600Y-198780400D02*
X220976619Y-201723419D01*
X178333400Y-114935000D02*
X178333400Y-152831800D01*
X178333400Y-152831800D02*
X218033600Y-192532000D01*
X220976619Y-201723419D02*
X284703027Y-201723419D01*
%TO.N,/power_conversion/N2*%
X221030800Y-127812800D02*
X221030800Y-125210930D01*
X220878400Y-125058530D02*
X220878400Y-118719600D01*
X213858741Y-111699941D02*
X207476459Y-111699941D01*
X292021309Y-214630000D02*
X285853026Y-208461717D01*
X285853026Y-208461717D02*
X285853026Y-208204000D01*
X305308000Y-209188392D02*
X305308000Y-214630000D01*
X293725600Y-200507600D02*
X296627208Y-200507600D01*
X305308000Y-214630000D02*
X292021309Y-214630000D01*
X221030800Y-125210930D02*
X220878400Y-125058530D01*
X220878400Y-118719600D02*
X213858741Y-111699941D01*
X221030800Y-127812800D02*
X293725600Y-200507600D01*
X296627208Y-200507600D02*
X305308000Y-209188392D01*
%TO.N,/power_conversion/pi2*%
X354347026Y-65768974D02*
X354934400Y-65181600D01*
X354934400Y-65181600D02*
X354934400Y-55952800D01*
%TO.N,/power_conversion/pi1*%
X341172800Y-46888400D02*
X341172800Y-66649600D01*
X360019600Y-85496400D02*
X360019600Y-127152400D01*
X360019600Y-127152400D02*
X357632000Y-129540000D01*
X341172800Y-66649600D02*
X360019600Y-85496400D01*
X348747717Y-46888400D02*
X341172800Y-46888400D01*
X354934400Y-53075083D02*
X348747717Y-46888400D01*
X354934400Y-53332800D02*
X354934400Y-53075083D01*
D38*
%TO.N,Net-(JP3-Pad1)*%
X208757026Y-130598000D02*
X214931026Y-136772000D01*
D41*
%TO.N,Net-(R10-Pad2)*%
X178946226Y-193243200D02*
X195427600Y-193243200D01*
X168195026Y-182492000D02*
X178946226Y-193243200D01*
D39*
%TO.N,/power_conversion/SCL*%
X350215200Y-149098000D02*
X350215200Y-196596000D01*
X149656800Y-134315200D02*
X147080790Y-131739190D01*
X347827600Y-198831200D02*
X347980000Y-198831200D01*
X350215200Y-124510800D02*
X350215200Y-149098000D01*
X147080790Y-44283764D02*
X146097026Y-43300000D01*
X347827600Y-198831200D02*
X340410800Y-198831200D01*
X347980000Y-198831200D02*
X350215200Y-196596000D01*
X147080790Y-131739190D02*
X147080790Y-44283764D01*
X345846400Y-120142000D02*
X350215200Y-124510800D01*
%TO.N,/power_conversion/SDA*%
X340055200Y-110032800D02*
X341630000Y-108458000D01*
X340055200Y-111252000D02*
X340055200Y-110032800D01*
X340055200Y-147370800D02*
X340055200Y-111252000D01*
X340055200Y-183134000D02*
X340055200Y-147370800D01*
X143557026Y-43300000D02*
X143557026Y-140509026D01*
X340055200Y-90525600D02*
X347319600Y-83261200D01*
X175082200Y-120446800D02*
X175107600Y-120446800D01*
X149961600Y-146913600D02*
X149961600Y-145567400D01*
X340055200Y-111252000D02*
X340055200Y-90525600D01*
X143557026Y-140509026D02*
X149961600Y-146913600D01*
X149961600Y-145567400D02*
X175082200Y-120446800D01*
D40*
%TO.N,Net-(JP1-Pad1)*%
X124022000Y-70712000D02*
X124022000Y-99650400D01*
D39*
X124022000Y-70712000D02*
X124154000Y-70580000D01*
%TO.N,Net-(D1-Pad1)*%
X75946000Y-65405000D02*
X78994000Y-65405000D01*
X90523000Y-53876000D02*
X90523000Y-49782000D01*
X78994000Y-65405000D02*
X90523000Y-53876000D01*
%TD*%
M02*
