M48
; DRILL file {KiCad (6.0.7)} date Sun Sep 11 16:21:41 2022
; FORMAT={-:-/ absolute / inch / decimal}
; #@! TF.CreationDate,2022-09-11T16:21:41-04:00
; #@! TF.GenerationSoftware,Kicad,Pcbnew,(6.0.7)
; #@! TF.FileFunction,Plated,1,4,PTH
FMAT,2
INCH
; #@! TA.AperFunction,Plated,PTH,ViaDrill
T1C0.0157
; #@! TA.AperFunction,Plated,PTH,ViaDrill
T2C0.0236
; #@! TA.AperFunction,Plated,PTH,ComponentDrill
T3C0.0295
; #@! TA.AperFunction,Plated,PTH,ComponentDrill
T4C0.0315
; #@! TA.AperFunction,Plated,PTH,ComponentDrill
T5C0.0354
; #@! TA.AperFunction,Plated,PTH,ComponentDrill
T6C0.0362
; #@! TA.AperFunction,Plated,PTH,ComponentDrill
T7C0.0394
; #@! TA.AperFunction,Plated,PTH,ComponentDrill
T8C0.0409
; #@! TA.AperFunction,Plated,PTH,ComponentDrill
T9C0.0433
; #@! TA.AperFunction,Plated,PTH,ComponentDrill
T10C0.0472
; #@! TA.AperFunction,Plated,PTH,ComponentDrill
T11C0.0512
; #@! TA.AperFunction,Plated,PTH,ComponentDrill
T12C0.0591
; #@! TA.AperFunction,Plated,PTH,ComponentDrill
T13C0.0630
; #@! TA.AperFunction,Plated,PTH,ComponentDrill
T14C0.0709
; #@! TA.AperFunction,Plated,PTH,ViaDrill
T15C0.0787
; #@! TA.AperFunction,Plated,PTH,ComponentDrill
T16C0.0787
; #@! TA.AperFunction,Plated,PTH,ComponentDrill
T17C0.0906
%
G90
G05
T1
X5.892Y-5.288
X5.904Y-5.784
X5.914Y-5.072
X5.918Y-4.686
X6.814Y-4.638
X6.887Y-4.687
X6.894Y-4.742
X6.898Y-4.814
X7.308Y-4.716
X7.316Y-4.786
X8.061Y-4.611
X8.1048Y-4.7288
X8.2717Y-4.5883
X8.368Y-4.786
X8.94Y-6.94
X9.1882Y-4.6218
X9.2732Y-4.7288
X9.408Y-5.524
X9.468Y-4.786
X9.586Y-5.512
X9.634Y-4.58
X9.669Y-5.421
X9.71Y-7.07
X9.71Y-7.26
X9.744Y-5.47
X10.315Y-7.145
X10.324Y-4.594
X10.38Y-4.728
X10.576Y-4.786
X10.702Y-7.178
X10.789Y-4.595
X13.388Y-5.802
X13.388Y-7.21
X13.402Y-7.828
X13.45Y-4.27
X13.5166Y-5.9874
X13.5166Y-7.3166
X13.556Y-4.786
X13.56Y-3.204
X13.616Y-4.73
X13.674Y-3.278
X13.788Y-5.87
X13.79Y-3.362
X13.806Y-4.228
X13.914Y-3.228
X14.092Y-4.784
X14.24Y-3.278
T2
X3.7105Y-4.9775
T3
X3.842Y-4.78
X3.892Y-4.73
X3.892Y-4.83
T4
X8.226Y-5.14
X8.3047Y-5.14
X10.9573Y-6.052
X11.036Y-6.052
T5
X4.4944Y-1.7047
X4.5731Y-1.7047
X4.6519Y-1.7047
T6
X11.2541Y-8.0939
X11.2541Y-8.197
X11.3525Y-8.0939
X11.3525Y-8.197
X11.4312Y-8.0939
X11.4312Y-8.197
X11.5296Y-8.0939
X11.5296Y-8.197
X12.7622Y-2.1017
X12.7622Y-2.2049
X12.8606Y-2.1017
X12.8606Y-2.2049
X12.9394Y-2.1017
X12.9394Y-2.2049
X13.0378Y-2.1017
X13.0378Y-2.2049
X13.2541Y-8.0939
X13.2541Y-8.197
X13.3525Y-8.0939
X13.3525Y-8.197
X13.4312Y-8.0939
X13.4312Y-8.197
X13.5296Y-8.0939
X13.5296Y-8.197
X13.6982Y-2.0997
X13.6982Y-2.2029
X13.7966Y-2.0997
X13.7966Y-2.2029
X13.8754Y-2.0997
X13.8754Y-2.2029
X13.9738Y-2.0997
X13.9738Y-2.2029
T7
X5.6519Y-1.7047
X5.7519Y-1.7047
X5.8519Y-1.7047
X5.9519Y-1.7047
X6.0519Y-1.7047
X6.1519Y-1.7047
X6.2519Y-1.7047
X6.3519Y-1.7047
T8
X3.0639Y-6.0447
X3.0639Y-7.0447
X3.1639Y-6.0447
X3.1639Y-7.0447
X3.2639Y-6.0447
X3.2639Y-7.0447
X3.3639Y-6.0447
X3.3639Y-7.0447
X3.4639Y-6.0447
X3.4639Y-7.0447
X3.5639Y-6.0447
X3.5639Y-7.0447
X3.6639Y-6.0447
X3.6639Y-7.0447
X3.7639Y-6.0447
X3.7639Y-7.0447
X3.8639Y-6.0447
X3.8639Y-7.0447
X3.9639Y-6.0447
X3.9639Y-7.0447
X4.0639Y-6.0447
X4.0639Y-7.0447
X4.1639Y-6.0447
X4.1639Y-7.0447
X4.2639Y-6.0447
X4.2639Y-7.0447
X4.3639Y-6.0447
X4.3639Y-7.0447
X4.4639Y-6.0447
X4.4639Y-7.0447
X4.5639Y-6.0447
X4.5639Y-7.0447
X4.6639Y-6.0447
X4.6639Y-7.0447
X4.7639Y-6.0447
X4.7639Y-7.0447
X4.8639Y-6.0447
X4.8639Y-7.0447
T9
X2.99Y-2.175
X2.99Y-2.575
X3.55Y-4.36
X3.5639Y-1.9599
X3.95Y-4.36
X3.9655Y-1.9599
X5.2251Y-4.4539
X5.2251Y-4.8555
T10
X2.3419Y-3.1547
X2.3419Y-3.7747
X4.1419Y-3.1547
X4.1419Y-3.7747
X6.6219Y-5.3847
X6.6219Y-7.1847
X6.8458Y-1.974
X6.8458Y-3.774
X7.2419Y-5.3847
X7.2419Y-7.1847
X7.4658Y-1.974
X7.4658Y-3.774
X7.8419Y-5.3847
X7.8419Y-7.1847
X7.9391Y-1.974
X7.9391Y-3.774
X8.4619Y-5.3847
X8.4619Y-7.1847
X8.5591Y-1.974
X8.5591Y-3.774
X9.0348Y-1.978
X9.0348Y-3.778
X9.6548Y-1.978
X9.6548Y-3.778
X10.1258Y-1.974
X10.1258Y-3.774
X10.7458Y-1.974
X10.7458Y-3.774
X11.4054Y-2.8396
X11.4054Y-3.4596
X11.4054Y-3.9131
X11.4054Y-4.5331
X11.4054Y-4.9931
X11.4054Y-5.6131
X11.4054Y-6.0731
X11.4054Y-6.6931
X13.2054Y-2.8396
X13.2054Y-3.4596
X13.2054Y-3.9131
X13.2054Y-4.5331
X13.2054Y-4.9931
X13.2054Y-5.6131
X13.2054Y-6.0731
X13.2054Y-6.6931
T11
X2.094Y-8.35
X2.204Y-5.11
X2.204Y-5.31
X2.204Y-5.51
X2.204Y-5.71
X2.204Y-5.91
X2.204Y-6.11
X2.204Y-6.31
X2.204Y-6.51
X2.204Y-6.71
X2.204Y-6.91
X2.294Y-8.35
X2.494Y-8.35
X2.694Y-8.35
X2.894Y-8.35
X2.9887Y-1.84
X3.094Y-8.35
X3.1887Y-1.84
X3.294Y-8.35
X3.494Y-8.35
X3.694Y-8.35
X3.894Y-8.35
X4.2575Y-8.3327
X4.4575Y-8.3327
X4.6575Y-8.3327
X4.8575Y-8.3327
X5.0575Y-8.3327
X5.2575Y-8.3327
X5.4575Y-8.3327
X5.6575Y-8.3327
X5.8575Y-8.3327
X6.0575Y-8.3327
X6.5432Y-8.3567
X6.7432Y-8.3567
X6.9432Y-8.3567
X7.1432Y-8.3567
X7.3432Y-8.3567
X7.8288Y-8.3567
X8.0288Y-8.3567
X8.2288Y-8.3567
X8.4288Y-8.3567
X8.6288Y-8.3567
X9.1129Y-8.325
X9.3097Y-8.325
X9.5066Y-8.325
X9.7034Y-8.325
X9.9003Y-8.325
X10.0971Y-8.325
X10.294Y-8.325
X10.4908Y-8.325
T12
X4.4117Y-1.7047
X4.7345Y-1.7047
T13
X3.4143Y-2.5583
X3.4143Y-2.8576
X4.1151Y-2.4583
X4.3274Y-4.3043
X4.6267Y-4.3043
X4.7267Y-5.0051
T14
X2.34Y-2.2783
X2.34Y-2.4948
T15
X4.8828Y-3.9232
X4.888Y-2.7787
X4.9496Y-7.5516
X5.064Y-2.382
X7.021Y-4.525
X8.1684Y-4.3976
X9.2716Y-4.4049
X9.484Y-6.412
X10.3976Y-4.4144
X10.454Y-7.404
X13.86Y-3.7663
X13.9507Y-2.5893
X14.01Y-7.552
X14.08Y-5.1
T16
X2.73Y-2.85
X3.184Y-4.664
X4.58Y-3.21
X5.52Y-7.27
X7.016Y-4.082
X7.694Y-7.608
X8.242Y-4.006
X8.936Y-5.928
X9.33Y-4.008
X10.272Y-4.02
X10.748Y-6.684
X13.6404Y-3.7286
X13.686Y-6.772
X13.898Y-5.078
X14.172Y-3.038
T17
X11.1332Y-8.0801
X11.1332Y-8.3037
X11.6505Y-8.0801
X11.6505Y-8.3037
X12.6413Y-1.995
X12.6413Y-2.2186
X13.1332Y-8.0801
X13.1332Y-8.3037
X13.1587Y-1.995
X13.1587Y-2.2186
X13.5773Y-1.993
X13.5773Y-2.2166
X13.6505Y-8.0801
X13.6505Y-8.3037
X14.0947Y-1.993
X14.0947Y-2.2166
T0
M30
