M48
; DRILL file {KiCad 7.0.2-6a45011f42~172~ubuntu22.04.1} date Mon 05 Jun 2023 10:57:09 AM MDT
; FORMAT={-:-/ absolute / metric / decimal}
; #@! TF.CreationDate,2023-06-05T10:57:09-06:00
; #@! TF.GenerationSoftware,Kicad,Pcbnew,7.0.2-6a45011f42~172~ubuntu22.04.1
; #@! TF.FileFunction,Plated,1,4,PTH
FMAT,2
METRIC
; #@! TA.AperFunction,Plated,PTH,ComponentDrill
T1C0.300
; #@! TA.AperFunction,Plated,PTH,ViaDrill
T2C0.400
; #@! TA.AperFunction,Plated,PTH,ViaDrill
T3C0.500
; #@! TA.AperFunction,Plated,PTH,ViaDrill
T4C0.600
; #@! TA.AperFunction,Plated,PTH,ViaDrill
T5C0.700
; #@! TA.AperFunction,Plated,PTH,ComponentDrill
T6C0.750
; #@! TA.AperFunction,Plated,PTH,ComponentDrill
T7C0.800
; #@! TA.AperFunction,Plated,PTH,ComponentDrill
T8C0.900
; #@! TA.AperFunction,Plated,PTH,ComponentDrill
T9C0.920
; #@! TA.AperFunction,Plated,PTH,ViaDrill
T10C1.000
; #@! TA.AperFunction,Plated,PTH,ComponentDrill
T11C1.000
; #@! TA.AperFunction,Plated,PTH,ComponentDrill
T12C1.040
; #@! TA.AperFunction,Plated,PTH,ComponentDrill
T13C1.100
; #@! TA.AperFunction,Plated,PTH,ComponentDrill
T14C1.300
; #@! TA.AperFunction,Plated,PTH,ComponentDrill
T15C1.500
; #@! TA.AperFunction,Plated,PTH,ComponentDrill
T16C1.600
; #@! TA.AperFunction,Plated,PTH,ComponentDrill
T17C2.000
; #@! TA.AperFunction,Plated,PTH,ComponentDrill
T18C2.300
; #@! TA.AperFunction,Plated,PTH,ComponentDrill
T19C2.800
; #@! TA.AperFunction,Plated,PTH,ComponentDrill
T20C3.000
%
G90
G05
T1
X111.625Y-43.343
X111.625Y-45.343
X111.625Y-47.343
X111.625Y-49.343
X111.625Y-51.343
X113.575Y-43.343
X113.575Y-47.343
X113.575Y-51.343
X115.525Y-43.343
X115.525Y-45.343
X115.525Y-47.343
X115.525Y-49.343
X115.525Y-51.343
X121.625Y-43.343
X121.625Y-45.343
X121.625Y-47.343
X121.625Y-49.343
X121.625Y-51.343
X123.575Y-43.343
X123.575Y-47.343
X123.575Y-51.343
X125.525Y-43.343
X125.525Y-45.343
X125.525Y-47.343
X125.525Y-49.343
X125.525Y-51.343
T2
X94.41Y-146.03
X97.53Y-146.02
X98.94Y-144.26
X100.6Y-144.43
X177.59Y-166.18
X193.39Y-57.15
X193.6Y-53.825
X193.7Y-60.9
X197.71Y-68.59
X199.31Y-57.28
X199.325Y-65.85
X199.35Y-64.35
X199.52Y-59.63
X200.93Y-62.44
X202.03Y-57.82
X202.55Y-60.55
X202.62Y-66.59
X204.01Y-69.59
X205.822Y-65.72
X205.83Y-57.66
X208.48Y-69.66
X210.53Y-68.71
X210.7Y-60.73
X210.79Y-57.92
X210.86Y-63.87
X211.86Y-68.74
X212.412Y-65.75
X213.45Y-57.42
X214.83Y-71.97
X221.352Y-63.39
X223.08Y-63.46
X224.73Y-82.76
X225.78Y-84.5
X227.2Y-67.2
X228.6Y-69.4
X228.67Y-79.72
X230.2Y-62.2
X230.27Y-76.92
X231.425Y-86.9
X232.2Y-78.86
X233.81Y-83.25
X234.732Y-60.98
X235.875Y-90.175
X238.498Y-88.26
X238.53Y-90.23
X238.672Y-86.61
X239.54Y-78.87
X239.64Y-91.65
X240.925Y-84.3
X242.14Y-68.85
X246.33Y-95.84
X246.35Y-85.6
X248.04Y-89.18
X248.37Y-92.99
X251.14Y-192.61
X251.61Y-190.43
X252.47Y-185.27
X254.26Y-190.43
X256.6Y-185.46
X256.88Y-190.43
X256.93Y-193.9
X258.9Y-201.89
X259.0Y-67.6
X259.35Y-191.975
X260.0Y-57.8
X261.19Y-194.01
X262.8Y-190.32
X262.84Y-194.06
X265.0Y-55.6
X267.4Y-55.4
X268.13Y-189.87
X268.41Y-196.28
X270.6Y-60.0
X272.725Y-217.75
X273.95Y-198.375
X274.84Y-118.59
X276.075Y-210.95
X277.78Y-73.04
X278.36Y-76.11
X278.74Y-132.49
X278.86Y-115.86
X279.2Y-127.77
X279.62Y-119.73
X279.66Y-118.36
X280.1Y-58.44
X280.18Y-60.87
X280.51Y-63.3
X281.12Y-93.24
X281.13Y-129.96
X281.13Y-135.11
X281.19Y-72.94
X281.21Y-102.42
X281.44Y-97.6
X281.46Y-69.5
X282.1Y-65.7
X282.16Y-60.83
X282.225Y-67.2
X282.72Y-89.34
X282.8Y-215.8
X283.43Y-125.01
X283.57Y-61.06
X283.9Y-97.55
X283.98Y-129.01
X283.99Y-119.37
X284.11Y-116.65
X284.21Y-132.59
X284.31Y-93.18
X284.34Y-127.77
X284.34Y-130.98
X284.36Y-59.82
X284.36Y-62.34
X285.0Y-67.79
X285.1Y-206.725
X285.38Y-135.09
X286.43Y-61.98
X286.766Y-125.222
X286.95Y-89.11
X287.25Y-57.29
X287.4Y-212.4
X288.02Y-116.62
X288.21Y-71.6
X288.47Y-61.94
X289.02Y-126.49
X289.3Y-120.98
X289.31Y-59.32
X289.31Y-159.8
X289.71Y-155.51
X289.82Y-73.53
X289.95Y-83.27
X290.05Y-68.94
X290.05Y-78.02
X290.74Y-126.98
X290.85Y-104.59
X290.95Y-102.425
X291.05Y-100.825
X291.18Y-89.21
X291.74Y-116.8
X291.92Y-152.39
X291.98Y-162.7
X292.09Y-131.94
X292.61Y-126.62
X293.23Y-123.67
X293.48Y-104.95
X294.3Y-100.03
X294.99Y-95.77
X295.087Y-155.625
X295.13Y-157.72
X295.13Y-159.64
X296.2Y-117.39
X296.42Y-157.19
X296.44Y-159.64
X297.28Y-98.19
X297.901Y-159.6
X298.12Y-125.83
X299.175Y-154.375
X299.3Y-214.74
X299.65Y-158.5
X299.95Y-160.275
X300.1Y-156.875
X301.0Y-192.4
X301.08Y-96.23
X301.2Y-184.2
X303.4Y-188.6
X304.45Y-152.05
X304.61Y-143.73
X305.7Y-214.87
X305.72Y-74.69
X306.14Y-143.64
X306.2Y-79.2
X306.2Y-192.4
X306.275Y-163.1
X306.3Y-154.22
X308.71Y-191.62
X308.75Y-194.48
X309.0Y-156.65
X309.025Y-161.8
X309.2Y-143.36
X310.2Y-72.2
X310.2Y-77.2
X315.68Y-160.97
X315.78Y-151.0
X317.35Y-161.775
X317.35Y-172.875
X318.66Y-155.92
X318.66Y-157.75
X318.76Y-154.54
X320.5Y-154.77
X320.6Y-78.2
X320.8Y-156.4
X322.15Y-154.225
X322.65Y-152.55
X323.2Y-78.4
X323.23Y-68.67
X324.11Y-150.19
X325.79Y-147.76
X326.2Y-75.6
X328.0Y-180.8
X328.27Y-183.29
X329.15Y-171.45
X329.31Y-149.29
X329.46Y-155.63
X329.8Y-188.4
X330.708Y-166.34
X331.09Y-151.65
X331.18Y-189.25
X331.2Y-178.6
X331.93Y-134.85
X332.4Y-183.4
X332.43Y-176.79
X332.49Y-129.04
X332.54Y-142.41
X332.825Y-159.325
X332.85Y-132.35
X335.33Y-65.24
X335.38Y-126.29
X336.07Y-136.94
X337.07Y-65.01
X337.85Y-101.7
X338.1Y-96.4
X338.13Y-132.91
X338.23Y-131.44
X338.36Y-129.01
X338.625Y-105.3
X338.625Y-106.95
X338.67Y-108.6
X338.8Y-69.8
X339.05Y-136.12
X339.2Y-72.4
X339.6Y-67.2
X340.001Y-130.35
X340.2Y-132.2
X340.32Y-103.05
X340.6Y-164.6
X341.2Y-61.01
X341.47Y-113.86
X341.65Y-130.35
X341.95Y-128.9
X342.03Y-133.27
X342.35Y-108.95
X342.4Y-156.075
X343.0Y-168.0
X343.2Y-160.8
X343.43Y-74.55
X343.46Y-114.95
X345.35Y-169.225
X345.47Y-79.42
X345.58Y-165.21
X345.725Y-114.85
X345.81Y-161.99
X345.93Y-77.48
X346.56Y-96.46
X346.71Y-110.83
X348.0Y-167.2
X348.25Y-104.6
X348.38Y-113.24
X348.46Y-131.89
X348.92Y-124.91
X348.92Y-129.24
X349.225Y-108.75
X349.47Y-100.5
X349.52Y-97.93
X350.02Y-117.5
X350.35Y-121.4
X350.89Y-127.3
X351.21Y-135.66
X351.675Y-166.7
X352.18Y-121.96
X353.625Y-117.25
X353.77Y-67.38
X355.8Y-65.8
X356.61Y-61.26
X356.73Y-56.65
X357.45Y-85.08
X359.2Y-63.8
X359.32Y-70.13
X359.6Y-58.8
X360.04Y-61.56
X360.85Y-172.925
X361.575Y-147.225
T3
X102.5Y-144.5
X283.64Y-63.86
T4
X199.45Y-54.475
X282.05Y-81.575
T5
X102.6Y-146.67
T6
X161.66Y-143.4
X162.93Y-142.13
X164.2Y-143.4
T7
X243.09Y-84.64
X243.09Y-86.64
X284.07Y-103.12
X286.07Y-103.12
T8
X51.725Y-56.25
X51.725Y-58.25
X51.725Y-60.25
T9
X312.5Y-206.12
X312.5Y-208.74
X315.0Y-206.12
X315.0Y-208.74
X316.635Y-52.61
X316.635Y-55.23
X317.0Y-206.12
X317.0Y-208.74
X319.135Y-52.61
X319.135Y-55.23
X319.5Y-206.12
X319.5Y-208.74
X321.135Y-52.61
X321.135Y-55.23
X323.635Y-52.61
X323.635Y-55.23
X334.825Y-52.61
X334.825Y-55.23
X334.95Y-206.305
X334.95Y-208.925
X337.325Y-52.61
X337.325Y-55.23
X337.45Y-206.305
X337.45Y-208.925
X339.325Y-52.61
X339.325Y-55.23
X339.45Y-206.305
X339.45Y-208.925
X341.825Y-52.61
X341.825Y-55.23
X341.95Y-206.305
X341.95Y-208.925
T10
X90.87Y-151.78
X179.89Y-105.39
T11
X212.295Y-218.625
X214.835Y-218.625
X217.375Y-218.625
X219.915Y-218.625
X222.455Y-218.625
X224.995Y-218.625
X227.535Y-218.625
X230.075Y-218.625
T12
X54.04Y-166.3
X54.04Y-191.7
X56.58Y-166.3
X56.58Y-191.7
X59.12Y-166.3
X59.12Y-191.7
X61.66Y-166.3
X61.66Y-191.7
X64.2Y-166.3
X64.2Y-191.7
X66.74Y-166.3
X66.74Y-191.7
X69.28Y-166.3
X69.28Y-191.7
X71.82Y-166.3
X71.82Y-191.7
X74.36Y-166.3
X74.36Y-191.7
X76.9Y-166.3
X76.9Y-191.7
X79.44Y-166.3
X79.44Y-191.7
X81.98Y-166.3
X81.98Y-191.7
X84.52Y-166.3
X84.52Y-191.7
X87.06Y-166.3
X87.06Y-191.7
X89.6Y-166.3
X89.6Y-191.7
X92.14Y-166.3
X92.14Y-191.7
X94.68Y-166.3
X94.68Y-191.7
X97.22Y-166.3
X97.22Y-191.7
X99.76Y-166.3
X99.76Y-191.7
T13
X67.65Y-63.86
X70.19Y-63.86
X72.73Y-63.86
X128.32Y-110.74
X128.4Y-98.4
X138.48Y-110.74
X138.6Y-98.4
X172.77Y-151.99
X173.0Y-139.8
X182.93Y-151.99
X183.2Y-139.8
T14
X55.075Y-75.37
X55.075Y-80.45
X55.075Y-85.53
X55.075Y-90.61
X55.075Y-95.69
X56.0Y-107.92
X56.0Y-113.0
X56.0Y-118.08
X56.0Y-123.16
X56.0Y-128.24
X56.0Y-133.32
X56.0Y-138.4
X56.0Y-143.48
X56.0Y-148.56
X56.0Y-153.64
X57.615Y-216.935
X62.695Y-216.935
X67.775Y-216.935
X72.855Y-216.935
X77.935Y-216.935
X83.015Y-216.935
X88.095Y-216.935
X89.82Y-44.575
X93.175Y-216.935
X94.9Y-44.575
X98.255Y-216.935
X103.335Y-216.935
X114.84Y-216.935
X119.92Y-216.935
X125.0Y-216.935
X130.08Y-216.935
X135.16Y-216.935
X154.96Y-216.325
X160.04Y-216.325
X165.12Y-216.325
X170.2Y-216.325
X175.28Y-216.325
X180.36Y-216.325
X185.44Y-216.325
X190.52Y-216.325
X195.6Y-216.325
X200.68Y-216.325
X231.702Y-45.06
X236.702Y-45.06
X241.702Y-45.06
X246.702Y-45.06
X251.702Y-45.06
X256.702Y-45.06
X261.702Y-45.06
X266.702Y-45.06
T15
X51.725Y-54.15
X51.725Y-62.35
T16
X124.6Y-85.74
X142.4Y-75.6
X142.4Y-83.2
X169.2Y-127.14
X187.0Y-117.0
X187.0Y-124.6
T17
X87.45Y-137.46
X90.0Y-56.0
X91.0Y-76.0
X91.0Y-86.0
X166.3Y-70.14
X168.0Y-152.0
X176.3Y-70.14
X200.14Y-110.74
X222.125Y-48.55
X251.242Y-70.34
X290.35Y-207.6
X299.17Y-68.67
X306.0Y-183.4
X314.22Y-70.8
X333.775Y-78.475
X344.2Y-180.2
X350.8Y-158.4
X352.29Y-47.81
T18
X309.43Y-205.77
X309.43Y-211.45
X313.565Y-49.9
X313.565Y-55.58
X322.57Y-205.77
X322.57Y-211.45
X326.705Y-49.9
X326.705Y-55.58
X331.755Y-49.9
X331.755Y-55.58
X331.88Y-205.955
X331.88Y-211.635
X344.895Y-49.9
X344.895Y-55.58
X345.02Y-205.955
X345.02Y-211.635
T19
X113.575Y-45.142
X113.575Y-49.542
X123.575Y-45.142
X123.575Y-49.542
T20
X107.845Y-49.192
X129.305Y-49.192
T0
M30
