%TF.GenerationSoftware,KiCad,Pcbnew,(6.0.7)*%
%TF.CreationDate,2022-09-11T16:21:36-04:00*%
%TF.ProjectId,augertapowermanagement,61756765-7274-4617-906f-7765726d616e,rev?*%
%TF.SameCoordinates,Original*%
%TF.FileFunction,Copper,L2,Inr*%
%TF.FilePolarity,Positive*%
%FSLAX46Y46*%
G04 Gerber Fmt 4.6, Leading zero omitted, Abs format (unit mm)*
G04 Created by KiCad (PCBNEW (6.0.7)) date 2022-09-11 16:21:36*
%MOMM*%
%LPD*%
G01*
G04 APERTURE LIST*
G04 Aperture macros list*
%AMRoundRect*
0 Rectangle with rounded corners*
0 $1 Rounding radius*
0 $2 $3 $4 $5 $6 $7 $8 $9 X,Y pos of 4 corners*
0 Add a 4 corners polygon primitive as box body*
4,1,4,$2,$3,$4,$5,$6,$7,$8,$9,$2,$3,0*
0 Add four circle primitives for the rounded corners*
1,1,$1+$1,$2,$3*
1,1,$1+$1,$4,$5*
1,1,$1+$1,$6,$7*
1,1,$1+$1,$8,$9*
0 Add four rect primitives between the rounded corners*
20,1,$1+$1,$2,$3,$4,$5,0*
20,1,$1+$1,$4,$5,$6,$7,0*
20,1,$1+$1,$6,$7,$8,$9,0*
20,1,$1+$1,$8,$9,$2,$3,0*%
G04 Aperture macros list end*
%TA.AperFunction,ComponentPad*%
%ADD10R,2.200000X2.200000*%
%TD*%
%TA.AperFunction,ComponentPad*%
%ADD11O,2.200000X2.200000*%
%TD*%
%TA.AperFunction,ComponentPad*%
%ADD12R,2.600000X2.600000*%
%TD*%
%TA.AperFunction,ComponentPad*%
%ADD13C,2.600000*%
%TD*%
%TA.AperFunction,ComponentPad*%
%ADD14C,3.000000*%
%TD*%
%TA.AperFunction,ComponentPad*%
%ADD15C,3.700000*%
%TD*%
%TA.AperFunction,ComponentPad*%
%ADD16RoundRect,0.250002X-1.599998X-1.599998X1.599998X-1.599998X1.599998X1.599998X-1.599998X1.599998X0*%
%TD*%
%TA.AperFunction,ComponentPad*%
%ADD17R,4.572000X4.572000*%
%TD*%
%TA.AperFunction,ComponentPad*%
%ADD18RoundRect,0.500000X-0.500000X-0.500000X0.500000X-0.500000X0.500000X0.500000X-0.500000X0.500000X0*%
%TD*%
%TA.AperFunction,ComponentPad*%
%ADD19C,2.000000*%
%TD*%
%TA.AperFunction,ComponentPad*%
%ADD20RoundRect,0.500000X0.500000X-0.500000X0.500000X0.500000X-0.500000X0.500000X-0.500000X-0.500000X0*%
%TD*%
%TA.AperFunction,ComponentPad*%
%ADD21R,1.500000X1.500000*%
%TD*%
%TA.AperFunction,ComponentPad*%
%ADD22C,1.500000*%
%TD*%
%TA.AperFunction,ComponentPad*%
%ADD23R,1.350000X1.350000*%
%TD*%
%TA.AperFunction,ComponentPad*%
%ADD24O,1.350000X1.350000*%
%TD*%
%TA.AperFunction,ComponentPad*%
%ADD25R,1.800000X1.100000*%
%TD*%
%TA.AperFunction,ComponentPad*%
%ADD26RoundRect,0.275000X0.625000X-0.275000X0.625000X0.275000X-0.625000X0.275000X-0.625000X-0.275000X0*%
%TD*%
%TA.AperFunction,ComponentPad*%
%ADD27O,1.500000X2.500000*%
%TD*%
%TA.AperFunction,ComponentPad*%
%ADD28R,1.500000X2.500000*%
%TD*%
%TA.AperFunction,ComponentPad*%
%ADD29O,2.200000X3.500000*%
%TD*%
%TA.AperFunction,ComponentPad*%
%ADD30R,1.700000X1.700000*%
%TD*%
%TA.AperFunction,ComponentPad*%
%ADD31O,1.700000X1.700000*%
%TD*%
%TA.AperFunction,ComponentPad*%
%ADD32R,1.560000X1.560000*%
%TD*%
%TA.AperFunction,ComponentPad*%
%ADD33C,1.560000*%
%TD*%
%TA.AperFunction,ViaPad*%
%ADD34C,1.000000*%
%TD*%
%TA.AperFunction,ViaPad*%
%ADD35C,1.500000*%
%TD*%
%TA.AperFunction,ViaPad*%
%ADD36C,3.000000*%
%TD*%
%TA.AperFunction,ViaPad*%
%ADD37C,4.000000*%
%TD*%
%TA.AperFunction,Conductor*%
%ADD38C,0.500000*%
%TD*%
%TA.AperFunction,Conductor*%
%ADD39C,1.000000*%
%TD*%
%TA.AperFunction,Conductor*%
%ADD40C,2.000000*%
%TD*%
%TA.AperFunction,Conductor*%
%ADD41C,1.800000*%
%TD*%
G04 APERTURE END LIST*
D10*
%TO.N,+BATT*%
%TO.C,D2*%
X90170000Y-110744000D03*
D11*
%TO.N,Net-(D2-Pad2)*%
X100330000Y-110744000D03*
%TD*%
D12*
%TO.N,Net-(J10-Pad1)*%
%TO.C,J10*%
X98907600Y-212089800D03*
D13*
%TO.N,Net-(J10-Pad2)*%
X93827600Y-212089800D03*
%TO.N,Net-(J10-Pad3)*%
X88747600Y-212089800D03*
%TO.N,Net-(J10-Pad4)*%
X83667600Y-212089800D03*
%TO.N,Net-(J10-Pad5)*%
X78587600Y-212089800D03*
%TO.N,Net-(J10-Pad6)*%
X73507600Y-212089800D03*
%TO.N,Net-(J10-Pad7)*%
X68427600Y-212089800D03*
%TO.N,Net-(J10-Pad8)*%
X63347600Y-212089800D03*
%TO.N,Net-(J10-Pad9)*%
X58267600Y-212089800D03*
%TO.N,/power_conversion/3v3*%
X53187600Y-212089800D03*
%TD*%
D14*
%TO.N,/power_conversion/Buck in*%
%TO.C,TP6*%
X272999200Y-169773600D03*
%TD*%
D10*
%TO.N,Net-(D1-Pad1)*%
%TO.C,D1*%
X75946000Y-65405000D03*
D11*
%TO.N,-BATT*%
X75946000Y-55245000D03*
%TD*%
D15*
%TO.N,+BATT*%
%TO.C,J2*%
X59436000Y-63369000D03*
D16*
%TO.N,-BATT*%
X59436000Y-57869000D03*
%TD*%
D17*
%TO.N,/power_conversion/Buck in*%
%TO.C,U8*%
X289697026Y-72126000D03*
%TO.N,-BATT*%
X289697026Y-87874000D03*
X335417026Y-72126000D03*
%TO.N,Net-(R6-Pad2)*%
X335417026Y-87874000D03*
%TD*%
D12*
%TO.N,Net-(C2-Pad1)*%
%TO.C,J9*%
X166196026Y-212261000D03*
D13*
X171276026Y-212261000D03*
X176356026Y-212261000D03*
X181436026Y-212261000D03*
X186516026Y-212261000D03*
%TD*%
D14*
%TO.N,Net-(R4-Pad2)*%
%TO.C,TP9*%
X353009200Y-128981200D03*
%TD*%
%TO.N,Net-(JP1-Pad1)*%
%TO.C,K1*%
X120057000Y-127129000D03*
%TO.N,/power_conversion/Buck in*%
X109917000Y-109329000D03*
%TO.N,unconnected-(K1-Pad14)*%
X117517000Y-109329000D03*
D18*
%TO.N,Net-(D2-Pad2)*%
X132717000Y-123329000D03*
D19*
%TO.N,+BATT*%
X132717000Y-113129000D03*
%TD*%
D17*
%TO.N,/power_conversion/Buck in*%
%TO.C,U9*%
X217401692Y-50140000D03*
%TO.N,-BATT*%
X201653692Y-50140000D03*
X217401692Y-95860000D03*
%TO.N,Net-(R7-Pad2)*%
X201653692Y-95860000D03*
%TD*%
D14*
%TO.N,Net-(R7-Pad2)*%
%TO.C,TP12*%
X209346800Y-101752400D03*
%TD*%
D17*
%TO.N,unconnected-(U12-Pad1)*%
%TO.C,U12*%
X289697026Y-99394000D03*
%TO.N,-BATT*%
X289697026Y-115142000D03*
X335417026Y-99394000D03*
%TO.N,Net-(R8-Pad2)*%
X335417026Y-115142000D03*
%TD*%
%TO.N,/power_conversion/Buck in*%
%TO.C,U4*%
X289697026Y-126826000D03*
%TO.N,-BATT*%
X289697026Y-142574000D03*
X335417026Y-126826000D03*
%TO.N,Net-(R4-Pad2)*%
X335417026Y-142574000D03*
%TD*%
D14*
%TO.N,Net-(C2-Pad1)*%
%TO.C,TP3*%
X116332000Y-81534000D03*
%TD*%
%TO.N,Net-(C2-Pad1)*%
%TO.C,TP5*%
X140208000Y-184658000D03*
%TD*%
D17*
%TO.N,/power_conversion/Buck in*%
%TO.C,U5*%
X189631026Y-50140000D03*
%TO.N,-BATT*%
X173883026Y-50140000D03*
X189631026Y-95860000D03*
%TO.N,Net-(R5-Pad2)*%
X173883026Y-95860000D03*
%TD*%
D14*
%TO.N,Net-(R11-Pad2)*%
%TO.C,TP16*%
X260908800Y-102108000D03*
%TD*%
D17*
%TO.N,Net-(JP3-Pad1)*%
%TO.C,U20*%
X214931026Y-136772000D03*
%TO.N,-BATT*%
X199183026Y-136772000D03*
X214931026Y-182492000D03*
%TO.N,Net-(R14-Pad2)*%
X199183026Y-182492000D03*
%TD*%
D14*
%TO.N,Net-(R10-Pad2)*%
%TO.C,TP15*%
X195427600Y-193243200D03*
%TD*%
%TO.N,+BATT*%
%TO.C,TP1*%
X69342000Y-72390000D03*
%TD*%
D17*
%TO.N,/power_conversion/Buck in*%
%TO.C,U13*%
X245231026Y-50240000D03*
%TO.N,-BATT*%
X229483026Y-50240000D03*
X245231026Y-95960000D03*
%TO.N,Net-(R9-Pad2)*%
X229483026Y-95960000D03*
%TD*%
D14*
%TO.N,+BATT*%
%TO.C,K2*%
X104523000Y-62442000D03*
%TO.N,unconnected-(K2-Pad12)*%
X86723000Y-72582000D03*
%TO.N,Net-(JP1-Pad1)*%
X86723000Y-64982000D03*
D20*
%TO.N,-BATT*%
X100723000Y-49782000D03*
D19*
%TO.N,Net-(D1-Pad1)*%
X90523000Y-49782000D03*
%TD*%
D12*
%TO.N,Net-(J8-Pad1)*%
%TO.C,J8*%
X55981800Y-175514000D03*
D13*
%TO.N,Net-(J8-Pad2)*%
X55981800Y-170434000D03*
%TO.N,Net-(J8-Pad3)*%
X55981800Y-165354000D03*
%TO.N,Net-(J8-Pad4)*%
X55981800Y-160274000D03*
%TO.N,Net-(J8-Pad5)*%
X55981800Y-155194000D03*
%TO.N,Net-(J8-Pad6)*%
X55981800Y-150114000D03*
%TO.N,Net-(J8-Pad7)*%
X55981800Y-145034000D03*
%TO.N,Net-(J8-Pad8)*%
X55981800Y-139954000D03*
%TO.N,Net-(J8-Pad9)*%
X55981800Y-134874000D03*
%TO.N,Net-(J8-Pad10)*%
X55981800Y-129794000D03*
%TD*%
D12*
%TO.N,-BATT*%
%TO.C,J1*%
X75912026Y-46736200D03*
D13*
%TO.N,+BATT*%
X80992026Y-46736200D03*
%TD*%
D14*
%TO.N,Net-(R14-Pad2)*%
%TO.C,TP17*%
X226974400Y-150571200D03*
%TD*%
%TO.N,Net-(R8-Pad2)*%
%TO.C,TP13*%
X346465026Y-94706000D03*
%TD*%
D21*
%TO.N,/power_conversion/pi2*%
%TO.C,J6*%
X354934400Y-55952800D03*
D22*
%TO.N,unconnected-(J6-Pad2)*%
X352434400Y-55952800D03*
%TO.N,unconnected-(J6-Pad3)*%
X350434400Y-55952800D03*
%TO.N,-BATT*%
X347934400Y-55952800D03*
%TO.N,/power_conversion/pi1*%
X354934400Y-53332800D03*
%TO.N,unconnected-(J6-Pad6)*%
X352434400Y-53332800D03*
%TO.N,unconnected-(J6-Pad7)*%
X350434400Y-53332800D03*
%TO.N,-BATT*%
X347934400Y-53332800D03*
D14*
X358004400Y-56302800D03*
X344864400Y-56302800D03*
X344864400Y-50622800D03*
X358004400Y-50622800D03*
%TD*%
D23*
%TO.N,Net-(JP3-Pad1)*%
%TO.C,JP3*%
X208940400Y-130556000D03*
D24*
%TO.N,/power_conversion/Buck in*%
X210940400Y-130556000D03*
%TD*%
D17*
%TO.N,/power_conversion/Buck in*%
%TO.C,U17*%
X272943026Y-50140000D03*
%TO.N,-BATT*%
X257195026Y-50140000D03*
X272943026Y-95860000D03*
%TO.N,Net-(R11-Pad2)*%
X257195026Y-95860000D03*
%TD*%
D21*
%TO.N,/power_conversion/N4*%
%TO.C,J3*%
X336653026Y-205584000D03*
D22*
%TO.N,unconnected-(J3-Pad2)*%
X339153026Y-205584000D03*
%TO.N,unconnected-(J3-Pad3)*%
X341153026Y-205584000D03*
%TO.N,-BATT*%
X343653026Y-205584000D03*
%TO.N,/power_conversion/N3*%
X336653026Y-208204000D03*
%TO.N,unconnected-(J3-Pad6)*%
X339153026Y-208204000D03*
%TO.N,unconnected-(J3-Pad7)*%
X341153026Y-208204000D03*
%TO.N,-BATT*%
X343653026Y-208204000D03*
D14*
X333583026Y-210914000D03*
X346723026Y-210914000D03*
X333583026Y-205234000D03*
X346723026Y-205234000D03*
%TD*%
D21*
%TO.N,/power_conversion/spare2*%
%TO.C,J5*%
X331160000Y-56003600D03*
D22*
%TO.N,unconnected-(J5-Pad2)*%
X328660000Y-56003600D03*
%TO.N,unconnected-(J5-Pad3)*%
X326660000Y-56003600D03*
%TO.N,-BATT*%
X324160000Y-56003600D03*
%TO.N,/power_conversion/pi3*%
X331160000Y-53383600D03*
%TO.N,unconnected-(J5-Pad6)*%
X328660000Y-53383600D03*
%TO.N,unconnected-(J5-Pad7)*%
X326660000Y-53383600D03*
%TO.N,-BATT*%
X324160000Y-53383600D03*
D14*
X334230000Y-50673600D03*
X321090000Y-50673600D03*
X321090000Y-56353600D03*
X334230000Y-56353600D03*
%TD*%
D25*
%TO.N,-BATT*%
%TO.C,Q1*%
X99256800Y-122682000D03*
D26*
%TO.N,Net-(Q1-Pad2)*%
X97186800Y-121412000D03*
%TO.N,Net-(D2-Pad2)*%
X99256800Y-120142000D03*
%TD*%
D27*
%TO.N,unconnected-(SW1-Pad3)*%
%TO.C,SW1*%
X114157026Y-43300000D03*
%TO.N,+BATT*%
X116157026Y-43300000D03*
D28*
%TO.N,Net-(D1-Pad1)*%
X118157026Y-43300000D03*
D29*
%TO.N,*%
X112057026Y-43300000D03*
X120257026Y-43300000D03*
%TD*%
D14*
%TO.N,Net-(R15-Pad2)*%
%TO.C,TP18*%
X347624400Y-172008800D03*
%TD*%
D23*
%TO.N,Net-(JP4-Pad1)*%
%TO.C,JP4*%
X280314400Y-153720800D03*
D24*
%TO.N,/power_conversion/Buck in*%
X278314400Y-153720800D03*
%TD*%
D30*
%TO.N,/power_conversion/SDA*%
%TO.C,U24*%
X143557026Y-43300000D03*
D31*
%TO.N,/power_conversion/SCL*%
X146097026Y-43300000D03*
%TO.N,unconnected-(U24-Pad3)*%
X148637026Y-43300000D03*
%TO.N,-BATT*%
X151177026Y-43300000D03*
%TO.N,unconnected-(U24-Pad5)*%
X153717026Y-43300000D03*
%TO.N,unconnected-(U24-Pad6)*%
X156257026Y-43300000D03*
%TO.N,unconnected-(U24-Pad7)*%
X158797026Y-43300000D03*
%TO.N,/power_conversion/3v3*%
X161337026Y-43300000D03*
%TD*%
D12*
%TO.N,-BATT*%
%TO.C,J12*%
X198851526Y-212261000D03*
D13*
X203931526Y-212261000D03*
X209011526Y-212261000D03*
X214091526Y-212261000D03*
X219171526Y-212261000D03*
%TD*%
D32*
%TO.N,/power_conversion/3v3*%
%TO.C,U2*%
X77823026Y-178936000D03*
D33*
%TO.N,Net-(J10-Pad9)*%
X80363026Y-178936000D03*
%TO.N,Net-(J10-Pad8)*%
X82903026Y-178936000D03*
%TO.N,Net-(J10-Pad7)*%
X85443026Y-178936000D03*
%TO.N,Net-(J10-Pad6)*%
X87983026Y-178936000D03*
%TO.N,Net-(J10-Pad5)*%
X90523026Y-178936000D03*
%TO.N,Net-(J10-Pad4)*%
X93063026Y-178936000D03*
%TO.N,Net-(J10-Pad3)*%
X95603026Y-178936000D03*
%TO.N,Net-(J10-Pad2)*%
X98143026Y-178936000D03*
%TO.N,Net-(J10-Pad1)*%
X100683026Y-178936000D03*
%TO.N,Net-(J11-Pad10)*%
X103223026Y-178936000D03*
%TO.N,Net-(J11-Pad9)*%
X105763026Y-178936000D03*
%TO.N,Net-(J11-Pad8)*%
X108303026Y-178936000D03*
%TO.N,-BATT*%
X110843026Y-178936000D03*
%TO.N,Net-(J11-Pad7)*%
X113383026Y-178936000D03*
%TO.N,Net-(J11-Pad6)*%
X115923026Y-178936000D03*
%TO.N,Net-(J11-Pad5)*%
X118463026Y-178936000D03*
%TO.N,Net-(J11-Pad4)*%
X121003026Y-178936000D03*
%TO.N,Net-(C2-Pad1)*%
X123543026Y-178936000D03*
%TO.N,-BATT*%
X77823026Y-153536000D03*
%TO.N,Net-(R1-Pad2)*%
X80363026Y-153536000D03*
%TO.N,/power_conversion/SCL*%
X82903026Y-153536000D03*
%TO.N,unconnected-(U2-Pad23)*%
X85443026Y-153536000D03*
%TO.N,unconnected-(U2-Pad24)*%
X87983026Y-153536000D03*
%TO.N,/power_conversion/SDA*%
X90523026Y-153536000D03*
%TO.N,Net-(J8-Pad1)*%
X93063026Y-153536000D03*
%TO.N,Net-(J8-Pad2)*%
X95603026Y-153536000D03*
%TO.N,Net-(J8-Pad3)*%
X98143026Y-153536000D03*
%TO.N,Net-(J8-Pad4)*%
X100683026Y-153536000D03*
%TO.N,Net-(J8-Pad5)*%
X103223026Y-153536000D03*
%TO.N,Net-(J8-Pad6)*%
X105763026Y-153536000D03*
%TO.N,Net-(J8-Pad7)*%
X108303026Y-153536000D03*
%TO.N,Net-(J8-Pad8)*%
X110843026Y-153536000D03*
%TO.N,Net-(J8-Pad9)*%
X113383026Y-153536000D03*
%TO.N,Net-(J8-Pad10)*%
X115923026Y-153536000D03*
%TO.N,Net-(J11-Pad3)*%
X118463026Y-153536000D03*
%TO.N,Net-(J11-Pad2)*%
X121003026Y-153536000D03*
%TO.N,Net-(J11-Pad1)*%
X123543026Y-153536000D03*
%TD*%
D17*
%TO.N,Net-(JP4-Pad1)*%
%TO.C,U22*%
X289697026Y-154258000D03*
%TO.N,-BATT*%
X289697026Y-170006000D03*
X335417026Y-154258000D03*
%TO.N,Net-(R15-Pad2)*%
X335417026Y-170006000D03*
%TD*%
D14*
%TO.N,Net-(R5-Pad2)*%
%TO.C,TP10*%
X178206400Y-103682800D03*
%TD*%
D21*
%TO.N,/power_conversion/N1*%
%TO.C,J4*%
X285853026Y-205584000D03*
D22*
%TO.N,unconnected-(J4-Pad2)*%
X288353026Y-205584000D03*
%TO.N,unconnected-(J4-Pad3)*%
X290353026Y-205584000D03*
%TO.N,-BATT*%
X292853026Y-205584000D03*
%TO.N,/power_conversion/N2*%
X285853026Y-208204000D03*
%TO.N,unconnected-(J4-Pad6)*%
X288353026Y-208204000D03*
%TO.N,unconnected-(J4-Pad7)*%
X290353026Y-208204000D03*
%TO.N,-BATT*%
X292853026Y-208204000D03*
D14*
X282783026Y-210914000D03*
X295923026Y-210914000D03*
X282783026Y-205234000D03*
X295923026Y-205234000D03*
%TD*%
D12*
%TO.N,Net-(J11-Pad1)*%
%TO.C,J11*%
X153860526Y-211651000D03*
D13*
%TO.N,Net-(J11-Pad2)*%
X148780526Y-211651000D03*
%TO.N,Net-(J11-Pad3)*%
X143700526Y-211651000D03*
%TO.N,Net-(J11-Pad4)*%
X138620526Y-211651000D03*
%TO.N,Net-(J11-Pad5)*%
X133540526Y-211651000D03*
%TO.N,Net-(J11-Pad6)*%
X128460526Y-211651000D03*
%TO.N,Net-(J11-Pad7)*%
X123380526Y-211651000D03*
%TO.N,Net-(J11-Pad8)*%
X118300526Y-211651000D03*
%TO.N,Net-(J11-Pad9)*%
X113220526Y-211651000D03*
%TO.N,Net-(J11-Pad10)*%
X108140526Y-211651000D03*
%TD*%
D17*
%TO.N,/power_conversion/Buck in*%
%TO.C,U16*%
X183943026Y-136772000D03*
%TO.N,-BATT*%
X168195026Y-136772000D03*
X183943026Y-182492000D03*
%TO.N,Net-(R10-Pad2)*%
X168195026Y-182492000D03*
%TD*%
%TO.N,+BATT*%
%TO.C,U1*%
X59483026Y-80130000D03*
%TO.N,-BATT*%
X59483026Y-95878000D03*
X105203026Y-80130000D03*
%TO.N,Net-(C2-Pad1)*%
X105203026Y-95878000D03*
%TD*%
D14*
%TO.N,Net-(R9-Pad2)*%
%TO.C,TP14*%
X236982000Y-101803200D03*
%TD*%
%TO.N,Net-(D2-Pad2)*%
%TO.C,TP4*%
X80873600Y-118465600D03*
%TD*%
%TO.N,Net-(R6-Pad2)*%
%TO.C,TP11*%
X359968800Y-77165200D03*
%TD*%
D12*
%TO.N,/power_conversion/routerp*%
%TO.C,J7*%
X231467026Y-211456000D03*
D13*
%TO.N,-BATT*%
X236467026Y-211456000D03*
%TO.N,/power_conversion/routerp*%
X241467026Y-211456000D03*
%TO.N,-BATT*%
X246467026Y-211456000D03*
%TO.N,/power_conversion/spare1*%
X251467026Y-211456000D03*
%TO.N,-BATT*%
X256467026Y-211456000D03*
%TO.N,/power_conversion/netpw*%
X261467026Y-211456000D03*
%TO.N,-BATT*%
X266467026Y-211456000D03*
%TD*%
D34*
%TO.N,-BATT*%
X185623200Y-119786400D03*
%TO.N,/power_conversion/3v3*%
X150317200Y-119024400D03*
X174929800Y-119049800D03*
D35*
%TO.N,Net-(R1-Pad2)*%
X94246400Y-126428800D03*
D34*
%TO.N,-BATT*%
X150215600Y-128828800D03*
%TO.N,/power_conversion/3v3*%
X344424000Y-81381600D03*
X343321190Y-152080410D03*
X343321190Y-185841190D03*
X268630400Y-121564400D03*
X243484400Y-140004800D03*
X357936800Y-121513600D03*
X212547200Y-121564400D03*
X227076000Y-176276000D03*
X240487200Y-121564400D03*
X344322400Y-121564400D03*
X185826400Y-121564400D03*
%TO.N,-BATT*%
X361696000Y-83261200D03*
X244703600Y-116332000D03*
X353415600Y-81991200D03*
X271830800Y-182321200D03*
X238963200Y-140309600D03*
D36*
X125720000Y-191810000D03*
D34*
X210100564Y-116543436D03*
X350672400Y-107391200D03*
X274040600Y-116713000D03*
D36*
%TO.N,+BATT*%
X128625600Y-60502800D03*
%TO.N,/power_conversion/N4*%
X264100000Y-112124800D03*
%TO.N,/power_conversion/N3*%
X235499600Y-111884682D03*
%TO.N,/power_conversion/N1*%
X178333400Y-114935000D03*
%TO.N,/power_conversion/N2*%
X207476459Y-111699941D03*
%TO.N,/power_conversion/pi3*%
X352044000Y-95662835D03*
%TO.N,/power_conversion/pi2*%
X354347026Y-65768974D03*
%TO.N,/power_conversion/pi1*%
X357632000Y-129540000D03*
%TO.N,/power_conversion/routerp*%
X265531600Y-188061600D03*
D37*
%TO.N,/power_conversion/spare1*%
X240893600Y-162864800D03*
D36*
%TO.N,/power_conversion/spare2*%
X355854000Y-191820800D03*
D34*
%TO.N,/power_conversion/SCL*%
X263652000Y-120091200D03*
X350215200Y-149098000D03*
X235539800Y-120111000D03*
X205861400Y-120111000D03*
X246634000Y-179578000D03*
X345846400Y-120142000D03*
X173075600Y-117805200D03*
X245592600Y-137693400D03*
X340410800Y-198831200D03*
X246634000Y-184404000D03*
X350266000Y-85394800D03*
X149656800Y-134315200D03*
X175209200Y-122275600D03*
%TO.N,/power_conversion/SDA*%
X175107600Y-120446800D03*
X247497600Y-138938000D03*
X262229600Y-116687600D03*
X341630000Y-108458000D03*
X233380564Y-117393436D03*
X204749400Y-117119400D03*
X340055200Y-183134000D03*
X340055200Y-147370800D03*
X262001000Y-181483000D03*
X347319600Y-83261200D03*
X149961600Y-146913600D03*
D36*
%TO.N,Net-(JP1-Pad1)*%
X124154000Y-70580000D03*
X124022000Y-99650400D03*
%TD*%
D38*
%TO.N,/power_conversion/SCL*%
X178308000Y-125374400D02*
X175209200Y-122275600D01*
X200598000Y-125374400D02*
X178308000Y-125374400D01*
X205861400Y-120111000D02*
X200598000Y-125374400D01*
%TO.N,/power_conversion/SDA*%
X178435000Y-117119400D02*
X175107600Y-120446800D01*
X204749400Y-117119400D02*
X178435000Y-117119400D01*
D39*
%TO.N,Net-(D2-Pad2)*%
X129530000Y-120142000D02*
X132717000Y-123329000D01*
X98856800Y-120142000D02*
X129530000Y-120142000D01*
D38*
%TO.N,Net-(R1-Pad2)*%
X80363026Y-140312174D02*
X80363026Y-153536000D01*
X94246400Y-126428800D02*
X80363026Y-140312174D01*
D39*
%TO.N,/power_conversion/3v3*%
X344322400Y-121564400D02*
X343712800Y-120954800D01*
X240487200Y-121564400D02*
X268630400Y-121564400D01*
X343712800Y-82092800D02*
X344424000Y-81381600D01*
X212547200Y-121564400D02*
X240487200Y-121564400D01*
X343712800Y-120954800D02*
X343712800Y-82092800D01*
D40*
%TO.N,/power_conversion/pi3*%
X350215200Y-82753200D02*
X350215200Y-67818000D01*
D41*
X335780800Y-53383600D02*
X331160000Y-53383600D01*
D40*
X352044000Y-84582000D02*
X350215200Y-82753200D01*
X350215200Y-67818000D02*
X335780800Y-53383600D01*
X352044000Y-95662835D02*
X352044000Y-84582000D01*
%TO.N,/power_conversion/spare1*%
X240893600Y-200882574D02*
X251467026Y-211456000D01*
X240893600Y-162864800D02*
X240893600Y-200882574D01*
D39*
%TO.N,/power_conversion/spare2*%
X332892400Y-163576000D02*
X327202800Y-157886400D01*
X331160000Y-62235200D02*
X331160000Y-56003600D01*
X327202800Y-66192400D02*
X331160000Y-62235200D01*
X334959026Y-163576000D02*
X332892400Y-163576000D01*
X355854000Y-191820800D02*
X355854000Y-184470974D01*
X327202800Y-157886400D02*
X327202800Y-66192400D01*
X355854000Y-184470974D02*
X334959026Y-163576000D01*
D38*
%TO.N,Net-(J8-Pad1)*%
X55981800Y-175514000D02*
X71085026Y-175514000D01*
X71085026Y-175514000D02*
X93063026Y-153536000D01*
%TO.N,Net-(J11-Pad1)*%
X153860526Y-183853500D02*
X153860526Y-211651000D01*
X123543026Y-153536000D02*
X153860526Y-183853500D01*
%TO.N,Net-(J11-Pad3)*%
X126238000Y-179891491D02*
X143700526Y-197354017D01*
X118518974Y-159920974D02*
X126238000Y-167640000D01*
X143700526Y-197354017D02*
X143700526Y-211651000D01*
X118463026Y-159920974D02*
X118518974Y-159920974D01*
X118463026Y-153536000D02*
X118463026Y-159920974D01*
X126238000Y-167640000D02*
X126238000Y-179891491D01*
%TO.N,/power_conversion/SCL*%
X205861400Y-120111000D02*
X235539800Y-120111000D01*
X162458400Y-121513600D02*
X167386000Y-121513600D01*
X149656800Y-134315200D02*
X162458400Y-121513600D01*
X82903026Y-153536000D02*
X93792626Y-142646400D01*
X235539800Y-120111000D02*
X263632200Y-120111000D01*
X263632200Y-120111000D02*
X263652000Y-120091200D01*
X245592600Y-137693400D02*
X245592600Y-138861800D01*
X167386000Y-121513600D02*
X174447200Y-121513600D01*
X173075600Y-121513600D02*
X173075600Y-117805200D01*
X174447200Y-121513600D02*
X175209200Y-122275600D01*
X141325600Y-142646400D02*
X149656800Y-134315200D01*
X93792626Y-142646400D02*
X141325600Y-142646400D01*
X246634000Y-139903200D02*
X246634000Y-179578000D01*
X167386000Y-121513600D02*
X173075600Y-121513600D01*
X246634000Y-179578000D02*
X246634000Y-184404000D01*
X245592600Y-138861800D02*
X246634000Y-139903200D01*
%TO.N,/power_conversion/SDA*%
X148183600Y-148437600D02*
X149707600Y-146913600D01*
X95621426Y-148437600D02*
X148183600Y-148437600D01*
X261523764Y-117393436D02*
X262229600Y-116687600D01*
X233019600Y-117754400D02*
X233380564Y-117393436D01*
X149707600Y-146913600D02*
X149961600Y-146913600D01*
X233380564Y-117393436D02*
X261523764Y-117393436D01*
X90523026Y-153536000D02*
X95621426Y-148437600D01*
X204749400Y-117119400D02*
X205384400Y-117754400D01*
X205384400Y-117754400D02*
X233019600Y-117754400D01*
%TO.N,Net-(J11-Pad2)*%
X128270000Y-177800000D02*
X128270000Y-160802974D01*
X148780526Y-198310526D02*
X128270000Y-177800000D01*
X128270000Y-160802974D02*
X121003026Y-153536000D01*
X148780526Y-198310526D02*
X148780526Y-211651000D01*
%TD*%
%TA.AperFunction,Conductor*%
%TO.N,Net-(C2-Pad1)*%
G36*
X190422664Y-209750002D02*
G01*
X190469157Y-209803658D01*
X190480542Y-209855455D01*
X190490982Y-212270580D01*
X190498757Y-214069000D01*
X190509454Y-216543626D01*
X190489746Y-216611833D01*
X190436292Y-216658557D01*
X190383626Y-216670171D01*
X184360669Y-216678324D01*
X161088726Y-216709826D01*
X161020579Y-216689916D01*
X160974013Y-216636323D01*
X160962581Y-216581299D01*
X161013090Y-214063105D01*
X161022265Y-213605669D01*
X164388027Y-213605669D01*
X164388397Y-213612490D01*
X164393921Y-213663352D01*
X164397547Y-213678604D01*
X164442702Y-213799054D01*
X164451240Y-213814649D01*
X164527741Y-213916724D01*
X164540302Y-213929285D01*
X164642377Y-214005786D01*
X164657972Y-214014324D01*
X164778420Y-214059478D01*
X164793675Y-214063105D01*
X164844540Y-214068631D01*
X164851354Y-214069000D01*
X165923911Y-214069000D01*
X165939150Y-214064525D01*
X165940355Y-214063135D01*
X165942026Y-214055452D01*
X165942026Y-214050884D01*
X166450026Y-214050884D01*
X166454501Y-214066123D01*
X166455891Y-214067328D01*
X166463574Y-214068999D01*
X167540695Y-214068999D01*
X167547516Y-214068629D01*
X167598378Y-214063105D01*
X167613630Y-214059479D01*
X167734080Y-214014324D01*
X167749675Y-214005786D01*
X167851750Y-213929285D01*
X167864311Y-213916724D01*
X167940812Y-213814649D01*
X167949350Y-213799054D01*
X167984270Y-213705906D01*
X170195865Y-213705906D01*
X170204579Y-213717427D01*
X170311478Y-213795809D01*
X170319377Y-213800745D01*
X170548931Y-213921519D01*
X170557480Y-213925236D01*
X170802353Y-214010749D01*
X170811362Y-214013163D01*
X171066192Y-214061544D01*
X171075449Y-214062598D01*
X171334633Y-214072783D01*
X171343947Y-214072457D01*
X171601779Y-214044220D01*
X171610956Y-214042519D01*
X171861784Y-213976481D01*
X171870600Y-213973445D01*
X172108906Y-213871062D01*
X172117193Y-213866748D01*
X172337744Y-213730266D01*
X172345294Y-213724780D01*
X172350585Y-213720301D01*
X172359023Y-213707497D01*
X172358091Y-213705906D01*
X175275865Y-213705906D01*
X175284579Y-213717427D01*
X175391478Y-213795809D01*
X175399377Y-213800745D01*
X175628931Y-213921519D01*
X175637480Y-213925236D01*
X175882353Y-214010749D01*
X175891362Y-214013163D01*
X176146192Y-214061544D01*
X176155449Y-214062598D01*
X176414633Y-214072783D01*
X176423947Y-214072457D01*
X176681779Y-214044220D01*
X176690956Y-214042519D01*
X176941784Y-213976481D01*
X176950600Y-213973445D01*
X177188906Y-213871062D01*
X177197193Y-213866748D01*
X177417744Y-213730266D01*
X177425294Y-213724780D01*
X177430585Y-213720301D01*
X177439023Y-213707497D01*
X177438091Y-213705906D01*
X180355865Y-213705906D01*
X180364579Y-213717427D01*
X180471478Y-213795809D01*
X180479377Y-213800745D01*
X180708931Y-213921519D01*
X180717480Y-213925236D01*
X180962353Y-214010749D01*
X180971362Y-214013163D01*
X181226192Y-214061544D01*
X181235449Y-214062598D01*
X181494633Y-214072783D01*
X181503947Y-214072457D01*
X181761779Y-214044220D01*
X181770956Y-214042519D01*
X182021784Y-213976481D01*
X182030600Y-213973445D01*
X182268906Y-213871062D01*
X182277193Y-213866748D01*
X182497744Y-213730266D01*
X182505294Y-213724780D01*
X182510585Y-213720301D01*
X182519023Y-213707497D01*
X182518091Y-213705906D01*
X185435865Y-213705906D01*
X185444579Y-213717427D01*
X185551478Y-213795809D01*
X185559377Y-213800745D01*
X185788931Y-213921519D01*
X185797480Y-213925236D01*
X186042353Y-214010749D01*
X186051362Y-214013163D01*
X186306192Y-214061544D01*
X186315449Y-214062598D01*
X186574633Y-214072783D01*
X186583947Y-214072457D01*
X186841779Y-214044220D01*
X186850956Y-214042519D01*
X187101784Y-213976481D01*
X187110600Y-213973445D01*
X187348906Y-213871062D01*
X187357193Y-213866748D01*
X187577744Y-213730266D01*
X187585294Y-213724780D01*
X187590585Y-213720301D01*
X187599023Y-213707497D01*
X187592961Y-213697145D01*
X186528838Y-212633022D01*
X186514894Y-212625408D01*
X186513061Y-212625539D01*
X186506446Y-212629790D01*
X185442523Y-213693713D01*
X185435865Y-213705906D01*
X182518091Y-213705906D01*
X182512961Y-213697145D01*
X181448838Y-212633022D01*
X181434894Y-212625408D01*
X181433061Y-212625539D01*
X181426446Y-212629790D01*
X180362523Y-213693713D01*
X180355865Y-213705906D01*
X177438091Y-213705906D01*
X177432961Y-213697145D01*
X176368838Y-212633022D01*
X176354894Y-212625408D01*
X176353061Y-212625539D01*
X176346446Y-212629790D01*
X175282523Y-213693713D01*
X175275865Y-213705906D01*
X172358091Y-213705906D01*
X172352961Y-213697145D01*
X171288838Y-212633022D01*
X171274894Y-212625408D01*
X171273061Y-212625539D01*
X171266446Y-212629790D01*
X170202523Y-213693713D01*
X170195865Y-213705906D01*
X167984270Y-213705906D01*
X167994504Y-213678606D01*
X167998131Y-213663351D01*
X168003657Y-213612486D01*
X168004026Y-213605672D01*
X168004026Y-212533115D01*
X167999551Y-212517876D01*
X167998161Y-212516671D01*
X167990478Y-212515000D01*
X166468141Y-212515000D01*
X166452902Y-212519475D01*
X166451697Y-212520865D01*
X166450026Y-212528548D01*
X166450026Y-214050884D01*
X165942026Y-214050884D01*
X165942026Y-212533115D01*
X165937551Y-212517876D01*
X165936161Y-212516671D01*
X165928478Y-212515000D01*
X164406142Y-212515000D01*
X164390903Y-212519475D01*
X164389698Y-212520865D01*
X164388027Y-212528548D01*
X164388027Y-213605669D01*
X161022265Y-213605669D01*
X161044107Y-212516671D01*
X161050093Y-212218211D01*
X169463801Y-212218211D01*
X169476246Y-212477288D01*
X169477382Y-212486543D01*
X169527987Y-212740945D01*
X169530475Y-212749917D01*
X169618121Y-212994033D01*
X169621921Y-213002568D01*
X169744684Y-213231042D01*
X169749692Y-213238904D01*
X169819746Y-213332716D01*
X169831005Y-213341165D01*
X169843423Y-213334393D01*
X170904004Y-212273812D01*
X170910382Y-212262132D01*
X171640434Y-212262132D01*
X171640565Y-212263965D01*
X171644816Y-212270580D01*
X172712120Y-213337884D01*
X172724500Y-213344644D01*
X172732841Y-213338400D01*
X172866858Y-213130048D01*
X172871301Y-213121864D01*
X172977833Y-212885370D01*
X172981023Y-212876605D01*
X173051428Y-212626972D01*
X173053288Y-212617830D01*
X173086213Y-212359019D01*
X173086694Y-212352733D01*
X173089013Y-212264160D01*
X173088862Y-212257851D01*
X173085916Y-212218211D01*
X174543801Y-212218211D01*
X174556246Y-212477288D01*
X174557382Y-212486543D01*
X174607987Y-212740945D01*
X174610475Y-212749917D01*
X174698121Y-212994033D01*
X174701921Y-213002568D01*
X174824684Y-213231042D01*
X174829692Y-213238904D01*
X174899746Y-213332716D01*
X174911005Y-213341165D01*
X174923423Y-213334393D01*
X175984004Y-212273812D01*
X175990382Y-212262132D01*
X176720434Y-212262132D01*
X176720565Y-212263965D01*
X176724816Y-212270580D01*
X177792120Y-213337884D01*
X177804500Y-213344644D01*
X177812841Y-213338400D01*
X177946858Y-213130048D01*
X177951301Y-213121864D01*
X178057833Y-212885370D01*
X178061023Y-212876605D01*
X178131428Y-212626972D01*
X178133288Y-212617830D01*
X178166213Y-212359019D01*
X178166694Y-212352733D01*
X178169013Y-212264160D01*
X178168862Y-212257851D01*
X178165916Y-212218211D01*
X179623801Y-212218211D01*
X179636246Y-212477288D01*
X179637382Y-212486543D01*
X179687987Y-212740945D01*
X179690475Y-212749917D01*
X179778121Y-212994033D01*
X179781921Y-213002568D01*
X179904684Y-213231042D01*
X179909692Y-213238904D01*
X179979746Y-213332716D01*
X179991005Y-213341165D01*
X180003423Y-213334393D01*
X181064004Y-212273812D01*
X181070382Y-212262132D01*
X181800434Y-212262132D01*
X181800565Y-212263965D01*
X181804816Y-212270580D01*
X182872120Y-213337884D01*
X182884500Y-213344644D01*
X182892841Y-213338400D01*
X183026858Y-213130048D01*
X183031301Y-213121864D01*
X183137833Y-212885370D01*
X183141023Y-212876605D01*
X183211428Y-212626972D01*
X183213288Y-212617830D01*
X183246213Y-212359019D01*
X183246694Y-212352733D01*
X183249013Y-212264160D01*
X183248862Y-212257851D01*
X183245916Y-212218211D01*
X184703801Y-212218211D01*
X184716246Y-212477288D01*
X184717382Y-212486543D01*
X184767987Y-212740945D01*
X184770475Y-212749917D01*
X184858121Y-212994033D01*
X184861921Y-213002568D01*
X184984684Y-213231042D01*
X184989692Y-213238904D01*
X185059746Y-213332716D01*
X185071005Y-213341165D01*
X185083423Y-213334393D01*
X186144004Y-212273812D01*
X186150382Y-212262132D01*
X186880434Y-212262132D01*
X186880565Y-212263965D01*
X186884816Y-212270580D01*
X187952120Y-213337884D01*
X187964500Y-213344644D01*
X187972841Y-213338400D01*
X188106858Y-213130048D01*
X188111301Y-213121864D01*
X188217833Y-212885370D01*
X188221023Y-212876605D01*
X188291428Y-212626972D01*
X188293288Y-212617830D01*
X188326213Y-212359019D01*
X188326694Y-212352733D01*
X188329013Y-212264160D01*
X188328862Y-212257851D01*
X188309527Y-211997663D01*
X188308151Y-211988457D01*
X188250904Y-211735467D01*
X188248180Y-211726556D01*
X188154169Y-211484806D01*
X188150158Y-211476397D01*
X188021448Y-211251202D01*
X188016237Y-211243476D01*
X187973022Y-211188658D01*
X187961097Y-211180187D01*
X187949563Y-211186673D01*
X186888048Y-212248188D01*
X186880434Y-212262132D01*
X186150382Y-212262132D01*
X186151618Y-212259868D01*
X186151487Y-212258035D01*
X186147236Y-212251420D01*
X185081842Y-211186026D01*
X185068533Y-211178758D01*
X185058498Y-211185878D01*
X185042963Y-211204556D01*
X185037557Y-211212135D01*
X184902991Y-211433891D01*
X184898762Y-211442192D01*
X184798458Y-211681389D01*
X184795497Y-211690239D01*
X184731654Y-211941625D01*
X184730032Y-211950822D01*
X184704046Y-212208885D01*
X184703801Y-212218211D01*
X183245916Y-212218211D01*
X183229527Y-211997663D01*
X183228151Y-211988457D01*
X183170904Y-211735467D01*
X183168180Y-211726556D01*
X183074169Y-211484806D01*
X183070158Y-211476397D01*
X182941448Y-211251202D01*
X182936237Y-211243476D01*
X182893022Y-211188658D01*
X182881097Y-211180187D01*
X182869563Y-211186673D01*
X181808048Y-212248188D01*
X181800434Y-212262132D01*
X181070382Y-212262132D01*
X181071618Y-212259868D01*
X181071487Y-212258035D01*
X181067236Y-212251420D01*
X180001842Y-211186026D01*
X179988533Y-211178758D01*
X179978498Y-211185878D01*
X179962963Y-211204556D01*
X179957557Y-211212135D01*
X179822991Y-211433891D01*
X179818762Y-211442192D01*
X179718458Y-211681389D01*
X179715497Y-211690239D01*
X179651654Y-211941625D01*
X179650032Y-211950822D01*
X179624046Y-212208885D01*
X179623801Y-212218211D01*
X178165916Y-212218211D01*
X178149527Y-211997663D01*
X178148151Y-211988457D01*
X178090904Y-211735467D01*
X178088180Y-211726556D01*
X177994169Y-211484806D01*
X177990158Y-211476397D01*
X177861448Y-211251202D01*
X177856237Y-211243476D01*
X177813022Y-211188658D01*
X177801097Y-211180187D01*
X177789563Y-211186673D01*
X176728048Y-212248188D01*
X176720434Y-212262132D01*
X175990382Y-212262132D01*
X175991618Y-212259868D01*
X175991487Y-212258035D01*
X175987236Y-212251420D01*
X174921842Y-211186026D01*
X174908533Y-211178758D01*
X174898498Y-211185878D01*
X174882963Y-211204556D01*
X174877557Y-211212135D01*
X174742991Y-211433891D01*
X174738762Y-211442192D01*
X174638458Y-211681389D01*
X174635497Y-211690239D01*
X174571654Y-211941625D01*
X174570032Y-211950822D01*
X174544046Y-212208885D01*
X174543801Y-212218211D01*
X173085916Y-212218211D01*
X173069527Y-211997663D01*
X173068151Y-211988457D01*
X173010904Y-211735467D01*
X173008180Y-211726556D01*
X172914169Y-211484806D01*
X172910158Y-211476397D01*
X172781448Y-211251202D01*
X172776237Y-211243476D01*
X172733022Y-211188658D01*
X172721097Y-211180187D01*
X172709563Y-211186673D01*
X171648048Y-212248188D01*
X171640434Y-212262132D01*
X170910382Y-212262132D01*
X170911618Y-212259868D01*
X170911487Y-212258035D01*
X170907236Y-212251420D01*
X169841842Y-211186026D01*
X169828533Y-211178758D01*
X169818498Y-211185878D01*
X169802963Y-211204556D01*
X169797557Y-211212135D01*
X169662991Y-211433891D01*
X169658762Y-211442192D01*
X169558458Y-211681389D01*
X169555497Y-211690239D01*
X169491654Y-211941625D01*
X169490032Y-211950822D01*
X169464046Y-212208885D01*
X169463801Y-212218211D01*
X161050093Y-212218211D01*
X161054693Y-211988885D01*
X164388026Y-211988885D01*
X164392501Y-212004124D01*
X164393891Y-212005329D01*
X164401574Y-212007000D01*
X165923911Y-212007000D01*
X165939150Y-212002525D01*
X165940355Y-212001135D01*
X165942026Y-211993452D01*
X165942026Y-211988885D01*
X166450026Y-211988885D01*
X166454501Y-212004124D01*
X166455891Y-212005329D01*
X166463574Y-212007000D01*
X167985910Y-212007000D01*
X168001149Y-212002525D01*
X168002354Y-212001135D01*
X168004025Y-211993452D01*
X168004025Y-210916331D01*
X168003655Y-210909510D01*
X167998131Y-210858648D01*
X167994505Y-210843396D01*
X167983368Y-210813689D01*
X170193128Y-210813689D01*
X170197701Y-210823465D01*
X171263214Y-211888978D01*
X171277158Y-211896592D01*
X171278991Y-211896461D01*
X171285606Y-211892210D01*
X172350375Y-210827441D01*
X172356759Y-210815751D01*
X172355156Y-210813689D01*
X175273128Y-210813689D01*
X175277701Y-210823465D01*
X176343214Y-211888978D01*
X176357158Y-211896592D01*
X176358991Y-211896461D01*
X176365606Y-211892210D01*
X177430375Y-210827441D01*
X177436759Y-210815751D01*
X177435156Y-210813689D01*
X180353128Y-210813689D01*
X180357701Y-210823465D01*
X181423214Y-211888978D01*
X181437158Y-211896592D01*
X181438991Y-211896461D01*
X181445606Y-211892210D01*
X182510375Y-210827441D01*
X182516759Y-210815751D01*
X182515156Y-210813689D01*
X185433128Y-210813689D01*
X185437701Y-210823465D01*
X186503214Y-211888978D01*
X186517158Y-211896592D01*
X186518991Y-211896461D01*
X186525606Y-211892210D01*
X187590375Y-210827441D01*
X187596759Y-210815751D01*
X187587347Y-210803641D01*
X187440071Y-210701471D01*
X187432036Y-210696738D01*
X187199402Y-210582016D01*
X187190769Y-210578528D01*
X186943729Y-210499450D01*
X186934669Y-210497274D01*
X186678656Y-210455580D01*
X186669369Y-210454768D01*
X186410018Y-210451373D01*
X186400707Y-210451943D01*
X186143708Y-210486919D01*
X186134572Y-210488860D01*
X185885569Y-210561439D01*
X185876826Y-210564707D01*
X185641278Y-210673296D01*
X185633123Y-210677816D01*
X185442266Y-210802947D01*
X185433128Y-210813689D01*
X182515156Y-210813689D01*
X182507347Y-210803641D01*
X182360071Y-210701471D01*
X182352036Y-210696738D01*
X182119402Y-210582016D01*
X182110769Y-210578528D01*
X181863729Y-210499450D01*
X181854669Y-210497274D01*
X181598656Y-210455580D01*
X181589369Y-210454768D01*
X181330018Y-210451373D01*
X181320707Y-210451943D01*
X181063708Y-210486919D01*
X181054572Y-210488860D01*
X180805569Y-210561439D01*
X180796826Y-210564707D01*
X180561278Y-210673296D01*
X180553123Y-210677816D01*
X180362266Y-210802947D01*
X180353128Y-210813689D01*
X177435156Y-210813689D01*
X177427347Y-210803641D01*
X177280071Y-210701471D01*
X177272036Y-210696738D01*
X177039402Y-210582016D01*
X177030769Y-210578528D01*
X176783729Y-210499450D01*
X176774669Y-210497274D01*
X176518656Y-210455580D01*
X176509369Y-210454768D01*
X176250018Y-210451373D01*
X176240707Y-210451943D01*
X175983708Y-210486919D01*
X175974572Y-210488860D01*
X175725569Y-210561439D01*
X175716826Y-210564707D01*
X175481278Y-210673296D01*
X175473123Y-210677816D01*
X175282266Y-210802947D01*
X175273128Y-210813689D01*
X172355156Y-210813689D01*
X172347347Y-210803641D01*
X172200071Y-210701471D01*
X172192036Y-210696738D01*
X171959402Y-210582016D01*
X171950769Y-210578528D01*
X171703729Y-210499450D01*
X171694669Y-210497274D01*
X171438656Y-210455580D01*
X171429369Y-210454768D01*
X171170018Y-210451373D01*
X171160707Y-210451943D01*
X170903708Y-210486919D01*
X170894572Y-210488860D01*
X170645569Y-210561439D01*
X170636826Y-210564707D01*
X170401278Y-210673296D01*
X170393123Y-210677816D01*
X170202266Y-210802947D01*
X170193128Y-210813689D01*
X167983368Y-210813689D01*
X167949350Y-210722946D01*
X167940812Y-210707351D01*
X167864311Y-210605276D01*
X167851750Y-210592715D01*
X167749675Y-210516214D01*
X167734080Y-210507676D01*
X167613632Y-210462522D01*
X167598377Y-210458895D01*
X167547512Y-210453369D01*
X167540698Y-210453000D01*
X166468141Y-210453000D01*
X166452902Y-210457475D01*
X166451697Y-210458865D01*
X166450026Y-210466548D01*
X166450026Y-211988885D01*
X165942026Y-211988885D01*
X165942026Y-210471116D01*
X165937551Y-210455877D01*
X165936161Y-210454672D01*
X165928478Y-210453001D01*
X164851357Y-210453001D01*
X164844536Y-210453371D01*
X164793674Y-210458895D01*
X164778422Y-210462521D01*
X164657972Y-210507676D01*
X164642377Y-210516214D01*
X164540302Y-210592715D01*
X164527741Y-210605276D01*
X164451240Y-210707351D01*
X164442702Y-210722946D01*
X164397548Y-210843394D01*
X164393921Y-210858649D01*
X164388395Y-210909514D01*
X164388026Y-210916328D01*
X164388026Y-211988885D01*
X161054693Y-211988885D01*
X161097395Y-209859899D01*
X161118759Y-209792193D01*
X161173337Y-209746786D01*
X161219664Y-209736480D01*
X161438164Y-209730054D01*
X161441868Y-209730000D01*
X190354543Y-209730000D01*
X190422664Y-209750002D01*
G37*
%TD.AperFunction*%
%TD*%
%TA.AperFunction,Conductor*%
%TO.N,+BATT*%
G36*
X110427789Y-42184002D02*
G01*
X110474282Y-42237658D01*
X110484386Y-42307932D01*
X110482187Y-42319412D01*
X110463417Y-42397597D01*
X110448526Y-42586801D01*
X110448526Y-44013199D01*
X110463417Y-44202403D01*
X110522521Y-44448591D01*
X110524414Y-44453162D01*
X110524415Y-44453164D01*
X110601101Y-44638299D01*
X110619410Y-44682502D01*
X110751698Y-44898376D01*
X110837146Y-44998422D01*
X110900790Y-45072939D01*
X110916128Y-45090898D01*
X111108650Y-45255328D01*
X111324524Y-45387616D01*
X111329094Y-45389509D01*
X111329098Y-45389511D01*
X111553862Y-45482611D01*
X111558435Y-45484505D01*
X111643058Y-45504821D01*
X111799810Y-45542454D01*
X111799816Y-45542455D01*
X111804623Y-45543609D01*
X112057026Y-45563474D01*
X112309429Y-45543609D01*
X112314236Y-45542455D01*
X112314242Y-45542454D01*
X112470994Y-45504821D01*
X112555617Y-45484505D01*
X112560190Y-45482611D01*
X112784954Y-45389511D01*
X112784958Y-45389509D01*
X112789528Y-45387616D01*
X113005402Y-45255328D01*
X113197924Y-45090898D01*
X113213263Y-45072939D01*
X113352409Y-44910020D01*
X113411860Y-44871211D01*
X113482854Y-44870705D01*
X113518492Y-44887267D01*
X113548288Y-44907290D01*
X113753993Y-44997588D01*
X113759444Y-44998897D01*
X113759448Y-44998898D01*
X113966980Y-45048722D01*
X113972437Y-45050032D01*
X114056501Y-45054879D01*
X114191109Y-45062640D01*
X114191112Y-45062640D01*
X114196716Y-45062963D01*
X114419741Y-45035975D01*
X114634461Y-44969918D01*
X114639441Y-44967348D01*
X114639445Y-44967346D01*
X114829107Y-44869454D01*
X114829108Y-44869454D01*
X114834090Y-44866882D01*
X114839091Y-44863045D01*
X114900153Y-44816190D01*
X115012318Y-44730123D01*
X115016084Y-44725984D01*
X115016094Y-44725975D01*
X115063844Y-44673498D01*
X115124484Y-44636576D01*
X115195460Y-44638299D01*
X115244722Y-44667814D01*
X115358108Y-44777693D01*
X115366805Y-44784735D01*
X115543870Y-44903719D01*
X115553668Y-44909105D01*
X115749016Y-44994857D01*
X115759608Y-44998422D01*
X115885410Y-45028624D01*
X115899496Y-45027919D01*
X115903026Y-45019040D01*
X115903026Y-43172000D01*
X115923028Y-43103879D01*
X115976684Y-43057386D01*
X116029026Y-43046000D01*
X116285026Y-43046000D01*
X116353147Y-43066002D01*
X116399640Y-43119658D01*
X116411026Y-43172000D01*
X116411026Y-45018411D01*
X116415131Y-45032393D01*
X116424754Y-45033886D01*
X116424999Y-45033834D01*
X116628909Y-44971102D01*
X116639255Y-44966881D01*
X116828840Y-44869029D01*
X116838269Y-44863045D01*
X116843741Y-44858846D01*
X116909962Y-44833247D01*
X116979511Y-44847513D01*
X117021268Y-44883243D01*
X117043765Y-44913261D01*
X117160321Y-45000615D01*
X117296710Y-45051745D01*
X117358892Y-45058500D01*
X118955160Y-45058500D01*
X118958555Y-45058131D01*
X118958559Y-45058131D01*
X119011612Y-45052368D01*
X119081495Y-45064897D01*
X119113786Y-45088155D01*
X119116128Y-45090898D01*
X119308650Y-45255328D01*
X119524524Y-45387616D01*
X119529094Y-45389509D01*
X119529098Y-45389511D01*
X119753862Y-45482611D01*
X119758435Y-45484505D01*
X119843058Y-45504821D01*
X119999810Y-45542454D01*
X119999816Y-45542455D01*
X120004623Y-45543609D01*
X120257026Y-45563474D01*
X120509429Y-45543609D01*
X120514236Y-45542455D01*
X120514242Y-45542454D01*
X120670994Y-45504821D01*
X120755617Y-45484505D01*
X120760190Y-45482611D01*
X120984954Y-45389511D01*
X120984958Y-45389509D01*
X120989528Y-45387616D01*
X121205402Y-45255328D01*
X121397924Y-45090898D01*
X121413263Y-45072939D01*
X121476906Y-44998422D01*
X121562354Y-44898376D01*
X121694642Y-44682502D01*
X121712952Y-44638299D01*
X121789637Y-44453164D01*
X121789638Y-44453162D01*
X121791531Y-44448591D01*
X121850635Y-44202403D01*
X121865526Y-44013199D01*
X121865526Y-42586801D01*
X121850635Y-42397597D01*
X121831865Y-42319414D01*
X121835412Y-42248506D01*
X121876732Y-42190772D01*
X121942706Y-42164542D01*
X121954384Y-42164000D01*
X139523200Y-42164000D01*
X139591321Y-42184002D01*
X139637814Y-42237658D01*
X139649200Y-42290000D01*
X139649200Y-118593600D01*
X139629198Y-118661721D01*
X139575542Y-118708214D01*
X139523200Y-118719600D01*
X86028422Y-118719600D01*
X85960301Y-118699598D01*
X85913808Y-118645942D01*
X85902423Y-118593978D01*
X85889714Y-114361670D01*
X131849160Y-114361670D01*
X131854887Y-114369320D01*
X132026042Y-114474205D01*
X132034837Y-114478687D01*
X132244988Y-114565734D01*
X132254373Y-114568783D01*
X132475554Y-114621885D01*
X132485301Y-114623428D01*
X132712070Y-114641275D01*
X132721930Y-114641275D01*
X132948699Y-114623428D01*
X132958446Y-114621885D01*
X133179627Y-114568783D01*
X133189012Y-114565734D01*
X133399163Y-114478687D01*
X133407958Y-114474205D01*
X133575445Y-114371568D01*
X133584907Y-114361110D01*
X133581124Y-114352334D01*
X132729812Y-113501022D01*
X132715868Y-113493408D01*
X132714035Y-113493539D01*
X132707420Y-113497790D01*
X131855920Y-114349290D01*
X131849160Y-114361670D01*
X85889714Y-114361670D01*
X85886027Y-113133930D01*
X131204725Y-113133930D01*
X131222572Y-113360699D01*
X131224115Y-113370446D01*
X131277217Y-113591627D01*
X131280266Y-113601012D01*
X131367313Y-113811163D01*
X131371795Y-113819958D01*
X131474432Y-113987445D01*
X131484890Y-113996907D01*
X131493666Y-113993124D01*
X132344978Y-113141812D01*
X132351356Y-113130132D01*
X133081408Y-113130132D01*
X133081539Y-113131965D01*
X133085790Y-113138580D01*
X133937290Y-113990080D01*
X133949670Y-113996840D01*
X133957320Y-113991113D01*
X134062205Y-113819958D01*
X134066687Y-113811163D01*
X134153734Y-113601012D01*
X134156783Y-113591627D01*
X134209885Y-113370446D01*
X134211428Y-113360699D01*
X134229275Y-113133930D01*
X134229275Y-113124070D01*
X134211428Y-112897301D01*
X134209885Y-112887554D01*
X134156783Y-112666373D01*
X134153734Y-112656988D01*
X134066687Y-112446837D01*
X134062205Y-112438042D01*
X133959568Y-112270555D01*
X133949110Y-112261093D01*
X133940334Y-112264876D01*
X133089022Y-113116188D01*
X133081408Y-113130132D01*
X132351356Y-113130132D01*
X132352592Y-113127868D01*
X132352461Y-113126035D01*
X132348210Y-113119420D01*
X131496710Y-112267920D01*
X131484330Y-112261160D01*
X131476680Y-112266887D01*
X131371795Y-112438042D01*
X131367313Y-112446837D01*
X131280266Y-112656988D01*
X131277217Y-112666373D01*
X131224115Y-112887554D01*
X131222572Y-112897301D01*
X131204725Y-113124070D01*
X131204725Y-113133930D01*
X85886027Y-113133930D01*
X85882287Y-111888669D01*
X88562001Y-111888669D01*
X88562371Y-111895490D01*
X88567895Y-111946352D01*
X88571521Y-111961604D01*
X88616676Y-112082054D01*
X88625214Y-112097649D01*
X88701715Y-112199724D01*
X88714276Y-112212285D01*
X88816351Y-112288786D01*
X88831946Y-112297324D01*
X88952394Y-112342478D01*
X88967649Y-112346105D01*
X89018514Y-112351631D01*
X89025328Y-112352000D01*
X89897885Y-112352000D01*
X89913124Y-112347525D01*
X89914329Y-112346135D01*
X89916000Y-112338452D01*
X89916000Y-112333884D01*
X90424000Y-112333884D01*
X90428475Y-112349123D01*
X90429865Y-112350328D01*
X90437548Y-112351999D01*
X91314669Y-112351999D01*
X91321490Y-112351629D01*
X91372352Y-112346105D01*
X91387604Y-112342479D01*
X91508054Y-112297324D01*
X91523649Y-112288786D01*
X91625724Y-112212285D01*
X91638285Y-112199724D01*
X91714786Y-112097649D01*
X91723324Y-112082054D01*
X91768478Y-111961606D01*
X91772105Y-111946351D01*
X91777631Y-111895486D01*
X91778000Y-111888672D01*
X91778000Y-111016115D01*
X91773525Y-111000876D01*
X91772135Y-110999671D01*
X91764452Y-110998000D01*
X90442115Y-110998000D01*
X90426876Y-111002475D01*
X90425671Y-111003865D01*
X90424000Y-111011548D01*
X90424000Y-112333884D01*
X89916000Y-112333884D01*
X89916000Y-111016115D01*
X89911525Y-111000876D01*
X89910135Y-110999671D01*
X89902452Y-110998000D01*
X88580116Y-110998000D01*
X88564877Y-111002475D01*
X88563672Y-111003865D01*
X88562001Y-111011548D01*
X88562001Y-111888669D01*
X85882287Y-111888669D01*
X85878849Y-110744000D01*
X98716526Y-110744000D01*
X98736391Y-110996403D01*
X98737545Y-111001210D01*
X98737546Y-111001216D01*
X98769397Y-111133883D01*
X98795495Y-111242591D01*
X98797388Y-111247162D01*
X98797389Y-111247164D01*
X98835609Y-111339434D01*
X98892384Y-111476502D01*
X99024672Y-111692376D01*
X99189102Y-111884898D01*
X99381624Y-112049328D01*
X99597498Y-112181616D01*
X99602068Y-112183509D01*
X99602072Y-112183511D01*
X99826836Y-112276611D01*
X99831409Y-112278505D01*
X99916032Y-112298821D01*
X100072784Y-112336454D01*
X100072790Y-112336455D01*
X100077597Y-112337609D01*
X100330000Y-112357474D01*
X100582403Y-112337609D01*
X100587210Y-112336455D01*
X100587216Y-112336454D01*
X100743968Y-112298821D01*
X100828591Y-112278505D01*
X100833164Y-112276611D01*
X101057928Y-112183511D01*
X101057932Y-112183509D01*
X101062502Y-112181616D01*
X101278376Y-112049328D01*
X101456857Y-111896890D01*
X131849093Y-111896890D01*
X131852876Y-111905666D01*
X132704188Y-112756978D01*
X132718132Y-112764592D01*
X132719965Y-112764461D01*
X132726580Y-112760210D01*
X133578080Y-111908710D01*
X133584840Y-111896330D01*
X133579113Y-111888680D01*
X133407958Y-111783795D01*
X133399163Y-111779313D01*
X133189012Y-111692266D01*
X133179627Y-111689217D01*
X132958446Y-111636115D01*
X132948699Y-111634572D01*
X132721930Y-111616725D01*
X132712070Y-111616725D01*
X132485301Y-111634572D01*
X132475554Y-111636115D01*
X132254373Y-111689217D01*
X132244988Y-111692266D01*
X132034837Y-111779313D01*
X132026042Y-111783795D01*
X131858555Y-111886432D01*
X131849093Y-111896890D01*
X101456857Y-111896890D01*
X101470898Y-111884898D01*
X101635328Y-111692376D01*
X101767616Y-111476502D01*
X101824392Y-111339434D01*
X101862611Y-111247164D01*
X101862612Y-111247162D01*
X101864505Y-111242591D01*
X101890603Y-111133883D01*
X101922454Y-111001216D01*
X101922455Y-111001210D01*
X101923609Y-110996403D01*
X101943474Y-110744000D01*
X101923609Y-110491597D01*
X101922152Y-110485525D01*
X101865660Y-110250221D01*
X101864505Y-110245409D01*
X101862611Y-110240836D01*
X101769511Y-110016072D01*
X101769509Y-110016068D01*
X101767616Y-110011498D01*
X101635328Y-109795624D01*
X101470898Y-109603102D01*
X101278376Y-109438672D01*
X101065005Y-109307918D01*
X107903917Y-109307918D01*
X107919682Y-109581320D01*
X107920507Y-109585525D01*
X107920508Y-109585533D01*
X107923326Y-109599894D01*
X107972405Y-109850053D01*
X107973792Y-109854103D01*
X107973793Y-109854108D01*
X107994605Y-109914895D01*
X108061112Y-110109144D01*
X108184160Y-110353799D01*
X108186586Y-110357328D01*
X108186589Y-110357334D01*
X108336843Y-110575953D01*
X108339274Y-110579490D01*
X108523582Y-110782043D01*
X108733675Y-110957707D01*
X108737316Y-110959991D01*
X108962024Y-111100951D01*
X108962028Y-111100953D01*
X108965664Y-111103234D01*
X109033544Y-111133883D01*
X109211345Y-111214164D01*
X109211349Y-111214166D01*
X109215257Y-111215930D01*
X109219377Y-111217150D01*
X109219376Y-111217150D01*
X109473723Y-111292491D01*
X109473727Y-111292492D01*
X109477836Y-111293709D01*
X109482070Y-111294357D01*
X109482075Y-111294358D01*
X109744298Y-111334483D01*
X109744300Y-111334483D01*
X109748540Y-111335132D01*
X109887912Y-111337322D01*
X110018071Y-111339367D01*
X110018077Y-111339367D01*
X110022362Y-111339434D01*
X110294235Y-111306534D01*
X110559127Y-111237041D01*
X110563087Y-111235401D01*
X110563092Y-111235399D01*
X110685631Y-111184641D01*
X110812136Y-111132241D01*
X111048582Y-110994073D01*
X111264089Y-110825094D01*
X111305809Y-110782043D01*
X111451686Y-110631509D01*
X111454669Y-110628431D01*
X111457202Y-110624983D01*
X111457206Y-110624978D01*
X111614257Y-110411178D01*
X111616795Y-110407723D01*
X111644154Y-110357334D01*
X111745418Y-110170830D01*
X111745419Y-110170828D01*
X111747468Y-110167054D01*
X111844269Y-109910877D01*
X111905407Y-109643933D01*
X111909338Y-109599894D01*
X111929531Y-109373627D01*
X111929531Y-109373625D01*
X111929751Y-109371161D01*
X111930193Y-109329000D01*
X111928756Y-109307918D01*
X115503917Y-109307918D01*
X115519682Y-109581320D01*
X115520507Y-109585525D01*
X115520508Y-109585533D01*
X115523326Y-109599894D01*
X115572405Y-109850053D01*
X115573792Y-109854103D01*
X115573793Y-109854108D01*
X115594605Y-109914895D01*
X115661112Y-110109144D01*
X115784160Y-110353799D01*
X115786586Y-110357328D01*
X115786589Y-110357334D01*
X115936843Y-110575953D01*
X115939274Y-110579490D01*
X116123582Y-110782043D01*
X116333675Y-110957707D01*
X116337316Y-110959991D01*
X116562024Y-111100951D01*
X116562028Y-111100953D01*
X116565664Y-111103234D01*
X116633544Y-111133883D01*
X116811345Y-111214164D01*
X116811349Y-111214166D01*
X116815257Y-111215930D01*
X116819377Y-111217150D01*
X116819376Y-111217150D01*
X117073723Y-111292491D01*
X117073727Y-111292492D01*
X117077836Y-111293709D01*
X117082070Y-111294357D01*
X117082075Y-111294358D01*
X117344298Y-111334483D01*
X117344300Y-111334483D01*
X117348540Y-111335132D01*
X117487912Y-111337322D01*
X117618071Y-111339367D01*
X117618077Y-111339367D01*
X117622362Y-111339434D01*
X117894235Y-111306534D01*
X118159127Y-111237041D01*
X118163087Y-111235401D01*
X118163092Y-111235399D01*
X118285631Y-111184641D01*
X118412136Y-111132241D01*
X118648582Y-110994073D01*
X118864089Y-110825094D01*
X118905809Y-110782043D01*
X119051686Y-110631509D01*
X119054669Y-110628431D01*
X119057202Y-110624983D01*
X119057206Y-110624978D01*
X119214257Y-110411178D01*
X119216795Y-110407723D01*
X119244154Y-110357334D01*
X119345418Y-110170830D01*
X119345419Y-110170828D01*
X119347468Y-110167054D01*
X119444269Y-109910877D01*
X119505407Y-109643933D01*
X119509338Y-109599894D01*
X119529531Y-109373627D01*
X119529531Y-109373625D01*
X119529751Y-109371161D01*
X119530193Y-109329000D01*
X119527417Y-109288276D01*
X119511859Y-109060055D01*
X119511858Y-109060049D01*
X119511567Y-109055778D01*
X119456032Y-108787612D01*
X119364617Y-108529465D01*
X119239013Y-108286112D01*
X119229040Y-108271921D01*
X119084008Y-108065562D01*
X119081545Y-108062057D01*
X118895125Y-107861445D01*
X118891810Y-107858731D01*
X118891806Y-107858728D01*
X118686523Y-107690706D01*
X118683205Y-107687990D01*
X118449704Y-107544901D01*
X118445768Y-107543173D01*
X118202873Y-107436549D01*
X118202869Y-107436548D01*
X118198945Y-107434825D01*
X117935566Y-107359800D01*
X117931324Y-107359196D01*
X117931318Y-107359195D01*
X117730834Y-107330662D01*
X117664443Y-107321213D01*
X117520589Y-107320460D01*
X117394877Y-107319802D01*
X117394871Y-107319802D01*
X117390591Y-107319780D01*
X117386347Y-107320339D01*
X117386343Y-107320339D01*
X117267302Y-107336011D01*
X117119078Y-107355525D01*
X117114938Y-107356658D01*
X117114936Y-107356658D01*
X117042008Y-107376609D01*
X116854928Y-107427788D01*
X116850980Y-107429472D01*
X116606982Y-107533546D01*
X116606978Y-107533548D01*
X116603030Y-107535232D01*
X116583125Y-107547145D01*
X116371725Y-107673664D01*
X116371721Y-107673667D01*
X116368043Y-107675868D01*
X116154318Y-107847094D01*
X115965808Y-108045742D01*
X115806002Y-108268136D01*
X115677857Y-108510161D01*
X115676385Y-108514184D01*
X115676383Y-108514188D01*
X115669314Y-108533506D01*
X115583743Y-108767337D01*
X115525404Y-109034907D01*
X115503917Y-109307918D01*
X111928756Y-109307918D01*
X111927417Y-109288276D01*
X111911859Y-109060055D01*
X111911858Y-109060049D01*
X111911567Y-109055778D01*
X111856032Y-108787612D01*
X111764617Y-108529465D01*
X111639013Y-108286112D01*
X111629040Y-108271921D01*
X111484008Y-108065562D01*
X111481545Y-108062057D01*
X111295125Y-107861445D01*
X111291810Y-107858731D01*
X111291806Y-107858728D01*
X111086523Y-107690706D01*
X111083205Y-107687990D01*
X110849704Y-107544901D01*
X110845768Y-107543173D01*
X110602873Y-107436549D01*
X110602869Y-107436548D01*
X110598945Y-107434825D01*
X110335566Y-107359800D01*
X110331324Y-107359196D01*
X110331318Y-107359195D01*
X110130834Y-107330662D01*
X110064443Y-107321213D01*
X109920589Y-107320460D01*
X109794877Y-107319802D01*
X109794871Y-107319802D01*
X109790591Y-107319780D01*
X109786347Y-107320339D01*
X109786343Y-107320339D01*
X109667302Y-107336011D01*
X109519078Y-107355525D01*
X109514938Y-107356658D01*
X109514936Y-107356658D01*
X109442008Y-107376609D01*
X109254928Y-107427788D01*
X109250980Y-107429472D01*
X109006982Y-107533546D01*
X109006978Y-107533548D01*
X109003030Y-107535232D01*
X108983125Y-107547145D01*
X108771725Y-107673664D01*
X108771721Y-107673667D01*
X108768043Y-107675868D01*
X108554318Y-107847094D01*
X108365808Y-108045742D01*
X108206002Y-108268136D01*
X108077857Y-108510161D01*
X108076385Y-108514184D01*
X108076383Y-108514188D01*
X108069314Y-108533506D01*
X107983743Y-108767337D01*
X107925404Y-109034907D01*
X107903917Y-109307918D01*
X101065005Y-109307918D01*
X101062502Y-109306384D01*
X101057932Y-109304491D01*
X101057928Y-109304489D01*
X100833164Y-109211389D01*
X100833162Y-109211388D01*
X100828591Y-109209495D01*
X100743968Y-109189179D01*
X100587216Y-109151546D01*
X100587210Y-109151545D01*
X100582403Y-109150391D01*
X100330000Y-109130526D01*
X100077597Y-109150391D01*
X100072790Y-109151545D01*
X100072784Y-109151546D01*
X99916032Y-109189179D01*
X99831409Y-109209495D01*
X99826838Y-109211388D01*
X99826836Y-109211389D01*
X99602072Y-109304489D01*
X99602068Y-109304491D01*
X99597498Y-109306384D01*
X99381624Y-109438672D01*
X99189102Y-109603102D01*
X99024672Y-109795624D01*
X98892384Y-110011498D01*
X98890491Y-110016068D01*
X98890489Y-110016072D01*
X98797389Y-110240836D01*
X98795495Y-110245409D01*
X98794340Y-110250221D01*
X98737849Y-110485525D01*
X98736391Y-110491597D01*
X98716526Y-110744000D01*
X85878849Y-110744000D01*
X85878032Y-110471885D01*
X88562000Y-110471885D01*
X88566475Y-110487124D01*
X88567865Y-110488329D01*
X88575548Y-110490000D01*
X89897885Y-110490000D01*
X89913124Y-110485525D01*
X89914329Y-110484135D01*
X89916000Y-110476452D01*
X89916000Y-110471885D01*
X90424000Y-110471885D01*
X90428475Y-110487124D01*
X90429865Y-110488329D01*
X90437548Y-110490000D01*
X91759884Y-110490000D01*
X91775123Y-110485525D01*
X91776328Y-110484135D01*
X91777999Y-110476452D01*
X91777999Y-109599331D01*
X91777629Y-109592510D01*
X91772105Y-109541648D01*
X91768479Y-109526396D01*
X91723324Y-109405946D01*
X91714786Y-109390351D01*
X91638285Y-109288276D01*
X91625724Y-109275715D01*
X91523649Y-109199214D01*
X91508054Y-109190676D01*
X91387606Y-109145522D01*
X91372351Y-109141895D01*
X91321486Y-109136369D01*
X91314672Y-109136000D01*
X90442115Y-109136000D01*
X90426876Y-109140475D01*
X90425671Y-109141865D01*
X90424000Y-109149548D01*
X90424000Y-110471885D01*
X89916000Y-110471885D01*
X89916000Y-109154116D01*
X89911525Y-109138877D01*
X89910135Y-109137672D01*
X89902452Y-109136001D01*
X89025331Y-109136001D01*
X89018510Y-109136371D01*
X88967648Y-109141895D01*
X88952396Y-109145521D01*
X88831946Y-109190676D01*
X88816351Y-109199214D01*
X88714276Y-109275715D01*
X88701715Y-109288276D01*
X88625214Y-109390351D01*
X88616676Y-109405946D01*
X88571522Y-109526394D01*
X88567895Y-109541649D01*
X88562369Y-109592514D01*
X88562000Y-109599328D01*
X88562000Y-110471885D01*
X85878032Y-110471885D01*
X85851437Y-101615758D01*
X85845472Y-99629318D01*
X122008917Y-99629318D01*
X122024682Y-99902720D01*
X122025507Y-99906925D01*
X122025508Y-99906933D01*
X122036127Y-99961057D01*
X122077405Y-100171453D01*
X122078792Y-100175503D01*
X122078793Y-100175508D01*
X122099605Y-100236295D01*
X122166112Y-100430544D01*
X122289160Y-100675199D01*
X122291586Y-100678728D01*
X122291589Y-100678734D01*
X122441843Y-100897353D01*
X122444274Y-100900890D01*
X122628582Y-101103443D01*
X122838675Y-101279107D01*
X122842316Y-101281391D01*
X123067024Y-101422351D01*
X123067028Y-101422353D01*
X123070664Y-101424634D01*
X123138544Y-101455283D01*
X123316345Y-101535564D01*
X123316349Y-101535566D01*
X123320257Y-101537330D01*
X123324377Y-101538550D01*
X123324376Y-101538550D01*
X123578723Y-101613891D01*
X123578727Y-101613892D01*
X123582836Y-101615109D01*
X123587070Y-101615757D01*
X123587075Y-101615758D01*
X123849298Y-101655883D01*
X123849300Y-101655883D01*
X123853540Y-101656532D01*
X123992912Y-101658722D01*
X124123071Y-101660767D01*
X124123077Y-101660767D01*
X124127362Y-101660834D01*
X124399235Y-101627934D01*
X124664127Y-101558441D01*
X124668087Y-101556801D01*
X124668092Y-101556799D01*
X124790632Y-101506041D01*
X124917136Y-101453641D01*
X125153582Y-101315473D01*
X125369089Y-101146494D01*
X125410809Y-101103443D01*
X125556686Y-100952909D01*
X125559669Y-100949831D01*
X125562202Y-100946383D01*
X125562206Y-100946378D01*
X125719257Y-100732578D01*
X125721795Y-100729123D01*
X125749154Y-100678734D01*
X125850418Y-100492230D01*
X125850419Y-100492228D01*
X125852468Y-100488454D01*
X125949269Y-100232277D01*
X126010407Y-99965333D01*
X126034751Y-99692561D01*
X126035193Y-99650400D01*
X126016567Y-99377178D01*
X125961032Y-99109012D01*
X125869617Y-98850865D01*
X125744013Y-98607512D01*
X125734040Y-98593321D01*
X125665279Y-98495485D01*
X125586545Y-98383457D01*
X125400125Y-98182845D01*
X125396810Y-98180131D01*
X125396806Y-98180128D01*
X125191523Y-98012106D01*
X125188205Y-98009390D01*
X124954704Y-97866301D01*
X124950768Y-97864573D01*
X124707873Y-97757949D01*
X124707869Y-97757948D01*
X124703945Y-97756225D01*
X124440566Y-97681200D01*
X124436324Y-97680596D01*
X124436318Y-97680595D01*
X124235834Y-97652062D01*
X124169443Y-97642613D01*
X124025589Y-97641860D01*
X123899877Y-97641202D01*
X123899871Y-97641202D01*
X123895591Y-97641180D01*
X123891347Y-97641739D01*
X123891343Y-97641739D01*
X123772302Y-97657411D01*
X123624078Y-97676925D01*
X123619938Y-97678058D01*
X123619936Y-97678058D01*
X123547008Y-97698009D01*
X123359928Y-97749188D01*
X123355980Y-97750872D01*
X123111982Y-97854946D01*
X123111978Y-97854948D01*
X123108030Y-97856632D01*
X123088125Y-97868545D01*
X122876725Y-97995064D01*
X122876721Y-97995067D01*
X122873043Y-97997268D01*
X122659318Y-98168494D01*
X122470808Y-98367142D01*
X122311002Y-98589536D01*
X122182857Y-98831561D01*
X122181385Y-98835584D01*
X122181383Y-98835588D01*
X122174314Y-98854906D01*
X122088743Y-99088737D01*
X122030404Y-99356307D01*
X122008917Y-99629318D01*
X85845472Y-99629318D01*
X85841216Y-98212134D01*
X102408526Y-98212134D01*
X102415281Y-98274316D01*
X102466411Y-98410705D01*
X102553765Y-98527261D01*
X102670321Y-98614615D01*
X102806710Y-98665745D01*
X102868892Y-98672500D01*
X107537160Y-98672500D01*
X107599342Y-98665745D01*
X107735731Y-98614615D01*
X107852287Y-98527261D01*
X107939641Y-98410705D01*
X107990771Y-98274316D01*
X107997526Y-98212134D01*
X107997526Y-93543866D01*
X107990771Y-93481684D01*
X107939641Y-93345295D01*
X107852287Y-93228739D01*
X107735731Y-93141385D01*
X107599342Y-93090255D01*
X107537160Y-93083500D01*
X102868892Y-93083500D01*
X102806710Y-93090255D01*
X102670321Y-93141385D01*
X102553765Y-93228739D01*
X102466411Y-93345295D01*
X102415281Y-93481684D01*
X102408526Y-93543866D01*
X102408526Y-98212134D01*
X85841216Y-98212134D01*
X85801200Y-84886800D01*
X52094400Y-84886800D01*
X52026279Y-84866798D01*
X51979786Y-84813142D01*
X51968400Y-84760800D01*
X51968400Y-82460669D01*
X56689027Y-82460669D01*
X56689397Y-82467490D01*
X56694921Y-82518352D01*
X56698547Y-82533604D01*
X56743702Y-82654054D01*
X56752240Y-82669649D01*
X56828741Y-82771724D01*
X56841302Y-82784285D01*
X56943377Y-82860786D01*
X56958972Y-82869324D01*
X57079420Y-82914478D01*
X57094675Y-82918105D01*
X57145540Y-82923631D01*
X57152354Y-82924000D01*
X59210911Y-82924000D01*
X59226150Y-82919525D01*
X59227355Y-82918135D01*
X59229026Y-82910452D01*
X59229026Y-82905884D01*
X59737026Y-82905884D01*
X59741501Y-82921123D01*
X59742891Y-82922328D01*
X59750574Y-82923999D01*
X61813695Y-82923999D01*
X61820516Y-82923629D01*
X61871378Y-82918105D01*
X61886630Y-82914479D01*
X62007080Y-82869324D01*
X62022675Y-82860786D01*
X62124750Y-82784285D01*
X62137311Y-82771724D01*
X62213812Y-82669649D01*
X62222350Y-82654054D01*
X62267504Y-82533606D01*
X62271131Y-82518351D01*
X62276657Y-82467486D01*
X62276839Y-82464134D01*
X102408526Y-82464134D01*
X102415281Y-82526316D01*
X102466411Y-82662705D01*
X102553765Y-82779261D01*
X102670321Y-82866615D01*
X102806710Y-82917745D01*
X102868892Y-82924500D01*
X107537160Y-82924500D01*
X107599342Y-82917745D01*
X107735731Y-82866615D01*
X107852287Y-82779261D01*
X107939641Y-82662705D01*
X107990771Y-82526316D01*
X107997526Y-82464134D01*
X107997526Y-81512918D01*
X114318917Y-81512918D01*
X114334682Y-81786320D01*
X114335507Y-81790525D01*
X114335508Y-81790533D01*
X114346127Y-81844657D01*
X114387405Y-82055053D01*
X114388792Y-82059103D01*
X114388793Y-82059108D01*
X114409605Y-82119895D01*
X114476112Y-82314144D01*
X114478039Y-82317975D01*
X114549808Y-82460672D01*
X114599160Y-82558799D01*
X114601586Y-82562328D01*
X114601589Y-82562334D01*
X114675512Y-82669891D01*
X114754274Y-82784490D01*
X114757161Y-82787663D01*
X114757162Y-82787664D01*
X114935692Y-82983867D01*
X114938582Y-82987043D01*
X115148675Y-83162707D01*
X115152316Y-83164991D01*
X115377024Y-83305951D01*
X115377028Y-83305953D01*
X115380664Y-83308234D01*
X115448544Y-83338883D01*
X115626345Y-83419164D01*
X115626349Y-83419166D01*
X115630257Y-83420930D01*
X115634377Y-83422150D01*
X115634376Y-83422150D01*
X115888723Y-83497491D01*
X115888727Y-83497492D01*
X115892836Y-83498709D01*
X115897070Y-83499357D01*
X115897075Y-83499358D01*
X116159298Y-83539483D01*
X116159300Y-83539483D01*
X116163540Y-83540132D01*
X116302912Y-83542322D01*
X116433071Y-83544367D01*
X116433077Y-83544367D01*
X116437362Y-83544434D01*
X116709235Y-83511534D01*
X116974127Y-83442041D01*
X116978087Y-83440401D01*
X116978092Y-83440399D01*
X117100631Y-83389641D01*
X117227136Y-83337241D01*
X117463582Y-83199073D01*
X117679089Y-83030094D01*
X117720809Y-82987043D01*
X117866686Y-82836509D01*
X117869669Y-82833431D01*
X117872202Y-82829983D01*
X117872206Y-82829978D01*
X118029257Y-82616178D01*
X118031795Y-82612723D01*
X118059154Y-82562334D01*
X118160418Y-82375830D01*
X118160419Y-82375828D01*
X118162468Y-82372054D01*
X118259269Y-82115877D01*
X118320407Y-81848933D01*
X118344751Y-81576161D01*
X118345193Y-81534000D01*
X118326567Y-81260778D01*
X118271032Y-80992612D01*
X118179617Y-80734465D01*
X118054013Y-80491112D01*
X118044040Y-80476921D01*
X117899008Y-80270562D01*
X117896545Y-80267057D01*
X117710125Y-80066445D01*
X117706810Y-80063731D01*
X117706806Y-80063728D01*
X117501523Y-79895706D01*
X117498205Y-79892990D01*
X117264704Y-79749901D01*
X117260768Y-79748173D01*
X117017873Y-79641549D01*
X117017869Y-79641548D01*
X117013945Y-79639825D01*
X116750566Y-79564800D01*
X116746324Y-79564196D01*
X116746318Y-79564195D01*
X116545834Y-79535662D01*
X116479443Y-79526213D01*
X116335589Y-79525460D01*
X116209877Y-79524802D01*
X116209871Y-79524802D01*
X116205591Y-79524780D01*
X116201347Y-79525339D01*
X116201343Y-79525339D01*
X116082302Y-79541011D01*
X115934078Y-79560525D01*
X115929938Y-79561658D01*
X115929936Y-79561658D01*
X115857008Y-79581609D01*
X115669928Y-79632788D01*
X115665980Y-79634472D01*
X115421982Y-79738546D01*
X115421978Y-79738548D01*
X115418030Y-79740232D01*
X115398125Y-79752145D01*
X115186725Y-79878664D01*
X115186721Y-79878667D01*
X115183043Y-79880868D01*
X114969318Y-80052094D01*
X114780808Y-80250742D01*
X114621002Y-80473136D01*
X114492857Y-80715161D01*
X114491385Y-80719184D01*
X114491383Y-80719188D01*
X114484314Y-80738506D01*
X114398743Y-80972337D01*
X114340404Y-81239907D01*
X114318917Y-81512918D01*
X107997526Y-81512918D01*
X107997526Y-77795866D01*
X107990771Y-77733684D01*
X107939641Y-77597295D01*
X107852287Y-77480739D01*
X107735731Y-77393385D01*
X107599342Y-77342255D01*
X107537160Y-77335500D01*
X102868892Y-77335500D01*
X102806710Y-77342255D01*
X102670321Y-77393385D01*
X102553765Y-77480739D01*
X102466411Y-77597295D01*
X102415281Y-77733684D01*
X102408526Y-77795866D01*
X102408526Y-82464134D01*
X62276839Y-82464134D01*
X62277026Y-82460672D01*
X62277026Y-80402115D01*
X62272551Y-80386876D01*
X62271161Y-80385671D01*
X62263478Y-80384000D01*
X59755141Y-80384000D01*
X59739902Y-80388475D01*
X59738697Y-80389865D01*
X59737026Y-80397548D01*
X59737026Y-82905884D01*
X59229026Y-82905884D01*
X59229026Y-80402115D01*
X59224551Y-80386876D01*
X59223161Y-80385671D01*
X59215478Y-80384000D01*
X56707142Y-80384000D01*
X56691903Y-80388475D01*
X56690698Y-80389865D01*
X56689027Y-80397548D01*
X56689027Y-82460669D01*
X51968400Y-82460669D01*
X51968400Y-79857885D01*
X56689026Y-79857885D01*
X56693501Y-79873124D01*
X56694891Y-79874329D01*
X56702574Y-79876000D01*
X59210911Y-79876000D01*
X59226150Y-79871525D01*
X59227355Y-79870135D01*
X59229026Y-79862452D01*
X59229026Y-79857885D01*
X59737026Y-79857885D01*
X59741501Y-79873124D01*
X59742891Y-79874329D01*
X59750574Y-79876000D01*
X62258910Y-79876000D01*
X62274149Y-79871525D01*
X62275354Y-79870135D01*
X62277025Y-79862452D01*
X62277025Y-77799331D01*
X62276655Y-77792510D01*
X62271131Y-77741648D01*
X62267505Y-77726396D01*
X62222350Y-77605946D01*
X62213812Y-77590351D01*
X62137311Y-77488276D01*
X62124750Y-77475715D01*
X62022675Y-77399214D01*
X62007080Y-77390676D01*
X61886632Y-77345522D01*
X61871377Y-77341895D01*
X61820512Y-77336369D01*
X61813698Y-77336000D01*
X59755141Y-77336000D01*
X59739902Y-77340475D01*
X59738697Y-77341865D01*
X59737026Y-77349548D01*
X59737026Y-79857885D01*
X59229026Y-79857885D01*
X59229026Y-77354116D01*
X59224551Y-77338877D01*
X59223161Y-77337672D01*
X59215478Y-77336001D01*
X57152357Y-77336001D01*
X57145536Y-77336371D01*
X57094674Y-77341895D01*
X57079422Y-77345521D01*
X56958972Y-77390676D01*
X56943377Y-77399214D01*
X56841302Y-77475715D01*
X56828741Y-77488276D01*
X56752240Y-77590351D01*
X56743702Y-77605946D01*
X56698548Y-77726394D01*
X56694921Y-77741649D01*
X56689395Y-77792514D01*
X56689026Y-77799328D01*
X56689026Y-79857885D01*
X51968400Y-79857885D01*
X51968400Y-73979654D01*
X68117618Y-73979654D01*
X68124673Y-73989627D01*
X68155679Y-74015551D01*
X68162598Y-74020579D01*
X68387272Y-74161515D01*
X68394807Y-74165556D01*
X68636520Y-74274694D01*
X68644551Y-74277680D01*
X68898832Y-74353002D01*
X68907184Y-74354869D01*
X69169340Y-74394984D01*
X69177874Y-74395700D01*
X69443045Y-74399867D01*
X69451596Y-74399418D01*
X69714883Y-74367557D01*
X69723284Y-74365955D01*
X69979824Y-74298653D01*
X69987926Y-74295926D01*
X70232949Y-74194434D01*
X70240617Y-74190628D01*
X70469598Y-74056822D01*
X70476679Y-74052009D01*
X70556655Y-73989301D01*
X70565125Y-73977442D01*
X70558608Y-73965818D01*
X69354812Y-72762022D01*
X69340868Y-72754408D01*
X69339035Y-72754539D01*
X69332420Y-72758790D01*
X68124910Y-73966300D01*
X68117618Y-73979654D01*
X51968400Y-73979654D01*
X51968400Y-72373204D01*
X67329665Y-72373204D01*
X67344932Y-72637969D01*
X67346005Y-72646470D01*
X67397065Y-72906722D01*
X67399276Y-72914974D01*
X67485184Y-73165894D01*
X67488499Y-73173779D01*
X67607664Y-73410713D01*
X67612020Y-73418079D01*
X67741347Y-73606250D01*
X67751601Y-73614594D01*
X67765342Y-73607448D01*
X68969978Y-72402812D01*
X68976356Y-72391132D01*
X69706408Y-72391132D01*
X69706539Y-72392965D01*
X69710790Y-72399580D01*
X70917730Y-73606520D01*
X70929939Y-73613187D01*
X70941439Y-73604497D01*
X71038831Y-73471913D01*
X71043418Y-73464685D01*
X71169962Y-73231621D01*
X71173530Y-73223827D01*
X71267271Y-72975750D01*
X71269748Y-72967544D01*
X71328954Y-72709038D01*
X71330294Y-72700577D01*
X71342759Y-72560918D01*
X84709917Y-72560918D01*
X84725682Y-72834320D01*
X84726507Y-72838525D01*
X84726508Y-72838533D01*
X84751819Y-72967544D01*
X84778405Y-73103053D01*
X84779792Y-73107103D01*
X84779793Y-73107108D01*
X84865723Y-73358088D01*
X84867112Y-73362144D01*
X84990160Y-73606799D01*
X84992586Y-73610328D01*
X84992589Y-73610334D01*
X85142843Y-73828953D01*
X85145274Y-73832490D01*
X85329582Y-74035043D01*
X85332877Y-74037798D01*
X85332878Y-74037799D01*
X85377382Y-74075010D01*
X85539675Y-74210707D01*
X85543316Y-74212991D01*
X85768024Y-74353951D01*
X85768028Y-74353953D01*
X85771664Y-74356234D01*
X85859071Y-74395700D01*
X86017345Y-74467164D01*
X86017349Y-74467166D01*
X86021257Y-74468930D01*
X86025377Y-74470150D01*
X86025376Y-74470150D01*
X86279723Y-74545491D01*
X86279727Y-74545492D01*
X86283836Y-74546709D01*
X86288070Y-74547357D01*
X86288075Y-74547358D01*
X86550298Y-74587483D01*
X86550300Y-74587483D01*
X86554540Y-74588132D01*
X86693912Y-74590322D01*
X86824071Y-74592367D01*
X86824077Y-74592367D01*
X86828362Y-74592434D01*
X87100235Y-74559534D01*
X87365127Y-74490041D01*
X87369087Y-74488401D01*
X87369092Y-74488399D01*
X87491631Y-74437641D01*
X87618136Y-74385241D01*
X87736359Y-74316157D01*
X87850879Y-74249237D01*
X87850880Y-74249236D01*
X87854582Y-74247073D01*
X88070089Y-74078094D01*
X88111809Y-74035043D01*
X88257686Y-73884509D01*
X88260669Y-73881431D01*
X88263202Y-73877983D01*
X88263206Y-73877978D01*
X88420257Y-73664178D01*
X88422795Y-73660723D01*
X88451721Y-73607448D01*
X88551418Y-73423830D01*
X88551419Y-73423828D01*
X88553468Y-73420054D01*
X88627616Y-73223827D01*
X88648751Y-73167895D01*
X88648752Y-73167891D01*
X88650269Y-73163877D01*
X88711407Y-72896933D01*
X88723448Y-72762022D01*
X88735531Y-72626627D01*
X88735531Y-72626625D01*
X88735751Y-72624161D01*
X88736157Y-72585483D01*
X88736167Y-72584484D01*
X88736167Y-72584483D01*
X88736193Y-72582000D01*
X88728432Y-72468150D01*
X88717859Y-72313055D01*
X88717858Y-72313049D01*
X88717567Y-72308778D01*
X88662032Y-72040612D01*
X88570617Y-71782465D01*
X88445013Y-71539112D01*
X88435040Y-71524921D01*
X88321925Y-71363975D01*
X88287545Y-71315057D01*
X88217466Y-71239643D01*
X88104046Y-71117588D01*
X88104043Y-71117585D01*
X88101125Y-71114445D01*
X88097810Y-71111731D01*
X88097806Y-71111728D01*
X87892523Y-70943706D01*
X87889205Y-70940990D01*
X87655704Y-70797901D01*
X87639482Y-70790780D01*
X87408873Y-70689549D01*
X87408869Y-70689548D01*
X87404945Y-70687825D01*
X87141566Y-70612800D01*
X87137324Y-70612196D01*
X87137318Y-70612195D01*
X86911104Y-70580000D01*
X86870443Y-70574213D01*
X86726589Y-70573460D01*
X86600877Y-70572802D01*
X86600871Y-70572802D01*
X86596591Y-70572780D01*
X86592347Y-70573339D01*
X86592343Y-70573339D01*
X86473302Y-70589011D01*
X86325078Y-70608525D01*
X86320938Y-70609658D01*
X86320936Y-70609658D01*
X86284280Y-70619686D01*
X86060928Y-70680788D01*
X86056980Y-70682472D01*
X85812982Y-70786546D01*
X85812978Y-70786548D01*
X85809030Y-70788232D01*
X85690414Y-70859222D01*
X85577725Y-70926664D01*
X85577721Y-70926667D01*
X85574043Y-70928868D01*
X85360318Y-71100094D01*
X85171808Y-71298742D01*
X85012002Y-71521136D01*
X84883857Y-71763161D01*
X84882385Y-71767184D01*
X84882383Y-71767188D01*
X84860512Y-71826953D01*
X84789743Y-72020337D01*
X84731404Y-72287907D01*
X84709917Y-72560918D01*
X71342759Y-72560918D01*
X71354031Y-72434616D01*
X71354277Y-72429677D01*
X71354666Y-72392485D01*
X71354523Y-72387519D01*
X71336362Y-72121123D01*
X71335201Y-72112649D01*
X71281419Y-71852944D01*
X71279120Y-71844709D01*
X71190588Y-71594705D01*
X71187191Y-71586854D01*
X71065550Y-71351178D01*
X71061122Y-71343866D01*
X70942031Y-71174417D01*
X70931509Y-71166037D01*
X70918121Y-71173089D01*
X69714022Y-72377188D01*
X69706408Y-72391132D01*
X68976356Y-72391132D01*
X68977592Y-72388868D01*
X68977461Y-72387035D01*
X68973210Y-72380420D01*
X67765814Y-71173024D01*
X67753804Y-71166466D01*
X67742064Y-71175434D01*
X67633935Y-71325911D01*
X67629418Y-71333196D01*
X67505325Y-71567567D01*
X67501839Y-71575395D01*
X67410700Y-71824446D01*
X67408311Y-71832670D01*
X67351812Y-72091795D01*
X67350563Y-72100250D01*
X67329754Y-72364653D01*
X67329665Y-72373204D01*
X51968400Y-72373204D01*
X51968400Y-70802500D01*
X68118584Y-70802500D01*
X68124980Y-70813770D01*
X69329188Y-72017978D01*
X69343132Y-72025592D01*
X69344965Y-72025461D01*
X69351580Y-72021210D01*
X70558604Y-70814186D01*
X70565795Y-70801017D01*
X70558473Y-70790780D01*
X70511233Y-70752115D01*
X70504261Y-70747160D01*
X70278122Y-70608582D01*
X70270552Y-70604624D01*
X70166430Y-70558918D01*
X122140917Y-70558918D01*
X122156682Y-70832320D01*
X122157507Y-70836525D01*
X122157508Y-70836533D01*
X122168127Y-70890657D01*
X122209405Y-71101053D01*
X122210792Y-71105103D01*
X122210793Y-71105108D01*
X122295042Y-71351178D01*
X122298112Y-71360144D01*
X122300039Y-71363975D01*
X122412135Y-71586854D01*
X122421160Y-71604799D01*
X122423586Y-71608328D01*
X122423589Y-71608334D01*
X122527395Y-71759371D01*
X122576274Y-71830490D01*
X122760582Y-72033043D01*
X122970675Y-72208707D01*
X122974316Y-72210991D01*
X123199024Y-72351951D01*
X123199028Y-72351953D01*
X123202664Y-72354234D01*
X123303094Y-72399580D01*
X123448345Y-72465164D01*
X123448349Y-72465166D01*
X123452257Y-72466930D01*
X123456377Y-72468150D01*
X123456376Y-72468150D01*
X123710723Y-72543491D01*
X123710727Y-72543492D01*
X123714836Y-72544709D01*
X123719070Y-72545357D01*
X123719075Y-72545358D01*
X123981298Y-72585483D01*
X123981300Y-72585483D01*
X123985540Y-72586132D01*
X124124912Y-72588322D01*
X124255071Y-72590367D01*
X124255077Y-72590367D01*
X124259362Y-72590434D01*
X124531235Y-72557534D01*
X124796127Y-72488041D01*
X124800087Y-72486401D01*
X124800092Y-72486399D01*
X124937030Y-72429677D01*
X125049136Y-72383241D01*
X125204973Y-72292177D01*
X125281879Y-72247237D01*
X125281880Y-72247236D01*
X125285582Y-72245073D01*
X125501089Y-72076094D01*
X125531407Y-72044809D01*
X125688686Y-71882509D01*
X125691669Y-71879431D01*
X125694202Y-71875983D01*
X125694206Y-71875978D01*
X125851257Y-71662178D01*
X125853795Y-71658723D01*
X125881154Y-71608334D01*
X125982418Y-71421830D01*
X125982419Y-71421828D01*
X125984468Y-71418054D01*
X126076531Y-71174417D01*
X126079751Y-71165895D01*
X126079752Y-71165891D01*
X126081269Y-71161877D01*
X126131859Y-70940990D01*
X126141449Y-70899117D01*
X126141450Y-70899113D01*
X126142407Y-70894933D01*
X126149614Y-70814186D01*
X126166531Y-70624627D01*
X126166531Y-70624625D01*
X126166751Y-70622161D01*
X126166856Y-70612195D01*
X126167167Y-70582484D01*
X126167167Y-70582483D01*
X126167193Y-70580000D01*
X126166840Y-70574818D01*
X126148859Y-70311055D01*
X126148858Y-70311049D01*
X126148567Y-70306778D01*
X126093032Y-70038612D01*
X126001617Y-69780465D01*
X125876013Y-69537112D01*
X125866040Y-69522921D01*
X125721008Y-69316562D01*
X125718545Y-69313057D01*
X125532125Y-69112445D01*
X125528810Y-69109731D01*
X125528806Y-69109728D01*
X125323523Y-68941706D01*
X125320205Y-68938990D01*
X125086704Y-68795901D01*
X125082768Y-68794173D01*
X124839873Y-68687549D01*
X124839869Y-68687548D01*
X124835945Y-68685825D01*
X124572566Y-68610800D01*
X124568324Y-68610196D01*
X124568318Y-68610195D01*
X124367834Y-68581662D01*
X124301443Y-68572213D01*
X124157589Y-68571460D01*
X124031877Y-68570802D01*
X124031871Y-68570802D01*
X124027591Y-68570780D01*
X124023347Y-68571339D01*
X124023343Y-68571339D01*
X123904302Y-68587011D01*
X123756078Y-68606525D01*
X123751938Y-68607658D01*
X123751936Y-68607658D01*
X123679008Y-68627609D01*
X123491928Y-68678788D01*
X123487980Y-68680472D01*
X123243982Y-68784546D01*
X123243978Y-68784548D01*
X123240030Y-68786232D01*
X123220125Y-68798145D01*
X123008725Y-68924664D01*
X123008721Y-68924667D01*
X123005043Y-68926868D01*
X122791318Y-69098094D01*
X122602808Y-69296742D01*
X122443002Y-69519136D01*
X122314857Y-69761161D01*
X122313385Y-69765184D01*
X122313383Y-69765188D01*
X122306314Y-69784506D01*
X122220743Y-70018337D01*
X122162404Y-70285907D01*
X122162068Y-70290177D01*
X122146489Y-70488127D01*
X122140917Y-70558918D01*
X70166430Y-70558918D01*
X70027704Y-70498022D01*
X70019644Y-70495120D01*
X69764592Y-70422467D01*
X69756214Y-70420685D01*
X69493656Y-70383318D01*
X69485111Y-70382691D01*
X69219908Y-70381302D01*
X69211374Y-70381839D01*
X68948433Y-70416456D01*
X68940035Y-70418149D01*
X68684238Y-70488127D01*
X68676143Y-70490946D01*
X68432199Y-70594997D01*
X68424577Y-70598881D01*
X68197013Y-70735075D01*
X68189981Y-70739962D01*
X68127053Y-70790377D01*
X68118584Y-70802500D01*
X51968400Y-70802500D01*
X51968400Y-66553134D01*
X74337500Y-66553134D01*
X74344255Y-66615316D01*
X74395385Y-66751705D01*
X74482739Y-66868261D01*
X74599295Y-66955615D01*
X74735684Y-67006745D01*
X74797866Y-67013500D01*
X77094134Y-67013500D01*
X77156316Y-67006745D01*
X77292705Y-66955615D01*
X77409261Y-66868261D01*
X77496615Y-66751705D01*
X77547745Y-66615316D01*
X77554500Y-66553134D01*
X77554500Y-64960918D01*
X84709917Y-64960918D01*
X84725682Y-65234320D01*
X84726507Y-65238525D01*
X84726508Y-65238533D01*
X84726996Y-65241018D01*
X84778405Y-65503053D01*
X84779792Y-65507103D01*
X84779793Y-65507108D01*
X84849982Y-65712113D01*
X84867112Y-65762144D01*
X84990160Y-66006799D01*
X84992586Y-66010328D01*
X84992589Y-66010334D01*
X85142843Y-66228953D01*
X85145274Y-66232490D01*
X85329582Y-66435043D01*
X85539675Y-66610707D01*
X85543316Y-66612991D01*
X85768024Y-66753951D01*
X85768028Y-66753953D01*
X85771664Y-66756234D01*
X85839544Y-66786883D01*
X86017345Y-66867164D01*
X86017349Y-66867166D01*
X86021257Y-66868930D01*
X86025377Y-66870150D01*
X86025376Y-66870150D01*
X86279723Y-66945491D01*
X86279727Y-66945492D01*
X86283836Y-66946709D01*
X86288070Y-66947357D01*
X86288075Y-66947358D01*
X86550298Y-66987483D01*
X86550300Y-66987483D01*
X86554540Y-66988132D01*
X86693912Y-66990322D01*
X86824071Y-66992367D01*
X86824077Y-66992367D01*
X86828362Y-66992434D01*
X87100235Y-66959534D01*
X87365127Y-66890041D01*
X87369087Y-66888401D01*
X87369092Y-66888399D01*
X87491631Y-66837641D01*
X87618136Y-66785241D01*
X87854582Y-66647073D01*
X88070089Y-66478094D01*
X88111809Y-66435043D01*
X88257686Y-66284509D01*
X88260669Y-66281431D01*
X88263202Y-66277983D01*
X88263206Y-66277978D01*
X88420257Y-66064178D01*
X88422795Y-66060723D01*
X88450154Y-66010334D01*
X88551418Y-65823830D01*
X88551419Y-65823828D01*
X88553468Y-65820054D01*
X88650269Y-65563877D01*
X88711407Y-65296933D01*
X88716398Y-65241018D01*
X88735531Y-65026627D01*
X88735531Y-65026625D01*
X88735751Y-65024161D01*
X88736193Y-64982000D01*
X88726735Y-64843260D01*
X88717859Y-64713055D01*
X88717858Y-64713049D01*
X88717567Y-64708778D01*
X88662032Y-64440612D01*
X88570617Y-64182465D01*
X88492778Y-64031654D01*
X103298618Y-64031654D01*
X103305673Y-64041627D01*
X103336679Y-64067551D01*
X103343598Y-64072579D01*
X103568272Y-64213515D01*
X103575807Y-64217556D01*
X103817520Y-64326694D01*
X103825551Y-64329680D01*
X104079832Y-64405002D01*
X104088184Y-64406869D01*
X104350340Y-64446984D01*
X104358874Y-64447700D01*
X104624045Y-64451867D01*
X104632596Y-64451418D01*
X104895883Y-64419557D01*
X104904284Y-64417955D01*
X105160824Y-64350653D01*
X105168926Y-64347926D01*
X105413949Y-64246434D01*
X105421617Y-64242628D01*
X105650598Y-64108822D01*
X105657679Y-64104009D01*
X105737655Y-64041301D01*
X105746125Y-64029442D01*
X105739608Y-64017818D01*
X104535812Y-62814022D01*
X104521868Y-62806408D01*
X104520035Y-62806539D01*
X104513420Y-62810790D01*
X103305910Y-64018300D01*
X103298618Y-64031654D01*
X88492778Y-64031654D01*
X88445013Y-63939112D01*
X88435040Y-63924921D01*
X88290008Y-63718562D01*
X88287545Y-63715057D01*
X88217466Y-63639643D01*
X88104046Y-63517588D01*
X88104043Y-63517585D01*
X88101125Y-63514445D01*
X88097810Y-63511731D01*
X88097806Y-63511728D01*
X87967069Y-63404721D01*
X87889205Y-63340990D01*
X87655704Y-63197901D01*
X87651768Y-63196173D01*
X87408873Y-63089549D01*
X87408869Y-63089548D01*
X87404945Y-63087825D01*
X87141566Y-63012800D01*
X87137324Y-63012196D01*
X87137318Y-63012195D01*
X86936834Y-62983662D01*
X86870443Y-62974213D01*
X86726589Y-62973460D01*
X86600877Y-62972802D01*
X86600871Y-62972802D01*
X86596591Y-62972780D01*
X86592347Y-62973339D01*
X86592343Y-62973339D01*
X86473302Y-62989011D01*
X86325078Y-63008525D01*
X86320938Y-63009658D01*
X86320936Y-63009658D01*
X86284799Y-63019544D01*
X86060928Y-63080788D01*
X86056980Y-63082472D01*
X85812982Y-63186546D01*
X85812978Y-63186548D01*
X85809030Y-63188232D01*
X85746293Y-63225779D01*
X85577725Y-63326664D01*
X85577721Y-63326667D01*
X85574043Y-63328868D01*
X85360318Y-63500094D01*
X85344574Y-63516685D01*
X85203651Y-63665187D01*
X85171808Y-63698742D01*
X85012002Y-63921136D01*
X84883857Y-64163161D01*
X84882385Y-64167184D01*
X84882383Y-64167188D01*
X84842194Y-64277008D01*
X84789743Y-64420337D01*
X84731404Y-64687907D01*
X84709917Y-64960918D01*
X77554500Y-64960918D01*
X77554500Y-64256866D01*
X77547745Y-64194684D01*
X77496615Y-64058295D01*
X77409261Y-63941739D01*
X77292705Y-63854385D01*
X77156316Y-63803255D01*
X77094134Y-63796500D01*
X74797866Y-63796500D01*
X74735684Y-63803255D01*
X74599295Y-63854385D01*
X74482739Y-63941739D01*
X74395385Y-64058295D01*
X74344255Y-64194684D01*
X74337500Y-64256866D01*
X74337500Y-66553134D01*
X51968400Y-66553134D01*
X51968400Y-65208717D01*
X57961740Y-65208717D01*
X57968198Y-65218078D01*
X57994356Y-65241018D01*
X58000893Y-65246034D01*
X58251037Y-65413175D01*
X58258174Y-65417296D01*
X58527998Y-65550358D01*
X58535602Y-65553508D01*
X58820488Y-65650214D01*
X58828440Y-65652345D01*
X59123516Y-65711039D01*
X59131674Y-65712113D01*
X59431881Y-65731789D01*
X59440119Y-65731789D01*
X59740326Y-65712113D01*
X59748484Y-65711039D01*
X60043560Y-65652345D01*
X60051512Y-65650214D01*
X60336398Y-65553508D01*
X60344002Y-65550358D01*
X60613826Y-65417296D01*
X60620963Y-65413175D01*
X60871107Y-65246034D01*
X60877644Y-65241018D01*
X60901937Y-65219713D01*
X60910334Y-65206475D01*
X60904501Y-65196711D01*
X59448812Y-63741022D01*
X59434868Y-63733408D01*
X59433035Y-63733539D01*
X59426420Y-63737790D01*
X57969254Y-65194956D01*
X57961740Y-65208717D01*
X51968400Y-65208717D01*
X51968400Y-63373119D01*
X57073211Y-63373119D01*
X57092887Y-63673326D01*
X57093961Y-63681484D01*
X57152655Y-63976560D01*
X57154786Y-63984512D01*
X57251489Y-64269389D01*
X57254644Y-64277008D01*
X57387705Y-64546826D01*
X57391826Y-64553964D01*
X57558966Y-64804107D01*
X57563982Y-64810644D01*
X57585287Y-64834937D01*
X57598525Y-64843334D01*
X57608289Y-64837501D01*
X59063978Y-63381812D01*
X59070356Y-63370132D01*
X59800408Y-63370132D01*
X59800539Y-63371965D01*
X59804790Y-63378580D01*
X61261956Y-64835746D01*
X61275717Y-64843260D01*
X61285078Y-64836802D01*
X61308018Y-64810644D01*
X61313034Y-64804107D01*
X61480174Y-64553964D01*
X61484295Y-64546826D01*
X61617356Y-64277008D01*
X61620511Y-64269389D01*
X61717214Y-63984512D01*
X61719345Y-63976560D01*
X61778039Y-63681484D01*
X61779113Y-63673326D01*
X61798789Y-63373119D01*
X61798789Y-63364881D01*
X61779113Y-63064674D01*
X61778039Y-63056516D01*
X61719345Y-62761440D01*
X61717214Y-62753488D01*
X61620511Y-62468611D01*
X61617356Y-62460992D01*
X61599707Y-62425204D01*
X102510665Y-62425204D01*
X102525932Y-62689969D01*
X102527005Y-62698470D01*
X102578065Y-62958722D01*
X102580276Y-62966974D01*
X102666184Y-63217894D01*
X102669499Y-63225779D01*
X102788664Y-63462713D01*
X102793020Y-63470079D01*
X102922347Y-63658250D01*
X102932601Y-63666594D01*
X102946342Y-63659448D01*
X104150978Y-62454812D01*
X104157356Y-62443132D01*
X104887408Y-62443132D01*
X104887539Y-62444965D01*
X104891790Y-62451580D01*
X106098730Y-63658520D01*
X106110939Y-63665187D01*
X106122439Y-63656497D01*
X106219831Y-63523913D01*
X106224418Y-63516685D01*
X106350962Y-63283621D01*
X106354530Y-63275827D01*
X106448271Y-63027750D01*
X106450748Y-63019544D01*
X106509954Y-62761038D01*
X106511294Y-62752577D01*
X106535031Y-62486616D01*
X106535277Y-62481677D01*
X106535666Y-62444485D01*
X106535523Y-62439519D01*
X106517362Y-62173123D01*
X106516201Y-62164649D01*
X106462419Y-61904944D01*
X106460120Y-61896709D01*
X106371588Y-61646705D01*
X106368191Y-61638854D01*
X106246550Y-61403178D01*
X106242122Y-61395866D01*
X106123031Y-61226417D01*
X106112509Y-61218037D01*
X106099121Y-61225089D01*
X104895022Y-62429188D01*
X104887408Y-62443132D01*
X104157356Y-62443132D01*
X104158592Y-62440868D01*
X104158461Y-62439035D01*
X104154210Y-62432420D01*
X102946814Y-61225024D01*
X102934804Y-61218466D01*
X102923064Y-61227434D01*
X102814935Y-61377911D01*
X102810418Y-61385196D01*
X102686325Y-61619567D01*
X102682839Y-61627395D01*
X102591700Y-61876446D01*
X102589311Y-61884670D01*
X102532812Y-62143795D01*
X102531563Y-62152250D01*
X102510754Y-62416653D01*
X102510665Y-62425204D01*
X61599707Y-62425204D01*
X61484295Y-62191174D01*
X61480174Y-62184036D01*
X61313034Y-61933893D01*
X61308018Y-61927356D01*
X61286713Y-61903063D01*
X61273475Y-61894666D01*
X61263711Y-61900499D01*
X59808022Y-63356188D01*
X59800408Y-63370132D01*
X59070356Y-63370132D01*
X59071592Y-63367868D01*
X59071461Y-63366035D01*
X59067210Y-63359420D01*
X57610044Y-61902254D01*
X57596283Y-61894740D01*
X57586922Y-61901198D01*
X57563982Y-61927356D01*
X57558966Y-61933893D01*
X57391826Y-62184036D01*
X57387705Y-62191174D01*
X57254644Y-62460992D01*
X57251489Y-62468611D01*
X57154786Y-62753488D01*
X57152655Y-62761440D01*
X57093961Y-63056516D01*
X57092887Y-63064674D01*
X57073211Y-63364881D01*
X57073211Y-63373119D01*
X51968400Y-63373119D01*
X51968400Y-61531525D01*
X57961666Y-61531525D01*
X57967499Y-61541289D01*
X59423188Y-62996978D01*
X59437132Y-63004592D01*
X59438965Y-63004461D01*
X59445580Y-63000210D01*
X60902746Y-61543044D01*
X60910260Y-61529283D01*
X60903802Y-61519922D01*
X60877644Y-61496982D01*
X60871107Y-61491966D01*
X60620963Y-61324825D01*
X60613826Y-61320704D01*
X60344002Y-61187642D01*
X60336398Y-61184492D01*
X60051512Y-61087786D01*
X60043560Y-61085655D01*
X59748484Y-61026961D01*
X59740326Y-61025887D01*
X59440119Y-61006211D01*
X59431881Y-61006211D01*
X59131674Y-61025887D01*
X59123516Y-61026961D01*
X58828440Y-61085655D01*
X58820488Y-61087786D01*
X58535611Y-61184489D01*
X58527992Y-61187644D01*
X58258174Y-61320705D01*
X58251036Y-61324826D01*
X58000893Y-61491966D01*
X57994356Y-61496982D01*
X57970063Y-61518287D01*
X57961666Y-61531525D01*
X51968400Y-61531525D01*
X51968400Y-60854500D01*
X103299584Y-60854500D01*
X103305980Y-60865770D01*
X104510188Y-62069978D01*
X104524132Y-62077592D01*
X104525965Y-62077461D01*
X104532580Y-62073210D01*
X105739604Y-60866186D01*
X105746795Y-60853017D01*
X105739473Y-60842780D01*
X105692233Y-60804115D01*
X105685261Y-60799160D01*
X105459122Y-60660582D01*
X105451552Y-60656624D01*
X105208704Y-60550022D01*
X105200644Y-60547120D01*
X104945592Y-60474467D01*
X104937214Y-60472685D01*
X104674656Y-60435318D01*
X104666111Y-60434691D01*
X104400908Y-60433302D01*
X104392374Y-60433839D01*
X104129433Y-60468456D01*
X104121035Y-60470149D01*
X103865238Y-60540127D01*
X103857143Y-60542946D01*
X103613199Y-60646997D01*
X103605577Y-60650881D01*
X103378013Y-60787075D01*
X103370981Y-60791962D01*
X103308053Y-60842377D01*
X103299584Y-60854500D01*
X51968400Y-60854500D01*
X51968400Y-56218601D01*
X57077500Y-56218601D01*
X57077501Y-59519398D01*
X57088474Y-59625165D01*
X57144450Y-59792945D01*
X57237522Y-59943347D01*
X57362698Y-60068305D01*
X57513263Y-60161114D01*
X57681140Y-60216797D01*
X57687973Y-60217497D01*
X57687977Y-60217498D01*
X57743853Y-60223222D01*
X57785601Y-60227500D01*
X59423273Y-60227500D01*
X61086398Y-60227499D01*
X61192165Y-60216526D01*
X61198698Y-60214346D01*
X61198700Y-60214346D01*
X61330739Y-60170294D01*
X61359945Y-60160550D01*
X61510347Y-60067478D01*
X61635305Y-59942302D01*
X61728114Y-59791737D01*
X61783797Y-59623860D01*
X61794500Y-59519399D01*
X61794499Y-56218602D01*
X61783526Y-56112835D01*
X61727550Y-55945055D01*
X61634478Y-55794653D01*
X61509302Y-55669695D01*
X61358737Y-55576886D01*
X61190860Y-55521203D01*
X61184027Y-55520503D01*
X61184023Y-55520502D01*
X61128147Y-55514778D01*
X61086399Y-55510500D01*
X59448727Y-55510500D01*
X57785602Y-55510501D01*
X57679835Y-55521474D01*
X57673302Y-55523654D01*
X57673300Y-55523654D01*
X57541261Y-55567706D01*
X57512055Y-55577450D01*
X57361653Y-55670522D01*
X57236695Y-55795698D01*
X57143886Y-55946263D01*
X57141581Y-55953211D01*
X57141581Y-55953212D01*
X57133524Y-55977502D01*
X57088203Y-56114140D01*
X57077500Y-56218601D01*
X51968400Y-56218601D01*
X51968400Y-55245000D01*
X74332526Y-55245000D01*
X74352391Y-55497403D01*
X74353545Y-55502210D01*
X74353546Y-55502216D01*
X74371052Y-55575132D01*
X74411495Y-55743591D01*
X74413388Y-55748162D01*
X74413389Y-55748164D01*
X74498323Y-55953212D01*
X74508384Y-55977502D01*
X74640672Y-56193376D01*
X74805102Y-56385898D01*
X74997624Y-56550328D01*
X75213498Y-56682616D01*
X75218068Y-56684509D01*
X75218072Y-56684511D01*
X75442836Y-56777611D01*
X75447409Y-56779505D01*
X75532032Y-56799821D01*
X75688784Y-56837454D01*
X75688790Y-56837455D01*
X75693597Y-56838609D01*
X75946000Y-56858474D01*
X76198403Y-56838609D01*
X76203210Y-56837455D01*
X76203216Y-56837454D01*
X76359968Y-56799821D01*
X76444591Y-56779505D01*
X76449164Y-56777611D01*
X76673928Y-56684511D01*
X76673932Y-56684509D01*
X76678502Y-56682616D01*
X76894376Y-56550328D01*
X77086898Y-56385898D01*
X77251328Y-56193376D01*
X77383616Y-55977502D01*
X77393678Y-55953212D01*
X77478611Y-55748164D01*
X77478612Y-55748162D01*
X77480505Y-55743591D01*
X77520948Y-55575132D01*
X77538454Y-55502216D01*
X77538455Y-55502210D01*
X77539609Y-55497403D01*
X77559474Y-55245000D01*
X77539609Y-54992597D01*
X77480505Y-54746409D01*
X77383616Y-54512498D01*
X77251328Y-54296624D01*
X77086898Y-54104102D01*
X76894376Y-53939672D01*
X76678502Y-53807384D01*
X76673932Y-53805491D01*
X76673928Y-53805489D01*
X76449164Y-53712389D01*
X76449162Y-53712388D01*
X76444591Y-53710495D01*
X76359968Y-53690179D01*
X76203216Y-53652546D01*
X76203210Y-53652545D01*
X76198403Y-53651391D01*
X75946000Y-53631526D01*
X75693597Y-53651391D01*
X75688790Y-53652545D01*
X75688784Y-53652546D01*
X75532032Y-53690179D01*
X75447409Y-53710495D01*
X75442838Y-53712388D01*
X75442836Y-53712389D01*
X75218072Y-53805489D01*
X75218068Y-53805491D01*
X75213498Y-53807384D01*
X74997624Y-53939672D01*
X74805102Y-54104102D01*
X74640672Y-54296624D01*
X74508384Y-54512498D01*
X74411495Y-54746409D01*
X74352391Y-54992597D01*
X74332526Y-55245000D01*
X51968400Y-55245000D01*
X51968400Y-50498733D01*
X57423822Y-50498733D01*
X57423975Y-50503121D01*
X57423975Y-50503127D01*
X57433155Y-50765996D01*
X57433625Y-50779458D01*
X57434387Y-50783781D01*
X57434388Y-50783788D01*
X57458164Y-50918624D01*
X57482402Y-51056087D01*
X57569203Y-51323235D01*
X57692340Y-51575702D01*
X57694795Y-51579341D01*
X57694798Y-51579347D01*
X57767890Y-51687710D01*
X57849415Y-51808576D01*
X58037371Y-52017322D01*
X58252550Y-52197879D01*
X58490764Y-52346731D01*
X58747375Y-52460982D01*
X59017390Y-52538407D01*
X59021740Y-52539018D01*
X59021743Y-52539019D01*
X59124690Y-52553487D01*
X59295552Y-52577500D01*
X59506146Y-52577500D01*
X59508332Y-52577347D01*
X59508336Y-52577347D01*
X59711827Y-52563118D01*
X59711832Y-52563117D01*
X59716212Y-52562811D01*
X59990970Y-52504409D01*
X59995099Y-52502906D01*
X59995103Y-52502905D01*
X60250781Y-52409846D01*
X60250785Y-52409844D01*
X60254926Y-52408337D01*
X60502942Y-52276464D01*
X60607896Y-52200211D01*
X60726629Y-52113947D01*
X60726632Y-52113944D01*
X60730192Y-52111358D01*
X60932252Y-51916231D01*
X61105188Y-51694882D01*
X61107384Y-51691078D01*
X61107389Y-51691071D01*
X61243435Y-51455431D01*
X61245636Y-51451619D01*
X61350862Y-51191176D01*
X61354281Y-51177464D01*
X61417753Y-50922893D01*
X61417754Y-50922888D01*
X61418817Y-50918624D01*
X61425486Y-50855177D01*
X61447719Y-50643636D01*
X61447719Y-50643633D01*
X61448178Y-50639267D01*
X61448025Y-50634873D01*
X61438529Y-50362939D01*
X61438528Y-50362933D01*
X61438375Y-50358542D01*
X61414608Y-50223749D01*
X61390360Y-50086236D01*
X61389598Y-50081913D01*
X61302797Y-49814765D01*
X61286817Y-49782000D01*
X89009835Y-49782000D01*
X89028465Y-50018711D01*
X89083895Y-50249594D01*
X89085788Y-50254165D01*
X89085789Y-50254167D01*
X89141637Y-50388996D01*
X89174760Y-50468963D01*
X89177346Y-50473183D01*
X89296241Y-50667202D01*
X89296245Y-50667208D01*
X89298824Y-50671416D01*
X89453031Y-50851969D01*
X89633584Y-51006176D01*
X89637792Y-51008755D01*
X89637798Y-51008759D01*
X89831817Y-51127654D01*
X89836037Y-51130240D01*
X89840607Y-51132133D01*
X89840611Y-51132135D01*
X90050833Y-51219211D01*
X90055406Y-51221105D01*
X90135609Y-51240360D01*
X90281476Y-51275380D01*
X90281482Y-51275381D01*
X90286289Y-51276535D01*
X90523000Y-51295165D01*
X90759711Y-51276535D01*
X90764518Y-51275381D01*
X90764524Y-51275380D01*
X90910391Y-51240360D01*
X90990594Y-51221105D01*
X90995167Y-51219211D01*
X91205389Y-51132135D01*
X91205393Y-51132133D01*
X91209963Y-51130240D01*
X91214183Y-51127654D01*
X91408202Y-51008759D01*
X91408208Y-51008755D01*
X91412416Y-51006176D01*
X91592969Y-50851969D01*
X91747176Y-50671416D01*
X91749755Y-50667208D01*
X91749759Y-50667202D01*
X91868654Y-50473183D01*
X91871240Y-50468963D01*
X91904364Y-50388996D01*
X91908783Y-50378328D01*
X99214500Y-50378328D01*
X99214808Y-50384408D01*
X99253900Y-50578284D01*
X99329905Y-50760873D01*
X99333332Y-50765992D01*
X99333334Y-50765996D01*
X99436496Y-50920099D01*
X99436500Y-50920104D01*
X99439927Y-50925223D01*
X99579777Y-51065073D01*
X99584896Y-51068500D01*
X99584901Y-51068504D01*
X99739004Y-51171666D01*
X99739008Y-51171668D01*
X99744127Y-51175095D01*
X99926716Y-51251100D01*
X99932752Y-51252317D01*
X99932755Y-51252318D01*
X100116004Y-51289267D01*
X100120592Y-51290192D01*
X100126672Y-51290500D01*
X101319328Y-51290500D01*
X101325408Y-51290192D01*
X101329996Y-51289267D01*
X101513245Y-51252318D01*
X101513248Y-51252317D01*
X101519284Y-51251100D01*
X101701873Y-51175095D01*
X101706992Y-51171668D01*
X101706996Y-51171666D01*
X101861099Y-51068504D01*
X101861104Y-51068500D01*
X101866223Y-51065073D01*
X102006073Y-50925223D01*
X102009500Y-50920104D01*
X102009504Y-50920099D01*
X102112666Y-50765996D01*
X102112668Y-50765992D01*
X102116095Y-50760873D01*
X102192100Y-50578284D01*
X102231192Y-50384408D01*
X102231500Y-50378328D01*
X102231500Y-49185672D01*
X102231192Y-49179592D01*
X102192100Y-48985716D01*
X102116095Y-48803127D01*
X102112668Y-48798008D01*
X102112666Y-48798004D01*
X102009504Y-48643901D01*
X102009500Y-48643896D01*
X102006073Y-48638777D01*
X101866223Y-48498927D01*
X101861104Y-48495500D01*
X101861099Y-48495496D01*
X101706996Y-48392334D01*
X101706992Y-48392332D01*
X101701873Y-48388905D01*
X101519284Y-48312900D01*
X101513248Y-48311683D01*
X101513245Y-48311682D01*
X101329996Y-48274733D01*
X101329995Y-48274733D01*
X101325408Y-48273808D01*
X101319328Y-48273500D01*
X100126672Y-48273500D01*
X100120592Y-48273808D01*
X100116005Y-48274733D01*
X100116004Y-48274733D01*
X99932755Y-48311682D01*
X99932752Y-48311683D01*
X99926716Y-48312900D01*
X99744127Y-48388905D01*
X99739008Y-48392332D01*
X99739004Y-48392334D01*
X99584901Y-48495496D01*
X99584896Y-48495500D01*
X99579777Y-48498927D01*
X99439927Y-48638777D01*
X99436500Y-48643896D01*
X99436496Y-48643901D01*
X99333334Y-48798004D01*
X99333332Y-48798008D01*
X99329905Y-48803127D01*
X99253900Y-48985716D01*
X99214808Y-49179592D01*
X99214500Y-49185672D01*
X99214500Y-50378328D01*
X91908783Y-50378328D01*
X91960211Y-50254167D01*
X91960212Y-50254165D01*
X91962105Y-50249594D01*
X92017535Y-50018711D01*
X92036165Y-49782000D01*
X92017535Y-49545289D01*
X91962105Y-49314406D01*
X91922468Y-49218713D01*
X91873135Y-49099611D01*
X91873133Y-49099607D01*
X91871240Y-49095037D01*
X91831201Y-49029700D01*
X91749759Y-48896798D01*
X91749755Y-48896792D01*
X91747176Y-48892584D01*
X91592969Y-48712031D01*
X91412416Y-48557824D01*
X91408208Y-48555245D01*
X91408202Y-48555241D01*
X91214183Y-48436346D01*
X91209963Y-48433760D01*
X91205393Y-48431867D01*
X91205389Y-48431865D01*
X90995167Y-48344789D01*
X90995165Y-48344788D01*
X90990594Y-48342895D01*
X90910391Y-48323640D01*
X90764524Y-48288620D01*
X90764518Y-48288619D01*
X90759711Y-48287465D01*
X90523000Y-48268835D01*
X90286289Y-48287465D01*
X90281482Y-48288619D01*
X90281476Y-48288620D01*
X90135609Y-48323640D01*
X90055406Y-48342895D01*
X90050835Y-48344788D01*
X90050833Y-48344789D01*
X89840611Y-48431865D01*
X89840607Y-48431867D01*
X89836037Y-48433760D01*
X89831817Y-48436346D01*
X89637798Y-48555241D01*
X89637792Y-48555245D01*
X89633584Y-48557824D01*
X89453031Y-48712031D01*
X89298824Y-48892584D01*
X89296245Y-48896792D01*
X89296241Y-48896798D01*
X89214799Y-49029700D01*
X89174760Y-49095037D01*
X89172867Y-49099607D01*
X89172865Y-49099611D01*
X89123532Y-49218713D01*
X89083895Y-49314406D01*
X89028465Y-49545289D01*
X89009835Y-49782000D01*
X61286817Y-49782000D01*
X61238320Y-49682569D01*
X61179660Y-49562298D01*
X61177205Y-49558659D01*
X61177202Y-49558653D01*
X61096935Y-49439653D01*
X61022585Y-49329424D01*
X61013396Y-49319218D01*
X60837566Y-49123940D01*
X60834629Y-49120678D01*
X60619450Y-48940121D01*
X60381236Y-48791269D01*
X60124625Y-48677018D01*
X59854610Y-48599593D01*
X59850260Y-48598982D01*
X59850257Y-48598981D01*
X59747310Y-48584513D01*
X59576448Y-48560500D01*
X59365854Y-48560500D01*
X59363668Y-48560653D01*
X59363664Y-48560653D01*
X59160173Y-48574882D01*
X59160168Y-48574883D01*
X59155788Y-48575189D01*
X58881030Y-48633591D01*
X58876901Y-48635094D01*
X58876897Y-48635095D01*
X58621219Y-48728154D01*
X58621215Y-48728156D01*
X58617074Y-48729663D01*
X58369058Y-48861536D01*
X58365499Y-48864122D01*
X58365497Y-48864123D01*
X58260895Y-48940121D01*
X58141808Y-49026642D01*
X57939748Y-49221769D01*
X57766812Y-49443118D01*
X57764616Y-49446922D01*
X57764611Y-49446929D01*
X57650794Y-49644067D01*
X57626364Y-49686381D01*
X57521138Y-49946824D01*
X57520073Y-49951097D01*
X57520072Y-49951099D01*
X57486379Y-50086236D01*
X57453183Y-50219376D01*
X57452724Y-50223744D01*
X57452723Y-50223749D01*
X57426951Y-50468963D01*
X57423822Y-50498733D01*
X51968400Y-50498733D01*
X51968400Y-48084334D01*
X74103526Y-48084334D01*
X74110281Y-48146516D01*
X74161411Y-48282905D01*
X74248765Y-48399461D01*
X74365321Y-48486815D01*
X74501710Y-48537945D01*
X74563892Y-48544700D01*
X77260160Y-48544700D01*
X77322342Y-48537945D01*
X77458731Y-48486815D01*
X77575287Y-48399461D01*
X77662641Y-48282905D01*
X77700804Y-48181106D01*
X79911865Y-48181106D01*
X79920579Y-48192627D01*
X80027478Y-48271009D01*
X80035377Y-48275945D01*
X80264931Y-48396719D01*
X80273480Y-48400436D01*
X80518353Y-48485949D01*
X80527362Y-48488363D01*
X80782192Y-48536744D01*
X80791449Y-48537798D01*
X81050633Y-48547983D01*
X81059947Y-48547657D01*
X81317779Y-48519420D01*
X81326956Y-48517719D01*
X81577784Y-48451681D01*
X81586600Y-48448645D01*
X81824906Y-48346262D01*
X81833193Y-48341948D01*
X82053744Y-48205466D01*
X82061294Y-48199980D01*
X82066585Y-48195501D01*
X82075023Y-48182697D01*
X82068961Y-48172345D01*
X81004838Y-47108222D01*
X80990894Y-47100608D01*
X80989061Y-47100739D01*
X80982446Y-47104990D01*
X79918523Y-48168913D01*
X79911865Y-48181106D01*
X77700804Y-48181106D01*
X77713771Y-48146516D01*
X77720526Y-48084334D01*
X77720526Y-46693411D01*
X79179801Y-46693411D01*
X79192246Y-46952488D01*
X79193382Y-46961743D01*
X79243987Y-47216145D01*
X79246475Y-47225117D01*
X79334121Y-47469233D01*
X79337921Y-47477768D01*
X79460684Y-47706242D01*
X79465692Y-47714104D01*
X79535746Y-47807916D01*
X79547005Y-47816365D01*
X79559423Y-47809593D01*
X80620004Y-46749012D01*
X80626382Y-46737332D01*
X81356434Y-46737332D01*
X81356565Y-46739165D01*
X81360816Y-46745780D01*
X82428120Y-47813084D01*
X82440500Y-47819844D01*
X82448841Y-47813600D01*
X82582858Y-47605248D01*
X82587301Y-47597064D01*
X82693833Y-47360570D01*
X82697023Y-47351805D01*
X82767428Y-47102172D01*
X82769288Y-47093030D01*
X82802213Y-46834219D01*
X82802694Y-46827933D01*
X82805013Y-46739360D01*
X82804862Y-46733051D01*
X82785527Y-46472863D01*
X82784151Y-46463657D01*
X82726904Y-46210667D01*
X82724180Y-46201756D01*
X82630169Y-45960006D01*
X82626158Y-45951597D01*
X82497448Y-45726402D01*
X82492237Y-45718676D01*
X82449022Y-45663858D01*
X82437097Y-45655387D01*
X82425563Y-45661873D01*
X81364048Y-46723388D01*
X81356434Y-46737332D01*
X80626382Y-46737332D01*
X80627618Y-46735068D01*
X80627487Y-46733235D01*
X80623236Y-46726620D01*
X79557842Y-45661226D01*
X79544533Y-45653958D01*
X79534498Y-45661078D01*
X79518963Y-45679756D01*
X79513557Y-45687335D01*
X79378991Y-45909091D01*
X79374762Y-45917392D01*
X79274458Y-46156589D01*
X79271497Y-46165439D01*
X79207654Y-46416825D01*
X79206032Y-46426022D01*
X79180046Y-46684085D01*
X79179801Y-46693411D01*
X77720526Y-46693411D01*
X77720526Y-45388066D01*
X77713771Y-45325884D01*
X77699902Y-45288889D01*
X79909128Y-45288889D01*
X79913701Y-45298665D01*
X80979214Y-46364178D01*
X80993158Y-46371792D01*
X80994991Y-46371661D01*
X81001606Y-46367410D01*
X82066375Y-45302641D01*
X82072759Y-45290951D01*
X82063347Y-45278841D01*
X81916071Y-45176671D01*
X81908036Y-45171938D01*
X81675402Y-45057216D01*
X81666769Y-45053728D01*
X81419729Y-44974650D01*
X81410669Y-44972474D01*
X81154656Y-44930780D01*
X81145369Y-44929968D01*
X80886018Y-44926573D01*
X80876707Y-44927143D01*
X80619708Y-44962119D01*
X80610572Y-44964060D01*
X80361569Y-45036639D01*
X80352826Y-45039907D01*
X80117278Y-45148496D01*
X80109123Y-45153016D01*
X79918266Y-45278147D01*
X79909128Y-45288889D01*
X77699902Y-45288889D01*
X77662641Y-45189495D01*
X77575287Y-45072939D01*
X77458731Y-44985585D01*
X77322342Y-44934455D01*
X77260160Y-44927700D01*
X74563892Y-44927700D01*
X74501710Y-44934455D01*
X74365321Y-44985585D01*
X74248765Y-45072939D01*
X74161411Y-45189495D01*
X74110281Y-45325884D01*
X74103526Y-45388066D01*
X74103526Y-48084334D01*
X51968400Y-48084334D01*
X51968400Y-42290000D01*
X51988402Y-42221879D01*
X52042058Y-42175386D01*
X52094400Y-42164000D01*
X110359668Y-42164000D01*
X110427789Y-42184002D01*
G37*
%TD.AperFunction*%
%TD*%
M02*
