%TF.GenerationSoftware,KiCad,Pcbnew,7.0.2-6a45011f42~172~ubuntu22.04.1*%
%TF.CreationDate,2023-06-05T12:03:33-06:00*%
%TF.ProjectId,augertapowermanagement,61756765-7274-4617-906f-7765726d616e,rev?*%
%TF.SameCoordinates,Original*%
%TF.FileFunction,Soldermask,Bot*%
%TF.FilePolarity,Negative*%
%FSLAX46Y46*%
G04 Gerber Fmt 4.6, Leading zero omitted, Abs format (unit mm)*
G04 Created by KiCad (PCBNEW 7.0.2-6a45011f42~172~ubuntu22.04.1) date 2023-06-05 12:03:33*
%MOMM*%
%LPD*%
G01*
G04 APERTURE LIST*
G04 Aperture macros list*
%AMRoundRect*
0 Rectangle with rounded corners*
0 $1 Rounding radius*
0 $2 $3 $4 $5 $6 $7 $8 $9 X,Y pos of 4 corners*
0 Add a 4 corners polygon primitive as box body*
4,1,4,$2,$3,$4,$5,$6,$7,$8,$9,$2,$3,0*
0 Add four circle primitives for the rounded corners*
1,1,$1+$1,$2,$3*
1,1,$1+$1,$4,$5*
1,1,$1+$1,$6,$7*
1,1,$1+$1,$8,$9*
0 Add four rect primitives between the rounded corners*
20,1,$1+$1,$2,$3,$4,$5,0*
20,1,$1+$1,$4,$5,$6,$7,0*
20,1,$1+$1,$6,$7,$8,$9,0*
20,1,$1+$1,$8,$9,$2,$3,0*%
G04 Aperture macros list end*
%ADD10R,1.500000X1.500000*%
%ADD11C,1.500000*%
%ADD12C,3.000000*%
%ADD13R,2.600000X2.600000*%
%ADD14C,2.600000*%
%ADD15C,2.500000*%
%ADD16R,1.700000X1.700000*%
%ADD17O,1.700000X1.700000*%
%ADD18R,4.000000X4.000000*%
%ADD19C,4.000000*%
%ADD20RoundRect,0.500000X-0.500000X0.500000X-0.500000X-0.500000X0.500000X-0.500000X0.500000X0.500000X0*%
%ADD21C,2.000000*%
%ADD22RoundRect,0.150000X-0.150000X0.150000X-0.150000X-0.150000X0.150000X-0.150000X0.150000X0.150000X0*%
%ADD23R,4.800000X4.500000*%
%ADD24C,0.600000*%
%ADD25R,2.200000X2.200000*%
%ADD26O,2.200000X2.200000*%
%ADD27R,1.100000X1.800000*%
%ADD28RoundRect,0.275000X-0.275000X-0.625000X0.275000X-0.625000X0.275000X0.625000X-0.275000X0.625000X0*%
%ADD29R,1.560000X1.560000*%
%ADD30C,1.560000*%
%ADD31R,1.350000X1.350000*%
%ADD32O,1.350000X1.350000*%
%ADD33O,3.500000X2.200000*%
%ADD34O,2.500000X1.500000*%
%ADD35R,2.500000X1.500000*%
%ADD36O,3.500000X3.500000*%
%ADD37R,1.905000X2.000000*%
%ADD38O,1.905000X2.000000*%
G04 APERTURE END LIST*
D10*
%TO.C,J12*%
X323635000Y-55230000D03*
D11*
X321135000Y-55230000D03*
X319135000Y-55230000D03*
X316635000Y-55230000D03*
X323635000Y-52610000D03*
X321135000Y-52610000D03*
X319135000Y-52610000D03*
X316635000Y-52610000D03*
D12*
X326705000Y-55580000D03*
X326705000Y-49900000D03*
X313565000Y-55580000D03*
X313565000Y-49900000D03*
%TD*%
%TO.C,TP9*%
X222125000Y-48550000D03*
%TD*%
D13*
%TO.C,J1*%
X114840000Y-216935000D03*
D14*
X119920000Y-216935000D03*
X125000000Y-216935000D03*
X130080000Y-216935000D03*
X135160000Y-216935000D03*
%TD*%
D15*
%TO.C,H5*%
X356400000Y-77000000D03*
%TD*%
D16*
%TO.C,U2*%
X230075000Y-218625000D03*
D17*
X227535000Y-218625000D03*
X224995000Y-218625000D03*
X222455000Y-218625000D03*
X219915000Y-218625000D03*
X217375000Y-218625000D03*
X214835000Y-218625000D03*
X212295000Y-218625000D03*
%TD*%
D18*
%TO.C,C3*%
X176300000Y-70140000D03*
D19*
X166300000Y-70140000D03*
%TD*%
D12*
%TO.C,K1*%
X124600000Y-85740000D03*
X142400000Y-75600000D03*
X142400000Y-83200000D03*
D20*
X128400000Y-98400000D03*
D21*
X138600000Y-98400000D03*
%TD*%
D12*
%TO.C,TP2*%
X87450000Y-137460000D03*
%TD*%
D15*
%TO.C,H1*%
X74400000Y-105000000D03*
%TD*%
D12*
%TO.C,TP8*%
X251242500Y-70340000D03*
%TD*%
D19*
%TO.C,J4*%
X129305000Y-49192500D03*
X107845000Y-49192500D03*
D22*
X125525000Y-43342500D03*
X123575000Y-43342500D03*
X121625000Y-43342500D03*
D23*
X123575000Y-45142500D03*
D22*
X125525000Y-45342500D03*
X121625000Y-45342500D03*
X125525000Y-47342500D03*
X123575000Y-47342500D03*
X121625000Y-47342500D03*
X125525000Y-49342500D03*
X121625000Y-49342500D03*
D23*
X123575000Y-49542500D03*
D22*
X125525000Y-51342500D03*
X123575000Y-51342500D03*
X121625000Y-51342500D03*
D24*
X115525000Y-43342500D03*
X113575000Y-43342500D03*
X111625000Y-43342500D03*
D23*
X113575000Y-45142500D03*
D24*
X115525000Y-45342500D03*
X111625000Y-45342500D03*
X115525000Y-47342500D03*
X113575000Y-47342500D03*
X111625000Y-47342500D03*
X115525000Y-49342500D03*
X111625000Y-49342500D03*
D23*
X113575000Y-49542500D03*
D24*
X115525000Y-51342500D03*
X113575000Y-51342500D03*
X111625000Y-51342500D03*
%TD*%
D13*
%TO.C,J6*%
X57615000Y-216935000D03*
D14*
X62695000Y-216935000D03*
X67775000Y-216935000D03*
X72855000Y-216935000D03*
X77935000Y-216935000D03*
X83015000Y-216935000D03*
X88095000Y-216935000D03*
X93175000Y-216935000D03*
X98255000Y-216935000D03*
X103335000Y-216935000D03*
%TD*%
D12*
%TO.C,TP3*%
X168000000Y-152000000D03*
%TD*%
%TO.C,TP12*%
X333775000Y-78475000D03*
%TD*%
D25*
%TO.C,D1*%
X138480000Y-110740000D03*
D26*
X128320000Y-110740000D03*
%TD*%
D12*
%TO.C,TP4*%
X314220000Y-70800000D03*
%TD*%
D25*
%TO.C,D2*%
X182930000Y-151990000D03*
D26*
X172770000Y-151990000D03*
%TD*%
D15*
%TO.C,H4*%
X357800000Y-208000000D03*
%TD*%
D27*
%TO.C,Q1*%
X161660000Y-143800000D03*
D28*
X162930000Y-141730000D03*
X164200000Y-143800000D03*
%TD*%
D18*
%TO.C,C1*%
X91000000Y-76000000D03*
D19*
X91000000Y-86000000D03*
%TD*%
D12*
%TO.C,TP7*%
X344200000Y-180200000D03*
%TD*%
D29*
%TO.C,U1*%
X99760000Y-166300000D03*
D30*
X97220000Y-166300000D03*
X94680000Y-166300000D03*
X92140000Y-166300000D03*
X89600000Y-166300000D03*
X87060000Y-166300000D03*
X84520000Y-166300000D03*
X81980000Y-166300000D03*
X79440000Y-166300000D03*
X76900000Y-166300000D03*
X74360000Y-166300000D03*
X71820000Y-166300000D03*
X69280000Y-166300000D03*
X66740000Y-166300000D03*
X64200000Y-166300000D03*
X61660000Y-166300000D03*
X59120000Y-166300000D03*
X56580000Y-166300000D03*
X54040000Y-166300000D03*
X99760000Y-191700000D03*
X97220000Y-191700000D03*
X94680000Y-191700000D03*
X92140000Y-191700000D03*
X89600000Y-191700000D03*
X87060000Y-191700000D03*
X84520000Y-191700000D03*
X81980000Y-191700000D03*
X79440000Y-191700000D03*
X76900000Y-191700000D03*
X74360000Y-191700000D03*
X71820000Y-191700000D03*
X69280000Y-191700000D03*
X66740000Y-191700000D03*
X64200000Y-191700000D03*
X61660000Y-191700000D03*
X59120000Y-191700000D03*
X56580000Y-191700000D03*
X54040000Y-191700000D03*
%TD*%
D13*
%TO.C,J3*%
X55075000Y-75370000D03*
D14*
X55075000Y-80450000D03*
X55075000Y-85530000D03*
X55075000Y-90610000D03*
X55075000Y-95690000D03*
%TD*%
D13*
%TO.C,J5*%
X56000000Y-153640000D03*
D14*
X56000000Y-148560000D03*
X56000000Y-143480000D03*
X56000000Y-138400000D03*
X56000000Y-133320000D03*
X56000000Y-128240000D03*
X56000000Y-123160000D03*
X56000000Y-118080000D03*
X56000000Y-113000000D03*
X56000000Y-107920000D03*
%TD*%
D31*
%TO.C,JP4*%
X286070000Y-103120000D03*
D32*
X284070000Y-103120000D03*
%TD*%
D13*
%TO.C,J2*%
X94900000Y-44575000D03*
D14*
X89820000Y-44575000D03*
%TD*%
D33*
%TO.C,SW1*%
X51725000Y-54150000D03*
X51725000Y-62350000D03*
D34*
X51725000Y-60250000D03*
X51725000Y-58250000D03*
D35*
X51725000Y-56250000D03*
%TD*%
D12*
%TO.C,TP13*%
X352290000Y-47810000D03*
%TD*%
%TO.C,K2*%
X169200000Y-127140000D03*
X187000000Y-117000000D03*
X187000000Y-124600000D03*
D20*
X173000000Y-139800000D03*
D21*
X183200000Y-139800000D03*
%TD*%
D15*
%TO.C,H3*%
X128200000Y-182000000D03*
%TD*%
D12*
%TO.C,TP11*%
X290350000Y-207600000D03*
%TD*%
D10*
%TO.C,J11*%
X341825000Y-55230000D03*
D11*
X339325000Y-55230000D03*
X337325000Y-55230000D03*
X334825000Y-55230000D03*
X341825000Y-52610000D03*
X339325000Y-52610000D03*
X337325000Y-52610000D03*
X334825000Y-52610000D03*
D12*
X344895000Y-55580000D03*
X344895000Y-49900000D03*
X331755000Y-55580000D03*
X331755000Y-49900000D03*
%TD*%
%TO.C,TP10*%
X200140000Y-110740000D03*
%TD*%
D15*
%TO.C,H6*%
X228080000Y-150000000D03*
%TD*%
D10*
%TO.C,J9*%
X312500000Y-206120000D03*
D11*
X315000000Y-206120000D03*
X317000000Y-206120000D03*
X319500000Y-206120000D03*
X312500000Y-208740000D03*
X315000000Y-208740000D03*
X317000000Y-208740000D03*
X319500000Y-208740000D03*
D12*
X309430000Y-205770000D03*
X309430000Y-211450000D03*
X322570000Y-205770000D03*
X322570000Y-211450000D03*
%TD*%
%TO.C,TP14*%
X306000000Y-183400000D03*
%TD*%
%TO.C,TP5*%
X350800000Y-158400000D03*
%TD*%
%TO.C,TP1*%
X90000000Y-56000000D03*
%TD*%
D36*
%TO.C,U25*%
X70190000Y-47200000D03*
D37*
X67650000Y-63860000D03*
D38*
X70190000Y-63860000D03*
X72730000Y-63860000D03*
%TD*%
D10*
%TO.C,J10*%
X334950000Y-206305000D03*
D11*
X337450000Y-206305000D03*
X339450000Y-206305000D03*
X341950000Y-206305000D03*
X334950000Y-208925000D03*
X337450000Y-208925000D03*
X339450000Y-208925000D03*
X341950000Y-208925000D03*
D12*
X331880000Y-205955000D03*
X331880000Y-211635000D03*
X345020000Y-205955000D03*
X345020000Y-211635000D03*
%TD*%
D15*
%TO.C,H2*%
X180000000Y-47000000D03*
%TD*%
D13*
%TO.C,J8*%
X266702500Y-45060000D03*
D14*
X261702500Y-45060000D03*
X256702500Y-45060000D03*
X251702500Y-45060000D03*
X246702500Y-45060000D03*
X241702500Y-45060000D03*
X236702500Y-45060000D03*
X231702500Y-45060000D03*
%TD*%
D12*
%TO.C,TP6*%
X299170000Y-68670000D03*
%TD*%
D13*
%TO.C,J7*%
X200680000Y-216325000D03*
D14*
X195600000Y-216325000D03*
X190520000Y-216325000D03*
X185440000Y-216325000D03*
X180360000Y-216325000D03*
X175280000Y-216325000D03*
X170200000Y-216325000D03*
X165120000Y-216325000D03*
X160040000Y-216325000D03*
X154960000Y-216325000D03*
%TD*%
D31*
%TO.C,JP3*%
X243090000Y-86640000D03*
D32*
X243090000Y-84640000D03*
%TD*%
M02*
