%TF.GenerationSoftware,KiCad,Pcbnew,6.0.2+dfsg-1*%
%TF.CreationDate,2022-08-26T13:51:32-04:00*%
%TF.ProjectId,augertapowermanagement,61756765-7274-4617-906f-7765726d616e,rev?*%
%TF.SameCoordinates,Original*%
%TF.FileFunction,Soldermask,Top*%
%TF.FilePolarity,Negative*%
%FSLAX46Y46*%
G04 Gerber Fmt 4.6, Leading zero omitted, Abs format (unit mm)*
G04 Created by KiCad (PCBNEW 6.0.2+dfsg-1) date 2022-08-26 13:51:32*
%MOMM*%
%LPD*%
G01*
G04 APERTURE LIST*
G04 Aperture macros list*
%AMRoundRect*
0 Rectangle with rounded corners*
0 $1 Rounding radius*
0 $2 $3 $4 $5 $6 $7 $8 $9 X,Y pos of 4 corners*
0 Add a 4 corners polygon primitive as box body*
4,1,4,$2,$3,$4,$5,$6,$7,$8,$9,$2,$3,0*
0 Add four circle primitives for the rounded corners*
1,1,$1+$1,$2,$3*
1,1,$1+$1,$4,$5*
1,1,$1+$1,$6,$7*
1,1,$1+$1,$8,$9*
0 Add four rect primitives between the rounded corners*
20,1,$1+$1,$2,$3,$4,$5,0*
20,1,$1+$1,$4,$5,$6,$7,0*
20,1,$1+$1,$6,$7,$8,$9,0*
20,1,$1+$1,$8,$9,$2,$3,0*%
G04 Aperture macros list end*
%ADD10RoundRect,0.150000X-0.825000X-0.150000X0.825000X-0.150000X0.825000X0.150000X-0.825000X0.150000X0*%
%ADD11R,2.600000X2.600000*%
%ADD12C,2.600000*%
%ADD13C,3.000000*%
%ADD14R,1.350000X1.350000*%
%ADD15O,1.350000X1.350000*%
%ADD16RoundRect,0.250002X-1.599998X-1.599998X1.599998X-1.599998X1.599998X1.599998X-1.599998X1.599998X0*%
%ADD17C,3.700000*%
%ADD18R,4.572000X4.572000*%
%ADD19RoundRect,0.250000X-1.350000X-1.975000X1.350000X-1.975000X1.350000X1.975000X-1.350000X1.975000X0*%
%ADD20C,2.400000*%
%ADD21RoundRect,0.250000X-0.412500X-1.100000X0.412500X-1.100000X0.412500X1.100000X-0.412500X1.100000X0*%
%ADD22RoundRect,0.250000X1.075000X-0.400000X1.075000X0.400000X-1.075000X0.400000X-1.075000X-0.400000X0*%
%ADD23RoundRect,0.250000X-0.400000X-1.075000X0.400000X-1.075000X0.400000X1.075000X-0.400000X1.075000X0*%
%ADD24RoundRect,0.250000X1.350000X1.975000X-1.350000X1.975000X-1.350000X-1.975000X1.350000X-1.975000X0*%
%ADD25RoundRect,0.250000X-1.100000X0.412500X-1.100000X-0.412500X1.100000X-0.412500X1.100000X0.412500X0*%
%ADD26R,1.500000X1.500000*%
%ADD27C,1.500000*%
%ADD28RoundRect,0.249999X-0.450001X-1.425001X0.450001X-1.425001X0.450001X1.425001X-0.450001X1.425001X0*%
%ADD29O,2.200000X3.500000*%
%ADD30R,1.500000X2.500000*%
%ADD31O,1.500000X2.500000*%
%ADD32R,1.700000X1.700000*%
%ADD33O,1.700000X1.700000*%
%ADD34RoundRect,0.250000X0.400000X1.075000X-0.400000X1.075000X-0.400000X-1.075000X0.400000X-1.075000X0*%
%ADD35R,1.560000X1.560000*%
%ADD36C,1.560000*%
%ADD37RoundRect,0.150000X0.825000X0.150000X-0.825000X0.150000X-0.825000X-0.150000X0.825000X-0.150000X0*%
G04 APERTURE END LIST*
D10*
%TO.C,U14*%
X352754026Y-106125000D03*
X352754026Y-107395000D03*
X352754026Y-108665000D03*
X352754026Y-109935000D03*
X357704026Y-109935000D03*
X357704026Y-108665000D03*
X357704026Y-107395000D03*
X357704026Y-106125000D03*
%TD*%
D11*
%TO.C,J10*%
X95805026Y-211651000D03*
D12*
X90725026Y-211651000D03*
X85645026Y-211651000D03*
X80565026Y-211651000D03*
X75485026Y-211651000D03*
X70405026Y-211651000D03*
X65325026Y-211651000D03*
X60245026Y-211651000D03*
X55165026Y-211651000D03*
X50085026Y-211651000D03*
%TD*%
D13*
%TO.C,TP6*%
X277757026Y-169750000D03*
%TD*%
D14*
%TO.C,JP5*%
X123693026Y-51952000D03*
D15*
X123693026Y-53952000D03*
%TD*%
D13*
%TO.C,J2*%
X59557026Y-48875000D03*
D16*
X59557026Y-56175000D03*
D17*
X59557026Y-61675000D03*
%TD*%
D18*
%TO.C,U8*%
X289697026Y-72126000D03*
X289697026Y-87874000D03*
X335417026Y-72126000D03*
X335417026Y-87874000D03*
%TD*%
D11*
%TO.C,J9*%
X166196026Y-212261000D03*
D12*
X171276026Y-212261000D03*
X176356026Y-212261000D03*
X181436026Y-212261000D03*
X186516026Y-212261000D03*
%TD*%
D19*
%TO.C,R15*%
X351965026Y-187456000D03*
X357165026Y-187456000D03*
%TD*%
D13*
%TO.C,TP9*%
X345465026Y-131706000D03*
%TD*%
D19*
%TO.C,R3*%
X268157026Y-165000000D03*
X273357026Y-165000000D03*
%TD*%
D10*
%TO.C,U3*%
X268596026Y-174017000D03*
X268596026Y-175287000D03*
X268596026Y-176557000D03*
X268596026Y-177827000D03*
X273546026Y-177827000D03*
X273546026Y-176557000D03*
X273546026Y-175287000D03*
X273546026Y-174017000D03*
%TD*%
D20*
%TO.C,K1*%
X121631026Y-130000000D03*
X133631026Y-118000000D03*
X121631026Y-118000000D03*
X127631026Y-116000000D03*
X133631026Y-130000000D03*
%TD*%
D18*
%TO.C,U9*%
X217401692Y-50140000D03*
X201653692Y-50140000D03*
X217401692Y-95860000D03*
X201653692Y-95860000D03*
%TD*%
D13*
%TO.C,TP12*%
X229757026Y-114000000D03*
%TD*%
D18*
%TO.C,U12*%
X289697026Y-99394000D03*
X289697026Y-115142000D03*
X335417026Y-99394000D03*
X335417026Y-115142000D03*
%TD*%
D19*
%TO.C,R7*%
X215557026Y-109000000D03*
X220757026Y-109000000D03*
%TD*%
D21*
%TO.C,C1*%
X152916526Y-104006000D03*
X156041526Y-104006000D03*
%TD*%
D22*
%TO.C,R1*%
X140631026Y-125550000D03*
X140631026Y-122450000D03*
%TD*%
D18*
%TO.C,U4*%
X289697026Y-126826000D03*
X289697026Y-142574000D03*
X335417026Y-126826000D03*
X335417026Y-142574000D03*
%TD*%
D13*
%TO.C,TP7*%
X135757026Y-76000000D03*
%TD*%
%TO.C,TP3*%
X111500000Y-88000000D03*
%TD*%
D19*
%TO.C,R5*%
X190157026Y-112000000D03*
X195357026Y-112000000D03*
%TD*%
D13*
%TO.C,TP5*%
X116379026Y-105022000D03*
%TD*%
D23*
%TO.C,R2*%
X103900000Y-47000000D03*
X107000000Y-47000000D03*
%TD*%
D18*
%TO.C,U5*%
X189631026Y-50140000D03*
X173883026Y-50140000D03*
X189631026Y-95860000D03*
X173883026Y-95860000D03*
%TD*%
D13*
%TO.C,TP16*%
X281757026Y-118000000D03*
%TD*%
D19*
%TO.C,R6*%
X354347026Y-71708000D03*
X359547026Y-71708000D03*
%TD*%
D18*
%TO.C,U20*%
X214931026Y-136772000D03*
X199183026Y-136772000D03*
X214931026Y-182492000D03*
X199183026Y-182492000D03*
%TD*%
D10*
%TO.C,U10*%
X355040026Y-80725000D03*
X355040026Y-81995000D03*
X355040026Y-83265000D03*
X355040026Y-84535000D03*
X359990026Y-84535000D03*
X359990026Y-83265000D03*
X359990026Y-81995000D03*
X359990026Y-80725000D03*
%TD*%
D14*
%TO.C,JP6*%
X155757026Y-68208000D03*
D15*
X153757026Y-68208000D03*
%TD*%
D13*
%TO.C,TP15*%
X167757026Y-192000000D03*
%TD*%
%TO.C,TP1*%
X83359026Y-56000000D03*
%TD*%
D18*
%TO.C,U13*%
X245231026Y-50240000D03*
X229483026Y-50240000D03*
X245231026Y-95960000D03*
X229483026Y-95960000D03*
%TD*%
D10*
%TO.C,U15*%
X240282026Y-122509000D03*
X240282026Y-123779000D03*
X240282026Y-125049000D03*
X240282026Y-126319000D03*
X245232026Y-126319000D03*
X245232026Y-125049000D03*
X245232026Y-123779000D03*
X245232026Y-122509000D03*
%TD*%
D20*
%TO.C,K2*%
X117000000Y-65000000D03*
X105000000Y-53000000D03*
X105000000Y-65000000D03*
X103000000Y-59000000D03*
X117000000Y-53000000D03*
%TD*%
D11*
%TO.C,J8*%
X52462026Y-175660000D03*
D12*
X52462026Y-170580000D03*
X52462026Y-165500000D03*
X52462026Y-160420000D03*
X52462026Y-155340000D03*
X52462026Y-150260000D03*
X52462026Y-145180000D03*
X52462026Y-140100000D03*
X52462026Y-135020000D03*
X52462026Y-129940000D03*
%TD*%
D10*
%TO.C,U7*%
X190596026Y-118985000D03*
X190596026Y-120255000D03*
X190596026Y-121525000D03*
X190596026Y-122795000D03*
X195546026Y-122795000D03*
X195546026Y-121525000D03*
X195546026Y-120255000D03*
X195546026Y-118985000D03*
%TD*%
D11*
%TO.C,J1*%
X75912026Y-46005000D03*
D12*
X80992026Y-46005000D03*
%TD*%
D13*
%TO.C,TP17*%
X235757026Y-181000000D03*
%TD*%
D19*
%TO.C,R4*%
X354347026Y-135970000D03*
X359547026Y-135970000D03*
%TD*%
D13*
%TO.C,TP13*%
X346465026Y-94706000D03*
%TD*%
D24*
%TO.C,R10*%
X190607026Y-190250000D03*
X185407026Y-190250000D03*
%TD*%
D25*
%TO.C,C2*%
X125757026Y-186000000D03*
X125757026Y-189125000D03*
%TD*%
D26*
%TO.C,J6*%
X333157026Y-56680000D03*
D27*
X330657026Y-56680000D03*
X328657026Y-56680000D03*
X326157026Y-56680000D03*
X333157026Y-54060000D03*
X330657026Y-54060000D03*
X328657026Y-54060000D03*
X326157026Y-54060000D03*
D13*
X336227026Y-57030000D03*
X323087026Y-57030000D03*
X323087026Y-51350000D03*
X336227026Y-51350000D03*
%TD*%
D14*
%TO.C,JP3*%
X208757026Y-124900000D03*
D15*
X206757026Y-124900000D03*
%TD*%
D18*
%TO.C,U17*%
X272943026Y-50140000D03*
X257195026Y-50140000D03*
X272943026Y-95860000D03*
X257195026Y-95860000D03*
%TD*%
D10*
%TO.C,U18*%
X182032026Y-195595000D03*
X182032026Y-196865000D03*
X182032026Y-198135000D03*
X182032026Y-199405000D03*
X186982026Y-199405000D03*
X186982026Y-198135000D03*
X186982026Y-196865000D03*
X186982026Y-195595000D03*
%TD*%
D28*
%TO.C,R13*%
X143553026Y-129406000D03*
X149653026Y-129406000D03*
%TD*%
D26*
%TO.C,J3*%
X336653026Y-205584000D03*
D27*
X339153026Y-205584000D03*
X341153026Y-205584000D03*
X343653026Y-205584000D03*
X336653026Y-208204000D03*
X339153026Y-208204000D03*
X341153026Y-208204000D03*
X343653026Y-208204000D03*
D13*
X333583026Y-210914000D03*
X346723026Y-210914000D03*
X333583026Y-205234000D03*
X346723026Y-205234000D03*
%TD*%
D19*
%TO.C,R8*%
X351613026Y-100156000D03*
X356813026Y-100156000D03*
%TD*%
D10*
%TO.C,U19*%
X261774026Y-120763000D03*
X261774026Y-122033000D03*
X261774026Y-123303000D03*
X261774026Y-124573000D03*
X266724026Y-124573000D03*
X266724026Y-123303000D03*
X266724026Y-122033000D03*
X266724026Y-120763000D03*
%TD*%
D24*
%TO.C,R14*%
X246357026Y-169500000D03*
X241157026Y-169500000D03*
%TD*%
D10*
%TO.C,U6*%
X354532026Y-144733000D03*
X354532026Y-146003000D03*
X354532026Y-147273000D03*
X354532026Y-148543000D03*
X359482026Y-148543000D03*
X359482026Y-147273000D03*
X359482026Y-146003000D03*
X359482026Y-144733000D03*
%TD*%
D26*
%TO.C,J5*%
X354757026Y-56098000D03*
D27*
X352257026Y-56098000D03*
X350257026Y-56098000D03*
X347757026Y-56098000D03*
X354757026Y-53478000D03*
X352257026Y-53478000D03*
X350257026Y-53478000D03*
X347757026Y-53478000D03*
D13*
X357827026Y-50768000D03*
X344687026Y-50768000D03*
X344687026Y-56448000D03*
X357827026Y-56448000D03*
%TD*%
D29*
%TO.C,SW1*%
X120257026Y-43300000D03*
X112057026Y-43300000D03*
D30*
X118157026Y-43300000D03*
D31*
X116157026Y-43300000D03*
X114157026Y-43300000D03*
%TD*%
D13*
%TO.C,TP18*%
X358465026Y-174706000D03*
%TD*%
D14*
%TO.C,JP4*%
X275457026Y-151200000D03*
D15*
X275457026Y-149200000D03*
%TD*%
D28*
%TO.C,R12*%
X143809026Y-138804000D03*
X149909026Y-138804000D03*
%TD*%
D10*
%TO.C,U11*%
X215742026Y-116239000D03*
X215742026Y-117509000D03*
X215742026Y-118779000D03*
X215742026Y-120049000D03*
X220692026Y-120049000D03*
X220692026Y-118779000D03*
X220692026Y-117509000D03*
X220692026Y-116239000D03*
%TD*%
D32*
%TO.C,U24*%
X143557026Y-43300000D03*
D33*
X146097026Y-43300000D03*
X148637026Y-43300000D03*
X151177026Y-43300000D03*
X153717026Y-43300000D03*
X156257026Y-43300000D03*
X158797026Y-43300000D03*
X161337026Y-43300000D03*
%TD*%
D11*
%TO.C,J12*%
X198851526Y-212261000D03*
D12*
X203931526Y-212261000D03*
X209011526Y-212261000D03*
X214091526Y-212261000D03*
X219171526Y-212261000D03*
%TD*%
D34*
%TO.C,R16*%
X112550000Y-71000000D03*
X109450000Y-71000000D03*
%TD*%
D23*
%TO.C,F1*%
X140483026Y-71240000D03*
X143583026Y-71240000D03*
%TD*%
D35*
%TO.C,U2*%
X77823026Y-178936000D03*
D36*
X80363026Y-178936000D03*
X82903026Y-178936000D03*
X85443026Y-178936000D03*
X87983026Y-178936000D03*
X90523026Y-178936000D03*
X93063026Y-178936000D03*
X95603026Y-178936000D03*
X98143026Y-178936000D03*
X100683026Y-178936000D03*
X103223026Y-178936000D03*
X105763026Y-178936000D03*
X108303026Y-178936000D03*
X110843026Y-178936000D03*
X113383026Y-178936000D03*
X115923026Y-178936000D03*
X118463026Y-178936000D03*
X121003026Y-178936000D03*
X123543026Y-178936000D03*
X77823026Y-153536000D03*
X80363026Y-153536000D03*
X82903026Y-153536000D03*
X85443026Y-153536000D03*
X87983026Y-153536000D03*
X90523026Y-153536000D03*
X93063026Y-153536000D03*
X95603026Y-153536000D03*
X98143026Y-153536000D03*
X100683026Y-153536000D03*
X103223026Y-153536000D03*
X105763026Y-153536000D03*
X108303026Y-153536000D03*
X110843026Y-153536000D03*
X113383026Y-153536000D03*
X115923026Y-153536000D03*
X118463026Y-153536000D03*
X121003026Y-153536000D03*
X123543026Y-153536000D03*
%TD*%
D19*
%TO.C,R9*%
X240157026Y-114000000D03*
X245357026Y-114000000D03*
%TD*%
D23*
%TO.C,F2*%
X141499026Y-64128000D03*
X144599026Y-64128000D03*
%TD*%
D14*
%TO.C,JP2*%
X131757026Y-70000000D03*
D15*
X131757026Y-68000000D03*
%TD*%
D37*
%TO.C,U21*%
X247950026Y-163023000D03*
X247950026Y-161753000D03*
X247950026Y-160483000D03*
X247950026Y-159213000D03*
X243000026Y-159213000D03*
X243000026Y-160483000D03*
X243000026Y-161753000D03*
X243000026Y-163023000D03*
%TD*%
D18*
%TO.C,U22*%
X289697026Y-154258000D03*
X289697026Y-170006000D03*
X335417026Y-154258000D03*
X335417026Y-170006000D03*
%TD*%
D13*
%TO.C,TP10*%
X191757026Y-105000000D03*
%TD*%
D26*
%TO.C,J4*%
X285853026Y-205584000D03*
D27*
X288353026Y-205584000D03*
X290353026Y-205584000D03*
X292853026Y-205584000D03*
X285853026Y-208204000D03*
X288353026Y-208204000D03*
X290353026Y-208204000D03*
X292853026Y-208204000D03*
D13*
X282783026Y-210914000D03*
X295923026Y-210914000D03*
X282783026Y-205234000D03*
X295923026Y-205234000D03*
%TD*%
D19*
%TO.C,R11*%
X262157026Y-112000000D03*
X267357026Y-112000000D03*
%TD*%
D11*
%TO.C,J11*%
X153860526Y-211651000D03*
D12*
X148780526Y-211651000D03*
X143700526Y-211651000D03*
X138620526Y-211651000D03*
X133540526Y-211651000D03*
X128460526Y-211651000D03*
X123380526Y-211651000D03*
X118300526Y-211651000D03*
X113220526Y-211651000D03*
X108140526Y-211651000D03*
%TD*%
D18*
%TO.C,U16*%
X183943026Y-136772000D03*
X168195026Y-136772000D03*
X183943026Y-182492000D03*
X168195026Y-182492000D03*
%TD*%
D13*
%TO.C,TP8*%
X75757026Y-118000000D03*
%TD*%
D14*
%TO.C,JP1*%
X83815026Y-116468000D03*
D15*
X83815026Y-118468000D03*
%TD*%
D18*
%TO.C,U1*%
X59483026Y-80130000D03*
X59483026Y-95878000D03*
X105203026Y-80130000D03*
X105203026Y-95878000D03*
%TD*%
D13*
%TO.C,TP14*%
X252757026Y-119000000D03*
%TD*%
%TO.C,TP4*%
X90757026Y-124000000D03*
%TD*%
%TO.C,TP11*%
X359257026Y-67000000D03*
%TD*%
D11*
%TO.C,J7*%
X231467026Y-211456000D03*
D12*
X236467026Y-211456000D03*
X241467026Y-211456000D03*
X246467026Y-211456000D03*
X251467026Y-211456000D03*
X256467026Y-211456000D03*
X261467026Y-211456000D03*
X266467026Y-211456000D03*
%TD*%
D10*
%TO.C,U23*%
X338982026Y-189595000D03*
X338982026Y-190865000D03*
X338982026Y-192135000D03*
X338982026Y-193405000D03*
X343932026Y-193405000D03*
X343932026Y-192135000D03*
X343932026Y-190865000D03*
X343932026Y-189595000D03*
%TD*%
M02*
