%TF.GenerationSoftware,KiCad,Pcbnew,6.0.2+dfsg-1*%
%TF.CreationDate,2022-08-02T12:08:55-04:00*%
%TF.ProjectId,augertapowermanagement,61756765-7274-4617-906f-7765726d616e,rev?*%
%TF.SameCoordinates,Original*%
%TF.FileFunction,Copper,L1,Top*%
%TF.FilePolarity,Positive*%
%FSLAX46Y46*%
G04 Gerber Fmt 4.6, Leading zero omitted, Abs format (unit mm)*
G04 Created by KiCad (PCBNEW 6.0.2+dfsg-1) date 2022-08-02 12:08:55*
%MOMM*%
%LPD*%
G01*
G04 APERTURE LIST*
G04 Aperture macros list*
%AMRoundRect*
0 Rectangle with rounded corners*
0 $1 Rounding radius*
0 $2 $3 $4 $5 $6 $7 $8 $9 X,Y pos of 4 corners*
0 Add a 4 corners polygon primitive as box body*
4,1,4,$2,$3,$4,$5,$6,$7,$8,$9,$2,$3,0*
0 Add four circle primitives for the rounded corners*
1,1,$1+$1,$2,$3*
1,1,$1+$1,$4,$5*
1,1,$1+$1,$6,$7*
1,1,$1+$1,$8,$9*
0 Add four rect primitives between the rounded corners*
20,1,$1+$1,$2,$3,$4,$5,0*
20,1,$1+$1,$4,$5,$6,$7,0*
20,1,$1+$1,$6,$7,$8,$9,0*
20,1,$1+$1,$8,$9,$2,$3,0*%
G04 Aperture macros list end*
%TA.AperFunction,ComponentPad*%
%ADD10C,10.000000*%
%TD*%
%TA.AperFunction,SMDPad,CuDef*%
%ADD11RoundRect,0.150000X-0.825000X-0.150000X0.825000X-0.150000X0.825000X0.150000X-0.825000X0.150000X0*%
%TD*%
%TA.AperFunction,ComponentPad*%
%ADD12R,2.600000X2.600000*%
%TD*%
%TA.AperFunction,ComponentPad*%
%ADD13C,2.600000*%
%TD*%
%TA.AperFunction,ComponentPad*%
%ADD14C,3.000000*%
%TD*%
%TA.AperFunction,ComponentPad*%
%ADD15R,1.350000X1.350000*%
%TD*%
%TA.AperFunction,ComponentPad*%
%ADD16O,1.350000X1.350000*%
%TD*%
%TA.AperFunction,ComponentPad*%
%ADD17RoundRect,0.250002X-1.599998X-1.599998X1.599998X-1.599998X1.599998X1.599998X-1.599998X1.599998X0*%
%TD*%
%TA.AperFunction,ComponentPad*%
%ADD18C,3.700000*%
%TD*%
%TA.AperFunction,ComponentPad*%
%ADD19R,4.572000X4.572000*%
%TD*%
%TA.AperFunction,SMDPad,CuDef*%
%ADD20RoundRect,0.250000X-1.350000X-1.975000X1.350000X-1.975000X1.350000X1.975000X-1.350000X1.975000X0*%
%TD*%
%TA.AperFunction,SMDPad,CuDef*%
%ADD21RoundRect,0.250000X-0.412500X-1.100000X0.412500X-1.100000X0.412500X1.100000X-0.412500X1.100000X0*%
%TD*%
%TA.AperFunction,SMDPad,CuDef*%
%ADD22RoundRect,0.250000X0.400000X1.075000X-0.400000X1.075000X-0.400000X-1.075000X0.400000X-1.075000X0*%
%TD*%
%TA.AperFunction,SMDPad,CuDef*%
%ADD23RoundRect,0.250000X1.075000X-0.400000X1.075000X0.400000X-1.075000X0.400000X-1.075000X-0.400000X0*%
%TD*%
%TA.AperFunction,SMDPad,CuDef*%
%ADD24R,0.900000X1.250000*%
%TD*%
%TA.AperFunction,SMDPad,CuDef*%
%ADD25R,0.650000X0.650000*%
%TD*%
%TA.AperFunction,SMDPad,CuDef*%
%ADD26R,0.820000X0.600000*%
%TD*%
%TA.AperFunction,SMDPad,CuDef*%
%ADD27RoundRect,0.250000X1.350000X1.975000X-1.350000X1.975000X-1.350000X-1.975000X1.350000X-1.975000X0*%
%TD*%
%TA.AperFunction,SMDPad,CuDef*%
%ADD28RoundRect,0.250000X-1.100000X0.412500X-1.100000X-0.412500X1.100000X-0.412500X1.100000X0.412500X0*%
%TD*%
%TA.AperFunction,ComponentPad*%
%ADD29R,1.500000X1.500000*%
%TD*%
%TA.AperFunction,ComponentPad*%
%ADD30C,1.500000*%
%TD*%
%TA.AperFunction,SMDPad,CuDef*%
%ADD31RoundRect,0.249999X-0.450001X-1.425001X0.450001X-1.425001X0.450001X1.425001X-0.450001X1.425001X0*%
%TD*%
%TA.AperFunction,ComponentPad*%
%ADD32O,2.200000X3.500000*%
%TD*%
%TA.AperFunction,ComponentPad*%
%ADD33R,1.500000X2.500000*%
%TD*%
%TA.AperFunction,ComponentPad*%
%ADD34O,1.500000X2.500000*%
%TD*%
%TA.AperFunction,ComponentPad*%
%ADD35R,1.700000X1.700000*%
%TD*%
%TA.AperFunction,ComponentPad*%
%ADD36O,1.700000X1.700000*%
%TD*%
%TA.AperFunction,SMDPad,CuDef*%
%ADD37RoundRect,0.250000X-0.400000X-1.075000X0.400000X-1.075000X0.400000X1.075000X-0.400000X1.075000X0*%
%TD*%
%TA.AperFunction,ComponentPad*%
%ADD38R,1.560000X1.560000*%
%TD*%
%TA.AperFunction,ComponentPad*%
%ADD39C,1.560000*%
%TD*%
%TA.AperFunction,SMDPad,CuDef*%
%ADD40RoundRect,0.150000X0.825000X0.150000X-0.825000X0.150000X-0.825000X-0.150000X0.825000X-0.150000X0*%
%TD*%
%TA.AperFunction,ViaPad*%
%ADD41C,1.000000*%
%TD*%
%TA.AperFunction,Conductor*%
%ADD42C,1.000000*%
%TD*%
%TA.AperFunction,Conductor*%
%ADD43C,2.000000*%
%TD*%
%TA.AperFunction,Conductor*%
%ADD44C,0.500000*%
%TD*%
%TA.AperFunction,Conductor*%
%ADD45C,1.500000*%
%TD*%
%TA.AperFunction,Conductor*%
%ADD46C,3.000000*%
%TD*%
G04 APERTURE END LIST*
D10*
%TO.P,REF\u002A\u002A,1*%
%TO.N,-BATT*%
X303600000Y-334500000D03*
%TD*%
%TO.P,REF\u002A\u002A,1*%
%TO.N,-BATT*%
X190800000Y-315100000D03*
%TD*%
%TO.P,REF\u002A\u002A,1*%
%TO.N,-BATT*%
X130800000Y-246300000D03*
%TD*%
%TO.P,REF\u002A\u002A,1*%
%TO.N,-BATT*%
X345600000Y-387300000D03*
%TD*%
%TO.P,REF\u002A\u002A,1*%
%TO.N,-BATT*%
X86700000Y-315700000D03*
%TD*%
%TO.P,REF\u002A\u002A,1*%
%TO.N,-BATT*%
X343300000Y-244600000D03*
%TD*%
%TO.P,REF\u002A\u002A,1*%
%TO.N,-BATT*%
X168200000Y-391000000D03*
%TD*%
D11*
%TO.P,U14,1,A1*%
%TO.N,/power_conversion/SDA*%
X386997000Y-304125000D03*
%TO.P,U14,2,A0*%
%TO.N,-BATT*%
X386997000Y-305395000D03*
%TO.P,U14,3,SDA*%
%TO.N,/power_conversion/SDA*%
X386997000Y-306665000D03*
%TO.P,U14,4,SCL*%
%TO.N,/power_conversion/SCL*%
X386997000Y-307935000D03*
%TO.P,U14,5,VS*%
%TO.N,/power_conversion/pi 5v*%
X391947000Y-307935000D03*
%TO.P,U14,6,GND*%
%TO.N,-BATT*%
X391947000Y-306665000D03*
%TO.P,U14,7,IN-*%
%TO.N,/power_conversion/pi3*%
X391947000Y-305395000D03*
%TO.P,U14,8,IN+*%
%TO.N,Net-(R8-Pad2)*%
X391947000Y-304125000D03*
%TD*%
D12*
%TO.P,J10,1,Pin_1*%
%TO.N,Net-(J10-Pad1)*%
X130048000Y-409651000D03*
D13*
%TO.P,J10,2,Pin_2*%
%TO.N,Net-(J10-Pad2)*%
X124968000Y-409651000D03*
%TO.P,J10,3,Pin_3*%
%TO.N,Net-(J10-Pad3)*%
X119888000Y-409651000D03*
%TO.P,J10,4,Pin_4*%
%TO.N,Net-(J10-Pad4)*%
X114808000Y-409651000D03*
%TO.P,J10,5,Pin_5*%
%TO.N,Net-(J10-Pad5)*%
X109728000Y-409651000D03*
%TO.P,J10,6,Pin_6*%
%TO.N,Net-(J10-Pad6)*%
X104648000Y-409651000D03*
%TO.P,J10,7,Pin_7*%
%TO.N,Net-(J10-Pad7)*%
X99568000Y-409651000D03*
%TO.P,J10,8,Pin_8*%
%TO.N,Net-(J10-Pad8)*%
X94488000Y-409651000D03*
%TO.P,J10,9,Pin_9*%
%TO.N,Net-(J10-Pad9)*%
X89408000Y-409651000D03*
%TO.P,J10,10,Pin_10*%
%TO.N,/power_conversion/pi 5v*%
X84328000Y-409651000D03*
%TD*%
D14*
%TO.P,TP6,1,1*%
%TO.N,Net-(F1-Pad2)*%
X312000000Y-367750000D03*
%TD*%
D15*
%TO.P,JP5,1,A*%
%TO.N,+BATT*%
X157936000Y-249952000D03*
D16*
%TO.P,JP5,2,B*%
%TO.N,Net-(JP1-Pad1)*%
X157936000Y-251952000D03*
%TD*%
D17*
%TO.P,J2,1,1*%
%TO.N,-BATT*%
X93800000Y-254175000D03*
D18*
%TO.P,J2,2,2*%
%TO.N,+BATT*%
X93800000Y-259675000D03*
%TD*%
D19*
%TO.P,U8,1,Vin*%
%TO.N,Net-(F1-Pad2)*%
X323940000Y-270126000D03*
%TO.P,U8,2,GND*%
%TO.N,-BATT*%
X323940000Y-285874000D03*
%TO.P,U8,3,GND*%
X369660000Y-270126000D03*
%TO.P,U8,4,Vout*%
%TO.N,Net-(R6-Pad2)*%
X369660000Y-285874000D03*
%TD*%
D12*
%TO.P,J9,1,Pin_1*%
%TO.N,Net-(J9-Pad1)*%
X200439000Y-410261000D03*
D13*
%TO.P,J9,2,Pin_2*%
X205519000Y-410261000D03*
%TO.P,J9,3,Pin_3*%
X210599000Y-410261000D03*
%TO.P,J9,4,Pin_4*%
X215679000Y-410261000D03*
%TO.P,J9,5,Pin_5*%
X220759000Y-410261000D03*
%TD*%
D20*
%TO.P,R15,1*%
%TO.N,/power_conversion/spare2*%
X386208000Y-385456000D03*
%TO.P,R15,2*%
%TO.N,Net-(R15-Pad2)*%
X391408000Y-385456000D03*
%TD*%
D14*
%TO.P,TP9,1,1*%
%TO.N,Net-(R4-Pad2)*%
X379708000Y-329706000D03*
%TD*%
D20*
%TO.P,R3,1*%
%TO.N,/power_conversion/routerp*%
X302400000Y-363000000D03*
%TO.P,R3,2*%
%TO.N,Net-(F1-Pad2)*%
X307600000Y-363000000D03*
%TD*%
D11*
%TO.P,U3,1,A1*%
%TO.N,/power_conversion/SDA*%
X302839000Y-372017000D03*
%TO.P,U3,2,A0*%
%TO.N,/power_conversion/pi 5v*%
X302839000Y-373287000D03*
%TO.P,U3,3,SDA*%
%TO.N,/power_conversion/SDA*%
X302839000Y-374557000D03*
%TO.P,U3,4,SCL*%
%TO.N,/power_conversion/SCL*%
X302839000Y-375827000D03*
%TO.P,U3,5,VS*%
%TO.N,/power_conversion/pi 5v*%
X307789000Y-375827000D03*
%TO.P,U3,6,GND*%
%TO.N,-BATT*%
X307789000Y-374557000D03*
%TO.P,U3,7,IN-*%
%TO.N,/power_conversion/routerp*%
X307789000Y-373287000D03*
%TO.P,U3,8,IN+*%
%TO.N,Net-(F1-Pad2)*%
X307789000Y-372017000D03*
%TD*%
D19*
%TO.P,U9,1,Vin*%
%TO.N,Net-(F1-Pad2)*%
X251644666Y-248140000D03*
%TO.P,U9,2,GND*%
%TO.N,-BATT*%
X235896666Y-248140000D03*
%TO.P,U9,3,GND*%
X251644666Y-293860000D03*
%TO.P,U9,4,Vout*%
%TO.N,Net-(R7-Pad2)*%
X235896666Y-293860000D03*
%TD*%
D14*
%TO.P,TP12,1,1*%
%TO.N,Net-(R7-Pad2)*%
X264000000Y-312000000D03*
%TD*%
D19*
%TO.P,U12,1,Vin*%
%TO.N,Net-(F1-Pad2)*%
X323940000Y-297394000D03*
%TO.P,U12,2,GND*%
%TO.N,-BATT*%
X323940000Y-313142000D03*
%TO.P,U12,3,GND*%
X369660000Y-297394000D03*
%TO.P,U12,4,Vout*%
%TO.N,Net-(R8-Pad2)*%
X369660000Y-313142000D03*
%TD*%
D20*
%TO.P,R7,1*%
%TO.N,/power_conversion/N2*%
X249800000Y-307000000D03*
%TO.P,R7,2*%
%TO.N,Net-(R7-Pad2)*%
X255000000Y-307000000D03*
%TD*%
D21*
%TO.P,C1,1*%
%TO.N,/power_conversion/pi 5v*%
X187159500Y-302006000D03*
%TO.P,C1,2*%
%TO.N,-BATT*%
X190284500Y-302006000D03*
%TD*%
D22*
%TO.P,R1,1*%
%TO.N,Net-(J9-Pad1)*%
X121550000Y-343000000D03*
%TO.P,R1,2*%
%TO.N,Net-(Q2-Pad2)*%
X118450000Y-343000000D03*
%TD*%
D19*
%TO.P,U4,1,Vin*%
%TO.N,Net-(F1-Pad2)*%
X323940000Y-324826000D03*
%TO.P,U4,2,GND*%
%TO.N,-BATT*%
X323940000Y-340574000D03*
%TO.P,U4,3,GND*%
X369660000Y-324826000D03*
%TO.P,U4,4,Vout*%
%TO.N,Net-(R4-Pad2)*%
X369660000Y-340574000D03*
%TD*%
D14*
%TO.P,TP7,1,1*%
%TO.N,Net-(F1-Pad1)*%
X170000000Y-274000000D03*
%TD*%
%TO.P,TP3,1,1*%
%TO.N,Net-(Q1-Pad2)*%
X156000000Y-287000000D03*
%TD*%
D20*
%TO.P,R5,1*%
%TO.N,/power_conversion/N1*%
X224400000Y-310000000D03*
%TO.P,R5,2*%
%TO.N,Net-(R5-Pad2)*%
X229600000Y-310000000D03*
%TD*%
D14*
%TO.P,TP5,1,1*%
%TO.N,Net-(J9-Pad1)*%
X150622000Y-303022000D03*
%TD*%
D23*
%TO.P,R2,1*%
%TO.N,Net-(J9-Pad1)*%
X146000000Y-292550000D03*
%TO.P,R2,2*%
%TO.N,Net-(Q1-Pad2)*%
X146000000Y-289450000D03*
%TD*%
D19*
%TO.P,U5,1,Vin*%
%TO.N,Net-(F1-Pad2)*%
X223874000Y-248140000D03*
%TO.P,U5,2,GND*%
%TO.N,-BATT*%
X208126000Y-248140000D03*
%TO.P,U5,3,GND*%
X223874000Y-293860000D03*
%TO.P,U5,4,Vout*%
%TO.N,Net-(R5-Pad2)*%
X208126000Y-293860000D03*
%TD*%
D14*
%TO.P,TP16,1,1*%
%TO.N,Net-(R11-Pad2)*%
X316000000Y-316000000D03*
%TD*%
D20*
%TO.P,R6,1*%
%TO.N,/power_conversion/pi2*%
X388590000Y-269708000D03*
%TO.P,R6,2*%
%TO.N,Net-(R6-Pad2)*%
X393790000Y-269708000D03*
%TD*%
D19*
%TO.P,U20,1,Vin*%
%TO.N,Net-(JP3-Pad1)*%
X249174000Y-334772000D03*
%TO.P,U20,2,GND*%
%TO.N,-BATT*%
X233426000Y-334772000D03*
%TO.P,U20,3,GND*%
X249174000Y-380492000D03*
%TO.P,U20,4,Vout*%
%TO.N,Net-(R14-Pad2)*%
X233426000Y-380492000D03*
%TD*%
D11*
%TO.P,U10,1,A1*%
%TO.N,/power_conversion/pi 5v*%
X389283000Y-278725000D03*
%TO.P,U10,2,A0*%
%TO.N,-BATT*%
X389283000Y-279995000D03*
%TO.P,U10,3,SDA*%
%TO.N,/power_conversion/SDA*%
X389283000Y-281265000D03*
%TO.P,U10,4,SCL*%
%TO.N,/power_conversion/SCL*%
X389283000Y-282535000D03*
%TO.P,U10,5,VS*%
%TO.N,/power_conversion/pi 5v*%
X394233000Y-282535000D03*
%TO.P,U10,6,GND*%
%TO.N,-BATT*%
X394233000Y-281265000D03*
%TO.P,U10,7,IN-*%
%TO.N,/power_conversion/pi2*%
X394233000Y-279995000D03*
%TO.P,U10,8,IN+*%
%TO.N,Net-(R6-Pad2)*%
X394233000Y-278725000D03*
%TD*%
D15*
%TO.P,JP6,1,A*%
%TO.N,Net-(F1-Pad2)*%
X190000000Y-266208000D03*
D16*
%TO.P,JP6,2,B*%
%TO.N,/power_conversion/battery+*%
X188000000Y-266208000D03*
%TD*%
D14*
%TO.P,TP15,1,1*%
%TO.N,Net-(R10-Pad2)*%
X202000000Y-390000000D03*
%TD*%
%TO.P,TP1,1,1*%
%TO.N,+BATT*%
X117602000Y-254000000D03*
%TD*%
D19*
%TO.P,U13,1,Vin*%
%TO.N,Net-(F1-Pad2)*%
X279474000Y-248240000D03*
%TO.P,U13,2,GND*%
%TO.N,-BATT*%
X263726000Y-248240000D03*
%TO.P,U13,3,GND*%
X279474000Y-293960000D03*
%TO.P,U13,4,Vout*%
%TO.N,Net-(R9-Pad2)*%
X263726000Y-293960000D03*
%TD*%
D11*
%TO.P,U15,1,A1*%
%TO.N,/power_conversion/pi 5v*%
X274525000Y-320509000D03*
%TO.P,U15,2,A0*%
%TO.N,/power_conversion/SDA*%
X274525000Y-321779000D03*
%TO.P,U15,3,SDA*%
X274525000Y-323049000D03*
%TO.P,U15,4,SCL*%
%TO.N,/power_conversion/SCL*%
X274525000Y-324319000D03*
%TO.P,U15,5,VS*%
%TO.N,/power_conversion/pi 5v*%
X279475000Y-324319000D03*
%TO.P,U15,6,GND*%
%TO.N,-BATT*%
X279475000Y-323049000D03*
%TO.P,U15,7,IN-*%
%TO.N,/power_conversion/N3*%
X279475000Y-321779000D03*
%TO.P,U15,8,IN+*%
%TO.N,Net-(R9-Pad2)*%
X279475000Y-320509000D03*
%TD*%
D12*
%TO.P,J8,1,Pin_1*%
%TO.N,Net-(J8-Pad1)*%
X86705000Y-373660000D03*
D13*
%TO.P,J8,2,Pin_2*%
%TO.N,Net-(J8-Pad2)*%
X86705000Y-368580000D03*
%TO.P,J8,3,Pin_3*%
%TO.N,Net-(J8-Pad3)*%
X86705000Y-363500000D03*
%TO.P,J8,4,Pin_4*%
%TO.N,Net-(J8-Pad4)*%
X86705000Y-358420000D03*
%TO.P,J8,5,Pin_5*%
%TO.N,Net-(J8-Pad5)*%
X86705000Y-353340000D03*
%TO.P,J8,6,Pin_6*%
%TO.N,Net-(J8-Pad6)*%
X86705000Y-348260000D03*
%TO.P,J8,7,Pin_7*%
%TO.N,Net-(J8-Pad7)*%
X86705000Y-343180000D03*
%TO.P,J8,8,Pin_8*%
%TO.N,Net-(J8-Pad8)*%
X86705000Y-338100000D03*
%TO.P,J8,9,Pin_9*%
%TO.N,Net-(J8-Pad9)*%
X86705000Y-333020000D03*
%TO.P,J8,10,Pin_10*%
%TO.N,Net-(J8-Pad10)*%
X86705000Y-327940000D03*
%TD*%
D11*
%TO.P,U7,1,A1*%
%TO.N,/power_conversion/SCL*%
X224839000Y-316985000D03*
%TO.P,U7,2,A0*%
%TO.N,/power_conversion/pi 5v*%
X224839000Y-318255000D03*
%TO.P,U7,3,SDA*%
%TO.N,/power_conversion/SDA*%
X224839000Y-319525000D03*
%TO.P,U7,4,SCL*%
%TO.N,/power_conversion/SCL*%
X224839000Y-320795000D03*
%TO.P,U7,5,VS*%
%TO.N,/power_conversion/pi 5v*%
X229789000Y-320795000D03*
%TO.P,U7,6,GND*%
%TO.N,-BATT*%
X229789000Y-319525000D03*
%TO.P,U7,7,IN-*%
%TO.N,/power_conversion/N1*%
X229789000Y-318255000D03*
%TO.P,U7,8,IN+*%
%TO.N,Net-(R5-Pad2)*%
X229789000Y-316985000D03*
%TD*%
D12*
%TO.P,J1,1,Pin_1*%
%TO.N,-BATT*%
X110155000Y-244005000D03*
D13*
%TO.P,J1,2,Pin_2*%
%TO.N,+BATT*%
X115235000Y-244005000D03*
%TD*%
D14*
%TO.P,TP17,1,1*%
%TO.N,Net-(R14-Pad2)*%
X270000000Y-379000000D03*
%TD*%
D20*
%TO.P,R4,1*%
%TO.N,/power_conversion/pi1*%
X388590000Y-333970000D03*
%TO.P,R4,2*%
%TO.N,Net-(R4-Pad2)*%
X393790000Y-333970000D03*
%TD*%
D14*
%TO.P,TP13,1,1*%
%TO.N,Net-(R8-Pad2)*%
X380708000Y-292706000D03*
%TD*%
D24*
%TO.P,Q2,1,D*%
%TO.N,Net-(JP1-Pad1)*%
X130725000Y-327723000D03*
X125815000Y-327723000D03*
X130725000Y-326073000D03*
X125815000Y-326073000D03*
D25*
%TO.P,Q2,2,G*%
%TO.N,Net-(Q2-Pad2)*%
X127505000Y-326898000D03*
D26*
%TO.P,Q2,3,S*%
%TO.N,/power_conversion/battery+*%
X128895000Y-327313000D03*
X128895000Y-326483000D03*
%TD*%
D27*
%TO.P,R10,1*%
%TO.N,/power_conversion/netpw*%
X224850000Y-388250000D03*
%TO.P,R10,2*%
%TO.N,Net-(R10-Pad2)*%
X219650000Y-388250000D03*
%TD*%
D28*
%TO.P,C2,1*%
%TO.N,Net-(J9-Pad1)*%
X160000000Y-384000000D03*
%TO.P,C2,2*%
%TO.N,-BATT*%
X160000000Y-387125000D03*
%TD*%
D29*
%TO.P,J6,1,VBUS1*%
%TO.N,/power_conversion/pi2*%
X367400000Y-254680000D03*
D30*
%TO.P,J6,2,D1-*%
%TO.N,unconnected-(J6-Pad2)*%
X364900000Y-254680000D03*
%TO.P,J6,3,D1+*%
%TO.N,unconnected-(J6-Pad3)*%
X362900000Y-254680000D03*
%TO.P,J6,4,GND1*%
%TO.N,-BATT*%
X360400000Y-254680000D03*
%TO.P,J6,5,VBUS2*%
%TO.N,/power_conversion/pi1*%
X367400000Y-252060000D03*
%TO.P,J6,6,D2-*%
%TO.N,unconnected-(J6-Pad6)*%
X364900000Y-252060000D03*
%TO.P,J6,7,D2+*%
%TO.N,unconnected-(J6-Pad7)*%
X362900000Y-252060000D03*
%TO.P,J6,8,GND2*%
%TO.N,-BATT*%
X360400000Y-252060000D03*
D14*
%TO.P,J6,9,Shield*%
X370470000Y-255030000D03*
X357330000Y-255030000D03*
X357330000Y-249350000D03*
X370470000Y-249350000D03*
%TD*%
D15*
%TO.P,JP3,1,A*%
%TO.N,Net-(JP3-Pad1)*%
X243000000Y-322900000D03*
D16*
%TO.P,JP3,2,B*%
%TO.N,Net-(F1-Pad2)*%
X241000000Y-322900000D03*
%TD*%
D19*
%TO.P,U17,1,Vin*%
%TO.N,Net-(F1-Pad2)*%
X307186000Y-248140000D03*
%TO.P,U17,2,GND*%
%TO.N,-BATT*%
X291438000Y-248140000D03*
%TO.P,U17,3,GND*%
X307186000Y-293860000D03*
%TO.P,U17,4,Vout*%
%TO.N,Net-(R11-Pad2)*%
X291438000Y-293860000D03*
%TD*%
D11*
%TO.P,U18,1,A1*%
%TO.N,/power_conversion/SCL*%
X216275000Y-393595000D03*
%TO.P,U18,2,A0*%
%TO.N,-BATT*%
X216275000Y-394865000D03*
%TO.P,U18,3,SDA*%
%TO.N,/power_conversion/SDA*%
X216275000Y-396135000D03*
%TO.P,U18,4,SCL*%
%TO.N,/power_conversion/SCL*%
X216275000Y-397405000D03*
%TO.P,U18,5,VS*%
%TO.N,/power_conversion/pi 5v*%
X221225000Y-397405000D03*
%TO.P,U18,6,GND*%
%TO.N,-BATT*%
X221225000Y-396135000D03*
%TO.P,U18,7,IN-*%
%TO.N,/power_conversion/netpw*%
X221225000Y-394865000D03*
%TO.P,U18,8,IN+*%
%TO.N,Net-(R10-Pad2)*%
X221225000Y-393595000D03*
%TD*%
D31*
%TO.P,R13,1*%
%TO.N,/power_conversion/pi 5v*%
X177796000Y-327406000D03*
%TO.P,R13,2*%
%TO.N,/power_conversion/SDA*%
X183896000Y-327406000D03*
%TD*%
D29*
%TO.P,J3,1,VBUS1*%
%TO.N,/power_conversion/N4*%
X370896000Y-403584000D03*
D30*
%TO.P,J3,2,D1-*%
%TO.N,unconnected-(J3-Pad2)*%
X373396000Y-403584000D03*
%TO.P,J3,3,D1+*%
%TO.N,unconnected-(J3-Pad3)*%
X375396000Y-403584000D03*
%TO.P,J3,4,GND1*%
%TO.N,-BATT*%
X377896000Y-403584000D03*
%TO.P,J3,5,VBUS2*%
%TO.N,/power_conversion/N3*%
X370896000Y-406204000D03*
%TO.P,J3,6,D2-*%
%TO.N,unconnected-(J3-Pad6)*%
X373396000Y-406204000D03*
%TO.P,J3,7,D2+*%
%TO.N,unconnected-(J3-Pad7)*%
X375396000Y-406204000D03*
%TO.P,J3,8,GND2*%
%TO.N,-BATT*%
X377896000Y-406204000D03*
D14*
%TO.P,J3,9,Shield*%
X367826000Y-408914000D03*
X380966000Y-408914000D03*
X367826000Y-403234000D03*
X380966000Y-403234000D03*
%TD*%
D20*
%TO.P,R8,1*%
%TO.N,/power_conversion/pi3*%
X385856000Y-298156000D03*
%TO.P,R8,2*%
%TO.N,Net-(R8-Pad2)*%
X391056000Y-298156000D03*
%TD*%
D11*
%TO.P,U19,1,A1*%
%TO.N,/power_conversion/SDA*%
X296017000Y-318763000D03*
%TO.P,U19,2,A0*%
X296017000Y-320033000D03*
%TO.P,U19,3,SDA*%
X296017000Y-321303000D03*
%TO.P,U19,4,SCL*%
%TO.N,/power_conversion/SCL*%
X296017000Y-322573000D03*
%TO.P,U19,5,VS*%
%TO.N,/power_conversion/pi 5v*%
X300967000Y-322573000D03*
%TO.P,U19,6,GND*%
%TO.N,-BATT*%
X300967000Y-321303000D03*
%TO.P,U19,7,IN-*%
%TO.N,/power_conversion/N4*%
X300967000Y-320033000D03*
%TO.P,U19,8,IN+*%
%TO.N,Net-(R11-Pad2)*%
X300967000Y-318763000D03*
%TD*%
D27*
%TO.P,R14,1*%
%TO.N,/power_conversion/spare1*%
X280600000Y-367500000D03*
%TO.P,R14,2*%
%TO.N,Net-(R14-Pad2)*%
X275400000Y-367500000D03*
%TD*%
D11*
%TO.P,U6,1,A1*%
%TO.N,-BATT*%
X388775000Y-342733000D03*
%TO.P,U6,2,A0*%
X388775000Y-344003000D03*
%TO.P,U6,3,SDA*%
%TO.N,/power_conversion/SDA*%
X388775000Y-345273000D03*
%TO.P,U6,4,SCL*%
%TO.N,/power_conversion/SCL*%
X388775000Y-346543000D03*
%TO.P,U6,5,VS*%
%TO.N,/power_conversion/pi 5v*%
X393725000Y-346543000D03*
%TO.P,U6,6,GND*%
%TO.N,-BATT*%
X393725000Y-345273000D03*
%TO.P,U6,7,IN-*%
%TO.N,/power_conversion/pi1*%
X393725000Y-344003000D03*
%TO.P,U6,8,IN+*%
%TO.N,Net-(R4-Pad2)*%
X393725000Y-342733000D03*
%TD*%
D29*
%TO.P,J5,1,VBUS1*%
%TO.N,/power_conversion/spare2*%
X389000000Y-254098000D03*
D30*
%TO.P,J5,2,D1-*%
%TO.N,unconnected-(J5-Pad2)*%
X386500000Y-254098000D03*
%TO.P,J5,3,D1+*%
%TO.N,unconnected-(J5-Pad3)*%
X384500000Y-254098000D03*
%TO.P,J5,4,GND1*%
%TO.N,-BATT*%
X382000000Y-254098000D03*
%TO.P,J5,5,VBUS2*%
%TO.N,/power_conversion/pi3*%
X389000000Y-251478000D03*
%TO.P,J5,6,D2-*%
%TO.N,unconnected-(J5-Pad6)*%
X386500000Y-251478000D03*
%TO.P,J5,7,D2+*%
%TO.N,unconnected-(J5-Pad7)*%
X384500000Y-251478000D03*
%TO.P,J5,8,GND2*%
%TO.N,-BATT*%
X382000000Y-251478000D03*
D14*
%TO.P,J5,9,Shield*%
X392070000Y-248768000D03*
X378930000Y-248768000D03*
X378930000Y-254448000D03*
X392070000Y-254448000D03*
%TD*%
D32*
%TO.P,SW1,*%
%TO.N,*%
X154500000Y-241300000D03*
X146300000Y-241300000D03*
D33*
%TO.P,SW1,1,A*%
%TO.N,Net-(Q1-Pad2)*%
X152400000Y-241300000D03*
D34*
%TO.P,SW1,2,B*%
X150400000Y-241300000D03*
%TO.P,SW1,3,C*%
%TO.N,-BATT*%
X148400000Y-241300000D03*
%TD*%
D14*
%TO.P,TP18,1,1*%
%TO.N,Net-(R15-Pad2)*%
X392708000Y-372706000D03*
%TD*%
D15*
%TO.P,JP4,1,A*%
%TO.N,Net-(JP4-Pad1)*%
X309700000Y-349200000D03*
D16*
%TO.P,JP4,2,B*%
%TO.N,Net-(F1-Pad2)*%
X309700000Y-347200000D03*
%TD*%
D31*
%TO.P,R12,1*%
%TO.N,/power_conversion/pi 5v*%
X178052000Y-336804000D03*
%TO.P,R12,2*%
%TO.N,/power_conversion/SCL*%
X184152000Y-336804000D03*
%TD*%
D11*
%TO.P,U11,1,A1*%
%TO.N,-BATT*%
X249985000Y-314239000D03*
%TO.P,U11,2,A0*%
%TO.N,/power_conversion/SDA*%
X249985000Y-315509000D03*
%TO.P,U11,3,SDA*%
X249985000Y-316779000D03*
%TO.P,U11,4,SCL*%
%TO.N,/power_conversion/SCL*%
X249985000Y-318049000D03*
%TO.P,U11,5,VS*%
%TO.N,/power_conversion/pi 5v*%
X254935000Y-318049000D03*
%TO.P,U11,6,GND*%
%TO.N,-BATT*%
X254935000Y-316779000D03*
%TO.P,U11,7,IN-*%
%TO.N,/power_conversion/N2*%
X254935000Y-315509000D03*
%TO.P,U11,8,IN+*%
%TO.N,Net-(R7-Pad2)*%
X254935000Y-314239000D03*
%TD*%
D35*
%TO.P,U24,1,SDA*%
%TO.N,/power_conversion/SDA*%
X177800000Y-241300000D03*
D36*
%TO.P,U24,2,SCL*%
%TO.N,/power_conversion/SCL*%
X180340000Y-241300000D03*
%TO.P,U24,3,Alert*%
%TO.N,unconnected-(U24-Pad3)*%
X182880000Y-241300000D03*
%TO.P,U24,4,GND*%
%TO.N,-BATT*%
X185420000Y-241300000D03*
%TO.P,U24,5,A2*%
%TO.N,unconnected-(U24-Pad5)*%
X187960000Y-241300000D03*
%TO.P,U24,6,A1*%
%TO.N,unconnected-(U24-Pad6)*%
X190500000Y-241300000D03*
%TO.P,U24,7,A0*%
%TO.N,unconnected-(U24-Pad7)*%
X193040000Y-241300000D03*
%TO.P,U24,8,VDD*%
%TO.N,/power_conversion/pi 5v*%
X195580000Y-241300000D03*
%TD*%
D12*
%TO.P,J12,1,Pin_1*%
%TO.N,-BATT*%
X233094500Y-410261000D03*
D13*
%TO.P,J12,2,Pin_2*%
X238174500Y-410261000D03*
%TO.P,J12,3,Pin_3*%
X243254500Y-410261000D03*
%TO.P,J12,4,Pin_4*%
X248334500Y-410261000D03*
%TO.P,J12,5,Pin_5*%
X253414500Y-410261000D03*
%TD*%
D37*
%TO.P,F1,1*%
%TO.N,Net-(F1-Pad1)*%
X174726000Y-269240000D03*
%TO.P,F1,2*%
%TO.N,Net-(F1-Pad2)*%
X177826000Y-269240000D03*
%TD*%
D38*
%TO.P,U2,1,3V3*%
%TO.N,/power_conversion/pi 5v*%
X112066000Y-376936000D03*
D39*
%TO.P,U2,2,EN*%
%TO.N,Net-(J10-Pad9)*%
X114606000Y-376936000D03*
%TO.P,U2,3,SENSOR_VP*%
%TO.N,Net-(J10-Pad8)*%
X117146000Y-376936000D03*
%TO.P,U2,4,SENSOR_VN*%
%TO.N,Net-(J10-Pad7)*%
X119686000Y-376936000D03*
%TO.P,U2,5,IO34*%
%TO.N,Net-(J10-Pad6)*%
X122226000Y-376936000D03*
%TO.P,U2,6,IO35*%
%TO.N,Net-(J10-Pad5)*%
X124766000Y-376936000D03*
%TO.P,U2,7,IO32*%
%TO.N,Net-(J10-Pad4)*%
X127306000Y-376936000D03*
%TO.P,U2,8,IO33*%
%TO.N,Net-(J10-Pad3)*%
X129846000Y-376936000D03*
%TO.P,U2,9,IO25*%
%TO.N,Net-(J10-Pad2)*%
X132386000Y-376936000D03*
%TO.P,U2,10,IO26*%
%TO.N,Net-(J10-Pad1)*%
X134926000Y-376936000D03*
%TO.P,U2,11,IO27*%
%TO.N,Net-(J11-Pad10)*%
X137466000Y-376936000D03*
%TO.P,U2,12,IO14*%
%TO.N,Net-(J11-Pad9)*%
X140006000Y-376936000D03*
%TO.P,U2,13,IO12*%
%TO.N,Net-(J11-Pad8)*%
X142546000Y-376936000D03*
%TO.P,U2,14,GND1*%
%TO.N,-BATT*%
X145086000Y-376936000D03*
%TO.P,U2,15,IO13*%
%TO.N,Net-(J11-Pad7)*%
X147626000Y-376936000D03*
%TO.P,U2,16,SD2*%
%TO.N,Net-(J11-Pad6)*%
X150166000Y-376936000D03*
%TO.P,U2,17,SD3*%
%TO.N,Net-(J11-Pad5)*%
X152706000Y-376936000D03*
%TO.P,U2,18,CMD*%
%TO.N,Net-(J11-Pad4)*%
X155246000Y-376936000D03*
%TO.P,U2,19,EXT_5V*%
%TO.N,Net-(J9-Pad1)*%
X157786000Y-376936000D03*
%TO.P,U2,20,GND3*%
%TO.N,unconnected-(U2-Pad20)*%
X112066000Y-351536000D03*
%TO.P,U2,21,IO23*%
%TO.N,Net-(Q2-Pad2)*%
X114606000Y-351536000D03*
%TO.P,U2,22,SCL*%
%TO.N,/power_conversion/SCL*%
X117146000Y-351536000D03*
%TO.P,U2,23,TXD0*%
%TO.N,unconnected-(U2-Pad23)*%
X119686000Y-351536000D03*
%TO.P,U2,24,RXD0*%
%TO.N,unconnected-(U2-Pad24)*%
X122226000Y-351536000D03*
%TO.P,U2,25,SDA*%
%TO.N,/power_conversion/SDA*%
X124766000Y-351536000D03*
%TO.P,U2,26,GND2*%
%TO.N,Net-(J8-Pad1)*%
X127306000Y-351536000D03*
%TO.P,U2,27,IO19*%
%TO.N,Net-(J8-Pad2)*%
X129846000Y-351536000D03*
%TO.P,U2,28,IO18*%
%TO.N,Net-(J8-Pad3)*%
X132386000Y-351536000D03*
%TO.P,U2,29,IO5*%
%TO.N,Net-(J8-Pad4)*%
X134926000Y-351536000D03*
%TO.P,U2,30,IO17*%
%TO.N,Net-(J8-Pad5)*%
X137466000Y-351536000D03*
%TO.P,U2,31,IO16*%
%TO.N,Net-(J8-Pad6)*%
X140006000Y-351536000D03*
%TO.P,U2,32,IO4*%
%TO.N,Net-(J8-Pad7)*%
X142546000Y-351536000D03*
%TO.P,U2,33,IO0*%
%TO.N,Net-(J8-Pad8)*%
X145086000Y-351536000D03*
%TO.P,U2,34,IO2*%
%TO.N,Net-(J8-Pad9)*%
X147626000Y-351536000D03*
%TO.P,U2,35,IO15*%
%TO.N,Net-(J8-Pad10)*%
X150166000Y-351536000D03*
%TO.P,U2,36,SD1*%
%TO.N,Net-(J11-Pad1)*%
X152706000Y-351536000D03*
%TO.P,U2,37,SD0*%
%TO.N,Net-(J11-Pad2)*%
X155246000Y-351536000D03*
%TO.P,U2,38,CLK*%
%TO.N,Net-(J11-Pad3)*%
X157786000Y-351536000D03*
%TD*%
D20*
%TO.P,R9,1*%
%TO.N,/power_conversion/N3*%
X274400000Y-312000000D03*
%TO.P,R9,2*%
%TO.N,Net-(R9-Pad2)*%
X279600000Y-312000000D03*
%TD*%
D24*
%TO.P,Q1,1,D*%
%TO.N,+BATT*%
X143595000Y-251905000D03*
X148505000Y-251905000D03*
X143595000Y-253555000D03*
X148505000Y-253555000D03*
D25*
%TO.P,Q1,2,G*%
%TO.N,Net-(Q1-Pad2)*%
X145285000Y-252730000D03*
D26*
%TO.P,Q1,3,S*%
%TO.N,Net-(JP1-Pad1)*%
X146675000Y-253145000D03*
X146675000Y-252315000D03*
%TD*%
D37*
%TO.P,F2,1*%
%TO.N,/power_conversion/battery+*%
X175742000Y-262128000D03*
%TO.P,F2,2*%
%TO.N,Net-(F1-Pad2)*%
X178842000Y-262128000D03*
%TD*%
D15*
%TO.P,JP2,1,A*%
%TO.N,Net-(F1-Pad1)*%
X166000000Y-268000000D03*
D16*
%TO.P,JP2,2,B*%
%TO.N,/power_conversion/battery+*%
X166000000Y-266000000D03*
%TD*%
D40*
%TO.P,U21,1,A1*%
%TO.N,-BATT*%
X282193000Y-361023000D03*
%TO.P,U21,2,A0*%
%TO.N,/power_conversion/pi 5v*%
X282193000Y-359753000D03*
%TO.P,U21,3,SDA*%
%TO.N,/power_conversion/SDA*%
X282193000Y-358483000D03*
%TO.P,U21,4,SCL*%
%TO.N,/power_conversion/SCL*%
X282193000Y-357213000D03*
%TO.P,U21,5,VS*%
%TO.N,/power_conversion/pi 5v*%
X277243000Y-357213000D03*
%TO.P,U21,6,GND*%
%TO.N,-BATT*%
X277243000Y-358483000D03*
%TO.P,U21,7,IN-*%
%TO.N,/power_conversion/spare1*%
X277243000Y-359753000D03*
%TO.P,U21,8,IN+*%
%TO.N,Net-(R14-Pad2)*%
X277243000Y-361023000D03*
%TD*%
D19*
%TO.P,U22,1,Vin*%
%TO.N,Net-(JP4-Pad1)*%
X323940000Y-352258000D03*
%TO.P,U22,2,GND*%
%TO.N,-BATT*%
X323940000Y-368006000D03*
%TO.P,U22,3,GND*%
X369660000Y-352258000D03*
%TO.P,U22,4,Vout*%
%TO.N,Net-(R15-Pad2)*%
X369660000Y-368006000D03*
%TD*%
D14*
%TO.P,TP10,1,1*%
%TO.N,Net-(R5-Pad2)*%
X226000000Y-303000000D03*
%TD*%
D29*
%TO.P,J4,1,VBUS1*%
%TO.N,/power_conversion/N1*%
X320096000Y-403584000D03*
D30*
%TO.P,J4,2,D1-*%
%TO.N,unconnected-(J4-Pad2)*%
X322596000Y-403584000D03*
%TO.P,J4,3,D1+*%
%TO.N,unconnected-(J4-Pad3)*%
X324596000Y-403584000D03*
%TO.P,J4,4,GND1*%
%TO.N,-BATT*%
X327096000Y-403584000D03*
%TO.P,J4,5,VBUS2*%
%TO.N,/power_conversion/N2*%
X320096000Y-406204000D03*
%TO.P,J4,6,D2-*%
%TO.N,unconnected-(J4-Pad6)*%
X322596000Y-406204000D03*
%TO.P,J4,7,D2+*%
%TO.N,unconnected-(J4-Pad7)*%
X324596000Y-406204000D03*
%TO.P,J4,8,GND2*%
%TO.N,-BATT*%
X327096000Y-406204000D03*
D14*
%TO.P,J4,9,Shield*%
X317026000Y-408914000D03*
X330166000Y-408914000D03*
X317026000Y-403234000D03*
X330166000Y-403234000D03*
%TD*%
D20*
%TO.P,R11,1*%
%TO.N,/power_conversion/N4*%
X296400000Y-310000000D03*
%TO.P,R11,2*%
%TO.N,Net-(R11-Pad2)*%
X301600000Y-310000000D03*
%TD*%
D12*
%TO.P,J11,1,Pin_1*%
%TO.N,Net-(J11-Pad1)*%
X188103500Y-409651000D03*
D13*
%TO.P,J11,2,Pin_2*%
%TO.N,Net-(J11-Pad2)*%
X183023500Y-409651000D03*
%TO.P,J11,3,Pin_3*%
%TO.N,Net-(J11-Pad3)*%
X177943500Y-409651000D03*
%TO.P,J11,4,Pin_4*%
%TO.N,Net-(J11-Pad4)*%
X172863500Y-409651000D03*
%TO.P,J11,5,Pin_5*%
%TO.N,Net-(J11-Pad5)*%
X167783500Y-409651000D03*
%TO.P,J11,6,Pin_6*%
%TO.N,Net-(J11-Pad6)*%
X162703500Y-409651000D03*
%TO.P,J11,7,Pin_7*%
%TO.N,Net-(J11-Pad7)*%
X157623500Y-409651000D03*
%TO.P,J11,8,Pin_8*%
%TO.N,Net-(J11-Pad8)*%
X152543500Y-409651000D03*
%TO.P,J11,9,Pin_9*%
%TO.N,Net-(J11-Pad9)*%
X147463500Y-409651000D03*
%TO.P,J11,10,Pin_10*%
%TO.N,Net-(J11-Pad10)*%
X142383500Y-409651000D03*
%TD*%
D19*
%TO.P,U16,1,Vin*%
%TO.N,Net-(F1-Pad2)*%
X218186000Y-334772000D03*
%TO.P,U16,2,GND*%
%TO.N,-BATT*%
X202438000Y-334772000D03*
%TO.P,U16,3,GND*%
X218186000Y-380492000D03*
%TO.P,U16,4,Vout*%
%TO.N,Net-(R10-Pad2)*%
X202438000Y-380492000D03*
%TD*%
D14*
%TO.P,TP8,1,1*%
%TO.N,/power_conversion/battery+*%
X110000000Y-316000000D03*
%TD*%
D15*
%TO.P,JP1,1,A*%
%TO.N,Net-(JP1-Pad1)*%
X118058000Y-314468000D03*
D16*
%TO.P,JP1,2,B*%
%TO.N,/power_conversion/battery+*%
X118058000Y-316468000D03*
%TD*%
D19*
%TO.P,U1,1,Vin*%
%TO.N,+BATT*%
X93726000Y-278130000D03*
%TO.P,U1,2,GND*%
%TO.N,-BATT*%
X93726000Y-293878000D03*
%TO.P,U1,3,GND*%
X139446000Y-278130000D03*
%TO.P,U1,4,Vout*%
%TO.N,Net-(J9-Pad1)*%
X139446000Y-293878000D03*
%TD*%
D14*
%TO.P,TP14,1,1*%
%TO.N,Net-(R9-Pad2)*%
X287000000Y-317000000D03*
%TD*%
%TO.P,TP4,1,1*%
%TO.N,Net-(Q2-Pad2)*%
X125000000Y-322000000D03*
%TD*%
%TO.P,TP11,1,1*%
%TO.N,Net-(R6-Pad2)*%
X393500000Y-265000000D03*
%TD*%
D12*
%TO.P,J7,1,Pin_1*%
%TO.N,unconnected-(J7-Pad1)*%
X265710000Y-409456000D03*
D13*
%TO.P,J7,2,Pin_2*%
%TO.N,-BATT*%
X270710000Y-409456000D03*
%TO.P,J7,3,Pin_3*%
%TO.N,/power_conversion/routerp*%
X275710000Y-409456000D03*
%TO.P,J7,4,Pin_4*%
%TO.N,-BATT*%
X280710000Y-409456000D03*
%TO.P,J7,5,Pin_5*%
%TO.N,/power_conversion/spare1*%
X285710000Y-409456000D03*
%TO.P,J7,6,Pin_6*%
%TO.N,-BATT*%
X290710000Y-409456000D03*
%TO.P,J7,7,Pin_7*%
%TO.N,/power_conversion/netpw*%
X295710000Y-409456000D03*
%TO.P,J7,8,Pin_8*%
%TO.N,-BATT*%
X300710000Y-409456000D03*
%TD*%
D11*
%TO.P,U23,1,A1*%
%TO.N,/power_conversion/pi 5v*%
X373225000Y-387595000D03*
%TO.P,U23,2,A0*%
X373225000Y-388865000D03*
%TO.P,U23,3,SDA*%
%TO.N,/power_conversion/SDA*%
X373225000Y-390135000D03*
%TO.P,U23,4,SCL*%
%TO.N,/power_conversion/SCL*%
X373225000Y-391405000D03*
%TO.P,U23,5,VS*%
%TO.N,/power_conversion/pi 5v*%
X378175000Y-391405000D03*
%TO.P,U23,6,GND*%
%TO.N,-BATT*%
X378175000Y-390135000D03*
%TO.P,U23,7,IN-*%
%TO.N,/power_conversion/spare2*%
X378175000Y-388865000D03*
%TO.P,U23,8,IN+*%
%TO.N,Net-(R15-Pad2)*%
X378175000Y-387595000D03*
%TD*%
D41*
%TO.N,/power_conversion/pi 5v*%
X347373000Y-375827000D03*
%TO.N,/power_conversion/pi2*%
X396400000Y-280000000D03*
%TO.N,/power_conversion/pi3*%
X385856000Y-298156000D03*
%TO.N,/power_conversion/pi1*%
X374258000Y-257856000D03*
X388590000Y-333970000D03*
%TO.N,/power_conversion/pi 5v*%
X255250000Y-318250000D03*
X235095000Y-320795000D03*
%TO.N,/power_conversion/N3*%
X291000000Y-341900000D03*
%TO.N,/power_conversion/SDA*%
X387458000Y-281206000D03*
X387289000Y-304125000D03*
%TO.N,/power_conversion/pi2*%
X388458000Y-269706000D03*
%TO.N,-BATT*%
X393958000Y-281206000D03*
X389208000Y-279956000D03*
%TO.N,/power_conversion/SCL*%
X389807511Y-282805511D03*
%TO.N,/power_conversion/pi 5v*%
X394208000Y-282706000D03*
X392083000Y-308081000D03*
%TO.N,-BATT*%
X387208000Y-305456000D03*
X391208000Y-306706000D03*
%TO.N,/power_conversion/SCL*%
X387208000Y-307956000D03*
%TO.N,/power_conversion/pi 5v*%
X393958000Y-346706000D03*
%TO.N,-BATT*%
X393708000Y-345206000D03*
X388958000Y-342706000D03*
X388708000Y-343956000D03*
%TO.N,/power_conversion/SCL*%
X388958000Y-346456000D03*
%TO.N,/power_conversion/SDA*%
X388708000Y-345206000D03*
X369708000Y-384706000D03*
%TO.N,/power_conversion/SCL*%
X369958000Y-385956000D03*
%TO.N,/power_conversion/pi 5v*%
X369958000Y-381956000D03*
X355535000Y-375533000D03*
%TO.N,-BATT*%
X378400000Y-390100000D03*
%TO.N,/power_conversion/routerp*%
X307750000Y-373250000D03*
X302500000Y-362750000D03*
%TO.N,/power_conversion/SDA*%
X303000000Y-372000000D03*
%TO.N,/power_conversion/SCL*%
X303000000Y-375750000D03*
%TO.N,-BATT*%
X282250000Y-361000000D03*
X277250000Y-358500000D03*
%TO.N,Net-(R10-Pad2)*%
X219000000Y-388000000D03*
%TO.N,-BATT*%
X221750000Y-396100000D03*
X216000000Y-395000000D03*
%TO.N,/power_conversion/netpw*%
X224250000Y-388250000D03*
%TO.N,/power_conversion/SCL*%
X282250000Y-357250000D03*
X278000000Y-327500000D03*
%TO.N,/power_conversion/N3*%
X287000000Y-325750000D03*
%TO.N,/power_conversion/SDA*%
X282000000Y-358500000D03*
%TO.N,-BATT*%
X159750000Y-387250000D03*
X190250000Y-302000000D03*
X308000000Y-374500000D03*
X303000000Y-321250000D03*
X279750000Y-323000000D03*
X254750000Y-316750000D03*
X249500000Y-314250000D03*
X232250000Y-319500000D03*
%TO.N,/power_conversion/N2*%
X249800000Y-310700000D03*
%TO.N,/power_conversion/pi 5v*%
X279475000Y-324319000D03*
X298900000Y-324200000D03*
%TO.N,/power_conversion/SDA*%
X292750000Y-320250000D03*
X274525000Y-321779000D03*
%TO.N,/power_conversion/N2*%
X254935000Y-315509000D03*
%TO.N,/power_conversion/N1*%
X229789000Y-318255000D03*
%TO.N,/power_conversion/SDA*%
X249250000Y-315500000D03*
X238750000Y-315500000D03*
%TO.N,/power_conversion/SCL*%
X249000000Y-318000000D03*
%TO.N,/power_conversion/SDA*%
X223475000Y-319525000D03*
%TO.N,/power_conversion/pi 5v*%
X171000000Y-337000000D03*
X186875489Y-292124511D03*
X187082750Y-302082750D03*
%TO.N,/power_conversion/battery+*%
X129000000Y-317000000D03*
%TO.N,+BATT*%
X142000000Y-252000000D03*
X149000000Y-253000000D03*
X149000000Y-252000000D03*
%TO.N,Net-(JP1-Pad1)*%
X125815000Y-327723000D03*
X130725000Y-327723000D03*
X146675000Y-257675000D03*
%TO.N,/power_conversion/SCL*%
X222000000Y-317000000D03*
X185000000Y-342000000D03*
X222000000Y-321000000D03*
%TO.N,/power_conversion/SDA*%
X189000000Y-346000000D03*
%TD*%
D42*
%TO.N,/power_conversion/pi 5v*%
X307789000Y-375827000D02*
X347373000Y-375827000D01*
%TO.N,/power_conversion/pi2*%
X394233000Y-279995000D02*
X396395000Y-279995000D01*
X396395000Y-279995000D02*
X396400000Y-280000000D01*
%TO.N,/power_conversion/N4*%
X300967000Y-320033000D02*
X309370022Y-320033000D01*
X309370022Y-320033000D02*
X353800000Y-364462978D01*
X356702579Y-389000000D02*
X365102579Y-397400000D01*
X353800000Y-364462978D02*
X353800000Y-389000000D01*
X353800000Y-389000000D02*
X356702579Y-389000000D01*
X365102579Y-397400000D02*
X369000000Y-397400000D01*
X369000000Y-397400000D02*
X370896000Y-399296000D01*
X370896000Y-399296000D02*
X370896000Y-403584000D01*
D43*
%TO.N,Net-(F1-Pad2)*%
X316700000Y-353900000D02*
X316700000Y-352450978D01*
X316700000Y-352450978D02*
X311449022Y-347200000D01*
X311449022Y-347200000D02*
X309700000Y-347200000D01*
D42*
%TO.N,/power_conversion/spare2*%
X378175000Y-388865000D02*
X382799000Y-388865000D01*
X382799000Y-388865000D02*
X386208000Y-385456000D01*
D44*
%TO.N,Net-(R15-Pad2)*%
X374833000Y-382027000D02*
X374833000Y-384253000D01*
X374833000Y-384253000D02*
X378175000Y-387595000D01*
D42*
%TO.N,/power_conversion/pi 5v*%
X373225000Y-388865000D02*
X374728598Y-388865000D01*
X374728598Y-388865000D02*
X377268598Y-391405000D01*
X377268598Y-391405000D02*
X378175000Y-391405000D01*
X373225000Y-387595000D02*
X373225000Y-385941402D01*
X373225000Y-385941402D02*
X373329402Y-385837000D01*
X373225000Y-388865000D02*
X373225000Y-387595000D01*
D44*
%TO.N,/power_conversion/SDA*%
X372670489Y-390135000D02*
X371200000Y-388664511D01*
X373225000Y-390135000D02*
X372670489Y-390135000D01*
X371200000Y-388664511D02*
X371200000Y-385855188D01*
X371200000Y-385855188D02*
X370050812Y-384706000D01*
X370050812Y-384706000D02*
X369708000Y-384706000D01*
%TO.N,/power_conversion/SCL*%
X373225000Y-391405000D02*
X372672151Y-391405000D01*
X372672151Y-391405000D02*
X369958000Y-388690849D01*
X369958000Y-388690849D02*
X369958000Y-385956000D01*
%TO.N,Net-(R6-Pad2)*%
X393790000Y-269708000D02*
X393790000Y-265290000D01*
X393790000Y-265290000D02*
X393500000Y-265000000D01*
D42*
%TO.N,/power_conversion/spare2*%
X386208000Y-385456000D02*
X393208000Y-392456000D01*
X394907511Y-371794932D02*
X365108000Y-341995421D01*
X365108000Y-341995421D02*
X365108000Y-282195421D01*
X393208000Y-392456000D02*
X394907511Y-390756489D01*
X394907511Y-390756489D02*
X394907511Y-371794932D01*
X365108000Y-282195421D02*
X389508000Y-257795421D01*
X389508000Y-257795421D02*
X389508000Y-253986000D01*
%TO.N,/power_conversion/pi 5v*%
X229789000Y-320795000D02*
X235095000Y-320795000D01*
D43*
%TO.N,Net-(R7-Pad2)*%
X235896666Y-293860000D02*
X242260000Y-293860000D01*
X242260000Y-293860000D02*
X257470000Y-309070000D01*
D42*
%TO.N,/power_conversion/N4*%
X298300000Y-316000000D02*
X296418849Y-316000000D01*
X296418849Y-316000000D02*
X296400000Y-316018849D01*
X300967000Y-320033000D02*
X298867000Y-320033000D01*
X298867000Y-320033000D02*
X298300000Y-319466000D01*
X298300000Y-319466000D02*
X298300000Y-316000000D01*
X296400000Y-310000000D02*
X296400000Y-316018849D01*
D44*
%TO.N,-BATT*%
X391208000Y-306956000D02*
X391656000Y-306956000D01*
X391656000Y-306956000D02*
X391947000Y-306665000D01*
%TO.N,/power_conversion/SDA*%
X389283000Y-281265000D02*
X387517000Y-281265000D01*
X387517000Y-281265000D02*
X387458000Y-281206000D01*
%TO.N,-BATT*%
X303000000Y-321250000D02*
X301020000Y-321250000D01*
X301020000Y-321250000D02*
X300967000Y-321303000D01*
%TO.N,+BATT*%
X143595000Y-253555000D02*
X143595000Y-251905000D01*
X142000000Y-252000000D02*
X143500000Y-252000000D01*
X143500000Y-252000000D02*
X143595000Y-251905000D01*
%TO.N,/power_conversion/SDA*%
X387289000Y-304125000D02*
X386997000Y-304125000D01*
D42*
%TO.N,/power_conversion/pi 5v*%
X389283000Y-278725000D02*
X390477000Y-278725000D01*
X390477000Y-278725000D02*
X392558480Y-280806480D01*
X392558480Y-280806480D02*
X392558480Y-281766882D01*
X392558480Y-281766882D02*
X393326598Y-282535000D01*
X393326598Y-282535000D02*
X394233000Y-282535000D01*
D44*
%TO.N,Net-(R6-Pad2)*%
X393790000Y-269708000D02*
X393790000Y-278282000D01*
X393790000Y-278282000D02*
X394233000Y-278725000D01*
D42*
X393790000Y-269708000D02*
X377788000Y-285710000D01*
X377788000Y-285710000D02*
X369660000Y-285710000D01*
%TO.N,Net-(R8-Pad2)*%
X380708000Y-292706000D02*
X369660000Y-303754000D01*
X369660000Y-303754000D02*
X369660000Y-313142000D01*
X391056000Y-298156000D02*
X385606000Y-292706000D01*
X385606000Y-292706000D02*
X380708000Y-292706000D01*
%TO.N,/power_conversion/pi3*%
X391708000Y-305456000D02*
X391101598Y-305456000D01*
X391101598Y-305456000D02*
X385856000Y-300210402D01*
X385856000Y-300210402D02*
X385856000Y-298156000D01*
D44*
%TO.N,Net-(R8-Pad2)*%
X391947000Y-304125000D02*
X391947000Y-299047000D01*
X391947000Y-299047000D02*
X391056000Y-298156000D01*
%TO.N,/power_conversion/SDA*%
X387549849Y-306665000D02*
X389208000Y-305006849D01*
X386997000Y-306665000D02*
X387549849Y-306665000D01*
X389208000Y-305006849D02*
X388326151Y-304125000D01*
X388326151Y-304125000D02*
X387289000Y-304125000D01*
D42*
%TO.N,Net-(R4-Pad2)*%
X393790000Y-333970000D02*
X389526000Y-329706000D01*
X389526000Y-329706000D02*
X379708000Y-329706000D01*
X379708000Y-329706000D02*
X369660000Y-339754000D01*
D44*
X369660000Y-339754000D02*
X369660000Y-340574000D01*
X393725000Y-342733000D02*
X393725000Y-334035000D01*
X393725000Y-334035000D02*
X393790000Y-333970000D01*
D42*
%TO.N,/power_conversion/pi1*%
X393725000Y-344003000D02*
X392818598Y-344003000D01*
X392818598Y-344003000D02*
X388590000Y-339774402D01*
X388590000Y-339774402D02*
X388590000Y-333970000D01*
X367296000Y-251948000D02*
X373916000Y-251948000D01*
X373916000Y-251948000D02*
X374258000Y-251606000D01*
X374258000Y-257856000D02*
X374258000Y-251606000D01*
%TO.N,Net-(R15-Pad2)*%
X387979000Y-382027000D02*
X373958000Y-368006000D01*
X373958000Y-368006000D02*
X369660000Y-368006000D01*
D44*
X387979000Y-382027000D02*
X387979000Y-377435000D01*
X387979000Y-377435000D02*
X392708000Y-372706000D01*
X374833000Y-382027000D02*
X387979000Y-382027000D01*
D42*
X387979000Y-382027000D02*
X391408000Y-385456000D01*
%TO.N,/power_conversion/pi 5v*%
X369883000Y-383297000D02*
X370789402Y-383297000D01*
X370789402Y-383297000D02*
X373329402Y-385837000D01*
X369883000Y-383297000D02*
X369883000Y-382031000D01*
X369883000Y-382031000D02*
X369958000Y-381956000D01*
D44*
%TO.N,-BATT*%
X380866000Y-403234000D02*
X377896000Y-406204000D01*
X377896000Y-403584000D02*
X377896000Y-406204000D01*
X378246000Y-403234000D02*
X380966000Y-403234000D01*
X378246000Y-403234000D02*
X377896000Y-403584000D01*
X380966000Y-408914000D02*
X380966000Y-403234000D01*
X367826000Y-408914000D02*
X380966000Y-408914000D01*
X367826000Y-408914000D02*
X367826000Y-403234000D01*
X330166000Y-408914000D02*
X367826000Y-408914000D01*
%TO.N,Net-(F1-Pad2)*%
X307600000Y-363000000D02*
X307600000Y-363350000D01*
X307600000Y-363350000D02*
X312000000Y-367750000D01*
X307600000Y-363000000D02*
X307600000Y-371650000D01*
%TO.N,/power_conversion/pi 5v*%
X302839000Y-373287000D02*
X303745402Y-373287000D01*
X303745402Y-373287000D02*
X305616000Y-375157598D01*
X305616000Y-375157598D02*
X305616000Y-378000000D01*
D42*
X298250000Y-377750000D02*
X298500000Y-378000000D01*
X305616000Y-378000000D02*
X307789000Y-375827000D01*
X294754402Y-361756000D02*
X298250000Y-365251598D01*
X292000000Y-361756000D02*
X294754402Y-361756000D01*
X282193000Y-359753000D02*
X289997000Y-359753000D01*
X289997000Y-359753000D02*
X292000000Y-361756000D01*
X298500000Y-378000000D02*
X305616000Y-378000000D01*
X298250000Y-365251598D02*
X298250000Y-377750000D01*
D44*
%TO.N,/power_conversion/SDA*%
X301807000Y-374557000D02*
X299500000Y-372250000D01*
X302839000Y-374557000D02*
X301807000Y-374557000D01*
X299500000Y-372250000D02*
X299733000Y-372017000D01*
X299733000Y-372017000D02*
X302839000Y-372017000D01*
D42*
%TO.N,/power_conversion/pi 5v*%
X277243000Y-357213000D02*
X278149402Y-357213000D01*
X278149402Y-357213000D02*
X280689402Y-359753000D01*
X280689402Y-359753000D02*
X282193000Y-359753000D01*
D44*
%TO.N,/power_conversion/SCL*%
X216845000Y-397405000D02*
X218750000Y-395500000D01*
X216275000Y-397405000D02*
X216845000Y-397405000D01*
X218750000Y-395500000D02*
X216845000Y-393595000D01*
X216845000Y-393595000D02*
X216275000Y-393595000D01*
%TO.N,/power_conversion/SDA*%
X216275000Y-396135000D02*
X205377974Y-396135000D01*
X205377974Y-396135000D02*
X189000000Y-379757026D01*
X189000000Y-379757026D02*
X189000000Y-346000000D01*
%TO.N,Net-(R10-Pad2)*%
X221225000Y-393595000D02*
X221225000Y-389825000D01*
X221225000Y-389825000D02*
X219650000Y-388250000D01*
D42*
%TO.N,/power_conversion/netpw*%
X224850000Y-388250000D02*
X224850000Y-394400000D01*
X224850000Y-394400000D02*
X224385000Y-394865000D01*
X224385000Y-394865000D02*
X221225000Y-394865000D01*
D44*
%TO.N,/power_conversion/SCL*%
X216275000Y-393595000D02*
X212750000Y-390070000D01*
X212750000Y-390070000D02*
X212750000Y-330250000D01*
X212750000Y-330250000D02*
X222000000Y-321000000D01*
D42*
%TO.N,/power_conversion/pi 5v*%
X229500000Y-394750000D02*
X226845000Y-397405000D01*
X226845000Y-397405000D02*
X221225000Y-397405000D01*
X229500000Y-364000000D02*
X229500000Y-394750000D01*
X277243000Y-357213000D02*
X236287000Y-357213000D01*
X236287000Y-357213000D02*
X229500000Y-364000000D01*
%TO.N,/power_conversion/spare1*%
X280600000Y-395350000D02*
X285710000Y-400460000D01*
X285710000Y-400460000D02*
X285710000Y-409456000D01*
%TO.N,Net-(R14-Pad2)*%
X270000000Y-379000000D02*
X264000000Y-373000000D01*
X240918000Y-373000000D02*
X233426000Y-380492000D01*
X264000000Y-373000000D02*
X240918000Y-373000000D01*
X275400000Y-367500000D02*
X275400000Y-373600000D01*
X275400000Y-373600000D02*
X270000000Y-379000000D01*
%TO.N,/power_conversion/spare1*%
X280600000Y-367500000D02*
X280600000Y-395350000D01*
X280600000Y-367500000D02*
X280600000Y-362203598D01*
X280600000Y-362203598D02*
X278149402Y-359753000D01*
X278149402Y-359753000D02*
X277243000Y-359753000D01*
%TO.N,Net-(R14-Pad2)*%
X275400000Y-367500000D02*
X277243000Y-365657000D01*
X277243000Y-365657000D02*
X277243000Y-361023000D01*
D44*
%TO.N,/power_conversion/SCL*%
X278000000Y-327500000D02*
X291090000Y-327500000D01*
D42*
%TO.N,/power_conversion/N3*%
X283000000Y-321750000D02*
X287000000Y-325750000D01*
X279475000Y-321779000D02*
X279504000Y-321750000D01*
X279504000Y-321750000D02*
X283000000Y-321750000D01*
%TO.N,/power_conversion/pi 5v*%
X277243000Y-357213000D02*
X277243000Y-346297000D01*
X277243000Y-346297000D02*
X300967000Y-322573000D01*
D44*
%TO.N,-BATT*%
X327096000Y-406204000D02*
X327456000Y-406204000D01*
X327456000Y-406204000D02*
X330166000Y-408914000D01*
D42*
X327096000Y-403584000D02*
X327096000Y-406204000D01*
D44*
X327096000Y-406204000D02*
X327196000Y-406204000D01*
X327196000Y-406204000D02*
X330166000Y-403234000D01*
D42*
X330166000Y-403234000D02*
X327446000Y-403234000D01*
X327446000Y-403234000D02*
X327096000Y-403584000D01*
X330166000Y-408914000D02*
X330166000Y-403234000D01*
X317026000Y-408914000D02*
X330166000Y-408914000D01*
X317026000Y-408914000D02*
X317026000Y-403234000D01*
X300710000Y-409456000D02*
X316484000Y-409456000D01*
X316484000Y-409456000D02*
X317026000Y-408914000D01*
X290710000Y-409456000D02*
X292709511Y-411455511D01*
X292709511Y-411455511D02*
X298710489Y-411455511D01*
X298710489Y-411455511D02*
X300710000Y-409456000D01*
X280710000Y-409456000D02*
X282709511Y-411455511D01*
X282709511Y-411455511D02*
X288710489Y-411455511D01*
X288710489Y-411455511D02*
X290710000Y-409456000D01*
X270710000Y-409750489D02*
X272459511Y-411500000D01*
X272459511Y-411750000D02*
X278960489Y-411750000D01*
X279250000Y-411500000D02*
X280999511Y-409750489D01*
X253414500Y-410261000D02*
X254714500Y-411561000D01*
X254714500Y-411561000D02*
X268605000Y-411561000D01*
X268605000Y-411561000D02*
X270710000Y-409456000D01*
D43*
%TO.N,Net-(J9-Pad1)*%
X205519000Y-410261000D02*
X220759000Y-410261000D01*
X200439000Y-410261000D02*
X205519000Y-410261000D01*
D42*
X160000000Y-383500000D02*
X160000000Y-384000000D01*
D43*
X160000000Y-379150000D02*
X160000000Y-383500000D01*
X160000000Y-383500000D02*
X173678000Y-383500000D01*
X173678000Y-383500000D02*
X200439000Y-410261000D01*
D44*
%TO.N,Net-(R9-Pad2)*%
X279600000Y-312000000D02*
X279600000Y-309792668D01*
D45*
X279600000Y-309792668D02*
X263667332Y-293860000D01*
D42*
%TO.N,-BATT*%
X229789000Y-319525000D02*
X232250000Y-319500000D01*
D44*
%TO.N,/power_conversion/SDA*%
X296017000Y-320033000D02*
X296017000Y-321303000D01*
X296017000Y-320033000D02*
X296017000Y-318763000D01*
X296017000Y-320033000D02*
X292967000Y-320033000D01*
X292967000Y-320033000D02*
X292750000Y-320250000D01*
%TO.N,/power_conversion/SCL*%
X274525000Y-324319000D02*
X277706000Y-327500000D01*
X277706000Y-327500000D02*
X278000000Y-327500000D01*
X291090000Y-327500000D02*
X296017000Y-322573000D01*
%TO.N,Net-(R9-Pad2)*%
X279475000Y-320509000D02*
X283491000Y-320509000D01*
X283491000Y-320509000D02*
X287000000Y-317000000D01*
D42*
%TO.N,/power_conversion/N3*%
X274400000Y-312000000D02*
X274400000Y-317781220D01*
X274400000Y-317781220D02*
X278397780Y-321779000D01*
X278397780Y-321779000D02*
X279475000Y-321779000D01*
D44*
%TO.N,Net-(R9-Pad2)*%
X279475000Y-320509000D02*
X279475000Y-312125000D01*
X279475000Y-312125000D02*
X279600000Y-312000000D01*
D42*
%TO.N,/power_conversion/pi 5v*%
X274525000Y-320509000D02*
X275431402Y-320509000D01*
X277800480Y-322878078D02*
X277800480Y-323550882D01*
X275431402Y-320509000D02*
X277800480Y-322878078D01*
X278568598Y-324319000D02*
X279475000Y-324319000D01*
X277800480Y-323550882D02*
X278568598Y-324319000D01*
X274525000Y-320509000D02*
X257509000Y-320509000D01*
X257509000Y-320509000D02*
X255250000Y-318250000D01*
D44*
%TO.N,/power_conversion/SDA*%
X274525000Y-321779000D02*
X274525000Y-323049000D01*
X249985000Y-316779000D02*
X250537849Y-316779000D01*
X250537849Y-316779000D02*
X256807849Y-323049000D01*
X256807849Y-323049000D02*
X274525000Y-323049000D01*
%TO.N,/power_conversion/SCL*%
X249985000Y-318049000D02*
X249985000Y-318235000D01*
X249985000Y-318235000D02*
X256069000Y-324319000D01*
X256069000Y-324319000D02*
X274525000Y-324319000D01*
D42*
%TO.N,/power_conversion/N1*%
X224400000Y-313418849D02*
X227864480Y-316883329D01*
X227864480Y-316883329D02*
X227864480Y-317590436D01*
X227864480Y-317590436D02*
X228529044Y-318255000D01*
X228529044Y-318255000D02*
X229789000Y-318255000D01*
X224400000Y-310000000D02*
X224400000Y-313418849D01*
D44*
%TO.N,/power_conversion/SCL*%
X249985000Y-318049000D02*
X249049000Y-318049000D01*
X249049000Y-318049000D02*
X249000000Y-318000000D01*
%TO.N,/power_conversion/SDA*%
X223475000Y-319525000D02*
X224839000Y-319525000D01*
D45*
%TO.N,/power_conversion/pi 5v*%
X177796000Y-327406000D02*
X177796000Y-336548000D01*
X177796000Y-327406000D02*
X177796000Y-311369500D01*
D42*
X215497974Y-318255000D02*
X189242974Y-292000000D01*
X224839000Y-318255000D02*
X226665000Y-318255000D01*
X226210000Y-318460000D02*
X228750000Y-321000000D01*
X224839000Y-318255000D02*
X215497974Y-318255000D01*
D45*
X177796000Y-311369500D02*
X187082750Y-302082750D01*
D44*
X171196000Y-336804000D02*
X171000000Y-337000000D01*
X187082750Y-302082750D02*
X187159500Y-302006000D01*
X229205000Y-320795000D02*
X229789000Y-320795000D01*
X187000000Y-292000000D02*
X186875489Y-292124511D01*
X177796000Y-336548000D02*
X178052000Y-336804000D01*
D42*
X189242974Y-292000000D02*
X187000000Y-292000000D01*
D45*
X178052000Y-336804000D02*
X171196000Y-336804000D01*
D42*
%TO.N,Net-(J9-Pad1)*%
X121550000Y-343000000D02*
X128616489Y-350066489D01*
X128626489Y-350056489D02*
X159056489Y-350056489D01*
X159056489Y-350056489D02*
X159265511Y-350265511D01*
X150622000Y-297172000D02*
X146000000Y-292550000D01*
X121550000Y-343000000D02*
X150622000Y-313928000D01*
X128616489Y-350066489D02*
X128626489Y-350056489D01*
X146000000Y-292550000D02*
X144672000Y-293878000D01*
X159265511Y-375456489D02*
X157786000Y-376936000D01*
D43*
X157786000Y-376936000D02*
X160000000Y-379150000D01*
D42*
X150622000Y-303022000D02*
X150622000Y-297172000D01*
X144672000Y-293878000D02*
X139446000Y-293878000D01*
X150622000Y-313928000D02*
X150622000Y-303022000D01*
X159265511Y-350265511D02*
X159265511Y-375456489D01*
D44*
%TO.N,Net-(F1-Pad1)*%
X174726000Y-269274000D02*
X170000000Y-274000000D01*
D42*
X166000000Y-268000000D02*
X173486000Y-268000000D01*
X173486000Y-268000000D02*
X174726000Y-269240000D01*
%TO.N,Net-(F1-Pad2)*%
X190000000Y-265033000D02*
X190000000Y-266611484D01*
X187371484Y-269240000D02*
X177826000Y-269240000D01*
D43*
X316700000Y-353900000D02*
X307600000Y-363000000D01*
D42*
X187095000Y-262128000D02*
X178842000Y-262128000D01*
X190000000Y-265033000D02*
X187095000Y-262128000D01*
X190000000Y-266611484D02*
X187371484Y-269240000D01*
D43*
%TO.N,/power_conversion/battery+*%
X169872000Y-262128000D02*
X166000000Y-266000000D01*
D44*
X129000000Y-326378000D02*
X129000000Y-317000000D01*
D43*
X173128000Y-262128000D02*
X169872000Y-262128000D01*
D44*
X128895000Y-326483000D02*
X129000000Y-326378000D01*
D43*
X177208000Y-266208000D02*
X173128000Y-262128000D01*
D44*
X128895000Y-327313000D02*
X128895000Y-326483000D01*
D43*
X188000000Y-266208000D02*
X177208000Y-266208000D01*
X175742000Y-262128000D02*
X173128000Y-262128000D01*
D42*
%TO.N,/power_conversion/N2*%
X249800000Y-307000000D02*
X249800000Y-310700000D01*
D44*
%TO.N,Net-(JP1-Pad1)*%
X146675000Y-252315000D02*
X146675000Y-251515000D01*
X125815000Y-326073000D02*
X125815000Y-327723000D01*
X146675000Y-252315000D02*
X146675000Y-253145000D01*
X130725000Y-326073000D02*
X130725000Y-327723000D01*
X156814489Y-250830489D02*
X157936000Y-251952000D01*
X146675000Y-251515000D02*
X147359511Y-250830489D01*
X146675000Y-253145000D02*
X146675000Y-257675000D01*
X147359511Y-250830489D02*
X156814489Y-250830489D01*
%TO.N,Net-(Q1-Pad2)*%
X153000000Y-287000000D02*
X145285000Y-279285000D01*
X153000000Y-287000000D02*
X156000000Y-287000000D01*
X153000000Y-288000000D02*
X153000000Y-287000000D01*
X151550000Y-289450000D02*
X153000000Y-288000000D01*
X150400000Y-241300000D02*
X150400000Y-244600000D01*
X146000000Y-289450000D02*
X151550000Y-289450000D01*
X150400000Y-244600000D02*
X145285000Y-249715000D01*
X152400000Y-241300000D02*
X150400000Y-241300000D01*
X145285000Y-279285000D02*
X145285000Y-252730000D01*
X145285000Y-249715000D02*
X145285000Y-252730000D01*
%TO.N,Net-(Q2-Pad2)*%
X118450000Y-343000000D02*
X127505000Y-333945000D01*
X127505000Y-324505000D02*
X125000000Y-322000000D01*
X127505000Y-333945000D02*
X127505000Y-326898000D01*
X127505000Y-326898000D02*
X127505000Y-324505000D01*
X118450000Y-343000000D02*
X118450000Y-347692000D01*
X118450000Y-347692000D02*
X114606000Y-351536000D01*
D45*
%TO.N,Net-(R5-Pad2)*%
X229600000Y-310000000D02*
X229600000Y-306600000D01*
D42*
X229600000Y-310000000D02*
X229600000Y-316796000D01*
D45*
X229600000Y-306600000D02*
X226000000Y-303000000D01*
D44*
%TO.N,Net-(R7-Pad2)*%
X254935000Y-307065000D02*
X255000000Y-307000000D01*
X254935000Y-314239000D02*
X254935000Y-307065000D01*
D43*
X259000000Y-307000000D02*
X264000000Y-312000000D01*
X255000000Y-307000000D02*
X259000000Y-307000000D01*
D44*
%TO.N,Net-(R11-Pad2)*%
X310000000Y-310000000D02*
X316000000Y-316000000D01*
D46*
X291438000Y-293860000D02*
X298860000Y-293860000D01*
D44*
X301600000Y-310000000D02*
X310000000Y-310000000D01*
D42*
X300967000Y-310633000D02*
X300967000Y-318763000D01*
D46*
X298860000Y-293860000D02*
X301600000Y-296600000D01*
X301600000Y-296600000D02*
X301600000Y-310000000D01*
D44*
X301600000Y-310000000D02*
X300967000Y-310633000D01*
%TO.N,/power_conversion/SCL*%
X224839000Y-316985000D02*
X222015000Y-316985000D01*
X224839000Y-320795000D02*
X222205000Y-320795000D01*
X184152000Y-341152000D02*
X185000000Y-342000000D01*
X191124511Y-252084511D02*
X180340000Y-241300000D01*
X222205000Y-320795000D02*
X222000000Y-321000000D01*
X191124511Y-286124511D02*
X191124511Y-252084511D01*
X184152000Y-336804000D02*
X184152000Y-341152000D01*
X222000000Y-317000000D02*
X191124511Y-286124511D01*
%TO.N,/power_conversion/SDA*%
X183896000Y-327406000D02*
X189000000Y-332510000D01*
X201985000Y-310935081D02*
X164550481Y-273500562D01*
X164550481Y-254449519D02*
X177700000Y-241300000D01*
X177700000Y-241300000D02*
X177800000Y-241300000D01*
X189000000Y-332510000D02*
X189000000Y-346000000D01*
X189000000Y-332510000D02*
X201985000Y-319525000D01*
X201985000Y-319525000D02*
X201985000Y-310935081D01*
X164550481Y-273500562D02*
X164550481Y-254449519D01*
X201985000Y-319525000D02*
X223475000Y-319525000D01*
X249985000Y-315509000D02*
X249985000Y-316779000D01*
%TD*%
M02*
