%TF.GenerationSoftware,KiCad,Pcbnew,(6.0.7)*%
%TF.CreationDate,2022-09-11T16:21:36-04:00*%
%TF.ProjectId,augertapowermanagement,61756765-7274-4617-906f-7765726d616e,rev?*%
%TF.SameCoordinates,Original*%
%TF.FileFunction,Paste,Top*%
%TF.FilePolarity,Positive*%
%FSLAX46Y46*%
G04 Gerber Fmt 4.6, Leading zero omitted, Abs format (unit mm)*
G04 Created by KiCad (PCBNEW (6.0.7)) date 2022-09-11 16:21:36*
%MOMM*%
%LPD*%
G01*
G04 APERTURE LIST*
G04 Aperture macros list*
%AMRoundRect*
0 Rectangle with rounded corners*
0 $1 Rounding radius*
0 $2 $3 $4 $5 $6 $7 $8 $9 X,Y pos of 4 corners*
0 Add a 4 corners polygon primitive as box body*
4,1,4,$2,$3,$4,$5,$6,$7,$8,$9,$2,$3,0*
0 Add four circle primitives for the rounded corners*
1,1,$1+$1,$2,$3*
1,1,$1+$1,$4,$5*
1,1,$1+$1,$6,$7*
1,1,$1+$1,$8,$9*
0 Add four rect primitives between the rounded corners*
20,1,$1+$1,$2,$3,$4,$5,0*
20,1,$1+$1,$4,$5,$6,$7,0*
20,1,$1+$1,$6,$7,$8,$9,0*
20,1,$1+$1,$8,$9,$2,$3,0*%
G04 Aperture macros list end*
%ADD10RoundRect,0.150000X-0.825000X-0.150000X0.825000X-0.150000X0.825000X0.150000X-0.825000X0.150000X0*%
%ADD11R,3.000000X2.475000*%
%ADD12RoundRect,0.250000X1.975000X-1.350000X1.975000X1.350000X-1.975000X1.350000X-1.975000X-1.350000X0*%
%ADD13RoundRect,0.250000X-1.350000X-1.975000X1.350000X-1.975000X1.350000X1.975000X-1.350000X1.975000X0*%
%ADD14RoundRect,0.250000X-1.100000X0.412500X-1.100000X-0.412500X1.100000X-0.412500X1.100000X0.412500X0*%
%ADD15RoundRect,0.250000X0.400000X0.625000X-0.400000X0.625000X-0.400000X-0.625000X0.400000X-0.625000X0*%
%ADD16RoundRect,0.250000X0.625000X-0.400000X0.625000X0.400000X-0.625000X0.400000X-0.625000X-0.400000X0*%
%ADD17RoundRect,0.250000X1.350000X1.975000X-1.350000X1.975000X-1.350000X-1.975000X1.350000X-1.975000X0*%
%ADD18RoundRect,0.150000X0.825000X0.150000X-0.825000X0.150000X-0.825000X-0.150000X0.825000X-0.150000X0*%
%ADD19RoundRect,0.250000X-0.400000X-0.625000X0.400000X-0.625000X0.400000X0.625000X-0.400000X0.625000X0*%
%ADD20R,2.475000X3.000000*%
G04 APERTURE END LIST*
D10*
%TO.C,U14*%
X352754026Y-106125000D03*
X352754026Y-107395000D03*
X352754026Y-108665000D03*
X352754026Y-109935000D03*
X357704026Y-109935000D03*
X357704026Y-108665000D03*
X357704026Y-107395000D03*
X357704026Y-106125000D03*
%TD*%
D11*
%TO.C,JP5*%
X128778000Y-65232100D03*
X128778000Y-70607100D03*
%TD*%
D12*
%TO.C,R15*%
X350520000Y-191982400D03*
X350520000Y-186782400D03*
%TD*%
D13*
%TO.C,R3*%
X273904400Y-188772800D03*
X279104400Y-188772800D03*
%TD*%
D10*
%TO.C,U3*%
X264936200Y-179806600D03*
X264936200Y-181076600D03*
X264936200Y-182346600D03*
X264936200Y-183616600D03*
X269886200Y-183616600D03*
X269886200Y-182346600D03*
X269886200Y-181076600D03*
X269886200Y-179806600D03*
%TD*%
D13*
%TO.C,R7*%
X207398000Y-107340400D03*
X212598000Y-107340400D03*
%TD*%
D14*
%TO.C,C1*%
X150215600Y-123151500D03*
X150215600Y-126276500D03*
%TD*%
D15*
%TO.C,R1*%
X99390800Y-126746000D03*
X96290800Y-126746000D03*
%TD*%
D13*
%TO.C,R5*%
X178298800Y-110794800D03*
X183498800Y-110794800D03*
%TD*%
D16*
%TO.C,R2*%
X92354400Y-124536800D03*
X92354400Y-121436800D03*
%TD*%
D13*
%TO.C,R6*%
X354347026Y-71708000D03*
X359547026Y-71708000D03*
%TD*%
D10*
%TO.C,U10*%
X355040026Y-80725000D03*
X355040026Y-81995000D03*
X355040026Y-83265000D03*
X355040026Y-84535000D03*
X359990026Y-84535000D03*
X359990026Y-83265000D03*
X359990026Y-81995000D03*
X359990026Y-80725000D03*
%TD*%
%TO.C,U15*%
X235421400Y-114579400D03*
X235421400Y-115849400D03*
X235421400Y-117119400D03*
X235421400Y-118389400D03*
X240371400Y-118389400D03*
X240371400Y-117119400D03*
X240371400Y-115849400D03*
X240371400Y-114579400D03*
%TD*%
%TO.C,U7*%
X178737800Y-117779800D03*
X178737800Y-119049800D03*
X178737800Y-120319800D03*
X178737800Y-121589800D03*
X183687800Y-121589800D03*
X183687800Y-120319800D03*
X183687800Y-119049800D03*
X183687800Y-117779800D03*
%TD*%
D13*
%TO.C,R4*%
X354347026Y-135970000D03*
X359547026Y-135970000D03*
%TD*%
D17*
%TO.C,R10*%
X231403200Y-195072000D03*
X226203200Y-195072000D03*
%TD*%
D14*
%TO.C,C2*%
X125750000Y-185377500D03*
X125750000Y-188502500D03*
%TD*%
D18*
%TO.C,U18*%
X232091000Y-184073800D03*
X232091000Y-182803800D03*
X232091000Y-181533800D03*
X232091000Y-180263800D03*
X227141000Y-180263800D03*
X227141000Y-181533800D03*
X227141000Y-182803800D03*
X227141000Y-184073800D03*
%TD*%
D19*
%TO.C,R13*%
X145262000Y-138277600D03*
X148362000Y-138277600D03*
%TD*%
D13*
%TO.C,R8*%
X351613026Y-100156000D03*
X356813026Y-100156000D03*
%TD*%
D10*
%TO.C,U19*%
X263666200Y-114173000D03*
X263666200Y-115443000D03*
X263666200Y-116713000D03*
X263666200Y-117983000D03*
X268616200Y-117983000D03*
X268616200Y-116713000D03*
X268616200Y-115443000D03*
X268616200Y-114173000D03*
%TD*%
D17*
%TO.C,R14*%
X240902800Y-150164800D03*
X235702800Y-150164800D03*
%TD*%
D10*
%TO.C,U6*%
X354532026Y-144733000D03*
X354532026Y-146003000D03*
X354532026Y-147273000D03*
X354532026Y-148543000D03*
X359482026Y-148543000D03*
X359482026Y-147273000D03*
X359482026Y-146003000D03*
X359482026Y-144733000D03*
%TD*%
D19*
%TO.C,R12*%
X145008000Y-134239000D03*
X148108000Y-134239000D03*
%TD*%
D10*
%TO.C,U11*%
X207583000Y-114579400D03*
X207583000Y-115849400D03*
X207583000Y-117119400D03*
X207583000Y-118389400D03*
X212533000Y-118389400D03*
X212533000Y-117119400D03*
X212533000Y-115849400D03*
X212533000Y-114579400D03*
%TD*%
D13*
%TO.C,R9*%
X235499600Y-107645200D03*
X240699600Y-107645200D03*
%TD*%
D18*
%TO.C,U21*%
X241539800Y-141503400D03*
X241539800Y-140233400D03*
X241539800Y-138963400D03*
X241539800Y-137693400D03*
X236589800Y-137693400D03*
X236589800Y-138963400D03*
X236589800Y-140233400D03*
X236589800Y-141503400D03*
%TD*%
D13*
%TO.C,R11*%
X264100000Y-107950000D03*
X269300000Y-107950000D03*
%TD*%
D20*
%TO.C,JP1*%
X125328500Y-104546400D03*
X130703500Y-104546400D03*
%TD*%
D10*
%TO.C,U23*%
X338982026Y-189595000D03*
X338982026Y-190865000D03*
X338982026Y-192135000D03*
X338982026Y-193405000D03*
X343932026Y-193405000D03*
X343932026Y-192135000D03*
X343932026Y-190865000D03*
X343932026Y-189595000D03*
%TD*%
M02*
