%TF.GenerationSoftware,KiCad,Pcbnew,(6.0.7)*%
%TF.CreationDate,2022-09-09T17:44:55-04:00*%
%TF.ProjectId,augertapowermanagement,61756765-7274-4617-906f-7765726d616e,rev?*%
%TF.SameCoordinates,Original*%
%TF.FileFunction,Drillmap*%
%TF.FilePolarity,Positive*%
%FSLAX45Y45*%
G04 Gerber Fmt 4.5, Leading zero omitted, Abs format (unit mm)*
G04 Created by KiCad (PCBNEW (6.0.7)) date 2022-09-09 17:44:55*
%MOMM*%
%LPD*%
G01*
G04 APERTURE LIST*
%ADD10C,0.100000*%
%ADD11C,0.200000*%
%ADD12C,0.040000*%
%ADD13C,0.060000*%
%ADD14C,0.075000*%
%ADD15C,0.080000*%
%ADD16C,0.090000*%
%ADD17C,0.092000*%
%ADD18C,0.104000*%
%ADD19C,0.110000*%
%ADD20C,0.120000*%
%ADD21C,0.130000*%
%ADD22C,0.150000*%
%ADD23C,0.160000*%
%ADD24C,0.180000*%
%ADD25C,0.230000*%
G04 APERTURE END LIST*
D10*
X4911080Y-22237000D02*
X36494720Y-22237000D01*
X36494720Y-22237000D02*
X36494720Y-3937000D01*
X36494720Y-3937000D02*
X4911080Y-3937000D01*
X4911080Y-3937000D02*
X4911080Y-22237000D01*
D11*
D12*
X14945680Y-13411520D02*
X14985680Y-13451520D01*
X14985680Y-13411520D02*
X14945680Y-13451520D01*
X14976160Y-14671360D02*
X15016160Y-14711360D01*
X15016160Y-14671360D02*
X14976160Y-14711360D01*
X15001560Y-12862880D02*
X15041560Y-12902880D01*
X15041560Y-12862880D02*
X15001560Y-12902880D01*
X15011720Y-11882440D02*
X15051720Y-11922440D01*
X15051720Y-11882440D02*
X15011720Y-11922440D01*
X17287560Y-11760520D02*
X17327560Y-11800520D01*
X17327560Y-11760520D02*
X17287560Y-11800520D01*
X17472980Y-11884980D02*
X17512980Y-11924980D01*
X17512980Y-11884980D02*
X17472980Y-11924980D01*
X17490760Y-12024680D02*
X17530760Y-12064680D01*
X17530760Y-12024680D02*
X17490760Y-12064680D01*
X17500920Y-12207560D02*
X17540920Y-12247560D01*
X17540920Y-12207560D02*
X17500920Y-12247560D01*
X18542320Y-11958640D02*
X18582320Y-11998640D01*
X18582320Y-11958640D02*
X18542320Y-11998640D01*
X18562640Y-12136440D02*
X18602640Y-12176440D01*
X18602640Y-12136440D02*
X18562640Y-12176440D01*
X20454940Y-11691940D02*
X20494940Y-11731940D01*
X20494940Y-11691940D02*
X20454940Y-11731940D01*
X20566140Y-11991100D02*
X20606140Y-12031100D01*
X20606140Y-11991100D02*
X20566140Y-12031100D01*
X20990056Y-11634344D02*
X21030056Y-11674344D01*
X21030056Y-11634344D02*
X20990056Y-11674344D01*
X21234720Y-12136440D02*
X21274720Y-12176440D01*
X21274720Y-12136440D02*
X21234720Y-12176440D01*
X22687600Y-17607600D02*
X22727600Y-17647600D01*
X22727600Y-17607600D02*
X22687600Y-17647600D01*
X23318056Y-11719344D02*
X23358056Y-11759344D01*
X23358056Y-11719344D02*
X23318056Y-11759344D01*
X23533980Y-11991100D02*
X23573980Y-12031100D01*
X23573980Y-11991100D02*
X23533980Y-12031100D01*
X23876320Y-14010960D02*
X23916320Y-14050960D01*
X23916320Y-14010960D02*
X23876320Y-14050960D01*
X24028720Y-12136440D02*
X24068720Y-12176440D01*
X24068720Y-12136440D02*
X24028720Y-12176440D01*
X24328440Y-13980480D02*
X24368440Y-14020480D01*
X24368440Y-13980480D02*
X24328440Y-14020480D01*
X24450360Y-11613200D02*
X24490360Y-11653200D01*
X24490360Y-11613200D02*
X24450360Y-11653200D01*
X24539260Y-13749340D02*
X24579260Y-13789340D01*
X24579260Y-13749340D02*
X24539260Y-13789340D01*
X24643400Y-17937800D02*
X24683400Y-17977800D01*
X24683400Y-17937800D02*
X24643400Y-17977800D01*
X24643400Y-18420400D02*
X24683400Y-18460400D01*
X24683400Y-18420400D02*
X24643400Y-18460400D01*
X24729760Y-13873800D02*
X24769760Y-13913800D01*
X24769760Y-13873800D02*
X24729760Y-13913800D01*
X26180100Y-18128300D02*
X26220100Y-18168300D01*
X26220100Y-18128300D02*
X26180100Y-18168300D01*
X26202960Y-11648760D02*
X26242960Y-11688760D01*
X26242960Y-11648760D02*
X26202960Y-11688760D01*
X26345200Y-11989120D02*
X26385200Y-12029120D01*
X26385200Y-11989120D02*
X26345200Y-12029120D01*
X26843040Y-12136440D02*
X26883040Y-12176440D01*
X26883040Y-12136440D02*
X26843040Y-12176440D01*
X27163080Y-18212120D02*
X27203080Y-18252120D01*
X27203080Y-18212120D02*
X27163080Y-18252120D01*
X27384060Y-11651300D02*
X27424060Y-11691300D01*
X27424060Y-11651300D02*
X27384060Y-11691300D01*
X33985520Y-14717080D02*
X34025520Y-14757080D01*
X34025520Y-14717080D02*
X33985520Y-14757080D01*
X33985520Y-18293400D02*
X34025520Y-18333400D01*
X34025520Y-18293400D02*
X33985520Y-18333400D01*
X34021080Y-19863120D02*
X34061080Y-19903120D01*
X34061080Y-19863120D02*
X34021080Y-19903120D01*
X34143000Y-10825800D02*
X34183000Y-10865800D01*
X34183000Y-10825800D02*
X34143000Y-10865800D01*
X34312119Y-15188041D02*
X34352119Y-15228041D01*
X34352119Y-15188041D02*
X34312119Y-15228041D01*
X34312119Y-18564119D02*
X34352119Y-18604119D01*
X34352119Y-18564119D02*
X34312119Y-18604119D01*
X34412240Y-12136440D02*
X34452240Y-12176440D01*
X34452240Y-12136440D02*
X34412240Y-12176440D01*
X34422400Y-8118160D02*
X34462400Y-8158160D01*
X34462400Y-8118160D02*
X34422400Y-8158160D01*
X34564640Y-11994200D02*
X34604640Y-12034200D01*
X34604640Y-11994200D02*
X34564640Y-12034200D01*
X34711960Y-8306120D02*
X34751960Y-8346120D01*
X34751960Y-8306120D02*
X34711960Y-8346120D01*
X35001520Y-14889800D02*
X35041520Y-14929800D01*
X35041520Y-14889800D02*
X35001520Y-14929800D01*
X35006600Y-8519480D02*
X35046600Y-8559480D01*
X35046600Y-8519480D02*
X35006600Y-8559480D01*
X35047240Y-10719120D02*
X35087240Y-10759120D01*
X35087240Y-10719120D02*
X35047240Y-10759120D01*
X35321560Y-8179120D02*
X35361560Y-8219120D01*
X35361560Y-8179120D02*
X35321560Y-8219120D01*
X35773680Y-12131360D02*
X35813680Y-12171360D01*
X35813680Y-12131360D02*
X35773680Y-12171360D01*
X36149600Y-8306120D02*
X36189600Y-8346120D01*
X36189600Y-8306120D02*
X36149600Y-8346120D01*
D13*
X9454640Y-12642880D02*
G75*
G03*
X9454640Y-12642880I-30000J0D01*
G01*
D14*
X9758680Y-12103700D02*
X9758680Y-12178700D01*
X9721180Y-12141200D02*
X9796180Y-12141200D01*
X9885680Y-11976700D02*
X9885680Y-12051700D01*
X9848180Y-12014200D02*
X9923180Y-12014200D01*
X9885680Y-12230700D02*
X9885680Y-12305700D01*
X9848180Y-12268200D02*
X9923180Y-12268200D01*
D15*
X20922325Y-13083884D02*
X20922325Y-13027315D01*
X20865756Y-13027315D01*
X20865756Y-13083884D01*
X20922325Y-13083884D01*
X21122325Y-13083884D02*
X21122325Y-13027315D01*
X21065756Y-13027315D01*
X21065756Y-13083884D01*
X21122325Y-13083884D01*
X27859724Y-15400364D02*
X27859724Y-15343795D01*
X27803155Y-15343795D01*
X27803155Y-15400364D01*
X27859724Y-15400364D01*
X28059724Y-15400364D02*
X28059724Y-15343795D01*
X28003155Y-15343795D01*
X28003155Y-15400364D01*
X28059724Y-15400364D01*
D16*
X11415703Y-4375000D02*
X11460703Y-4330000D01*
X11415703Y-4285000D01*
X11370703Y-4330000D01*
X11415703Y-4375000D01*
X11615703Y-4375000D02*
X11660703Y-4330000D01*
X11615703Y-4285000D01*
X11570703Y-4330000D01*
X11615703Y-4375000D01*
X11815703Y-4375000D02*
X11860703Y-4330000D01*
X11815703Y-4285000D01*
X11770703Y-4330000D01*
X11815703Y-4375000D01*
D17*
X28539303Y-20512400D02*
X28631303Y-20604400D01*
X28631303Y-20512400D02*
X28539303Y-20604400D01*
X28631303Y-20558400D02*
G75*
G03*
X28631303Y-20558400I-46000J0D01*
G01*
X28539303Y-20774400D02*
X28631303Y-20866400D01*
X28631303Y-20774400D02*
X28539303Y-20866400D01*
X28631303Y-20820400D02*
G75*
G03*
X28631303Y-20820400I-46000J0D01*
G01*
X28789303Y-20512400D02*
X28881303Y-20604400D01*
X28881303Y-20512400D02*
X28789303Y-20604400D01*
X28881303Y-20558400D02*
G75*
G03*
X28881303Y-20558400I-46000J0D01*
G01*
X28789303Y-20774400D02*
X28881303Y-20866400D01*
X28881303Y-20774400D02*
X28789303Y-20866400D01*
X28881303Y-20820400D02*
G75*
G03*
X28881303Y-20820400I-46000J0D01*
G01*
X28989303Y-20512400D02*
X29081303Y-20604400D01*
X29081303Y-20512400D02*
X28989303Y-20604400D01*
X29081303Y-20558400D02*
G75*
G03*
X29081303Y-20558400I-46000J0D01*
G01*
X28989303Y-20774400D02*
X29081303Y-20866400D01*
X29081303Y-20774400D02*
X28989303Y-20866400D01*
X29081303Y-20820400D02*
G75*
G03*
X29081303Y-20820400I-46000J0D01*
G01*
X29239303Y-20512400D02*
X29331303Y-20604400D01*
X29331303Y-20512400D02*
X29239303Y-20604400D01*
X29331303Y-20558400D02*
G75*
G03*
X29331303Y-20558400I-46000J0D01*
G01*
X29239303Y-20774400D02*
X29331303Y-20866400D01*
X29331303Y-20774400D02*
X29239303Y-20866400D01*
X29331303Y-20820400D02*
G75*
G03*
X29331303Y-20820400I-46000J0D01*
G01*
X32370000Y-5292360D02*
X32462000Y-5384360D01*
X32462000Y-5292360D02*
X32370000Y-5384360D01*
X32462000Y-5338360D02*
G75*
G03*
X32462000Y-5338360I-46000J0D01*
G01*
X32370000Y-5554360D02*
X32462000Y-5646360D01*
X32462000Y-5554360D02*
X32370000Y-5646360D01*
X32462000Y-5600360D02*
G75*
G03*
X32462000Y-5600360I-46000J0D01*
G01*
X32620000Y-5292360D02*
X32712000Y-5384360D01*
X32712000Y-5292360D02*
X32620000Y-5384360D01*
X32712000Y-5338360D02*
G75*
G03*
X32712000Y-5338360I-46000J0D01*
G01*
X32620000Y-5554360D02*
X32712000Y-5646360D01*
X32712000Y-5554360D02*
X32620000Y-5646360D01*
X32712000Y-5600360D02*
G75*
G03*
X32712000Y-5600360I-46000J0D01*
G01*
X32820000Y-5292360D02*
X32912000Y-5384360D01*
X32912000Y-5292360D02*
X32820000Y-5384360D01*
X32912000Y-5338360D02*
G75*
G03*
X32912000Y-5338360I-46000J0D01*
G01*
X32820000Y-5554360D02*
X32912000Y-5646360D01*
X32912000Y-5554360D02*
X32820000Y-5646360D01*
X32912000Y-5600360D02*
G75*
G03*
X32912000Y-5600360I-46000J0D01*
G01*
X33070000Y-5292360D02*
X33162000Y-5384360D01*
X33162000Y-5292360D02*
X33070000Y-5384360D01*
X33162000Y-5338360D02*
G75*
G03*
X33162000Y-5338360I-46000J0D01*
G01*
X33070000Y-5554360D02*
X33162000Y-5646360D01*
X33162000Y-5554360D02*
X33070000Y-5646360D01*
X33162000Y-5600360D02*
G75*
G03*
X33162000Y-5600360I-46000J0D01*
G01*
X33619303Y-20512400D02*
X33711303Y-20604400D01*
X33711303Y-20512400D02*
X33619303Y-20604400D01*
X33711303Y-20558400D02*
G75*
G03*
X33711303Y-20558400I-46000J0D01*
G01*
X33619303Y-20774400D02*
X33711303Y-20866400D01*
X33711303Y-20774400D02*
X33619303Y-20866400D01*
X33711303Y-20820400D02*
G75*
G03*
X33711303Y-20820400I-46000J0D01*
G01*
X33869303Y-20512400D02*
X33961303Y-20604400D01*
X33961303Y-20512400D02*
X33869303Y-20604400D01*
X33961303Y-20558400D02*
G75*
G03*
X33961303Y-20558400I-46000J0D01*
G01*
X33869303Y-20774400D02*
X33961303Y-20866400D01*
X33961303Y-20774400D02*
X33869303Y-20866400D01*
X33961303Y-20820400D02*
G75*
G03*
X33961303Y-20820400I-46000J0D01*
G01*
X34069303Y-20512400D02*
X34161303Y-20604400D01*
X34161303Y-20512400D02*
X34069303Y-20604400D01*
X34161303Y-20558400D02*
G75*
G03*
X34161303Y-20558400I-46000J0D01*
G01*
X34069303Y-20774400D02*
X34161303Y-20866400D01*
X34161303Y-20774400D02*
X34069303Y-20866400D01*
X34161303Y-20820400D02*
G75*
G03*
X34161303Y-20820400I-46000J0D01*
G01*
X34319303Y-20512400D02*
X34411303Y-20604400D01*
X34411303Y-20512400D02*
X34319303Y-20604400D01*
X34411303Y-20558400D02*
G75*
G03*
X34411303Y-20558400I-46000J0D01*
G01*
X34319303Y-20774400D02*
X34411303Y-20866400D01*
X34411303Y-20774400D02*
X34319303Y-20866400D01*
X34411303Y-20820400D02*
G75*
G03*
X34411303Y-20820400I-46000J0D01*
G01*
X34747440Y-5287280D02*
X34839440Y-5379280D01*
X34839440Y-5287280D02*
X34747440Y-5379280D01*
X34839440Y-5333280D02*
G75*
G03*
X34839440Y-5333280I-46000J0D01*
G01*
X34747440Y-5549280D02*
X34839440Y-5641280D01*
X34839440Y-5549280D02*
X34747440Y-5641280D01*
X34839440Y-5595280D02*
G75*
G03*
X34839440Y-5595280I-46000J0D01*
G01*
X34997440Y-5287280D02*
X35089440Y-5379280D01*
X35089440Y-5287280D02*
X34997440Y-5379280D01*
X35089440Y-5333280D02*
G75*
G03*
X35089440Y-5333280I-46000J0D01*
G01*
X34997440Y-5549280D02*
X35089440Y-5641280D01*
X35089440Y-5549280D02*
X34997440Y-5641280D01*
X35089440Y-5595280D02*
G75*
G03*
X35089440Y-5595280I-46000J0D01*
G01*
X35197440Y-5287280D02*
X35289440Y-5379280D01*
X35289440Y-5287280D02*
X35197440Y-5379280D01*
X35289440Y-5333280D02*
G75*
G03*
X35289440Y-5333280I-46000J0D01*
G01*
X35197440Y-5549280D02*
X35289440Y-5641280D01*
X35289440Y-5549280D02*
X35197440Y-5641280D01*
X35289440Y-5595280D02*
G75*
G03*
X35289440Y-5595280I-46000J0D01*
G01*
X35447440Y-5287280D02*
X35539440Y-5379280D01*
X35539440Y-5287280D02*
X35447440Y-5379280D01*
X35539440Y-5333280D02*
G75*
G03*
X35539440Y-5333280I-46000J0D01*
G01*
X35447440Y-5549280D02*
X35539440Y-5641280D01*
X35539440Y-5549280D02*
X35447440Y-5641280D01*
X35539440Y-5595280D02*
G75*
G03*
X35539440Y-5595280I-46000J0D01*
G01*
D10*
X14305703Y-4280000D02*
X14405703Y-4380000D01*
X14405703Y-4280000D02*
X14305703Y-4380000D01*
X14355703Y-4280000D02*
X14355703Y-4380000D01*
X14305703Y-4330000D02*
X14405703Y-4330000D01*
X14559703Y-4280000D02*
X14659703Y-4380000D01*
X14659703Y-4280000D02*
X14559703Y-4380000D01*
X14609703Y-4280000D02*
X14609703Y-4380000D01*
X14559703Y-4330000D02*
X14659703Y-4330000D01*
X14813703Y-4280000D02*
X14913703Y-4380000D01*
X14913703Y-4280000D02*
X14813703Y-4380000D01*
X14863703Y-4280000D02*
X14863703Y-4380000D01*
X14813703Y-4330000D02*
X14913703Y-4330000D01*
X15067703Y-4280000D02*
X15167703Y-4380000D01*
X15167703Y-4280000D02*
X15067703Y-4380000D01*
X15117703Y-4280000D02*
X15117703Y-4380000D01*
X15067703Y-4330000D02*
X15167703Y-4330000D01*
X15321703Y-4280000D02*
X15421703Y-4380000D01*
X15421703Y-4280000D02*
X15321703Y-4380000D01*
X15371703Y-4280000D02*
X15371703Y-4380000D01*
X15321703Y-4330000D02*
X15421703Y-4330000D01*
X15575703Y-4280000D02*
X15675703Y-4380000D01*
X15675703Y-4280000D02*
X15575703Y-4380000D01*
X15625703Y-4280000D02*
X15625703Y-4380000D01*
X15575703Y-4330000D02*
X15675703Y-4330000D01*
X15829703Y-4280000D02*
X15929703Y-4380000D01*
X15929703Y-4280000D02*
X15829703Y-4380000D01*
X15879703Y-4280000D02*
X15879703Y-4380000D01*
X15829703Y-4330000D02*
X15929703Y-4330000D01*
X16083703Y-4280000D02*
X16183703Y-4380000D01*
X16183703Y-4280000D02*
X16083703Y-4380000D01*
X16133703Y-4280000D02*
X16133703Y-4380000D01*
X16083703Y-4330000D02*
X16183703Y-4330000D01*
D18*
X7730303Y-15301600D02*
X7834303Y-15405600D01*
X7834303Y-15301600D02*
X7730303Y-15405600D01*
X7819072Y-15390370D02*
X7819072Y-15316830D01*
X7745533Y-15316830D01*
X7745533Y-15390370D01*
X7819072Y-15390370D01*
X7730303Y-17841600D02*
X7834303Y-17945600D01*
X7834303Y-17841600D02*
X7730303Y-17945600D01*
X7819072Y-17930370D02*
X7819072Y-17856830D01*
X7745533Y-17856830D01*
X7745533Y-17930370D01*
X7819072Y-17930370D01*
X7984303Y-15301600D02*
X8088303Y-15405600D01*
X8088303Y-15301600D02*
X7984303Y-15405600D01*
X8073072Y-15390370D02*
X8073072Y-15316830D01*
X7999533Y-15316830D01*
X7999533Y-15390370D01*
X8073072Y-15390370D01*
X7984303Y-17841600D02*
X8088303Y-17945600D01*
X8088303Y-17841600D02*
X7984303Y-17945600D01*
X8073072Y-17930370D02*
X8073072Y-17856830D01*
X7999533Y-17856830D01*
X7999533Y-17930370D01*
X8073072Y-17930370D01*
X8238303Y-15301600D02*
X8342303Y-15405600D01*
X8342303Y-15301600D02*
X8238303Y-15405600D01*
X8327072Y-15390370D02*
X8327072Y-15316830D01*
X8253533Y-15316830D01*
X8253533Y-15390370D01*
X8327072Y-15390370D01*
X8238303Y-17841600D02*
X8342303Y-17945600D01*
X8342303Y-17841600D02*
X8238303Y-17945600D01*
X8327072Y-17930370D02*
X8327072Y-17856830D01*
X8253533Y-17856830D01*
X8253533Y-17930370D01*
X8327072Y-17930370D01*
X8492303Y-15301600D02*
X8596303Y-15405600D01*
X8596303Y-15301600D02*
X8492303Y-15405600D01*
X8581073Y-15390370D02*
X8581073Y-15316830D01*
X8507533Y-15316830D01*
X8507533Y-15390370D01*
X8581073Y-15390370D01*
X8492303Y-17841600D02*
X8596303Y-17945600D01*
X8596303Y-17841600D02*
X8492303Y-17945600D01*
X8581073Y-17930370D02*
X8581073Y-17856830D01*
X8507533Y-17856830D01*
X8507533Y-17930370D01*
X8581073Y-17930370D01*
X8746303Y-15301600D02*
X8850303Y-15405600D01*
X8850303Y-15301600D02*
X8746303Y-15405600D01*
X8835073Y-15390370D02*
X8835073Y-15316830D01*
X8761533Y-15316830D01*
X8761533Y-15390370D01*
X8835073Y-15390370D01*
X8746303Y-17841600D02*
X8850303Y-17945600D01*
X8850303Y-17841600D02*
X8746303Y-17945600D01*
X8835073Y-17930370D02*
X8835073Y-17856830D01*
X8761533Y-17856830D01*
X8761533Y-17930370D01*
X8835073Y-17930370D01*
X9000303Y-15301600D02*
X9104303Y-15405600D01*
X9104303Y-15301600D02*
X9000303Y-15405600D01*
X9089073Y-15390370D02*
X9089073Y-15316830D01*
X9015533Y-15316830D01*
X9015533Y-15390370D01*
X9089073Y-15390370D01*
X9000303Y-17841600D02*
X9104303Y-17945600D01*
X9104303Y-17841600D02*
X9000303Y-17945600D01*
X9089073Y-17930370D02*
X9089073Y-17856830D01*
X9015533Y-17856830D01*
X9015533Y-17930370D01*
X9089073Y-17930370D01*
X9254303Y-15301600D02*
X9358303Y-15405600D01*
X9358303Y-15301600D02*
X9254303Y-15405600D01*
X9343073Y-15390370D02*
X9343073Y-15316830D01*
X9269533Y-15316830D01*
X9269533Y-15390370D01*
X9343073Y-15390370D01*
X9254303Y-17841600D02*
X9358303Y-17945600D01*
X9358303Y-17841600D02*
X9254303Y-17945600D01*
X9343073Y-17930370D02*
X9343073Y-17856830D01*
X9269533Y-17856830D01*
X9269533Y-17930370D01*
X9343073Y-17930370D01*
X9508303Y-15301600D02*
X9612303Y-15405600D01*
X9612303Y-15301600D02*
X9508303Y-15405600D01*
X9597073Y-15390370D02*
X9597073Y-15316830D01*
X9523533Y-15316830D01*
X9523533Y-15390370D01*
X9597073Y-15390370D01*
X9508303Y-17841600D02*
X9612303Y-17945600D01*
X9612303Y-17841600D02*
X9508303Y-17945600D01*
X9597073Y-17930370D02*
X9597073Y-17856830D01*
X9523533Y-17856830D01*
X9523533Y-17930370D01*
X9597073Y-17930370D01*
X9762303Y-15301600D02*
X9866303Y-15405600D01*
X9866303Y-15301600D02*
X9762303Y-15405600D01*
X9851073Y-15390370D02*
X9851073Y-15316830D01*
X9777533Y-15316830D01*
X9777533Y-15390370D01*
X9851073Y-15390370D01*
X9762303Y-17841600D02*
X9866303Y-17945600D01*
X9866303Y-17841600D02*
X9762303Y-17945600D01*
X9851073Y-17930370D02*
X9851073Y-17856830D01*
X9777533Y-17856830D01*
X9777533Y-17930370D01*
X9851073Y-17930370D01*
X10016303Y-15301600D02*
X10120303Y-15405600D01*
X10120303Y-15301600D02*
X10016303Y-15405600D01*
X10105073Y-15390370D02*
X10105073Y-15316830D01*
X10031533Y-15316830D01*
X10031533Y-15390370D01*
X10105073Y-15390370D01*
X10016303Y-17841600D02*
X10120303Y-17945600D01*
X10120303Y-17841600D02*
X10016303Y-17945600D01*
X10105073Y-17930370D02*
X10105073Y-17856830D01*
X10031533Y-17856830D01*
X10031533Y-17930370D01*
X10105073Y-17930370D01*
X10270303Y-15301600D02*
X10374303Y-15405600D01*
X10374303Y-15301600D02*
X10270303Y-15405600D01*
X10359073Y-15390370D02*
X10359073Y-15316830D01*
X10285533Y-15316830D01*
X10285533Y-15390370D01*
X10359073Y-15390370D01*
X10270303Y-17841600D02*
X10374303Y-17945600D01*
X10374303Y-17841600D02*
X10270303Y-17945600D01*
X10359073Y-17930370D02*
X10359073Y-17856830D01*
X10285533Y-17856830D01*
X10285533Y-17930370D01*
X10359073Y-17930370D01*
X10524303Y-15301600D02*
X10628303Y-15405600D01*
X10628303Y-15301600D02*
X10524303Y-15405600D01*
X10613073Y-15390370D02*
X10613073Y-15316830D01*
X10539533Y-15316830D01*
X10539533Y-15390370D01*
X10613073Y-15390370D01*
X10524303Y-17841600D02*
X10628303Y-17945600D01*
X10628303Y-17841600D02*
X10524303Y-17945600D01*
X10613073Y-17930370D02*
X10613073Y-17856830D01*
X10539533Y-17856830D01*
X10539533Y-17930370D01*
X10613073Y-17930370D01*
X10778303Y-15301600D02*
X10882303Y-15405600D01*
X10882303Y-15301600D02*
X10778303Y-15405600D01*
X10867073Y-15390370D02*
X10867073Y-15316830D01*
X10793533Y-15316830D01*
X10793533Y-15390370D01*
X10867073Y-15390370D01*
X10778303Y-17841600D02*
X10882303Y-17945600D01*
X10882303Y-17841600D02*
X10778303Y-17945600D01*
X10867073Y-17930370D02*
X10867073Y-17856830D01*
X10793533Y-17856830D01*
X10793533Y-17930370D01*
X10867073Y-17930370D01*
X11032303Y-15301600D02*
X11136303Y-15405600D01*
X11136303Y-15301600D02*
X11032303Y-15405600D01*
X11121073Y-15390370D02*
X11121073Y-15316830D01*
X11047533Y-15316830D01*
X11047533Y-15390370D01*
X11121073Y-15390370D01*
X11032303Y-17841600D02*
X11136303Y-17945600D01*
X11136303Y-17841600D02*
X11032303Y-17945600D01*
X11121073Y-17930370D02*
X11121073Y-17856830D01*
X11047533Y-17856830D01*
X11047533Y-17930370D01*
X11121073Y-17930370D01*
X11286303Y-15301600D02*
X11390303Y-15405600D01*
X11390303Y-15301600D02*
X11286303Y-15405600D01*
X11375072Y-15390370D02*
X11375072Y-15316830D01*
X11301533Y-15316830D01*
X11301533Y-15390370D01*
X11375072Y-15390370D01*
X11286303Y-17841600D02*
X11390303Y-17945600D01*
X11390303Y-17841600D02*
X11286303Y-17945600D01*
X11375072Y-17930370D02*
X11375072Y-17856830D01*
X11301533Y-17856830D01*
X11301533Y-17930370D01*
X11375072Y-17930370D01*
X11540303Y-15301600D02*
X11644303Y-15405600D01*
X11644303Y-15301600D02*
X11540303Y-15405600D01*
X11629072Y-15390370D02*
X11629072Y-15316830D01*
X11555533Y-15316830D01*
X11555533Y-15390370D01*
X11629072Y-15390370D01*
X11540303Y-17841600D02*
X11644303Y-17945600D01*
X11644303Y-17841600D02*
X11540303Y-17945600D01*
X11629072Y-17930370D02*
X11629072Y-17856830D01*
X11555533Y-17856830D01*
X11555533Y-17930370D01*
X11629072Y-17930370D01*
X11794303Y-15301600D02*
X11898303Y-15405600D01*
X11898303Y-15301600D02*
X11794303Y-15405600D01*
X11883072Y-15390370D02*
X11883072Y-15316830D01*
X11809533Y-15316830D01*
X11809533Y-15390370D01*
X11883072Y-15390370D01*
X11794303Y-17841600D02*
X11898303Y-17945600D01*
X11898303Y-17841600D02*
X11794303Y-17945600D01*
X11883072Y-17930370D02*
X11883072Y-17856830D01*
X11809533Y-17856830D01*
X11809533Y-17930370D01*
X11883072Y-17930370D01*
X12048303Y-15301600D02*
X12152303Y-15405600D01*
X12152303Y-15301600D02*
X12048303Y-15405600D01*
X12137072Y-15390370D02*
X12137072Y-15316830D01*
X12063533Y-15316830D01*
X12063533Y-15390370D01*
X12137072Y-15390370D01*
X12048303Y-17841600D02*
X12152303Y-17945600D01*
X12152303Y-17841600D02*
X12048303Y-17945600D01*
X12137072Y-17930370D02*
X12137072Y-17856830D01*
X12063533Y-17856830D01*
X12063533Y-17930370D01*
X12137072Y-17930370D01*
X12302303Y-15301600D02*
X12406303Y-15405600D01*
X12406303Y-15301600D02*
X12302303Y-15405600D01*
X12391072Y-15390370D02*
X12391072Y-15316830D01*
X12317533Y-15316830D01*
X12317533Y-15390370D01*
X12391072Y-15390370D01*
X12302303Y-17841600D02*
X12406303Y-17945600D01*
X12406303Y-17841600D02*
X12302303Y-17945600D01*
X12391072Y-17930370D02*
X12391072Y-17856830D01*
X12317533Y-17856830D01*
X12317533Y-17930370D01*
X12391072Y-17930370D01*
D19*
X7539600Y-5469500D02*
X7649600Y-5579500D01*
X7649600Y-5469500D02*
X7539600Y-5579500D01*
X7594600Y-5579500D02*
X7649600Y-5524500D01*
X7594600Y-5469500D01*
X7539600Y-5524500D01*
X7594600Y-5579500D01*
X7539600Y-6485500D02*
X7649600Y-6595500D01*
X7649600Y-6485500D02*
X7539600Y-6595500D01*
X7594600Y-6595500D02*
X7649600Y-6540500D01*
X7594600Y-6485500D01*
X7539600Y-6540500D01*
X7594600Y-6595500D01*
X8962000Y-11019400D02*
X9072000Y-11129400D01*
X9072000Y-11019400D02*
X8962000Y-11129400D01*
X9017000Y-11129400D02*
X9072000Y-11074400D01*
X9017000Y-11019400D01*
X8962000Y-11074400D01*
X9017000Y-11129400D01*
X8997300Y-4923200D02*
X9107300Y-5033200D01*
X9107300Y-4923200D02*
X8997300Y-5033200D01*
X9052300Y-5033200D02*
X9107300Y-4978200D01*
X9052300Y-4923200D01*
X8997300Y-4978200D01*
X9052300Y-5033200D01*
X9978000Y-11019400D02*
X10088000Y-11129400D01*
X10088000Y-11019400D02*
X9978000Y-11129400D01*
X10033000Y-11129400D02*
X10088000Y-11074400D01*
X10033000Y-11019400D01*
X9978000Y-11074400D01*
X10033000Y-11129400D01*
X10017300Y-4923200D02*
X10127300Y-5033200D01*
X10127300Y-4923200D02*
X10017300Y-5033200D01*
X10072300Y-5033200D02*
X10127300Y-4978200D01*
X10072300Y-4923200D01*
X10017300Y-4978200D01*
X10072300Y-5033200D01*
X13216700Y-11257900D02*
X13326700Y-11367900D01*
X13326700Y-11257900D02*
X13216700Y-11367900D01*
X13271700Y-11367900D02*
X13326700Y-11312900D01*
X13271700Y-11257900D01*
X13216700Y-11312900D01*
X13271700Y-11367900D01*
X13216700Y-12277900D02*
X13326700Y-12387900D01*
X13326700Y-12277900D02*
X13216700Y-12387900D01*
X13271700Y-12387900D02*
X13326700Y-12332900D01*
X13271700Y-12277900D01*
X13216700Y-12332900D01*
X13271700Y-12387900D01*
D20*
X5948303Y-7953000D02*
X5948303Y-8073000D01*
X5888303Y-8013000D02*
X6008303Y-8013000D01*
X6008303Y-8013000D02*
G75*
G03*
X6008303Y-8013000I-60000J0D01*
G01*
X5948303Y-9527800D02*
X5948303Y-9647800D01*
X5888303Y-9587800D02*
X6008303Y-9587800D01*
X6008303Y-9587800D02*
G75*
G03*
X6008303Y-9587800I-60000J0D01*
G01*
X10520303Y-7953000D02*
X10520303Y-8073000D01*
X10460303Y-8013000D02*
X10580303Y-8013000D01*
X10580303Y-8013000D02*
G75*
G03*
X10580303Y-8013000I-60000J0D01*
G01*
X10520303Y-9527800D02*
X10520303Y-9647800D01*
X10460303Y-9587800D02*
X10580303Y-9587800D01*
X10580303Y-9587800D02*
G75*
G03*
X10580303Y-9587800I-60000J0D01*
G01*
X16819503Y-13617200D02*
X16819503Y-13737200D01*
X16759503Y-13677200D02*
X16879503Y-13677200D01*
X16879503Y-13677200D02*
G75*
G03*
X16879503Y-13677200I-60000J0D01*
G01*
X16819503Y-18189200D02*
X16819503Y-18309200D01*
X16759503Y-18249200D02*
X16879503Y-18249200D01*
X16879503Y-18249200D02*
G75*
G03*
X16879503Y-18249200I-60000J0D01*
G01*
X17388303Y-4954000D02*
X17388303Y-5074000D01*
X17328303Y-5014000D02*
X17448303Y-5014000D01*
X17448303Y-5014000D02*
G75*
G03*
X17448303Y-5014000I-60000J0D01*
G01*
X17388303Y-9526000D02*
X17388303Y-9646000D01*
X17328303Y-9586000D02*
X17448303Y-9586000D01*
X17448303Y-9586000D02*
G75*
G03*
X17448303Y-9586000I-60000J0D01*
G01*
X18394303Y-13617200D02*
X18394303Y-13737200D01*
X18334303Y-13677200D02*
X18454303Y-13677200D01*
X18454303Y-13677200D02*
G75*
G03*
X18454303Y-13677200I-60000J0D01*
G01*
X18394303Y-18189200D02*
X18394303Y-18309200D01*
X18334303Y-18249200D02*
X18454303Y-18249200D01*
X18454303Y-18249200D02*
G75*
G03*
X18454303Y-18249200I-60000J0D01*
G01*
X18963103Y-4954000D02*
X18963103Y-5074000D01*
X18903103Y-5014000D02*
X19023103Y-5014000D01*
X19023103Y-5014000D02*
G75*
G03*
X19023103Y-5014000I-60000J0D01*
G01*
X18963103Y-9526000D02*
X18963103Y-9646000D01*
X18903103Y-9586000D02*
X19023103Y-9586000D01*
X19023103Y-9586000D02*
G75*
G03*
X19023103Y-9586000I-60000J0D01*
G01*
X19918303Y-13617200D02*
X19918303Y-13737200D01*
X19858303Y-13677200D02*
X19978303Y-13677200D01*
X19978303Y-13677200D02*
G75*
G03*
X19978303Y-13677200I-60000J0D01*
G01*
X19918303Y-18189200D02*
X19918303Y-18309200D01*
X19858303Y-18249200D02*
X19978303Y-18249200D01*
X19978303Y-18249200D02*
G75*
G03*
X19978303Y-18249200I-60000J0D01*
G01*
X20165369Y-4954000D02*
X20165369Y-5074000D01*
X20105369Y-5014000D02*
X20225369Y-5014000D01*
X20225369Y-5014000D02*
G75*
G03*
X20225369Y-5014000I-60000J0D01*
G01*
X20165369Y-9526000D02*
X20165369Y-9646000D01*
X20105369Y-9586000D02*
X20225369Y-9586000D01*
X20225369Y-9586000D02*
G75*
G03*
X20225369Y-9586000I-60000J0D01*
G01*
X21493103Y-13617200D02*
X21493103Y-13737200D01*
X21433103Y-13677200D02*
X21553103Y-13677200D01*
X21553103Y-13677200D02*
G75*
G03*
X21553103Y-13677200I-60000J0D01*
G01*
X21493103Y-18189200D02*
X21493103Y-18309200D01*
X21433103Y-18249200D02*
X21553103Y-18249200D01*
X21553103Y-18249200D02*
G75*
G03*
X21553103Y-18249200I-60000J0D01*
G01*
X21740169Y-4954000D02*
X21740169Y-5074000D01*
X21680169Y-5014000D02*
X21800169Y-5014000D01*
X21800169Y-5014000D02*
G75*
G03*
X21800169Y-5014000I-60000J0D01*
G01*
X21740169Y-9526000D02*
X21740169Y-9646000D01*
X21680169Y-9586000D02*
X21800169Y-9586000D01*
X21800169Y-9586000D02*
G75*
G03*
X21800169Y-9586000I-60000J0D01*
G01*
X22948303Y-4964000D02*
X22948303Y-5084000D01*
X22888303Y-5024000D02*
X23008303Y-5024000D01*
X23008303Y-5024000D02*
G75*
G03*
X23008303Y-5024000I-60000J0D01*
G01*
X22948303Y-9536000D02*
X22948303Y-9656000D01*
X22888303Y-9596000D02*
X23008303Y-9596000D01*
X23008303Y-9596000D02*
G75*
G03*
X23008303Y-9596000I-60000J0D01*
G01*
X24523103Y-4964000D02*
X24523103Y-5084000D01*
X24463103Y-5024000D02*
X24583103Y-5024000D01*
X24583103Y-5024000D02*
G75*
G03*
X24583103Y-5024000I-60000J0D01*
G01*
X24523103Y-9536000D02*
X24523103Y-9656000D01*
X24463103Y-9596000D02*
X24583103Y-9596000D01*
X24583103Y-9596000D02*
G75*
G03*
X24583103Y-9596000I-60000J0D01*
G01*
X25719503Y-4954000D02*
X25719503Y-5074000D01*
X25659503Y-5014000D02*
X25779503Y-5014000D01*
X25779503Y-5014000D02*
G75*
G03*
X25779503Y-5014000I-60000J0D01*
G01*
X25719503Y-9526000D02*
X25719503Y-9646000D01*
X25659503Y-9586000D02*
X25779503Y-9586000D01*
X25779503Y-9586000D02*
G75*
G03*
X25779503Y-9586000I-60000J0D01*
G01*
X27294303Y-4954000D02*
X27294303Y-5074000D01*
X27234303Y-5014000D02*
X27354303Y-5014000D01*
X27354303Y-5014000D02*
G75*
G03*
X27354303Y-5014000I-60000J0D01*
G01*
X27294303Y-9526000D02*
X27294303Y-9646000D01*
X27234303Y-9586000D02*
X27354303Y-9586000D01*
X27354303Y-9586000D02*
G75*
G03*
X27354303Y-9586000I-60000J0D01*
G01*
X28969703Y-7152600D02*
X28969703Y-7272600D01*
X28909703Y-7212600D02*
X29029703Y-7212600D01*
X29029703Y-7212600D02*
G75*
G03*
X29029703Y-7212600I-60000J0D01*
G01*
X28969703Y-8727400D02*
X28969703Y-8847400D01*
X28909703Y-8787400D02*
X29029703Y-8787400D01*
X29029703Y-8787400D02*
G75*
G03*
X29029703Y-8787400I-60000J0D01*
G01*
X28969703Y-9879400D02*
X28969703Y-9999400D01*
X28909703Y-9939400D02*
X29029703Y-9939400D01*
X29029703Y-9939400D02*
G75*
G03*
X29029703Y-9939400I-60000J0D01*
G01*
X28969703Y-11454200D02*
X28969703Y-11574200D01*
X28909703Y-11514200D02*
X29029703Y-11514200D01*
X29029703Y-11514200D02*
G75*
G03*
X29029703Y-11514200I-60000J0D01*
G01*
X28969703Y-12622600D02*
X28969703Y-12742600D01*
X28909703Y-12682600D02*
X29029703Y-12682600D01*
X29029703Y-12682600D02*
G75*
G03*
X29029703Y-12682600I-60000J0D01*
G01*
X28969703Y-14197400D02*
X28969703Y-14317400D01*
X28909703Y-14257400D02*
X29029703Y-14257400D01*
X29029703Y-14257400D02*
G75*
G03*
X29029703Y-14257400I-60000J0D01*
G01*
X28969703Y-15365800D02*
X28969703Y-15485800D01*
X28909703Y-15425800D02*
X29029703Y-15425800D01*
X29029703Y-15425800D02*
G75*
G03*
X29029703Y-15425800I-60000J0D01*
G01*
X28969703Y-16940600D02*
X28969703Y-17060600D01*
X28909703Y-17000600D02*
X29029703Y-17000600D01*
X29029703Y-17000600D02*
G75*
G03*
X29029703Y-17000600I-60000J0D01*
G01*
X33541703Y-7152600D02*
X33541703Y-7272600D01*
X33481703Y-7212600D02*
X33601703Y-7212600D01*
X33601703Y-7212600D02*
G75*
G03*
X33601703Y-7212600I-60000J0D01*
G01*
X33541703Y-8727400D02*
X33541703Y-8847400D01*
X33481703Y-8787400D02*
X33601703Y-8787400D01*
X33601703Y-8787400D02*
G75*
G03*
X33601703Y-8787400I-60000J0D01*
G01*
X33541703Y-9879400D02*
X33541703Y-9999400D01*
X33481703Y-9939400D02*
X33601703Y-9939400D01*
X33601703Y-9939400D02*
G75*
G03*
X33601703Y-9939400I-60000J0D01*
G01*
X33541703Y-11454200D02*
X33541703Y-11574200D01*
X33481703Y-11514200D02*
X33601703Y-11514200D01*
X33601703Y-11514200D02*
G75*
G03*
X33601703Y-11514200I-60000J0D01*
G01*
X33541703Y-12622600D02*
X33541703Y-12742600D01*
X33481703Y-12682600D02*
X33601703Y-12682600D01*
X33601703Y-12682600D02*
G75*
G03*
X33601703Y-12682600I-60000J0D01*
G01*
X33541703Y-14197400D02*
X33541703Y-14317400D01*
X33481703Y-14257400D02*
X33601703Y-14257400D01*
X33601703Y-14257400D02*
G75*
G03*
X33601703Y-14257400I-60000J0D01*
G01*
X33541703Y-15365800D02*
X33541703Y-15485800D01*
X33481703Y-15425800D02*
X33601703Y-15425800D01*
X33601703Y-15425800D02*
G75*
G03*
X33601703Y-15425800I-60000J0D01*
G01*
X33541703Y-16940600D02*
X33541703Y-17060600D01*
X33481703Y-17000600D02*
X33601703Y-17000600D01*
X33601703Y-17000600D02*
G75*
G03*
X33601703Y-17000600I-60000J0D01*
G01*
D21*
X5364722Y-21254942D02*
X5364722Y-21163018D01*
X5272798Y-21163018D01*
X5272798Y-21254942D01*
X5364722Y-21254942D01*
X5383760Y-21208980D02*
G75*
G03*
X5383760Y-21208980I-65000J0D01*
G01*
X5644142Y-13025362D02*
X5644142Y-12933438D01*
X5552218Y-12933438D01*
X5552218Y-13025362D01*
X5644142Y-13025362D01*
X5663180Y-12979400D02*
G75*
G03*
X5663180Y-12979400I-65000J0D01*
G01*
X5644142Y-13533362D02*
X5644142Y-13441438D01*
X5552218Y-13441438D01*
X5552218Y-13533362D01*
X5644142Y-13533362D01*
X5663180Y-13487400D02*
G75*
G03*
X5663180Y-13487400I-65000J0D01*
G01*
X5644142Y-14041362D02*
X5644142Y-13949438D01*
X5552218Y-13949438D01*
X5552218Y-14041362D01*
X5644142Y-14041362D01*
X5663180Y-13995400D02*
G75*
G03*
X5663180Y-13995400I-65000J0D01*
G01*
X5644142Y-14549362D02*
X5644142Y-14457438D01*
X5552218Y-14457438D01*
X5552218Y-14549362D01*
X5644142Y-14549362D01*
X5663180Y-14503400D02*
G75*
G03*
X5663180Y-14503400I-65000J0D01*
G01*
X5644142Y-15057362D02*
X5644142Y-14965438D01*
X5552218Y-14965438D01*
X5552218Y-15057362D01*
X5644142Y-15057362D01*
X5663180Y-15011400D02*
G75*
G03*
X5663180Y-15011400I-65000J0D01*
G01*
X5644142Y-15565362D02*
X5644142Y-15473438D01*
X5552218Y-15473438D01*
X5552218Y-15565362D01*
X5644142Y-15565362D01*
X5663180Y-15519400D02*
G75*
G03*
X5663180Y-15519400I-65000J0D01*
G01*
X5644142Y-16073362D02*
X5644142Y-15981438D01*
X5552218Y-15981438D01*
X5552218Y-16073362D01*
X5644142Y-16073362D01*
X5663180Y-16027400D02*
G75*
G03*
X5663180Y-16027400I-65000J0D01*
G01*
X5644142Y-16581362D02*
X5644142Y-16489438D01*
X5552218Y-16489438D01*
X5552218Y-16581362D01*
X5644142Y-16581362D01*
X5663180Y-16535400D02*
G75*
G03*
X5663180Y-16535400I-65000J0D01*
G01*
X5644142Y-17089362D02*
X5644142Y-16997438D01*
X5552218Y-16997438D01*
X5552218Y-17089362D01*
X5644142Y-17089362D01*
X5663180Y-17043400D02*
G75*
G03*
X5663180Y-17043400I-65000J0D01*
G01*
X5644142Y-17597362D02*
X5644142Y-17505438D01*
X5552218Y-17505438D01*
X5552218Y-17597362D01*
X5644142Y-17597362D01*
X5663180Y-17551400D02*
G75*
G03*
X5663180Y-17551400I-65000J0D01*
G01*
X5872722Y-21254942D02*
X5872722Y-21163018D01*
X5780798Y-21163018D01*
X5780798Y-21254942D01*
X5872722Y-21254942D01*
X5891760Y-21208980D02*
G75*
G03*
X5891760Y-21208980I-65000J0D01*
G01*
X6380722Y-21254942D02*
X6380722Y-21163018D01*
X6288798Y-21163018D01*
X6288798Y-21254942D01*
X6380722Y-21254942D01*
X6399760Y-21208980D02*
G75*
G03*
X6399760Y-21208980I-65000J0D01*
G01*
X6888722Y-21254942D02*
X6888722Y-21163018D01*
X6796798Y-21163018D01*
X6796798Y-21254942D01*
X6888722Y-21254942D01*
X6907760Y-21208980D02*
G75*
G03*
X6907760Y-21208980I-65000J0D01*
G01*
X7396722Y-21254942D02*
X7396722Y-21163018D01*
X7304798Y-21163018D01*
X7304798Y-21254942D01*
X7396722Y-21254942D01*
X7415760Y-21208980D02*
G75*
G03*
X7415760Y-21208980I-65000J0D01*
G01*
X7637165Y-4719582D02*
X7637165Y-4627658D01*
X7545240Y-4627658D01*
X7545240Y-4719582D01*
X7637165Y-4719582D01*
X7656203Y-4673620D02*
G75*
G03*
X7656203Y-4673620I-65000J0D01*
G01*
X7904722Y-21254942D02*
X7904722Y-21163018D01*
X7812798Y-21163018D01*
X7812798Y-21254942D01*
X7904722Y-21254942D01*
X7923760Y-21208980D02*
G75*
G03*
X7923760Y-21208980I-65000J0D01*
G01*
X8145165Y-4719582D02*
X8145165Y-4627658D01*
X8053240Y-4627658D01*
X8053240Y-4719582D01*
X8145165Y-4719582D01*
X8164203Y-4673620D02*
G75*
G03*
X8164203Y-4673620I-65000J0D01*
G01*
X8412722Y-21254942D02*
X8412722Y-21163018D01*
X8320798Y-21163018D01*
X8320798Y-21254942D01*
X8412722Y-21254942D01*
X8431760Y-21208980D02*
G75*
G03*
X8431760Y-21208980I-65000J0D01*
G01*
X8920722Y-21254942D02*
X8920722Y-21163018D01*
X8828798Y-21163018D01*
X8828798Y-21254942D01*
X8920722Y-21254942D01*
X8939760Y-21208980D02*
G75*
G03*
X8939760Y-21208980I-65000J0D01*
G01*
X9428722Y-21254942D02*
X9428722Y-21163018D01*
X9336798Y-21163018D01*
X9336798Y-21254942D01*
X9428722Y-21254942D01*
X9447760Y-21208980D02*
G75*
G03*
X9447760Y-21208980I-65000J0D01*
G01*
X9936722Y-21254942D02*
X9936722Y-21163018D01*
X9844798Y-21163018D01*
X9844798Y-21254942D01*
X9936722Y-21254942D01*
X9955760Y-21208980D02*
G75*
G03*
X9955760Y-21208980I-65000J0D01*
G01*
X10860015Y-21211062D02*
X10860015Y-21119138D01*
X10768090Y-21119138D01*
X10768090Y-21211062D01*
X10860015Y-21211062D01*
X10879053Y-21165100D02*
G75*
G03*
X10879053Y-21165100I-65000J0D01*
G01*
X11368015Y-21211062D02*
X11368015Y-21119138D01*
X11276090Y-21119138D01*
X11276090Y-21211062D01*
X11368015Y-21211062D01*
X11387053Y-21165100D02*
G75*
G03*
X11387053Y-21165100I-65000J0D01*
G01*
X11876015Y-21211062D02*
X11876015Y-21119138D01*
X11784090Y-21119138D01*
X11784090Y-21211062D01*
X11876015Y-21211062D01*
X11895053Y-21165100D02*
G75*
G03*
X11895053Y-21165100I-65000J0D01*
G01*
X12384015Y-21211062D02*
X12384015Y-21119138D01*
X12292090Y-21119138D01*
X12292090Y-21211062D01*
X12384015Y-21211062D01*
X12403053Y-21165100D02*
G75*
G03*
X12403053Y-21165100I-65000J0D01*
G01*
X12892015Y-21211062D02*
X12892015Y-21119138D01*
X12800090Y-21119138D01*
X12800090Y-21211062D01*
X12892015Y-21211062D01*
X12911053Y-21165100D02*
G75*
G03*
X12911053Y-21165100I-65000J0D01*
G01*
X13400015Y-21211062D02*
X13400015Y-21119138D01*
X13308090Y-21119138D01*
X13308090Y-21211062D01*
X13400015Y-21211062D01*
X13419053Y-21165100D02*
G75*
G03*
X13419053Y-21165100I-65000J0D01*
G01*
X13908015Y-21211062D02*
X13908015Y-21119138D01*
X13816090Y-21119138D01*
X13816090Y-21211062D01*
X13908015Y-21211062D01*
X13927053Y-21165100D02*
G75*
G03*
X13927053Y-21165100I-65000J0D01*
G01*
X14416015Y-21211062D02*
X14416015Y-21119138D01*
X14324090Y-21119138D01*
X14324090Y-21211062D01*
X14416015Y-21211062D01*
X14435053Y-21165100D02*
G75*
G03*
X14435053Y-21165100I-65000J0D01*
G01*
X14924015Y-21211062D02*
X14924015Y-21119138D01*
X14832090Y-21119138D01*
X14832090Y-21211062D01*
X14924015Y-21211062D01*
X14943053Y-21165100D02*
G75*
G03*
X14943053Y-21165100I-65000J0D01*
G01*
X15432015Y-21211062D02*
X15432015Y-21119138D01*
X15340090Y-21119138D01*
X15340090Y-21211062D01*
X15432015Y-21211062D01*
X15451053Y-21165100D02*
G75*
G03*
X15451053Y-21165100I-65000J0D01*
G01*
X16665565Y-21272062D02*
X16665565Y-21180138D01*
X16573640Y-21180138D01*
X16573640Y-21272062D01*
X16665565Y-21272062D01*
X16684603Y-21226100D02*
G75*
G03*
X16684603Y-21226100I-65000J0D01*
G01*
X17173565Y-21272062D02*
X17173565Y-21180138D01*
X17081640Y-21180138D01*
X17081640Y-21272062D01*
X17173565Y-21272062D01*
X17192603Y-21226100D02*
G75*
G03*
X17192603Y-21226100I-65000J0D01*
G01*
X17681565Y-21272062D02*
X17681565Y-21180138D01*
X17589640Y-21180138D01*
X17589640Y-21272062D01*
X17681565Y-21272062D01*
X17700603Y-21226100D02*
G75*
G03*
X17700603Y-21226100I-65000J0D01*
G01*
X18189565Y-21272062D02*
X18189565Y-21180138D01*
X18097640Y-21180138D01*
X18097640Y-21272062D01*
X18189565Y-21272062D01*
X18208603Y-21226100D02*
G75*
G03*
X18208603Y-21226100I-65000J0D01*
G01*
X18697565Y-21272062D02*
X18697565Y-21180138D01*
X18605640Y-21180138D01*
X18605640Y-21272062D01*
X18697565Y-21272062D01*
X18716603Y-21226100D02*
G75*
G03*
X18716603Y-21226100I-65000J0D01*
G01*
X19931115Y-21272062D02*
X19931115Y-21180138D01*
X19839190Y-21180138D01*
X19839190Y-21272062D01*
X19931115Y-21272062D01*
X19950153Y-21226100D02*
G75*
G03*
X19950153Y-21226100I-65000J0D01*
G01*
X20439115Y-21272062D02*
X20439115Y-21180138D01*
X20347190Y-21180138D01*
X20347190Y-21272062D01*
X20439115Y-21272062D01*
X20458153Y-21226100D02*
G75*
G03*
X20458153Y-21226100I-65000J0D01*
G01*
X20947115Y-21272062D02*
X20947115Y-21180138D01*
X20855190Y-21180138D01*
X20855190Y-21272062D01*
X20947115Y-21272062D01*
X20966153Y-21226100D02*
G75*
G03*
X20966153Y-21226100I-65000J0D01*
G01*
X21455115Y-21272062D02*
X21455115Y-21180138D01*
X21363190Y-21180138D01*
X21363190Y-21272062D01*
X21455115Y-21272062D01*
X21474153Y-21226100D02*
G75*
G03*
X21474153Y-21226100I-65000J0D01*
G01*
X21963115Y-21272062D02*
X21963115Y-21180138D01*
X21871190Y-21180138D01*
X21871190Y-21272062D01*
X21963115Y-21272062D01*
X21982153Y-21226100D02*
G75*
G03*
X21982153Y-21226100I-65000J0D01*
G01*
X23192665Y-21191562D02*
X23192665Y-21099638D01*
X23100740Y-21099638D01*
X23100740Y-21191562D01*
X23192665Y-21191562D01*
X23211703Y-21145600D02*
G75*
G03*
X23211703Y-21145600I-65000J0D01*
G01*
X23692665Y-21191562D02*
X23692665Y-21099638D01*
X23600740Y-21099638D01*
X23600740Y-21191562D01*
X23692665Y-21191562D01*
X23711703Y-21145600D02*
G75*
G03*
X23711703Y-21145600I-65000J0D01*
G01*
X24192665Y-21191562D02*
X24192665Y-21099638D01*
X24100740Y-21099638D01*
X24100740Y-21191562D01*
X24192665Y-21191562D01*
X24211703Y-21145600D02*
G75*
G03*
X24211703Y-21145600I-65000J0D01*
G01*
X24692665Y-21191562D02*
X24692665Y-21099638D01*
X24600740Y-21099638D01*
X24600740Y-21191562D01*
X24692665Y-21191562D01*
X24711703Y-21145600D02*
G75*
G03*
X24711703Y-21145600I-65000J0D01*
G01*
X25192665Y-21191562D02*
X25192665Y-21099638D01*
X25100740Y-21099638D01*
X25100740Y-21191562D01*
X25192665Y-21191562D01*
X25211703Y-21145600D02*
G75*
G03*
X25211703Y-21145600I-65000J0D01*
G01*
X25692665Y-21191562D02*
X25692665Y-21099638D01*
X25600740Y-21099638D01*
X25600740Y-21191562D01*
X25692665Y-21191562D01*
X25711703Y-21145600D02*
G75*
G03*
X25711703Y-21145600I-65000J0D01*
G01*
X26192665Y-21191562D02*
X26192665Y-21099638D01*
X26100740Y-21099638D01*
X26100740Y-21191562D01*
X26192665Y-21191562D01*
X26211703Y-21145600D02*
G75*
G03*
X26211703Y-21145600I-65000J0D01*
G01*
X26692665Y-21191562D02*
X26692665Y-21099638D01*
X26600740Y-21099638D01*
X26600740Y-21191562D01*
X26692665Y-21191562D01*
X26711703Y-21145600D02*
G75*
G03*
X26711703Y-21145600I-65000J0D01*
G01*
D22*
X11205703Y-4405000D02*
X11280703Y-4330000D01*
X11205703Y-4255000D01*
X11130703Y-4330000D01*
X11205703Y-4405000D01*
X11280703Y-4330000D02*
G75*
G03*
X11280703Y-4330000I-75000J0D01*
G01*
X12025703Y-4405000D02*
X12100703Y-4330000D01*
X12025703Y-4255000D01*
X11950703Y-4330000D01*
X12025703Y-4405000D01*
X12100703Y-4330000D02*
G75*
G03*
X12100703Y-4330000I-75000J0D01*
G01*
D23*
X8672300Y-6418200D02*
X8672300Y-6578200D01*
X8592300Y-6498200D02*
X8752300Y-6498200D01*
X8728869Y-6554769D02*
X8728869Y-6441631D01*
X8615731Y-6441631D01*
X8615731Y-6554769D01*
X8728869Y-6554769D01*
X8672300Y-7178200D02*
X8672300Y-7338200D01*
X8592300Y-7258200D02*
X8752300Y-7258200D01*
X8728869Y-7314769D02*
X8728869Y-7201631D01*
X8615731Y-7201631D01*
X8615731Y-7314769D01*
X8728869Y-7314769D01*
X10452300Y-6164200D02*
X10452300Y-6324200D01*
X10372300Y-6244200D02*
X10532300Y-6244200D01*
X10508869Y-6300769D02*
X10508869Y-6187631D01*
X10395731Y-6187631D01*
X10395731Y-6300769D01*
X10508869Y-6300769D01*
X10991700Y-10852900D02*
X10991700Y-11012900D01*
X10911700Y-10932900D02*
X11071700Y-10932900D01*
X11048269Y-10989469D02*
X11048269Y-10876331D01*
X10935131Y-10876331D01*
X10935131Y-10989469D01*
X11048269Y-10989469D01*
X11751700Y-10852900D02*
X11751700Y-11012900D01*
X11671700Y-10932900D02*
X11831700Y-10932900D01*
X11808269Y-10989469D02*
X11808269Y-10876331D01*
X11695131Y-10876331D01*
X11695131Y-10989469D01*
X11808269Y-10989469D01*
X12005700Y-12632900D02*
X12005700Y-12792900D01*
X11925700Y-12712900D02*
X12085700Y-12712900D01*
X12062269Y-12769469D02*
X12062269Y-12656331D01*
X11949131Y-12656331D01*
X11949131Y-12769469D01*
X12062269Y-12769469D01*
D24*
X5943600Y-5696900D02*
X5943600Y-5876900D01*
X5853600Y-5786900D02*
X6033600Y-5786900D01*
X5943600Y-5876900D02*
X6033600Y-5786900D01*
X5943600Y-5696900D01*
X5853600Y-5786900D01*
X5943600Y-5876900D01*
X5943600Y-6246900D02*
X5943600Y-6426900D01*
X5853600Y-6336900D02*
X6033600Y-6336900D01*
X5943600Y-6426900D02*
X6033600Y-6336900D01*
X5943600Y-6246900D01*
X5853600Y-6336900D01*
X5943600Y-6426900D01*
D11*
X12402200Y-10065040D02*
X12502200Y-9965040D01*
X12402200Y-9865040D01*
X12302200Y-9965040D01*
X12402200Y-10065040D01*
X12472911Y-10035751D02*
X12472911Y-9894329D01*
X12331489Y-9894329D01*
X12331489Y-10035751D01*
X12472911Y-10035751D01*
X12415400Y-7158000D02*
X12515400Y-7058000D01*
X12415400Y-6958000D01*
X12315400Y-7058000D01*
X12415400Y-7158000D01*
X12486111Y-7128711D02*
X12486111Y-6987289D01*
X12344689Y-6987289D01*
X12344689Y-7128711D01*
X12486111Y-7128711D01*
X12572000Y-19281000D02*
X12672000Y-19181000D01*
X12572000Y-19081000D01*
X12472000Y-19181000D01*
X12572000Y-19281000D01*
X12642711Y-19251711D02*
X12642711Y-19110289D01*
X12501289Y-19110289D01*
X12501289Y-19251711D01*
X12642711Y-19251711D01*
X12862560Y-6150280D02*
X12962560Y-6050280D01*
X12862560Y-5950280D01*
X12762560Y-6050280D01*
X12862560Y-6150280D01*
X12933271Y-6120991D02*
X12933271Y-5979569D01*
X12791849Y-5979569D01*
X12791849Y-6120991D01*
X12933271Y-6120991D01*
X17833340Y-11593500D02*
X17933340Y-11493500D01*
X17833340Y-11393500D01*
X17733340Y-11493500D01*
X17833340Y-11593500D01*
X17904051Y-11564211D02*
X17904051Y-11422789D01*
X17762629Y-11422789D01*
X17762629Y-11564211D01*
X17904051Y-11564211D01*
X20747646Y-11269994D02*
X20847646Y-11169994D01*
X20747646Y-11069994D01*
X20647646Y-11169994D01*
X20747646Y-11269994D01*
X20818357Y-11240705D02*
X20818357Y-11099283D01*
X20676935Y-11099283D01*
X20676935Y-11240705D01*
X20818357Y-11240705D01*
X23549960Y-11288468D02*
X23649960Y-11188468D01*
X23549960Y-11088468D01*
X23449960Y-11188468D01*
X23549960Y-11288468D01*
X23620671Y-11259180D02*
X23620671Y-11117757D01*
X23479249Y-11117757D01*
X23479249Y-11259180D01*
X23620671Y-11259180D01*
X24089360Y-16386480D02*
X24189360Y-16286480D01*
X24089360Y-16186480D01*
X23989360Y-16286480D01*
X24089360Y-16386480D01*
X24160071Y-16357191D02*
X24160071Y-16215769D01*
X24018649Y-16215769D01*
X24018649Y-16357191D01*
X24160071Y-16357191D01*
X26410000Y-11312480D02*
X26510000Y-11212480D01*
X26410000Y-11112480D01*
X26310000Y-11212480D01*
X26410000Y-11312480D01*
X26480711Y-11283191D02*
X26480711Y-11141769D01*
X26339289Y-11141769D01*
X26339289Y-11283191D01*
X26480711Y-11283191D01*
X26553160Y-18906160D02*
X26653160Y-18806160D01*
X26553160Y-18706160D01*
X26453160Y-18806160D01*
X26553160Y-18906160D01*
X26623871Y-18876871D02*
X26623871Y-18735449D01*
X26482449Y-18735449D01*
X26482449Y-18876871D01*
X26623871Y-18876871D01*
X35204400Y-9666284D02*
X35304400Y-9566284D01*
X35204400Y-9466284D01*
X35104400Y-9566284D01*
X35204400Y-9666284D01*
X35275111Y-9636995D02*
X35275111Y-9495572D01*
X35133689Y-9495572D01*
X35133689Y-9636995D01*
X35275111Y-9636995D01*
X35434703Y-6676897D02*
X35534703Y-6576897D01*
X35434703Y-6476897D01*
X35334703Y-6576897D01*
X35434703Y-6676897D01*
X35505414Y-6647609D02*
X35505414Y-6506186D01*
X35363991Y-6506186D01*
X35363991Y-6647609D01*
X35505414Y-6647609D01*
X35585400Y-19282080D02*
X35685400Y-19182080D01*
X35585400Y-19082080D01*
X35485400Y-19182080D01*
X35585400Y-19282080D01*
X35656111Y-19252791D02*
X35656111Y-19111369D01*
X35514689Y-19111369D01*
X35514689Y-19252791D01*
X35656111Y-19252791D01*
X35763200Y-13054000D02*
X35863200Y-12954000D01*
X35763200Y-12854000D01*
X35663200Y-12954000D01*
X35763200Y-13054000D01*
X35833911Y-13024711D02*
X35833911Y-12883289D01*
X35692489Y-12883289D01*
X35692489Y-13024711D01*
X35833911Y-13024711D01*
X6834200Y-7139000D02*
X7034200Y-7339000D01*
X7034200Y-7139000D02*
X6834200Y-7339000D01*
X6934200Y-7139000D02*
X6934200Y-7339000D01*
X6834200Y-7239000D02*
X7034200Y-7239000D01*
X7034200Y-7239000D02*
G75*
G03*
X7034200Y-7239000I-100000J0D01*
G01*
X7987360Y-11746560D02*
X8187360Y-11946560D01*
X8187360Y-11746560D02*
X7987360Y-11946560D01*
X8087360Y-11746560D02*
X8087360Y-11946560D01*
X7987360Y-11846560D02*
X8187360Y-11846560D01*
X8187360Y-11846560D02*
G75*
G03*
X8187360Y-11846560I-100000J0D01*
G01*
X11533200Y-8053400D02*
X11733200Y-8253400D01*
X11733200Y-8053400D02*
X11533200Y-8253400D01*
X11633200Y-8053400D02*
X11633200Y-8253400D01*
X11533200Y-8153400D02*
X11733200Y-8153400D01*
X11733200Y-8153400D02*
G75*
G03*
X11733200Y-8153400I-100000J0D01*
G01*
X13920800Y-18365800D02*
X14120800Y-18565800D01*
X14120800Y-18365800D02*
X13920800Y-18565800D01*
X14020800Y-18365800D02*
X14020800Y-18565800D01*
X13920800Y-18465800D02*
X14120800Y-18465800D01*
X14120800Y-18465800D02*
G75*
G03*
X14120800Y-18465800I-100000J0D01*
G01*
X17720640Y-10268280D02*
X17920640Y-10468280D01*
X17920640Y-10268280D02*
X17720640Y-10468280D01*
X17820640Y-10268280D02*
X17820640Y-10468280D01*
X17720640Y-10368280D02*
X17920640Y-10368280D01*
X17920640Y-10368280D02*
G75*
G03*
X17920640Y-10368280I-100000J0D01*
G01*
X19442760Y-19224320D02*
X19642760Y-19424320D01*
X19642760Y-19224320D02*
X19442760Y-19424320D01*
X19542760Y-19224320D02*
X19542760Y-19424320D01*
X19442760Y-19324320D02*
X19642760Y-19324320D01*
X19642760Y-19324320D02*
G75*
G03*
X19642760Y-19324320I-100000J0D01*
G01*
X20834680Y-10075240D02*
X21034680Y-10275240D01*
X21034680Y-10075240D02*
X20834680Y-10275240D01*
X20934680Y-10075240D02*
X20934680Y-10275240D01*
X20834680Y-10175240D02*
X21034680Y-10175240D01*
X21034680Y-10175240D02*
G75*
G03*
X21034680Y-10175240I-100000J0D01*
G01*
X22597440Y-14957120D02*
X22797440Y-15157120D01*
X22797440Y-14957120D02*
X22597440Y-15157120D01*
X22697440Y-14957120D02*
X22697440Y-15157120D01*
X22597440Y-15057120D02*
X22797440Y-15057120D01*
X22797440Y-15057120D02*
G75*
G03*
X22797440Y-15057120I-100000J0D01*
G01*
X23598200Y-10080320D02*
X23798200Y-10280320D01*
X23798200Y-10080320D02*
X23598200Y-10280320D01*
X23698200Y-10080320D02*
X23698200Y-10280320D01*
X23598200Y-10180320D02*
X23798200Y-10180320D01*
X23798200Y-10180320D02*
G75*
G03*
X23798200Y-10180320I-100000J0D01*
G01*
X25990880Y-10110800D02*
X26190880Y-10310800D01*
X26190880Y-10110800D02*
X25990880Y-10310800D01*
X26090880Y-10110800D02*
X26090880Y-10310800D01*
X25990880Y-10210800D02*
X26190880Y-10210800D01*
X26190880Y-10210800D02*
G75*
G03*
X26190880Y-10210800I-100000J0D01*
G01*
X27199920Y-16877360D02*
X27399920Y-17077360D01*
X27399920Y-16877360D02*
X27199920Y-17077360D01*
X27299920Y-16877360D02*
X27299920Y-17077360D01*
X27199920Y-16977360D02*
X27399920Y-16977360D01*
X27399920Y-16977360D02*
G75*
G03*
X27399920Y-16977360I-100000J0D01*
G01*
X34546503Y-9370600D02*
X34746503Y-9570600D01*
X34746503Y-9370600D02*
X34546503Y-9570600D01*
X34646503Y-9370600D02*
X34646503Y-9570600D01*
X34546503Y-9470600D02*
X34746503Y-9470600D01*
X34746503Y-9470600D02*
G75*
G03*
X34746503Y-9470600I-100000J0D01*
G01*
X34662440Y-17100880D02*
X34862440Y-17300880D01*
X34862440Y-17100880D02*
X34662440Y-17300880D01*
X34762440Y-17100880D02*
X34762440Y-17300880D01*
X34662440Y-17200880D02*
X34862440Y-17200880D01*
X34862440Y-17200880D02*
G75*
G03*
X34862440Y-17200880I-100000J0D01*
G01*
X35200920Y-12798120D02*
X35400920Y-12998120D01*
X35400920Y-12798120D02*
X35200920Y-12998120D01*
X35300920Y-12798120D02*
X35300920Y-12998120D01*
X35200920Y-12898120D02*
X35400920Y-12898120D01*
X35400920Y-12898120D02*
G75*
G03*
X35400920Y-12898120I-100000J0D01*
G01*
X35896880Y-7616520D02*
X36096880Y-7816520D01*
X36096880Y-7616520D02*
X35896880Y-7816520D01*
X35996880Y-7616520D02*
X35996880Y-7816520D01*
X35896880Y-7716520D02*
X36096880Y-7716520D01*
X36096880Y-7716520D02*
G75*
G03*
X36096880Y-7716520I-100000J0D01*
G01*
D25*
X28163303Y-20408400D02*
X28393303Y-20638400D01*
X28393303Y-20408400D02*
X28163303Y-20638400D01*
X28359621Y-20604718D02*
X28359621Y-20442082D01*
X28196984Y-20442082D01*
X28196984Y-20604718D01*
X28359621Y-20604718D01*
X28393303Y-20523400D02*
G75*
G03*
X28393303Y-20523400I-115000J0D01*
G01*
X28163303Y-20976400D02*
X28393303Y-21206400D01*
X28393303Y-20976400D02*
X28163303Y-21206400D01*
X28359621Y-21172718D02*
X28359621Y-21010082D01*
X28196984Y-21010082D01*
X28196984Y-21172718D01*
X28359621Y-21172718D01*
X28393303Y-21091400D02*
G75*
G03*
X28393303Y-21091400I-115000J0D01*
G01*
X29477303Y-20408400D02*
X29707303Y-20638400D01*
X29707303Y-20408400D02*
X29477303Y-20638400D01*
X29673621Y-20604718D02*
X29673621Y-20442082D01*
X29510984Y-20442082D01*
X29510984Y-20604718D01*
X29673621Y-20604718D01*
X29707303Y-20523400D02*
G75*
G03*
X29707303Y-20523400I-115000J0D01*
G01*
X29477303Y-20976400D02*
X29707303Y-21206400D01*
X29707303Y-20976400D02*
X29477303Y-21206400D01*
X29673621Y-21172718D02*
X29673621Y-21010082D01*
X29510984Y-21010082D01*
X29510984Y-21172718D01*
X29673621Y-21172718D01*
X29707303Y-21091400D02*
G75*
G03*
X29707303Y-21091400I-115000J0D01*
G01*
X31994000Y-4952360D02*
X32224000Y-5182360D01*
X32224000Y-4952360D02*
X31994000Y-5182360D01*
X32190318Y-5148678D02*
X32190318Y-4986042D01*
X32027682Y-4986042D01*
X32027682Y-5148678D01*
X32190318Y-5148678D01*
X32224000Y-5067360D02*
G75*
G03*
X32224000Y-5067360I-115000J0D01*
G01*
X31994000Y-5520360D02*
X32224000Y-5750360D01*
X32224000Y-5520360D02*
X31994000Y-5750360D01*
X32190318Y-5716678D02*
X32190318Y-5554042D01*
X32027682Y-5554042D01*
X32027682Y-5716678D01*
X32190318Y-5716678D01*
X32224000Y-5635360D02*
G75*
G03*
X32224000Y-5635360I-115000J0D01*
G01*
X33243303Y-20408400D02*
X33473303Y-20638400D01*
X33473303Y-20408400D02*
X33243303Y-20638400D01*
X33439621Y-20604718D02*
X33439621Y-20442082D01*
X33276984Y-20442082D01*
X33276984Y-20604718D01*
X33439621Y-20604718D01*
X33473303Y-20523400D02*
G75*
G03*
X33473303Y-20523400I-115000J0D01*
G01*
X33243303Y-20976400D02*
X33473303Y-21206400D01*
X33473303Y-20976400D02*
X33243303Y-21206400D01*
X33439621Y-21172718D02*
X33439621Y-21010082D01*
X33276984Y-21010082D01*
X33276984Y-21172718D01*
X33439621Y-21172718D01*
X33473303Y-21091400D02*
G75*
G03*
X33473303Y-21091400I-115000J0D01*
G01*
X33308000Y-4952360D02*
X33538000Y-5182360D01*
X33538000Y-4952360D02*
X33308000Y-5182360D01*
X33504318Y-5148678D02*
X33504318Y-4986042D01*
X33341682Y-4986042D01*
X33341682Y-5148678D01*
X33504318Y-5148678D01*
X33538000Y-5067360D02*
G75*
G03*
X33538000Y-5067360I-115000J0D01*
G01*
X33308000Y-5520360D02*
X33538000Y-5750360D01*
X33538000Y-5520360D02*
X33308000Y-5750360D01*
X33504318Y-5716678D02*
X33504318Y-5554042D01*
X33341682Y-5554042D01*
X33341682Y-5716678D01*
X33504318Y-5716678D01*
X33538000Y-5635360D02*
G75*
G03*
X33538000Y-5635360I-115000J0D01*
G01*
X34371440Y-4947280D02*
X34601440Y-5177280D01*
X34601440Y-4947280D02*
X34371440Y-5177280D01*
X34567758Y-5143598D02*
X34567758Y-4980962D01*
X34405122Y-4980962D01*
X34405122Y-5143598D01*
X34567758Y-5143598D01*
X34601440Y-5062280D02*
G75*
G03*
X34601440Y-5062280I-115000J0D01*
G01*
X34371440Y-5515280D02*
X34601440Y-5745280D01*
X34601440Y-5515280D02*
X34371440Y-5745280D01*
X34567758Y-5711598D02*
X34567758Y-5548962D01*
X34405122Y-5548962D01*
X34405122Y-5711598D01*
X34567758Y-5711598D01*
X34601440Y-5630280D02*
G75*
G03*
X34601440Y-5630280I-115000J0D01*
G01*
X34557303Y-20408400D02*
X34787303Y-20638400D01*
X34787303Y-20408400D02*
X34557303Y-20638400D01*
X34753621Y-20604718D02*
X34753621Y-20442082D01*
X34590985Y-20442082D01*
X34590985Y-20604718D01*
X34753621Y-20604718D01*
X34787303Y-20523400D02*
G75*
G03*
X34787303Y-20523400I-115000J0D01*
G01*
X34557303Y-20976400D02*
X34787303Y-21206400D01*
X34787303Y-20976400D02*
X34557303Y-21206400D01*
X34753621Y-21172718D02*
X34753621Y-21010082D01*
X34590985Y-21010082D01*
X34590985Y-21172718D01*
X34753621Y-21172718D01*
X34787303Y-21091400D02*
G75*
G03*
X34787303Y-21091400I-115000J0D01*
G01*
X35685440Y-4947280D02*
X35915440Y-5177280D01*
X35915440Y-4947280D02*
X35685440Y-5177280D01*
X35881758Y-5143598D02*
X35881758Y-4980962D01*
X35719122Y-4980962D01*
X35719122Y-5143598D01*
X35881758Y-5143598D01*
X35915440Y-5062280D02*
G75*
G03*
X35915440Y-5062280I-115000J0D01*
G01*
X35685440Y-5515280D02*
X35915440Y-5745280D01*
X35915440Y-5515280D02*
X35685440Y-5745280D01*
X35881758Y-5711598D02*
X35881758Y-5548962D01*
X35719122Y-5548962D01*
X35719122Y-5711598D01*
X35881758Y-5711598D01*
X35915440Y-5630280D02*
G75*
G03*
X35915440Y-5630280I-115000J0D01*
G01*
D11*
X5163699Y-22552476D02*
X5163699Y-22352476D01*
X5211318Y-22352476D01*
X5239890Y-22362000D01*
X5258937Y-22381048D01*
X5268461Y-22400095D01*
X5277985Y-22438190D01*
X5277985Y-22466762D01*
X5268461Y-22504857D01*
X5258937Y-22523905D01*
X5239890Y-22542952D01*
X5211318Y-22552476D01*
X5163699Y-22552476D01*
X5363699Y-22552476D02*
X5363699Y-22419143D01*
X5363699Y-22457238D02*
X5373223Y-22438190D01*
X5382747Y-22428667D01*
X5401794Y-22419143D01*
X5420842Y-22419143D01*
X5487509Y-22552476D02*
X5487509Y-22419143D01*
X5487509Y-22352476D02*
X5477985Y-22362000D01*
X5487509Y-22371524D01*
X5497032Y-22362000D01*
X5487509Y-22352476D01*
X5487509Y-22371524D01*
X5611318Y-22552476D02*
X5592270Y-22542952D01*
X5582747Y-22523905D01*
X5582747Y-22352476D01*
X5716080Y-22552476D02*
X5697032Y-22542952D01*
X5687508Y-22523905D01*
X5687508Y-22352476D01*
X5944651Y-22552476D02*
X5944651Y-22352476D01*
X6011318Y-22495333D01*
X6077985Y-22352476D01*
X6077985Y-22552476D01*
X6258937Y-22552476D02*
X6258937Y-22447714D01*
X6249413Y-22428667D01*
X6230366Y-22419143D01*
X6192270Y-22419143D01*
X6173223Y-22428667D01*
X6258937Y-22542952D02*
X6239889Y-22552476D01*
X6192270Y-22552476D01*
X6173223Y-22542952D01*
X6163699Y-22523905D01*
X6163699Y-22504857D01*
X6173223Y-22485809D01*
X6192270Y-22476286D01*
X6239889Y-22476286D01*
X6258937Y-22466762D01*
X6354175Y-22419143D02*
X6354175Y-22619143D01*
X6354175Y-22428667D02*
X6373223Y-22419143D01*
X6411318Y-22419143D01*
X6430366Y-22428667D01*
X6439889Y-22438190D01*
X6449413Y-22457238D01*
X6449413Y-22514381D01*
X6439889Y-22533428D01*
X6430366Y-22542952D01*
X6411318Y-22552476D01*
X6373223Y-22552476D01*
X6354175Y-22542952D01*
X6535128Y-22533428D02*
X6544651Y-22542952D01*
X6535128Y-22552476D01*
X6525604Y-22542952D01*
X6535128Y-22533428D01*
X6535128Y-22552476D01*
X6535128Y-22428667D02*
X6544651Y-22438190D01*
X6535128Y-22447714D01*
X6525604Y-22438190D01*
X6535128Y-22428667D01*
X6535128Y-22447714D01*
D12*
X4866080Y-22862000D02*
X4906080Y-22902000D01*
X4906080Y-22862000D02*
X4866080Y-22902000D01*
D11*
X5201794Y-22772476D02*
X5220842Y-22772476D01*
X5239890Y-22782000D01*
X5249413Y-22791524D01*
X5258937Y-22810571D01*
X5268461Y-22848667D01*
X5268461Y-22896286D01*
X5258937Y-22934381D01*
X5249413Y-22953428D01*
X5239890Y-22962952D01*
X5220842Y-22972476D01*
X5201794Y-22972476D01*
X5182747Y-22962952D01*
X5173223Y-22953428D01*
X5163699Y-22934381D01*
X5154175Y-22896286D01*
X5154175Y-22848667D01*
X5163699Y-22810571D01*
X5173223Y-22791524D01*
X5182747Y-22782000D01*
X5201794Y-22772476D01*
X5354175Y-22953428D02*
X5363699Y-22962952D01*
X5354175Y-22972476D01*
X5344651Y-22962952D01*
X5354175Y-22953428D01*
X5354175Y-22972476D01*
X5535128Y-22839143D02*
X5535128Y-22972476D01*
X5487509Y-22762952D02*
X5439890Y-22905809D01*
X5563699Y-22905809D01*
X5677985Y-22772476D02*
X5697032Y-22772476D01*
X5716080Y-22782000D01*
X5725604Y-22791524D01*
X5735128Y-22810571D01*
X5744651Y-22848667D01*
X5744651Y-22896286D01*
X5735128Y-22934381D01*
X5725604Y-22953428D01*
X5716080Y-22962952D01*
X5697032Y-22972476D01*
X5677985Y-22972476D01*
X5658937Y-22962952D01*
X5649413Y-22953428D01*
X5639889Y-22934381D01*
X5630366Y-22896286D01*
X5630366Y-22848667D01*
X5639889Y-22810571D01*
X5649413Y-22791524D01*
X5658937Y-22782000D01*
X5677985Y-22772476D01*
X5868461Y-22772476D02*
X5887508Y-22772476D01*
X5906556Y-22782000D01*
X5916080Y-22791524D01*
X5925604Y-22810571D01*
X5935128Y-22848667D01*
X5935128Y-22896286D01*
X5925604Y-22934381D01*
X5916080Y-22953428D01*
X5906556Y-22962952D01*
X5887508Y-22972476D01*
X5868461Y-22972476D01*
X5849413Y-22962952D01*
X5839889Y-22953428D01*
X5830366Y-22934381D01*
X5820842Y-22896286D01*
X5820842Y-22848667D01*
X5830366Y-22810571D01*
X5839889Y-22791524D01*
X5849413Y-22782000D01*
X5868461Y-22772476D01*
X6020842Y-22972476D02*
X6020842Y-22839143D01*
X6020842Y-22858190D02*
X6030366Y-22848667D01*
X6049413Y-22839143D01*
X6077985Y-22839143D01*
X6097032Y-22848667D01*
X6106556Y-22867714D01*
X6106556Y-22972476D01*
X6106556Y-22867714D02*
X6116080Y-22848667D01*
X6135128Y-22839143D01*
X6163699Y-22839143D01*
X6182747Y-22848667D01*
X6192270Y-22867714D01*
X6192270Y-22972476D01*
X6287508Y-22972476D02*
X6287508Y-22839143D01*
X6287508Y-22858190D02*
X6297032Y-22848667D01*
X6316080Y-22839143D01*
X6344651Y-22839143D01*
X6363699Y-22848667D01*
X6373223Y-22867714D01*
X6373223Y-22972476D01*
X6373223Y-22867714D02*
X6382747Y-22848667D01*
X6401794Y-22839143D01*
X6430366Y-22839143D01*
X6449413Y-22848667D01*
X6458937Y-22867714D01*
X6458937Y-22972476D01*
X6849413Y-22762952D02*
X6677985Y-23020095D01*
X7106556Y-22772476D02*
X7125604Y-22772476D01*
X7144651Y-22782000D01*
X7154175Y-22791524D01*
X7163699Y-22810571D01*
X7173223Y-22848667D01*
X7173223Y-22896286D01*
X7163699Y-22934381D01*
X7154175Y-22953428D01*
X7144651Y-22962952D01*
X7125604Y-22972476D01*
X7106556Y-22972476D01*
X7087508Y-22962952D01*
X7077985Y-22953428D01*
X7068461Y-22934381D01*
X7058937Y-22896286D01*
X7058937Y-22848667D01*
X7068461Y-22810571D01*
X7077985Y-22791524D01*
X7087508Y-22782000D01*
X7106556Y-22772476D01*
X7258937Y-22953428D02*
X7268461Y-22962952D01*
X7258937Y-22972476D01*
X7249413Y-22962952D01*
X7258937Y-22953428D01*
X7258937Y-22972476D01*
X7392270Y-22772476D02*
X7411318Y-22772476D01*
X7430366Y-22782000D01*
X7439889Y-22791524D01*
X7449413Y-22810571D01*
X7458937Y-22848667D01*
X7458937Y-22896286D01*
X7449413Y-22934381D01*
X7439889Y-22953428D01*
X7430366Y-22962952D01*
X7411318Y-22972476D01*
X7392270Y-22972476D01*
X7373223Y-22962952D01*
X7363699Y-22953428D01*
X7354175Y-22934381D01*
X7344651Y-22896286D01*
X7344651Y-22848667D01*
X7354175Y-22810571D01*
X7363699Y-22791524D01*
X7373223Y-22782000D01*
X7392270Y-22772476D01*
X7649413Y-22972476D02*
X7535128Y-22972476D01*
X7592270Y-22972476D02*
X7592270Y-22772476D01*
X7573223Y-22801048D01*
X7554175Y-22820095D01*
X7535128Y-22829619D01*
X7830366Y-22772476D02*
X7735128Y-22772476D01*
X7725604Y-22867714D01*
X7735128Y-22858190D01*
X7754175Y-22848667D01*
X7801794Y-22848667D01*
X7820842Y-22858190D01*
X7830366Y-22867714D01*
X7839889Y-22886762D01*
X7839889Y-22934381D01*
X7830366Y-22953428D01*
X7820842Y-22962952D01*
X7801794Y-22972476D01*
X7754175Y-22972476D01*
X7735128Y-22962952D01*
X7725604Y-22953428D01*
X7906556Y-22772476D02*
X8039889Y-22772476D01*
X7954175Y-22972476D01*
X8106556Y-22772476D02*
X8106556Y-22810571D01*
X8182747Y-22772476D02*
X8182747Y-22810571D01*
X8477985Y-23048667D02*
X8468461Y-23039143D01*
X8449413Y-23010571D01*
X8439890Y-22991524D01*
X8430366Y-22962952D01*
X8420842Y-22915333D01*
X8420842Y-22877238D01*
X8430366Y-22829619D01*
X8439890Y-22801048D01*
X8449413Y-22782000D01*
X8468461Y-22753428D01*
X8477985Y-22743905D01*
X8639890Y-22839143D02*
X8639890Y-22972476D01*
X8592270Y-22762952D02*
X8544651Y-22905809D01*
X8668461Y-22905809D01*
X8725604Y-22772476D02*
X8858937Y-22772476D01*
X8773223Y-22972476D01*
X9087509Y-22972476D02*
X9087509Y-22772476D01*
X9173223Y-22972476D02*
X9173223Y-22867714D01*
X9163699Y-22848667D01*
X9144651Y-22839143D01*
X9116080Y-22839143D01*
X9097032Y-22848667D01*
X9087509Y-22858190D01*
X9297032Y-22972476D02*
X9277985Y-22962952D01*
X9268461Y-22953428D01*
X9258937Y-22934381D01*
X9258937Y-22877238D01*
X9268461Y-22858190D01*
X9277985Y-22848667D01*
X9297032Y-22839143D01*
X9325604Y-22839143D01*
X9344651Y-22848667D01*
X9354175Y-22858190D01*
X9363699Y-22877238D01*
X9363699Y-22934381D01*
X9354175Y-22953428D01*
X9344651Y-22962952D01*
X9325604Y-22972476D01*
X9297032Y-22972476D01*
X9477985Y-22972476D02*
X9458937Y-22962952D01*
X9449413Y-22943905D01*
X9449413Y-22772476D01*
X9630366Y-22962952D02*
X9611318Y-22972476D01*
X9573223Y-22972476D01*
X9554175Y-22962952D01*
X9544651Y-22943905D01*
X9544651Y-22867714D01*
X9554175Y-22848667D01*
X9573223Y-22839143D01*
X9611318Y-22839143D01*
X9630366Y-22848667D01*
X9639890Y-22867714D01*
X9639890Y-22886762D01*
X9544651Y-22905809D01*
X9716080Y-22962952D02*
X9735128Y-22972476D01*
X9773223Y-22972476D01*
X9792270Y-22962952D01*
X9801794Y-22943905D01*
X9801794Y-22934381D01*
X9792270Y-22915333D01*
X9773223Y-22905809D01*
X9744651Y-22905809D01*
X9725604Y-22896286D01*
X9716080Y-22877238D01*
X9716080Y-22867714D01*
X9725604Y-22848667D01*
X9744651Y-22839143D01*
X9773223Y-22839143D01*
X9792270Y-22848667D01*
X9868461Y-23048667D02*
X9877985Y-23039143D01*
X9897032Y-23010571D01*
X9906556Y-22991524D01*
X9916080Y-22962952D01*
X9925604Y-22915333D01*
X9925604Y-22877238D01*
X9916080Y-22829619D01*
X9906556Y-22801048D01*
X9897032Y-22782000D01*
X9877985Y-22753428D01*
X9868461Y-22743905D01*
D13*
X4906080Y-23146000D02*
G75*
G03*
X4906080Y-23146000I-30000J0D01*
G01*
D11*
X5201794Y-23036476D02*
X5220842Y-23036476D01*
X5239890Y-23046000D01*
X5249413Y-23055524D01*
X5258937Y-23074571D01*
X5268461Y-23112667D01*
X5268461Y-23160286D01*
X5258937Y-23198381D01*
X5249413Y-23217428D01*
X5239890Y-23226952D01*
X5220842Y-23236476D01*
X5201794Y-23236476D01*
X5182747Y-23226952D01*
X5173223Y-23217428D01*
X5163699Y-23198381D01*
X5154175Y-23160286D01*
X5154175Y-23112667D01*
X5163699Y-23074571D01*
X5173223Y-23055524D01*
X5182747Y-23046000D01*
X5201794Y-23036476D01*
X5354175Y-23217428D02*
X5363699Y-23226952D01*
X5354175Y-23236476D01*
X5344651Y-23226952D01*
X5354175Y-23217428D01*
X5354175Y-23236476D01*
X5535128Y-23036476D02*
X5497032Y-23036476D01*
X5477985Y-23046000D01*
X5468461Y-23055524D01*
X5449413Y-23084095D01*
X5439890Y-23122190D01*
X5439890Y-23198381D01*
X5449413Y-23217428D01*
X5458937Y-23226952D01*
X5477985Y-23236476D01*
X5516080Y-23236476D01*
X5535128Y-23226952D01*
X5544651Y-23217428D01*
X5554175Y-23198381D01*
X5554175Y-23150762D01*
X5544651Y-23131714D01*
X5535128Y-23122190D01*
X5516080Y-23112667D01*
X5477985Y-23112667D01*
X5458937Y-23122190D01*
X5449413Y-23131714D01*
X5439890Y-23150762D01*
X5677985Y-23036476D02*
X5697032Y-23036476D01*
X5716080Y-23046000D01*
X5725604Y-23055524D01*
X5735128Y-23074571D01*
X5744651Y-23112667D01*
X5744651Y-23160286D01*
X5735128Y-23198381D01*
X5725604Y-23217428D01*
X5716080Y-23226952D01*
X5697032Y-23236476D01*
X5677985Y-23236476D01*
X5658937Y-23226952D01*
X5649413Y-23217428D01*
X5639889Y-23198381D01*
X5630366Y-23160286D01*
X5630366Y-23112667D01*
X5639889Y-23074571D01*
X5649413Y-23055524D01*
X5658937Y-23046000D01*
X5677985Y-23036476D01*
X5868461Y-23036476D02*
X5887508Y-23036476D01*
X5906556Y-23046000D01*
X5916080Y-23055524D01*
X5925604Y-23074571D01*
X5935128Y-23112667D01*
X5935128Y-23160286D01*
X5925604Y-23198381D01*
X5916080Y-23217428D01*
X5906556Y-23226952D01*
X5887508Y-23236476D01*
X5868461Y-23236476D01*
X5849413Y-23226952D01*
X5839889Y-23217428D01*
X5830366Y-23198381D01*
X5820842Y-23160286D01*
X5820842Y-23112667D01*
X5830366Y-23074571D01*
X5839889Y-23055524D01*
X5849413Y-23046000D01*
X5868461Y-23036476D01*
X6020842Y-23236476D02*
X6020842Y-23103143D01*
X6020842Y-23122190D02*
X6030366Y-23112667D01*
X6049413Y-23103143D01*
X6077985Y-23103143D01*
X6097032Y-23112667D01*
X6106556Y-23131714D01*
X6106556Y-23236476D01*
X6106556Y-23131714D02*
X6116080Y-23112667D01*
X6135128Y-23103143D01*
X6163699Y-23103143D01*
X6182747Y-23112667D01*
X6192270Y-23131714D01*
X6192270Y-23236476D01*
X6287508Y-23236476D02*
X6287508Y-23103143D01*
X6287508Y-23122190D02*
X6297032Y-23112667D01*
X6316080Y-23103143D01*
X6344651Y-23103143D01*
X6363699Y-23112667D01*
X6373223Y-23131714D01*
X6373223Y-23236476D01*
X6373223Y-23131714D02*
X6382747Y-23112667D01*
X6401794Y-23103143D01*
X6430366Y-23103143D01*
X6449413Y-23112667D01*
X6458937Y-23131714D01*
X6458937Y-23236476D01*
X6849413Y-23026952D02*
X6677985Y-23284095D01*
X7106556Y-23036476D02*
X7125604Y-23036476D01*
X7144651Y-23046000D01*
X7154175Y-23055524D01*
X7163699Y-23074571D01*
X7173223Y-23112667D01*
X7173223Y-23160286D01*
X7163699Y-23198381D01*
X7154175Y-23217428D01*
X7144651Y-23226952D01*
X7125604Y-23236476D01*
X7106556Y-23236476D01*
X7087508Y-23226952D01*
X7077985Y-23217428D01*
X7068461Y-23198381D01*
X7058937Y-23160286D01*
X7058937Y-23112667D01*
X7068461Y-23074571D01*
X7077985Y-23055524D01*
X7087508Y-23046000D01*
X7106556Y-23036476D01*
X7258937Y-23217428D02*
X7268461Y-23226952D01*
X7258937Y-23236476D01*
X7249413Y-23226952D01*
X7258937Y-23217428D01*
X7258937Y-23236476D01*
X7392270Y-23036476D02*
X7411318Y-23036476D01*
X7430366Y-23046000D01*
X7439889Y-23055524D01*
X7449413Y-23074571D01*
X7458937Y-23112667D01*
X7458937Y-23160286D01*
X7449413Y-23198381D01*
X7439889Y-23217428D01*
X7430366Y-23226952D01*
X7411318Y-23236476D01*
X7392270Y-23236476D01*
X7373223Y-23226952D01*
X7363699Y-23217428D01*
X7354175Y-23198381D01*
X7344651Y-23160286D01*
X7344651Y-23112667D01*
X7354175Y-23074571D01*
X7363699Y-23055524D01*
X7373223Y-23046000D01*
X7392270Y-23036476D01*
X7535128Y-23055524D02*
X7544651Y-23046000D01*
X7563699Y-23036476D01*
X7611318Y-23036476D01*
X7630366Y-23046000D01*
X7639889Y-23055524D01*
X7649413Y-23074571D01*
X7649413Y-23093619D01*
X7639889Y-23122190D01*
X7525604Y-23236476D01*
X7649413Y-23236476D01*
X7716080Y-23036476D02*
X7839889Y-23036476D01*
X7773223Y-23112667D01*
X7801794Y-23112667D01*
X7820842Y-23122190D01*
X7830366Y-23131714D01*
X7839889Y-23150762D01*
X7839889Y-23198381D01*
X7830366Y-23217428D01*
X7820842Y-23226952D01*
X7801794Y-23236476D01*
X7744651Y-23236476D01*
X7725604Y-23226952D01*
X7716080Y-23217428D01*
X8011318Y-23036476D02*
X7973223Y-23036476D01*
X7954175Y-23046000D01*
X7944651Y-23055524D01*
X7925604Y-23084095D01*
X7916080Y-23122190D01*
X7916080Y-23198381D01*
X7925604Y-23217428D01*
X7935128Y-23226952D01*
X7954175Y-23236476D01*
X7992270Y-23236476D01*
X8011318Y-23226952D01*
X8020842Y-23217428D01*
X8030366Y-23198381D01*
X8030366Y-23150762D01*
X8020842Y-23131714D01*
X8011318Y-23122190D01*
X7992270Y-23112667D01*
X7954175Y-23112667D01*
X7935128Y-23122190D01*
X7925604Y-23131714D01*
X7916080Y-23150762D01*
X8106556Y-23036476D02*
X8106556Y-23074571D01*
X8182747Y-23036476D02*
X8182747Y-23074571D01*
X8477985Y-23312667D02*
X8468461Y-23303143D01*
X8449413Y-23274571D01*
X8439890Y-23255524D01*
X8430366Y-23226952D01*
X8420842Y-23179333D01*
X8420842Y-23141238D01*
X8430366Y-23093619D01*
X8439890Y-23065048D01*
X8449413Y-23046000D01*
X8468461Y-23017428D01*
X8477985Y-23007905D01*
X8658937Y-23236476D02*
X8544651Y-23236476D01*
X8601794Y-23236476D02*
X8601794Y-23036476D01*
X8582747Y-23065048D01*
X8563699Y-23084095D01*
X8544651Y-23093619D01*
X8897032Y-23236476D02*
X8897032Y-23036476D01*
X8982747Y-23236476D02*
X8982747Y-23131714D01*
X8973223Y-23112667D01*
X8954175Y-23103143D01*
X8925604Y-23103143D01*
X8906556Y-23112667D01*
X8897032Y-23122190D01*
X9106556Y-23236476D02*
X9087509Y-23226952D01*
X9077985Y-23217428D01*
X9068461Y-23198381D01*
X9068461Y-23141238D01*
X9077985Y-23122190D01*
X9087509Y-23112667D01*
X9106556Y-23103143D01*
X9135128Y-23103143D01*
X9154175Y-23112667D01*
X9163699Y-23122190D01*
X9173223Y-23141238D01*
X9173223Y-23198381D01*
X9163699Y-23217428D01*
X9154175Y-23226952D01*
X9135128Y-23236476D01*
X9106556Y-23236476D01*
X9287509Y-23236476D02*
X9268461Y-23226952D01*
X9258937Y-23207905D01*
X9258937Y-23036476D01*
X9439890Y-23226952D02*
X9420842Y-23236476D01*
X9382747Y-23236476D01*
X9363699Y-23226952D01*
X9354175Y-23207905D01*
X9354175Y-23131714D01*
X9363699Y-23112667D01*
X9382747Y-23103143D01*
X9420842Y-23103143D01*
X9439890Y-23112667D01*
X9449413Y-23131714D01*
X9449413Y-23150762D01*
X9354175Y-23169809D01*
X9516080Y-23312667D02*
X9525604Y-23303143D01*
X9544651Y-23274571D01*
X9554175Y-23255524D01*
X9563699Y-23226952D01*
X9573223Y-23179333D01*
X9573223Y-23141238D01*
X9563699Y-23093619D01*
X9554175Y-23065048D01*
X9544651Y-23046000D01*
X9525604Y-23017428D01*
X9516080Y-23007905D01*
D14*
X4868580Y-23372500D02*
X4868580Y-23447500D01*
X4831080Y-23410000D02*
X4906080Y-23410000D01*
D11*
X5201794Y-23300476D02*
X5220842Y-23300476D01*
X5239890Y-23310000D01*
X5249413Y-23319524D01*
X5258937Y-23338571D01*
X5268461Y-23376667D01*
X5268461Y-23424286D01*
X5258937Y-23462381D01*
X5249413Y-23481428D01*
X5239890Y-23490952D01*
X5220842Y-23500476D01*
X5201794Y-23500476D01*
X5182747Y-23490952D01*
X5173223Y-23481428D01*
X5163699Y-23462381D01*
X5154175Y-23424286D01*
X5154175Y-23376667D01*
X5163699Y-23338571D01*
X5173223Y-23319524D01*
X5182747Y-23310000D01*
X5201794Y-23300476D01*
X5354175Y-23481428D02*
X5363699Y-23490952D01*
X5354175Y-23500476D01*
X5344651Y-23490952D01*
X5354175Y-23481428D01*
X5354175Y-23500476D01*
X5430366Y-23300476D02*
X5563699Y-23300476D01*
X5477985Y-23500476D01*
X5735128Y-23300476D02*
X5639889Y-23300476D01*
X5630366Y-23395714D01*
X5639889Y-23386190D01*
X5658937Y-23376667D01*
X5706556Y-23376667D01*
X5725604Y-23386190D01*
X5735128Y-23395714D01*
X5744651Y-23414762D01*
X5744651Y-23462381D01*
X5735128Y-23481428D01*
X5725604Y-23490952D01*
X5706556Y-23500476D01*
X5658937Y-23500476D01*
X5639889Y-23490952D01*
X5630366Y-23481428D01*
X5868461Y-23300476D02*
X5887508Y-23300476D01*
X5906556Y-23310000D01*
X5916080Y-23319524D01*
X5925604Y-23338571D01*
X5935128Y-23376667D01*
X5935128Y-23424286D01*
X5925604Y-23462381D01*
X5916080Y-23481428D01*
X5906556Y-23490952D01*
X5887508Y-23500476D01*
X5868461Y-23500476D01*
X5849413Y-23490952D01*
X5839889Y-23481428D01*
X5830366Y-23462381D01*
X5820842Y-23424286D01*
X5820842Y-23376667D01*
X5830366Y-23338571D01*
X5839889Y-23319524D01*
X5849413Y-23310000D01*
X5868461Y-23300476D01*
X6020842Y-23500476D02*
X6020842Y-23367143D01*
X6020842Y-23386190D02*
X6030366Y-23376667D01*
X6049413Y-23367143D01*
X6077985Y-23367143D01*
X6097032Y-23376667D01*
X6106556Y-23395714D01*
X6106556Y-23500476D01*
X6106556Y-23395714D02*
X6116080Y-23376667D01*
X6135128Y-23367143D01*
X6163699Y-23367143D01*
X6182747Y-23376667D01*
X6192270Y-23395714D01*
X6192270Y-23500476D01*
X6287508Y-23500476D02*
X6287508Y-23367143D01*
X6287508Y-23386190D02*
X6297032Y-23376667D01*
X6316080Y-23367143D01*
X6344651Y-23367143D01*
X6363699Y-23376667D01*
X6373223Y-23395714D01*
X6373223Y-23500476D01*
X6373223Y-23395714D02*
X6382747Y-23376667D01*
X6401794Y-23367143D01*
X6430366Y-23367143D01*
X6449413Y-23376667D01*
X6458937Y-23395714D01*
X6458937Y-23500476D01*
X6849413Y-23290952D02*
X6677985Y-23548095D01*
X7106556Y-23300476D02*
X7125604Y-23300476D01*
X7144651Y-23310000D01*
X7154175Y-23319524D01*
X7163699Y-23338571D01*
X7173223Y-23376667D01*
X7173223Y-23424286D01*
X7163699Y-23462381D01*
X7154175Y-23481428D01*
X7144651Y-23490952D01*
X7125604Y-23500476D01*
X7106556Y-23500476D01*
X7087508Y-23490952D01*
X7077985Y-23481428D01*
X7068461Y-23462381D01*
X7058937Y-23424286D01*
X7058937Y-23376667D01*
X7068461Y-23338571D01*
X7077985Y-23319524D01*
X7087508Y-23310000D01*
X7106556Y-23300476D01*
X7258937Y-23481428D02*
X7268461Y-23490952D01*
X7258937Y-23500476D01*
X7249413Y-23490952D01*
X7258937Y-23481428D01*
X7258937Y-23500476D01*
X7392270Y-23300476D02*
X7411318Y-23300476D01*
X7430366Y-23310000D01*
X7439889Y-23319524D01*
X7449413Y-23338571D01*
X7458937Y-23376667D01*
X7458937Y-23424286D01*
X7449413Y-23462381D01*
X7439889Y-23481428D01*
X7430366Y-23490952D01*
X7411318Y-23500476D01*
X7392270Y-23500476D01*
X7373223Y-23490952D01*
X7363699Y-23481428D01*
X7354175Y-23462381D01*
X7344651Y-23424286D01*
X7344651Y-23376667D01*
X7354175Y-23338571D01*
X7363699Y-23319524D01*
X7373223Y-23310000D01*
X7392270Y-23300476D01*
X7535128Y-23319524D02*
X7544651Y-23310000D01*
X7563699Y-23300476D01*
X7611318Y-23300476D01*
X7630366Y-23310000D01*
X7639889Y-23319524D01*
X7649413Y-23338571D01*
X7649413Y-23357619D01*
X7639889Y-23386190D01*
X7525604Y-23500476D01*
X7649413Y-23500476D01*
X7744651Y-23500476D02*
X7782747Y-23500476D01*
X7801794Y-23490952D01*
X7811318Y-23481428D01*
X7830366Y-23452857D01*
X7839889Y-23414762D01*
X7839889Y-23338571D01*
X7830366Y-23319524D01*
X7820842Y-23310000D01*
X7801794Y-23300476D01*
X7763699Y-23300476D01*
X7744651Y-23310000D01*
X7735128Y-23319524D01*
X7725604Y-23338571D01*
X7725604Y-23386190D01*
X7735128Y-23405238D01*
X7744651Y-23414762D01*
X7763699Y-23424286D01*
X7801794Y-23424286D01*
X7820842Y-23414762D01*
X7830366Y-23405238D01*
X7839889Y-23386190D01*
X8020842Y-23300476D02*
X7925604Y-23300476D01*
X7916080Y-23395714D01*
X7925604Y-23386190D01*
X7944651Y-23376667D01*
X7992270Y-23376667D01*
X8011318Y-23386190D01*
X8020842Y-23395714D01*
X8030366Y-23414762D01*
X8030366Y-23462381D01*
X8020842Y-23481428D01*
X8011318Y-23490952D01*
X7992270Y-23500476D01*
X7944651Y-23500476D01*
X7925604Y-23490952D01*
X7916080Y-23481428D01*
X8106556Y-23300476D02*
X8106556Y-23338571D01*
X8182747Y-23300476D02*
X8182747Y-23338571D01*
X8477985Y-23576667D02*
X8468461Y-23567143D01*
X8449413Y-23538571D01*
X8439890Y-23519524D01*
X8430366Y-23490952D01*
X8420842Y-23443333D01*
X8420842Y-23405238D01*
X8430366Y-23357619D01*
X8439890Y-23329048D01*
X8449413Y-23310000D01*
X8468461Y-23281428D01*
X8477985Y-23271905D01*
X8535128Y-23300476D02*
X8658937Y-23300476D01*
X8592270Y-23376667D01*
X8620842Y-23376667D01*
X8639890Y-23386190D01*
X8649413Y-23395714D01*
X8658937Y-23414762D01*
X8658937Y-23462381D01*
X8649413Y-23481428D01*
X8639890Y-23490952D01*
X8620842Y-23500476D01*
X8563699Y-23500476D01*
X8544651Y-23490952D01*
X8535128Y-23481428D01*
X8897032Y-23500476D02*
X8897032Y-23300476D01*
X8982747Y-23500476D02*
X8982747Y-23395714D01*
X8973223Y-23376667D01*
X8954175Y-23367143D01*
X8925604Y-23367143D01*
X8906556Y-23376667D01*
X8897032Y-23386190D01*
X9106556Y-23500476D02*
X9087509Y-23490952D01*
X9077985Y-23481428D01*
X9068461Y-23462381D01*
X9068461Y-23405238D01*
X9077985Y-23386190D01*
X9087509Y-23376667D01*
X9106556Y-23367143D01*
X9135128Y-23367143D01*
X9154175Y-23376667D01*
X9163699Y-23386190D01*
X9173223Y-23405238D01*
X9173223Y-23462381D01*
X9163699Y-23481428D01*
X9154175Y-23490952D01*
X9135128Y-23500476D01*
X9106556Y-23500476D01*
X9287509Y-23500476D02*
X9268461Y-23490952D01*
X9258937Y-23471905D01*
X9258937Y-23300476D01*
X9439890Y-23490952D02*
X9420842Y-23500476D01*
X9382747Y-23500476D01*
X9363699Y-23490952D01*
X9354175Y-23471905D01*
X9354175Y-23395714D01*
X9363699Y-23376667D01*
X9382747Y-23367143D01*
X9420842Y-23367143D01*
X9439890Y-23376667D01*
X9449413Y-23395714D01*
X9449413Y-23414762D01*
X9354175Y-23433809D01*
X9525604Y-23490952D02*
X9544651Y-23500476D01*
X9582747Y-23500476D01*
X9601794Y-23490952D01*
X9611318Y-23471905D01*
X9611318Y-23462381D01*
X9601794Y-23443333D01*
X9582747Y-23433809D01*
X9554175Y-23433809D01*
X9535128Y-23424286D01*
X9525604Y-23405238D01*
X9525604Y-23395714D01*
X9535128Y-23376667D01*
X9554175Y-23367143D01*
X9582747Y-23367143D01*
X9601794Y-23376667D01*
X9677985Y-23576667D02*
X9687509Y-23567143D01*
X9706556Y-23538571D01*
X9716080Y-23519524D01*
X9725604Y-23490952D01*
X9735128Y-23443333D01*
X9735128Y-23405238D01*
X9725604Y-23357619D01*
X9716080Y-23329048D01*
X9706556Y-23310000D01*
X9687509Y-23281428D01*
X9677985Y-23271905D01*
D15*
X4894365Y-23702284D02*
X4894365Y-23645715D01*
X4837796Y-23645715D01*
X4837796Y-23702284D01*
X4894365Y-23702284D01*
D11*
X5201794Y-23564476D02*
X5220842Y-23564476D01*
X5239890Y-23574000D01*
X5249413Y-23583524D01*
X5258937Y-23602571D01*
X5268461Y-23640667D01*
X5268461Y-23688286D01*
X5258937Y-23726381D01*
X5249413Y-23745428D01*
X5239890Y-23754952D01*
X5220842Y-23764476D01*
X5201794Y-23764476D01*
X5182747Y-23754952D01*
X5173223Y-23745428D01*
X5163699Y-23726381D01*
X5154175Y-23688286D01*
X5154175Y-23640667D01*
X5163699Y-23602571D01*
X5173223Y-23583524D01*
X5182747Y-23574000D01*
X5201794Y-23564476D01*
X5354175Y-23745428D02*
X5363699Y-23754952D01*
X5354175Y-23764476D01*
X5344651Y-23754952D01*
X5354175Y-23745428D01*
X5354175Y-23764476D01*
X5477985Y-23650190D02*
X5458937Y-23640667D01*
X5449413Y-23631143D01*
X5439890Y-23612095D01*
X5439890Y-23602571D01*
X5449413Y-23583524D01*
X5458937Y-23574000D01*
X5477985Y-23564476D01*
X5516080Y-23564476D01*
X5535128Y-23574000D01*
X5544651Y-23583524D01*
X5554175Y-23602571D01*
X5554175Y-23612095D01*
X5544651Y-23631143D01*
X5535128Y-23640667D01*
X5516080Y-23650190D01*
X5477985Y-23650190D01*
X5458937Y-23659714D01*
X5449413Y-23669238D01*
X5439890Y-23688286D01*
X5439890Y-23726381D01*
X5449413Y-23745428D01*
X5458937Y-23754952D01*
X5477985Y-23764476D01*
X5516080Y-23764476D01*
X5535128Y-23754952D01*
X5544651Y-23745428D01*
X5554175Y-23726381D01*
X5554175Y-23688286D01*
X5544651Y-23669238D01*
X5535128Y-23659714D01*
X5516080Y-23650190D01*
X5677985Y-23564476D02*
X5697032Y-23564476D01*
X5716080Y-23574000D01*
X5725604Y-23583524D01*
X5735128Y-23602571D01*
X5744651Y-23640667D01*
X5744651Y-23688286D01*
X5735128Y-23726381D01*
X5725604Y-23745428D01*
X5716080Y-23754952D01*
X5697032Y-23764476D01*
X5677985Y-23764476D01*
X5658937Y-23754952D01*
X5649413Y-23745428D01*
X5639889Y-23726381D01*
X5630366Y-23688286D01*
X5630366Y-23640667D01*
X5639889Y-23602571D01*
X5649413Y-23583524D01*
X5658937Y-23574000D01*
X5677985Y-23564476D01*
X5868461Y-23564476D02*
X5887508Y-23564476D01*
X5906556Y-23574000D01*
X5916080Y-23583524D01*
X5925604Y-23602571D01*
X5935128Y-23640667D01*
X5935128Y-23688286D01*
X5925604Y-23726381D01*
X5916080Y-23745428D01*
X5906556Y-23754952D01*
X5887508Y-23764476D01*
X5868461Y-23764476D01*
X5849413Y-23754952D01*
X5839889Y-23745428D01*
X5830366Y-23726381D01*
X5820842Y-23688286D01*
X5820842Y-23640667D01*
X5830366Y-23602571D01*
X5839889Y-23583524D01*
X5849413Y-23574000D01*
X5868461Y-23564476D01*
X6020842Y-23764476D02*
X6020842Y-23631143D01*
X6020842Y-23650190D02*
X6030366Y-23640667D01*
X6049413Y-23631143D01*
X6077985Y-23631143D01*
X6097032Y-23640667D01*
X6106556Y-23659714D01*
X6106556Y-23764476D01*
X6106556Y-23659714D02*
X6116080Y-23640667D01*
X6135128Y-23631143D01*
X6163699Y-23631143D01*
X6182747Y-23640667D01*
X6192270Y-23659714D01*
X6192270Y-23764476D01*
X6287508Y-23764476D02*
X6287508Y-23631143D01*
X6287508Y-23650190D02*
X6297032Y-23640667D01*
X6316080Y-23631143D01*
X6344651Y-23631143D01*
X6363699Y-23640667D01*
X6373223Y-23659714D01*
X6373223Y-23764476D01*
X6373223Y-23659714D02*
X6382747Y-23640667D01*
X6401794Y-23631143D01*
X6430366Y-23631143D01*
X6449413Y-23640667D01*
X6458937Y-23659714D01*
X6458937Y-23764476D01*
X6849413Y-23554952D02*
X6677985Y-23812095D01*
X7106556Y-23564476D02*
X7125604Y-23564476D01*
X7144651Y-23574000D01*
X7154175Y-23583524D01*
X7163699Y-23602571D01*
X7173223Y-23640667D01*
X7173223Y-23688286D01*
X7163699Y-23726381D01*
X7154175Y-23745428D01*
X7144651Y-23754952D01*
X7125604Y-23764476D01*
X7106556Y-23764476D01*
X7087508Y-23754952D01*
X7077985Y-23745428D01*
X7068461Y-23726381D01*
X7058937Y-23688286D01*
X7058937Y-23640667D01*
X7068461Y-23602571D01*
X7077985Y-23583524D01*
X7087508Y-23574000D01*
X7106556Y-23564476D01*
X7258937Y-23745428D02*
X7268461Y-23754952D01*
X7258937Y-23764476D01*
X7249413Y-23754952D01*
X7258937Y-23745428D01*
X7258937Y-23764476D01*
X7392270Y-23564476D02*
X7411318Y-23564476D01*
X7430366Y-23574000D01*
X7439889Y-23583524D01*
X7449413Y-23602571D01*
X7458937Y-23640667D01*
X7458937Y-23688286D01*
X7449413Y-23726381D01*
X7439889Y-23745428D01*
X7430366Y-23754952D01*
X7411318Y-23764476D01*
X7392270Y-23764476D01*
X7373223Y-23754952D01*
X7363699Y-23745428D01*
X7354175Y-23726381D01*
X7344651Y-23688286D01*
X7344651Y-23640667D01*
X7354175Y-23602571D01*
X7363699Y-23583524D01*
X7373223Y-23574000D01*
X7392270Y-23564476D01*
X7525604Y-23564476D02*
X7649413Y-23564476D01*
X7582747Y-23640667D01*
X7611318Y-23640667D01*
X7630366Y-23650190D01*
X7639889Y-23659714D01*
X7649413Y-23678762D01*
X7649413Y-23726381D01*
X7639889Y-23745428D01*
X7630366Y-23754952D01*
X7611318Y-23764476D01*
X7554175Y-23764476D01*
X7535128Y-23754952D01*
X7525604Y-23745428D01*
X7839889Y-23764476D02*
X7725604Y-23764476D01*
X7782747Y-23764476D02*
X7782747Y-23564476D01*
X7763699Y-23593048D01*
X7744651Y-23612095D01*
X7725604Y-23621619D01*
X8020842Y-23564476D02*
X7925604Y-23564476D01*
X7916080Y-23659714D01*
X7925604Y-23650190D01*
X7944651Y-23640667D01*
X7992270Y-23640667D01*
X8011318Y-23650190D01*
X8020842Y-23659714D01*
X8030366Y-23678762D01*
X8030366Y-23726381D01*
X8020842Y-23745428D01*
X8011318Y-23754952D01*
X7992270Y-23764476D01*
X7944651Y-23764476D01*
X7925604Y-23754952D01*
X7916080Y-23745428D01*
X8106556Y-23564476D02*
X8106556Y-23602571D01*
X8182747Y-23564476D02*
X8182747Y-23602571D01*
X8477985Y-23840667D02*
X8468461Y-23831143D01*
X8449413Y-23802571D01*
X8439890Y-23783524D01*
X8430366Y-23754952D01*
X8420842Y-23707333D01*
X8420842Y-23669238D01*
X8430366Y-23621619D01*
X8439890Y-23593048D01*
X8449413Y-23574000D01*
X8468461Y-23545428D01*
X8477985Y-23535905D01*
X8639890Y-23631143D02*
X8639890Y-23764476D01*
X8592270Y-23554952D02*
X8544651Y-23697809D01*
X8668461Y-23697809D01*
X8897032Y-23764476D02*
X8897032Y-23564476D01*
X8982747Y-23764476D02*
X8982747Y-23659714D01*
X8973223Y-23640667D01*
X8954175Y-23631143D01*
X8925604Y-23631143D01*
X8906556Y-23640667D01*
X8897032Y-23650190D01*
X9106556Y-23764476D02*
X9087509Y-23754952D01*
X9077985Y-23745428D01*
X9068461Y-23726381D01*
X9068461Y-23669238D01*
X9077985Y-23650190D01*
X9087509Y-23640667D01*
X9106556Y-23631143D01*
X9135128Y-23631143D01*
X9154175Y-23640667D01*
X9163699Y-23650190D01*
X9173223Y-23669238D01*
X9173223Y-23726381D01*
X9163699Y-23745428D01*
X9154175Y-23754952D01*
X9135128Y-23764476D01*
X9106556Y-23764476D01*
X9287509Y-23764476D02*
X9268461Y-23754952D01*
X9258937Y-23735905D01*
X9258937Y-23564476D01*
X9439890Y-23754952D02*
X9420842Y-23764476D01*
X9382747Y-23764476D01*
X9363699Y-23754952D01*
X9354175Y-23735905D01*
X9354175Y-23659714D01*
X9363699Y-23640667D01*
X9382747Y-23631143D01*
X9420842Y-23631143D01*
X9439890Y-23640667D01*
X9449413Y-23659714D01*
X9449413Y-23678762D01*
X9354175Y-23697809D01*
X9525604Y-23754952D02*
X9544651Y-23764476D01*
X9582747Y-23764476D01*
X9601794Y-23754952D01*
X9611318Y-23735905D01*
X9611318Y-23726381D01*
X9601794Y-23707333D01*
X9582747Y-23697809D01*
X9554175Y-23697809D01*
X9535128Y-23688286D01*
X9525604Y-23669238D01*
X9525604Y-23659714D01*
X9535128Y-23640667D01*
X9554175Y-23631143D01*
X9582747Y-23631143D01*
X9601794Y-23640667D01*
X9677985Y-23840667D02*
X9687509Y-23831143D01*
X9706556Y-23802571D01*
X9716080Y-23783524D01*
X9725604Y-23754952D01*
X9735128Y-23707333D01*
X9735128Y-23669238D01*
X9725604Y-23621619D01*
X9716080Y-23593048D01*
X9706556Y-23574000D01*
X9687509Y-23545428D01*
X9677985Y-23535905D01*
D16*
X4861080Y-23983000D02*
X4906080Y-23938000D01*
X4861080Y-23893000D01*
X4816080Y-23938000D01*
X4861080Y-23983000D01*
D11*
X5201794Y-23828476D02*
X5220842Y-23828476D01*
X5239890Y-23838000D01*
X5249413Y-23847524D01*
X5258937Y-23866571D01*
X5268461Y-23904667D01*
X5268461Y-23952286D01*
X5258937Y-23990381D01*
X5249413Y-24009428D01*
X5239890Y-24018952D01*
X5220842Y-24028476D01*
X5201794Y-24028476D01*
X5182747Y-24018952D01*
X5173223Y-24009428D01*
X5163699Y-23990381D01*
X5154175Y-23952286D01*
X5154175Y-23904667D01*
X5163699Y-23866571D01*
X5173223Y-23847524D01*
X5182747Y-23838000D01*
X5201794Y-23828476D01*
X5354175Y-24009428D02*
X5363699Y-24018952D01*
X5354175Y-24028476D01*
X5344651Y-24018952D01*
X5354175Y-24009428D01*
X5354175Y-24028476D01*
X5458937Y-24028476D02*
X5497032Y-24028476D01*
X5516080Y-24018952D01*
X5525604Y-24009428D01*
X5544651Y-23980857D01*
X5554175Y-23942762D01*
X5554175Y-23866571D01*
X5544651Y-23847524D01*
X5535128Y-23838000D01*
X5516080Y-23828476D01*
X5477985Y-23828476D01*
X5458937Y-23838000D01*
X5449413Y-23847524D01*
X5439890Y-23866571D01*
X5439890Y-23914190D01*
X5449413Y-23933238D01*
X5458937Y-23942762D01*
X5477985Y-23952286D01*
X5516080Y-23952286D01*
X5535128Y-23942762D01*
X5544651Y-23933238D01*
X5554175Y-23914190D01*
X5677985Y-23828476D02*
X5697032Y-23828476D01*
X5716080Y-23838000D01*
X5725604Y-23847524D01*
X5735128Y-23866571D01*
X5744651Y-23904667D01*
X5744651Y-23952286D01*
X5735128Y-23990381D01*
X5725604Y-24009428D01*
X5716080Y-24018952D01*
X5697032Y-24028476D01*
X5677985Y-24028476D01*
X5658937Y-24018952D01*
X5649413Y-24009428D01*
X5639889Y-23990381D01*
X5630366Y-23952286D01*
X5630366Y-23904667D01*
X5639889Y-23866571D01*
X5649413Y-23847524D01*
X5658937Y-23838000D01*
X5677985Y-23828476D01*
X5868461Y-23828476D02*
X5887508Y-23828476D01*
X5906556Y-23838000D01*
X5916080Y-23847524D01*
X5925604Y-23866571D01*
X5935128Y-23904667D01*
X5935128Y-23952286D01*
X5925604Y-23990381D01*
X5916080Y-24009428D01*
X5906556Y-24018952D01*
X5887508Y-24028476D01*
X5868461Y-24028476D01*
X5849413Y-24018952D01*
X5839889Y-24009428D01*
X5830366Y-23990381D01*
X5820842Y-23952286D01*
X5820842Y-23904667D01*
X5830366Y-23866571D01*
X5839889Y-23847524D01*
X5849413Y-23838000D01*
X5868461Y-23828476D01*
X6020842Y-24028476D02*
X6020842Y-23895143D01*
X6020842Y-23914190D02*
X6030366Y-23904667D01*
X6049413Y-23895143D01*
X6077985Y-23895143D01*
X6097032Y-23904667D01*
X6106556Y-23923714D01*
X6106556Y-24028476D01*
X6106556Y-23923714D02*
X6116080Y-23904667D01*
X6135128Y-23895143D01*
X6163699Y-23895143D01*
X6182747Y-23904667D01*
X6192270Y-23923714D01*
X6192270Y-24028476D01*
X6287508Y-24028476D02*
X6287508Y-23895143D01*
X6287508Y-23914190D02*
X6297032Y-23904667D01*
X6316080Y-23895143D01*
X6344651Y-23895143D01*
X6363699Y-23904667D01*
X6373223Y-23923714D01*
X6373223Y-24028476D01*
X6373223Y-23923714D02*
X6382747Y-23904667D01*
X6401794Y-23895143D01*
X6430366Y-23895143D01*
X6449413Y-23904667D01*
X6458937Y-23923714D01*
X6458937Y-24028476D01*
X6849413Y-23818952D02*
X6677985Y-24076095D01*
X7106556Y-23828476D02*
X7125604Y-23828476D01*
X7144651Y-23838000D01*
X7154175Y-23847524D01*
X7163699Y-23866571D01*
X7173223Y-23904667D01*
X7173223Y-23952286D01*
X7163699Y-23990381D01*
X7154175Y-24009428D01*
X7144651Y-24018952D01*
X7125604Y-24028476D01*
X7106556Y-24028476D01*
X7087508Y-24018952D01*
X7077985Y-24009428D01*
X7068461Y-23990381D01*
X7058937Y-23952286D01*
X7058937Y-23904667D01*
X7068461Y-23866571D01*
X7077985Y-23847524D01*
X7087508Y-23838000D01*
X7106556Y-23828476D01*
X7258937Y-24009428D02*
X7268461Y-24018952D01*
X7258937Y-24028476D01*
X7249413Y-24018952D01*
X7258937Y-24009428D01*
X7258937Y-24028476D01*
X7392270Y-23828476D02*
X7411318Y-23828476D01*
X7430366Y-23838000D01*
X7439889Y-23847524D01*
X7449413Y-23866571D01*
X7458937Y-23904667D01*
X7458937Y-23952286D01*
X7449413Y-23990381D01*
X7439889Y-24009428D01*
X7430366Y-24018952D01*
X7411318Y-24028476D01*
X7392270Y-24028476D01*
X7373223Y-24018952D01*
X7363699Y-24009428D01*
X7354175Y-23990381D01*
X7344651Y-23952286D01*
X7344651Y-23904667D01*
X7354175Y-23866571D01*
X7363699Y-23847524D01*
X7373223Y-23838000D01*
X7392270Y-23828476D01*
X7525604Y-23828476D02*
X7649413Y-23828476D01*
X7582747Y-23904667D01*
X7611318Y-23904667D01*
X7630366Y-23914190D01*
X7639889Y-23923714D01*
X7649413Y-23942762D01*
X7649413Y-23990381D01*
X7639889Y-24009428D01*
X7630366Y-24018952D01*
X7611318Y-24028476D01*
X7554175Y-24028476D01*
X7535128Y-24018952D01*
X7525604Y-24009428D01*
X7830366Y-23828476D02*
X7735128Y-23828476D01*
X7725604Y-23923714D01*
X7735128Y-23914190D01*
X7754175Y-23904667D01*
X7801794Y-23904667D01*
X7820842Y-23914190D01*
X7830366Y-23923714D01*
X7839889Y-23942762D01*
X7839889Y-23990381D01*
X7830366Y-24009428D01*
X7820842Y-24018952D01*
X7801794Y-24028476D01*
X7754175Y-24028476D01*
X7735128Y-24018952D01*
X7725604Y-24009428D01*
X8011318Y-23895143D02*
X8011318Y-24028476D01*
X7963699Y-23818952D02*
X7916080Y-23961809D01*
X8039889Y-23961809D01*
X8106556Y-23828476D02*
X8106556Y-23866571D01*
X8182747Y-23828476D02*
X8182747Y-23866571D01*
X8477985Y-24104667D02*
X8468461Y-24095143D01*
X8449413Y-24066571D01*
X8439890Y-24047524D01*
X8430366Y-24018952D01*
X8420842Y-23971333D01*
X8420842Y-23933238D01*
X8430366Y-23885619D01*
X8439890Y-23857048D01*
X8449413Y-23838000D01*
X8468461Y-23809428D01*
X8477985Y-23799905D01*
X8535128Y-23828476D02*
X8658937Y-23828476D01*
X8592270Y-23904667D01*
X8620842Y-23904667D01*
X8639890Y-23914190D01*
X8649413Y-23923714D01*
X8658937Y-23942762D01*
X8658937Y-23990381D01*
X8649413Y-24009428D01*
X8639890Y-24018952D01*
X8620842Y-24028476D01*
X8563699Y-24028476D01*
X8544651Y-24018952D01*
X8535128Y-24009428D01*
X8897032Y-24028476D02*
X8897032Y-23828476D01*
X8982747Y-24028476D02*
X8982747Y-23923714D01*
X8973223Y-23904667D01*
X8954175Y-23895143D01*
X8925604Y-23895143D01*
X8906556Y-23904667D01*
X8897032Y-23914190D01*
X9106556Y-24028476D02*
X9087509Y-24018952D01*
X9077985Y-24009428D01*
X9068461Y-23990381D01*
X9068461Y-23933238D01*
X9077985Y-23914190D01*
X9087509Y-23904667D01*
X9106556Y-23895143D01*
X9135128Y-23895143D01*
X9154175Y-23904667D01*
X9163699Y-23914190D01*
X9173223Y-23933238D01*
X9173223Y-23990381D01*
X9163699Y-24009428D01*
X9154175Y-24018952D01*
X9135128Y-24028476D01*
X9106556Y-24028476D01*
X9287509Y-24028476D02*
X9268461Y-24018952D01*
X9258937Y-23999905D01*
X9258937Y-23828476D01*
X9439890Y-24018952D02*
X9420842Y-24028476D01*
X9382747Y-24028476D01*
X9363699Y-24018952D01*
X9354175Y-23999905D01*
X9354175Y-23923714D01*
X9363699Y-23904667D01*
X9382747Y-23895143D01*
X9420842Y-23895143D01*
X9439890Y-23904667D01*
X9449413Y-23923714D01*
X9449413Y-23942762D01*
X9354175Y-23961809D01*
X9525604Y-24018952D02*
X9544651Y-24028476D01*
X9582747Y-24028476D01*
X9601794Y-24018952D01*
X9611318Y-23999905D01*
X9611318Y-23990381D01*
X9601794Y-23971333D01*
X9582747Y-23961809D01*
X9554175Y-23961809D01*
X9535128Y-23952286D01*
X9525604Y-23933238D01*
X9525604Y-23923714D01*
X9535128Y-23904667D01*
X9554175Y-23895143D01*
X9582747Y-23895143D01*
X9601794Y-23904667D01*
X9677985Y-24104667D02*
X9687509Y-24095143D01*
X9706556Y-24066571D01*
X9716080Y-24047524D01*
X9725604Y-24018952D01*
X9735128Y-23971333D01*
X9735128Y-23933238D01*
X9725604Y-23885619D01*
X9716080Y-23857048D01*
X9706556Y-23838000D01*
X9687509Y-23809428D01*
X9677985Y-23799905D01*
D17*
X4814080Y-24156000D02*
X4906080Y-24248000D01*
X4906080Y-24156000D02*
X4814080Y-24248000D01*
X4906080Y-24202000D02*
G75*
G03*
X4906080Y-24202000I-46000J0D01*
G01*
D11*
X5201794Y-24092476D02*
X5220842Y-24092476D01*
X5239890Y-24102000D01*
X5249413Y-24111524D01*
X5258937Y-24130571D01*
X5268461Y-24168667D01*
X5268461Y-24216286D01*
X5258937Y-24254381D01*
X5249413Y-24273428D01*
X5239890Y-24282952D01*
X5220842Y-24292476D01*
X5201794Y-24292476D01*
X5182747Y-24282952D01*
X5173223Y-24273428D01*
X5163699Y-24254381D01*
X5154175Y-24216286D01*
X5154175Y-24168667D01*
X5163699Y-24130571D01*
X5173223Y-24111524D01*
X5182747Y-24102000D01*
X5201794Y-24092476D01*
X5354175Y-24273428D02*
X5363699Y-24282952D01*
X5354175Y-24292476D01*
X5344651Y-24282952D01*
X5354175Y-24273428D01*
X5354175Y-24292476D01*
X5458937Y-24292476D02*
X5497032Y-24292476D01*
X5516080Y-24282952D01*
X5525604Y-24273428D01*
X5544651Y-24244857D01*
X5554175Y-24206762D01*
X5554175Y-24130571D01*
X5544651Y-24111524D01*
X5535128Y-24102000D01*
X5516080Y-24092476D01*
X5477985Y-24092476D01*
X5458937Y-24102000D01*
X5449413Y-24111524D01*
X5439890Y-24130571D01*
X5439890Y-24178190D01*
X5449413Y-24197238D01*
X5458937Y-24206762D01*
X5477985Y-24216286D01*
X5516080Y-24216286D01*
X5535128Y-24206762D01*
X5544651Y-24197238D01*
X5554175Y-24178190D01*
X5630366Y-24111524D02*
X5639889Y-24102000D01*
X5658937Y-24092476D01*
X5706556Y-24092476D01*
X5725604Y-24102000D01*
X5735128Y-24111524D01*
X5744651Y-24130571D01*
X5744651Y-24149619D01*
X5735128Y-24178190D01*
X5620842Y-24292476D01*
X5744651Y-24292476D01*
X5868461Y-24092476D02*
X5887508Y-24092476D01*
X5906556Y-24102000D01*
X5916080Y-24111524D01*
X5925604Y-24130571D01*
X5935128Y-24168667D01*
X5935128Y-24216286D01*
X5925604Y-24254381D01*
X5916080Y-24273428D01*
X5906556Y-24282952D01*
X5887508Y-24292476D01*
X5868461Y-24292476D01*
X5849413Y-24282952D01*
X5839889Y-24273428D01*
X5830366Y-24254381D01*
X5820842Y-24216286D01*
X5820842Y-24168667D01*
X5830366Y-24130571D01*
X5839889Y-24111524D01*
X5849413Y-24102000D01*
X5868461Y-24092476D01*
X6020842Y-24292476D02*
X6020842Y-24159143D01*
X6020842Y-24178190D02*
X6030366Y-24168667D01*
X6049413Y-24159143D01*
X6077985Y-24159143D01*
X6097032Y-24168667D01*
X6106556Y-24187714D01*
X6106556Y-24292476D01*
X6106556Y-24187714D02*
X6116080Y-24168667D01*
X6135128Y-24159143D01*
X6163699Y-24159143D01*
X6182747Y-24168667D01*
X6192270Y-24187714D01*
X6192270Y-24292476D01*
X6287508Y-24292476D02*
X6287508Y-24159143D01*
X6287508Y-24178190D02*
X6297032Y-24168667D01*
X6316080Y-24159143D01*
X6344651Y-24159143D01*
X6363699Y-24168667D01*
X6373223Y-24187714D01*
X6373223Y-24292476D01*
X6373223Y-24187714D02*
X6382747Y-24168667D01*
X6401794Y-24159143D01*
X6430366Y-24159143D01*
X6449413Y-24168667D01*
X6458937Y-24187714D01*
X6458937Y-24292476D01*
X6849413Y-24082952D02*
X6677985Y-24340095D01*
X7106556Y-24092476D02*
X7125604Y-24092476D01*
X7144651Y-24102000D01*
X7154175Y-24111524D01*
X7163699Y-24130571D01*
X7173223Y-24168667D01*
X7173223Y-24216286D01*
X7163699Y-24254381D01*
X7154175Y-24273428D01*
X7144651Y-24282952D01*
X7125604Y-24292476D01*
X7106556Y-24292476D01*
X7087508Y-24282952D01*
X7077985Y-24273428D01*
X7068461Y-24254381D01*
X7058937Y-24216286D01*
X7058937Y-24168667D01*
X7068461Y-24130571D01*
X7077985Y-24111524D01*
X7087508Y-24102000D01*
X7106556Y-24092476D01*
X7258937Y-24273428D02*
X7268461Y-24282952D01*
X7258937Y-24292476D01*
X7249413Y-24282952D01*
X7258937Y-24273428D01*
X7258937Y-24292476D01*
X7392270Y-24092476D02*
X7411318Y-24092476D01*
X7430366Y-24102000D01*
X7439889Y-24111524D01*
X7449413Y-24130571D01*
X7458937Y-24168667D01*
X7458937Y-24216286D01*
X7449413Y-24254381D01*
X7439889Y-24273428D01*
X7430366Y-24282952D01*
X7411318Y-24292476D01*
X7392270Y-24292476D01*
X7373223Y-24282952D01*
X7363699Y-24273428D01*
X7354175Y-24254381D01*
X7344651Y-24216286D01*
X7344651Y-24168667D01*
X7354175Y-24130571D01*
X7363699Y-24111524D01*
X7373223Y-24102000D01*
X7392270Y-24092476D01*
X7525604Y-24092476D02*
X7649413Y-24092476D01*
X7582747Y-24168667D01*
X7611318Y-24168667D01*
X7630366Y-24178190D01*
X7639889Y-24187714D01*
X7649413Y-24206762D01*
X7649413Y-24254381D01*
X7639889Y-24273428D01*
X7630366Y-24282952D01*
X7611318Y-24292476D01*
X7554175Y-24292476D01*
X7535128Y-24282952D01*
X7525604Y-24273428D01*
X7820842Y-24092476D02*
X7782747Y-24092476D01*
X7763699Y-24102000D01*
X7754175Y-24111524D01*
X7735128Y-24140095D01*
X7725604Y-24178190D01*
X7725604Y-24254381D01*
X7735128Y-24273428D01*
X7744651Y-24282952D01*
X7763699Y-24292476D01*
X7801794Y-24292476D01*
X7820842Y-24282952D01*
X7830366Y-24273428D01*
X7839889Y-24254381D01*
X7839889Y-24206762D01*
X7830366Y-24187714D01*
X7820842Y-24178190D01*
X7801794Y-24168667D01*
X7763699Y-24168667D01*
X7744651Y-24178190D01*
X7735128Y-24187714D01*
X7725604Y-24206762D01*
X7916080Y-24111524D02*
X7925604Y-24102000D01*
X7944651Y-24092476D01*
X7992270Y-24092476D01*
X8011318Y-24102000D01*
X8020842Y-24111524D01*
X8030366Y-24130571D01*
X8030366Y-24149619D01*
X8020842Y-24178190D01*
X7906556Y-24292476D01*
X8030366Y-24292476D01*
X8106556Y-24092476D02*
X8106556Y-24130571D01*
X8182747Y-24092476D02*
X8182747Y-24130571D01*
X8477985Y-24368667D02*
X8468461Y-24359143D01*
X8449413Y-24330571D01*
X8439890Y-24311524D01*
X8430366Y-24282952D01*
X8420842Y-24235333D01*
X8420842Y-24197238D01*
X8430366Y-24149619D01*
X8439890Y-24121048D01*
X8449413Y-24102000D01*
X8468461Y-24073428D01*
X8477985Y-24063905D01*
X8535128Y-24092476D02*
X8658937Y-24092476D01*
X8592270Y-24168667D01*
X8620842Y-24168667D01*
X8639890Y-24178190D01*
X8649413Y-24187714D01*
X8658937Y-24206762D01*
X8658937Y-24254381D01*
X8649413Y-24273428D01*
X8639890Y-24282952D01*
X8620842Y-24292476D01*
X8563699Y-24292476D01*
X8544651Y-24282952D01*
X8535128Y-24273428D01*
X8735128Y-24111524D02*
X8744651Y-24102000D01*
X8763699Y-24092476D01*
X8811318Y-24092476D01*
X8830366Y-24102000D01*
X8839890Y-24111524D01*
X8849413Y-24130571D01*
X8849413Y-24149619D01*
X8839890Y-24178190D01*
X8725604Y-24292476D01*
X8849413Y-24292476D01*
X9087509Y-24292476D02*
X9087509Y-24092476D01*
X9173223Y-24292476D02*
X9173223Y-24187714D01*
X9163699Y-24168667D01*
X9144651Y-24159143D01*
X9116080Y-24159143D01*
X9097032Y-24168667D01*
X9087509Y-24178190D01*
X9297032Y-24292476D02*
X9277985Y-24282952D01*
X9268461Y-24273428D01*
X9258937Y-24254381D01*
X9258937Y-24197238D01*
X9268461Y-24178190D01*
X9277985Y-24168667D01*
X9297032Y-24159143D01*
X9325604Y-24159143D01*
X9344651Y-24168667D01*
X9354175Y-24178190D01*
X9363699Y-24197238D01*
X9363699Y-24254381D01*
X9354175Y-24273428D01*
X9344651Y-24282952D01*
X9325604Y-24292476D01*
X9297032Y-24292476D01*
X9477985Y-24292476D02*
X9458937Y-24282952D01*
X9449413Y-24263905D01*
X9449413Y-24092476D01*
X9630366Y-24282952D02*
X9611318Y-24292476D01*
X9573223Y-24292476D01*
X9554175Y-24282952D01*
X9544651Y-24263905D01*
X9544651Y-24187714D01*
X9554175Y-24168667D01*
X9573223Y-24159143D01*
X9611318Y-24159143D01*
X9630366Y-24168667D01*
X9639890Y-24187714D01*
X9639890Y-24206762D01*
X9544651Y-24225809D01*
X9716080Y-24282952D02*
X9735128Y-24292476D01*
X9773223Y-24292476D01*
X9792270Y-24282952D01*
X9801794Y-24263905D01*
X9801794Y-24254381D01*
X9792270Y-24235333D01*
X9773223Y-24225809D01*
X9744651Y-24225809D01*
X9725604Y-24216286D01*
X9716080Y-24197238D01*
X9716080Y-24187714D01*
X9725604Y-24168667D01*
X9744651Y-24159143D01*
X9773223Y-24159143D01*
X9792270Y-24168667D01*
X9868461Y-24368667D02*
X9877985Y-24359143D01*
X9897032Y-24330571D01*
X9906556Y-24311524D01*
X9916080Y-24282952D01*
X9925604Y-24235333D01*
X9925604Y-24197238D01*
X9916080Y-24149619D01*
X9906556Y-24121048D01*
X9897032Y-24102000D01*
X9877985Y-24073428D01*
X9868461Y-24063905D01*
D10*
X4806080Y-24416000D02*
X4906080Y-24516000D01*
X4906080Y-24416000D02*
X4806080Y-24516000D01*
X4856080Y-24416000D02*
X4856080Y-24516000D01*
X4806080Y-24466000D02*
X4906080Y-24466000D01*
D11*
X5268461Y-24556476D02*
X5154175Y-24556476D01*
X5211318Y-24556476D02*
X5211318Y-24356476D01*
X5192270Y-24385048D01*
X5173223Y-24404095D01*
X5154175Y-24413619D01*
X5354175Y-24537428D02*
X5363699Y-24546952D01*
X5354175Y-24556476D01*
X5344651Y-24546952D01*
X5354175Y-24537428D01*
X5354175Y-24556476D01*
X5487509Y-24356476D02*
X5506556Y-24356476D01*
X5525604Y-24366000D01*
X5535128Y-24375524D01*
X5544651Y-24394571D01*
X5554175Y-24432667D01*
X5554175Y-24480286D01*
X5544651Y-24518381D01*
X5535128Y-24537428D01*
X5525604Y-24546952D01*
X5506556Y-24556476D01*
X5487509Y-24556476D01*
X5468461Y-24546952D01*
X5458937Y-24537428D01*
X5449413Y-24518381D01*
X5439890Y-24480286D01*
X5439890Y-24432667D01*
X5449413Y-24394571D01*
X5458937Y-24375524D01*
X5468461Y-24366000D01*
X5487509Y-24356476D01*
X5677985Y-24356476D02*
X5697032Y-24356476D01*
X5716080Y-24366000D01*
X5725604Y-24375524D01*
X5735128Y-24394571D01*
X5744651Y-24432667D01*
X5744651Y-24480286D01*
X5735128Y-24518381D01*
X5725604Y-24537428D01*
X5716080Y-24546952D01*
X5697032Y-24556476D01*
X5677985Y-24556476D01*
X5658937Y-24546952D01*
X5649413Y-24537428D01*
X5639889Y-24518381D01*
X5630366Y-24480286D01*
X5630366Y-24432667D01*
X5639889Y-24394571D01*
X5649413Y-24375524D01*
X5658937Y-24366000D01*
X5677985Y-24356476D01*
X5868461Y-24356476D02*
X5887508Y-24356476D01*
X5906556Y-24366000D01*
X5916080Y-24375524D01*
X5925604Y-24394571D01*
X5935128Y-24432667D01*
X5935128Y-24480286D01*
X5925604Y-24518381D01*
X5916080Y-24537428D01*
X5906556Y-24546952D01*
X5887508Y-24556476D01*
X5868461Y-24556476D01*
X5849413Y-24546952D01*
X5839889Y-24537428D01*
X5830366Y-24518381D01*
X5820842Y-24480286D01*
X5820842Y-24432667D01*
X5830366Y-24394571D01*
X5839889Y-24375524D01*
X5849413Y-24366000D01*
X5868461Y-24356476D01*
X6020842Y-24556476D02*
X6020842Y-24423143D01*
X6020842Y-24442190D02*
X6030366Y-24432667D01*
X6049413Y-24423143D01*
X6077985Y-24423143D01*
X6097032Y-24432667D01*
X6106556Y-24451714D01*
X6106556Y-24556476D01*
X6106556Y-24451714D02*
X6116080Y-24432667D01*
X6135128Y-24423143D01*
X6163699Y-24423143D01*
X6182747Y-24432667D01*
X6192270Y-24451714D01*
X6192270Y-24556476D01*
X6287508Y-24556476D02*
X6287508Y-24423143D01*
X6287508Y-24442190D02*
X6297032Y-24432667D01*
X6316080Y-24423143D01*
X6344651Y-24423143D01*
X6363699Y-24432667D01*
X6373223Y-24451714D01*
X6373223Y-24556476D01*
X6373223Y-24451714D02*
X6382747Y-24432667D01*
X6401794Y-24423143D01*
X6430366Y-24423143D01*
X6449413Y-24432667D01*
X6458937Y-24451714D01*
X6458937Y-24556476D01*
X6849413Y-24346952D02*
X6677985Y-24604095D01*
X7106556Y-24356476D02*
X7125604Y-24356476D01*
X7144651Y-24366000D01*
X7154175Y-24375524D01*
X7163699Y-24394571D01*
X7173223Y-24432667D01*
X7173223Y-24480286D01*
X7163699Y-24518381D01*
X7154175Y-24537428D01*
X7144651Y-24546952D01*
X7125604Y-24556476D01*
X7106556Y-24556476D01*
X7087508Y-24546952D01*
X7077985Y-24537428D01*
X7068461Y-24518381D01*
X7058937Y-24480286D01*
X7058937Y-24432667D01*
X7068461Y-24394571D01*
X7077985Y-24375524D01*
X7087508Y-24366000D01*
X7106556Y-24356476D01*
X7258937Y-24537428D02*
X7268461Y-24546952D01*
X7258937Y-24556476D01*
X7249413Y-24546952D01*
X7258937Y-24537428D01*
X7258937Y-24556476D01*
X7392270Y-24356476D02*
X7411318Y-24356476D01*
X7430366Y-24366000D01*
X7439889Y-24375524D01*
X7449413Y-24394571D01*
X7458937Y-24432667D01*
X7458937Y-24480286D01*
X7449413Y-24518381D01*
X7439889Y-24537428D01*
X7430366Y-24546952D01*
X7411318Y-24556476D01*
X7392270Y-24556476D01*
X7373223Y-24546952D01*
X7363699Y-24537428D01*
X7354175Y-24518381D01*
X7344651Y-24480286D01*
X7344651Y-24432667D01*
X7354175Y-24394571D01*
X7363699Y-24375524D01*
X7373223Y-24366000D01*
X7392270Y-24356476D01*
X7525604Y-24356476D02*
X7649413Y-24356476D01*
X7582747Y-24432667D01*
X7611318Y-24432667D01*
X7630366Y-24442190D01*
X7639889Y-24451714D01*
X7649413Y-24470762D01*
X7649413Y-24518381D01*
X7639889Y-24537428D01*
X7630366Y-24546952D01*
X7611318Y-24556476D01*
X7554175Y-24556476D01*
X7535128Y-24546952D01*
X7525604Y-24537428D01*
X7744651Y-24556476D02*
X7782747Y-24556476D01*
X7801794Y-24546952D01*
X7811318Y-24537428D01*
X7830366Y-24508857D01*
X7839889Y-24470762D01*
X7839889Y-24394571D01*
X7830366Y-24375524D01*
X7820842Y-24366000D01*
X7801794Y-24356476D01*
X7763699Y-24356476D01*
X7744651Y-24366000D01*
X7735128Y-24375524D01*
X7725604Y-24394571D01*
X7725604Y-24442190D01*
X7735128Y-24461238D01*
X7744651Y-24470762D01*
X7763699Y-24480286D01*
X7801794Y-24480286D01*
X7820842Y-24470762D01*
X7830366Y-24461238D01*
X7839889Y-24442190D01*
X8011318Y-24423143D02*
X8011318Y-24556476D01*
X7963699Y-24346952D02*
X7916080Y-24489809D01*
X8039889Y-24489809D01*
X8106556Y-24356476D02*
X8106556Y-24394571D01*
X8182747Y-24356476D02*
X8182747Y-24394571D01*
X8477985Y-24632667D02*
X8468461Y-24623143D01*
X8449413Y-24594571D01*
X8439890Y-24575524D01*
X8430366Y-24546952D01*
X8420842Y-24499333D01*
X8420842Y-24461238D01*
X8430366Y-24413619D01*
X8439890Y-24385048D01*
X8449413Y-24366000D01*
X8468461Y-24337428D01*
X8477985Y-24327905D01*
X8582747Y-24442190D02*
X8563699Y-24432667D01*
X8554175Y-24423143D01*
X8544651Y-24404095D01*
X8544651Y-24394571D01*
X8554175Y-24375524D01*
X8563699Y-24366000D01*
X8582747Y-24356476D01*
X8620842Y-24356476D01*
X8639890Y-24366000D01*
X8649413Y-24375524D01*
X8658937Y-24394571D01*
X8658937Y-24404095D01*
X8649413Y-24423143D01*
X8639890Y-24432667D01*
X8620842Y-24442190D01*
X8582747Y-24442190D01*
X8563699Y-24451714D01*
X8554175Y-24461238D01*
X8544651Y-24480286D01*
X8544651Y-24518381D01*
X8554175Y-24537428D01*
X8563699Y-24546952D01*
X8582747Y-24556476D01*
X8620842Y-24556476D01*
X8639890Y-24546952D01*
X8649413Y-24537428D01*
X8658937Y-24518381D01*
X8658937Y-24480286D01*
X8649413Y-24461238D01*
X8639890Y-24451714D01*
X8620842Y-24442190D01*
X8897032Y-24556476D02*
X8897032Y-24356476D01*
X8982747Y-24556476D02*
X8982747Y-24451714D01*
X8973223Y-24432667D01*
X8954175Y-24423143D01*
X8925604Y-24423143D01*
X8906556Y-24432667D01*
X8897032Y-24442190D01*
X9106556Y-24556476D02*
X9087509Y-24546952D01*
X9077985Y-24537428D01*
X9068461Y-24518381D01*
X9068461Y-24461238D01*
X9077985Y-24442190D01*
X9087509Y-24432667D01*
X9106556Y-24423143D01*
X9135128Y-24423143D01*
X9154175Y-24432667D01*
X9163699Y-24442190D01*
X9173223Y-24461238D01*
X9173223Y-24518381D01*
X9163699Y-24537428D01*
X9154175Y-24546952D01*
X9135128Y-24556476D01*
X9106556Y-24556476D01*
X9287509Y-24556476D02*
X9268461Y-24546952D01*
X9258937Y-24527905D01*
X9258937Y-24356476D01*
X9439890Y-24546952D02*
X9420842Y-24556476D01*
X9382747Y-24556476D01*
X9363699Y-24546952D01*
X9354175Y-24527905D01*
X9354175Y-24451714D01*
X9363699Y-24432667D01*
X9382747Y-24423143D01*
X9420842Y-24423143D01*
X9439890Y-24432667D01*
X9449413Y-24451714D01*
X9449413Y-24470762D01*
X9354175Y-24489809D01*
X9525604Y-24546952D02*
X9544651Y-24556476D01*
X9582747Y-24556476D01*
X9601794Y-24546952D01*
X9611318Y-24527905D01*
X9611318Y-24518381D01*
X9601794Y-24499333D01*
X9582747Y-24489809D01*
X9554175Y-24489809D01*
X9535128Y-24480286D01*
X9525604Y-24461238D01*
X9525604Y-24451714D01*
X9535128Y-24432667D01*
X9554175Y-24423143D01*
X9582747Y-24423143D01*
X9601794Y-24432667D01*
X9677985Y-24632667D02*
X9687509Y-24623143D01*
X9706556Y-24594571D01*
X9716080Y-24575524D01*
X9725604Y-24546952D01*
X9735128Y-24499333D01*
X9735128Y-24461238D01*
X9725604Y-24413619D01*
X9716080Y-24385048D01*
X9706556Y-24366000D01*
X9687509Y-24337428D01*
X9677985Y-24327905D01*
D18*
X4802080Y-24678000D02*
X4906080Y-24782000D01*
X4906080Y-24678000D02*
X4802080Y-24782000D01*
X4890850Y-24766770D02*
X4890850Y-24693230D01*
X4817310Y-24693230D01*
X4817310Y-24766770D01*
X4890850Y-24766770D01*
D11*
X5268461Y-24820476D02*
X5154175Y-24820476D01*
X5211318Y-24820476D02*
X5211318Y-24620476D01*
X5192270Y-24649048D01*
X5173223Y-24668095D01*
X5154175Y-24677619D01*
X5354175Y-24801428D02*
X5363699Y-24810952D01*
X5354175Y-24820476D01*
X5344651Y-24810952D01*
X5354175Y-24801428D01*
X5354175Y-24820476D01*
X5487509Y-24620476D02*
X5506556Y-24620476D01*
X5525604Y-24630000D01*
X5535128Y-24639524D01*
X5544651Y-24658571D01*
X5554175Y-24696667D01*
X5554175Y-24744286D01*
X5544651Y-24782381D01*
X5535128Y-24801428D01*
X5525604Y-24810952D01*
X5506556Y-24820476D01*
X5487509Y-24820476D01*
X5468461Y-24810952D01*
X5458937Y-24801428D01*
X5449413Y-24782381D01*
X5439890Y-24744286D01*
X5439890Y-24696667D01*
X5449413Y-24658571D01*
X5458937Y-24639524D01*
X5468461Y-24630000D01*
X5487509Y-24620476D01*
X5725604Y-24687143D02*
X5725604Y-24820476D01*
X5677985Y-24610952D02*
X5630366Y-24753809D01*
X5754175Y-24753809D01*
X5868461Y-24620476D02*
X5887508Y-24620476D01*
X5906556Y-24630000D01*
X5916080Y-24639524D01*
X5925604Y-24658571D01*
X5935128Y-24696667D01*
X5935128Y-24744286D01*
X5925604Y-24782381D01*
X5916080Y-24801428D01*
X5906556Y-24810952D01*
X5887508Y-24820476D01*
X5868461Y-24820476D01*
X5849413Y-24810952D01*
X5839889Y-24801428D01*
X5830366Y-24782381D01*
X5820842Y-24744286D01*
X5820842Y-24696667D01*
X5830366Y-24658571D01*
X5839889Y-24639524D01*
X5849413Y-24630000D01*
X5868461Y-24620476D01*
X6020842Y-24820476D02*
X6020842Y-24687143D01*
X6020842Y-24706190D02*
X6030366Y-24696667D01*
X6049413Y-24687143D01*
X6077985Y-24687143D01*
X6097032Y-24696667D01*
X6106556Y-24715714D01*
X6106556Y-24820476D01*
X6106556Y-24715714D02*
X6116080Y-24696667D01*
X6135128Y-24687143D01*
X6163699Y-24687143D01*
X6182747Y-24696667D01*
X6192270Y-24715714D01*
X6192270Y-24820476D01*
X6287508Y-24820476D02*
X6287508Y-24687143D01*
X6287508Y-24706190D02*
X6297032Y-24696667D01*
X6316080Y-24687143D01*
X6344651Y-24687143D01*
X6363699Y-24696667D01*
X6373223Y-24715714D01*
X6373223Y-24820476D01*
X6373223Y-24715714D02*
X6382747Y-24696667D01*
X6401794Y-24687143D01*
X6430366Y-24687143D01*
X6449413Y-24696667D01*
X6458937Y-24715714D01*
X6458937Y-24820476D01*
X6849413Y-24610952D02*
X6677985Y-24868095D01*
X7106556Y-24620476D02*
X7125604Y-24620476D01*
X7144651Y-24630000D01*
X7154175Y-24639524D01*
X7163699Y-24658571D01*
X7173223Y-24696667D01*
X7173223Y-24744286D01*
X7163699Y-24782381D01*
X7154175Y-24801428D01*
X7144651Y-24810952D01*
X7125604Y-24820476D01*
X7106556Y-24820476D01*
X7087508Y-24810952D01*
X7077985Y-24801428D01*
X7068461Y-24782381D01*
X7058937Y-24744286D01*
X7058937Y-24696667D01*
X7068461Y-24658571D01*
X7077985Y-24639524D01*
X7087508Y-24630000D01*
X7106556Y-24620476D01*
X7258937Y-24801428D02*
X7268461Y-24810952D01*
X7258937Y-24820476D01*
X7249413Y-24810952D01*
X7258937Y-24801428D01*
X7258937Y-24820476D01*
X7392270Y-24620476D02*
X7411318Y-24620476D01*
X7430366Y-24630000D01*
X7439889Y-24639524D01*
X7449413Y-24658571D01*
X7458937Y-24696667D01*
X7458937Y-24744286D01*
X7449413Y-24782381D01*
X7439889Y-24801428D01*
X7430366Y-24810952D01*
X7411318Y-24820476D01*
X7392270Y-24820476D01*
X7373223Y-24810952D01*
X7363699Y-24801428D01*
X7354175Y-24782381D01*
X7344651Y-24744286D01*
X7344651Y-24696667D01*
X7354175Y-24658571D01*
X7363699Y-24639524D01*
X7373223Y-24630000D01*
X7392270Y-24620476D01*
X7630366Y-24687143D02*
X7630366Y-24820476D01*
X7582747Y-24610952D02*
X7535128Y-24753809D01*
X7658937Y-24753809D01*
X7773223Y-24620476D02*
X7792270Y-24620476D01*
X7811318Y-24630000D01*
X7820842Y-24639524D01*
X7830366Y-24658571D01*
X7839889Y-24696667D01*
X7839889Y-24744286D01*
X7830366Y-24782381D01*
X7820842Y-24801428D01*
X7811318Y-24810952D01*
X7792270Y-24820476D01*
X7773223Y-24820476D01*
X7754175Y-24810952D01*
X7744651Y-24801428D01*
X7735128Y-24782381D01*
X7725604Y-24744286D01*
X7725604Y-24696667D01*
X7735128Y-24658571D01*
X7744651Y-24639524D01*
X7754175Y-24630000D01*
X7773223Y-24620476D01*
X7935128Y-24820476D02*
X7973223Y-24820476D01*
X7992270Y-24810952D01*
X8001794Y-24801428D01*
X8020842Y-24772857D01*
X8030366Y-24734762D01*
X8030366Y-24658571D01*
X8020842Y-24639524D01*
X8011318Y-24630000D01*
X7992270Y-24620476D01*
X7954175Y-24620476D01*
X7935128Y-24630000D01*
X7925604Y-24639524D01*
X7916080Y-24658571D01*
X7916080Y-24706190D01*
X7925604Y-24725238D01*
X7935128Y-24734762D01*
X7954175Y-24744286D01*
X7992270Y-24744286D01*
X8011318Y-24734762D01*
X8020842Y-24725238D01*
X8030366Y-24706190D01*
X8106556Y-24620476D02*
X8106556Y-24658571D01*
X8182747Y-24620476D02*
X8182747Y-24658571D01*
X8477985Y-24896667D02*
X8468461Y-24887143D01*
X8449413Y-24858571D01*
X8439890Y-24839524D01*
X8430366Y-24810952D01*
X8420842Y-24763333D01*
X8420842Y-24725238D01*
X8430366Y-24677619D01*
X8439890Y-24649048D01*
X8449413Y-24630000D01*
X8468461Y-24601428D01*
X8477985Y-24591905D01*
X8535128Y-24620476D02*
X8658937Y-24620476D01*
X8592270Y-24696667D01*
X8620842Y-24696667D01*
X8639890Y-24706190D01*
X8649413Y-24715714D01*
X8658937Y-24734762D01*
X8658937Y-24782381D01*
X8649413Y-24801428D01*
X8639890Y-24810952D01*
X8620842Y-24820476D01*
X8563699Y-24820476D01*
X8544651Y-24810952D01*
X8535128Y-24801428D01*
X8773223Y-24706190D02*
X8754175Y-24696667D01*
X8744651Y-24687143D01*
X8735128Y-24668095D01*
X8735128Y-24658571D01*
X8744651Y-24639524D01*
X8754175Y-24630000D01*
X8773223Y-24620476D01*
X8811318Y-24620476D01*
X8830366Y-24630000D01*
X8839890Y-24639524D01*
X8849413Y-24658571D01*
X8849413Y-24668095D01*
X8839890Y-24687143D01*
X8830366Y-24696667D01*
X8811318Y-24706190D01*
X8773223Y-24706190D01*
X8754175Y-24715714D01*
X8744651Y-24725238D01*
X8735128Y-24744286D01*
X8735128Y-24782381D01*
X8744651Y-24801428D01*
X8754175Y-24810952D01*
X8773223Y-24820476D01*
X8811318Y-24820476D01*
X8830366Y-24810952D01*
X8839890Y-24801428D01*
X8849413Y-24782381D01*
X8849413Y-24744286D01*
X8839890Y-24725238D01*
X8830366Y-24715714D01*
X8811318Y-24706190D01*
X9087509Y-24820476D02*
X9087509Y-24620476D01*
X9173223Y-24820476D02*
X9173223Y-24715714D01*
X9163699Y-24696667D01*
X9144651Y-24687143D01*
X9116080Y-24687143D01*
X9097032Y-24696667D01*
X9087509Y-24706190D01*
X9297032Y-24820476D02*
X9277985Y-24810952D01*
X9268461Y-24801428D01*
X9258937Y-24782381D01*
X9258937Y-24725238D01*
X9268461Y-24706190D01*
X9277985Y-24696667D01*
X9297032Y-24687143D01*
X9325604Y-24687143D01*
X9344651Y-24696667D01*
X9354175Y-24706190D01*
X9363699Y-24725238D01*
X9363699Y-24782381D01*
X9354175Y-24801428D01*
X9344651Y-24810952D01*
X9325604Y-24820476D01*
X9297032Y-24820476D01*
X9477985Y-24820476D02*
X9458937Y-24810952D01*
X9449413Y-24791905D01*
X9449413Y-24620476D01*
X9630366Y-24810952D02*
X9611318Y-24820476D01*
X9573223Y-24820476D01*
X9554175Y-24810952D01*
X9544651Y-24791905D01*
X9544651Y-24715714D01*
X9554175Y-24696667D01*
X9573223Y-24687143D01*
X9611318Y-24687143D01*
X9630366Y-24696667D01*
X9639890Y-24715714D01*
X9639890Y-24734762D01*
X9544651Y-24753809D01*
X9716080Y-24810952D02*
X9735128Y-24820476D01*
X9773223Y-24820476D01*
X9792270Y-24810952D01*
X9801794Y-24791905D01*
X9801794Y-24782381D01*
X9792270Y-24763333D01*
X9773223Y-24753809D01*
X9744651Y-24753809D01*
X9725604Y-24744286D01*
X9716080Y-24725238D01*
X9716080Y-24715714D01*
X9725604Y-24696667D01*
X9744651Y-24687143D01*
X9773223Y-24687143D01*
X9792270Y-24696667D01*
X9868461Y-24896667D02*
X9877985Y-24887143D01*
X9897032Y-24858571D01*
X9906556Y-24839524D01*
X9916080Y-24810952D01*
X9925604Y-24763333D01*
X9925604Y-24725238D01*
X9916080Y-24677619D01*
X9906556Y-24649048D01*
X9897032Y-24630000D01*
X9877985Y-24601428D01*
X9868461Y-24591905D01*
D19*
X4796080Y-24939000D02*
X4906080Y-25049000D01*
X4906080Y-24939000D02*
X4796080Y-25049000D01*
X4851080Y-25049000D02*
X4906080Y-24994000D01*
X4851080Y-24939000D01*
X4796080Y-24994000D01*
X4851080Y-25049000D01*
D11*
X5268461Y-25084476D02*
X5154175Y-25084476D01*
X5211318Y-25084476D02*
X5211318Y-24884476D01*
X5192270Y-24913048D01*
X5173223Y-24932095D01*
X5154175Y-24941619D01*
X5354175Y-25065428D02*
X5363699Y-25074952D01*
X5354175Y-25084476D01*
X5344651Y-25074952D01*
X5354175Y-25065428D01*
X5354175Y-25084476D01*
X5554175Y-25084476D02*
X5439890Y-25084476D01*
X5497032Y-25084476D02*
X5497032Y-24884476D01*
X5477985Y-24913048D01*
X5458937Y-24932095D01*
X5439890Y-24941619D01*
X5677985Y-24884476D02*
X5697032Y-24884476D01*
X5716080Y-24894000D01*
X5725604Y-24903524D01*
X5735128Y-24922571D01*
X5744651Y-24960667D01*
X5744651Y-25008286D01*
X5735128Y-25046381D01*
X5725604Y-25065428D01*
X5716080Y-25074952D01*
X5697032Y-25084476D01*
X5677985Y-25084476D01*
X5658937Y-25074952D01*
X5649413Y-25065428D01*
X5639889Y-25046381D01*
X5630366Y-25008286D01*
X5630366Y-24960667D01*
X5639889Y-24922571D01*
X5649413Y-24903524D01*
X5658937Y-24894000D01*
X5677985Y-24884476D01*
X5868461Y-24884476D02*
X5887508Y-24884476D01*
X5906556Y-24894000D01*
X5916080Y-24903524D01*
X5925604Y-24922571D01*
X5935128Y-24960667D01*
X5935128Y-25008286D01*
X5925604Y-25046381D01*
X5916080Y-25065428D01*
X5906556Y-25074952D01*
X5887508Y-25084476D01*
X5868461Y-25084476D01*
X5849413Y-25074952D01*
X5839889Y-25065428D01*
X5830366Y-25046381D01*
X5820842Y-25008286D01*
X5820842Y-24960667D01*
X5830366Y-24922571D01*
X5839889Y-24903524D01*
X5849413Y-24894000D01*
X5868461Y-24884476D01*
X6020842Y-25084476D02*
X6020842Y-24951143D01*
X6020842Y-24970190D02*
X6030366Y-24960667D01*
X6049413Y-24951143D01*
X6077985Y-24951143D01*
X6097032Y-24960667D01*
X6106556Y-24979714D01*
X6106556Y-25084476D01*
X6106556Y-24979714D02*
X6116080Y-24960667D01*
X6135128Y-24951143D01*
X6163699Y-24951143D01*
X6182747Y-24960667D01*
X6192270Y-24979714D01*
X6192270Y-25084476D01*
X6287508Y-25084476D02*
X6287508Y-24951143D01*
X6287508Y-24970190D02*
X6297032Y-24960667D01*
X6316080Y-24951143D01*
X6344651Y-24951143D01*
X6363699Y-24960667D01*
X6373223Y-24979714D01*
X6373223Y-25084476D01*
X6373223Y-24979714D02*
X6382747Y-24960667D01*
X6401794Y-24951143D01*
X6430366Y-24951143D01*
X6449413Y-24960667D01*
X6458937Y-24979714D01*
X6458937Y-25084476D01*
X6849413Y-24874952D02*
X6677985Y-25132095D01*
X7106556Y-24884476D02*
X7125604Y-24884476D01*
X7144651Y-24894000D01*
X7154175Y-24903524D01*
X7163699Y-24922571D01*
X7173223Y-24960667D01*
X7173223Y-25008286D01*
X7163699Y-25046381D01*
X7154175Y-25065428D01*
X7144651Y-25074952D01*
X7125604Y-25084476D01*
X7106556Y-25084476D01*
X7087508Y-25074952D01*
X7077985Y-25065428D01*
X7068461Y-25046381D01*
X7058937Y-25008286D01*
X7058937Y-24960667D01*
X7068461Y-24922571D01*
X7077985Y-24903524D01*
X7087508Y-24894000D01*
X7106556Y-24884476D01*
X7258937Y-25065428D02*
X7268461Y-25074952D01*
X7258937Y-25084476D01*
X7249413Y-25074952D01*
X7258937Y-25065428D01*
X7258937Y-25084476D01*
X7392270Y-24884476D02*
X7411318Y-24884476D01*
X7430366Y-24894000D01*
X7439889Y-24903524D01*
X7449413Y-24922571D01*
X7458937Y-24960667D01*
X7458937Y-25008286D01*
X7449413Y-25046381D01*
X7439889Y-25065428D01*
X7430366Y-25074952D01*
X7411318Y-25084476D01*
X7392270Y-25084476D01*
X7373223Y-25074952D01*
X7363699Y-25065428D01*
X7354175Y-25046381D01*
X7344651Y-25008286D01*
X7344651Y-24960667D01*
X7354175Y-24922571D01*
X7363699Y-24903524D01*
X7373223Y-24894000D01*
X7392270Y-24884476D01*
X7630366Y-24951143D02*
X7630366Y-25084476D01*
X7582747Y-24874952D02*
X7535128Y-25017809D01*
X7658937Y-25017809D01*
X7716080Y-24884476D02*
X7839889Y-24884476D01*
X7773223Y-24960667D01*
X7801794Y-24960667D01*
X7820842Y-24970190D01*
X7830366Y-24979714D01*
X7839889Y-24998762D01*
X7839889Y-25046381D01*
X7830366Y-25065428D01*
X7820842Y-25074952D01*
X7801794Y-25084476D01*
X7744651Y-25084476D01*
X7725604Y-25074952D01*
X7716080Y-25065428D01*
X7906556Y-24884476D02*
X8030366Y-24884476D01*
X7963699Y-24960667D01*
X7992270Y-24960667D01*
X8011318Y-24970190D01*
X8020842Y-24979714D01*
X8030366Y-24998762D01*
X8030366Y-25046381D01*
X8020842Y-25065428D01*
X8011318Y-25074952D01*
X7992270Y-25084476D01*
X7935128Y-25084476D01*
X7916080Y-25074952D01*
X7906556Y-25065428D01*
X8106556Y-24884476D02*
X8106556Y-24922571D01*
X8182747Y-24884476D02*
X8182747Y-24922571D01*
X8477985Y-25160667D02*
X8468461Y-25151143D01*
X8449413Y-25122571D01*
X8439890Y-25103524D01*
X8430366Y-25074952D01*
X8420842Y-25027333D01*
X8420842Y-24989238D01*
X8430366Y-24941619D01*
X8439890Y-24913048D01*
X8449413Y-24894000D01*
X8468461Y-24865428D01*
X8477985Y-24855905D01*
X8582747Y-24970190D02*
X8563699Y-24960667D01*
X8554175Y-24951143D01*
X8544651Y-24932095D01*
X8544651Y-24922571D01*
X8554175Y-24903524D01*
X8563699Y-24894000D01*
X8582747Y-24884476D01*
X8620842Y-24884476D01*
X8639890Y-24894000D01*
X8649413Y-24903524D01*
X8658937Y-24922571D01*
X8658937Y-24932095D01*
X8649413Y-24951143D01*
X8639890Y-24960667D01*
X8620842Y-24970190D01*
X8582747Y-24970190D01*
X8563699Y-24979714D01*
X8554175Y-24989238D01*
X8544651Y-25008286D01*
X8544651Y-25046381D01*
X8554175Y-25065428D01*
X8563699Y-25074952D01*
X8582747Y-25084476D01*
X8620842Y-25084476D01*
X8639890Y-25074952D01*
X8649413Y-25065428D01*
X8658937Y-25046381D01*
X8658937Y-25008286D01*
X8649413Y-24989238D01*
X8639890Y-24979714D01*
X8620842Y-24970190D01*
X8897032Y-25084476D02*
X8897032Y-24884476D01*
X8982747Y-25084476D02*
X8982747Y-24979714D01*
X8973223Y-24960667D01*
X8954175Y-24951143D01*
X8925604Y-24951143D01*
X8906556Y-24960667D01*
X8897032Y-24970190D01*
X9106556Y-25084476D02*
X9087509Y-25074952D01*
X9077985Y-25065428D01*
X9068461Y-25046381D01*
X9068461Y-24989238D01*
X9077985Y-24970190D01*
X9087509Y-24960667D01*
X9106556Y-24951143D01*
X9135128Y-24951143D01*
X9154175Y-24960667D01*
X9163699Y-24970190D01*
X9173223Y-24989238D01*
X9173223Y-25046381D01*
X9163699Y-25065428D01*
X9154175Y-25074952D01*
X9135128Y-25084476D01*
X9106556Y-25084476D01*
X9287509Y-25084476D02*
X9268461Y-25074952D01*
X9258937Y-25055905D01*
X9258937Y-24884476D01*
X9439890Y-25074952D02*
X9420842Y-25084476D01*
X9382747Y-25084476D01*
X9363699Y-25074952D01*
X9354175Y-25055905D01*
X9354175Y-24979714D01*
X9363699Y-24960667D01*
X9382747Y-24951143D01*
X9420842Y-24951143D01*
X9439890Y-24960667D01*
X9449413Y-24979714D01*
X9449413Y-24998762D01*
X9354175Y-25017809D01*
X9525604Y-25074952D02*
X9544651Y-25084476D01*
X9582747Y-25084476D01*
X9601794Y-25074952D01*
X9611318Y-25055905D01*
X9611318Y-25046381D01*
X9601794Y-25027333D01*
X9582747Y-25017809D01*
X9554175Y-25017809D01*
X9535128Y-25008286D01*
X9525604Y-24989238D01*
X9525604Y-24979714D01*
X9535128Y-24960667D01*
X9554175Y-24951143D01*
X9582747Y-24951143D01*
X9601794Y-24960667D01*
X9677985Y-25160667D02*
X9687509Y-25151143D01*
X9706556Y-25122571D01*
X9716080Y-25103524D01*
X9725604Y-25074952D01*
X9735128Y-25027333D01*
X9735128Y-24989238D01*
X9725604Y-24941619D01*
X9716080Y-24913048D01*
X9706556Y-24894000D01*
X9687509Y-24865428D01*
X9677985Y-24855905D01*
D20*
X4846080Y-25198000D02*
X4846080Y-25318000D01*
X4786080Y-25258000D02*
X4906080Y-25258000D01*
X4906080Y-25258000D02*
G75*
G03*
X4906080Y-25258000I-60000J0D01*
G01*
D11*
X5268461Y-25348476D02*
X5154175Y-25348476D01*
X5211318Y-25348476D02*
X5211318Y-25148476D01*
X5192270Y-25177048D01*
X5173223Y-25196095D01*
X5154175Y-25205619D01*
X5354175Y-25329428D02*
X5363699Y-25338952D01*
X5354175Y-25348476D01*
X5344651Y-25338952D01*
X5354175Y-25329428D01*
X5354175Y-25348476D01*
X5439890Y-25167524D02*
X5449413Y-25158000D01*
X5468461Y-25148476D01*
X5516080Y-25148476D01*
X5535128Y-25158000D01*
X5544651Y-25167524D01*
X5554175Y-25186571D01*
X5554175Y-25205619D01*
X5544651Y-25234190D01*
X5430366Y-25348476D01*
X5554175Y-25348476D01*
X5677985Y-25148476D02*
X5697032Y-25148476D01*
X5716080Y-25158000D01*
X5725604Y-25167524D01*
X5735128Y-25186571D01*
X5744651Y-25224667D01*
X5744651Y-25272286D01*
X5735128Y-25310381D01*
X5725604Y-25329428D01*
X5716080Y-25338952D01*
X5697032Y-25348476D01*
X5677985Y-25348476D01*
X5658937Y-25338952D01*
X5649413Y-25329428D01*
X5639889Y-25310381D01*
X5630366Y-25272286D01*
X5630366Y-25224667D01*
X5639889Y-25186571D01*
X5649413Y-25167524D01*
X5658937Y-25158000D01*
X5677985Y-25148476D01*
X5868461Y-25148476D02*
X5887508Y-25148476D01*
X5906556Y-25158000D01*
X5916080Y-25167524D01*
X5925604Y-25186571D01*
X5935128Y-25224667D01*
X5935128Y-25272286D01*
X5925604Y-25310381D01*
X5916080Y-25329428D01*
X5906556Y-25338952D01*
X5887508Y-25348476D01*
X5868461Y-25348476D01*
X5849413Y-25338952D01*
X5839889Y-25329428D01*
X5830366Y-25310381D01*
X5820842Y-25272286D01*
X5820842Y-25224667D01*
X5830366Y-25186571D01*
X5839889Y-25167524D01*
X5849413Y-25158000D01*
X5868461Y-25148476D01*
X6020842Y-25348476D02*
X6020842Y-25215143D01*
X6020842Y-25234190D02*
X6030366Y-25224667D01*
X6049413Y-25215143D01*
X6077985Y-25215143D01*
X6097032Y-25224667D01*
X6106556Y-25243714D01*
X6106556Y-25348476D01*
X6106556Y-25243714D02*
X6116080Y-25224667D01*
X6135128Y-25215143D01*
X6163699Y-25215143D01*
X6182747Y-25224667D01*
X6192270Y-25243714D01*
X6192270Y-25348476D01*
X6287508Y-25348476D02*
X6287508Y-25215143D01*
X6287508Y-25234190D02*
X6297032Y-25224667D01*
X6316080Y-25215143D01*
X6344651Y-25215143D01*
X6363699Y-25224667D01*
X6373223Y-25243714D01*
X6373223Y-25348476D01*
X6373223Y-25243714D02*
X6382747Y-25224667D01*
X6401794Y-25215143D01*
X6430366Y-25215143D01*
X6449413Y-25224667D01*
X6458937Y-25243714D01*
X6458937Y-25348476D01*
X6849413Y-25138952D02*
X6677985Y-25396095D01*
X7106556Y-25148476D02*
X7125604Y-25148476D01*
X7144651Y-25158000D01*
X7154175Y-25167524D01*
X7163699Y-25186571D01*
X7173223Y-25224667D01*
X7173223Y-25272286D01*
X7163699Y-25310381D01*
X7154175Y-25329428D01*
X7144651Y-25338952D01*
X7125604Y-25348476D01*
X7106556Y-25348476D01*
X7087508Y-25338952D01*
X7077985Y-25329428D01*
X7068461Y-25310381D01*
X7058937Y-25272286D01*
X7058937Y-25224667D01*
X7068461Y-25186571D01*
X7077985Y-25167524D01*
X7087508Y-25158000D01*
X7106556Y-25148476D01*
X7258937Y-25329428D02*
X7268461Y-25338952D01*
X7258937Y-25348476D01*
X7249413Y-25338952D01*
X7258937Y-25329428D01*
X7258937Y-25348476D01*
X7392270Y-25148476D02*
X7411318Y-25148476D01*
X7430366Y-25158000D01*
X7439889Y-25167524D01*
X7449413Y-25186571D01*
X7458937Y-25224667D01*
X7458937Y-25272286D01*
X7449413Y-25310381D01*
X7439889Y-25329428D01*
X7430366Y-25338952D01*
X7411318Y-25348476D01*
X7392270Y-25348476D01*
X7373223Y-25338952D01*
X7363699Y-25329428D01*
X7354175Y-25310381D01*
X7344651Y-25272286D01*
X7344651Y-25224667D01*
X7354175Y-25186571D01*
X7363699Y-25167524D01*
X7373223Y-25158000D01*
X7392270Y-25148476D01*
X7630366Y-25215143D02*
X7630366Y-25348476D01*
X7582747Y-25138952D02*
X7535128Y-25281809D01*
X7658937Y-25281809D01*
X7716080Y-25148476D02*
X7849413Y-25148476D01*
X7763699Y-25348476D01*
X7916080Y-25167524D02*
X7925604Y-25158000D01*
X7944651Y-25148476D01*
X7992270Y-25148476D01*
X8011318Y-25158000D01*
X8020842Y-25167524D01*
X8030366Y-25186571D01*
X8030366Y-25205619D01*
X8020842Y-25234190D01*
X7906556Y-25348476D01*
X8030366Y-25348476D01*
X8106556Y-25148476D02*
X8106556Y-25186571D01*
X8182747Y-25148476D02*
X8182747Y-25186571D01*
X8477985Y-25424667D02*
X8468461Y-25415143D01*
X8449413Y-25386571D01*
X8439890Y-25367524D01*
X8430366Y-25338952D01*
X8420842Y-25291333D01*
X8420842Y-25253238D01*
X8430366Y-25205619D01*
X8439890Y-25177048D01*
X8449413Y-25158000D01*
X8468461Y-25129428D01*
X8477985Y-25119905D01*
X8639890Y-25215143D02*
X8639890Y-25348476D01*
X8592270Y-25138952D02*
X8544651Y-25281809D01*
X8668461Y-25281809D01*
X8830366Y-25215143D02*
X8830366Y-25348476D01*
X8782747Y-25138952D02*
X8735128Y-25281809D01*
X8858937Y-25281809D01*
X9087509Y-25348476D02*
X9087509Y-25148476D01*
X9173223Y-25348476D02*
X9173223Y-25243714D01*
X9163699Y-25224667D01*
X9144651Y-25215143D01*
X9116080Y-25215143D01*
X9097032Y-25224667D01*
X9087509Y-25234190D01*
X9297032Y-25348476D02*
X9277985Y-25338952D01*
X9268461Y-25329428D01*
X9258937Y-25310381D01*
X9258937Y-25253238D01*
X9268461Y-25234190D01*
X9277985Y-25224667D01*
X9297032Y-25215143D01*
X9325604Y-25215143D01*
X9344651Y-25224667D01*
X9354175Y-25234190D01*
X9363699Y-25253238D01*
X9363699Y-25310381D01*
X9354175Y-25329428D01*
X9344651Y-25338952D01*
X9325604Y-25348476D01*
X9297032Y-25348476D01*
X9477985Y-25348476D02*
X9458937Y-25338952D01*
X9449413Y-25319905D01*
X9449413Y-25148476D01*
X9630366Y-25338952D02*
X9611318Y-25348476D01*
X9573223Y-25348476D01*
X9554175Y-25338952D01*
X9544651Y-25319905D01*
X9544651Y-25243714D01*
X9554175Y-25224667D01*
X9573223Y-25215143D01*
X9611318Y-25215143D01*
X9630366Y-25224667D01*
X9639890Y-25243714D01*
X9639890Y-25262762D01*
X9544651Y-25281809D01*
X9716080Y-25338952D02*
X9735128Y-25348476D01*
X9773223Y-25348476D01*
X9792270Y-25338952D01*
X9801794Y-25319905D01*
X9801794Y-25310381D01*
X9792270Y-25291333D01*
X9773223Y-25281809D01*
X9744651Y-25281809D01*
X9725604Y-25272286D01*
X9716080Y-25253238D01*
X9716080Y-25243714D01*
X9725604Y-25224667D01*
X9744651Y-25215143D01*
X9773223Y-25215143D01*
X9792270Y-25224667D01*
X9868461Y-25424667D02*
X9877985Y-25415143D01*
X9897032Y-25386571D01*
X9906556Y-25367524D01*
X9916080Y-25338952D01*
X9925604Y-25291333D01*
X9925604Y-25253238D01*
X9916080Y-25205619D01*
X9906556Y-25177048D01*
X9897032Y-25158000D01*
X9877985Y-25129428D01*
X9868461Y-25119905D01*
D21*
X4887042Y-25567962D02*
X4887042Y-25476038D01*
X4795118Y-25476038D01*
X4795118Y-25567962D01*
X4887042Y-25567962D01*
X4906080Y-25522000D02*
G75*
G03*
X4906080Y-25522000I-65000J0D01*
G01*
D11*
X5268461Y-25612476D02*
X5154175Y-25612476D01*
X5211318Y-25612476D02*
X5211318Y-25412476D01*
X5192270Y-25441048D01*
X5173223Y-25460095D01*
X5154175Y-25469619D01*
X5354175Y-25593428D02*
X5363699Y-25602952D01*
X5354175Y-25612476D01*
X5344651Y-25602952D01*
X5354175Y-25593428D01*
X5354175Y-25612476D01*
X5430366Y-25412476D02*
X5554175Y-25412476D01*
X5487509Y-25488667D01*
X5516080Y-25488667D01*
X5535128Y-25498190D01*
X5544651Y-25507714D01*
X5554175Y-25526762D01*
X5554175Y-25574381D01*
X5544651Y-25593428D01*
X5535128Y-25602952D01*
X5516080Y-25612476D01*
X5458937Y-25612476D01*
X5439890Y-25602952D01*
X5430366Y-25593428D01*
X5677985Y-25412476D02*
X5697032Y-25412476D01*
X5716080Y-25422000D01*
X5725604Y-25431524D01*
X5735128Y-25450571D01*
X5744651Y-25488667D01*
X5744651Y-25536286D01*
X5735128Y-25574381D01*
X5725604Y-25593428D01*
X5716080Y-25602952D01*
X5697032Y-25612476D01*
X5677985Y-25612476D01*
X5658937Y-25602952D01*
X5649413Y-25593428D01*
X5639889Y-25574381D01*
X5630366Y-25536286D01*
X5630366Y-25488667D01*
X5639889Y-25450571D01*
X5649413Y-25431524D01*
X5658937Y-25422000D01*
X5677985Y-25412476D01*
X5868461Y-25412476D02*
X5887508Y-25412476D01*
X5906556Y-25422000D01*
X5916080Y-25431524D01*
X5925604Y-25450571D01*
X5935128Y-25488667D01*
X5935128Y-25536286D01*
X5925604Y-25574381D01*
X5916080Y-25593428D01*
X5906556Y-25602952D01*
X5887508Y-25612476D01*
X5868461Y-25612476D01*
X5849413Y-25602952D01*
X5839889Y-25593428D01*
X5830366Y-25574381D01*
X5820842Y-25536286D01*
X5820842Y-25488667D01*
X5830366Y-25450571D01*
X5839889Y-25431524D01*
X5849413Y-25422000D01*
X5868461Y-25412476D01*
X6020842Y-25612476D02*
X6020842Y-25479143D01*
X6020842Y-25498190D02*
X6030366Y-25488667D01*
X6049413Y-25479143D01*
X6077985Y-25479143D01*
X6097032Y-25488667D01*
X6106556Y-25507714D01*
X6106556Y-25612476D01*
X6106556Y-25507714D02*
X6116080Y-25488667D01*
X6135128Y-25479143D01*
X6163699Y-25479143D01*
X6182747Y-25488667D01*
X6192270Y-25507714D01*
X6192270Y-25612476D01*
X6287508Y-25612476D02*
X6287508Y-25479143D01*
X6287508Y-25498190D02*
X6297032Y-25488667D01*
X6316080Y-25479143D01*
X6344651Y-25479143D01*
X6363699Y-25488667D01*
X6373223Y-25507714D01*
X6373223Y-25612476D01*
X6373223Y-25507714D02*
X6382747Y-25488667D01*
X6401794Y-25479143D01*
X6430366Y-25479143D01*
X6449413Y-25488667D01*
X6458937Y-25507714D01*
X6458937Y-25612476D01*
X6849413Y-25402952D02*
X6677985Y-25660095D01*
X7106556Y-25412476D02*
X7125604Y-25412476D01*
X7144651Y-25422000D01*
X7154175Y-25431524D01*
X7163699Y-25450571D01*
X7173223Y-25488667D01*
X7173223Y-25536286D01*
X7163699Y-25574381D01*
X7154175Y-25593428D01*
X7144651Y-25602952D01*
X7125604Y-25612476D01*
X7106556Y-25612476D01*
X7087508Y-25602952D01*
X7077985Y-25593428D01*
X7068461Y-25574381D01*
X7058937Y-25536286D01*
X7058937Y-25488667D01*
X7068461Y-25450571D01*
X7077985Y-25431524D01*
X7087508Y-25422000D01*
X7106556Y-25412476D01*
X7258937Y-25593428D02*
X7268461Y-25602952D01*
X7258937Y-25612476D01*
X7249413Y-25602952D01*
X7258937Y-25593428D01*
X7258937Y-25612476D01*
X7392270Y-25412476D02*
X7411318Y-25412476D01*
X7430366Y-25422000D01*
X7439889Y-25431524D01*
X7449413Y-25450571D01*
X7458937Y-25488667D01*
X7458937Y-25536286D01*
X7449413Y-25574381D01*
X7439889Y-25593428D01*
X7430366Y-25602952D01*
X7411318Y-25612476D01*
X7392270Y-25612476D01*
X7373223Y-25602952D01*
X7363699Y-25593428D01*
X7354175Y-25574381D01*
X7344651Y-25536286D01*
X7344651Y-25488667D01*
X7354175Y-25450571D01*
X7363699Y-25431524D01*
X7373223Y-25422000D01*
X7392270Y-25412476D01*
X7639889Y-25412476D02*
X7544651Y-25412476D01*
X7535128Y-25507714D01*
X7544651Y-25498190D01*
X7563699Y-25488667D01*
X7611318Y-25488667D01*
X7630366Y-25498190D01*
X7639889Y-25507714D01*
X7649413Y-25526762D01*
X7649413Y-25574381D01*
X7639889Y-25593428D01*
X7630366Y-25602952D01*
X7611318Y-25612476D01*
X7563699Y-25612476D01*
X7544651Y-25602952D01*
X7535128Y-25593428D01*
X7839889Y-25612476D02*
X7725604Y-25612476D01*
X7782747Y-25612476D02*
X7782747Y-25412476D01*
X7763699Y-25441048D01*
X7744651Y-25460095D01*
X7725604Y-25469619D01*
X7916080Y-25431524D02*
X7925604Y-25422000D01*
X7944651Y-25412476D01*
X7992270Y-25412476D01*
X8011318Y-25422000D01*
X8020842Y-25431524D01*
X8030366Y-25450571D01*
X8030366Y-25469619D01*
X8020842Y-25498190D01*
X7906556Y-25612476D01*
X8030366Y-25612476D01*
X8106556Y-25412476D02*
X8106556Y-25450571D01*
X8182747Y-25412476D02*
X8182747Y-25450571D01*
X8477985Y-25688667D02*
X8468461Y-25679143D01*
X8449413Y-25650571D01*
X8439890Y-25631524D01*
X8430366Y-25602952D01*
X8420842Y-25555333D01*
X8420842Y-25517238D01*
X8430366Y-25469619D01*
X8439890Y-25441048D01*
X8449413Y-25422000D01*
X8468461Y-25393428D01*
X8477985Y-25383905D01*
X8649413Y-25412476D02*
X8554175Y-25412476D01*
X8544651Y-25507714D01*
X8554175Y-25498190D01*
X8573223Y-25488667D01*
X8620842Y-25488667D01*
X8639890Y-25498190D01*
X8649413Y-25507714D01*
X8658937Y-25526762D01*
X8658937Y-25574381D01*
X8649413Y-25593428D01*
X8639890Y-25602952D01*
X8620842Y-25612476D01*
X8573223Y-25612476D01*
X8554175Y-25602952D01*
X8544651Y-25593428D01*
X8782747Y-25412476D02*
X8801794Y-25412476D01*
X8820842Y-25422000D01*
X8830366Y-25431524D01*
X8839890Y-25450571D01*
X8849413Y-25488667D01*
X8849413Y-25536286D01*
X8839890Y-25574381D01*
X8830366Y-25593428D01*
X8820842Y-25602952D01*
X8801794Y-25612476D01*
X8782747Y-25612476D01*
X8763699Y-25602952D01*
X8754175Y-25593428D01*
X8744651Y-25574381D01*
X8735128Y-25536286D01*
X8735128Y-25488667D01*
X8744651Y-25450571D01*
X8754175Y-25431524D01*
X8763699Y-25422000D01*
X8782747Y-25412476D01*
X9087509Y-25612476D02*
X9087509Y-25412476D01*
X9173223Y-25612476D02*
X9173223Y-25507714D01*
X9163699Y-25488667D01*
X9144651Y-25479143D01*
X9116080Y-25479143D01*
X9097032Y-25488667D01*
X9087509Y-25498190D01*
X9297032Y-25612476D02*
X9277985Y-25602952D01*
X9268461Y-25593428D01*
X9258937Y-25574381D01*
X9258937Y-25517238D01*
X9268461Y-25498190D01*
X9277985Y-25488667D01*
X9297032Y-25479143D01*
X9325604Y-25479143D01*
X9344651Y-25488667D01*
X9354175Y-25498190D01*
X9363699Y-25517238D01*
X9363699Y-25574381D01*
X9354175Y-25593428D01*
X9344651Y-25602952D01*
X9325604Y-25612476D01*
X9297032Y-25612476D01*
X9477985Y-25612476D02*
X9458937Y-25602952D01*
X9449413Y-25583905D01*
X9449413Y-25412476D01*
X9630366Y-25602952D02*
X9611318Y-25612476D01*
X9573223Y-25612476D01*
X9554175Y-25602952D01*
X9544651Y-25583905D01*
X9544651Y-25507714D01*
X9554175Y-25488667D01*
X9573223Y-25479143D01*
X9611318Y-25479143D01*
X9630366Y-25488667D01*
X9639890Y-25507714D01*
X9639890Y-25526762D01*
X9544651Y-25545809D01*
X9716080Y-25602952D02*
X9735128Y-25612476D01*
X9773223Y-25612476D01*
X9792270Y-25602952D01*
X9801794Y-25583905D01*
X9801794Y-25574381D01*
X9792270Y-25555333D01*
X9773223Y-25545809D01*
X9744651Y-25545809D01*
X9725604Y-25536286D01*
X9716080Y-25517238D01*
X9716080Y-25507714D01*
X9725604Y-25488667D01*
X9744651Y-25479143D01*
X9773223Y-25479143D01*
X9792270Y-25488667D01*
X9868461Y-25688667D02*
X9877985Y-25679143D01*
X9897032Y-25650571D01*
X9906556Y-25631524D01*
X9916080Y-25602952D01*
X9925604Y-25555333D01*
X9925604Y-25517238D01*
X9916080Y-25469619D01*
X9906556Y-25441048D01*
X9897032Y-25422000D01*
X9877985Y-25393428D01*
X9868461Y-25383905D01*
D22*
X4831080Y-25861000D02*
X4906080Y-25786000D01*
X4831080Y-25711000D01*
X4756080Y-25786000D01*
X4831080Y-25861000D01*
X4906080Y-25786000D02*
G75*
G03*
X4906080Y-25786000I-75000J0D01*
G01*
D11*
X5268461Y-25876476D02*
X5154175Y-25876476D01*
X5211318Y-25876476D02*
X5211318Y-25676476D01*
X5192270Y-25705048D01*
X5173223Y-25724095D01*
X5154175Y-25733619D01*
X5354175Y-25857428D02*
X5363699Y-25866952D01*
X5354175Y-25876476D01*
X5344651Y-25866952D01*
X5354175Y-25857428D01*
X5354175Y-25876476D01*
X5544651Y-25676476D02*
X5449413Y-25676476D01*
X5439890Y-25771714D01*
X5449413Y-25762190D01*
X5468461Y-25752667D01*
X5516080Y-25752667D01*
X5535128Y-25762190D01*
X5544651Y-25771714D01*
X5554175Y-25790762D01*
X5554175Y-25838381D01*
X5544651Y-25857428D01*
X5535128Y-25866952D01*
X5516080Y-25876476D01*
X5468461Y-25876476D01*
X5449413Y-25866952D01*
X5439890Y-25857428D01*
X5677985Y-25676476D02*
X5697032Y-25676476D01*
X5716080Y-25686000D01*
X5725604Y-25695524D01*
X5735128Y-25714571D01*
X5744651Y-25752667D01*
X5744651Y-25800286D01*
X5735128Y-25838381D01*
X5725604Y-25857428D01*
X5716080Y-25866952D01*
X5697032Y-25876476D01*
X5677985Y-25876476D01*
X5658937Y-25866952D01*
X5649413Y-25857428D01*
X5639889Y-25838381D01*
X5630366Y-25800286D01*
X5630366Y-25752667D01*
X5639889Y-25714571D01*
X5649413Y-25695524D01*
X5658937Y-25686000D01*
X5677985Y-25676476D01*
X5868461Y-25676476D02*
X5887508Y-25676476D01*
X5906556Y-25686000D01*
X5916080Y-25695524D01*
X5925604Y-25714571D01*
X5935128Y-25752667D01*
X5935128Y-25800286D01*
X5925604Y-25838381D01*
X5916080Y-25857428D01*
X5906556Y-25866952D01*
X5887508Y-25876476D01*
X5868461Y-25876476D01*
X5849413Y-25866952D01*
X5839889Y-25857428D01*
X5830366Y-25838381D01*
X5820842Y-25800286D01*
X5820842Y-25752667D01*
X5830366Y-25714571D01*
X5839889Y-25695524D01*
X5849413Y-25686000D01*
X5868461Y-25676476D01*
X6020842Y-25876476D02*
X6020842Y-25743143D01*
X6020842Y-25762190D02*
X6030366Y-25752667D01*
X6049413Y-25743143D01*
X6077985Y-25743143D01*
X6097032Y-25752667D01*
X6106556Y-25771714D01*
X6106556Y-25876476D01*
X6106556Y-25771714D02*
X6116080Y-25752667D01*
X6135128Y-25743143D01*
X6163699Y-25743143D01*
X6182747Y-25752667D01*
X6192270Y-25771714D01*
X6192270Y-25876476D01*
X6287508Y-25876476D02*
X6287508Y-25743143D01*
X6287508Y-25762190D02*
X6297032Y-25752667D01*
X6316080Y-25743143D01*
X6344651Y-25743143D01*
X6363699Y-25752667D01*
X6373223Y-25771714D01*
X6373223Y-25876476D01*
X6373223Y-25771714D02*
X6382747Y-25752667D01*
X6401794Y-25743143D01*
X6430366Y-25743143D01*
X6449413Y-25752667D01*
X6458937Y-25771714D01*
X6458937Y-25876476D01*
X6849413Y-25666952D02*
X6677985Y-25924095D01*
X7106556Y-25676476D02*
X7125604Y-25676476D01*
X7144651Y-25686000D01*
X7154175Y-25695524D01*
X7163699Y-25714571D01*
X7173223Y-25752667D01*
X7173223Y-25800286D01*
X7163699Y-25838381D01*
X7154175Y-25857428D01*
X7144651Y-25866952D01*
X7125604Y-25876476D01*
X7106556Y-25876476D01*
X7087508Y-25866952D01*
X7077985Y-25857428D01*
X7068461Y-25838381D01*
X7058937Y-25800286D01*
X7058937Y-25752667D01*
X7068461Y-25714571D01*
X7077985Y-25695524D01*
X7087508Y-25686000D01*
X7106556Y-25676476D01*
X7258937Y-25857428D02*
X7268461Y-25866952D01*
X7258937Y-25876476D01*
X7249413Y-25866952D01*
X7258937Y-25857428D01*
X7258937Y-25876476D01*
X7392270Y-25676476D02*
X7411318Y-25676476D01*
X7430366Y-25686000D01*
X7439889Y-25695524D01*
X7449413Y-25714571D01*
X7458937Y-25752667D01*
X7458937Y-25800286D01*
X7449413Y-25838381D01*
X7439889Y-25857428D01*
X7430366Y-25866952D01*
X7411318Y-25876476D01*
X7392270Y-25876476D01*
X7373223Y-25866952D01*
X7363699Y-25857428D01*
X7354175Y-25838381D01*
X7344651Y-25800286D01*
X7344651Y-25752667D01*
X7354175Y-25714571D01*
X7363699Y-25695524D01*
X7373223Y-25686000D01*
X7392270Y-25676476D01*
X7639889Y-25676476D02*
X7544651Y-25676476D01*
X7535128Y-25771714D01*
X7544651Y-25762190D01*
X7563699Y-25752667D01*
X7611318Y-25752667D01*
X7630366Y-25762190D01*
X7639889Y-25771714D01*
X7649413Y-25790762D01*
X7649413Y-25838381D01*
X7639889Y-25857428D01*
X7630366Y-25866952D01*
X7611318Y-25876476D01*
X7563699Y-25876476D01*
X7544651Y-25866952D01*
X7535128Y-25857428D01*
X7744651Y-25876476D02*
X7782747Y-25876476D01*
X7801794Y-25866952D01*
X7811318Y-25857428D01*
X7830366Y-25828857D01*
X7839889Y-25790762D01*
X7839889Y-25714571D01*
X7830366Y-25695524D01*
X7820842Y-25686000D01*
X7801794Y-25676476D01*
X7763699Y-25676476D01*
X7744651Y-25686000D01*
X7735128Y-25695524D01*
X7725604Y-25714571D01*
X7725604Y-25762190D01*
X7735128Y-25781238D01*
X7744651Y-25790762D01*
X7763699Y-25800286D01*
X7801794Y-25800286D01*
X7820842Y-25790762D01*
X7830366Y-25781238D01*
X7839889Y-25762190D01*
X8030366Y-25876476D02*
X7916080Y-25876476D01*
X7973223Y-25876476D02*
X7973223Y-25676476D01*
X7954175Y-25705048D01*
X7935128Y-25724095D01*
X7916080Y-25733619D01*
X8106556Y-25676476D02*
X8106556Y-25714571D01*
X8182747Y-25676476D02*
X8182747Y-25714571D01*
X8477985Y-25952667D02*
X8468461Y-25943143D01*
X8449413Y-25914571D01*
X8439890Y-25895524D01*
X8430366Y-25866952D01*
X8420842Y-25819333D01*
X8420842Y-25781238D01*
X8430366Y-25733619D01*
X8439890Y-25705048D01*
X8449413Y-25686000D01*
X8468461Y-25657428D01*
X8477985Y-25647905D01*
X8544651Y-25695524D02*
X8554175Y-25686000D01*
X8573223Y-25676476D01*
X8620842Y-25676476D01*
X8639890Y-25686000D01*
X8649413Y-25695524D01*
X8658937Y-25714571D01*
X8658937Y-25733619D01*
X8649413Y-25762190D01*
X8535128Y-25876476D01*
X8658937Y-25876476D01*
X8897032Y-25876476D02*
X8897032Y-25676476D01*
X8982747Y-25876476D02*
X8982747Y-25771714D01*
X8973223Y-25752667D01*
X8954175Y-25743143D01*
X8925604Y-25743143D01*
X8906556Y-25752667D01*
X8897032Y-25762190D01*
X9106556Y-25876476D02*
X9087509Y-25866952D01*
X9077985Y-25857428D01*
X9068461Y-25838381D01*
X9068461Y-25781238D01*
X9077985Y-25762190D01*
X9087509Y-25752667D01*
X9106556Y-25743143D01*
X9135128Y-25743143D01*
X9154175Y-25752667D01*
X9163699Y-25762190D01*
X9173223Y-25781238D01*
X9173223Y-25838381D01*
X9163699Y-25857428D01*
X9154175Y-25866952D01*
X9135128Y-25876476D01*
X9106556Y-25876476D01*
X9287509Y-25876476D02*
X9268461Y-25866952D01*
X9258937Y-25847905D01*
X9258937Y-25676476D01*
X9439890Y-25866952D02*
X9420842Y-25876476D01*
X9382747Y-25876476D01*
X9363699Y-25866952D01*
X9354175Y-25847905D01*
X9354175Y-25771714D01*
X9363699Y-25752667D01*
X9382747Y-25743143D01*
X9420842Y-25743143D01*
X9439890Y-25752667D01*
X9449413Y-25771714D01*
X9449413Y-25790762D01*
X9354175Y-25809809D01*
X9525604Y-25866952D02*
X9544651Y-25876476D01*
X9582747Y-25876476D01*
X9601794Y-25866952D01*
X9611318Y-25847905D01*
X9611318Y-25838381D01*
X9601794Y-25819333D01*
X9582747Y-25809809D01*
X9554175Y-25809809D01*
X9535128Y-25800286D01*
X9525604Y-25781238D01*
X9525604Y-25771714D01*
X9535128Y-25752667D01*
X9554175Y-25743143D01*
X9582747Y-25743143D01*
X9601794Y-25752667D01*
X9677985Y-25952667D02*
X9687509Y-25943143D01*
X9706556Y-25914571D01*
X9716080Y-25895524D01*
X9725604Y-25866952D01*
X9735128Y-25819333D01*
X9735128Y-25781238D01*
X9725604Y-25733619D01*
X9716080Y-25705048D01*
X9706556Y-25686000D01*
X9687509Y-25657428D01*
X9677985Y-25647905D01*
D23*
X4826080Y-25976000D02*
X4826080Y-26136000D01*
X4746080Y-26056000D02*
X4906080Y-26056000D01*
X4882649Y-26112569D02*
X4882649Y-25999431D01*
X4769511Y-25999431D01*
X4769511Y-26112569D01*
X4882649Y-26112569D01*
D11*
X5268461Y-26146476D02*
X5154175Y-26146476D01*
X5211318Y-26146476D02*
X5211318Y-25946476D01*
X5192270Y-25975048D01*
X5173223Y-25994095D01*
X5154175Y-26003619D01*
X5354175Y-26127428D02*
X5363699Y-26136952D01*
X5354175Y-26146476D01*
X5344651Y-26136952D01*
X5354175Y-26127428D01*
X5354175Y-26146476D01*
X5535128Y-25946476D02*
X5497032Y-25946476D01*
X5477985Y-25956000D01*
X5468461Y-25965524D01*
X5449413Y-25994095D01*
X5439890Y-26032190D01*
X5439890Y-26108381D01*
X5449413Y-26127428D01*
X5458937Y-26136952D01*
X5477985Y-26146476D01*
X5516080Y-26146476D01*
X5535128Y-26136952D01*
X5544651Y-26127428D01*
X5554175Y-26108381D01*
X5554175Y-26060762D01*
X5544651Y-26041714D01*
X5535128Y-26032190D01*
X5516080Y-26022667D01*
X5477985Y-26022667D01*
X5458937Y-26032190D01*
X5449413Y-26041714D01*
X5439890Y-26060762D01*
X5677985Y-25946476D02*
X5697032Y-25946476D01*
X5716080Y-25956000D01*
X5725604Y-25965524D01*
X5735128Y-25984571D01*
X5744651Y-26022667D01*
X5744651Y-26070286D01*
X5735128Y-26108381D01*
X5725604Y-26127428D01*
X5716080Y-26136952D01*
X5697032Y-26146476D01*
X5677985Y-26146476D01*
X5658937Y-26136952D01*
X5649413Y-26127428D01*
X5639889Y-26108381D01*
X5630366Y-26070286D01*
X5630366Y-26022667D01*
X5639889Y-25984571D01*
X5649413Y-25965524D01*
X5658937Y-25956000D01*
X5677985Y-25946476D01*
X5868461Y-25946476D02*
X5887508Y-25946476D01*
X5906556Y-25956000D01*
X5916080Y-25965524D01*
X5925604Y-25984571D01*
X5935128Y-26022667D01*
X5935128Y-26070286D01*
X5925604Y-26108381D01*
X5916080Y-26127428D01*
X5906556Y-26136952D01*
X5887508Y-26146476D01*
X5868461Y-26146476D01*
X5849413Y-26136952D01*
X5839889Y-26127428D01*
X5830366Y-26108381D01*
X5820842Y-26070286D01*
X5820842Y-26022667D01*
X5830366Y-25984571D01*
X5839889Y-25965524D01*
X5849413Y-25956000D01*
X5868461Y-25946476D01*
X6020842Y-26146476D02*
X6020842Y-26013143D01*
X6020842Y-26032190D02*
X6030366Y-26022667D01*
X6049413Y-26013143D01*
X6077985Y-26013143D01*
X6097032Y-26022667D01*
X6106556Y-26041714D01*
X6106556Y-26146476D01*
X6106556Y-26041714D02*
X6116080Y-26022667D01*
X6135128Y-26013143D01*
X6163699Y-26013143D01*
X6182747Y-26022667D01*
X6192270Y-26041714D01*
X6192270Y-26146476D01*
X6287508Y-26146476D02*
X6287508Y-26013143D01*
X6287508Y-26032190D02*
X6297032Y-26022667D01*
X6316080Y-26013143D01*
X6344651Y-26013143D01*
X6363699Y-26022667D01*
X6373223Y-26041714D01*
X6373223Y-26146476D01*
X6373223Y-26041714D02*
X6382747Y-26022667D01*
X6401794Y-26013143D01*
X6430366Y-26013143D01*
X6449413Y-26022667D01*
X6458937Y-26041714D01*
X6458937Y-26146476D01*
X6849413Y-25936952D02*
X6677985Y-26194095D01*
X7106556Y-25946476D02*
X7125604Y-25946476D01*
X7144651Y-25956000D01*
X7154175Y-25965524D01*
X7163699Y-25984571D01*
X7173223Y-26022667D01*
X7173223Y-26070286D01*
X7163699Y-26108381D01*
X7154175Y-26127428D01*
X7144651Y-26136952D01*
X7125604Y-26146476D01*
X7106556Y-26146476D01*
X7087508Y-26136952D01*
X7077985Y-26127428D01*
X7068461Y-26108381D01*
X7058937Y-26070286D01*
X7058937Y-26022667D01*
X7068461Y-25984571D01*
X7077985Y-25965524D01*
X7087508Y-25956000D01*
X7106556Y-25946476D01*
X7258937Y-26127428D02*
X7268461Y-26136952D01*
X7258937Y-26146476D01*
X7249413Y-26136952D01*
X7258937Y-26127428D01*
X7258937Y-26146476D01*
X7392270Y-25946476D02*
X7411318Y-25946476D01*
X7430366Y-25956000D01*
X7439889Y-25965524D01*
X7449413Y-25984571D01*
X7458937Y-26022667D01*
X7458937Y-26070286D01*
X7449413Y-26108381D01*
X7439889Y-26127428D01*
X7430366Y-26136952D01*
X7411318Y-26146476D01*
X7392270Y-26146476D01*
X7373223Y-26136952D01*
X7363699Y-26127428D01*
X7354175Y-26108381D01*
X7344651Y-26070286D01*
X7344651Y-26022667D01*
X7354175Y-25984571D01*
X7363699Y-25965524D01*
X7373223Y-25956000D01*
X7392270Y-25946476D01*
X7630366Y-25946476D02*
X7592270Y-25946476D01*
X7573223Y-25956000D01*
X7563699Y-25965524D01*
X7544651Y-25994095D01*
X7535128Y-26032190D01*
X7535128Y-26108381D01*
X7544651Y-26127428D01*
X7554175Y-26136952D01*
X7573223Y-26146476D01*
X7611318Y-26146476D01*
X7630366Y-26136952D01*
X7639889Y-26127428D01*
X7649413Y-26108381D01*
X7649413Y-26060762D01*
X7639889Y-26041714D01*
X7630366Y-26032190D01*
X7611318Y-26022667D01*
X7573223Y-26022667D01*
X7554175Y-26032190D01*
X7544651Y-26041714D01*
X7535128Y-26060762D01*
X7716080Y-25946476D02*
X7839889Y-25946476D01*
X7773223Y-26022667D01*
X7801794Y-26022667D01*
X7820842Y-26032190D01*
X7830366Y-26041714D01*
X7839889Y-26060762D01*
X7839889Y-26108381D01*
X7830366Y-26127428D01*
X7820842Y-26136952D01*
X7801794Y-26146476D01*
X7744651Y-26146476D01*
X7725604Y-26136952D01*
X7716080Y-26127428D01*
X7963699Y-25946476D02*
X7982747Y-25946476D01*
X8001794Y-25956000D01*
X8011318Y-25965524D01*
X8020842Y-25984571D01*
X8030366Y-26022667D01*
X8030366Y-26070286D01*
X8020842Y-26108381D01*
X8011318Y-26127428D01*
X8001794Y-26136952D01*
X7982747Y-26146476D01*
X7963699Y-26146476D01*
X7944651Y-26136952D01*
X7935128Y-26127428D01*
X7925604Y-26108381D01*
X7916080Y-26070286D01*
X7916080Y-26022667D01*
X7925604Y-25984571D01*
X7935128Y-25965524D01*
X7944651Y-25956000D01*
X7963699Y-25946476D01*
X8106556Y-25946476D02*
X8106556Y-25984571D01*
X8182747Y-25946476D02*
X8182747Y-25984571D01*
X8477985Y-26222667D02*
X8468461Y-26213143D01*
X8449413Y-26184571D01*
X8439890Y-26165524D01*
X8430366Y-26136952D01*
X8420842Y-26089333D01*
X8420842Y-26051238D01*
X8430366Y-26003619D01*
X8439890Y-25975048D01*
X8449413Y-25956000D01*
X8468461Y-25927428D01*
X8477985Y-25917905D01*
X8639890Y-25946476D02*
X8601794Y-25946476D01*
X8582747Y-25956000D01*
X8573223Y-25965524D01*
X8554175Y-25994095D01*
X8544651Y-26032190D01*
X8544651Y-26108381D01*
X8554175Y-26127428D01*
X8563699Y-26136952D01*
X8582747Y-26146476D01*
X8620842Y-26146476D01*
X8639890Y-26136952D01*
X8649413Y-26127428D01*
X8658937Y-26108381D01*
X8658937Y-26060762D01*
X8649413Y-26041714D01*
X8639890Y-26032190D01*
X8620842Y-26022667D01*
X8582747Y-26022667D01*
X8563699Y-26032190D01*
X8554175Y-26041714D01*
X8544651Y-26060762D01*
X8897032Y-26146476D02*
X8897032Y-25946476D01*
X8982747Y-26146476D02*
X8982747Y-26041714D01*
X8973223Y-26022667D01*
X8954175Y-26013143D01*
X8925604Y-26013143D01*
X8906556Y-26022667D01*
X8897032Y-26032190D01*
X9106556Y-26146476D02*
X9087509Y-26136952D01*
X9077985Y-26127428D01*
X9068461Y-26108381D01*
X9068461Y-26051238D01*
X9077985Y-26032190D01*
X9087509Y-26022667D01*
X9106556Y-26013143D01*
X9135128Y-26013143D01*
X9154175Y-26022667D01*
X9163699Y-26032190D01*
X9173223Y-26051238D01*
X9173223Y-26108381D01*
X9163699Y-26127428D01*
X9154175Y-26136952D01*
X9135128Y-26146476D01*
X9106556Y-26146476D01*
X9287509Y-26146476D02*
X9268461Y-26136952D01*
X9258937Y-26117905D01*
X9258937Y-25946476D01*
X9439890Y-26136952D02*
X9420842Y-26146476D01*
X9382747Y-26146476D01*
X9363699Y-26136952D01*
X9354175Y-26117905D01*
X9354175Y-26041714D01*
X9363699Y-26022667D01*
X9382747Y-26013143D01*
X9420842Y-26013143D01*
X9439890Y-26022667D01*
X9449413Y-26041714D01*
X9449413Y-26060762D01*
X9354175Y-26079809D01*
X9525604Y-26136952D02*
X9544651Y-26146476D01*
X9582747Y-26146476D01*
X9601794Y-26136952D01*
X9611318Y-26117905D01*
X9611318Y-26108381D01*
X9601794Y-26089333D01*
X9582747Y-26079809D01*
X9554175Y-26079809D01*
X9535128Y-26070286D01*
X9525604Y-26051238D01*
X9525604Y-26041714D01*
X9535128Y-26022667D01*
X9554175Y-26013143D01*
X9582747Y-26013143D01*
X9601794Y-26022667D01*
X9677985Y-26222667D02*
X9687509Y-26213143D01*
X9706556Y-26184571D01*
X9716080Y-26165524D01*
X9725604Y-26136952D01*
X9735128Y-26089333D01*
X9735128Y-26051238D01*
X9725604Y-26003619D01*
X9716080Y-25975048D01*
X9706556Y-25956000D01*
X9687509Y-25927428D01*
X9677985Y-25917905D01*
D24*
X4816080Y-26246000D02*
X4816080Y-26426000D01*
X4726080Y-26336000D02*
X4906080Y-26336000D01*
X4816080Y-26426000D02*
X4906080Y-26336000D01*
X4816080Y-26246000D01*
X4726080Y-26336000D01*
X4816080Y-26426000D01*
D11*
X5268461Y-26426476D02*
X5154175Y-26426476D01*
X5211318Y-26426476D02*
X5211318Y-26226476D01*
X5192270Y-26255048D01*
X5173223Y-26274095D01*
X5154175Y-26283619D01*
X5354175Y-26407428D02*
X5363699Y-26416952D01*
X5354175Y-26426476D01*
X5344651Y-26416952D01*
X5354175Y-26407428D01*
X5354175Y-26426476D01*
X5477985Y-26312190D02*
X5458937Y-26302667D01*
X5449413Y-26293143D01*
X5439890Y-26274095D01*
X5439890Y-26264571D01*
X5449413Y-26245524D01*
X5458937Y-26236000D01*
X5477985Y-26226476D01*
X5516080Y-26226476D01*
X5535128Y-26236000D01*
X5544651Y-26245524D01*
X5554175Y-26264571D01*
X5554175Y-26274095D01*
X5544651Y-26293143D01*
X5535128Y-26302667D01*
X5516080Y-26312190D01*
X5477985Y-26312190D01*
X5458937Y-26321714D01*
X5449413Y-26331238D01*
X5439890Y-26350286D01*
X5439890Y-26388381D01*
X5449413Y-26407428D01*
X5458937Y-26416952D01*
X5477985Y-26426476D01*
X5516080Y-26426476D01*
X5535128Y-26416952D01*
X5544651Y-26407428D01*
X5554175Y-26388381D01*
X5554175Y-26350286D01*
X5544651Y-26331238D01*
X5535128Y-26321714D01*
X5516080Y-26312190D01*
X5677985Y-26226476D02*
X5697032Y-26226476D01*
X5716080Y-26236000D01*
X5725604Y-26245524D01*
X5735128Y-26264571D01*
X5744651Y-26302667D01*
X5744651Y-26350286D01*
X5735128Y-26388381D01*
X5725604Y-26407428D01*
X5716080Y-26416952D01*
X5697032Y-26426476D01*
X5677985Y-26426476D01*
X5658937Y-26416952D01*
X5649413Y-26407428D01*
X5639889Y-26388381D01*
X5630366Y-26350286D01*
X5630366Y-26302667D01*
X5639889Y-26264571D01*
X5649413Y-26245524D01*
X5658937Y-26236000D01*
X5677985Y-26226476D01*
X5868461Y-26226476D02*
X5887508Y-26226476D01*
X5906556Y-26236000D01*
X5916080Y-26245524D01*
X5925604Y-26264571D01*
X5935128Y-26302667D01*
X5935128Y-26350286D01*
X5925604Y-26388381D01*
X5916080Y-26407428D01*
X5906556Y-26416952D01*
X5887508Y-26426476D01*
X5868461Y-26426476D01*
X5849413Y-26416952D01*
X5839889Y-26407428D01*
X5830366Y-26388381D01*
X5820842Y-26350286D01*
X5820842Y-26302667D01*
X5830366Y-26264571D01*
X5839889Y-26245524D01*
X5849413Y-26236000D01*
X5868461Y-26226476D01*
X6020842Y-26426476D02*
X6020842Y-26293143D01*
X6020842Y-26312190D02*
X6030366Y-26302667D01*
X6049413Y-26293143D01*
X6077985Y-26293143D01*
X6097032Y-26302667D01*
X6106556Y-26321714D01*
X6106556Y-26426476D01*
X6106556Y-26321714D02*
X6116080Y-26302667D01*
X6135128Y-26293143D01*
X6163699Y-26293143D01*
X6182747Y-26302667D01*
X6192270Y-26321714D01*
X6192270Y-26426476D01*
X6287508Y-26426476D02*
X6287508Y-26293143D01*
X6287508Y-26312190D02*
X6297032Y-26302667D01*
X6316080Y-26293143D01*
X6344651Y-26293143D01*
X6363699Y-26302667D01*
X6373223Y-26321714D01*
X6373223Y-26426476D01*
X6373223Y-26321714D02*
X6382747Y-26302667D01*
X6401794Y-26293143D01*
X6430366Y-26293143D01*
X6449413Y-26302667D01*
X6458937Y-26321714D01*
X6458937Y-26426476D01*
X6849413Y-26216952D02*
X6677985Y-26474095D01*
X7106556Y-26226476D02*
X7125604Y-26226476D01*
X7144651Y-26236000D01*
X7154175Y-26245524D01*
X7163699Y-26264571D01*
X7173223Y-26302667D01*
X7173223Y-26350286D01*
X7163699Y-26388381D01*
X7154175Y-26407428D01*
X7144651Y-26416952D01*
X7125604Y-26426476D01*
X7106556Y-26426476D01*
X7087508Y-26416952D01*
X7077985Y-26407428D01*
X7068461Y-26388381D01*
X7058937Y-26350286D01*
X7058937Y-26302667D01*
X7068461Y-26264571D01*
X7077985Y-26245524D01*
X7087508Y-26236000D01*
X7106556Y-26226476D01*
X7258937Y-26407428D02*
X7268461Y-26416952D01*
X7258937Y-26426476D01*
X7249413Y-26416952D01*
X7258937Y-26407428D01*
X7258937Y-26426476D01*
X7392270Y-26226476D02*
X7411318Y-26226476D01*
X7430366Y-26236000D01*
X7439889Y-26245524D01*
X7449413Y-26264571D01*
X7458937Y-26302667D01*
X7458937Y-26350286D01*
X7449413Y-26388381D01*
X7439889Y-26407428D01*
X7430366Y-26416952D01*
X7411318Y-26426476D01*
X7392270Y-26426476D01*
X7373223Y-26416952D01*
X7363699Y-26407428D01*
X7354175Y-26388381D01*
X7344651Y-26350286D01*
X7344651Y-26302667D01*
X7354175Y-26264571D01*
X7363699Y-26245524D01*
X7373223Y-26236000D01*
X7392270Y-26226476D01*
X7525604Y-26226476D02*
X7658937Y-26226476D01*
X7573223Y-26426476D01*
X7773223Y-26226476D02*
X7792270Y-26226476D01*
X7811318Y-26236000D01*
X7820842Y-26245524D01*
X7830366Y-26264571D01*
X7839889Y-26302667D01*
X7839889Y-26350286D01*
X7830366Y-26388381D01*
X7820842Y-26407428D01*
X7811318Y-26416952D01*
X7792270Y-26426476D01*
X7773223Y-26426476D01*
X7754175Y-26416952D01*
X7744651Y-26407428D01*
X7735128Y-26388381D01*
X7725604Y-26350286D01*
X7725604Y-26302667D01*
X7735128Y-26264571D01*
X7744651Y-26245524D01*
X7754175Y-26236000D01*
X7773223Y-26226476D01*
X7935128Y-26426476D02*
X7973223Y-26426476D01*
X7992270Y-26416952D01*
X8001794Y-26407428D01*
X8020842Y-26378857D01*
X8030366Y-26340762D01*
X8030366Y-26264571D01*
X8020842Y-26245524D01*
X8011318Y-26236000D01*
X7992270Y-26226476D01*
X7954175Y-26226476D01*
X7935128Y-26236000D01*
X7925604Y-26245524D01*
X7916080Y-26264571D01*
X7916080Y-26312190D01*
X7925604Y-26331238D01*
X7935128Y-26340762D01*
X7954175Y-26350286D01*
X7992270Y-26350286D01*
X8011318Y-26340762D01*
X8020842Y-26331238D01*
X8030366Y-26312190D01*
X8106556Y-26226476D02*
X8106556Y-26264571D01*
X8182747Y-26226476D02*
X8182747Y-26264571D01*
X8477985Y-26502667D02*
X8468461Y-26493143D01*
X8449413Y-26464571D01*
X8439890Y-26445524D01*
X8430366Y-26416952D01*
X8420842Y-26369333D01*
X8420842Y-26331238D01*
X8430366Y-26283619D01*
X8439890Y-26255048D01*
X8449413Y-26236000D01*
X8468461Y-26207428D01*
X8477985Y-26197905D01*
X8544651Y-26245524D02*
X8554175Y-26236000D01*
X8573223Y-26226476D01*
X8620842Y-26226476D01*
X8639890Y-26236000D01*
X8649413Y-26245524D01*
X8658937Y-26264571D01*
X8658937Y-26283619D01*
X8649413Y-26312190D01*
X8535128Y-26426476D01*
X8658937Y-26426476D01*
X8897032Y-26426476D02*
X8897032Y-26226476D01*
X8982747Y-26426476D02*
X8982747Y-26321714D01*
X8973223Y-26302667D01*
X8954175Y-26293143D01*
X8925604Y-26293143D01*
X8906556Y-26302667D01*
X8897032Y-26312190D01*
X9106556Y-26426476D02*
X9087509Y-26416952D01*
X9077985Y-26407428D01*
X9068461Y-26388381D01*
X9068461Y-26331238D01*
X9077985Y-26312190D01*
X9087509Y-26302667D01*
X9106556Y-26293143D01*
X9135128Y-26293143D01*
X9154175Y-26302667D01*
X9163699Y-26312190D01*
X9173223Y-26331238D01*
X9173223Y-26388381D01*
X9163699Y-26407428D01*
X9154175Y-26416952D01*
X9135128Y-26426476D01*
X9106556Y-26426476D01*
X9287509Y-26426476D02*
X9268461Y-26416952D01*
X9258937Y-26397905D01*
X9258937Y-26226476D01*
X9439890Y-26416952D02*
X9420842Y-26426476D01*
X9382747Y-26426476D01*
X9363699Y-26416952D01*
X9354175Y-26397905D01*
X9354175Y-26321714D01*
X9363699Y-26302667D01*
X9382747Y-26293143D01*
X9420842Y-26293143D01*
X9439890Y-26302667D01*
X9449413Y-26321714D01*
X9449413Y-26340762D01*
X9354175Y-26359809D01*
X9525604Y-26416952D02*
X9544651Y-26426476D01*
X9582747Y-26426476D01*
X9601794Y-26416952D01*
X9611318Y-26397905D01*
X9611318Y-26388381D01*
X9601794Y-26369333D01*
X9582747Y-26359809D01*
X9554175Y-26359809D01*
X9535128Y-26350286D01*
X9525604Y-26331238D01*
X9525604Y-26321714D01*
X9535128Y-26302667D01*
X9554175Y-26293143D01*
X9582747Y-26293143D01*
X9601794Y-26302667D01*
X9677985Y-26502667D02*
X9687509Y-26493143D01*
X9706556Y-26464571D01*
X9716080Y-26445524D01*
X9725604Y-26416952D01*
X9735128Y-26369333D01*
X9735128Y-26331238D01*
X9725604Y-26283619D01*
X9716080Y-26255048D01*
X9706556Y-26236000D01*
X9687509Y-26207428D01*
X9677985Y-26197905D01*
X4806080Y-26736000D02*
X4906080Y-26636000D01*
X4806080Y-26536000D01*
X4706080Y-26636000D01*
X4806080Y-26736000D01*
X4876791Y-26706711D02*
X4876791Y-26565289D01*
X4735369Y-26565289D01*
X4735369Y-26706711D01*
X4876791Y-26706711D01*
X5154175Y-26545524D02*
X5163699Y-26536000D01*
X5182747Y-26526476D01*
X5230366Y-26526476D01*
X5249413Y-26536000D01*
X5258937Y-26545524D01*
X5268461Y-26564571D01*
X5268461Y-26583619D01*
X5258937Y-26612190D01*
X5144651Y-26726476D01*
X5268461Y-26726476D01*
X5354175Y-26707428D02*
X5363699Y-26716952D01*
X5354175Y-26726476D01*
X5344651Y-26716952D01*
X5354175Y-26707428D01*
X5354175Y-26726476D01*
X5487509Y-26526476D02*
X5506556Y-26526476D01*
X5525604Y-26536000D01*
X5535128Y-26545524D01*
X5544651Y-26564571D01*
X5554175Y-26602667D01*
X5554175Y-26650286D01*
X5544651Y-26688381D01*
X5535128Y-26707428D01*
X5525604Y-26716952D01*
X5506556Y-26726476D01*
X5487509Y-26726476D01*
X5468461Y-26716952D01*
X5458937Y-26707428D01*
X5449413Y-26688381D01*
X5439890Y-26650286D01*
X5439890Y-26602667D01*
X5449413Y-26564571D01*
X5458937Y-26545524D01*
X5468461Y-26536000D01*
X5487509Y-26526476D01*
X5677985Y-26526476D02*
X5697032Y-26526476D01*
X5716080Y-26536000D01*
X5725604Y-26545524D01*
X5735128Y-26564571D01*
X5744651Y-26602667D01*
X5744651Y-26650286D01*
X5735128Y-26688381D01*
X5725604Y-26707428D01*
X5716080Y-26716952D01*
X5697032Y-26726476D01*
X5677985Y-26726476D01*
X5658937Y-26716952D01*
X5649413Y-26707428D01*
X5639889Y-26688381D01*
X5630366Y-26650286D01*
X5630366Y-26602667D01*
X5639889Y-26564571D01*
X5649413Y-26545524D01*
X5658937Y-26536000D01*
X5677985Y-26526476D01*
X5868461Y-26526476D02*
X5887508Y-26526476D01*
X5906556Y-26536000D01*
X5916080Y-26545524D01*
X5925604Y-26564571D01*
X5935128Y-26602667D01*
X5935128Y-26650286D01*
X5925604Y-26688381D01*
X5916080Y-26707428D01*
X5906556Y-26716952D01*
X5887508Y-26726476D01*
X5868461Y-26726476D01*
X5849413Y-26716952D01*
X5839889Y-26707428D01*
X5830366Y-26688381D01*
X5820842Y-26650286D01*
X5820842Y-26602667D01*
X5830366Y-26564571D01*
X5839889Y-26545524D01*
X5849413Y-26536000D01*
X5868461Y-26526476D01*
X6020842Y-26726476D02*
X6020842Y-26593143D01*
X6020842Y-26612190D02*
X6030366Y-26602667D01*
X6049413Y-26593143D01*
X6077985Y-26593143D01*
X6097032Y-26602667D01*
X6106556Y-26621714D01*
X6106556Y-26726476D01*
X6106556Y-26621714D02*
X6116080Y-26602667D01*
X6135128Y-26593143D01*
X6163699Y-26593143D01*
X6182747Y-26602667D01*
X6192270Y-26621714D01*
X6192270Y-26726476D01*
X6287508Y-26726476D02*
X6287508Y-26593143D01*
X6287508Y-26612190D02*
X6297032Y-26602667D01*
X6316080Y-26593143D01*
X6344651Y-26593143D01*
X6363699Y-26602667D01*
X6373223Y-26621714D01*
X6373223Y-26726476D01*
X6373223Y-26621714D02*
X6382747Y-26602667D01*
X6401794Y-26593143D01*
X6430366Y-26593143D01*
X6449413Y-26602667D01*
X6458937Y-26621714D01*
X6458937Y-26726476D01*
X6849413Y-26516952D02*
X6677985Y-26774095D01*
X7106556Y-26526476D02*
X7125604Y-26526476D01*
X7144651Y-26536000D01*
X7154175Y-26545524D01*
X7163699Y-26564571D01*
X7173223Y-26602667D01*
X7173223Y-26650286D01*
X7163699Y-26688381D01*
X7154175Y-26707428D01*
X7144651Y-26716952D01*
X7125604Y-26726476D01*
X7106556Y-26726476D01*
X7087508Y-26716952D01*
X7077985Y-26707428D01*
X7068461Y-26688381D01*
X7058937Y-26650286D01*
X7058937Y-26602667D01*
X7068461Y-26564571D01*
X7077985Y-26545524D01*
X7087508Y-26536000D01*
X7106556Y-26526476D01*
X7258937Y-26707428D02*
X7268461Y-26716952D01*
X7258937Y-26726476D01*
X7249413Y-26716952D01*
X7258937Y-26707428D01*
X7258937Y-26726476D01*
X7392270Y-26526476D02*
X7411318Y-26526476D01*
X7430366Y-26536000D01*
X7439889Y-26545524D01*
X7449413Y-26564571D01*
X7458937Y-26602667D01*
X7458937Y-26650286D01*
X7449413Y-26688381D01*
X7439889Y-26707428D01*
X7430366Y-26716952D01*
X7411318Y-26726476D01*
X7392270Y-26726476D01*
X7373223Y-26716952D01*
X7363699Y-26707428D01*
X7354175Y-26688381D01*
X7344651Y-26650286D01*
X7344651Y-26602667D01*
X7354175Y-26564571D01*
X7363699Y-26545524D01*
X7373223Y-26536000D01*
X7392270Y-26526476D01*
X7525604Y-26526476D02*
X7658937Y-26526476D01*
X7573223Y-26726476D01*
X7763699Y-26612190D02*
X7744651Y-26602667D01*
X7735128Y-26593143D01*
X7725604Y-26574095D01*
X7725604Y-26564571D01*
X7735128Y-26545524D01*
X7744651Y-26536000D01*
X7763699Y-26526476D01*
X7801794Y-26526476D01*
X7820842Y-26536000D01*
X7830366Y-26545524D01*
X7839889Y-26564571D01*
X7839889Y-26574095D01*
X7830366Y-26593143D01*
X7820842Y-26602667D01*
X7801794Y-26612190D01*
X7763699Y-26612190D01*
X7744651Y-26621714D01*
X7735128Y-26631238D01*
X7725604Y-26650286D01*
X7725604Y-26688381D01*
X7735128Y-26707428D01*
X7744651Y-26716952D01*
X7763699Y-26726476D01*
X7801794Y-26726476D01*
X7820842Y-26716952D01*
X7830366Y-26707428D01*
X7839889Y-26688381D01*
X7839889Y-26650286D01*
X7830366Y-26631238D01*
X7820842Y-26621714D01*
X7801794Y-26612190D01*
X7906556Y-26526476D02*
X8039889Y-26526476D01*
X7954175Y-26726476D01*
X8106556Y-26526476D02*
X8106556Y-26564571D01*
X8182747Y-26526476D02*
X8182747Y-26564571D01*
X8477985Y-26802667D02*
X8468461Y-26793143D01*
X8449413Y-26764571D01*
X8439890Y-26745524D01*
X8430366Y-26716952D01*
X8420842Y-26669333D01*
X8420842Y-26631238D01*
X8430366Y-26583619D01*
X8439890Y-26555048D01*
X8449413Y-26536000D01*
X8468461Y-26507428D01*
X8477985Y-26497905D01*
X8658937Y-26726476D02*
X8544651Y-26726476D01*
X8601794Y-26726476D02*
X8601794Y-26526476D01*
X8582747Y-26555048D01*
X8563699Y-26574095D01*
X8544651Y-26583619D01*
X8830366Y-26593143D02*
X8830366Y-26726476D01*
X8782747Y-26516952D02*
X8735128Y-26659809D01*
X8858937Y-26659809D01*
X9087509Y-26726476D02*
X9087509Y-26526476D01*
X9173223Y-26726476D02*
X9173223Y-26621714D01*
X9163699Y-26602667D01*
X9144651Y-26593143D01*
X9116080Y-26593143D01*
X9097032Y-26602667D01*
X9087509Y-26612190D01*
X9297032Y-26726476D02*
X9277985Y-26716952D01*
X9268461Y-26707428D01*
X9258937Y-26688381D01*
X9258937Y-26631238D01*
X9268461Y-26612190D01*
X9277985Y-26602667D01*
X9297032Y-26593143D01*
X9325604Y-26593143D01*
X9344651Y-26602667D01*
X9354175Y-26612190D01*
X9363699Y-26631238D01*
X9363699Y-26688381D01*
X9354175Y-26707428D01*
X9344651Y-26716952D01*
X9325604Y-26726476D01*
X9297032Y-26726476D01*
X9477985Y-26726476D02*
X9458937Y-26716952D01*
X9449413Y-26697905D01*
X9449413Y-26526476D01*
X9630366Y-26716952D02*
X9611318Y-26726476D01*
X9573223Y-26726476D01*
X9554175Y-26716952D01*
X9544651Y-26697905D01*
X9544651Y-26621714D01*
X9554175Y-26602667D01*
X9573223Y-26593143D01*
X9611318Y-26593143D01*
X9630366Y-26602667D01*
X9639890Y-26621714D01*
X9639890Y-26640762D01*
X9544651Y-26659809D01*
X9716080Y-26716952D02*
X9735128Y-26726476D01*
X9773223Y-26726476D01*
X9792270Y-26716952D01*
X9801794Y-26697905D01*
X9801794Y-26688381D01*
X9792270Y-26669333D01*
X9773223Y-26659809D01*
X9744651Y-26659809D01*
X9725604Y-26650286D01*
X9716080Y-26631238D01*
X9716080Y-26621714D01*
X9725604Y-26602667D01*
X9744651Y-26593143D01*
X9773223Y-26593143D01*
X9792270Y-26602667D01*
X9868461Y-26802667D02*
X9877985Y-26793143D01*
X9897032Y-26764571D01*
X9906556Y-26745524D01*
X9916080Y-26716952D01*
X9925604Y-26669333D01*
X9925604Y-26631238D01*
X9916080Y-26583619D01*
X9906556Y-26555048D01*
X9897032Y-26536000D01*
X9877985Y-26507428D01*
X9868461Y-26497905D01*
X4706080Y-26856000D02*
X4906080Y-27056000D01*
X4906080Y-26856000D02*
X4706080Y-27056000D01*
X4806080Y-26856000D02*
X4806080Y-27056000D01*
X4706080Y-26956000D02*
X4906080Y-26956000D01*
X4906080Y-26956000D02*
G75*
G03*
X4906080Y-26956000I-100000J0D01*
G01*
X5154175Y-26865524D02*
X5163699Y-26856000D01*
X5182747Y-26846476D01*
X5230366Y-26846476D01*
X5249413Y-26856000D01*
X5258937Y-26865524D01*
X5268461Y-26884571D01*
X5268461Y-26903619D01*
X5258937Y-26932190D01*
X5144651Y-27046476D01*
X5268461Y-27046476D01*
X5354175Y-27027428D02*
X5363699Y-27036952D01*
X5354175Y-27046476D01*
X5344651Y-27036952D01*
X5354175Y-27027428D01*
X5354175Y-27046476D01*
X5487509Y-26846476D02*
X5506556Y-26846476D01*
X5525604Y-26856000D01*
X5535128Y-26865524D01*
X5544651Y-26884571D01*
X5554175Y-26922667D01*
X5554175Y-26970286D01*
X5544651Y-27008381D01*
X5535128Y-27027428D01*
X5525604Y-27036952D01*
X5506556Y-27046476D01*
X5487509Y-27046476D01*
X5468461Y-27036952D01*
X5458937Y-27027428D01*
X5449413Y-27008381D01*
X5439890Y-26970286D01*
X5439890Y-26922667D01*
X5449413Y-26884571D01*
X5458937Y-26865524D01*
X5468461Y-26856000D01*
X5487509Y-26846476D01*
X5677985Y-26846476D02*
X5697032Y-26846476D01*
X5716080Y-26856000D01*
X5725604Y-26865524D01*
X5735128Y-26884571D01*
X5744651Y-26922667D01*
X5744651Y-26970286D01*
X5735128Y-27008381D01*
X5725604Y-27027428D01*
X5716080Y-27036952D01*
X5697032Y-27046476D01*
X5677985Y-27046476D01*
X5658937Y-27036952D01*
X5649413Y-27027428D01*
X5639889Y-27008381D01*
X5630366Y-26970286D01*
X5630366Y-26922667D01*
X5639889Y-26884571D01*
X5649413Y-26865524D01*
X5658937Y-26856000D01*
X5677985Y-26846476D01*
X5868461Y-26846476D02*
X5887508Y-26846476D01*
X5906556Y-26856000D01*
X5916080Y-26865524D01*
X5925604Y-26884571D01*
X5935128Y-26922667D01*
X5935128Y-26970286D01*
X5925604Y-27008381D01*
X5916080Y-27027428D01*
X5906556Y-27036952D01*
X5887508Y-27046476D01*
X5868461Y-27046476D01*
X5849413Y-27036952D01*
X5839889Y-27027428D01*
X5830366Y-27008381D01*
X5820842Y-26970286D01*
X5820842Y-26922667D01*
X5830366Y-26884571D01*
X5839889Y-26865524D01*
X5849413Y-26856000D01*
X5868461Y-26846476D01*
X6020842Y-27046476D02*
X6020842Y-26913143D01*
X6020842Y-26932190D02*
X6030366Y-26922667D01*
X6049413Y-26913143D01*
X6077985Y-26913143D01*
X6097032Y-26922667D01*
X6106556Y-26941714D01*
X6106556Y-27046476D01*
X6106556Y-26941714D02*
X6116080Y-26922667D01*
X6135128Y-26913143D01*
X6163699Y-26913143D01*
X6182747Y-26922667D01*
X6192270Y-26941714D01*
X6192270Y-27046476D01*
X6287508Y-27046476D02*
X6287508Y-26913143D01*
X6287508Y-26932190D02*
X6297032Y-26922667D01*
X6316080Y-26913143D01*
X6344651Y-26913143D01*
X6363699Y-26922667D01*
X6373223Y-26941714D01*
X6373223Y-27046476D01*
X6373223Y-26941714D02*
X6382747Y-26922667D01*
X6401794Y-26913143D01*
X6430366Y-26913143D01*
X6449413Y-26922667D01*
X6458937Y-26941714D01*
X6458937Y-27046476D01*
X6849413Y-26836952D02*
X6677985Y-27094095D01*
X7106556Y-26846476D02*
X7125604Y-26846476D01*
X7144651Y-26856000D01*
X7154175Y-26865524D01*
X7163699Y-26884571D01*
X7173223Y-26922667D01*
X7173223Y-26970286D01*
X7163699Y-27008381D01*
X7154175Y-27027428D01*
X7144651Y-27036952D01*
X7125604Y-27046476D01*
X7106556Y-27046476D01*
X7087508Y-27036952D01*
X7077985Y-27027428D01*
X7068461Y-27008381D01*
X7058937Y-26970286D01*
X7058937Y-26922667D01*
X7068461Y-26884571D01*
X7077985Y-26865524D01*
X7087508Y-26856000D01*
X7106556Y-26846476D01*
X7258937Y-27027428D02*
X7268461Y-27036952D01*
X7258937Y-27046476D01*
X7249413Y-27036952D01*
X7258937Y-27027428D01*
X7258937Y-27046476D01*
X7392270Y-26846476D02*
X7411318Y-26846476D01*
X7430366Y-26856000D01*
X7439889Y-26865524D01*
X7449413Y-26884571D01*
X7458937Y-26922667D01*
X7458937Y-26970286D01*
X7449413Y-27008381D01*
X7439889Y-27027428D01*
X7430366Y-27036952D01*
X7411318Y-27046476D01*
X7392270Y-27046476D01*
X7373223Y-27036952D01*
X7363699Y-27027428D01*
X7354175Y-27008381D01*
X7344651Y-26970286D01*
X7344651Y-26922667D01*
X7354175Y-26884571D01*
X7363699Y-26865524D01*
X7373223Y-26856000D01*
X7392270Y-26846476D01*
X7525604Y-26846476D02*
X7658937Y-26846476D01*
X7573223Y-27046476D01*
X7763699Y-26932190D02*
X7744651Y-26922667D01*
X7735128Y-26913143D01*
X7725604Y-26894095D01*
X7725604Y-26884571D01*
X7735128Y-26865524D01*
X7744651Y-26856000D01*
X7763699Y-26846476D01*
X7801794Y-26846476D01*
X7820842Y-26856000D01*
X7830366Y-26865524D01*
X7839889Y-26884571D01*
X7839889Y-26894095D01*
X7830366Y-26913143D01*
X7820842Y-26922667D01*
X7801794Y-26932190D01*
X7763699Y-26932190D01*
X7744651Y-26941714D01*
X7735128Y-26951238D01*
X7725604Y-26970286D01*
X7725604Y-27008381D01*
X7735128Y-27027428D01*
X7744651Y-27036952D01*
X7763699Y-27046476D01*
X7801794Y-27046476D01*
X7820842Y-27036952D01*
X7830366Y-27027428D01*
X7839889Y-27008381D01*
X7839889Y-26970286D01*
X7830366Y-26951238D01*
X7820842Y-26941714D01*
X7801794Y-26932190D01*
X7906556Y-26846476D02*
X8039889Y-26846476D01*
X7954175Y-27046476D01*
X8106556Y-26846476D02*
X8106556Y-26884571D01*
X8182747Y-26846476D02*
X8182747Y-26884571D01*
X8477985Y-27122667D02*
X8468461Y-27113143D01*
X8449413Y-27084571D01*
X8439890Y-27065524D01*
X8430366Y-27036952D01*
X8420842Y-26989333D01*
X8420842Y-26951238D01*
X8430366Y-26903619D01*
X8439890Y-26875048D01*
X8449413Y-26856000D01*
X8468461Y-26827428D01*
X8477985Y-26817905D01*
X8658937Y-27046476D02*
X8544651Y-27046476D01*
X8601794Y-27046476D02*
X8601794Y-26846476D01*
X8582747Y-26875048D01*
X8563699Y-26894095D01*
X8544651Y-26903619D01*
X8839890Y-26846476D02*
X8744651Y-26846476D01*
X8735128Y-26941714D01*
X8744651Y-26932190D01*
X8763699Y-26922667D01*
X8811318Y-26922667D01*
X8830366Y-26932190D01*
X8839890Y-26941714D01*
X8849413Y-26960762D01*
X8849413Y-27008381D01*
X8839890Y-27027428D01*
X8830366Y-27036952D01*
X8811318Y-27046476D01*
X8763699Y-27046476D01*
X8744651Y-27036952D01*
X8735128Y-27027428D01*
X9087509Y-27046476D02*
X9087509Y-26846476D01*
X9173223Y-27046476D02*
X9173223Y-26941714D01*
X9163699Y-26922667D01*
X9144651Y-26913143D01*
X9116080Y-26913143D01*
X9097032Y-26922667D01*
X9087509Y-26932190D01*
X9297032Y-27046476D02*
X9277985Y-27036952D01*
X9268461Y-27027428D01*
X9258937Y-27008381D01*
X9258937Y-26951238D01*
X9268461Y-26932190D01*
X9277985Y-26922667D01*
X9297032Y-26913143D01*
X9325604Y-26913143D01*
X9344651Y-26922667D01*
X9354175Y-26932190D01*
X9363699Y-26951238D01*
X9363699Y-27008381D01*
X9354175Y-27027428D01*
X9344651Y-27036952D01*
X9325604Y-27046476D01*
X9297032Y-27046476D01*
X9477985Y-27046476D02*
X9458937Y-27036952D01*
X9449413Y-27017905D01*
X9449413Y-26846476D01*
X9630366Y-27036952D02*
X9611318Y-27046476D01*
X9573223Y-27046476D01*
X9554175Y-27036952D01*
X9544651Y-27017905D01*
X9544651Y-26941714D01*
X9554175Y-26922667D01*
X9573223Y-26913143D01*
X9611318Y-26913143D01*
X9630366Y-26922667D01*
X9639890Y-26941714D01*
X9639890Y-26960762D01*
X9544651Y-26979809D01*
X9716080Y-27036952D02*
X9735128Y-27046476D01*
X9773223Y-27046476D01*
X9792270Y-27036952D01*
X9801794Y-27017905D01*
X9801794Y-27008381D01*
X9792270Y-26989333D01*
X9773223Y-26979809D01*
X9744651Y-26979809D01*
X9725604Y-26970286D01*
X9716080Y-26951238D01*
X9716080Y-26941714D01*
X9725604Y-26922667D01*
X9744651Y-26913143D01*
X9773223Y-26913143D01*
X9792270Y-26922667D01*
X9868461Y-27122667D02*
X9877985Y-27113143D01*
X9897032Y-27084571D01*
X9906556Y-27065524D01*
X9916080Y-27036952D01*
X9925604Y-26989333D01*
X9925604Y-26951238D01*
X9916080Y-26903619D01*
X9906556Y-26875048D01*
X9897032Y-26856000D01*
X9877985Y-26827428D01*
X9868461Y-26817905D01*
X4706080Y-27176000D02*
X4906080Y-27376000D01*
X4906080Y-27176000D02*
X4706080Y-27376000D01*
X4876791Y-27346711D02*
X4876791Y-27205289D01*
X4735369Y-27205289D01*
X4735369Y-27346711D01*
X4876791Y-27346711D01*
X4906080Y-27276000D02*
G75*
G03*
X4906080Y-27276000I-100000J0D01*
G01*
X5154175Y-27185524D02*
X5163699Y-27176000D01*
X5182747Y-27166476D01*
X5230366Y-27166476D01*
X5249413Y-27176000D01*
X5258937Y-27185524D01*
X5268461Y-27204571D01*
X5268461Y-27223619D01*
X5258937Y-27252190D01*
X5144651Y-27366476D01*
X5268461Y-27366476D01*
X5354175Y-27347428D02*
X5363699Y-27356952D01*
X5354175Y-27366476D01*
X5344651Y-27356952D01*
X5354175Y-27347428D01*
X5354175Y-27366476D01*
X5430366Y-27166476D02*
X5554175Y-27166476D01*
X5487509Y-27242667D01*
X5516080Y-27242667D01*
X5535128Y-27252190D01*
X5544651Y-27261714D01*
X5554175Y-27280762D01*
X5554175Y-27328381D01*
X5544651Y-27347428D01*
X5535128Y-27356952D01*
X5516080Y-27366476D01*
X5458937Y-27366476D01*
X5439890Y-27356952D01*
X5430366Y-27347428D01*
X5677985Y-27166476D02*
X5697032Y-27166476D01*
X5716080Y-27176000D01*
X5725604Y-27185524D01*
X5735128Y-27204571D01*
X5744651Y-27242667D01*
X5744651Y-27290286D01*
X5735128Y-27328381D01*
X5725604Y-27347428D01*
X5716080Y-27356952D01*
X5697032Y-27366476D01*
X5677985Y-27366476D01*
X5658937Y-27356952D01*
X5649413Y-27347428D01*
X5639889Y-27328381D01*
X5630366Y-27290286D01*
X5630366Y-27242667D01*
X5639889Y-27204571D01*
X5649413Y-27185524D01*
X5658937Y-27176000D01*
X5677985Y-27166476D01*
X5868461Y-27166476D02*
X5887508Y-27166476D01*
X5906556Y-27176000D01*
X5916080Y-27185524D01*
X5925604Y-27204571D01*
X5935128Y-27242667D01*
X5935128Y-27290286D01*
X5925604Y-27328381D01*
X5916080Y-27347428D01*
X5906556Y-27356952D01*
X5887508Y-27366476D01*
X5868461Y-27366476D01*
X5849413Y-27356952D01*
X5839889Y-27347428D01*
X5830366Y-27328381D01*
X5820842Y-27290286D01*
X5820842Y-27242667D01*
X5830366Y-27204571D01*
X5839889Y-27185524D01*
X5849413Y-27176000D01*
X5868461Y-27166476D01*
X6020842Y-27366476D02*
X6020842Y-27233143D01*
X6020842Y-27252190D02*
X6030366Y-27242667D01*
X6049413Y-27233143D01*
X6077985Y-27233143D01*
X6097032Y-27242667D01*
X6106556Y-27261714D01*
X6106556Y-27366476D01*
X6106556Y-27261714D02*
X6116080Y-27242667D01*
X6135128Y-27233143D01*
X6163699Y-27233143D01*
X6182747Y-27242667D01*
X6192270Y-27261714D01*
X6192270Y-27366476D01*
X6287508Y-27366476D02*
X6287508Y-27233143D01*
X6287508Y-27252190D02*
X6297032Y-27242667D01*
X6316080Y-27233143D01*
X6344651Y-27233143D01*
X6363699Y-27242667D01*
X6373223Y-27261714D01*
X6373223Y-27366476D01*
X6373223Y-27261714D02*
X6382747Y-27242667D01*
X6401794Y-27233143D01*
X6430366Y-27233143D01*
X6449413Y-27242667D01*
X6458937Y-27261714D01*
X6458937Y-27366476D01*
X6849413Y-27156952D02*
X6677985Y-27414095D01*
X7106556Y-27166476D02*
X7125604Y-27166476D01*
X7144651Y-27176000D01*
X7154175Y-27185524D01*
X7163699Y-27204571D01*
X7173223Y-27242667D01*
X7173223Y-27290286D01*
X7163699Y-27328381D01*
X7154175Y-27347428D01*
X7144651Y-27356952D01*
X7125604Y-27366476D01*
X7106556Y-27366476D01*
X7087508Y-27356952D01*
X7077985Y-27347428D01*
X7068461Y-27328381D01*
X7058937Y-27290286D01*
X7058937Y-27242667D01*
X7068461Y-27204571D01*
X7077985Y-27185524D01*
X7087508Y-27176000D01*
X7106556Y-27166476D01*
X7258937Y-27347428D02*
X7268461Y-27356952D01*
X7258937Y-27366476D01*
X7249413Y-27356952D01*
X7258937Y-27347428D01*
X7258937Y-27366476D01*
X7392270Y-27166476D02*
X7411318Y-27166476D01*
X7430366Y-27176000D01*
X7439889Y-27185524D01*
X7449413Y-27204571D01*
X7458937Y-27242667D01*
X7458937Y-27290286D01*
X7449413Y-27328381D01*
X7439889Y-27347428D01*
X7430366Y-27356952D01*
X7411318Y-27366476D01*
X7392270Y-27366476D01*
X7373223Y-27356952D01*
X7363699Y-27347428D01*
X7354175Y-27328381D01*
X7344651Y-27290286D01*
X7344651Y-27242667D01*
X7354175Y-27204571D01*
X7363699Y-27185524D01*
X7373223Y-27176000D01*
X7392270Y-27166476D01*
X7554175Y-27366476D02*
X7592270Y-27366476D01*
X7611318Y-27356952D01*
X7620842Y-27347428D01*
X7639889Y-27318857D01*
X7649413Y-27280762D01*
X7649413Y-27204571D01*
X7639889Y-27185524D01*
X7630366Y-27176000D01*
X7611318Y-27166476D01*
X7573223Y-27166476D01*
X7554175Y-27176000D01*
X7544651Y-27185524D01*
X7535128Y-27204571D01*
X7535128Y-27252190D01*
X7544651Y-27271238D01*
X7554175Y-27280762D01*
X7573223Y-27290286D01*
X7611318Y-27290286D01*
X7630366Y-27280762D01*
X7639889Y-27271238D01*
X7649413Y-27252190D01*
X7773223Y-27166476D02*
X7792270Y-27166476D01*
X7811318Y-27176000D01*
X7820842Y-27185524D01*
X7830366Y-27204571D01*
X7839889Y-27242667D01*
X7839889Y-27290286D01*
X7830366Y-27328381D01*
X7820842Y-27347428D01*
X7811318Y-27356952D01*
X7792270Y-27366476D01*
X7773223Y-27366476D01*
X7754175Y-27356952D01*
X7744651Y-27347428D01*
X7735128Y-27328381D01*
X7725604Y-27290286D01*
X7725604Y-27242667D01*
X7735128Y-27204571D01*
X7744651Y-27185524D01*
X7754175Y-27176000D01*
X7773223Y-27166476D01*
X8011318Y-27166476D02*
X7973223Y-27166476D01*
X7954175Y-27176000D01*
X7944651Y-27185524D01*
X7925604Y-27214095D01*
X7916080Y-27252190D01*
X7916080Y-27328381D01*
X7925604Y-27347428D01*
X7935128Y-27356952D01*
X7954175Y-27366476D01*
X7992270Y-27366476D01*
X8011318Y-27356952D01*
X8020842Y-27347428D01*
X8030366Y-27328381D01*
X8030366Y-27280762D01*
X8020842Y-27261714D01*
X8011318Y-27252190D01*
X7992270Y-27242667D01*
X7954175Y-27242667D01*
X7935128Y-27252190D01*
X7925604Y-27261714D01*
X7916080Y-27280762D01*
X8106556Y-27166476D02*
X8106556Y-27204571D01*
X8182747Y-27166476D02*
X8182747Y-27204571D01*
X8477985Y-27442667D02*
X8468461Y-27433143D01*
X8449413Y-27404571D01*
X8439890Y-27385524D01*
X8430366Y-27356952D01*
X8420842Y-27309333D01*
X8420842Y-27271238D01*
X8430366Y-27223619D01*
X8439890Y-27195048D01*
X8449413Y-27176000D01*
X8468461Y-27147428D01*
X8477985Y-27137905D01*
X8658937Y-27366476D02*
X8544651Y-27366476D01*
X8601794Y-27366476D02*
X8601794Y-27166476D01*
X8582747Y-27195048D01*
X8563699Y-27214095D01*
X8544651Y-27223619D01*
X8830366Y-27166476D02*
X8792270Y-27166476D01*
X8773223Y-27176000D01*
X8763699Y-27185524D01*
X8744651Y-27214095D01*
X8735128Y-27252190D01*
X8735128Y-27328381D01*
X8744651Y-27347428D01*
X8754175Y-27356952D01*
X8773223Y-27366476D01*
X8811318Y-27366476D01*
X8830366Y-27356952D01*
X8839890Y-27347428D01*
X8849413Y-27328381D01*
X8849413Y-27280762D01*
X8839890Y-27261714D01*
X8830366Y-27252190D01*
X8811318Y-27242667D01*
X8773223Y-27242667D01*
X8754175Y-27252190D01*
X8744651Y-27261714D01*
X8735128Y-27280762D01*
X9087509Y-27366476D02*
X9087509Y-27166476D01*
X9173223Y-27366476D02*
X9173223Y-27261714D01*
X9163699Y-27242667D01*
X9144651Y-27233143D01*
X9116080Y-27233143D01*
X9097032Y-27242667D01*
X9087509Y-27252190D01*
X9297032Y-27366476D02*
X9277985Y-27356952D01*
X9268461Y-27347428D01*
X9258937Y-27328381D01*
X9258937Y-27271238D01*
X9268461Y-27252190D01*
X9277985Y-27242667D01*
X9297032Y-27233143D01*
X9325604Y-27233143D01*
X9344651Y-27242667D01*
X9354175Y-27252190D01*
X9363699Y-27271238D01*
X9363699Y-27328381D01*
X9354175Y-27347428D01*
X9344651Y-27356952D01*
X9325604Y-27366476D01*
X9297032Y-27366476D01*
X9477985Y-27366476D02*
X9458937Y-27356952D01*
X9449413Y-27337905D01*
X9449413Y-27166476D01*
X9630366Y-27356952D02*
X9611318Y-27366476D01*
X9573223Y-27366476D01*
X9554175Y-27356952D01*
X9544651Y-27337905D01*
X9544651Y-27261714D01*
X9554175Y-27242667D01*
X9573223Y-27233143D01*
X9611318Y-27233143D01*
X9630366Y-27242667D01*
X9639890Y-27261714D01*
X9639890Y-27280762D01*
X9544651Y-27299809D01*
X9716080Y-27356952D02*
X9735128Y-27366476D01*
X9773223Y-27366476D01*
X9792270Y-27356952D01*
X9801794Y-27337905D01*
X9801794Y-27328381D01*
X9792270Y-27309333D01*
X9773223Y-27299809D01*
X9744651Y-27299809D01*
X9725604Y-27290286D01*
X9716080Y-27271238D01*
X9716080Y-27261714D01*
X9725604Y-27242667D01*
X9744651Y-27233143D01*
X9773223Y-27233143D01*
X9792270Y-27242667D01*
X9868461Y-27442667D02*
X9877985Y-27433143D01*
X9897032Y-27404571D01*
X9906556Y-27385524D01*
X9916080Y-27356952D01*
X9925604Y-27309333D01*
X9925604Y-27271238D01*
X9916080Y-27223619D01*
X9906556Y-27195048D01*
X9897032Y-27176000D01*
X9877985Y-27147428D01*
X9868461Y-27137905D01*
M02*
