%TF.GenerationSoftware,KiCad,Pcbnew,6.0.2+dfsg-1*%
%TF.CreationDate,2022-08-24T13:42:39-04:00*%
%TF.ProjectId,augertapowermanagement,61756765-7274-4617-906f-7765726d616e,rev?*%
%TF.SameCoordinates,Original*%
%TF.FileFunction,Legend,Top*%
%TF.FilePolarity,Positive*%
%FSLAX46Y46*%
G04 Gerber Fmt 4.6, Leading zero omitted, Abs format (unit mm)*
G04 Created by KiCad (PCBNEW 6.0.2+dfsg-1) date 2022-08-24 13:42:39*
%MOMM*%
%LPD*%
G01*
G04 APERTURE LIST*
G04 Aperture macros list*
%AMRoundRect*
0 Rectangle with rounded corners*
0 $1 Rounding radius*
0 $2 $3 $4 $5 $6 $7 $8 $9 X,Y pos of 4 corners*
0 Add a 4 corners polygon primitive as box body*
4,1,4,$2,$3,$4,$5,$6,$7,$8,$9,$2,$3,0*
0 Add four circle primitives for the rounded corners*
1,1,$1+$1,$2,$3*
1,1,$1+$1,$4,$5*
1,1,$1+$1,$6,$7*
1,1,$1+$1,$8,$9*
0 Add four rect primitives between the rounded corners*
20,1,$1+$1,$2,$3,$4,$5,0*
20,1,$1+$1,$4,$5,$6,$7,0*
20,1,$1+$1,$6,$7,$8,$9,0*
20,1,$1+$1,$8,$9,$2,$3,0*%
G04 Aperture macros list end*
%ADD10C,0.300000*%
%ADD11C,0.150000*%
%ADD12C,0.120000*%
%ADD13C,0.127000*%
%ADD14R,4.572000X4.572000*%
%ADD15RoundRect,0.150000X-0.825000X-0.150000X0.825000X-0.150000X0.825000X0.150000X-0.825000X0.150000X0*%
%ADD16R,2.600000X2.600000*%
%ADD17C,2.600000*%
%ADD18C,3.000000*%
%ADD19R,1.350000X1.350000*%
%ADD20O,1.350000X1.350000*%
%ADD21RoundRect,0.250002X-1.599998X-1.599998X1.599998X-1.599998X1.599998X1.599998X-1.599998X1.599998X0*%
%ADD22C,3.700000*%
%ADD23RoundRect,0.250000X-1.350000X-1.975000X1.350000X-1.975000X1.350000X1.975000X-1.350000X1.975000X0*%
%ADD24C,2.400000*%
%ADD25RoundRect,0.250000X-0.412500X-1.100000X0.412500X-1.100000X0.412500X1.100000X-0.412500X1.100000X0*%
%ADD26RoundRect,0.250000X1.075000X-0.400000X1.075000X0.400000X-1.075000X0.400000X-1.075000X-0.400000X0*%
%ADD27RoundRect,0.250000X-0.400000X-1.075000X0.400000X-1.075000X0.400000X1.075000X-0.400000X1.075000X0*%
%ADD28RoundRect,0.250000X1.350000X1.975000X-1.350000X1.975000X-1.350000X-1.975000X1.350000X-1.975000X0*%
%ADD29RoundRect,0.250000X-1.100000X0.412500X-1.100000X-0.412500X1.100000X-0.412500X1.100000X0.412500X0*%
%ADD30R,1.500000X1.500000*%
%ADD31C,1.500000*%
%ADD32RoundRect,0.249999X-0.450001X-1.425001X0.450001X-1.425001X0.450001X1.425001X-0.450001X1.425001X0*%
%ADD33O,2.200000X3.500000*%
%ADD34R,1.500000X2.500000*%
%ADD35O,1.500000X2.500000*%
%ADD36R,1.700000X1.700000*%
%ADD37O,1.700000X1.700000*%
%ADD38RoundRect,0.250000X0.400000X1.075000X-0.400000X1.075000X-0.400000X-1.075000X0.400000X-1.075000X0*%
%ADD39R,1.560000X1.560000*%
%ADD40C,1.560000*%
%ADD41RoundRect,0.150000X0.825000X0.150000X-0.825000X0.150000X-0.825000X-0.150000X0.825000X-0.150000X0*%
G04 APERTURE END LIST*
D10*
X47799883Y-110278571D02*
X47799883Y-108778571D01*
X48157026Y-108778571D01*
X48371311Y-108850000D01*
X48514168Y-108992857D01*
X48585597Y-109135714D01*
X48657026Y-109421428D01*
X48657026Y-109635714D01*
X48585597Y-109921428D01*
X48514168Y-110064285D01*
X48371311Y-110207142D01*
X48157026Y-110278571D01*
X47799883Y-110278571D01*
X49871311Y-110207142D02*
X49728454Y-110278571D01*
X49442740Y-110278571D01*
X49299883Y-110207142D01*
X49228454Y-110064285D01*
X49228454Y-109492857D01*
X49299883Y-109350000D01*
X49442740Y-109278571D01*
X49728454Y-109278571D01*
X49871311Y-109350000D01*
X49942740Y-109492857D01*
X49942740Y-109635714D01*
X49228454Y-109778571D01*
X50514168Y-110207142D02*
X50657026Y-110278571D01*
X50942740Y-110278571D01*
X51085597Y-110207142D01*
X51157026Y-110064285D01*
X51157026Y-109992857D01*
X51085597Y-109850000D01*
X50942740Y-109778571D01*
X50728454Y-109778571D01*
X50585597Y-109707142D01*
X50514168Y-109564285D01*
X50514168Y-109492857D01*
X50585597Y-109350000D01*
X50728454Y-109278571D01*
X50942740Y-109278571D01*
X51085597Y-109350000D01*
X51799883Y-110278571D02*
X51799883Y-109278571D01*
X51799883Y-108778571D02*
X51728454Y-108850000D01*
X51799883Y-108921428D01*
X51871311Y-108850000D01*
X51799883Y-108778571D01*
X51799883Y-108921428D01*
X53157026Y-109278571D02*
X53157026Y-110492857D01*
X53085597Y-110635714D01*
X53014168Y-110707142D01*
X52871311Y-110778571D01*
X52657026Y-110778571D01*
X52514168Y-110707142D01*
X53157026Y-110207142D02*
X53014168Y-110278571D01*
X52728454Y-110278571D01*
X52585597Y-110207142D01*
X52514168Y-110135714D01*
X52442740Y-109992857D01*
X52442740Y-109564285D01*
X52514168Y-109421428D01*
X52585597Y-109350000D01*
X52728454Y-109278571D01*
X53014168Y-109278571D01*
X53157026Y-109350000D01*
X53871311Y-109278571D02*
X53871311Y-110278571D01*
X53871311Y-109421428D02*
X53942740Y-109350000D01*
X54085597Y-109278571D01*
X54299883Y-109278571D01*
X54442740Y-109350000D01*
X54514168Y-109492857D01*
X54514168Y-110278571D01*
X56371311Y-110278571D02*
X56371311Y-108778571D01*
X56371311Y-109350000D02*
X56514168Y-109278571D01*
X56799883Y-109278571D01*
X56942740Y-109350000D01*
X57014168Y-109421428D01*
X57085597Y-109564285D01*
X57085597Y-109992857D01*
X57014168Y-110135714D01*
X56942740Y-110207142D01*
X56799883Y-110278571D01*
X56514168Y-110278571D01*
X56371311Y-110207142D01*
X57585597Y-109278571D02*
X57942740Y-110278571D01*
X58299883Y-109278571D02*
X57942740Y-110278571D01*
X57799883Y-110635714D01*
X57728454Y-110707142D01*
X57585597Y-110778571D01*
X60871311Y-110278571D02*
X60371311Y-109564285D01*
X60014168Y-110278571D02*
X60014168Y-108778571D01*
X60585597Y-108778571D01*
X60728454Y-108850000D01*
X60799883Y-108921428D01*
X60871311Y-109064285D01*
X60871311Y-109278571D01*
X60799883Y-109421428D01*
X60728454Y-109492857D01*
X60585597Y-109564285D01*
X60014168Y-109564285D01*
X61728454Y-110278571D02*
X61585597Y-110207142D01*
X61514168Y-110135714D01*
X61442740Y-109992857D01*
X61442740Y-109564285D01*
X61514168Y-109421428D01*
X61585597Y-109350000D01*
X61728454Y-109278571D01*
X61942740Y-109278571D01*
X62085597Y-109350000D01*
X62157026Y-109421428D01*
X62228454Y-109564285D01*
X62228454Y-109992857D01*
X62157026Y-110135714D01*
X62085597Y-110207142D01*
X61942740Y-110278571D01*
X61728454Y-110278571D01*
X62871311Y-110278571D02*
X62871311Y-108778571D01*
X62871311Y-109350000D02*
X63014168Y-109278571D01*
X63299883Y-109278571D01*
X63442740Y-109350000D01*
X63514168Y-109421428D01*
X63585597Y-109564285D01*
X63585597Y-109992857D01*
X63514168Y-110135714D01*
X63442740Y-110207142D01*
X63299883Y-110278571D01*
X63014168Y-110278571D01*
X62871311Y-110207142D01*
X64228454Y-110278571D02*
X64228454Y-109278571D01*
X64228454Y-108778571D02*
X64157025Y-108850000D01*
X64228454Y-108921428D01*
X64299883Y-108850000D01*
X64228454Y-108778571D01*
X64228454Y-108921428D01*
X64942740Y-109278571D02*
X64942740Y-110278571D01*
X64942740Y-109421428D02*
X65014168Y-109350000D01*
X65157025Y-109278571D01*
X65371311Y-109278571D01*
X65514168Y-109350000D01*
X65585597Y-109492857D01*
X65585597Y-110278571D01*
X67871311Y-108778571D02*
X67871311Y-109850000D01*
X67799883Y-110064285D01*
X67657026Y-110207142D01*
X67442740Y-110278571D01*
X67299883Y-110278571D01*
X69228454Y-110278571D02*
X69228454Y-109492857D01*
X69157026Y-109350000D01*
X69014168Y-109278571D01*
X68728454Y-109278571D01*
X68585597Y-109350000D01*
X69228454Y-110207142D02*
X69085597Y-110278571D01*
X68728454Y-110278571D01*
X68585597Y-110207142D01*
X68514168Y-110064285D01*
X68514168Y-109921428D01*
X68585597Y-109778571D01*
X68728454Y-109707142D01*
X69085597Y-109707142D01*
X69228454Y-109635714D01*
X69942740Y-110278571D02*
X69942740Y-109278571D01*
X69942740Y-109421428D02*
X70014168Y-109350000D01*
X70157026Y-109278571D01*
X70371311Y-109278571D01*
X70514168Y-109350000D01*
X70585597Y-109492857D01*
X70585597Y-110278571D01*
X70585597Y-109492857D02*
X70657026Y-109350000D01*
X70799883Y-109278571D01*
X71014168Y-109278571D01*
X71157026Y-109350000D01*
X71228454Y-109492857D01*
X71228454Y-110278571D01*
X72514168Y-110207142D02*
X72371311Y-110278571D01*
X72085597Y-110278571D01*
X71942740Y-110207142D01*
X71871311Y-110064285D01*
X71871311Y-109492857D01*
X71942740Y-109350000D01*
X72085597Y-109278571D01*
X72371311Y-109278571D01*
X72514168Y-109350000D01*
X72585597Y-109492857D01*
X72585597Y-109635714D01*
X71871311Y-109778571D01*
X73157026Y-110207142D02*
X73299883Y-110278571D01*
X73585597Y-110278571D01*
X73728454Y-110207142D01*
X73799883Y-110064285D01*
X73799883Y-109992857D01*
X73728454Y-109850000D01*
X73585597Y-109778571D01*
X73371311Y-109778571D01*
X73228454Y-109707142D01*
X73157026Y-109564285D01*
X73157026Y-109492857D01*
X73228454Y-109350000D01*
X73371311Y-109278571D01*
X73585597Y-109278571D01*
X73728454Y-109350000D01*
X76228454Y-110278571D02*
X76228454Y-109492857D01*
X76157026Y-109350000D01*
X76014168Y-109278571D01*
X75728454Y-109278571D01*
X75585597Y-109350000D01*
X76228454Y-110207142D02*
X76085597Y-110278571D01*
X75728454Y-110278571D01*
X75585597Y-110207142D01*
X75514168Y-110064285D01*
X75514168Y-109921428D01*
X75585597Y-109778571D01*
X75728454Y-109707142D01*
X76085597Y-109707142D01*
X76228454Y-109635714D01*
X76728454Y-109278571D02*
X77299883Y-109278571D01*
X76942740Y-108778571D02*
X76942740Y-110064285D01*
X77014168Y-110207142D01*
X77157026Y-110278571D01*
X77299883Y-110278571D01*
X79799883Y-110135714D02*
X79728454Y-110207142D01*
X79514168Y-110278571D01*
X79371311Y-110278571D01*
X79157026Y-110207142D01*
X79014168Y-110064285D01*
X78942740Y-109921428D01*
X78871311Y-109635714D01*
X78871311Y-109421428D01*
X78942740Y-109135714D01*
X79014168Y-108992857D01*
X79157026Y-108850000D01*
X79371311Y-108778571D01*
X79514168Y-108778571D01*
X79728454Y-108850000D01*
X79799883Y-108921428D01*
X80299883Y-108778571D02*
X80657026Y-110278571D01*
X80942740Y-109207142D01*
X81228454Y-110278571D01*
X81585597Y-108778571D01*
X83014168Y-110278571D02*
X82514168Y-109564285D01*
X82157026Y-110278571D02*
X82157026Y-108778571D01*
X82728454Y-108778571D01*
X82871311Y-108850000D01*
X82942740Y-108921428D01*
X83014168Y-109064285D01*
X83014168Y-109278571D01*
X82942740Y-109421428D01*
X82871311Y-109492857D01*
X82728454Y-109564285D01*
X82157026Y-109564285D01*
X83657026Y-108778571D02*
X83657026Y-109992857D01*
X83728454Y-110135714D01*
X83799883Y-110207142D01*
X83942740Y-110278571D01*
X84228454Y-110278571D01*
X84371311Y-110207142D01*
X84442740Y-110135714D01*
X84514168Y-109992857D01*
X84514168Y-108778571D01*
X48049883Y-105050000D02*
X48764168Y-105050000D01*
X47907025Y-105478571D02*
X48407025Y-103978571D01*
X48907025Y-105478571D01*
X50049883Y-104478571D02*
X50049883Y-105478571D01*
X49407025Y-104478571D02*
X49407025Y-105264285D01*
X49478454Y-105407142D01*
X49621311Y-105478571D01*
X49835597Y-105478571D01*
X49978454Y-105407142D01*
X50049883Y-105335714D01*
X51407025Y-104478571D02*
X51407025Y-105692857D01*
X51335597Y-105835714D01*
X51264168Y-105907142D01*
X51121311Y-105978571D01*
X50907025Y-105978571D01*
X50764168Y-105907142D01*
X51407025Y-105407142D02*
X51264168Y-105478571D01*
X50978454Y-105478571D01*
X50835597Y-105407142D01*
X50764168Y-105335714D01*
X50692740Y-105192857D01*
X50692740Y-104764285D01*
X50764168Y-104621428D01*
X50835597Y-104550000D01*
X50978454Y-104478571D01*
X51264168Y-104478571D01*
X51407025Y-104550000D01*
X52692740Y-105407142D02*
X52549883Y-105478571D01*
X52264168Y-105478571D01*
X52121311Y-105407142D01*
X52049883Y-105264285D01*
X52049883Y-104692857D01*
X52121311Y-104550000D01*
X52264168Y-104478571D01*
X52549883Y-104478571D01*
X52692740Y-104550000D01*
X52764168Y-104692857D01*
X52764168Y-104835714D01*
X52049883Y-104978571D01*
X53407025Y-105478571D02*
X53407025Y-104478571D01*
X53407025Y-104764285D02*
X53478454Y-104621428D01*
X53549883Y-104550000D01*
X53692740Y-104478571D01*
X53835597Y-104478571D01*
X55264168Y-104764285D02*
X55192740Y-104692857D01*
X55049883Y-104621428D01*
X54907025Y-104621428D01*
X54764168Y-104692857D01*
X54692740Y-104764285D01*
X54621311Y-104907142D01*
X54621311Y-105050000D01*
X54692740Y-105192857D01*
X54764168Y-105264285D01*
X54907025Y-105335714D01*
X55049883Y-105335714D01*
X55192740Y-105264285D01*
X55264168Y-105192857D01*
X55264168Y-104621428D02*
X55264168Y-105192857D01*
X55335597Y-105264285D01*
X55407025Y-105264285D01*
X55549883Y-105192857D01*
X55621311Y-105050000D01*
X55621311Y-104692857D01*
X55478454Y-104478571D01*
X55264168Y-104335714D01*
X54978454Y-104264285D01*
X54692740Y-104335714D01*
X54478454Y-104478571D01*
X54335597Y-104692857D01*
X54264168Y-104978571D01*
X54335597Y-105264285D01*
X54478454Y-105478571D01*
X54692740Y-105621428D01*
X54978454Y-105692857D01*
X55264168Y-105621428D01*
X55478454Y-105478571D01*
X56049883Y-103978571D02*
X56907025Y-103978571D01*
X56478454Y-105478571D02*
X56478454Y-103978571D01*
X57335597Y-105050000D02*
X58049883Y-105050000D01*
X57192740Y-105478571D02*
X57692740Y-103978571D01*
X58192740Y-105478571D01*
X59835597Y-105478571D02*
X59835597Y-103978571D01*
X60407025Y-103978571D01*
X60549883Y-104050000D01*
X60621311Y-104121428D01*
X60692740Y-104264285D01*
X60692740Y-104478571D01*
X60621311Y-104621428D01*
X60549883Y-104692857D01*
X60407025Y-104764285D01*
X59835597Y-104764285D01*
X61549883Y-105478571D02*
X61407025Y-105407142D01*
X61335597Y-105335714D01*
X61264168Y-105192857D01*
X61264168Y-104764285D01*
X61335597Y-104621428D01*
X61407025Y-104550000D01*
X61549883Y-104478571D01*
X61764168Y-104478571D01*
X61907025Y-104550000D01*
X61978454Y-104621428D01*
X62049883Y-104764285D01*
X62049883Y-105192857D01*
X61978454Y-105335714D01*
X61907025Y-105407142D01*
X61764168Y-105478571D01*
X61549883Y-105478571D01*
X62549883Y-104478571D02*
X62835597Y-105478571D01*
X63121311Y-104764285D01*
X63407025Y-105478571D01*
X63692740Y-104478571D01*
X64835597Y-105407142D02*
X64692740Y-105478571D01*
X64407025Y-105478571D01*
X64264168Y-105407142D01*
X64192740Y-105264285D01*
X64192740Y-104692857D01*
X64264168Y-104550000D01*
X64407025Y-104478571D01*
X64692740Y-104478571D01*
X64835597Y-104550000D01*
X64907025Y-104692857D01*
X64907025Y-104835714D01*
X64192740Y-104978571D01*
X65549883Y-105478571D02*
X65549883Y-104478571D01*
X65549883Y-104764285D02*
X65621311Y-104621428D01*
X65692740Y-104550000D01*
X65835597Y-104478571D01*
X65978454Y-104478571D01*
X67621311Y-105478571D02*
X67621311Y-103978571D01*
X68121311Y-105050000D01*
X68621311Y-103978571D01*
X68621311Y-105478571D01*
X69978454Y-105478571D02*
X69978454Y-104692857D01*
X69907025Y-104550000D01*
X69764168Y-104478571D01*
X69478454Y-104478571D01*
X69335597Y-104550000D01*
X69978454Y-105407142D02*
X69835597Y-105478571D01*
X69478454Y-105478571D01*
X69335597Y-105407142D01*
X69264168Y-105264285D01*
X69264168Y-105121428D01*
X69335597Y-104978571D01*
X69478454Y-104907142D01*
X69835597Y-104907142D01*
X69978454Y-104835714D01*
X70692740Y-104478571D02*
X70692740Y-105478571D01*
X70692740Y-104621428D02*
X70764168Y-104550000D01*
X70907025Y-104478571D01*
X71121311Y-104478571D01*
X71264168Y-104550000D01*
X71335597Y-104692857D01*
X71335597Y-105478571D01*
X72692740Y-105478571D02*
X72692740Y-104692857D01*
X72621311Y-104550000D01*
X72478454Y-104478571D01*
X72192740Y-104478571D01*
X72049883Y-104550000D01*
X72692740Y-105407142D02*
X72549883Y-105478571D01*
X72192740Y-105478571D01*
X72049883Y-105407142D01*
X71978454Y-105264285D01*
X71978454Y-105121428D01*
X72049883Y-104978571D01*
X72192740Y-104907142D01*
X72549883Y-104907142D01*
X72692740Y-104835714D01*
X74049883Y-104478571D02*
X74049883Y-105692857D01*
X73978454Y-105835714D01*
X73907026Y-105907142D01*
X73764168Y-105978571D01*
X73549883Y-105978571D01*
X73407026Y-105907142D01*
X74049883Y-105407142D02*
X73907026Y-105478571D01*
X73621311Y-105478571D01*
X73478454Y-105407142D01*
X73407026Y-105335714D01*
X73335597Y-105192857D01*
X73335597Y-104764285D01*
X73407026Y-104621428D01*
X73478454Y-104550000D01*
X73621311Y-104478571D01*
X73907026Y-104478571D01*
X74049883Y-104550000D01*
X74764168Y-105478571D02*
X74764168Y-104478571D01*
X74764168Y-104621428D02*
X74835597Y-104550000D01*
X74978454Y-104478571D01*
X75192740Y-104478571D01*
X75335597Y-104550000D01*
X75407026Y-104692857D01*
X75407026Y-105478571D01*
X75407026Y-104692857D02*
X75478454Y-104550000D01*
X75621311Y-104478571D01*
X75835597Y-104478571D01*
X75978454Y-104550000D01*
X76049883Y-104692857D01*
X76049883Y-105478571D01*
X77335597Y-105407142D02*
X77192740Y-105478571D01*
X76907026Y-105478571D01*
X76764168Y-105407142D01*
X76692740Y-105264285D01*
X76692740Y-104692857D01*
X76764168Y-104550000D01*
X76907026Y-104478571D01*
X77192740Y-104478571D01*
X77335597Y-104550000D01*
X77407026Y-104692857D01*
X77407026Y-104835714D01*
X76692740Y-104978571D01*
X78049883Y-104478571D02*
X78049883Y-105478571D01*
X78049883Y-104621428D02*
X78121311Y-104550000D01*
X78264168Y-104478571D01*
X78478454Y-104478571D01*
X78621311Y-104550000D01*
X78692740Y-104692857D01*
X78692740Y-105478571D01*
X79192740Y-104478571D02*
X79764168Y-104478571D01*
X79407026Y-103978571D02*
X79407026Y-105264285D01*
X79478454Y-105407142D01*
X79621311Y-105478571D01*
X79764168Y-105478571D01*
X81907026Y-104692857D02*
X82121311Y-104764285D01*
X82192740Y-104835714D01*
X82264168Y-104978571D01*
X82264168Y-105192857D01*
X82192740Y-105335714D01*
X82121311Y-105407142D01*
X81978454Y-105478571D01*
X81407026Y-105478571D01*
X81407026Y-103978571D01*
X81907026Y-103978571D01*
X82049883Y-104050000D01*
X82121311Y-104121428D01*
X82192740Y-104264285D01*
X82192740Y-104407142D01*
X82121311Y-104550000D01*
X82049883Y-104621428D01*
X81907026Y-104692857D01*
X81407026Y-104692857D01*
X83121311Y-105478571D02*
X82978454Y-105407142D01*
X82907026Y-105335714D01*
X82835597Y-105192857D01*
X82835597Y-104764285D01*
X82907026Y-104621428D01*
X82978454Y-104550000D01*
X83121311Y-104478571D01*
X83335597Y-104478571D01*
X83478454Y-104550000D01*
X83549883Y-104621428D01*
X83621311Y-104764285D01*
X83621311Y-105192857D01*
X83549883Y-105335714D01*
X83478454Y-105407142D01*
X83335597Y-105478571D01*
X83121311Y-105478571D01*
X84907026Y-105478571D02*
X84907026Y-104692857D01*
X84835597Y-104550000D01*
X84692740Y-104478571D01*
X84407026Y-104478571D01*
X84264168Y-104550000D01*
X84907026Y-105407142D02*
X84764168Y-105478571D01*
X84407026Y-105478571D01*
X84264168Y-105407142D01*
X84192740Y-105264285D01*
X84192740Y-105121428D01*
X84264168Y-104978571D01*
X84407026Y-104907142D01*
X84764168Y-104907142D01*
X84907026Y-104835714D01*
X85621311Y-105478571D02*
X85621311Y-104478571D01*
X85621311Y-104764285D02*
X85692740Y-104621428D01*
X85764168Y-104550000D01*
X85907026Y-104478571D01*
X86049883Y-104478571D01*
X87192740Y-105478571D02*
X87192740Y-103978571D01*
X87192740Y-105407142D02*
X87049883Y-105478571D01*
X86764168Y-105478571D01*
X86621311Y-105407142D01*
X86549883Y-105335714D01*
X86478454Y-105192857D01*
X86478454Y-104764285D01*
X86549883Y-104621428D01*
X86621311Y-104550000D01*
X86764168Y-104478571D01*
X87049883Y-104478571D01*
X87192740Y-104550000D01*
D11*
%TO.C,U14*%
X353990930Y-104082380D02*
X353990930Y-104891904D01*
X354038549Y-104987142D01*
X354086168Y-105034761D01*
X354181406Y-105082380D01*
X354371883Y-105082380D01*
X354467121Y-105034761D01*
X354514740Y-104987142D01*
X354562359Y-104891904D01*
X354562359Y-104082380D01*
X355562359Y-105082380D02*
X354990930Y-105082380D01*
X355276645Y-105082380D02*
X355276645Y-104082380D01*
X355181406Y-104225238D01*
X355086168Y-104320476D01*
X354990930Y-104368095D01*
X356419502Y-104415714D02*
X356419502Y-105082380D01*
X356181406Y-104034761D02*
X355943311Y-104749047D01*
X356562359Y-104749047D01*
%TO.C,J10*%
X72135502Y-217363380D02*
X72135502Y-218077666D01*
X72087883Y-218220523D01*
X71992645Y-218315761D01*
X71849787Y-218363380D01*
X71754549Y-218363380D01*
X73135502Y-218363380D02*
X72564073Y-218363380D01*
X72849787Y-218363380D02*
X72849787Y-217363380D01*
X72754549Y-217506238D01*
X72659311Y-217601476D01*
X72564073Y-217649095D01*
X73754549Y-217363380D02*
X73849787Y-217363380D01*
X73945026Y-217411000D01*
X73992645Y-217458619D01*
X74040264Y-217553857D01*
X74087883Y-217744333D01*
X74087883Y-217982428D01*
X74040264Y-218172904D01*
X73992645Y-218268142D01*
X73945026Y-218315761D01*
X73849787Y-218363380D01*
X73754549Y-218363380D01*
X73659311Y-218315761D01*
X73611692Y-218268142D01*
X73564073Y-218172904D01*
X73516454Y-217982428D01*
X73516454Y-217744333D01*
X73564073Y-217553857D01*
X73611692Y-217458619D01*
X73659311Y-217411000D01*
X73754549Y-217363380D01*
%TO.C,TP6*%
X276495121Y-164624380D02*
X277066549Y-164624380D01*
X276780835Y-165624380D02*
X276780835Y-164624380D01*
X277399883Y-165624380D02*
X277399883Y-164624380D01*
X277780835Y-164624380D01*
X277876073Y-164672000D01*
X277923692Y-164719619D01*
X277971311Y-164814857D01*
X277971311Y-164957714D01*
X277923692Y-165052952D01*
X277876073Y-165100571D01*
X277780835Y-165148190D01*
X277399883Y-165148190D01*
X278828454Y-164624380D02*
X278637978Y-164624380D01*
X278542740Y-164672000D01*
X278495121Y-164719619D01*
X278399883Y-164862476D01*
X278352264Y-165052952D01*
X278352264Y-165433904D01*
X278399883Y-165529142D01*
X278447502Y-165576761D01*
X278542740Y-165624380D01*
X278733216Y-165624380D01*
X278828454Y-165576761D01*
X278876073Y-165529142D01*
X278923692Y-165433904D01*
X278923692Y-165195809D01*
X278876073Y-165100571D01*
X278828454Y-165052952D01*
X278733216Y-165005333D01*
X278542740Y-165005333D01*
X278447502Y-165052952D01*
X278399883Y-165100571D01*
X278352264Y-165195809D01*
%TO.C,JP5*%
X125959692Y-49404380D02*
X125959692Y-50118666D01*
X125912073Y-50261523D01*
X125816835Y-50356761D01*
X125673978Y-50404380D01*
X125578740Y-50404380D01*
X126435883Y-50404380D02*
X126435883Y-49404380D01*
X126816835Y-49404380D01*
X126912073Y-49452000D01*
X126959692Y-49499619D01*
X127007311Y-49594857D01*
X127007311Y-49737714D01*
X126959692Y-49832952D01*
X126912073Y-49880571D01*
X126816835Y-49928190D01*
X126435883Y-49928190D01*
X127912073Y-49404380D02*
X127435883Y-49404380D01*
X127388264Y-49880571D01*
X127435883Y-49832952D01*
X127531121Y-49785333D01*
X127769216Y-49785333D01*
X127864454Y-49832952D01*
X127912073Y-49880571D01*
X127959692Y-49975809D01*
X127959692Y-50213904D01*
X127912073Y-50309142D01*
X127864454Y-50356761D01*
X127769216Y-50404380D01*
X127531121Y-50404380D01*
X127435883Y-50356761D01*
X127388264Y-50309142D01*
%TO.C,J2*%
X59223692Y-38527380D02*
X59223692Y-39241666D01*
X59176073Y-39384523D01*
X59080835Y-39479761D01*
X58937978Y-39527380D01*
X58842740Y-39527380D01*
X59652264Y-38622619D02*
X59699883Y-38575000D01*
X59795121Y-38527380D01*
X60033216Y-38527380D01*
X60128454Y-38575000D01*
X60176073Y-38622619D01*
X60223692Y-38717857D01*
X60223692Y-38813095D01*
X60176073Y-38955952D01*
X59604645Y-39527380D01*
X60223692Y-39527380D01*
%TO.C,U8*%
X311515768Y-76841771D02*
X311515768Y-78056057D01*
X311587197Y-78198914D01*
X311658626Y-78270342D01*
X311801483Y-78341771D01*
X312087197Y-78341771D01*
X312230054Y-78270342D01*
X312301483Y-78198914D01*
X312372911Y-78056057D01*
X312372911Y-76841771D01*
X313301483Y-77484628D02*
X313158626Y-77413200D01*
X313087197Y-77341771D01*
X313015768Y-77198914D01*
X313015768Y-77127485D01*
X313087197Y-76984628D01*
X313158626Y-76913200D01*
X313301483Y-76841771D01*
X313587197Y-76841771D01*
X313730054Y-76913200D01*
X313801483Y-76984628D01*
X313872911Y-77127485D01*
X313872911Y-77198914D01*
X313801483Y-77341771D01*
X313730054Y-77413200D01*
X313587197Y-77484628D01*
X313301483Y-77484628D01*
X313158626Y-77556057D01*
X313087197Y-77627485D01*
X313015768Y-77770342D01*
X313015768Y-78056057D01*
X313087197Y-78198914D01*
X313158626Y-78270342D01*
X313301483Y-78341771D01*
X313587197Y-78341771D01*
X313730054Y-78270342D01*
X313801483Y-78198914D01*
X313872911Y-78056057D01*
X313872911Y-77770342D01*
X313801483Y-77627485D01*
X313730054Y-77556057D01*
X313587197Y-77484628D01*
X333155026Y-79178571D02*
X333440740Y-79178571D01*
X333583597Y-79250000D01*
X333726454Y-79392857D01*
X333797883Y-79678571D01*
X333797883Y-80178571D01*
X333726454Y-80464285D01*
X333583597Y-80607142D01*
X333440740Y-80678571D01*
X333155026Y-80678571D01*
X333012168Y-80607142D01*
X332869311Y-80464285D01*
X332797883Y-80178571D01*
X332797883Y-79678571D01*
X332869311Y-79392857D01*
X333012168Y-79250000D01*
X333155026Y-79178571D01*
X334440740Y-79178571D02*
X334440740Y-80392857D01*
X334512168Y-80535714D01*
X334583597Y-80607142D01*
X334726454Y-80678571D01*
X335012168Y-80678571D01*
X335155026Y-80607142D01*
X335226454Y-80535714D01*
X335297883Y-80392857D01*
X335297883Y-79178571D01*
X335797883Y-79178571D02*
X336655026Y-79178571D01*
X336226454Y-80678571D02*
X336226454Y-79178571D01*
X289419311Y-80678571D02*
X289419311Y-79178571D01*
X290133597Y-80678571D02*
X290133597Y-79178571D01*
X290990740Y-80678571D01*
X290990740Y-79178571D01*
%TO.C,J9*%
X176022692Y-205453380D02*
X176022692Y-206167666D01*
X175975073Y-206310523D01*
X175879835Y-206405761D01*
X175736978Y-206453380D01*
X175641740Y-206453380D01*
X176546502Y-206453380D02*
X176736978Y-206453380D01*
X176832216Y-206405761D01*
X176879835Y-206358142D01*
X176975073Y-206215285D01*
X177022692Y-206024809D01*
X177022692Y-205643857D01*
X176975073Y-205548619D01*
X176927454Y-205501000D01*
X176832216Y-205453380D01*
X176641740Y-205453380D01*
X176546502Y-205501000D01*
X176498883Y-205548619D01*
X176451264Y-205643857D01*
X176451264Y-205881952D01*
X176498883Y-205977190D01*
X176546502Y-206024809D01*
X176641740Y-206072428D01*
X176832216Y-206072428D01*
X176927454Y-206024809D01*
X176975073Y-205977190D01*
X177022692Y-205881952D01*
%TO.C,R15*%
X353922168Y-184728380D02*
X353588835Y-184252190D01*
X353350740Y-184728380D02*
X353350740Y-183728380D01*
X353731692Y-183728380D01*
X353826930Y-183776000D01*
X353874549Y-183823619D01*
X353922168Y-183918857D01*
X353922168Y-184061714D01*
X353874549Y-184156952D01*
X353826930Y-184204571D01*
X353731692Y-184252190D01*
X353350740Y-184252190D01*
X354874549Y-184728380D02*
X354303121Y-184728380D01*
X354588835Y-184728380D02*
X354588835Y-183728380D01*
X354493597Y-183871238D01*
X354398359Y-183966476D01*
X354303121Y-184014095D01*
X355779311Y-183728380D02*
X355303121Y-183728380D01*
X355255502Y-184204571D01*
X355303121Y-184156952D01*
X355398359Y-184109333D01*
X355636454Y-184109333D01*
X355731692Y-184156952D01*
X355779311Y-184204571D01*
X355826930Y-184299809D01*
X355826930Y-184537904D01*
X355779311Y-184633142D01*
X355731692Y-184680761D01*
X355636454Y-184728380D01*
X355398359Y-184728380D01*
X355303121Y-184680761D01*
X355255502Y-184633142D01*
%TO.C,TP9*%
X344203121Y-128660380D02*
X344774549Y-128660380D01*
X344488835Y-129660380D02*
X344488835Y-128660380D01*
X345107883Y-129660380D02*
X345107883Y-128660380D01*
X345488835Y-128660380D01*
X345584073Y-128708000D01*
X345631692Y-128755619D01*
X345679311Y-128850857D01*
X345679311Y-128993714D01*
X345631692Y-129088952D01*
X345584073Y-129136571D01*
X345488835Y-129184190D01*
X345107883Y-129184190D01*
X346155502Y-129660380D02*
X346345978Y-129660380D01*
X346441216Y-129612761D01*
X346488835Y-129565142D01*
X346584073Y-129422285D01*
X346631692Y-129231809D01*
X346631692Y-128850857D01*
X346584073Y-128755619D01*
X346536454Y-128708000D01*
X346441216Y-128660380D01*
X346250740Y-128660380D01*
X346155502Y-128708000D01*
X346107883Y-128755619D01*
X346060264Y-128850857D01*
X346060264Y-129088952D01*
X346107883Y-129184190D01*
X346155502Y-129231809D01*
X346250740Y-129279428D01*
X346441216Y-129279428D01*
X346536454Y-129231809D01*
X346584073Y-129184190D01*
X346631692Y-129088952D01*
%TO.C,R3*%
X270590359Y-162272380D02*
X270257026Y-161796190D01*
X270018930Y-162272380D02*
X270018930Y-161272380D01*
X270399883Y-161272380D01*
X270495121Y-161320000D01*
X270542740Y-161367619D01*
X270590359Y-161462857D01*
X270590359Y-161605714D01*
X270542740Y-161700952D01*
X270495121Y-161748571D01*
X270399883Y-161796190D01*
X270018930Y-161796190D01*
X270923692Y-161272380D02*
X271542740Y-161272380D01*
X271209406Y-161653333D01*
X271352264Y-161653333D01*
X271447502Y-161700952D01*
X271495121Y-161748571D01*
X271542740Y-161843809D01*
X271542740Y-162081904D01*
X271495121Y-162177142D01*
X271447502Y-162224761D01*
X271352264Y-162272380D01*
X271066549Y-162272380D01*
X270971311Y-162224761D01*
X270923692Y-162177142D01*
%TO.C,U3*%
X266695121Y-171652380D02*
X266695121Y-172461904D01*
X266742740Y-172557142D01*
X266790359Y-172604761D01*
X266885597Y-172652380D01*
X267076073Y-172652380D01*
X267171311Y-172604761D01*
X267218930Y-172557142D01*
X267266549Y-172461904D01*
X267266549Y-171652380D01*
X267647502Y-171652380D02*
X268266549Y-171652380D01*
X267933216Y-172033333D01*
X268076073Y-172033333D01*
X268171311Y-172080952D01*
X268218930Y-172128571D01*
X268266549Y-172223809D01*
X268266549Y-172461904D01*
X268218930Y-172557142D01*
X268171311Y-172604761D01*
X268076073Y-172652380D01*
X267790359Y-172652380D01*
X267695121Y-172604761D01*
X267647502Y-172557142D01*
%TO.C,K1*%
X129678645Y-123161904D02*
X130678645Y-123161904D01*
X129678645Y-123733333D02*
X130250073Y-123304761D01*
X130678645Y-123733333D02*
X130107216Y-123161904D01*
X129678645Y-124685714D02*
X129678645Y-124114285D01*
X129678645Y-124400000D02*
X130678645Y-124400000D01*
X130535787Y-124304761D01*
X130440549Y-124209523D01*
X130392930Y-124114285D01*
%TO.C,U9*%
X211043063Y-74244457D02*
X212257349Y-74244457D01*
X212400206Y-74173028D01*
X212471634Y-74101600D01*
X212543063Y-73958742D01*
X212543063Y-73673028D01*
X212471634Y-73530171D01*
X212400206Y-73458742D01*
X212257349Y-73387314D01*
X211043063Y-73387314D01*
X212543063Y-72601600D02*
X212543063Y-72315885D01*
X212471634Y-72173028D01*
X212400206Y-72101600D01*
X212185920Y-71958742D01*
X211900206Y-71887314D01*
X211328777Y-71887314D01*
X211185920Y-71958742D01*
X211114492Y-72030171D01*
X211043063Y-72173028D01*
X211043063Y-72458742D01*
X211114492Y-72601600D01*
X211185920Y-72673028D01*
X211328777Y-72744457D01*
X211685920Y-72744457D01*
X211828777Y-72673028D01*
X211900206Y-72601600D01*
X211971634Y-72458742D01*
X211971634Y-72173028D01*
X211900206Y-72030171D01*
X211828777Y-71958742D01*
X211685920Y-71887314D01*
X210206263Y-51433714D02*
X208706263Y-51433714D01*
X210206263Y-50719428D02*
X208706263Y-50719428D01*
X210206263Y-49862285D01*
X208706263Y-49862285D01*
X208706263Y-96598000D02*
X208706263Y-96312285D01*
X208777692Y-96169428D01*
X208920549Y-96026571D01*
X209206263Y-95955142D01*
X209706263Y-95955142D01*
X209991977Y-96026571D01*
X210134834Y-96169428D01*
X210206263Y-96312285D01*
X210206263Y-96598000D01*
X210134834Y-96740857D01*
X209991977Y-96883714D01*
X209706263Y-96955142D01*
X209206263Y-96955142D01*
X208920549Y-96883714D01*
X208777692Y-96740857D01*
X208706263Y-96598000D01*
X208706263Y-95312285D02*
X209920549Y-95312285D01*
X210063406Y-95240857D01*
X210134834Y-95169428D01*
X210206263Y-95026571D01*
X210206263Y-94740857D01*
X210134834Y-94598000D01*
X210063406Y-94526571D01*
X209920549Y-94455142D01*
X208706263Y-94455142D01*
X208706263Y-93955142D02*
X208706263Y-93098000D01*
X210206263Y-93526571D02*
X208706263Y-93526571D01*
%TO.C,TP12*%
X228018930Y-110954380D02*
X228590359Y-110954380D01*
X228304645Y-111954380D02*
X228304645Y-110954380D01*
X228923692Y-111954380D02*
X228923692Y-110954380D01*
X229304645Y-110954380D01*
X229399883Y-111002000D01*
X229447502Y-111049619D01*
X229495121Y-111144857D01*
X229495121Y-111287714D01*
X229447502Y-111382952D01*
X229399883Y-111430571D01*
X229304645Y-111478190D01*
X228923692Y-111478190D01*
X230447502Y-111954380D02*
X229876073Y-111954380D01*
X230161787Y-111954380D02*
X230161787Y-110954380D01*
X230066549Y-111097238D01*
X229971311Y-111192476D01*
X229876073Y-111240095D01*
X230828454Y-111049619D02*
X230876073Y-111002000D01*
X230971311Y-110954380D01*
X231209406Y-110954380D01*
X231304645Y-111002000D01*
X231352264Y-111049619D01*
X231399883Y-111144857D01*
X231399883Y-111240095D01*
X231352264Y-111382952D01*
X230780835Y-111954380D01*
X231399883Y-111954380D01*
%TO.C,U12*%
X310801483Y-104109771D02*
X310801483Y-105324057D01*
X310872911Y-105466914D01*
X310944340Y-105538342D01*
X311087197Y-105609771D01*
X311372911Y-105609771D01*
X311515768Y-105538342D01*
X311587197Y-105466914D01*
X311658626Y-105324057D01*
X311658626Y-104109771D01*
X313158626Y-105609771D02*
X312301483Y-105609771D01*
X312730054Y-105609771D02*
X312730054Y-104109771D01*
X312587197Y-104324057D01*
X312444340Y-104466914D01*
X312301483Y-104538342D01*
X313730054Y-104252628D02*
X313801483Y-104181200D01*
X313944340Y-104109771D01*
X314301483Y-104109771D01*
X314444340Y-104181200D01*
X314515768Y-104252628D01*
X314587197Y-104395485D01*
X314587197Y-104538342D01*
X314515768Y-104752628D01*
X313658626Y-105609771D01*
X314587197Y-105609771D01*
X289419311Y-107946571D02*
X289419311Y-106446571D01*
X290133597Y-107946571D02*
X290133597Y-106446571D01*
X290990740Y-107946571D01*
X290990740Y-106446571D01*
X333155026Y-106446571D02*
X333440740Y-106446571D01*
X333583597Y-106518000D01*
X333726454Y-106660857D01*
X333797883Y-106946571D01*
X333797883Y-107446571D01*
X333726454Y-107732285D01*
X333583597Y-107875142D01*
X333440740Y-107946571D01*
X333155026Y-107946571D01*
X333012168Y-107875142D01*
X332869311Y-107732285D01*
X332797883Y-107446571D01*
X332797883Y-106946571D01*
X332869311Y-106660857D01*
X333012168Y-106518000D01*
X333155026Y-106446571D01*
X334440740Y-106446571D02*
X334440740Y-107660857D01*
X334512168Y-107803714D01*
X334583597Y-107875142D01*
X334726454Y-107946571D01*
X335012168Y-107946571D01*
X335155026Y-107875142D01*
X335226454Y-107803714D01*
X335297883Y-107660857D01*
X335297883Y-106446571D01*
X335797883Y-106446571D02*
X336655026Y-106446571D01*
X336226454Y-107946571D02*
X336226454Y-106446571D01*
%TO.C,R7*%
X217990359Y-106272380D02*
X217657026Y-105796190D01*
X217418930Y-106272380D02*
X217418930Y-105272380D01*
X217799883Y-105272380D01*
X217895121Y-105320000D01*
X217942740Y-105367619D01*
X217990359Y-105462857D01*
X217990359Y-105605714D01*
X217942740Y-105700952D01*
X217895121Y-105748571D01*
X217799883Y-105796190D01*
X217418930Y-105796190D01*
X218323692Y-105272380D02*
X218990359Y-105272380D01*
X218561787Y-106272380D01*
%TO.C,C1*%
X154312359Y-102063142D02*
X154264740Y-102110761D01*
X154121883Y-102158380D01*
X154026645Y-102158380D01*
X153883787Y-102110761D01*
X153788549Y-102015523D01*
X153740930Y-101920285D01*
X153693311Y-101729809D01*
X153693311Y-101586952D01*
X153740930Y-101396476D01*
X153788549Y-101301238D01*
X153883787Y-101206000D01*
X154026645Y-101158380D01*
X154121883Y-101158380D01*
X154264740Y-101206000D01*
X154312359Y-101253619D01*
X155264740Y-102158380D02*
X154693311Y-102158380D01*
X154979026Y-102158380D02*
X154979026Y-101158380D01*
X154883787Y-101301238D01*
X154788549Y-101396476D01*
X154693311Y-101444095D01*
%TO.C,R1*%
X138803406Y-124166666D02*
X138327216Y-124500000D01*
X138803406Y-124738095D02*
X137803406Y-124738095D01*
X137803406Y-124357142D01*
X137851026Y-124261904D01*
X137898645Y-124214285D01*
X137993883Y-124166666D01*
X138136740Y-124166666D01*
X138231978Y-124214285D01*
X138279597Y-124261904D01*
X138327216Y-124357142D01*
X138327216Y-124738095D01*
X138803406Y-123214285D02*
X138803406Y-123785714D01*
X138803406Y-123500000D02*
X137803406Y-123500000D01*
X137946264Y-123595238D01*
X138041502Y-123690476D01*
X138089121Y-123785714D01*
%TO.C,U4*%
X311515768Y-131541771D02*
X311515768Y-132756057D01*
X311587197Y-132898914D01*
X311658626Y-132970342D01*
X311801483Y-133041771D01*
X312087197Y-133041771D01*
X312230054Y-132970342D01*
X312301483Y-132898914D01*
X312372911Y-132756057D01*
X312372911Y-131541771D01*
X313730054Y-132041771D02*
X313730054Y-133041771D01*
X313372911Y-131470342D02*
X313015768Y-132541771D01*
X313944340Y-132541771D01*
X333155026Y-133878571D02*
X333440740Y-133878571D01*
X333583597Y-133950000D01*
X333726454Y-134092857D01*
X333797883Y-134378571D01*
X333797883Y-134878571D01*
X333726454Y-135164285D01*
X333583597Y-135307142D01*
X333440740Y-135378571D01*
X333155026Y-135378571D01*
X333012168Y-135307142D01*
X332869311Y-135164285D01*
X332797883Y-134878571D01*
X332797883Y-134378571D01*
X332869311Y-134092857D01*
X333012168Y-133950000D01*
X333155026Y-133878571D01*
X334440740Y-133878571D02*
X334440740Y-135092857D01*
X334512168Y-135235714D01*
X334583597Y-135307142D01*
X334726454Y-135378571D01*
X335012168Y-135378571D01*
X335155026Y-135307142D01*
X335226454Y-135235714D01*
X335297883Y-135092857D01*
X335297883Y-133878571D01*
X335797883Y-133878571D02*
X336655026Y-133878571D01*
X336226454Y-135378571D02*
X336226454Y-133878571D01*
X289419311Y-135378571D02*
X289419311Y-133878571D01*
X290133597Y-135378571D02*
X290133597Y-133878571D01*
X290990740Y-135378571D01*
X290990740Y-133878571D01*
%TO.C,TP7*%
X134495121Y-72954380D02*
X135066549Y-72954380D01*
X134780835Y-73954380D02*
X134780835Y-72954380D01*
X135399883Y-73954380D02*
X135399883Y-72954380D01*
X135780835Y-72954380D01*
X135876073Y-73002000D01*
X135923692Y-73049619D01*
X135971311Y-73144857D01*
X135971311Y-73287714D01*
X135923692Y-73382952D01*
X135876073Y-73430571D01*
X135780835Y-73478190D01*
X135399883Y-73478190D01*
X136304645Y-72954380D02*
X136971311Y-72954380D01*
X136542740Y-73954380D01*
%TO.C,TP3*%
X110238095Y-84954380D02*
X110809523Y-84954380D01*
X110523809Y-85954380D02*
X110523809Y-84954380D01*
X111142857Y-85954380D02*
X111142857Y-84954380D01*
X111523809Y-84954380D01*
X111619047Y-85002000D01*
X111666666Y-85049619D01*
X111714285Y-85144857D01*
X111714285Y-85287714D01*
X111666666Y-85382952D01*
X111619047Y-85430571D01*
X111523809Y-85478190D01*
X111142857Y-85478190D01*
X112047619Y-84954380D02*
X112666666Y-84954380D01*
X112333333Y-85335333D01*
X112476190Y-85335333D01*
X112571428Y-85382952D01*
X112619047Y-85430571D01*
X112666666Y-85525809D01*
X112666666Y-85763904D01*
X112619047Y-85859142D01*
X112571428Y-85906761D01*
X112476190Y-85954380D01*
X112190476Y-85954380D01*
X112095238Y-85906761D01*
X112047619Y-85859142D01*
%TO.C,R5*%
X192590359Y-109272380D02*
X192257026Y-108796190D01*
X192018930Y-109272380D02*
X192018930Y-108272380D01*
X192399883Y-108272380D01*
X192495121Y-108320000D01*
X192542740Y-108367619D01*
X192590359Y-108462857D01*
X192590359Y-108605714D01*
X192542740Y-108700952D01*
X192495121Y-108748571D01*
X192399883Y-108796190D01*
X192018930Y-108796190D01*
X193495121Y-108272380D02*
X193018930Y-108272380D01*
X192971311Y-108748571D01*
X193018930Y-108700952D01*
X193114168Y-108653333D01*
X193352264Y-108653333D01*
X193447502Y-108700952D01*
X193495121Y-108748571D01*
X193542740Y-108843809D01*
X193542740Y-109081904D01*
X193495121Y-109177142D01*
X193447502Y-109224761D01*
X193352264Y-109272380D01*
X193114168Y-109272380D01*
X193018930Y-109224761D01*
X192971311Y-109177142D01*
%TO.C,TP5*%
X115117121Y-101976380D02*
X115688549Y-101976380D01*
X115402835Y-102976380D02*
X115402835Y-101976380D01*
X116021883Y-102976380D02*
X116021883Y-101976380D01*
X116402835Y-101976380D01*
X116498073Y-102024000D01*
X116545692Y-102071619D01*
X116593311Y-102166857D01*
X116593311Y-102309714D01*
X116545692Y-102404952D01*
X116498073Y-102452571D01*
X116402835Y-102500190D01*
X116021883Y-102500190D01*
X117498073Y-101976380D02*
X117021883Y-101976380D01*
X116974264Y-102452571D01*
X117021883Y-102404952D01*
X117117121Y-102357333D01*
X117355216Y-102357333D01*
X117450454Y-102404952D01*
X117498073Y-102452571D01*
X117545692Y-102547809D01*
X117545692Y-102785904D01*
X117498073Y-102881142D01*
X117450454Y-102928761D01*
X117355216Y-102976380D01*
X117117121Y-102976380D01*
X117021883Y-102928761D01*
X116974264Y-102881142D01*
%TO.C,R2*%
X105283333Y-45172380D02*
X104950000Y-44696190D01*
X104711904Y-45172380D02*
X104711904Y-44172380D01*
X105092857Y-44172380D01*
X105188095Y-44220000D01*
X105235714Y-44267619D01*
X105283333Y-44362857D01*
X105283333Y-44505714D01*
X105235714Y-44600952D01*
X105188095Y-44648571D01*
X105092857Y-44696190D01*
X104711904Y-44696190D01*
X105664285Y-44267619D02*
X105711904Y-44220000D01*
X105807142Y-44172380D01*
X106045238Y-44172380D01*
X106140476Y-44220000D01*
X106188095Y-44267619D01*
X106235714Y-44362857D01*
X106235714Y-44458095D01*
X106188095Y-44600952D01*
X105616666Y-45172380D01*
X106235714Y-45172380D01*
%TO.C,U5*%
X183272397Y-74244457D02*
X184486683Y-74244457D01*
X184629540Y-74173028D01*
X184700968Y-74101600D01*
X184772397Y-73958742D01*
X184772397Y-73673028D01*
X184700968Y-73530171D01*
X184629540Y-73458742D01*
X184486683Y-73387314D01*
X183272397Y-73387314D01*
X183272397Y-71958742D02*
X183272397Y-72673028D01*
X183986683Y-72744457D01*
X183915254Y-72673028D01*
X183843826Y-72530171D01*
X183843826Y-72173028D01*
X183915254Y-72030171D01*
X183986683Y-71958742D01*
X184129540Y-71887314D01*
X184486683Y-71887314D01*
X184629540Y-71958742D01*
X184700968Y-72030171D01*
X184772397Y-72173028D01*
X184772397Y-72530171D01*
X184700968Y-72673028D01*
X184629540Y-72744457D01*
X182435597Y-51433714D02*
X180935597Y-51433714D01*
X182435597Y-50719428D02*
X180935597Y-50719428D01*
X182435597Y-49862285D01*
X180935597Y-49862285D01*
X180935597Y-96598000D02*
X180935597Y-96312285D01*
X181007026Y-96169428D01*
X181149883Y-96026571D01*
X181435597Y-95955142D01*
X181935597Y-95955142D01*
X182221311Y-96026571D01*
X182364168Y-96169428D01*
X182435597Y-96312285D01*
X182435597Y-96598000D01*
X182364168Y-96740857D01*
X182221311Y-96883714D01*
X181935597Y-96955142D01*
X181435597Y-96955142D01*
X181149883Y-96883714D01*
X181007026Y-96740857D01*
X180935597Y-96598000D01*
X180935597Y-95312285D02*
X182149883Y-95312285D01*
X182292740Y-95240857D01*
X182364168Y-95169428D01*
X182435597Y-95026571D01*
X182435597Y-94740857D01*
X182364168Y-94598000D01*
X182292740Y-94526571D01*
X182149883Y-94455142D01*
X180935597Y-94455142D01*
X180935597Y-93955142D02*
X180935597Y-93098000D01*
X182435597Y-93526571D02*
X180935597Y-93526571D01*
%TO.C,TP16*%
X280018930Y-114954380D02*
X280590359Y-114954380D01*
X280304645Y-115954380D02*
X280304645Y-114954380D01*
X280923692Y-115954380D02*
X280923692Y-114954380D01*
X281304645Y-114954380D01*
X281399883Y-115002000D01*
X281447502Y-115049619D01*
X281495121Y-115144857D01*
X281495121Y-115287714D01*
X281447502Y-115382952D01*
X281399883Y-115430571D01*
X281304645Y-115478190D01*
X280923692Y-115478190D01*
X282447502Y-115954380D02*
X281876073Y-115954380D01*
X282161787Y-115954380D02*
X282161787Y-114954380D01*
X282066549Y-115097238D01*
X281971311Y-115192476D01*
X281876073Y-115240095D01*
X283304645Y-114954380D02*
X283114168Y-114954380D01*
X283018930Y-115002000D01*
X282971311Y-115049619D01*
X282876073Y-115192476D01*
X282828454Y-115382952D01*
X282828454Y-115763904D01*
X282876073Y-115859142D01*
X282923692Y-115906761D01*
X283018930Y-115954380D01*
X283209406Y-115954380D01*
X283304645Y-115906761D01*
X283352264Y-115859142D01*
X283399883Y-115763904D01*
X283399883Y-115525809D01*
X283352264Y-115430571D01*
X283304645Y-115382952D01*
X283209406Y-115335333D01*
X283018930Y-115335333D01*
X282923692Y-115382952D01*
X282876073Y-115430571D01*
X282828454Y-115525809D01*
%TO.C,R6*%
X356780359Y-68980380D02*
X356447026Y-68504190D01*
X356208930Y-68980380D02*
X356208930Y-67980380D01*
X356589883Y-67980380D01*
X356685121Y-68028000D01*
X356732740Y-68075619D01*
X356780359Y-68170857D01*
X356780359Y-68313714D01*
X356732740Y-68408952D01*
X356685121Y-68456571D01*
X356589883Y-68504190D01*
X356208930Y-68504190D01*
X357637502Y-67980380D02*
X357447026Y-67980380D01*
X357351787Y-68028000D01*
X357304168Y-68075619D01*
X357208930Y-68218476D01*
X357161311Y-68408952D01*
X357161311Y-68789904D01*
X357208930Y-68885142D01*
X357256549Y-68932761D01*
X357351787Y-68980380D01*
X357542264Y-68980380D01*
X357637502Y-68932761D01*
X357685121Y-68885142D01*
X357732740Y-68789904D01*
X357732740Y-68551809D01*
X357685121Y-68456571D01*
X357637502Y-68408952D01*
X357542264Y-68361333D01*
X357351787Y-68361333D01*
X357256549Y-68408952D01*
X357208930Y-68456571D01*
X357161311Y-68551809D01*
%TO.C,U20*%
X208572397Y-161590742D02*
X209786683Y-161590742D01*
X209929540Y-161519314D01*
X210000968Y-161447885D01*
X210072397Y-161305028D01*
X210072397Y-161019314D01*
X210000968Y-160876457D01*
X209929540Y-160805028D01*
X209786683Y-160733600D01*
X208572397Y-160733600D01*
X208715254Y-160090742D02*
X208643826Y-160019314D01*
X208572397Y-159876457D01*
X208572397Y-159519314D01*
X208643826Y-159376457D01*
X208715254Y-159305028D01*
X208858111Y-159233600D01*
X209000968Y-159233600D01*
X209215254Y-159305028D01*
X210072397Y-160162171D01*
X210072397Y-159233600D01*
X208572397Y-158305028D02*
X208572397Y-158162171D01*
X208643826Y-158019314D01*
X208715254Y-157947885D01*
X208858111Y-157876457D01*
X209143826Y-157805028D01*
X209500968Y-157805028D01*
X209786683Y-157876457D01*
X209929540Y-157947885D01*
X210000968Y-158019314D01*
X210072397Y-158162171D01*
X210072397Y-158305028D01*
X210000968Y-158447885D01*
X209929540Y-158519314D01*
X209786683Y-158590742D01*
X209500968Y-158662171D01*
X209143826Y-158662171D01*
X208858111Y-158590742D01*
X208715254Y-158519314D01*
X208643826Y-158447885D01*
X208572397Y-158305028D01*
X207735597Y-138065714D02*
X206235597Y-138065714D01*
X207735597Y-137351428D02*
X206235597Y-137351428D01*
X207735597Y-136494285D01*
X206235597Y-136494285D01*
X206235597Y-183230000D02*
X206235597Y-182944285D01*
X206307026Y-182801428D01*
X206449883Y-182658571D01*
X206735597Y-182587142D01*
X207235597Y-182587142D01*
X207521311Y-182658571D01*
X207664168Y-182801428D01*
X207735597Y-182944285D01*
X207735597Y-183230000D01*
X207664168Y-183372857D01*
X207521311Y-183515714D01*
X207235597Y-183587142D01*
X206735597Y-183587142D01*
X206449883Y-183515714D01*
X206307026Y-183372857D01*
X206235597Y-183230000D01*
X206235597Y-181944285D02*
X207449883Y-181944285D01*
X207592740Y-181872857D01*
X207664168Y-181801428D01*
X207735597Y-181658571D01*
X207735597Y-181372857D01*
X207664168Y-181230000D01*
X207592740Y-181158571D01*
X207449883Y-181087142D01*
X206235597Y-181087142D01*
X206235597Y-180587142D02*
X206235597Y-179730000D01*
X207735597Y-180158571D02*
X206235597Y-180158571D01*
%TO.C,U10*%
X356276930Y-78682380D02*
X356276930Y-79491904D01*
X356324549Y-79587142D01*
X356372168Y-79634761D01*
X356467406Y-79682380D01*
X356657883Y-79682380D01*
X356753121Y-79634761D01*
X356800740Y-79587142D01*
X356848359Y-79491904D01*
X356848359Y-78682380D01*
X357848359Y-79682380D02*
X357276930Y-79682380D01*
X357562645Y-79682380D02*
X357562645Y-78682380D01*
X357467406Y-78825238D01*
X357372168Y-78920476D01*
X357276930Y-78968095D01*
X358467406Y-78682380D02*
X358562645Y-78682380D01*
X358657883Y-78730000D01*
X358705502Y-78777619D01*
X358753121Y-78872857D01*
X358800740Y-79063333D01*
X358800740Y-79301428D01*
X358753121Y-79491904D01*
X358705502Y-79587142D01*
X358657883Y-79634761D01*
X358562645Y-79682380D01*
X358467406Y-79682380D01*
X358372168Y-79634761D01*
X358324549Y-79587142D01*
X358276930Y-79491904D01*
X358229311Y-79301428D01*
X358229311Y-79063333D01*
X358276930Y-78872857D01*
X358324549Y-78777619D01*
X358372168Y-78730000D01*
X358467406Y-78682380D01*
%TO.C,JP6*%
X157209406Y-72141333D02*
X157923692Y-72141333D01*
X158066549Y-72188952D01*
X158161787Y-72284190D01*
X158209406Y-72427047D01*
X158209406Y-72522285D01*
X158209406Y-71665142D02*
X157209406Y-71665142D01*
X157209406Y-71284190D01*
X157257026Y-71188952D01*
X157304645Y-71141333D01*
X157399883Y-71093714D01*
X157542740Y-71093714D01*
X157637978Y-71141333D01*
X157685597Y-71188952D01*
X157733216Y-71284190D01*
X157733216Y-71665142D01*
X157209406Y-70236571D02*
X157209406Y-70427047D01*
X157257026Y-70522285D01*
X157304645Y-70569904D01*
X157447502Y-70665142D01*
X157637978Y-70712761D01*
X158018930Y-70712761D01*
X158114168Y-70665142D01*
X158161787Y-70617523D01*
X158209406Y-70522285D01*
X158209406Y-70331809D01*
X158161787Y-70236571D01*
X158114168Y-70188952D01*
X158018930Y-70141333D01*
X157780835Y-70141333D01*
X157685597Y-70188952D01*
X157637978Y-70236571D01*
X157590359Y-70331809D01*
X157590359Y-70522285D01*
X157637978Y-70617523D01*
X157685597Y-70665142D01*
X157780835Y-70712761D01*
%TO.C,TP15*%
X166018930Y-188954380D02*
X166590359Y-188954380D01*
X166304645Y-189954380D02*
X166304645Y-188954380D01*
X166923692Y-189954380D02*
X166923692Y-188954380D01*
X167304645Y-188954380D01*
X167399883Y-189002000D01*
X167447502Y-189049619D01*
X167495121Y-189144857D01*
X167495121Y-189287714D01*
X167447502Y-189382952D01*
X167399883Y-189430571D01*
X167304645Y-189478190D01*
X166923692Y-189478190D01*
X168447502Y-189954380D02*
X167876073Y-189954380D01*
X168161787Y-189954380D02*
X168161787Y-188954380D01*
X168066549Y-189097238D01*
X167971311Y-189192476D01*
X167876073Y-189240095D01*
X169352264Y-188954380D02*
X168876073Y-188954380D01*
X168828454Y-189430571D01*
X168876073Y-189382952D01*
X168971311Y-189335333D01*
X169209406Y-189335333D01*
X169304645Y-189382952D01*
X169352264Y-189430571D01*
X169399883Y-189525809D01*
X169399883Y-189763904D01*
X169352264Y-189859142D01*
X169304645Y-189906761D01*
X169209406Y-189954380D01*
X168971311Y-189954380D01*
X168876073Y-189906761D01*
X168828454Y-189859142D01*
%TO.C,TP1*%
X82097121Y-52954380D02*
X82668549Y-52954380D01*
X82382835Y-53954380D02*
X82382835Y-52954380D01*
X83001883Y-53954380D02*
X83001883Y-52954380D01*
X83382835Y-52954380D01*
X83478073Y-53002000D01*
X83525692Y-53049619D01*
X83573311Y-53144857D01*
X83573311Y-53287714D01*
X83525692Y-53382952D01*
X83478073Y-53430571D01*
X83382835Y-53478190D01*
X83001883Y-53478190D01*
X84525692Y-53954380D02*
X83954264Y-53954380D01*
X84239978Y-53954380D02*
X84239978Y-52954380D01*
X84144740Y-53097238D01*
X84049502Y-53192476D01*
X83954264Y-53240095D01*
%TO.C,U13*%
X238872397Y-75058742D02*
X240086683Y-75058742D01*
X240229540Y-74987314D01*
X240300968Y-74915885D01*
X240372397Y-74773028D01*
X240372397Y-74487314D01*
X240300968Y-74344457D01*
X240229540Y-74273028D01*
X240086683Y-74201600D01*
X238872397Y-74201600D01*
X240372397Y-72701600D02*
X240372397Y-73558742D01*
X240372397Y-73130171D02*
X238872397Y-73130171D01*
X239086683Y-73273028D01*
X239229540Y-73415885D01*
X239300968Y-73558742D01*
X238872397Y-72201600D02*
X238872397Y-71273028D01*
X239443826Y-71773028D01*
X239443826Y-71558742D01*
X239515254Y-71415885D01*
X239586683Y-71344457D01*
X239729540Y-71273028D01*
X240086683Y-71273028D01*
X240229540Y-71344457D01*
X240300968Y-71415885D01*
X240372397Y-71558742D01*
X240372397Y-71987314D01*
X240300968Y-72130171D01*
X240229540Y-72201600D01*
X237587311Y-51934571D02*
X237587311Y-50434571D01*
X238301597Y-51934571D02*
X238301597Y-50434571D01*
X239158740Y-51934571D01*
X239158740Y-50434571D01*
X236535597Y-96698000D02*
X236535597Y-96412285D01*
X236607026Y-96269428D01*
X236749883Y-96126571D01*
X237035597Y-96055142D01*
X237535597Y-96055142D01*
X237821311Y-96126571D01*
X237964168Y-96269428D01*
X238035597Y-96412285D01*
X238035597Y-96698000D01*
X237964168Y-96840857D01*
X237821311Y-96983714D01*
X237535597Y-97055142D01*
X237035597Y-97055142D01*
X236749883Y-96983714D01*
X236607026Y-96840857D01*
X236535597Y-96698000D01*
X236535597Y-95412285D02*
X237749883Y-95412285D01*
X237892740Y-95340857D01*
X237964168Y-95269428D01*
X238035597Y-95126571D01*
X238035597Y-94840857D01*
X237964168Y-94698000D01*
X237892740Y-94626571D01*
X237749883Y-94555142D01*
X236535597Y-94555142D01*
X236535597Y-94055142D02*
X236535597Y-93198000D01*
X238035597Y-93626571D02*
X236535597Y-93626571D01*
%TO.C,U15*%
X241518930Y-120466380D02*
X241518930Y-121275904D01*
X241566549Y-121371142D01*
X241614168Y-121418761D01*
X241709406Y-121466380D01*
X241899883Y-121466380D01*
X241995121Y-121418761D01*
X242042740Y-121371142D01*
X242090359Y-121275904D01*
X242090359Y-120466380D01*
X243090359Y-121466380D02*
X242518930Y-121466380D01*
X242804645Y-121466380D02*
X242804645Y-120466380D01*
X242709406Y-120609238D01*
X242614168Y-120704476D01*
X242518930Y-120752095D01*
X243995121Y-120466380D02*
X243518930Y-120466380D01*
X243471311Y-120942571D01*
X243518930Y-120894952D01*
X243614168Y-120847333D01*
X243852264Y-120847333D01*
X243947502Y-120894952D01*
X243995121Y-120942571D01*
X244042740Y-121037809D01*
X244042740Y-121275904D01*
X243995121Y-121371142D01*
X243947502Y-121418761D01*
X243852264Y-121466380D01*
X243614168Y-121466380D01*
X243518930Y-121418761D01*
X243471311Y-121371142D01*
%TO.C,K2*%
X110161904Y-56952380D02*
X110161904Y-55952380D01*
X110733333Y-56952380D02*
X110304761Y-56380952D01*
X110733333Y-55952380D02*
X110161904Y-56523809D01*
X111114285Y-56047619D02*
X111161904Y-56000000D01*
X111257142Y-55952380D01*
X111495238Y-55952380D01*
X111590476Y-56000000D01*
X111638095Y-56047619D01*
X111685714Y-56142857D01*
X111685714Y-56238095D01*
X111638095Y-56380952D01*
X111066666Y-56952380D01*
X111685714Y-56952380D01*
%TO.C,J8*%
X45654406Y-153133333D02*
X46368692Y-153133333D01*
X46511549Y-153180952D01*
X46606787Y-153276190D01*
X46654406Y-153419047D01*
X46654406Y-153514285D01*
X46082978Y-152514285D02*
X46035359Y-152609523D01*
X45987740Y-152657142D01*
X45892502Y-152704761D01*
X45844883Y-152704761D01*
X45749645Y-152657142D01*
X45702026Y-152609523D01*
X45654406Y-152514285D01*
X45654406Y-152323809D01*
X45702026Y-152228571D01*
X45749645Y-152180952D01*
X45844883Y-152133333D01*
X45892502Y-152133333D01*
X45987740Y-152180952D01*
X46035359Y-152228571D01*
X46082978Y-152323809D01*
X46082978Y-152514285D01*
X46130597Y-152609523D01*
X46178216Y-152657142D01*
X46273454Y-152704761D01*
X46463930Y-152704761D01*
X46559168Y-152657142D01*
X46606787Y-152609523D01*
X46654406Y-152514285D01*
X46654406Y-152323809D01*
X46606787Y-152228571D01*
X46559168Y-152180952D01*
X46463930Y-152133333D01*
X46273454Y-152133333D01*
X46178216Y-152180952D01*
X46130597Y-152228571D01*
X46082978Y-152323809D01*
%TO.C,U7*%
X192309121Y-116942380D02*
X192309121Y-117751904D01*
X192356740Y-117847142D01*
X192404359Y-117894761D01*
X192499597Y-117942380D01*
X192690073Y-117942380D01*
X192785311Y-117894761D01*
X192832930Y-117847142D01*
X192880549Y-117751904D01*
X192880549Y-116942380D01*
X193261502Y-116942380D02*
X193928168Y-116942380D01*
X193499597Y-117942380D01*
%TO.C,J1*%
X78118692Y-39197380D02*
X78118692Y-39911666D01*
X78071073Y-40054523D01*
X77975835Y-40149761D01*
X77832978Y-40197380D01*
X77737740Y-40197380D01*
X79118692Y-40197380D02*
X78547264Y-40197380D01*
X78832978Y-40197380D02*
X78832978Y-39197380D01*
X78737740Y-39340238D01*
X78642502Y-39435476D01*
X78547264Y-39483095D01*
%TO.C,TP17*%
X234018930Y-177954380D02*
X234590359Y-177954380D01*
X234304645Y-178954380D02*
X234304645Y-177954380D01*
X234923692Y-178954380D02*
X234923692Y-177954380D01*
X235304645Y-177954380D01*
X235399883Y-178002000D01*
X235447502Y-178049619D01*
X235495121Y-178144857D01*
X235495121Y-178287714D01*
X235447502Y-178382952D01*
X235399883Y-178430571D01*
X235304645Y-178478190D01*
X234923692Y-178478190D01*
X236447502Y-178954380D02*
X235876073Y-178954380D01*
X236161787Y-178954380D02*
X236161787Y-177954380D01*
X236066549Y-178097238D01*
X235971311Y-178192476D01*
X235876073Y-178240095D01*
X236780835Y-177954380D02*
X237447502Y-177954380D01*
X237018930Y-178954380D01*
%TO.C,R4*%
X356780359Y-133242380D02*
X356447026Y-132766190D01*
X356208930Y-133242380D02*
X356208930Y-132242380D01*
X356589883Y-132242380D01*
X356685121Y-132290000D01*
X356732740Y-132337619D01*
X356780359Y-132432857D01*
X356780359Y-132575714D01*
X356732740Y-132670952D01*
X356685121Y-132718571D01*
X356589883Y-132766190D01*
X356208930Y-132766190D01*
X357637502Y-132575714D02*
X357637502Y-133242380D01*
X357399406Y-132194761D02*
X357161311Y-132909047D01*
X357780359Y-132909047D01*
%TO.C,TP13*%
X344726930Y-91660380D02*
X345298359Y-91660380D01*
X345012645Y-92660380D02*
X345012645Y-91660380D01*
X345631692Y-92660380D02*
X345631692Y-91660380D01*
X346012645Y-91660380D01*
X346107883Y-91708000D01*
X346155502Y-91755619D01*
X346203121Y-91850857D01*
X346203121Y-91993714D01*
X346155502Y-92088952D01*
X346107883Y-92136571D01*
X346012645Y-92184190D01*
X345631692Y-92184190D01*
X347155502Y-92660380D02*
X346584073Y-92660380D01*
X346869787Y-92660380D02*
X346869787Y-91660380D01*
X346774549Y-91803238D01*
X346679311Y-91898476D01*
X346584073Y-91946095D01*
X347488835Y-91660380D02*
X348107883Y-91660380D01*
X347774549Y-92041333D01*
X347917406Y-92041333D01*
X348012645Y-92088952D01*
X348060264Y-92136571D01*
X348107883Y-92231809D01*
X348107883Y-92469904D01*
X348060264Y-92565142D01*
X348012645Y-92612761D01*
X347917406Y-92660380D01*
X347631692Y-92660380D01*
X347536454Y-92612761D01*
X347488835Y-92565142D01*
%TO.C,R10*%
X198614168Y-188452380D02*
X198280835Y-187976190D01*
X198042740Y-188452380D02*
X198042740Y-187452380D01*
X198423692Y-187452380D01*
X198518930Y-187500000D01*
X198566549Y-187547619D01*
X198614168Y-187642857D01*
X198614168Y-187785714D01*
X198566549Y-187880952D01*
X198518930Y-187928571D01*
X198423692Y-187976190D01*
X198042740Y-187976190D01*
X199566549Y-188452380D02*
X198995121Y-188452380D01*
X199280835Y-188452380D02*
X199280835Y-187452380D01*
X199185597Y-187595238D01*
X199090359Y-187690476D01*
X198995121Y-187738095D01*
X200185597Y-187452380D02*
X200280835Y-187452380D01*
X200376073Y-187500000D01*
X200423692Y-187547619D01*
X200471311Y-187642857D01*
X200518930Y-187833333D01*
X200518930Y-188071428D01*
X200471311Y-188261904D01*
X200423692Y-188357142D01*
X200376073Y-188404761D01*
X200280835Y-188452380D01*
X200185597Y-188452380D01*
X200090359Y-188404761D01*
X200042740Y-188357142D01*
X199995121Y-188261904D01*
X199947502Y-188071428D01*
X199947502Y-187833333D01*
X199995121Y-187642857D01*
X200042740Y-187547619D01*
X200090359Y-187500000D01*
X200185597Y-187452380D01*
%TO.C,C2*%
X128414168Y-187729166D02*
X128461787Y-187776785D01*
X128509406Y-187919642D01*
X128509406Y-188014880D01*
X128461787Y-188157738D01*
X128366549Y-188252976D01*
X128271311Y-188300595D01*
X128080835Y-188348214D01*
X127937978Y-188348214D01*
X127747502Y-188300595D01*
X127652264Y-188252976D01*
X127557026Y-188157738D01*
X127509406Y-188014880D01*
X127509406Y-187919642D01*
X127557026Y-187776785D01*
X127604645Y-187729166D01*
X127604645Y-187348214D02*
X127557026Y-187300595D01*
X127509406Y-187205357D01*
X127509406Y-186967261D01*
X127557026Y-186872023D01*
X127604645Y-186824404D01*
X127699883Y-186776785D01*
X127795121Y-186776785D01*
X127937978Y-186824404D01*
X128509406Y-187395833D01*
X128509406Y-186776785D01*
%TO.C,J6*%
X321031692Y-58838380D02*
X321031692Y-59552666D01*
X320984073Y-59695523D01*
X320888835Y-59790761D01*
X320745978Y-59838380D01*
X320650740Y-59838380D01*
X321936454Y-58838380D02*
X321745978Y-58838380D01*
X321650740Y-58886000D01*
X321603121Y-58933619D01*
X321507883Y-59076476D01*
X321460264Y-59266952D01*
X321460264Y-59647904D01*
X321507883Y-59743142D01*
X321555502Y-59790761D01*
X321650740Y-59838380D01*
X321841216Y-59838380D01*
X321936454Y-59790761D01*
X321984073Y-59743142D01*
X322031692Y-59647904D01*
X322031692Y-59409809D01*
X321984073Y-59314571D01*
X321936454Y-59266952D01*
X321841216Y-59219333D01*
X321650740Y-59219333D01*
X321555502Y-59266952D01*
X321507883Y-59314571D01*
X321460264Y-59409809D01*
%TO.C,JP3*%
X210209406Y-128833333D02*
X210923692Y-128833333D01*
X211066549Y-128880952D01*
X211161787Y-128976190D01*
X211209406Y-129119047D01*
X211209406Y-129214285D01*
X211209406Y-128357142D02*
X210209406Y-128357142D01*
X210209406Y-127976190D01*
X210257026Y-127880952D01*
X210304645Y-127833333D01*
X210399883Y-127785714D01*
X210542740Y-127785714D01*
X210637978Y-127833333D01*
X210685597Y-127880952D01*
X210733216Y-127976190D01*
X210733216Y-128357142D01*
X210209406Y-127452380D02*
X210209406Y-126833333D01*
X210590359Y-127166666D01*
X210590359Y-127023809D01*
X210637978Y-126928571D01*
X210685597Y-126880952D01*
X210780835Y-126833333D01*
X211018930Y-126833333D01*
X211114168Y-126880952D01*
X211161787Y-126928571D01*
X211209406Y-127023809D01*
X211209406Y-127309523D01*
X211161787Y-127404761D01*
X211114168Y-127452380D01*
%TO.C,U17*%
X266584397Y-74958742D02*
X267798683Y-74958742D01*
X267941540Y-74887314D01*
X268012968Y-74815885D01*
X268084397Y-74673028D01*
X268084397Y-74387314D01*
X268012968Y-74244457D01*
X267941540Y-74173028D01*
X267798683Y-74101600D01*
X266584397Y-74101600D01*
X268084397Y-72601600D02*
X268084397Y-73458742D01*
X268084397Y-73030171D02*
X266584397Y-73030171D01*
X266798683Y-73173028D01*
X266941540Y-73315885D01*
X267012968Y-73458742D01*
X266584397Y-72101600D02*
X266584397Y-71101600D01*
X268084397Y-71744457D01*
X264247597Y-96598000D02*
X264247597Y-96312285D01*
X264319026Y-96169428D01*
X264461883Y-96026571D01*
X264747597Y-95955142D01*
X265247597Y-95955142D01*
X265533311Y-96026571D01*
X265676168Y-96169428D01*
X265747597Y-96312285D01*
X265747597Y-96598000D01*
X265676168Y-96740857D01*
X265533311Y-96883714D01*
X265247597Y-96955142D01*
X264747597Y-96955142D01*
X264461883Y-96883714D01*
X264319026Y-96740857D01*
X264247597Y-96598000D01*
X264247597Y-95312285D02*
X265461883Y-95312285D01*
X265604740Y-95240857D01*
X265676168Y-95169428D01*
X265747597Y-95026571D01*
X265747597Y-94740857D01*
X265676168Y-94598000D01*
X265604740Y-94526571D01*
X265461883Y-94455142D01*
X264247597Y-94455142D01*
X264247597Y-93955142D02*
X264247597Y-93098000D01*
X265747597Y-93526571D02*
X264247597Y-93526571D01*
X265747597Y-51433714D02*
X264247597Y-51433714D01*
X265747597Y-50719428D02*
X264247597Y-50719428D01*
X265747597Y-49862285D01*
X264247597Y-49862285D01*
%TO.C,U18*%
X183268930Y-193552380D02*
X183268930Y-194361904D01*
X183316549Y-194457142D01*
X183364168Y-194504761D01*
X183459406Y-194552380D01*
X183649883Y-194552380D01*
X183745121Y-194504761D01*
X183792740Y-194457142D01*
X183840359Y-194361904D01*
X183840359Y-193552380D01*
X184840359Y-194552380D02*
X184268930Y-194552380D01*
X184554645Y-194552380D02*
X184554645Y-193552380D01*
X184459406Y-193695238D01*
X184364168Y-193790476D01*
X184268930Y-193838095D01*
X185411787Y-193980952D02*
X185316549Y-193933333D01*
X185268930Y-193885714D01*
X185221311Y-193790476D01*
X185221311Y-193742857D01*
X185268930Y-193647619D01*
X185316549Y-193600000D01*
X185411787Y-193552380D01*
X185602264Y-193552380D01*
X185697502Y-193600000D01*
X185745121Y-193647619D01*
X185792740Y-193742857D01*
X185792740Y-193790476D01*
X185745121Y-193885714D01*
X185697502Y-193933333D01*
X185602264Y-193980952D01*
X185411787Y-193980952D01*
X185316549Y-194028571D01*
X185268930Y-194076190D01*
X185221311Y-194171428D01*
X185221311Y-194361904D01*
X185268930Y-194457142D01*
X185316549Y-194504761D01*
X185411787Y-194552380D01*
X185602264Y-194552380D01*
X185697502Y-194504761D01*
X185745121Y-194457142D01*
X185792740Y-194361904D01*
X185792740Y-194171428D01*
X185745121Y-194076190D01*
X185697502Y-194028571D01*
X185602264Y-193980952D01*
%TO.C,R13*%
X145960168Y-127238380D02*
X145626835Y-126762190D01*
X145388740Y-127238380D02*
X145388740Y-126238380D01*
X145769692Y-126238380D01*
X145864930Y-126286000D01*
X145912549Y-126333619D01*
X145960168Y-126428857D01*
X145960168Y-126571714D01*
X145912549Y-126666952D01*
X145864930Y-126714571D01*
X145769692Y-126762190D01*
X145388740Y-126762190D01*
X146912549Y-127238380D02*
X146341121Y-127238380D01*
X146626835Y-127238380D02*
X146626835Y-126238380D01*
X146531597Y-126381238D01*
X146436359Y-126476476D01*
X146341121Y-126524095D01*
X147245883Y-126238380D02*
X147864930Y-126238380D01*
X147531597Y-126619333D01*
X147674454Y-126619333D01*
X147769692Y-126666952D01*
X147817311Y-126714571D01*
X147864930Y-126809809D01*
X147864930Y-127047904D01*
X147817311Y-127143142D01*
X147769692Y-127190761D01*
X147674454Y-127238380D01*
X147388740Y-127238380D01*
X147293502Y-127190761D01*
X147245883Y-127143142D01*
%TO.C,J3*%
X339819692Y-202036380D02*
X339819692Y-202750666D01*
X339772073Y-202893523D01*
X339676835Y-202988761D01*
X339533978Y-203036380D01*
X339438740Y-203036380D01*
X340200645Y-202036380D02*
X340819692Y-202036380D01*
X340486359Y-202417333D01*
X340629216Y-202417333D01*
X340724454Y-202464952D01*
X340772073Y-202512571D01*
X340819692Y-202607809D01*
X340819692Y-202845904D01*
X340772073Y-202941142D01*
X340724454Y-202988761D01*
X340629216Y-203036380D01*
X340343502Y-203036380D01*
X340248264Y-202988761D01*
X340200645Y-202941142D01*
%TO.C,R8*%
X354046359Y-97428380D02*
X353713026Y-96952190D01*
X353474930Y-97428380D02*
X353474930Y-96428380D01*
X353855883Y-96428380D01*
X353951121Y-96476000D01*
X353998740Y-96523619D01*
X354046359Y-96618857D01*
X354046359Y-96761714D01*
X353998740Y-96856952D01*
X353951121Y-96904571D01*
X353855883Y-96952190D01*
X353474930Y-96952190D01*
X354617787Y-96856952D02*
X354522549Y-96809333D01*
X354474930Y-96761714D01*
X354427311Y-96666476D01*
X354427311Y-96618857D01*
X354474930Y-96523619D01*
X354522549Y-96476000D01*
X354617787Y-96428380D01*
X354808264Y-96428380D01*
X354903502Y-96476000D01*
X354951121Y-96523619D01*
X354998740Y-96618857D01*
X354998740Y-96666476D01*
X354951121Y-96761714D01*
X354903502Y-96809333D01*
X354808264Y-96856952D01*
X354617787Y-96856952D01*
X354522549Y-96904571D01*
X354474930Y-96952190D01*
X354427311Y-97047428D01*
X354427311Y-97237904D01*
X354474930Y-97333142D01*
X354522549Y-97380761D01*
X354617787Y-97428380D01*
X354808264Y-97428380D01*
X354903502Y-97380761D01*
X354951121Y-97333142D01*
X354998740Y-97237904D01*
X354998740Y-97047428D01*
X354951121Y-96952190D01*
X354903502Y-96904571D01*
X354808264Y-96856952D01*
%TO.C,U19*%
X263010930Y-118720380D02*
X263010930Y-119529904D01*
X263058549Y-119625142D01*
X263106168Y-119672761D01*
X263201406Y-119720380D01*
X263391883Y-119720380D01*
X263487121Y-119672761D01*
X263534740Y-119625142D01*
X263582359Y-119529904D01*
X263582359Y-118720380D01*
X264582359Y-119720380D02*
X264010930Y-119720380D01*
X264296645Y-119720380D02*
X264296645Y-118720380D01*
X264201406Y-118863238D01*
X264106168Y-118958476D01*
X264010930Y-119006095D01*
X265058549Y-119720380D02*
X265249026Y-119720380D01*
X265344264Y-119672761D01*
X265391883Y-119625142D01*
X265487121Y-119482285D01*
X265534740Y-119291809D01*
X265534740Y-118910857D01*
X265487121Y-118815619D01*
X265439502Y-118768000D01*
X265344264Y-118720380D01*
X265153787Y-118720380D01*
X265058549Y-118768000D01*
X265010930Y-118815619D01*
X264963311Y-118910857D01*
X264963311Y-119148952D01*
X265010930Y-119244190D01*
X265058549Y-119291809D01*
X265153787Y-119339428D01*
X265344264Y-119339428D01*
X265439502Y-119291809D01*
X265487121Y-119244190D01*
X265534740Y-119148952D01*
%TO.C,R14*%
X243114168Y-173132380D02*
X242780835Y-172656190D01*
X242542740Y-173132380D02*
X242542740Y-172132380D01*
X242923692Y-172132380D01*
X243018930Y-172180000D01*
X243066549Y-172227619D01*
X243114168Y-172322857D01*
X243114168Y-172465714D01*
X243066549Y-172560952D01*
X243018930Y-172608571D01*
X242923692Y-172656190D01*
X242542740Y-172656190D01*
X244066549Y-173132380D02*
X243495121Y-173132380D01*
X243780835Y-173132380D02*
X243780835Y-172132380D01*
X243685597Y-172275238D01*
X243590359Y-172370476D01*
X243495121Y-172418095D01*
X244923692Y-172465714D02*
X244923692Y-173132380D01*
X244685597Y-172084761D02*
X244447502Y-172799047D01*
X245066549Y-172799047D01*
%TO.C,U6*%
X356245121Y-142690380D02*
X356245121Y-143499904D01*
X356292740Y-143595142D01*
X356340359Y-143642761D01*
X356435597Y-143690380D01*
X356626073Y-143690380D01*
X356721311Y-143642761D01*
X356768930Y-143595142D01*
X356816549Y-143499904D01*
X356816549Y-142690380D01*
X357721311Y-142690380D02*
X357530835Y-142690380D01*
X357435597Y-142738000D01*
X357387978Y-142785619D01*
X357292740Y-142928476D01*
X357245121Y-143118952D01*
X357245121Y-143499904D01*
X357292740Y-143595142D01*
X357340359Y-143642761D01*
X357435597Y-143690380D01*
X357626073Y-143690380D01*
X357721311Y-143642761D01*
X357768930Y-143595142D01*
X357816549Y-143499904D01*
X357816549Y-143261809D01*
X357768930Y-143166571D01*
X357721311Y-143118952D01*
X357626073Y-143071333D01*
X357435597Y-143071333D01*
X357340359Y-143118952D01*
X357292740Y-143166571D01*
X357245121Y-143261809D01*
%TO.C,J5*%
X342631692Y-58256380D02*
X342631692Y-58970666D01*
X342584073Y-59113523D01*
X342488835Y-59208761D01*
X342345978Y-59256380D01*
X342250740Y-59256380D01*
X343584073Y-58256380D02*
X343107883Y-58256380D01*
X343060264Y-58732571D01*
X343107883Y-58684952D01*
X343203121Y-58637333D01*
X343441216Y-58637333D01*
X343536454Y-58684952D01*
X343584073Y-58732571D01*
X343631692Y-58827809D01*
X343631692Y-59065904D01*
X343584073Y-59161142D01*
X343536454Y-59208761D01*
X343441216Y-59256380D01*
X343203121Y-59256380D01*
X343107883Y-59208761D01*
X343060264Y-59161142D01*
%TO.C,SW1*%
X115423692Y-47304761D02*
X115566549Y-47352380D01*
X115804645Y-47352380D01*
X115899883Y-47304761D01*
X115947502Y-47257142D01*
X115995121Y-47161904D01*
X115995121Y-47066666D01*
X115947502Y-46971428D01*
X115899883Y-46923809D01*
X115804645Y-46876190D01*
X115614168Y-46828571D01*
X115518930Y-46780952D01*
X115471311Y-46733333D01*
X115423692Y-46638095D01*
X115423692Y-46542857D01*
X115471311Y-46447619D01*
X115518930Y-46400000D01*
X115614168Y-46352380D01*
X115852264Y-46352380D01*
X115995121Y-46400000D01*
X116328454Y-46352380D02*
X116566549Y-47352380D01*
X116757026Y-46638095D01*
X116947502Y-47352380D01*
X117185597Y-46352380D01*
X118090359Y-47352380D02*
X117518930Y-47352380D01*
X117804645Y-47352380D02*
X117804645Y-46352380D01*
X117709406Y-46495238D01*
X117614168Y-46590476D01*
X117518930Y-46638095D01*
%TO.C,TP18*%
X356726930Y-171660380D02*
X357298359Y-171660380D01*
X357012645Y-172660380D02*
X357012645Y-171660380D01*
X357631692Y-172660380D02*
X357631692Y-171660380D01*
X358012645Y-171660380D01*
X358107883Y-171708000D01*
X358155502Y-171755619D01*
X358203121Y-171850857D01*
X358203121Y-171993714D01*
X358155502Y-172088952D01*
X358107883Y-172136571D01*
X358012645Y-172184190D01*
X357631692Y-172184190D01*
X359155502Y-172660380D02*
X358584073Y-172660380D01*
X358869787Y-172660380D02*
X358869787Y-171660380D01*
X358774549Y-171803238D01*
X358679311Y-171898476D01*
X358584073Y-171946095D01*
X359726930Y-172088952D02*
X359631692Y-172041333D01*
X359584073Y-171993714D01*
X359536454Y-171898476D01*
X359536454Y-171850857D01*
X359584073Y-171755619D01*
X359631692Y-171708000D01*
X359726930Y-171660380D01*
X359917406Y-171660380D01*
X360012645Y-171708000D01*
X360060264Y-171755619D01*
X360107883Y-171850857D01*
X360107883Y-171898476D01*
X360060264Y-171993714D01*
X360012645Y-172041333D01*
X359917406Y-172088952D01*
X359726930Y-172088952D01*
X359631692Y-172136571D01*
X359584073Y-172184190D01*
X359536454Y-172279428D01*
X359536454Y-172469904D01*
X359584073Y-172565142D01*
X359631692Y-172612761D01*
X359726930Y-172660380D01*
X359917406Y-172660380D01*
X360012645Y-172612761D01*
X360060264Y-172565142D01*
X360107883Y-172469904D01*
X360107883Y-172279428D01*
X360060264Y-172184190D01*
X360012645Y-172136571D01*
X359917406Y-172088952D01*
%TO.C,JP4*%
X271817692Y-144360380D02*
X271817692Y-145074666D01*
X271770073Y-145217523D01*
X271674835Y-145312761D01*
X271531978Y-145360380D01*
X271436740Y-145360380D01*
X272293883Y-145360380D02*
X272293883Y-144360380D01*
X272674835Y-144360380D01*
X272770073Y-144408000D01*
X272817692Y-144455619D01*
X272865311Y-144550857D01*
X272865311Y-144693714D01*
X272817692Y-144788952D01*
X272770073Y-144836571D01*
X272674835Y-144884190D01*
X272293883Y-144884190D01*
X273722454Y-144693714D02*
X273722454Y-145360380D01*
X273484359Y-144312761D02*
X273246264Y-145027047D01*
X273865311Y-145027047D01*
%TO.C,R12*%
X146216168Y-136636380D02*
X145882835Y-136160190D01*
X145644740Y-136636380D02*
X145644740Y-135636380D01*
X146025692Y-135636380D01*
X146120930Y-135684000D01*
X146168549Y-135731619D01*
X146216168Y-135826857D01*
X146216168Y-135969714D01*
X146168549Y-136064952D01*
X146120930Y-136112571D01*
X146025692Y-136160190D01*
X145644740Y-136160190D01*
X147168549Y-136636380D02*
X146597121Y-136636380D01*
X146882835Y-136636380D02*
X146882835Y-135636380D01*
X146787597Y-135779238D01*
X146692359Y-135874476D01*
X146597121Y-135922095D01*
X147549502Y-135731619D02*
X147597121Y-135684000D01*
X147692359Y-135636380D01*
X147930454Y-135636380D01*
X148025692Y-135684000D01*
X148073311Y-135731619D01*
X148120930Y-135826857D01*
X148120930Y-135922095D01*
X148073311Y-136064952D01*
X147501883Y-136636380D01*
X148120930Y-136636380D01*
%TO.C,U11*%
X216978930Y-114196380D02*
X216978930Y-115005904D01*
X217026549Y-115101142D01*
X217074168Y-115148761D01*
X217169406Y-115196380D01*
X217359883Y-115196380D01*
X217455121Y-115148761D01*
X217502740Y-115101142D01*
X217550359Y-115005904D01*
X217550359Y-114196380D01*
X218550359Y-115196380D02*
X217978930Y-115196380D01*
X218264645Y-115196380D02*
X218264645Y-114196380D01*
X218169406Y-114339238D01*
X218074168Y-114434476D01*
X217978930Y-114482095D01*
X219502740Y-115196380D02*
X218931311Y-115196380D01*
X219217026Y-115196380D02*
X219217026Y-114196380D01*
X219121787Y-114339238D01*
X219026549Y-114434476D01*
X218931311Y-114482095D01*
%TO.C,U24*%
X140239406Y-44538095D02*
X141048930Y-44538095D01*
X141144168Y-44490476D01*
X141191787Y-44442857D01*
X141239406Y-44347619D01*
X141239406Y-44157142D01*
X141191787Y-44061904D01*
X141144168Y-44014285D01*
X141048930Y-43966666D01*
X140239406Y-43966666D01*
X140334645Y-43538095D02*
X140287026Y-43490476D01*
X140239406Y-43395238D01*
X140239406Y-43157142D01*
X140287026Y-43061904D01*
X140334645Y-43014285D01*
X140429883Y-42966666D01*
X140525121Y-42966666D01*
X140667978Y-43014285D01*
X141239406Y-43585714D01*
X141239406Y-42966666D01*
X140572740Y-42109523D02*
X141239406Y-42109523D01*
X140191787Y-42347619D02*
X140906073Y-42585714D01*
X140906073Y-41966666D01*
%TO.C,J12*%
X208202002Y-205453380D02*
X208202002Y-206167666D01*
X208154383Y-206310523D01*
X208059145Y-206405761D01*
X207916287Y-206453380D01*
X207821049Y-206453380D01*
X209202002Y-206453380D02*
X208630573Y-206453380D01*
X208916287Y-206453380D02*
X208916287Y-205453380D01*
X208821049Y-205596238D01*
X208725811Y-205691476D01*
X208630573Y-205739095D01*
X209582954Y-205548619D02*
X209630573Y-205501000D01*
X209725811Y-205453380D01*
X209963906Y-205453380D01*
X210059145Y-205501000D01*
X210106764Y-205548619D01*
X210154383Y-205643857D01*
X210154383Y-205739095D01*
X210106764Y-205881952D01*
X209535335Y-206453380D01*
X210154383Y-206453380D01*
%TO.C,R16*%
X110357142Y-73732380D02*
X110023809Y-73256190D01*
X109785714Y-73732380D02*
X109785714Y-72732380D01*
X110166666Y-72732380D01*
X110261904Y-72780000D01*
X110309523Y-72827619D01*
X110357142Y-72922857D01*
X110357142Y-73065714D01*
X110309523Y-73160952D01*
X110261904Y-73208571D01*
X110166666Y-73256190D01*
X109785714Y-73256190D01*
X111309523Y-73732380D02*
X110738095Y-73732380D01*
X111023809Y-73732380D02*
X111023809Y-72732380D01*
X110928571Y-72875238D01*
X110833333Y-72970476D01*
X110738095Y-73018095D01*
X112166666Y-72732380D02*
X111976190Y-72732380D01*
X111880952Y-72780000D01*
X111833333Y-72827619D01*
X111738095Y-72970476D01*
X111690476Y-73160952D01*
X111690476Y-73541904D01*
X111738095Y-73637142D01*
X111785714Y-73684761D01*
X111880952Y-73732380D01*
X112071428Y-73732380D01*
X112166666Y-73684761D01*
X112214285Y-73637142D01*
X112261904Y-73541904D01*
X112261904Y-73303809D01*
X112214285Y-73208571D01*
X112166666Y-73160952D01*
X112071428Y-73113333D01*
X111880952Y-73113333D01*
X111785714Y-73160952D01*
X111738095Y-73208571D01*
X111690476Y-73303809D01*
%TO.C,F1*%
X141699692Y-68888571D02*
X141366359Y-68888571D01*
X141366359Y-69412380D02*
X141366359Y-68412380D01*
X141842549Y-68412380D01*
X142747311Y-69412380D02*
X142175883Y-69412380D01*
X142461597Y-69412380D02*
X142461597Y-68412380D01*
X142366359Y-68555238D01*
X142271121Y-68650476D01*
X142175883Y-68698095D01*
%TO.C,U2*%
X68589150Y-177827373D02*
X69398986Y-177827373D01*
X69494261Y-177779736D01*
X69541899Y-177732099D01*
X69589536Y-177636824D01*
X69589536Y-177446274D01*
X69541899Y-177350999D01*
X69494261Y-177303362D01*
X69398986Y-177255724D01*
X68589150Y-177255724D01*
X68684425Y-176826987D02*
X68636788Y-176779350D01*
X68589150Y-176684075D01*
X68589150Y-176445888D01*
X68636788Y-176350613D01*
X68684425Y-176302976D01*
X68779700Y-176255338D01*
X68874975Y-176255338D01*
X69017887Y-176302976D01*
X69589536Y-176874625D01*
X69589536Y-176255338D01*
%TO.C,R9*%
X242590359Y-111272380D02*
X242257026Y-110796190D01*
X242018930Y-111272380D02*
X242018930Y-110272380D01*
X242399883Y-110272380D01*
X242495121Y-110320000D01*
X242542740Y-110367619D01*
X242590359Y-110462857D01*
X242590359Y-110605714D01*
X242542740Y-110700952D01*
X242495121Y-110748571D01*
X242399883Y-110796190D01*
X242018930Y-110796190D01*
X243066549Y-111272380D02*
X243257026Y-111272380D01*
X243352264Y-111224761D01*
X243399883Y-111177142D01*
X243495121Y-111034285D01*
X243542740Y-110843809D01*
X243542740Y-110462857D01*
X243495121Y-110367619D01*
X243447502Y-110320000D01*
X243352264Y-110272380D01*
X243161787Y-110272380D01*
X243066549Y-110320000D01*
X243018930Y-110367619D01*
X242971311Y-110462857D01*
X242971311Y-110700952D01*
X243018930Y-110796190D01*
X243066549Y-110843809D01*
X243161787Y-110891428D01*
X243352264Y-110891428D01*
X243447502Y-110843809D01*
X243495121Y-110796190D01*
X243542740Y-110700952D01*
%TO.C,F2*%
X142715692Y-60531571D02*
X142382359Y-60531571D01*
X142382359Y-61055380D02*
X142382359Y-60055380D01*
X142858549Y-60055380D01*
X143191883Y-60150619D02*
X143239502Y-60103000D01*
X143334740Y-60055380D01*
X143572835Y-60055380D01*
X143668073Y-60103000D01*
X143715692Y-60150619D01*
X143763311Y-60245857D01*
X143763311Y-60341095D01*
X143715692Y-60483952D01*
X143144264Y-61055380D01*
X143763311Y-61055380D01*
%TO.C,JP2*%
X127823692Y-71452380D02*
X127823692Y-72166666D01*
X127776073Y-72309523D01*
X127680835Y-72404761D01*
X127537978Y-72452380D01*
X127442740Y-72452380D01*
X128299883Y-72452380D02*
X128299883Y-71452380D01*
X128680835Y-71452380D01*
X128776073Y-71500000D01*
X128823692Y-71547619D01*
X128871311Y-71642857D01*
X128871311Y-71785714D01*
X128823692Y-71880952D01*
X128776073Y-71928571D01*
X128680835Y-71976190D01*
X128299883Y-71976190D01*
X129252264Y-71547619D02*
X129299883Y-71500000D01*
X129395121Y-71452380D01*
X129633216Y-71452380D01*
X129728454Y-71500000D01*
X129776073Y-71547619D01*
X129823692Y-71642857D01*
X129823692Y-71738095D01*
X129776073Y-71880952D01*
X129204645Y-72452380D01*
X129823692Y-72452380D01*
%TO.C,U21*%
X244236930Y-163970380D02*
X244236930Y-164779904D01*
X244284549Y-164875142D01*
X244332168Y-164922761D01*
X244427406Y-164970380D01*
X244617883Y-164970380D01*
X244713121Y-164922761D01*
X244760740Y-164875142D01*
X244808359Y-164779904D01*
X244808359Y-163970380D01*
X245236930Y-164065619D02*
X245284549Y-164018000D01*
X245379787Y-163970380D01*
X245617883Y-163970380D01*
X245713121Y-164018000D01*
X245760740Y-164065619D01*
X245808359Y-164160857D01*
X245808359Y-164256095D01*
X245760740Y-164398952D01*
X245189311Y-164970380D01*
X245808359Y-164970380D01*
X246760740Y-164970380D02*
X246189311Y-164970380D01*
X246475026Y-164970380D02*
X246475026Y-163970380D01*
X246379787Y-164113238D01*
X246284549Y-164208476D01*
X246189311Y-164256095D01*
%TO.C,U22*%
X310801483Y-158973771D02*
X310801483Y-160188057D01*
X310872911Y-160330914D01*
X310944340Y-160402342D01*
X311087197Y-160473771D01*
X311372911Y-160473771D01*
X311515768Y-160402342D01*
X311587197Y-160330914D01*
X311658626Y-160188057D01*
X311658626Y-158973771D01*
X312301483Y-159116628D02*
X312372911Y-159045200D01*
X312515768Y-158973771D01*
X312872911Y-158973771D01*
X313015768Y-159045200D01*
X313087197Y-159116628D01*
X313158626Y-159259485D01*
X313158626Y-159402342D01*
X313087197Y-159616628D01*
X312230054Y-160473771D01*
X313158626Y-160473771D01*
X313730054Y-159116628D02*
X313801483Y-159045200D01*
X313944340Y-158973771D01*
X314301483Y-158973771D01*
X314444340Y-159045200D01*
X314515768Y-159116628D01*
X314587197Y-159259485D01*
X314587197Y-159402342D01*
X314515768Y-159616628D01*
X313658626Y-160473771D01*
X314587197Y-160473771D01*
X333155026Y-161310571D02*
X333440740Y-161310571D01*
X333583597Y-161382000D01*
X333726454Y-161524857D01*
X333797883Y-161810571D01*
X333797883Y-162310571D01*
X333726454Y-162596285D01*
X333583597Y-162739142D01*
X333440740Y-162810571D01*
X333155026Y-162810571D01*
X333012168Y-162739142D01*
X332869311Y-162596285D01*
X332797883Y-162310571D01*
X332797883Y-161810571D01*
X332869311Y-161524857D01*
X333012168Y-161382000D01*
X333155026Y-161310571D01*
X334440740Y-161310571D02*
X334440740Y-162524857D01*
X334512168Y-162667714D01*
X334583597Y-162739142D01*
X334726454Y-162810571D01*
X335012168Y-162810571D01*
X335155026Y-162739142D01*
X335226454Y-162667714D01*
X335297883Y-162524857D01*
X335297883Y-161310571D01*
X335797883Y-161310571D02*
X336655026Y-161310571D01*
X336226454Y-162810571D02*
X336226454Y-161310571D01*
X289419311Y-162810571D02*
X289419311Y-161310571D01*
X290133597Y-162810571D02*
X290133597Y-161310571D01*
X290990740Y-162810571D01*
X290990740Y-161310571D01*
%TO.C,TP10*%
X190018930Y-99874380D02*
X190590359Y-99874380D01*
X190304645Y-100874380D02*
X190304645Y-99874380D01*
X190923692Y-100874380D02*
X190923692Y-99874380D01*
X191304645Y-99874380D01*
X191399883Y-99922000D01*
X191447502Y-99969619D01*
X191495121Y-100064857D01*
X191495121Y-100207714D01*
X191447502Y-100302952D01*
X191399883Y-100350571D01*
X191304645Y-100398190D01*
X190923692Y-100398190D01*
X192447502Y-100874380D02*
X191876073Y-100874380D01*
X192161787Y-100874380D02*
X192161787Y-99874380D01*
X192066549Y-100017238D01*
X191971311Y-100112476D01*
X191876073Y-100160095D01*
X193066549Y-99874380D02*
X193161787Y-99874380D01*
X193257026Y-99922000D01*
X193304645Y-99969619D01*
X193352264Y-100064857D01*
X193399883Y-100255333D01*
X193399883Y-100493428D01*
X193352264Y-100683904D01*
X193304645Y-100779142D01*
X193257026Y-100826761D01*
X193161787Y-100874380D01*
X193066549Y-100874380D01*
X192971311Y-100826761D01*
X192923692Y-100779142D01*
X192876073Y-100683904D01*
X192828454Y-100493428D01*
X192828454Y-100255333D01*
X192876073Y-100064857D01*
X192923692Y-99969619D01*
X192971311Y-99922000D01*
X193066549Y-99874380D01*
%TO.C,J4*%
X289019692Y-202036380D02*
X289019692Y-202750666D01*
X288972073Y-202893523D01*
X288876835Y-202988761D01*
X288733978Y-203036380D01*
X288638740Y-203036380D01*
X289924454Y-202369714D02*
X289924454Y-203036380D01*
X289686359Y-201988761D02*
X289448264Y-202703047D01*
X290067311Y-202703047D01*
%TO.C,R11*%
X264114168Y-109272380D02*
X263780835Y-108796190D01*
X263542740Y-109272380D02*
X263542740Y-108272380D01*
X263923692Y-108272380D01*
X264018930Y-108320000D01*
X264066549Y-108367619D01*
X264114168Y-108462857D01*
X264114168Y-108605714D01*
X264066549Y-108700952D01*
X264018930Y-108748571D01*
X263923692Y-108796190D01*
X263542740Y-108796190D01*
X265066549Y-109272380D02*
X264495121Y-109272380D01*
X264780835Y-109272380D02*
X264780835Y-108272380D01*
X264685597Y-108415238D01*
X264590359Y-108510476D01*
X264495121Y-108558095D01*
X266018930Y-109272380D02*
X265447502Y-109272380D01*
X265733216Y-109272380D02*
X265733216Y-108272380D01*
X265637978Y-108415238D01*
X265542740Y-108510476D01*
X265447502Y-108558095D01*
%TO.C,J11*%
X130191002Y-217363380D02*
X130191002Y-218077666D01*
X130143383Y-218220523D01*
X130048145Y-218315761D01*
X129905287Y-218363380D01*
X129810049Y-218363380D01*
X131191002Y-218363380D02*
X130619573Y-218363380D01*
X130905287Y-218363380D02*
X130905287Y-217363380D01*
X130810049Y-217506238D01*
X130714811Y-217601476D01*
X130619573Y-217649095D01*
X132143383Y-218363380D02*
X131571954Y-218363380D01*
X131857668Y-218363380D02*
X131857668Y-217363380D01*
X131762430Y-217506238D01*
X131667192Y-217601476D01*
X131571954Y-217649095D01*
%TO.C,U16*%
X177584397Y-161590742D02*
X178798683Y-161590742D01*
X178941540Y-161519314D01*
X179012968Y-161447885D01*
X179084397Y-161305028D01*
X179084397Y-161019314D01*
X179012968Y-160876457D01*
X178941540Y-160805028D01*
X178798683Y-160733600D01*
X177584397Y-160733600D01*
X179084397Y-159233600D02*
X179084397Y-160090742D01*
X179084397Y-159662171D02*
X177584397Y-159662171D01*
X177798683Y-159805028D01*
X177941540Y-159947885D01*
X178012968Y-160090742D01*
X177584397Y-157947885D02*
X177584397Y-158233600D01*
X177655826Y-158376457D01*
X177727254Y-158447885D01*
X177941540Y-158590742D01*
X178227254Y-158662171D01*
X178798683Y-158662171D01*
X178941540Y-158590742D01*
X179012968Y-158519314D01*
X179084397Y-158376457D01*
X179084397Y-158090742D01*
X179012968Y-157947885D01*
X178941540Y-157876457D01*
X178798683Y-157805028D01*
X178441540Y-157805028D01*
X178298683Y-157876457D01*
X178227254Y-157947885D01*
X178155826Y-158090742D01*
X178155826Y-158376457D01*
X178227254Y-158519314D01*
X178298683Y-158590742D01*
X178441540Y-158662171D01*
X176747597Y-138065714D02*
X175247597Y-138065714D01*
X176747597Y-137351428D02*
X175247597Y-137351428D01*
X176747597Y-136494285D01*
X175247597Y-136494285D01*
X175247597Y-183230000D02*
X175247597Y-182944285D01*
X175319026Y-182801428D01*
X175461883Y-182658571D01*
X175747597Y-182587142D01*
X176247597Y-182587142D01*
X176533311Y-182658571D01*
X176676168Y-182801428D01*
X176747597Y-182944285D01*
X176747597Y-183230000D01*
X176676168Y-183372857D01*
X176533311Y-183515714D01*
X176247597Y-183587142D01*
X175747597Y-183587142D01*
X175461883Y-183515714D01*
X175319026Y-183372857D01*
X175247597Y-183230000D01*
X175247597Y-181944285D02*
X176461883Y-181944285D01*
X176604740Y-181872857D01*
X176676168Y-181801428D01*
X176747597Y-181658571D01*
X176747597Y-181372857D01*
X176676168Y-181230000D01*
X176604740Y-181158571D01*
X176461883Y-181087142D01*
X175247597Y-181087142D01*
X175247597Y-180587142D02*
X175247597Y-179730000D01*
X176747597Y-180158571D02*
X175247597Y-180158571D01*
%TO.C,TP8*%
X74495121Y-114954380D02*
X75066549Y-114954380D01*
X74780835Y-115954380D02*
X74780835Y-114954380D01*
X75399883Y-115954380D02*
X75399883Y-114954380D01*
X75780835Y-114954380D01*
X75876073Y-115002000D01*
X75923692Y-115049619D01*
X75971311Y-115144857D01*
X75971311Y-115287714D01*
X75923692Y-115382952D01*
X75876073Y-115430571D01*
X75780835Y-115478190D01*
X75399883Y-115478190D01*
X76542740Y-115382952D02*
X76447502Y-115335333D01*
X76399883Y-115287714D01*
X76352264Y-115192476D01*
X76352264Y-115144857D01*
X76399883Y-115049619D01*
X76447502Y-115002000D01*
X76542740Y-114954380D01*
X76733216Y-114954380D01*
X76828454Y-115002000D01*
X76876073Y-115049619D01*
X76923692Y-115144857D01*
X76923692Y-115192476D01*
X76876073Y-115287714D01*
X76828454Y-115335333D01*
X76733216Y-115382952D01*
X76542740Y-115382952D01*
X76447502Y-115430571D01*
X76399883Y-115478190D01*
X76352264Y-115573428D01*
X76352264Y-115763904D01*
X76399883Y-115859142D01*
X76447502Y-115906761D01*
X76542740Y-115954380D01*
X76733216Y-115954380D01*
X76828454Y-115906761D01*
X76876073Y-115859142D01*
X76923692Y-115763904D01*
X76923692Y-115573428D01*
X76876073Y-115478190D01*
X76828454Y-115430571D01*
X76733216Y-115382952D01*
%TO.C,JP1*%
X86081692Y-113920380D02*
X86081692Y-114634666D01*
X86034073Y-114777523D01*
X85938835Y-114872761D01*
X85795978Y-114920380D01*
X85700740Y-114920380D01*
X86557883Y-114920380D02*
X86557883Y-113920380D01*
X86938835Y-113920380D01*
X87034073Y-113968000D01*
X87081692Y-114015619D01*
X87129311Y-114110857D01*
X87129311Y-114253714D01*
X87081692Y-114348952D01*
X87034073Y-114396571D01*
X86938835Y-114444190D01*
X86557883Y-114444190D01*
X88081692Y-114920380D02*
X87510264Y-114920380D01*
X87795978Y-114920380D02*
X87795978Y-113920380D01*
X87700740Y-114063238D01*
X87605502Y-114158476D01*
X87510264Y-114206095D01*
%TO.C,U1*%
X81301768Y-84845771D02*
X81301768Y-86060057D01*
X81373197Y-86202914D01*
X81444626Y-86274342D01*
X81587483Y-86345771D01*
X81873197Y-86345771D01*
X82016054Y-86274342D01*
X82087483Y-86202914D01*
X82158911Y-86060057D01*
X82158911Y-84845771D01*
X83658911Y-86345771D02*
X82801768Y-86345771D01*
X83230340Y-86345771D02*
X83230340Y-84845771D01*
X83087483Y-85060057D01*
X82944626Y-85202914D01*
X82801768Y-85274342D01*
X102941026Y-87182571D02*
X103226740Y-87182571D01*
X103369597Y-87254000D01*
X103512454Y-87396857D01*
X103583883Y-87682571D01*
X103583883Y-88182571D01*
X103512454Y-88468285D01*
X103369597Y-88611142D01*
X103226740Y-88682571D01*
X102941026Y-88682571D01*
X102798168Y-88611142D01*
X102655311Y-88468285D01*
X102583883Y-88182571D01*
X102583883Y-87682571D01*
X102655311Y-87396857D01*
X102798168Y-87254000D01*
X102941026Y-87182571D01*
X104226740Y-87182571D02*
X104226740Y-88396857D01*
X104298168Y-88539714D01*
X104369597Y-88611142D01*
X104512454Y-88682571D01*
X104798168Y-88682571D01*
X104941026Y-88611142D01*
X105012454Y-88539714D01*
X105083883Y-88396857D01*
X105083883Y-87182571D01*
X105583883Y-87182571D02*
X106441026Y-87182571D01*
X106012454Y-88682571D02*
X106012454Y-87182571D01*
X59205311Y-88682571D02*
X59205311Y-87182571D01*
X59919597Y-88682571D02*
X59919597Y-87182571D01*
X60776740Y-88682571D01*
X60776740Y-87182571D01*
%TO.C,TP14*%
X251018930Y-115954380D02*
X251590359Y-115954380D01*
X251304645Y-116954380D02*
X251304645Y-115954380D01*
X251923692Y-116954380D02*
X251923692Y-115954380D01*
X252304645Y-115954380D01*
X252399883Y-116002000D01*
X252447502Y-116049619D01*
X252495121Y-116144857D01*
X252495121Y-116287714D01*
X252447502Y-116382952D01*
X252399883Y-116430571D01*
X252304645Y-116478190D01*
X251923692Y-116478190D01*
X253447502Y-116954380D02*
X252876073Y-116954380D01*
X253161787Y-116954380D02*
X253161787Y-115954380D01*
X253066549Y-116097238D01*
X252971311Y-116192476D01*
X252876073Y-116240095D01*
X254304645Y-116287714D02*
X254304645Y-116954380D01*
X254066549Y-115906761D02*
X253828454Y-116621047D01*
X254447502Y-116621047D01*
%TO.C,TP4*%
X89495121Y-120954380D02*
X90066549Y-120954380D01*
X89780835Y-121954380D02*
X89780835Y-120954380D01*
X90399883Y-121954380D02*
X90399883Y-120954380D01*
X90780835Y-120954380D01*
X90876073Y-121002000D01*
X90923692Y-121049619D01*
X90971311Y-121144857D01*
X90971311Y-121287714D01*
X90923692Y-121382952D01*
X90876073Y-121430571D01*
X90780835Y-121478190D01*
X90399883Y-121478190D01*
X91828454Y-121287714D02*
X91828454Y-121954380D01*
X91590359Y-120906761D02*
X91352264Y-121621047D01*
X91971311Y-121621047D01*
%TO.C,TP11*%
X357518930Y-63954380D02*
X358090359Y-63954380D01*
X357804645Y-64954380D02*
X357804645Y-63954380D01*
X358423692Y-64954380D02*
X358423692Y-63954380D01*
X358804645Y-63954380D01*
X358899883Y-64002000D01*
X358947502Y-64049619D01*
X358995121Y-64144857D01*
X358995121Y-64287714D01*
X358947502Y-64382952D01*
X358899883Y-64430571D01*
X358804645Y-64478190D01*
X358423692Y-64478190D01*
X359947502Y-64954380D02*
X359376073Y-64954380D01*
X359661787Y-64954380D02*
X359661787Y-63954380D01*
X359566549Y-64097238D01*
X359471311Y-64192476D01*
X359376073Y-64240095D01*
X360899883Y-64954380D02*
X360328454Y-64954380D01*
X360614168Y-64954380D02*
X360614168Y-63954380D01*
X360518930Y-64097238D01*
X360423692Y-64192476D01*
X360328454Y-64240095D01*
%TO.C,J7*%
X248633692Y-205848380D02*
X248633692Y-206562666D01*
X248586073Y-206705523D01*
X248490835Y-206800761D01*
X248347978Y-206848380D01*
X248252740Y-206848380D01*
X249014645Y-205848380D02*
X249681311Y-205848380D01*
X249252740Y-206848380D01*
%TO.C,U23*%
X340218930Y-187552380D02*
X340218930Y-188361904D01*
X340266549Y-188457142D01*
X340314168Y-188504761D01*
X340409406Y-188552380D01*
X340599883Y-188552380D01*
X340695121Y-188504761D01*
X340742740Y-188457142D01*
X340790359Y-188361904D01*
X340790359Y-187552380D01*
X341218930Y-187647619D02*
X341266549Y-187600000D01*
X341361787Y-187552380D01*
X341599883Y-187552380D01*
X341695121Y-187600000D01*
X341742740Y-187647619D01*
X341790359Y-187742857D01*
X341790359Y-187838095D01*
X341742740Y-187980952D01*
X341171311Y-188552380D01*
X341790359Y-188552380D01*
X342123692Y-187552380D02*
X342742740Y-187552380D01*
X342409406Y-187933333D01*
X342552264Y-187933333D01*
X342647502Y-187980952D01*
X342695121Y-188028571D01*
X342742740Y-188123809D01*
X342742740Y-188361904D01*
X342695121Y-188457142D01*
X342647502Y-188504761D01*
X342552264Y-188552380D01*
X342266549Y-188552380D01*
X342171311Y-188504761D01*
X342123692Y-188457142D01*
D12*
%TO.C,U14*%
X355229026Y-110590000D02*
X357179026Y-110590000D01*
X355229026Y-110590000D02*
X353279026Y-110590000D01*
X355229026Y-105470000D02*
X357179026Y-105470000D01*
X355229026Y-105470000D02*
X351779026Y-105470000D01*
%TO.C,J10*%
X69130026Y-212720000D02*
X69177026Y-212674000D01*
X91759026Y-210412000D02*
X91794026Y-210377000D01*
X48810026Y-212720000D02*
X48857026Y-212674000D01*
X51312026Y-210628000D02*
X51359026Y-210582000D01*
X79495026Y-212926000D02*
X79530026Y-212890000D01*
X98405026Y-213952000D02*
X47485026Y-213952000D01*
X53890026Y-212720000D02*
X53937026Y-212674000D01*
X76712026Y-210628000D02*
X76759026Y-210582000D01*
X86679026Y-210412000D02*
X86714026Y-210377000D01*
X89655026Y-212926000D02*
X89690026Y-212890000D01*
X51119026Y-210412000D02*
X51154026Y-210377000D01*
X81792026Y-210628000D02*
X81839026Y-210582000D01*
X74210026Y-212720000D02*
X74257026Y-212674000D01*
X71439026Y-210412000D02*
X71474026Y-210377000D01*
X91952026Y-210628000D02*
X91999026Y-210582000D01*
X81599026Y-210412000D02*
X81634026Y-210377000D01*
X47485026Y-216912000D02*
X47485026Y-206991000D01*
X98405026Y-216912000D02*
X98405026Y-206991000D01*
X84575026Y-212926000D02*
X84610026Y-212890000D01*
X64255026Y-212926000D02*
X64290026Y-212890000D01*
X76519026Y-210412000D02*
X76554026Y-210377000D01*
X66359026Y-210412000D02*
X66394026Y-210377000D01*
X54095026Y-212926000D02*
X54130026Y-212890000D01*
X58970026Y-212720000D02*
X59017026Y-212674000D01*
X98405026Y-207551000D02*
X47485026Y-207551000D01*
X79290026Y-212720000D02*
X79337026Y-212674000D01*
X98405026Y-206991000D02*
X47485026Y-206991000D01*
X89450026Y-212720000D02*
X89497026Y-212674000D01*
X59175026Y-212926000D02*
X59210026Y-212890000D01*
X61472026Y-210628000D02*
X61519026Y-210582000D01*
X49015026Y-212926000D02*
X49050026Y-212890000D01*
X56199026Y-210412000D02*
X56234026Y-210377000D01*
X98405026Y-216912000D02*
X47485026Y-216912000D01*
X86872026Y-210628000D02*
X86919026Y-210582000D01*
X98405026Y-209051000D02*
X47485026Y-209051000D01*
X64050026Y-212720000D02*
X64097026Y-212674000D01*
X98645026Y-207491000D02*
X98645026Y-206751000D01*
X71632026Y-210628000D02*
X71679026Y-210582000D01*
X61279026Y-210412000D02*
X61314026Y-210377000D01*
X84370026Y-212720000D02*
X84417026Y-212674000D01*
X66552026Y-210628000D02*
X66599026Y-210582000D01*
X98645026Y-206751000D02*
X98145026Y-206751000D01*
X56392026Y-210628000D02*
X56439026Y-210582000D01*
X69335026Y-212926000D02*
X69370026Y-212890000D01*
X74415026Y-212926000D02*
X74450026Y-212890000D01*
X95805026Y-209971000D02*
G75*
G03*
X95121708Y-210116244I-1J-1679992D01*
G01*
X94270026Y-210967000D02*
G75*
G03*
X94269599Y-212334042I1534993J-684001D01*
G01*
X95121026Y-213186000D02*
G75*
G03*
X96488068Y-213186427I684001J1534993D01*
G01*
X97340026Y-212335000D02*
G75*
G03*
X97340453Y-210967958I-1534993J684001D01*
G01*
X96489026Y-210116000D02*
G75*
G03*
X95776221Y-209970747I-683999J-1535001D01*
G01*
X61925026Y-211651000D02*
G75*
G03*
X61925026Y-211651000I-1680000J0D01*
G01*
X87325026Y-211651000D02*
G75*
G03*
X87325026Y-211651000I-1680000J0D01*
G01*
X51765026Y-211651000D02*
G75*
G03*
X51765026Y-211651000I-1680000J0D01*
G01*
X77165026Y-211651000D02*
G75*
G03*
X77165026Y-211651000I-1680000J0D01*
G01*
X72085026Y-211651000D02*
G75*
G03*
X72085026Y-211651000I-1680000J0D01*
G01*
X92405026Y-211651000D02*
G75*
G03*
X92405026Y-211651000I-1680000J0D01*
G01*
X82245026Y-211651000D02*
G75*
G03*
X82245026Y-211651000I-1680000J0D01*
G01*
X67005026Y-211651000D02*
G75*
G03*
X67005026Y-211651000I-1680000J0D01*
G01*
X56845026Y-211651000D02*
G75*
G03*
X56845026Y-211651000I-1680000J0D01*
G01*
%TO.C,TP6*%
X279457026Y-169750000D02*
G75*
G03*
X279457026Y-169750000I-1700000J0D01*
G01*
%TO.C,JP5*%
X126753026Y-51822000D02*
X130953026Y-51822000D01*
X130953026Y-53642000D02*
X130953026Y-54262000D01*
X130953026Y-54262000D02*
X126753026Y-54262000D01*
X126753026Y-51642000D02*
X130953026Y-51642000D01*
X125133026Y-52952000D02*
X126753026Y-52952000D01*
X122693026Y-50952000D02*
X123693026Y-50952000D01*
X126753026Y-51942000D02*
X130953026Y-51942000D01*
X126753026Y-52062000D02*
X130953026Y-52062000D01*
X124575140Y-54262000D02*
X125133026Y-54262000D01*
X124575140Y-53642000D02*
X125133026Y-53642000D01*
X126753026Y-51702000D02*
X130953026Y-51702000D01*
X130953026Y-51642000D02*
X130953026Y-52262000D01*
X124628026Y-52262000D02*
X125133026Y-52262000D01*
X126753026Y-50892000D02*
X125133026Y-50892000D01*
X125133026Y-50892000D02*
X125133026Y-55012000D01*
X122693026Y-51952000D02*
X122693026Y-50952000D01*
X125133026Y-55012000D02*
X126753026Y-55012000D01*
X124628026Y-51642000D02*
X125133026Y-51642000D01*
X130953026Y-52262000D02*
X126753026Y-52262000D01*
X126753026Y-55012000D02*
X126753026Y-50892000D01*
X126753026Y-53642000D02*
X130953026Y-53642000D01*
X126753026Y-52182000D02*
X130953026Y-52182000D01*
%TO.C,J2*%
X55272026Y-55185000D02*
X57447026Y-55185000D01*
X63842026Y-55185000D02*
X61667026Y-55185000D01*
X59257026Y-58285000D02*
X59257026Y-59565000D01*
X59557026Y-40165000D02*
X63842026Y-40165000D01*
X56457026Y-56475000D02*
X56457026Y-55875000D01*
X56457026Y-55875000D02*
X57057026Y-56175000D01*
X59557026Y-40165000D02*
X55272026Y-40165000D01*
X63842026Y-40165000D02*
X63842026Y-55185000D01*
X57057026Y-56175000D02*
X56457026Y-56475000D01*
X59857026Y-58285000D02*
X59857026Y-59565000D01*
X55272026Y-40165000D02*
X55272026Y-55185000D01*
X61317026Y-48875000D02*
G75*
G03*
X61317026Y-48875000I-1760000J0D01*
G01*
D11*
%TO.C,U8*%
X286903026Y-69332000D02*
X338211026Y-69332000D01*
X315351026Y-90668000D02*
X309763026Y-90668000D01*
X338211026Y-90668000D02*
X338211026Y-69332000D01*
X286903026Y-90668000D02*
X286903026Y-69332000D01*
X286903026Y-90668000D02*
X309763026Y-90668000D01*
X315351026Y-90668000D02*
X338211026Y-90668000D01*
D12*
%TO.C,J9*%
X163356026Y-216421000D02*
X163356026Y-217161000D01*
X170049026Y-213284000D02*
X170002026Y-213330000D01*
X163596026Y-207000000D02*
X189116026Y-207000000D01*
X163356026Y-217161000D02*
X163856026Y-217161000D01*
X172346026Y-210986000D02*
X172311026Y-211022000D01*
X163596026Y-209960000D02*
X189116026Y-209960000D01*
X189116026Y-207000000D02*
X189116026Y-216921000D01*
X180402026Y-213500000D02*
X180367026Y-213535000D01*
X163596026Y-216361000D02*
X189116026Y-216361000D01*
X172551026Y-211192000D02*
X172504026Y-211238000D01*
X170242026Y-213500000D02*
X170207026Y-213535000D01*
X163596026Y-216921000D02*
X189116026Y-216921000D01*
X182506026Y-210986000D02*
X182471026Y-211022000D01*
X175129026Y-213284000D02*
X175082026Y-213330000D01*
X185482026Y-213500000D02*
X185447026Y-213535000D01*
X175322026Y-213500000D02*
X175287026Y-213535000D01*
X177426026Y-210986000D02*
X177391026Y-211022000D01*
X163596026Y-214861000D02*
X189116026Y-214861000D01*
X187791026Y-211192000D02*
X187744026Y-211238000D01*
X185289026Y-213284000D02*
X185242026Y-213330000D01*
X182711026Y-211192000D02*
X182664026Y-211238000D01*
X177631026Y-211192000D02*
X177584026Y-211238000D01*
X180209026Y-213284000D02*
X180162026Y-213330000D01*
X187586026Y-210986000D02*
X187551026Y-211022000D01*
X163596026Y-207000000D02*
X163596026Y-216921000D01*
X164661026Y-211577000D02*
G75*
G03*
X164660599Y-212944042I1534993J-684001D01*
G01*
X166880026Y-210726000D02*
G75*
G03*
X165512984Y-210725573I-684001J-1534993D01*
G01*
X165512026Y-213796000D02*
G75*
G03*
X166224831Y-213941253I683999J1535001D01*
G01*
X166196026Y-213941000D02*
G75*
G03*
X166879344Y-213795756I1J1679992D01*
G01*
X167731026Y-212945000D02*
G75*
G03*
X167731453Y-211577958I-1534993J684001D01*
G01*
X172956026Y-212261000D02*
G75*
G03*
X172956026Y-212261000I-1680000J0D01*
G01*
X188196026Y-212261000D02*
G75*
G03*
X188196026Y-212261000I-1680000J0D01*
G01*
X178036026Y-212261000D02*
G75*
G03*
X178036026Y-212261000I-1680000J0D01*
G01*
X183116026Y-212261000D02*
G75*
G03*
X183116026Y-212261000I-1680000J0D01*
G01*
%TO.C,R15*%
X353767657Y-185246000D02*
X355362395Y-185246000D01*
X353767657Y-189666000D02*
X355362395Y-189666000D01*
%TO.C,TP9*%
X347165026Y-131706000D02*
G75*
G03*
X347165026Y-131706000I-1700000J0D01*
G01*
%TO.C,R3*%
X269959657Y-167210000D02*
X271554395Y-167210000D01*
X269959657Y-162790000D02*
X271554395Y-162790000D01*
%TO.C,U3*%
X271071026Y-173362000D02*
X267621026Y-173362000D01*
X271071026Y-173362000D02*
X273021026Y-173362000D01*
X271071026Y-178482000D02*
X273021026Y-178482000D01*
X271071026Y-178482000D02*
X269121026Y-178482000D01*
D11*
%TO.C,U9*%
X220195692Y-47346000D02*
X220195692Y-98654000D01*
X198859692Y-75794000D02*
X198859692Y-98654000D01*
X198859692Y-47346000D02*
X198859692Y-70206000D01*
X198859692Y-98654000D02*
X220195692Y-98654000D01*
X198859692Y-47346000D02*
X220195692Y-47346000D01*
X198859692Y-75794000D02*
X198859692Y-70206000D01*
D12*
%TO.C,TP12*%
X231457026Y-114000000D02*
G75*
G03*
X231457026Y-114000000I-1700000J0D01*
G01*
D11*
%TO.C,U12*%
X315351026Y-117936000D02*
X309763026Y-117936000D01*
X338211026Y-117936000D02*
X338211026Y-96600000D01*
X286903026Y-96600000D02*
X338211026Y-96600000D01*
X286903026Y-117936000D02*
X309763026Y-117936000D01*
X286903026Y-117936000D02*
X286903026Y-96600000D01*
X315351026Y-117936000D02*
X338211026Y-117936000D01*
D12*
%TO.C,R7*%
X217359657Y-106790000D02*
X218954395Y-106790000D01*
X217359657Y-111210000D02*
X218954395Y-111210000D01*
%TO.C,C1*%
X153767774Y-102646000D02*
X155190278Y-102646000D01*
X153767774Y-105366000D02*
X155190278Y-105366000D01*
%TO.C,R1*%
X139276026Y-124723737D02*
X139276026Y-123276263D01*
X141986026Y-124723737D02*
X141986026Y-123276263D01*
D11*
%TO.C,U4*%
X315351026Y-145368000D02*
X309763026Y-145368000D01*
X286903026Y-145368000D02*
X309763026Y-145368000D01*
X338211026Y-145368000D02*
X338211026Y-124032000D01*
X286903026Y-124032000D02*
X338211026Y-124032000D01*
X286903026Y-145368000D02*
X286903026Y-124032000D01*
X315351026Y-145368000D02*
X338211026Y-145368000D01*
D12*
%TO.C,TP7*%
X137457026Y-76000000D02*
G75*
G03*
X137457026Y-76000000I-1700000J0D01*
G01*
%TO.C,TP3*%
X113200000Y-88000000D02*
G75*
G03*
X113200000Y-88000000I-1700000J0D01*
G01*
%TO.C,R5*%
X191959657Y-109790000D02*
X193554395Y-109790000D01*
X191959657Y-114210000D02*
X193554395Y-114210000D01*
%TO.C,TP5*%
X118079026Y-105022000D02*
G75*
G03*
X118079026Y-105022000I-1700000J0D01*
G01*
%TO.C,R2*%
X104726263Y-45645000D02*
X106173737Y-45645000D01*
X104726263Y-48355000D02*
X106173737Y-48355000D01*
D11*
%TO.C,U5*%
X171089026Y-98654000D02*
X192425026Y-98654000D01*
X171089026Y-75794000D02*
X171089026Y-98654000D01*
X192425026Y-47346000D02*
X192425026Y-98654000D01*
X171089026Y-47346000D02*
X192425026Y-47346000D01*
X171089026Y-47346000D02*
X171089026Y-70206000D01*
X171089026Y-75794000D02*
X171089026Y-70206000D01*
D12*
%TO.C,TP16*%
X283457026Y-118000000D02*
G75*
G03*
X283457026Y-118000000I-1700000J0D01*
G01*
%TO.C,R6*%
X356149657Y-69498000D02*
X357744395Y-69498000D01*
X356149657Y-73918000D02*
X357744395Y-73918000D01*
D11*
%TO.C,U20*%
X196389026Y-162426000D02*
X196389026Y-156838000D01*
X217725026Y-133978000D02*
X217725026Y-185286000D01*
X196389026Y-133978000D02*
X196389026Y-156838000D01*
X196389026Y-185286000D02*
X217725026Y-185286000D01*
X196389026Y-162426000D02*
X196389026Y-185286000D01*
X196389026Y-133978000D02*
X217725026Y-133978000D01*
D12*
%TO.C,U10*%
X357515026Y-80070000D02*
X359465026Y-80070000D01*
X357515026Y-85190000D02*
X355565026Y-85190000D01*
X357515026Y-80070000D02*
X354065026Y-80070000D01*
X357515026Y-85190000D02*
X359465026Y-85190000D01*
%TO.C,JP6*%
X154757026Y-69648000D02*
X154757026Y-71268000D01*
X154067026Y-75468000D02*
X153447026Y-75468000D01*
X156067026Y-71268000D02*
X156067026Y-75468000D01*
X156757026Y-67208000D02*
X156757026Y-68208000D01*
X156817026Y-69648000D02*
X152697026Y-69648000D01*
X155647026Y-71268000D02*
X155647026Y-75468000D01*
X155447026Y-69143000D02*
X155447026Y-69648000D01*
X156817026Y-71268000D02*
X156817026Y-69648000D01*
X153447026Y-75468000D02*
X153447026Y-71268000D01*
X155757026Y-67208000D02*
X156757026Y-67208000D01*
X153447026Y-69090114D02*
X153447026Y-69648000D01*
X155887026Y-71268000D02*
X155887026Y-75468000D01*
X155527026Y-71268000D02*
X155527026Y-75468000D01*
X156067026Y-75468000D02*
X155447026Y-75468000D01*
X152697026Y-71268000D02*
X156817026Y-71268000D01*
X155767026Y-71268000D02*
X155767026Y-75468000D01*
X154067026Y-69090114D02*
X154067026Y-69648000D01*
X154067026Y-71268000D02*
X154067026Y-75468000D01*
X155447026Y-75468000D02*
X155447026Y-71268000D01*
X156067026Y-69143000D02*
X156067026Y-69648000D01*
X156007026Y-71268000D02*
X156007026Y-75468000D01*
X152697026Y-69648000D02*
X152697026Y-71268000D01*
%TO.C,TP15*%
X169457026Y-192000000D02*
G75*
G03*
X169457026Y-192000000I-1700000J0D01*
G01*
%TO.C,TP1*%
X85059026Y-56000000D02*
G75*
G03*
X85059026Y-56000000I-1700000J0D01*
G01*
D11*
%TO.C,U13*%
X226689026Y-47446000D02*
X226689026Y-70306000D01*
X226689026Y-47446000D02*
X248025026Y-47446000D01*
X248025026Y-47446000D02*
X248025026Y-98754000D01*
X226689026Y-98754000D02*
X248025026Y-98754000D01*
X226689026Y-75894000D02*
X226689026Y-70306000D01*
X226689026Y-75894000D02*
X226689026Y-98754000D01*
D12*
%TO.C,U15*%
X242757026Y-126974000D02*
X240807026Y-126974000D01*
X242757026Y-121854000D02*
X239307026Y-121854000D01*
X242757026Y-121854000D02*
X244707026Y-121854000D01*
X242757026Y-126974000D02*
X244707026Y-126974000D01*
%TO.C,J8*%
X53701026Y-166534000D02*
X53736026Y-166569000D01*
X51393026Y-133745000D02*
X51439026Y-133792000D01*
X51393026Y-128665000D02*
X51439026Y-128712000D01*
X51393026Y-154065000D02*
X51439026Y-154112000D01*
X51393026Y-143905000D02*
X51439026Y-143952000D01*
X57122026Y-178260000D02*
X57122026Y-127340000D01*
X53701026Y-161454000D02*
X53736026Y-161489000D01*
X51393026Y-159145000D02*
X51439026Y-159192000D01*
X53701026Y-130974000D02*
X53736026Y-131009000D01*
X53701026Y-151294000D02*
X53736026Y-151329000D01*
X55062026Y-178260000D02*
X55062026Y-127340000D01*
X53485026Y-161647000D02*
X53531026Y-161694000D01*
X51187026Y-139030000D02*
X51223026Y-139065000D01*
X47201026Y-127340000D02*
X57122026Y-127340000D01*
X53485026Y-156567000D02*
X53531026Y-156614000D01*
X53701026Y-136054000D02*
X53736026Y-136089000D01*
X53701026Y-156374000D02*
X53736026Y-156409000D01*
X51187026Y-154270000D02*
X51223026Y-154305000D01*
X51187026Y-164430000D02*
X51223026Y-164465000D01*
X53485026Y-141327000D02*
X53531026Y-141374000D01*
X51187026Y-133950000D02*
X51223026Y-133985000D01*
X53485026Y-171807000D02*
X53531026Y-171854000D01*
X56562026Y-178260000D02*
X56562026Y-127340000D01*
X53701026Y-171614000D02*
X53736026Y-171649000D01*
X53485026Y-146407000D02*
X53531026Y-146454000D01*
X53485026Y-166727000D02*
X53531026Y-166774000D01*
X51187026Y-144110000D02*
X51223026Y-144145000D01*
X53485026Y-131167000D02*
X53531026Y-131214000D01*
X53485026Y-151487000D02*
X53531026Y-151534000D01*
X51393026Y-138825000D02*
X51439026Y-138872000D01*
X56622026Y-178500000D02*
X57362026Y-178500000D01*
X51393026Y-164225000D02*
X51439026Y-164272000D01*
X51187026Y-128870000D02*
X51223026Y-128905000D01*
X51187026Y-149190000D02*
X51223026Y-149225000D01*
X47201026Y-178260000D02*
X47201026Y-127340000D01*
X53701026Y-146214000D02*
X53736026Y-146249000D01*
X53701026Y-141134000D02*
X53736026Y-141169000D01*
X50161026Y-178260000D02*
X50161026Y-127340000D01*
X51393026Y-148985000D02*
X51439026Y-149032000D01*
X51393026Y-169305000D02*
X51439026Y-169352000D01*
X51187026Y-169510000D02*
X51223026Y-169545000D01*
X51187026Y-159350000D02*
X51223026Y-159385000D01*
X53485026Y-136247000D02*
X53531026Y-136294000D01*
X47201026Y-178260000D02*
X57122026Y-178260000D01*
X57362026Y-178500000D02*
X57362026Y-178000000D01*
X53997026Y-176344000D02*
G75*
G03*
X54142279Y-175631195I-1535001J683999D01*
G01*
X54142026Y-175660000D02*
G75*
G03*
X53996782Y-174976682I-1679992J1D01*
G01*
X53146026Y-174125000D02*
G75*
G03*
X51778984Y-174124573I-684001J-1534993D01*
G01*
X50927026Y-174976000D02*
G75*
G03*
X50926599Y-176343042I1534993J-684001D01*
G01*
X51778026Y-177195000D02*
G75*
G03*
X53145068Y-177195427I684001J1534993D01*
G01*
X54142026Y-135020000D02*
G75*
G03*
X54142026Y-135020000I-1680000J0D01*
G01*
X54142026Y-129940000D02*
G75*
G03*
X54142026Y-129940000I-1680000J0D01*
G01*
X54142026Y-165500000D02*
G75*
G03*
X54142026Y-165500000I-1680000J0D01*
G01*
X54142026Y-160420000D02*
G75*
G03*
X54142026Y-160420000I-1680000J0D01*
G01*
X54142026Y-170580000D02*
G75*
G03*
X54142026Y-170580000I-1680000J0D01*
G01*
X54142026Y-150260000D02*
G75*
G03*
X54142026Y-150260000I-1680000J0D01*
G01*
X54142026Y-145180000D02*
G75*
G03*
X54142026Y-145180000I-1680000J0D01*
G01*
X54142026Y-155340000D02*
G75*
G03*
X54142026Y-155340000I-1680000J0D01*
G01*
X54142026Y-140100000D02*
G75*
G03*
X54142026Y-140100000I-1680000J0D01*
G01*
%TO.C,U7*%
X193071026Y-123450000D02*
X191121026Y-123450000D01*
X193071026Y-118330000D02*
X189621026Y-118330000D01*
X193071026Y-123450000D02*
X195021026Y-123450000D01*
X193071026Y-118330000D02*
X195021026Y-118330000D01*
%TO.C,J1*%
X82062026Y-44730000D02*
X82027026Y-44766000D01*
X73072026Y-50905000D02*
X73572026Y-50905000D01*
X73072026Y-50165000D02*
X73072026Y-50905000D01*
X73312026Y-48605000D02*
X83592026Y-48605000D01*
X83592026Y-40744000D02*
X83592026Y-50665000D01*
X82267026Y-44936000D02*
X82220026Y-44982000D01*
X73312026Y-50105000D02*
X83592026Y-50105000D01*
X73312026Y-40744000D02*
X83592026Y-40744000D01*
X73312026Y-43704000D02*
X83592026Y-43704000D01*
X79958026Y-47244000D02*
X79923026Y-47279000D01*
X79765026Y-47028000D02*
X79718026Y-47074000D01*
X73312026Y-40744000D02*
X73312026Y-50665000D01*
X73312026Y-50665000D02*
X83592026Y-50665000D01*
X76596026Y-44470000D02*
G75*
G03*
X75228984Y-44469573I-684001J-1534993D01*
G01*
X75912026Y-47685000D02*
G75*
G03*
X76595344Y-47539756I1J1679992D01*
G01*
X77447026Y-46689000D02*
G75*
G03*
X77447453Y-45321958I-1534993J684001D01*
G01*
X74377026Y-45321000D02*
G75*
G03*
X74376599Y-46688042I1534993J-684001D01*
G01*
X75228026Y-47540000D02*
G75*
G03*
X75940831Y-47685253I683999J1535001D01*
G01*
X82672026Y-46005000D02*
G75*
G03*
X82672026Y-46005000I-1680000J0D01*
G01*
%TO.C,TP17*%
X237457026Y-181000000D02*
G75*
G03*
X237457026Y-181000000I-1700000J0D01*
G01*
%TO.C,R4*%
X356149657Y-138180000D02*
X357744395Y-138180000D01*
X356149657Y-133760000D02*
X357744395Y-133760000D01*
%TO.C,TP13*%
X348165026Y-94706000D02*
G75*
G03*
X348165026Y-94706000I-1700000J0D01*
G01*
%TO.C,R10*%
X188804395Y-192460000D02*
X187209657Y-192460000D01*
X188804395Y-188040000D02*
X187209657Y-188040000D01*
%TO.C,C2*%
X127117026Y-186851248D02*
X127117026Y-188273752D01*
X124397026Y-186851248D02*
X124397026Y-188273752D01*
%TO.C,J6*%
X322347026Y-41630000D02*
X322347026Y-41010000D01*
X323347026Y-49600000D02*
X323347026Y-41630000D01*
X336967026Y-41630000D02*
X335967026Y-41630000D01*
X334847026Y-58130000D02*
X324467026Y-58130000D01*
X323347026Y-53100000D02*
X323347026Y-55280000D01*
X323347026Y-41630000D02*
X322347026Y-41630000D01*
X332757026Y-58280000D02*
X333557026Y-58280000D01*
X335967026Y-53100000D02*
X335967026Y-55280000D01*
X322347026Y-41010000D02*
X336967026Y-41010000D01*
X335967026Y-41630000D02*
X335967026Y-49600000D01*
X336967026Y-41010000D02*
X336967026Y-41630000D01*
%TO.C,JP3*%
X208647026Y-127960000D02*
X208647026Y-132160000D01*
X209067026Y-125835000D02*
X209067026Y-126340000D01*
X207757026Y-126340000D02*
X207757026Y-127960000D01*
X209817026Y-127960000D02*
X209817026Y-126340000D01*
X208887026Y-127960000D02*
X208887026Y-132160000D01*
X208527026Y-127960000D02*
X208527026Y-132160000D01*
X209757026Y-123900000D02*
X209757026Y-124900000D01*
X205697026Y-127960000D02*
X209817026Y-127960000D01*
X209817026Y-126340000D02*
X205697026Y-126340000D01*
X208767026Y-127960000D02*
X208767026Y-132160000D01*
X205697026Y-126340000D02*
X205697026Y-127960000D01*
X207067026Y-132160000D02*
X206447026Y-132160000D01*
X207067026Y-125782114D02*
X207067026Y-126340000D01*
X208447026Y-125835000D02*
X208447026Y-126340000D01*
X206447026Y-132160000D02*
X206447026Y-127960000D01*
X209067026Y-127960000D02*
X209067026Y-132160000D01*
X206447026Y-125782114D02*
X206447026Y-126340000D01*
X208757026Y-123900000D02*
X209757026Y-123900000D01*
X208447026Y-132160000D02*
X208447026Y-127960000D01*
X209007026Y-127960000D02*
X209007026Y-132160000D01*
X207067026Y-127960000D02*
X207067026Y-132160000D01*
X209067026Y-132160000D02*
X208447026Y-132160000D01*
D11*
%TO.C,U17*%
X275737026Y-47346000D02*
X275737026Y-98654000D01*
X254401026Y-47346000D02*
X275737026Y-47346000D01*
X254401026Y-75794000D02*
X254401026Y-70206000D01*
X254401026Y-47346000D02*
X254401026Y-70206000D01*
X254401026Y-75794000D02*
X254401026Y-98654000D01*
X254401026Y-98654000D02*
X275737026Y-98654000D01*
D12*
%TO.C,U18*%
X184507026Y-200060000D02*
X186457026Y-200060000D01*
X184507026Y-200060000D02*
X182557026Y-200060000D01*
X184507026Y-194940000D02*
X186457026Y-194940000D01*
X184507026Y-194940000D02*
X181057026Y-194940000D01*
%TO.C,R13*%
X144425962Y-127696000D02*
X148780090Y-127696000D01*
X144425962Y-131116000D02*
X148780090Y-131116000D01*
%TO.C,J3*%
X333843026Y-209164000D02*
X333843026Y-206984000D01*
X346463026Y-220634000D02*
X347463026Y-220634000D01*
X334963026Y-204134000D02*
X345343026Y-204134000D01*
X333843026Y-220634000D02*
X333843026Y-212664000D01*
X346463026Y-212664000D02*
X346463026Y-220634000D01*
X346463026Y-209164000D02*
X346463026Y-206984000D01*
X332843026Y-220634000D02*
X333843026Y-220634000D01*
X347463026Y-221254000D02*
X332843026Y-221254000D01*
X332843026Y-221254000D02*
X332843026Y-220634000D01*
X347463026Y-220634000D02*
X347463026Y-221254000D01*
X337053026Y-203984000D02*
X336253026Y-203984000D01*
%TO.C,R8*%
X353415657Y-102366000D02*
X355010395Y-102366000D01*
X353415657Y-97946000D02*
X355010395Y-97946000D01*
%TO.C,U19*%
X264249026Y-120108000D02*
X266199026Y-120108000D01*
X264249026Y-120108000D02*
X260799026Y-120108000D01*
X264249026Y-125228000D02*
X262299026Y-125228000D01*
X264249026Y-125228000D02*
X266199026Y-125228000D01*
%TO.C,R14*%
X244554395Y-171710000D02*
X242959657Y-171710000D01*
X244554395Y-167290000D02*
X242959657Y-167290000D01*
%TO.C,U6*%
X357007026Y-149198000D02*
X355057026Y-149198000D01*
X357007026Y-144078000D02*
X358957026Y-144078000D01*
X357007026Y-144078000D02*
X353557026Y-144078000D01*
X357007026Y-149198000D02*
X358957026Y-149198000D01*
%TO.C,J5*%
X357567026Y-41048000D02*
X357567026Y-49018000D01*
X344947026Y-52518000D02*
X344947026Y-54698000D01*
X354357026Y-57698000D02*
X355157026Y-57698000D01*
X343947026Y-41048000D02*
X343947026Y-40428000D01*
X343947026Y-40428000D02*
X358567026Y-40428000D01*
X344947026Y-49018000D02*
X344947026Y-41048000D01*
X356447026Y-57548000D02*
X346067026Y-57548000D01*
X357567026Y-52518000D02*
X357567026Y-54698000D01*
X358567026Y-41048000D02*
X357567026Y-41048000D01*
X358567026Y-40428000D02*
X358567026Y-41048000D01*
X344947026Y-41048000D02*
X343947026Y-41048000D01*
D11*
%TO.C,SW1*%
X114157026Y-41000000D02*
X111857026Y-41000000D01*
X120457026Y-41000000D02*
X118257026Y-41000000D01*
X120457026Y-45600000D02*
X111857026Y-45600000D01*
D12*
%TO.C,TP18*%
X360165026Y-174706000D02*
G75*
G03*
X360165026Y-174706000I-1700000J0D01*
G01*
%TO.C,JP4*%
X274017026Y-148140000D02*
X272397026Y-148140000D01*
X268197026Y-148890000D02*
X272397026Y-148890000D01*
X272397026Y-151450000D02*
X268197026Y-151450000D01*
X274522026Y-150890000D02*
X274017026Y-150890000D01*
X274574912Y-148890000D02*
X274017026Y-148890000D01*
X274017026Y-152260000D02*
X274017026Y-148140000D01*
X268197026Y-151510000D02*
X268197026Y-150890000D01*
X272397026Y-151090000D02*
X268197026Y-151090000D01*
X272397026Y-151330000D02*
X268197026Y-151330000D01*
X272397026Y-148140000D02*
X272397026Y-152260000D01*
X272397026Y-152260000D02*
X274017026Y-152260000D01*
X274522026Y-151510000D02*
X274017026Y-151510000D01*
X272397026Y-150970000D02*
X268197026Y-150970000D01*
X274574912Y-149510000D02*
X274017026Y-149510000D01*
X272397026Y-149510000D02*
X268197026Y-149510000D01*
X276457026Y-151200000D02*
X276457026Y-152200000D01*
X268197026Y-149510000D02*
X268197026Y-148890000D01*
X272397026Y-151510000D02*
X268197026Y-151510000D01*
X268197026Y-150890000D02*
X272397026Y-150890000D01*
X276457026Y-152200000D02*
X275457026Y-152200000D01*
X272397026Y-151210000D02*
X268197026Y-151210000D01*
X274017026Y-150200000D02*
X272397026Y-150200000D01*
%TO.C,R12*%
X144681962Y-137094000D02*
X149036090Y-137094000D01*
X144681962Y-140514000D02*
X149036090Y-140514000D01*
%TO.C,U11*%
X218217026Y-115584000D02*
X220167026Y-115584000D01*
X218217026Y-120704000D02*
X216267026Y-120704000D01*
X218217026Y-120704000D02*
X220167026Y-120704000D01*
X218217026Y-115584000D02*
X214767026Y-115584000D01*
%TO.C,U24*%
X144827026Y-44630000D02*
X144827026Y-41970000D01*
X144827026Y-41970000D02*
X162667026Y-41970000D01*
X162667026Y-44630000D02*
X162667026Y-41970000D01*
X142227026Y-43300000D02*
X142227026Y-41970000D01*
X142227026Y-41970000D02*
X143557026Y-41970000D01*
X144827026Y-44630000D02*
X162667026Y-44630000D01*
%TO.C,J12*%
X196251526Y-216921000D02*
X221771526Y-216921000D01*
X215366526Y-211192000D02*
X215319526Y-211238000D01*
X210081526Y-210986000D02*
X210046526Y-211022000D01*
X196251526Y-216361000D02*
X221771526Y-216361000D01*
X196251526Y-214861000D02*
X221771526Y-214861000D01*
X202897526Y-213500000D02*
X202862526Y-213535000D01*
X215161526Y-210986000D02*
X215126526Y-211022000D01*
X217944526Y-213284000D02*
X217897526Y-213330000D01*
X218137526Y-213500000D02*
X218102526Y-213535000D01*
X196011526Y-216421000D02*
X196011526Y-217161000D01*
X212864526Y-213284000D02*
X212817526Y-213330000D01*
X220446526Y-211192000D02*
X220399526Y-211238000D01*
X207784526Y-213284000D02*
X207737526Y-213330000D01*
X213057526Y-213500000D02*
X213022526Y-213535000D01*
X196011526Y-217161000D02*
X196511526Y-217161000D01*
X210286526Y-211192000D02*
X210239526Y-211238000D01*
X221771526Y-207000000D02*
X221771526Y-216921000D01*
X205206526Y-211192000D02*
X205159526Y-211238000D01*
X196251526Y-207000000D02*
X221771526Y-207000000D01*
X207977526Y-213500000D02*
X207942526Y-213535000D01*
X202704526Y-213284000D02*
X202657526Y-213330000D01*
X196251526Y-209960000D02*
X221771526Y-209960000D01*
X196251526Y-207000000D02*
X196251526Y-216921000D01*
X205001526Y-210986000D02*
X204966526Y-211022000D01*
X220241526Y-210986000D02*
X220206526Y-211022000D01*
X197316526Y-211577000D02*
G75*
G03*
X197316099Y-212944042I1534993J-684001D01*
G01*
X200386526Y-212945000D02*
G75*
G03*
X200386953Y-211577958I-1534993J684001D01*
G01*
X198167526Y-213796000D02*
G75*
G03*
X198880331Y-213941253I683999J1535001D01*
G01*
X198851526Y-213941000D02*
G75*
G03*
X199534844Y-213795756I1J1679992D01*
G01*
X199535526Y-210726000D02*
G75*
G03*
X198168484Y-210725573I-684001J-1534993D01*
G01*
X220851526Y-212261000D02*
G75*
G03*
X220851526Y-212261000I-1680000J0D01*
G01*
X210691526Y-212261000D02*
G75*
G03*
X210691526Y-212261000I-1680000J0D01*
G01*
X215771526Y-212261000D02*
G75*
G03*
X215771526Y-212261000I-1680000J0D01*
G01*
X205611526Y-212261000D02*
G75*
G03*
X205611526Y-212261000I-1680000J0D01*
G01*
%TO.C,R16*%
X111723737Y-69645000D02*
X110276263Y-69645000D01*
X111723737Y-72355000D02*
X110276263Y-72355000D01*
%TO.C,F1*%
X141309289Y-72595000D02*
X142756763Y-72595000D01*
X141309289Y-69885000D02*
X142756763Y-69885000D01*
D13*
%TO.C,U2*%
X70433026Y-180186000D02*
X70433026Y-152286000D01*
X124833026Y-180186000D02*
X70433026Y-180186000D01*
X70433026Y-152286000D02*
X124833026Y-152286000D01*
X124833026Y-152286000D02*
X124833026Y-180186000D01*
D12*
%TO.C,R9*%
X241959657Y-116210000D02*
X243554395Y-116210000D01*
X241959657Y-111790000D02*
X243554395Y-111790000D01*
%TO.C,F2*%
X142325289Y-65483000D02*
X143772763Y-65483000D01*
X142325289Y-62773000D02*
X143772763Y-62773000D01*
%TO.C,JP2*%
X130317026Y-71060000D02*
X130317026Y-66940000D01*
X130822026Y-70310000D02*
X130317026Y-70310000D01*
X130874912Y-68310000D02*
X130317026Y-68310000D01*
X128697026Y-69890000D02*
X124497026Y-69890000D01*
X128697026Y-66940000D02*
X128697026Y-71060000D01*
X128697026Y-70310000D02*
X124497026Y-70310000D01*
X128697026Y-70250000D02*
X124497026Y-70250000D01*
X130317026Y-66940000D02*
X128697026Y-66940000D01*
X132757026Y-70000000D02*
X132757026Y-71000000D01*
X130317026Y-69000000D02*
X128697026Y-69000000D01*
X132757026Y-71000000D02*
X131757026Y-71000000D01*
X124497026Y-70310000D02*
X124497026Y-69690000D01*
X130874912Y-67690000D02*
X130317026Y-67690000D01*
X124497026Y-67690000D02*
X128697026Y-67690000D01*
X128697026Y-70010000D02*
X124497026Y-70010000D01*
X128697026Y-70130000D02*
X124497026Y-70130000D01*
X124497026Y-69690000D02*
X128697026Y-69690000D01*
X128697026Y-69770000D02*
X124497026Y-69770000D01*
X128697026Y-68310000D02*
X124497026Y-68310000D01*
X128697026Y-71060000D02*
X130317026Y-71060000D01*
X130822026Y-69690000D02*
X130317026Y-69690000D01*
X124497026Y-68310000D02*
X124497026Y-67690000D01*
%TO.C,U21*%
X245475026Y-158558000D02*
X247425026Y-158558000D01*
X245475026Y-158558000D02*
X243525026Y-158558000D01*
X245475026Y-163678000D02*
X248925026Y-163678000D01*
X245475026Y-163678000D02*
X243525026Y-163678000D01*
D11*
%TO.C,U22*%
X315351026Y-172800000D02*
X338211026Y-172800000D01*
X286903026Y-172800000D02*
X309763026Y-172800000D01*
X286903026Y-172800000D02*
X286903026Y-151464000D01*
X338211026Y-172800000D02*
X338211026Y-151464000D01*
X315351026Y-172800000D02*
X309763026Y-172800000D01*
X286903026Y-151464000D02*
X338211026Y-151464000D01*
D12*
%TO.C,TP10*%
X193457026Y-105000000D02*
G75*
G03*
X193457026Y-105000000I-1700000J0D01*
G01*
%TO.C,J4*%
X283043026Y-209164000D02*
X283043026Y-206984000D01*
X296663026Y-220634000D02*
X296663026Y-221254000D01*
X295663026Y-212664000D02*
X295663026Y-220634000D01*
X284163026Y-204134000D02*
X294543026Y-204134000D01*
X283043026Y-220634000D02*
X283043026Y-212664000D01*
X296663026Y-221254000D02*
X282043026Y-221254000D01*
X282043026Y-220634000D02*
X283043026Y-220634000D01*
X295663026Y-220634000D02*
X296663026Y-220634000D01*
X286253026Y-203984000D02*
X285453026Y-203984000D01*
X282043026Y-221254000D02*
X282043026Y-220634000D01*
X295663026Y-209164000D02*
X295663026Y-206984000D01*
%TO.C,R11*%
X263959657Y-114210000D02*
X265554395Y-114210000D01*
X263959657Y-109790000D02*
X265554395Y-109790000D01*
%TO.C,J11*%
X114254526Y-210412000D02*
X114289526Y-210377000D01*
X105540526Y-216912000D02*
X105540526Y-206991000D01*
X127390526Y-212926000D02*
X127425526Y-212890000D01*
X111945526Y-212720000D02*
X111992526Y-212674000D01*
X144734526Y-210412000D02*
X144769526Y-210377000D01*
X114447526Y-210628000D02*
X114494526Y-210582000D01*
X117230526Y-212926000D02*
X117265526Y-212890000D01*
X137550526Y-212926000D02*
X137585526Y-212890000D01*
X112150526Y-212926000D02*
X112185526Y-212890000D01*
X156460526Y-216912000D02*
X105540526Y-216912000D01*
X156460526Y-216912000D02*
X156460526Y-206991000D01*
X124607526Y-210628000D02*
X124654526Y-210582000D01*
X147505526Y-212720000D02*
X147552526Y-212674000D01*
X132470526Y-212926000D02*
X132505526Y-212890000D01*
X149814526Y-210412000D02*
X149849526Y-210377000D01*
X147710526Y-212926000D02*
X147745526Y-212890000D01*
X119527526Y-210628000D02*
X119574526Y-210582000D01*
X139654526Y-210412000D02*
X139689526Y-210377000D01*
X122105526Y-212720000D02*
X122152526Y-212674000D01*
X144927526Y-210628000D02*
X144974526Y-210582000D01*
X109174526Y-210412000D02*
X109209526Y-210377000D01*
X134767526Y-210628000D02*
X134814526Y-210582000D01*
X156700526Y-207491000D02*
X156700526Y-206751000D01*
X122310526Y-212926000D02*
X122345526Y-212890000D01*
X129687526Y-210628000D02*
X129734526Y-210582000D01*
X124414526Y-210412000D02*
X124449526Y-210377000D01*
X132265526Y-212720000D02*
X132312526Y-212674000D01*
X119334526Y-210412000D02*
X119369526Y-210377000D01*
X134574526Y-210412000D02*
X134609526Y-210377000D01*
X107070526Y-212926000D02*
X107105526Y-212890000D01*
X137345526Y-212720000D02*
X137392526Y-212674000D01*
X156460526Y-207551000D02*
X105540526Y-207551000D01*
X109367526Y-210628000D02*
X109414526Y-210582000D01*
X156460526Y-213952000D02*
X105540526Y-213952000D01*
X156700526Y-206751000D02*
X156200526Y-206751000D01*
X139847526Y-210628000D02*
X139894526Y-210582000D01*
X127185526Y-212720000D02*
X127232526Y-212674000D01*
X156460526Y-206991000D02*
X105540526Y-206991000D01*
X117025526Y-212720000D02*
X117072526Y-212674000D01*
X106865526Y-212720000D02*
X106912526Y-212674000D01*
X150007526Y-210628000D02*
X150054526Y-210582000D01*
X129494526Y-210412000D02*
X129529526Y-210377000D01*
X142630526Y-212926000D02*
X142665526Y-212890000D01*
X142425526Y-212720000D02*
X142472526Y-212674000D01*
X156460526Y-209051000D02*
X105540526Y-209051000D01*
X153176526Y-213186000D02*
G75*
G03*
X154543568Y-213186427I684001J1534993D01*
G01*
X153860526Y-209971000D02*
G75*
G03*
X153177208Y-210116244I-1J-1679992D01*
G01*
X152325526Y-210967000D02*
G75*
G03*
X152325099Y-212334042I1534993J-684001D01*
G01*
X154544526Y-210116000D02*
G75*
G03*
X153831721Y-209970747I-683999J-1535001D01*
G01*
X155395526Y-212335000D02*
G75*
G03*
X155395953Y-210967958I-1534993J684001D01*
G01*
X135220526Y-211651000D02*
G75*
G03*
X135220526Y-211651000I-1680000J0D01*
G01*
X114900526Y-211651000D02*
G75*
G03*
X114900526Y-211651000I-1680000J0D01*
G01*
X130140526Y-211651000D02*
G75*
G03*
X130140526Y-211651000I-1680000J0D01*
G01*
X125060526Y-211651000D02*
G75*
G03*
X125060526Y-211651000I-1680000J0D01*
G01*
X109820526Y-211651000D02*
G75*
G03*
X109820526Y-211651000I-1680000J0D01*
G01*
X145380526Y-211651000D02*
G75*
G03*
X145380526Y-211651000I-1680000J0D01*
G01*
X150460526Y-211651000D02*
G75*
G03*
X150460526Y-211651000I-1680000J0D01*
G01*
X119980526Y-211651000D02*
G75*
G03*
X119980526Y-211651000I-1680000J0D01*
G01*
X140300526Y-211651000D02*
G75*
G03*
X140300526Y-211651000I-1680000J0D01*
G01*
D11*
%TO.C,U16*%
X165401026Y-162426000D02*
X165401026Y-185286000D01*
X165401026Y-133978000D02*
X165401026Y-156838000D01*
X165401026Y-162426000D02*
X165401026Y-156838000D01*
X165401026Y-133978000D02*
X186737026Y-133978000D01*
X165401026Y-185286000D02*
X186737026Y-185286000D01*
X186737026Y-133978000D02*
X186737026Y-185286000D01*
D12*
%TO.C,TP8*%
X77457026Y-118000000D02*
G75*
G03*
X77457026Y-118000000I-1700000J0D01*
G01*
%TO.C,JP1*%
X91075026Y-116158000D02*
X91075026Y-116778000D01*
X84750026Y-116778000D02*
X85255026Y-116778000D01*
X86875026Y-116578000D02*
X91075026Y-116578000D01*
X91075026Y-118778000D02*
X86875026Y-118778000D01*
X84697140Y-118778000D02*
X85255026Y-118778000D01*
X84697140Y-118158000D02*
X85255026Y-118158000D01*
X86875026Y-116458000D02*
X91075026Y-116458000D01*
X86875026Y-116218000D02*
X91075026Y-116218000D01*
X82815026Y-116468000D02*
X82815026Y-115468000D01*
X84750026Y-116158000D02*
X85255026Y-116158000D01*
X86875026Y-119528000D02*
X86875026Y-115408000D01*
X85255026Y-115408000D02*
X85255026Y-119528000D01*
X85255026Y-117468000D02*
X86875026Y-117468000D01*
X91075026Y-116778000D02*
X86875026Y-116778000D01*
X85255026Y-119528000D02*
X86875026Y-119528000D01*
X91075026Y-118158000D02*
X91075026Y-118778000D01*
X86875026Y-116698000D02*
X91075026Y-116698000D01*
X86875026Y-116338000D02*
X91075026Y-116338000D01*
X86875026Y-118158000D02*
X91075026Y-118158000D01*
X86875026Y-115408000D02*
X85255026Y-115408000D01*
X82815026Y-115468000D02*
X83815026Y-115468000D01*
X86875026Y-116158000D02*
X91075026Y-116158000D01*
D11*
%TO.C,U1*%
X56689026Y-98672000D02*
X79549026Y-98672000D01*
X56689026Y-98672000D02*
X56689026Y-77336000D01*
X85137026Y-98672000D02*
X79549026Y-98672000D01*
X56689026Y-77336000D02*
X107997026Y-77336000D01*
X107997026Y-98672000D02*
X107997026Y-77336000D01*
X85137026Y-98672000D02*
X107997026Y-98672000D01*
D12*
%TO.C,TP14*%
X254457026Y-119000000D02*
G75*
G03*
X254457026Y-119000000I-1700000J0D01*
G01*
%TO.C,TP4*%
X92457026Y-124000000D02*
G75*
G03*
X92457026Y-124000000I-1700000J0D01*
G01*
%TO.C,TP11*%
X360957026Y-67000000D02*
G75*
G03*
X360957026Y-67000000I-1700000J0D01*
G01*
%TO.C,J7*%
X228667026Y-216756000D02*
X229067026Y-216756000D01*
X228907026Y-207396000D02*
X269027026Y-207396000D01*
X228907026Y-216516000D02*
X269027026Y-216516000D01*
X248121026Y-210068000D02*
X247726026Y-210464000D01*
X243121026Y-210068000D02*
X242726026Y-210464000D01*
X253121026Y-210068000D02*
X252726026Y-210464000D01*
X242855026Y-209802000D02*
X242475026Y-210182000D01*
X235209026Y-212448000D02*
X234814026Y-212844000D01*
X269027026Y-207396000D02*
X269027026Y-216516000D01*
X245209026Y-212448000D02*
X244814026Y-212844000D01*
X263121026Y-210068000D02*
X262726026Y-210464000D01*
X238121026Y-210068000D02*
X237726026Y-210464000D01*
X262855026Y-209802000D02*
X262475026Y-210182000D01*
X258121026Y-210068000D02*
X257726026Y-210464000D01*
X228667026Y-216116000D02*
X228667026Y-216756000D01*
X237855026Y-209802000D02*
X237475026Y-210182000D01*
X255209026Y-212448000D02*
X254814026Y-212844000D01*
X265460026Y-212730000D02*
X265080026Y-213110000D01*
X245460026Y-212730000D02*
X245080026Y-213110000D01*
X228907026Y-216056000D02*
X269027026Y-216056000D01*
X260460026Y-212730000D02*
X260080026Y-213110000D01*
X235460026Y-212730000D02*
X235080026Y-213110000D01*
X260209026Y-212448000D02*
X259814026Y-212844000D01*
X250209026Y-212448000D02*
X249814026Y-212844000D01*
X265209026Y-212448000D02*
X264814026Y-212844000D01*
X232855026Y-209802000D02*
X232748026Y-209909000D01*
X252855026Y-209802000D02*
X252475026Y-210182000D01*
X257855026Y-209802000D02*
X257475026Y-210182000D01*
X247855026Y-209802000D02*
X247475026Y-210182000D01*
X267855026Y-209802000D02*
X267475026Y-210182000D01*
X228907026Y-207396000D02*
X228907026Y-216516000D01*
X233121026Y-210068000D02*
X233014026Y-210175000D01*
X229919026Y-212737000D02*
X229813026Y-212844000D01*
X268121026Y-210068000D02*
X267726026Y-210464000D01*
X255460026Y-212730000D02*
X255080026Y-213110000D01*
X240460026Y-212730000D02*
X240080026Y-213110000D01*
X250460026Y-212730000D02*
X250080026Y-213110000D01*
X230185026Y-213003000D02*
X230079026Y-213110000D01*
X228907026Y-214956000D02*
X269027026Y-214956000D01*
X240209026Y-212448000D02*
X239814026Y-212844000D01*
X243647026Y-211456000D02*
G75*
G03*
X243647026Y-211456000I-2180000J0D01*
G01*
X263647026Y-211456000D02*
G75*
G03*
X263647026Y-211456000I-2180000J0D01*
G01*
X238647026Y-211456000D02*
G75*
G03*
X238647026Y-211456000I-2180000J0D01*
G01*
X253647026Y-211456000D02*
G75*
G03*
X253647026Y-211456000I-2180000J0D01*
G01*
X248647026Y-211456000D02*
G75*
G03*
X248647026Y-211456000I-2180000J0D01*
G01*
X233647026Y-211456000D02*
G75*
G03*
X233647026Y-211456000I-2180000J0D01*
G01*
X268647026Y-211456000D02*
G75*
G03*
X268647026Y-211456000I-2180000J0D01*
G01*
X258647026Y-211456000D02*
G75*
G03*
X258647026Y-211456000I-2180000J0D01*
G01*
%TO.C,U23*%
X341457026Y-188940000D02*
X343407026Y-188940000D01*
X341457026Y-194060000D02*
X343407026Y-194060000D01*
X341457026Y-194060000D02*
X339507026Y-194060000D01*
X341457026Y-188940000D02*
X338007026Y-188940000D01*
%TD*%
D14*
%TO.C,U8*%
X289697026Y-72126000D03*
X289697026Y-87874000D03*
X335417026Y-72126000D03*
X335417026Y-87874000D03*
%TD*%
%TO.C,U9*%
X217401692Y-50140000D03*
X201653692Y-50140000D03*
X217401692Y-95860000D03*
X201653692Y-95860000D03*
%TD*%
%TO.C,U12*%
X289697026Y-99394000D03*
X289697026Y-115142000D03*
X335417026Y-99394000D03*
X335417026Y-115142000D03*
%TD*%
%TO.C,U4*%
X289697026Y-126826000D03*
X289697026Y-142574000D03*
X335417026Y-126826000D03*
X335417026Y-142574000D03*
%TD*%
%TO.C,U5*%
X189631026Y-50140000D03*
X173883026Y-50140000D03*
X189631026Y-95860000D03*
X173883026Y-95860000D03*
%TD*%
%TO.C,U20*%
X214931026Y-136772000D03*
X199183026Y-136772000D03*
X214931026Y-182492000D03*
X199183026Y-182492000D03*
%TD*%
%TO.C,U13*%
X245231026Y-50240000D03*
X229483026Y-50240000D03*
X245231026Y-95960000D03*
X229483026Y-95960000D03*
%TD*%
%TO.C,U17*%
X272943026Y-50140000D03*
X257195026Y-50140000D03*
X272943026Y-95860000D03*
X257195026Y-95860000D03*
%TD*%
%TO.C,U22*%
X289697026Y-154258000D03*
X289697026Y-170006000D03*
X335417026Y-154258000D03*
X335417026Y-170006000D03*
%TD*%
%TO.C,U16*%
X183943026Y-136772000D03*
X168195026Y-136772000D03*
X183943026Y-182492000D03*
X168195026Y-182492000D03*
%TD*%
%TO.C,U1*%
X59483026Y-80130000D03*
X59483026Y-95878000D03*
X105203026Y-80130000D03*
X105203026Y-95878000D03*
%TD*%
%LPC*%
D15*
%TO.C,U14*%
X352754026Y-106125000D03*
X352754026Y-107395000D03*
X352754026Y-108665000D03*
X352754026Y-109935000D03*
X357704026Y-109935000D03*
X357704026Y-108665000D03*
X357704026Y-107395000D03*
X357704026Y-106125000D03*
%TD*%
D16*
%TO.C,J10*%
X95805026Y-211651000D03*
D17*
X90725026Y-211651000D03*
X85645026Y-211651000D03*
X80565026Y-211651000D03*
X75485026Y-211651000D03*
X70405026Y-211651000D03*
X65325026Y-211651000D03*
X60245026Y-211651000D03*
X55165026Y-211651000D03*
X50085026Y-211651000D03*
%TD*%
D18*
%TO.C,TP6*%
X277757026Y-169750000D03*
%TD*%
D19*
%TO.C,JP5*%
X123693026Y-51952000D03*
D20*
X123693026Y-53952000D03*
%TD*%
D18*
%TO.C,J2*%
X59557026Y-48875000D03*
D21*
X59557026Y-56175000D03*
D22*
X59557026Y-61675000D03*
%TD*%
D14*
%TO.C,U8*%
X289697026Y-72126000D03*
X289697026Y-87874000D03*
X335417026Y-72126000D03*
X335417026Y-87874000D03*
%TD*%
D16*
%TO.C,J9*%
X166196026Y-212261000D03*
D17*
X171276026Y-212261000D03*
X176356026Y-212261000D03*
X181436026Y-212261000D03*
X186516026Y-212261000D03*
%TD*%
D23*
%TO.C,R15*%
X351965026Y-187456000D03*
X357165026Y-187456000D03*
%TD*%
D18*
%TO.C,TP9*%
X345465026Y-131706000D03*
%TD*%
D23*
%TO.C,R3*%
X268157026Y-165000000D03*
X273357026Y-165000000D03*
%TD*%
D15*
%TO.C,U3*%
X268596026Y-174017000D03*
X268596026Y-175287000D03*
X268596026Y-176557000D03*
X268596026Y-177827000D03*
X273546026Y-177827000D03*
X273546026Y-176557000D03*
X273546026Y-175287000D03*
X273546026Y-174017000D03*
%TD*%
D24*
%TO.C,K1*%
X121631026Y-130000000D03*
X133631026Y-118000000D03*
X121631026Y-118000000D03*
X127631026Y-116000000D03*
X133631026Y-130000000D03*
%TD*%
D14*
%TO.C,U9*%
X217401692Y-50140000D03*
X201653692Y-50140000D03*
X217401692Y-95860000D03*
X201653692Y-95860000D03*
%TD*%
D18*
%TO.C,TP12*%
X229757026Y-114000000D03*
%TD*%
D14*
%TO.C,U12*%
X289697026Y-99394000D03*
X289697026Y-115142000D03*
X335417026Y-99394000D03*
X335417026Y-115142000D03*
%TD*%
D23*
%TO.C,R7*%
X215557026Y-109000000D03*
X220757026Y-109000000D03*
%TD*%
D25*
%TO.C,C1*%
X152916526Y-104006000D03*
X156041526Y-104006000D03*
%TD*%
D26*
%TO.C,R1*%
X140631026Y-125550000D03*
X140631026Y-122450000D03*
%TD*%
D14*
%TO.C,U4*%
X289697026Y-126826000D03*
X289697026Y-142574000D03*
X335417026Y-126826000D03*
X335417026Y-142574000D03*
%TD*%
D18*
%TO.C,TP7*%
X135757026Y-76000000D03*
%TD*%
%TO.C,TP3*%
X111500000Y-88000000D03*
%TD*%
D23*
%TO.C,R5*%
X190157026Y-112000000D03*
X195357026Y-112000000D03*
%TD*%
D18*
%TO.C,TP5*%
X116379026Y-105022000D03*
%TD*%
D27*
%TO.C,R2*%
X103900000Y-47000000D03*
X107000000Y-47000000D03*
%TD*%
D14*
%TO.C,U5*%
X189631026Y-50140000D03*
X173883026Y-50140000D03*
X189631026Y-95860000D03*
X173883026Y-95860000D03*
%TD*%
D18*
%TO.C,TP16*%
X281757026Y-118000000D03*
%TD*%
D23*
%TO.C,R6*%
X354347026Y-71708000D03*
X359547026Y-71708000D03*
%TD*%
D14*
%TO.C,U20*%
X214931026Y-136772000D03*
X199183026Y-136772000D03*
X214931026Y-182492000D03*
X199183026Y-182492000D03*
%TD*%
D15*
%TO.C,U10*%
X355040026Y-80725000D03*
X355040026Y-81995000D03*
X355040026Y-83265000D03*
X355040026Y-84535000D03*
X359990026Y-84535000D03*
X359990026Y-83265000D03*
X359990026Y-81995000D03*
X359990026Y-80725000D03*
%TD*%
D19*
%TO.C,JP6*%
X155757026Y-68208000D03*
D20*
X153757026Y-68208000D03*
%TD*%
D18*
%TO.C,TP15*%
X167757026Y-192000000D03*
%TD*%
%TO.C,TP1*%
X83359026Y-56000000D03*
%TD*%
D14*
%TO.C,U13*%
X245231026Y-50240000D03*
X229483026Y-50240000D03*
X245231026Y-95960000D03*
X229483026Y-95960000D03*
%TD*%
D15*
%TO.C,U15*%
X240282026Y-122509000D03*
X240282026Y-123779000D03*
X240282026Y-125049000D03*
X240282026Y-126319000D03*
X245232026Y-126319000D03*
X245232026Y-125049000D03*
X245232026Y-123779000D03*
X245232026Y-122509000D03*
%TD*%
D24*
%TO.C,K2*%
X117000000Y-65000000D03*
X105000000Y-53000000D03*
X105000000Y-65000000D03*
X103000000Y-59000000D03*
X117000000Y-53000000D03*
%TD*%
D16*
%TO.C,J8*%
X52462026Y-175660000D03*
D17*
X52462026Y-170580000D03*
X52462026Y-165500000D03*
X52462026Y-160420000D03*
X52462026Y-155340000D03*
X52462026Y-150260000D03*
X52462026Y-145180000D03*
X52462026Y-140100000D03*
X52462026Y-135020000D03*
X52462026Y-129940000D03*
%TD*%
D15*
%TO.C,U7*%
X190596026Y-118985000D03*
X190596026Y-120255000D03*
X190596026Y-121525000D03*
X190596026Y-122795000D03*
X195546026Y-122795000D03*
X195546026Y-121525000D03*
X195546026Y-120255000D03*
X195546026Y-118985000D03*
%TD*%
D16*
%TO.C,J1*%
X75912026Y-46005000D03*
D17*
X80992026Y-46005000D03*
%TD*%
D18*
%TO.C,TP17*%
X235757026Y-181000000D03*
%TD*%
D23*
%TO.C,R4*%
X354347026Y-135970000D03*
X359547026Y-135970000D03*
%TD*%
D18*
%TO.C,TP13*%
X346465026Y-94706000D03*
%TD*%
D28*
%TO.C,R10*%
X190607026Y-190250000D03*
X185407026Y-190250000D03*
%TD*%
D29*
%TO.C,C2*%
X125757026Y-186000000D03*
X125757026Y-189125000D03*
%TD*%
D30*
%TO.C,J6*%
X333157026Y-56680000D03*
D31*
X330657026Y-56680000D03*
X328657026Y-56680000D03*
X326157026Y-56680000D03*
X333157026Y-54060000D03*
X330657026Y-54060000D03*
X328657026Y-54060000D03*
X326157026Y-54060000D03*
D18*
X336227026Y-57030000D03*
X323087026Y-57030000D03*
X323087026Y-51350000D03*
X336227026Y-51350000D03*
%TD*%
D19*
%TO.C,JP3*%
X208757026Y-124900000D03*
D20*
X206757026Y-124900000D03*
%TD*%
D14*
%TO.C,U17*%
X272943026Y-50140000D03*
X257195026Y-50140000D03*
X272943026Y-95860000D03*
X257195026Y-95860000D03*
%TD*%
D15*
%TO.C,U18*%
X182032026Y-195595000D03*
X182032026Y-196865000D03*
X182032026Y-198135000D03*
X182032026Y-199405000D03*
X186982026Y-199405000D03*
X186982026Y-198135000D03*
X186982026Y-196865000D03*
X186982026Y-195595000D03*
%TD*%
D32*
%TO.C,R13*%
X143553026Y-129406000D03*
X149653026Y-129406000D03*
%TD*%
D30*
%TO.C,J3*%
X336653026Y-205584000D03*
D31*
X339153026Y-205584000D03*
X341153026Y-205584000D03*
X343653026Y-205584000D03*
X336653026Y-208204000D03*
X339153026Y-208204000D03*
X341153026Y-208204000D03*
X343653026Y-208204000D03*
D18*
X333583026Y-210914000D03*
X346723026Y-210914000D03*
X333583026Y-205234000D03*
X346723026Y-205234000D03*
%TD*%
D23*
%TO.C,R8*%
X351613026Y-100156000D03*
X356813026Y-100156000D03*
%TD*%
D15*
%TO.C,U19*%
X261774026Y-120763000D03*
X261774026Y-122033000D03*
X261774026Y-123303000D03*
X261774026Y-124573000D03*
X266724026Y-124573000D03*
X266724026Y-123303000D03*
X266724026Y-122033000D03*
X266724026Y-120763000D03*
%TD*%
D28*
%TO.C,R14*%
X246357026Y-169500000D03*
X241157026Y-169500000D03*
%TD*%
D15*
%TO.C,U6*%
X354532026Y-144733000D03*
X354532026Y-146003000D03*
X354532026Y-147273000D03*
X354532026Y-148543000D03*
X359482026Y-148543000D03*
X359482026Y-147273000D03*
X359482026Y-146003000D03*
X359482026Y-144733000D03*
%TD*%
D30*
%TO.C,J5*%
X354757026Y-56098000D03*
D31*
X352257026Y-56098000D03*
X350257026Y-56098000D03*
X347757026Y-56098000D03*
X354757026Y-53478000D03*
X352257026Y-53478000D03*
X350257026Y-53478000D03*
X347757026Y-53478000D03*
D18*
X357827026Y-50768000D03*
X344687026Y-50768000D03*
X344687026Y-56448000D03*
X357827026Y-56448000D03*
%TD*%
D33*
%TO.C,SW1*%
X120257026Y-43300000D03*
X112057026Y-43300000D03*
D34*
X118157026Y-43300000D03*
D35*
X116157026Y-43300000D03*
X114157026Y-43300000D03*
%TD*%
D18*
%TO.C,TP18*%
X358465026Y-174706000D03*
%TD*%
D19*
%TO.C,JP4*%
X275457026Y-151200000D03*
D20*
X275457026Y-149200000D03*
%TD*%
D32*
%TO.C,R12*%
X143809026Y-138804000D03*
X149909026Y-138804000D03*
%TD*%
D15*
%TO.C,U11*%
X215742026Y-116239000D03*
X215742026Y-117509000D03*
X215742026Y-118779000D03*
X215742026Y-120049000D03*
X220692026Y-120049000D03*
X220692026Y-118779000D03*
X220692026Y-117509000D03*
X220692026Y-116239000D03*
%TD*%
D36*
%TO.C,U24*%
X143557026Y-43300000D03*
D37*
X146097026Y-43300000D03*
X148637026Y-43300000D03*
X151177026Y-43300000D03*
X153717026Y-43300000D03*
X156257026Y-43300000D03*
X158797026Y-43300000D03*
X161337026Y-43300000D03*
%TD*%
D16*
%TO.C,J12*%
X198851526Y-212261000D03*
D17*
X203931526Y-212261000D03*
X209011526Y-212261000D03*
X214091526Y-212261000D03*
X219171526Y-212261000D03*
%TD*%
D38*
%TO.C,R16*%
X112550000Y-71000000D03*
X109450000Y-71000000D03*
%TD*%
D27*
%TO.C,F1*%
X140483026Y-71240000D03*
X143583026Y-71240000D03*
%TD*%
D39*
%TO.C,U2*%
X77823026Y-178936000D03*
D40*
X80363026Y-178936000D03*
X82903026Y-178936000D03*
X85443026Y-178936000D03*
X87983026Y-178936000D03*
X90523026Y-178936000D03*
X93063026Y-178936000D03*
X95603026Y-178936000D03*
X98143026Y-178936000D03*
X100683026Y-178936000D03*
X103223026Y-178936000D03*
X105763026Y-178936000D03*
X108303026Y-178936000D03*
X110843026Y-178936000D03*
X113383026Y-178936000D03*
X115923026Y-178936000D03*
X118463026Y-178936000D03*
X121003026Y-178936000D03*
X123543026Y-178936000D03*
X77823026Y-153536000D03*
X80363026Y-153536000D03*
X82903026Y-153536000D03*
X85443026Y-153536000D03*
X87983026Y-153536000D03*
X90523026Y-153536000D03*
X93063026Y-153536000D03*
X95603026Y-153536000D03*
X98143026Y-153536000D03*
X100683026Y-153536000D03*
X103223026Y-153536000D03*
X105763026Y-153536000D03*
X108303026Y-153536000D03*
X110843026Y-153536000D03*
X113383026Y-153536000D03*
X115923026Y-153536000D03*
X118463026Y-153536000D03*
X121003026Y-153536000D03*
X123543026Y-153536000D03*
%TD*%
D23*
%TO.C,R9*%
X240157026Y-114000000D03*
X245357026Y-114000000D03*
%TD*%
D27*
%TO.C,F2*%
X141499026Y-64128000D03*
X144599026Y-64128000D03*
%TD*%
D19*
%TO.C,JP2*%
X131757026Y-70000000D03*
D20*
X131757026Y-68000000D03*
%TD*%
D41*
%TO.C,U21*%
X247950026Y-163023000D03*
X247950026Y-161753000D03*
X247950026Y-160483000D03*
X247950026Y-159213000D03*
X243000026Y-159213000D03*
X243000026Y-160483000D03*
X243000026Y-161753000D03*
X243000026Y-163023000D03*
%TD*%
D14*
%TO.C,U22*%
X289697026Y-154258000D03*
X289697026Y-170006000D03*
X335417026Y-154258000D03*
X335417026Y-170006000D03*
%TD*%
D18*
%TO.C,TP10*%
X191757026Y-105000000D03*
%TD*%
D30*
%TO.C,J4*%
X285853026Y-205584000D03*
D31*
X288353026Y-205584000D03*
X290353026Y-205584000D03*
X292853026Y-205584000D03*
X285853026Y-208204000D03*
X288353026Y-208204000D03*
X290353026Y-208204000D03*
X292853026Y-208204000D03*
D18*
X282783026Y-210914000D03*
X295923026Y-210914000D03*
X282783026Y-205234000D03*
X295923026Y-205234000D03*
%TD*%
D23*
%TO.C,R11*%
X262157026Y-112000000D03*
X267357026Y-112000000D03*
%TD*%
D16*
%TO.C,J11*%
X153860526Y-211651000D03*
D17*
X148780526Y-211651000D03*
X143700526Y-211651000D03*
X138620526Y-211651000D03*
X133540526Y-211651000D03*
X128460526Y-211651000D03*
X123380526Y-211651000D03*
X118300526Y-211651000D03*
X113220526Y-211651000D03*
X108140526Y-211651000D03*
%TD*%
D14*
%TO.C,U16*%
X183943026Y-136772000D03*
X168195026Y-136772000D03*
X183943026Y-182492000D03*
X168195026Y-182492000D03*
%TD*%
D18*
%TO.C,TP8*%
X75757026Y-118000000D03*
%TD*%
D19*
%TO.C,JP1*%
X83815026Y-116468000D03*
D20*
X83815026Y-118468000D03*
%TD*%
D14*
%TO.C,U1*%
X59483026Y-80130000D03*
X59483026Y-95878000D03*
X105203026Y-80130000D03*
X105203026Y-95878000D03*
%TD*%
D18*
%TO.C,TP14*%
X252757026Y-119000000D03*
%TD*%
%TO.C,TP4*%
X90757026Y-124000000D03*
%TD*%
%TO.C,TP11*%
X359257026Y-67000000D03*
%TD*%
D16*
%TO.C,J7*%
X231467026Y-211456000D03*
D17*
X236467026Y-211456000D03*
X241467026Y-211456000D03*
X246467026Y-211456000D03*
X251467026Y-211456000D03*
X256467026Y-211456000D03*
X261467026Y-211456000D03*
X266467026Y-211456000D03*
%TD*%
D15*
%TO.C,U23*%
X338982026Y-189595000D03*
X338982026Y-190865000D03*
X338982026Y-192135000D03*
X338982026Y-193405000D03*
X343932026Y-193405000D03*
X343932026Y-192135000D03*
X343932026Y-190865000D03*
X343932026Y-189595000D03*
%TD*%
M02*
